<svg width="22" height="22" viewBox="0 0 22 22" fill="none" xmlns="http://www.w3.org/2000/svg">
<path fill-rule="evenodd" clip-rule="evenodd" d="M16.607 21.969C13.449 21.969 9.29545 19.7721 5.72549 16.2365C0.954088 11.4308 -1.20849 5.66389 0.679476 2.7118C0.748129 2.54017 0.851109 2.40286 0.988415 2.29988L2.73907 0.549226C3.11666 0.20596 3.59724 0 4.14646 0C4.76434 0 5.34789 0.274613 5.82847 0.720859L8.95219 3.84458C9.84468 4.73707 9.91333 6.11014 9.08949 6.89965L7.09855 8.89059C7.88806 10.0234 8.81488 11.1218 9.81035 12.1516C10.8402 13.1814 11.9386 14.0739 13.0714 14.8634L15.0623 12.8725C15.4399 12.4949 15.9205 12.3232 16.4697 12.3232C17.0876 12.3232 17.6711 12.5979 18.1517 13.0441L21.2754 16.1678C21.6874 16.5797 21.9276 17.129 21.9963 17.6782C22.0306 18.2618 21.8247 18.8453 21.4471 19.2229L19.6964 20.9736C19.5934 21.0765 19.4561 21.1795 19.2845 21.2825C18.5293 21.7287 17.6368 21.969 16.607 21.969ZM4.14629 1.37308C4.00898 1.37308 3.83735 1.40741 3.73437 1.54471L1.94939 3.29537C1.94939 3.29537 1.91506 3.3297 1.91506 3.36402L1.88073 3.43268C0.30171 5.80121 2.42996 10.9845 6.72079 15.241C9.94749 18.5021 13.8264 20.596 16.6068 20.596C17.3964 20.596 18.0142 20.4243 18.5291 20.1154L18.5978 20.0811C18.6664 20.0468 18.6664 20.0468 18.6664 20.0468L20.4171 18.2961C20.5887 18.1245 20.5887 17.9185 20.5887 17.8155C20.5887 17.5752 20.4514 17.3693 20.2798 17.1633L17.1561 14.0053C16.9501 13.7993 16.7098 13.6963 16.4695 13.6963C16.3322 13.6963 16.1606 13.7307 16.0576 13.868L14.0324 15.8932C13.5861 16.3395 12.8652 16.3738 12.3503 15.9962C11.1489 15.1724 9.98181 14.1769 8.91769 13.1128C7.81924 12.0143 6.85809 10.8816 6.03425 9.68012C5.65666 9.13089 5.69099 8.41004 6.13723 7.99812L8.1625 5.97285C8.43712 5.69823 8.36846 5.18333 8.0252 4.84007L4.90147 1.71635C4.62686 1.47606 4.38658 1.37308 4.14629 1.37308Z" fill="white"/>
</svg>
