<?xml version="1.0" encoding="utf-8"?><svg xmlns="http://www.w3.org/2000/svg" xmlns:xlink="http://www.w3.org/1999/xlink"><symbol viewBox="0 0 6 14" id="Facebook" xmlns="http://www.w3.org/2000/svg"><path d="M1.297 2.712v1.927H0v2.357h1.297V14H3.96V6.996h1.788s.167-1.13.248-2.366H3.971V3.018c0-.24.29-.564.577-.564H6V0H4.027c-2.796 0-2.73 2.36-2.73 2.712z"/></symbol><symbol viewBox="0 0 20 19" id="Union" xmlns="http://www.w3.org/2000/svg"><path fill-rule="evenodd" clip-rule="evenodd" d="M13.917 3.814c-.479.959-.8 2.341-.8 3.913 0 1.572.321 2.955.8 3.913.504 1.008 1.046 1.314 1.398 1.314.35 0 .893-.306 1.397-1.314.48-.958.8-2.34.8-3.913 0-1.572-.32-2.954-.8-3.913-.504-1.008-1.046-1.314-1.397-1.314s-.894.306-1.398 1.314zM3.447 6.248l8.807-2.808c-.511 1.186-.803 2.685-.803 4.287 0 1.603.292 3.102.803 4.287L3.447 9.206 3.43 9.2a1.303 1.303 0 01-.924-1.386.834.834 0 000-.176 1.303 1.303 0 01.924-1.386l.016-.005zm-.5-1.59L14.468.985c.265-.097.547-.152.848-.152 1.322 0 2.295 1.05 2.888 2.236.617 1.235.975 2.883.975 4.658 0 1.775-.358 3.423-.975 4.658-.593 1.186-1.566 2.236-2.888 2.236-.3 0-.583-.054-.848-.152l-4.514-1.44.736 2.224a2.349 2.349 0 01-1.312 3.026h-.001a2.348 2.348 0 01-3.065-1.332l-2.047-5.731-1.316-.42A2.97 2.97 0 01.842 7.727a2.97 2.97 0 012.106-3.069zm5.044 7.746l-1.73-.551 1.613 4.514a.682.682 0 101.24-.569L7.99 12.404zm7.787-6.184c.371.414.577.95.578 1.507a2.265 2.265 0 01-2.014 2.247 9.515 9.515 0 01-.259-2.247 9.515 9.515 0 01.26-2.247 2.265 2.265 0 011.435.74z"/></symbol><symbol viewBox="0 0 32 32" id="Up" xmlns="http://www.w3.org/2000/svg"><path d="M2.6 13.4l2.8 2.8L14 7.6V32h4V7.6l8.6 8.6 2.8-2.8L16 0z"/></symbol><symbol viewBox="0 0 16 16" id="address" xmlns="http://www.w3.org/2000/svg"><path fill-rule="evenodd" clip-rule="evenodd" d="M8 1.333a5.333 5.333 0 00-5.333 5.334c0 2.065 1.344 4.07 2.818 5.624A19.622 19.622 0 008 14.515a19.623 19.623 0 002.516-2.224c1.473-1.555 2.817-3.559 2.817-5.624A5.333 5.333 0 008 1.333zm0 14l-.37.555-.001-.002-.005-.002-.015-.01a7.106 7.106 0 01-.256-.181 20.935 20.935 0 01-2.836-2.484C2.99 11.597 1.334 9.268 1.334 6.667a6.667 6.667 0 1113.333 0c0 2.601-1.656 4.93-3.182 6.542a20.935 20.935 0 01-3.037 2.626l-.056.038-.015.01-.004.004H8.37L8 15.333zm0 0l.37.555a.667.667 0 01-.74 0l.37-.555z"/><path fill-rule="evenodd" clip-rule="evenodd" d="M8 5.333A1.333 1.333 0 108 8a1.333 1.333 0 000-2.667zM5.335 6.667a2.667 2.667 0 115.333 0 2.667 2.667 0 01-5.333 0z"/></symbol><symbol viewBox="0 0 17 20" id="address2" xmlns="http://www.w3.org/2000/svg"><path fill-rule="evenodd" clip-rule="evenodd" d="M15.625 2.5H13.75V.625A.625.625 0 0013.125 0H1.875A1.877 1.877 0 000 1.875V17.5C0 18.879 1.121 20 2.5 20h13.125c.345 0 .625-.28.625-.625V3.125a.625.625 0 00-.625-.625zM1.875 1.25H12.5V2.5H1.875a.627.627 0 01-.625-.625c0-.344.281-.625.625-.625zm.625 17.5c-.69 0-1.25-.56-1.25-1.25V3.635c.196.07.405.115.625.115H15v15H2.5zM8.125 7.5A1.877 1.877 0 006.25 9.375c0 1.034.841 1.875 1.875 1.875A1.877 1.877 0 0010 9.375 1.877 1.877 0 008.125 7.5zm0 2.5a.627.627 0 01-.625-.625c0-.344.281-.625.625-.625s.625.281.625.625a.627.627 0 01-.625.625zM3.75 9.375A4.38 4.38 0 018.125 5 4.38 4.38 0 0112.5 9.375c0 2.246-3.51 6.223-3.91 6.668a.628.628 0 01-.93 0c-.4-.445-3.91-4.422-3.91-6.668zm1.25 0c0 1.194 1.76 3.678 3.125 5.296 1.365-1.618 3.125-4.105 3.125-5.296A3.128 3.128 0 008.125 6.25 3.128 3.128 0 005 9.375z"/></symbol><symbol viewBox="0 0 34 34" id="atm-card" xmlns="http://www.w3.org/2000/svg"><path d="M32.895 9.494c0-2.2-1.784-3.985-3.984-3.985H5.004A3.985 3.985 0 001.02 9.494v14.423c0 2.2 1.784 3.985 3.984 3.985h23.907c2.2 0 3.984-1.784 3.984-3.985V9.494zm-27.89-2.39H28.91c1.318 0 2.39 1.108 2.39 2.426v.203H2.614V9.53c0-1.318 1.072-2.427 2.39-2.427zM31.3 11.326v2.789H2.614v-2.79H31.3zm-2.39 15.06H5.004c-1.318 0-2.39-1.108-2.39-2.426v-8.252H31.3v8.252c0 1.318-1.072 2.427-2.39 2.427z"/><path d="M12.232 22.51H9.753L9.235 24H8.079l2.417-6.398h.998L13.915 24h-1.16l-.523-1.49zm-2.167-.896h1.855l-.927-2.655-.928 2.655zm8.675-3.116h-1.995V24h-1.103v-5.502h-1.977v-.896h5.075v.896zm2.285-.896l1.846 4.904 1.841-4.904h1.437V24h-1.107v-2.11l.11-2.82-1.89 4.93h-.795l-1.886-4.926.11 2.817V24h-1.107v-6.398h1.441z"/></symbol><symbol viewBox="0 0 32 32" id="authentication" xmlns="http://www.w3.org/2000/svg"><path d="M24.997 14.95L25 6.5 12.5.25 0 6.5v8.279a15.476 15.476 0 006.903 12.9l5.597 3.73 4.312-2.872a8.493 8.493 0 108.185-13.587zM12.5 30.209l-5.042-3.361A14.48 14.48 0 011 14.779V7.118l11.5-5.75L24 7.118v7.717c-.166-.01-.331-.025-.5-.025s-.334.015-.5.025v-7.1l-10.5-5.25L2 7.735v7.044a13.483 13.483 0 006.012 11.236l4.488 2.99 3.271-2.179c.14.305.298.602.473.888L12.5 30.209zm2.897-4.335l-2.897 1.93-3.932-2.62c-.194-.13-.382-.266-.568-.405V20.31H7v3.63a12.469 12.469 0 01-1.5-1.665V19.37c0-.688.468-1.287 1.135-1.454l3.391-.85a2.498 2.498 0 001.975 2.195v2.05h1v-2.05a2.495 2.495 0 001.974-2.195l2.226.559a8.458 8.458 0 00-1.803 8.25zM10 10.809h1.382a5.264 5.264 0 002.232-.5h.136L15 11.975v2.084l-1.666 1.25h-1.667L10 14.059v-3.25zm-.959-1a1.956 1.956 0 011.071-1.445 5.048 5.048 0 013.511-.221l.115.166h.761a.5.5 0 01.5.5v1.5l-.75-1h-.868l-.105.052a4.269 4.269 0 01-1.895.448H9.04zM14 16.059v.75a1.5 1.5 0 01-3 0v-.75l.334.25h2.333l.334-.25zm1-.019v-.73l1-.75V8.81a1.5 1.5 0 00-1.5-1.5h-.332c-.723-.44-2.524-.529-3.8-.13a3.112 3.112 0 00-2.367 3.13v.5h1v3.75l1 .75v.728l-3.609.907a2.497 2.497 0 00-1.891 2.424v1.35a12.49 12.49 0 01-1.5-5.939V8.354l9.5-4.75 9.5 4.75v6.426c0 .057-.003.114-.004.171a8.468 8.468 0 00-3.956 1.853l-3.04-.764zm8.5 14.769a7.5 7.5 0 117.5-7.5 7.51 7.51 0 01-7.5 7.5z"/><path d="M26 8.809h6v1h-6v-1zm0 2h4v1h-4v-1zm0 2h2v1h-2v-1zm-4.341 10.147l-1.767-1.768-2.829 2.828 4.596 4.596 7.778-7.778-2.829-2.828-4.949 4.95zm0 4.242l-3.182-3.182 1.415-1.414 1.767 1.767 4.95-4.95 1.415 1.414-6.364 6.364z"/></symbol><symbol viewBox="0 0 18 18" id="baby" xmlns="http://www.w3.org/2000/svg"><path opacity=".2" d="M8.951.205c-.594 0-1.076.467-1.076 1.043V3.08h2.67V1.248c0-.576-.482-1.043-1.077-1.043h-.517z"/><path fill-rule="evenodd" clip-rule="evenodd" d="M9.541.821H8.95a.41.41 0 00-.41.411v1.343h1.413V1.232a.41.41 0 00-.41-.41zM8.95 0c-.68 0-1.232.552-1.232 1.232v1.485H7.25c-.68 0-1.232.552-1.232 1.232v2.183A1.232 1.232 0 005 7.345v9.423C5 17.448 5.552 18 6.232 18h6.366c.68 0 1.232-.552 1.232-1.232V7.345c0-.607-.44-1.112-1.019-1.213V3.949c0-.68-.551-1.232-1.232-1.232h-.806V1.232A1.23 1.23 0 009.542 0H8.95zM7.251 3.538h4.328a.41.41 0 01.41.411v2.022H6.84V3.949a.41.41 0 01.41-.41zM6.232 6.935h6.366a.41.41 0 01.41.41v1.146h-2.234a.34.34 0 100 .679h2.235v1.698h-2.236a.34.34 0 100 .68h2.236v2.037h-2.236a.34.34 0 100 .68h2.236v2.503a.41.41 0 01-.41.41H6.231a.41.41 0 01-.41-.41V7.345a.41.41 0 01.41-.41z"/></symbol><symbol viewBox="0 0 12 12" id="back" xmlns="http://www.w3.org/2000/svg"><path fill-rule="evenodd" clip-rule="evenodd" d="M4.471.195c.26.26.26.683 0 .943L1.61 4l2.862 2.862a.667.667 0 01-.942.943L.195 4.47a.667.667 0 010-.942L3.53.195c.26-.26.682-.26.942 0z"/><path fill-rule="evenodd" clip-rule="evenodd" d="M0 4c0-.368.298-.667.667-.667h8A3.333 3.333 0 0112 6.667v4.666a.667.667 0 01-1.333 0V6.667a2 2 0 00-2-2h-8A.667.667 0 010 4z"/></symbol><symbol viewBox="0 0 32 32" id="bar" xmlns="http://www.w3.org/2000/svg"><path d="M2.667 16c0-.736.597-1.333 1.333-1.333h24a1.333 1.333 0 010 2.666H4A1.333 1.333 0 012.667 16zm0-8c0-.736.597-1.333 1.333-1.333h24a1.333 1.333 0 010 2.666H4A1.333 1.333 0 012.667 8zm0 16c0-.736.597-1.333 1.333-1.333h24a1.333 1.333 0 010 2.666H4A1.333 1.333 0 012.667 24z"/></symbol><symbol viewBox="0 0 17 20" id="book" xmlns="http://www.w3.org/2000/svg"><g clip-path="url(#akclip0)"><path fill-rule="evenodd" clip-rule="evenodd" d="M15.625 2.5H13.75V.625A.625.625 0 0013.125 0H1.875A1.877 1.877 0 000 1.875V17.5C0 18.879 1.121 20 2.5 20h13.125c.345 0 .625-.28.625-.625V3.125a.625.625 0 00-.625-.625zM1.875 1.25H12.5V2.5H1.875a.627.627 0 01-.625-.625c0-.344.281-.625.625-.625zm.625 17.5c-.69 0-1.25-.56-1.25-1.25V3.635c.196.07.405.115.625.115H15v15H2.5zM8.125 7.5A1.877 1.877 0 006.25 9.375c0 1.034.841 1.875 1.875 1.875A1.877 1.877 0 0010 9.375 1.877 1.877 0 008.125 7.5zm0 2.5a.627.627 0 01-.625-.625c0-.344.281-.625.625-.625s.625.281.625.625a.627.627 0 01-.625.625zM3.75 9.375A4.38 4.38 0 018.125 5 4.38 4.38 0 0112.5 9.375c0 2.246-3.51 6.223-3.91 6.668a.628.628 0 01-.93 0c-.4-.445-3.91-4.422-3.91-6.668zm1.25 0c0 1.194 1.76 3.678 3.125 5.296 1.365-1.618 3.125-4.105 3.125-5.296A3.128 3.128 0 008.125 6.25 3.128 3.128 0 005 9.375z"/></g><defs><clipPath id="akclip0"><path d="M0 0h16.25v20H0z"/></clipPath></defs></symbol><symbol viewBox="0 0 32 30" id="box" xmlns="http://www.w3.org/2000/svg"><path d="M31.165 16.917l-5.723-2.808V7.548a.374.374 0 00-.05-.187l-.001-.001a.437.437 0 00-.02-.03l-.009-.013-.018-.021-.016-.017-.018-.016-.02-.016-.02-.014-.016-.01-4.19-2.42a.371.371 0 00-.012-.007l-7.83-4.52a.375.375 0 00-.376 0L.82 7.218a.375.375 0 00-.194.329v13.895a.375.375 0 00.188.325l12.033 6.947a.375.375 0 00.375 0l6.037-3.485c.4.735.935 1.36 1.503 1.746l4.011 2.733a.375.375 0 00.422 0l4.012-2.733c1.216-.828 2.169-2.629 2.169-4.099v-5.624a.376.376 0 00-.21-.336zm-6.849-9.37l-11.282 6.514-3.44-1.986 11.283-6.514 3.44 1.986zM6.151 10.954l2.296 1.325v7.044l-.933-1.06a.376.376 0 00-.424-.098l-.939.388v-7.6zm.375-.65L17.81 3.79l2.317 1.338-11.282 6.514-2.318-1.338zm6.508-9.27l4.025 2.323L5.776 9.871 1.751 7.547l11.283-6.514zM1.375 8.195l4.026 2.325v8.592a.375.375 0 00.518.347l1.21-.5 1.411 1.604a.375.375 0 00.657-.247v-7.605l3.461 1.999v13.03L1.375 21.227V8.196zm12.034 6.515l11.283-6.515v5.83l-5.89 2.882a.373.373 0 00-.21.337v5.632c.01.574.129 1.14.347 1.671l-5.53 3.193V14.71zm17.216 8.166c0 1.206-.843 2.8-1.842 3.48l-3.8 2.588-3.8-2.589c-.547-.372-1.065-1.025-1.42-1.79-.272-.585-.422-1.184-.422-1.689V17.48l5.642-2.76 5.642 2.768v5.39z" stroke="#EBEBEB" stroke-width=".2"/><path d="M23.146 21.437a.377.377 0 00-.532.005.373.373 0 00.008.532l1.498 1.461a.375.375 0 00.524 0l2.7-2.632a.374.374 0 10-.524-.537l-2.438 2.377-1.236-1.206z" stroke="#EBEBEB" stroke-width=".2"/></symbol><symbol viewBox="0 0 16 16" id="buy" xmlns="http://www.w3.org/2000/svg"><g clip-path="url(#amclip0)"><path d="M13.846 11.846a1.38 1.38 0 01-1.14-.6l-.678-.985A4.594 4.594 0 018 12.616a4.622 4.622 0 01-4.592-4.154h.438a.462.462 0 00.38-.723l-.672-.979-1.02-1.483a.462.462 0 00-.76 0L.08 7.74a.462.462 0 00.38.723h.477a7.025 7.025 0 002.058 4.542A7.03 7.03 0 008 15.077a7.03 7.03 0 005.004-2.073 7.12 7.12 0 00.94-1.161 1.394 1.394 0 01-.098.003z"/><path d="M8.352 7.539h-.704a.242.242 0 01-.241-.242v-.352c0-.133.108-.241.241-.241h.704c.133 0 .241.108.241.241a.462.462 0 00.924 0c0-.605-.464-1.104-1.055-1.16V5.54a.462.462 0 00-.924 0v.247a1.166 1.166 0 00-1.054 1.16v.35c0 .643.522 1.166 1.164 1.166h.704c.133 0 .241.108.241.241v.352a.242.242 0 01-.241.242h-.704a.242.242 0 01-.241-.242.462.462 0 00-.923 0c0 .605.464 1.104 1.055 1.16v.247a.462.462 0 00.923 0v-.247a1.166 1.166 0 001.055-1.16v-.352c0-.642-.523-1.164-1.165-1.164z"/><path d="M15.947 7.785a.462.462 0 00-.408-.247h-.477a7.025 7.025 0 00-2.058-4.542A7.03 7.03 0 008 .923a7.03 7.03 0 00-5.004 2.073c-.355.355-.67.745-.94 1.161a1.384 1.384 0 011.24.596l.676.986A4.594 4.594 0 018 3.384a4.62 4.62 0 014.592 4.154h-.438a.462.462 0 00-.38.723l.672.979 1.02 1.483a.46.46 0 00.76 0l.612-.889 1.08-1.573a.462.462 0 00.029-.476z"/></g><defs><clipPath id="amclip0"><path d="M0 0h16v16H0z"/></clipPath></defs></symbol><symbol viewBox="0 0 32 32" id="calendar" xmlns="http://www.w3.org/2000/svg"><path d="M28.25 2.5h-1.5V0h-2.5v2.5H7.75V0h-2.5v2.5h-1.5A3.754 3.754 0 000 6.25v22A3.754 3.754 0 003.75 32h24.5A3.754 3.754 0 0032 28.25v-22a3.754 3.754 0 00-3.75-3.75zm1.25 25.75c0 .689-.561 1.25-1.25 1.25H3.75c-.689 0-1.25-.561-1.25-1.25v-16.5h27v16.5zm0-19h-27v-3C2.5 5.561 3.061 5 3.75 5h1.5v2.5h2.5V5h16.5v2.5h2.5V5h1.5c.689 0 1.25.561 1.25 1.25v3z"/><path d="M7.25 14.375h-2.5v2.5h2.5v-2.5zm5 0h-2.5v2.5h2.5v-2.5zm5 0h-2.5v2.5h2.5v-2.5zm5 0h-2.5v2.5h2.5v-2.5zm5 0h-2.5v2.5h2.5v-2.5zm-20 5h-2.5v2.5h2.5v-2.5zm5 0h-2.5v2.5h2.5v-2.5zm5 0h-2.5v2.5h2.5v-2.5zm5 0h-2.5v2.5h2.5v-2.5zm-15 5h-2.5v2.5h2.5v-2.5zm5 0h-2.5v2.5h2.5v-2.5zm5 0h-2.5v2.5h2.5v-2.5zm5 0h-2.5v2.5h2.5v-2.5zm5-5h-2.5v2.5h2.5v-2.5z"/></symbol><symbol viewBox="0 0 18 18" id="car" xmlns="http://www.w3.org/2000/svg"><path opacity=".2" d="M6.082 10.796a1.368 1.368 0 11-2.736 0 1.368 1.368 0 012.736 0zm8.6 0a1.368 1.368 0 11-2.737 0 1.368 1.368 0 012.737 0z"/><path d="M5.082 10.796a.368.368 0 11-.736 0 .368.368 0 01.736 0zm8.6 0a.368.368 0 11-.737 0 .368.368 0 01.737 0z" stroke="#666" stroke-width="2"/><path fill-rule="evenodd" clip-rule="evenodd" d="M15.827 8.12H2.173a.39.39 0 00-.391.392v4.242a.39.39 0 00.39.391h13.655a.391.391 0 00.391-.39V8.511a.391.391 0 00-.39-.391zM2.173 7.34A1.171 1.171 0 001 8.512v4.242c0 .648.525 1.173 1.173 1.173h13.654c.648 0 1.173-.525 1.173-1.173V8.512c0-.648-.525-1.173-1.173-1.173H2.173z"/><path fill-rule="evenodd" clip-rule="evenodd" d="M13.88 2.782H4.146a.39.39 0 00-.38.297L2.78 7.082h12.468l-.988-4.003a.39.39 0 00-.38-.297zM4.146 2c-.54 0-1.01.368-1.139.892L1.9 7.379a.39.39 0 00.38.485h13.466a.39.39 0 00.38-.485l-1.108-4.487A1.17 1.17 0 0013.88 2H4.146zm.778 12.119h-2.2v1.26h2.2v-1.26zm-2.2-.782a.782.782 0 00-.783.782v1.26c0 .431.35.781.782.781h2.201c.432 0 .782-.35.782-.781v-1.26a.782.782 0 00-.782-.782h-2.2zm12.554.782h-2.201v1.26h2.2v-1.26zm-2.201-.782a.782.782 0 00-.782.782v1.26c0 .431.35.781.782.781h2.2c.433 0 .783-.35.783-.781v-1.26a.782.782 0 00-.782-.782h-2.201z"/><path fill-rule="evenodd" clip-rule="evenodd" d="M6.978 6.415a.39.39 0 010-.553L9.16 3.678a.39.39 0 01.553.553L7.53 6.415a.39.39 0 01-.552 0zm3.193-.456a.39.39 0 010-.553l1.271-1.272a.391.391 0 01.553.553L10.724 5.96a.39.39 0 01-.553 0z"/></symbol><symbol viewBox="0 0 31 32" id="cart" xmlns="http://www.w3.org/2000/svg"><path d="M9.041 27.792a2.583 2.583 0 115.166 0 2.583 2.583 0 01-5.166 0zm14.209 0a2.583 2.583 0 115.166 0 2.583 2.583 0 01-5.166 0zM0 1.958C0 1.245.578.666 1.292.666h5.167c.616 0 1.146.434 1.267 1.038l1.085 5.42H29.71a1.292 1.292 0 011.268 1.533l-2.069 10.847a3.88 3.88 0 01-3.862 3.12H12.514a3.874 3.874 0 01-3.861-3.118L6.495 8.725a1.314 1.314 0 01-.022-.109L5.399 3.249H1.291A1.292 1.292 0 01-.001 1.957zm9.327 7.75l1.86 9.294a1.286 1.286 0 001.292 1.04h12.605a1.292 1.292 0 001.291-1.035l1.773-9.298H9.328z"/></symbol><symbol viewBox="0 0 32 32" id="check-box" xmlns="http://www.w3.org/2000/svg"><path d="M28.444 0H3.555A3.566 3.566 0 00-.001 3.556v24.889c0 1.956 1.6 3.556 3.556 3.556h24.889c1.956 0 3.556-1.6 3.556-3.556V3.556C32 1.6 30.4 0 28.444 0zm-16 24.889L3.555 16l2.489-2.489 6.4 6.4L25.955 6.4l2.489 2.489-16 16z"/></symbol><symbol viewBox="0 0 32 32" id="checked" xmlns="http://www.w3.org/2000/svg"><path d="M16 0C7.164 0 0 7.164 0 16s7.164 16 16 16c8.837 0 16-7.163 16-16S24.837 0 16 0zm-2.935 24.219L6.02 17.174l2.348-2.348 4.697 4.697L23.632 8.956l2.348 2.348-12.915 12.915z"/></symbol><symbol viewBox="0 0 21 21" id="clock" xmlns="http://www.w3.org/2000/svg"><g clip-path="url(#asclip0)"><path d="M10.123 20.247a10.058 10.058 0 01-7.158-2.965A10.057 10.057 0 010 10.123C0 7.42 1.053 4.877 2.965 2.965A10.057 10.057 0 0110.123 0c2.705 0 5.247 1.053 7.159 2.965a10.058 10.058 0 012.965 7.158c0 2.705-1.053 5.247-2.965 7.159a10.058 10.058 0 01-7.159 2.965zm0-19.06a8.877 8.877 0 00-6.319 2.617 8.879 8.879 0 00-2.618 6.32c0 2.387.93 4.63 2.618 6.319a8.879 8.879 0 006.32 2.617c2.387 0 4.63-.93 6.319-2.617a8.879 8.879 0 002.617-6.32c0-2.387-.93-4.631-2.617-6.319a8.879 8.879 0 00-6.32-2.618z"/><path d="M9.53 2.374h1.187v1.583H9.53V2.374zm4.532 2.971l1.12-1.12.838.84-1.12 1.119-.838-.84zM16.29 9.53h1.583v1.187H16.29V9.53zm-2.229 5.373l.839-.839 1.119 1.12-.839.838-1.119-1.119zM9.53 16.29h1.187v1.583H9.53V16.29zm-5.308-1.107l1.12-1.12.838.84-1.12 1.118-.838-.838zM2.374 9.53h1.583v1.187H2.374V9.53zm1.85-4.467l.838-.839 1.12 1.12-.84.838-1.118-1.119zm10.086 5.653H9.53v-4.78h1.187V9.53h3.594v1.187z"/></g><defs><clipPath id="asclip0"><path d="M0 0h20.25v20.25H0z"/></clipPath></defs></symbol><symbol viewBox="0 0 13 13" id="close" xmlns="http://www.w3.org/2000/svg"><path fill-rule="evenodd" clip-rule="evenodd" d="M6.5 1.182a5.318 5.318 0 100 10.636 5.318 5.318 0 000-10.636zM0 6.5a6.5 6.5 0 1113 0 6.5 6.5 0 01-13 0z"/><path fill-rule="evenodd" clip-rule="evenodd" d="M8.69 4.31a.59.59 0 010 .835L5.146 8.691a.59.59 0 11-.836-.836l3.546-3.546a.59.59 0 01.836 0z"/><path fill-rule="evenodd" clip-rule="evenodd" d="M4.31 4.31a.59.59 0 01.835 0l3.546 3.545a.59.59 0 11-.836.836L4.309 5.145a.59.59 0 010-.836z"/></symbol><symbol viewBox="0 0 25 26" id="close2" xmlns="http://www.w3.org/2000/svg"><path d="M.413 2.145a1.225 1.225 0 01-.404-.88A1.252 1.252 0 01.36.36 1.198 1.198 0 011.245 0a1.178 1.178 0 01.862.412L12.27 10.82 22.452.412a1.194 1.194 0 01.852-.376 1.17 1.17 0 01.858.361 1.223 1.223 0 01.345.881 1.242 1.242 0 01-.377.867l-10.166 10.39 10.168 10.413a1.234 1.234 0 01-.006 1.71 1.18 1.18 0 01-.832.36 1.178 1.178 0 01-.84-.34L12.27 14.275 2.105 24.685a1.203 1.203 0 01-.863.42 1.177 1.177 0 01-.89-.358 1.228 1.228 0 01-.351-.91 1.25 1.25 0 01.411-.883l10.164-10.419L.413 2.145z"/></symbol><symbol viewBox="0 0 18 18" id="compass" xmlns="http://www.w3.org/2000/svg"><path fill-rule="evenodd" clip-rule="evenodd" d="M9 2.25a6.75 6.75 0 100 13.5 6.75 6.75 0 000-13.5zM.75 9a8.25 8.25 0 1116.5 0A8.25 8.25 0 01.75 9z"/><path fill-rule="evenodd" clip-rule="evenodd" d="M12.71 5.29a.75.75 0 01.182.768l-1.59 4.77a.75.75 0 01-.474.474l-4.77 1.59a.75.75 0 01-.95-.949l1.59-4.77a.75.75 0 01.475-.474l4.77-1.59a.75.75 0 01.768.181zM8.004 8.003l-.997 2.992 2.991-.998.998-2.99-2.992.996z"/></symbol><symbol viewBox="0 0 33 30" id="dam-bao" xmlns="http://www.w3.org/2000/svg"><path d="M31.306 5.611l-4.49-1.996-14.173 6.663v4.28l-2.472-1.1v-4.28l14.173-6.662-4.76-2.117c-.638-.283-1.68-.283-2.318 0L5.543 5.611c-.934.416-1.696 1.592-1.693 2.614l.018 7.723a7.59 7.59 0 012.329-.367c4.203 0 7.623 3.42 7.623 7.624a7.57 7.57 0 01-.658 3.083l4.14 1.77c.616.263 1.625.264 2.242 0L31.24 23.06c.95-.406 1.729-1.583 1.731-2.616L33 8.224c.002-1.021-.76-2.197-1.694-2.613zM26.78 14.48l1.589-3.351c.16-.338.562-.533.723-.35l1.63 1.858c.163.186-.044.608-.37.76l-.686.318-.014 4.828c0 .21-.187.462-.416.56l-1.027.444c-.225.097-.407.007-.407-.201l-.004-4.765-.664.309c-.313.145-.509-.083-.354-.41zm-5.856 2.738l1.443-3.185c.146-.322.518-.502.67-.324l1.539 1.802c.153.18-.034.581-.337.721l-.635.295.041 4.623c.002.202-.17.44-.381.531l-.953.412c-.208.09-.38 0-.382-.199l-.055-4.564-.617.286c-.29.134-.474-.086-.333-.398zm10.561 2.606c0 .106-.096.232-.212.281l-10.88 4.57c-.1.043-.184-.002-.186-.1l-.008-.531c-.002-.098.08-.213.181-.256l10.898-4.642c.117-.05.212-.005.211.102l-.004.576zM6.197 17.008a6.197 6.197 0 100 12.394 6.197 6.197 0 000-12.394zm4.05 4.924l-3.814 4.29a.951.951 0 01-1.308.11L2.74 24.426a.953.953 0 111.191-1.489l1.677 1.341 3.212-3.614a.953.953 0 111.425 1.267z"/></symbol><symbol viewBox="0 0 27 28" id="date" xmlns="http://www.w3.org/2000/svg"><path d="M19.84 6.072a1.86 1.86 0 001.87-1.86v-1.95a1.87 1.87 0 00-3.73 0v2a1.86 1.86 0 001.86 1.86v-.05z"/><path d="M26.47 3.632h-3.75v.94a2.84 2.84 0 11-5.68 0v-.94H9.46v.94a2.84 2.84 0 11-5.67 0v-.94L0 3.582v23.7h26.49l-.02-23.65zm-1.87 21.77H1.9v-15.15h22.7v15.15z"/><path d="M6.6 6.072a1.86 1.86 0 001.86-1.86v-1.95a1.87 1.87 0 00-3.73 0v2a1.87 1.87 0 001.87 1.81zm5.85 6.21H9.47v2.63h2.98v-2.63zm4.82 0h-2.98v2.63h2.98v-2.63zm4.48 0h-2.98v2.63h2.98v-2.63zm-9.3 4.38H9.47v2.63h2.98v-2.63zm4.82 0h-2.98v2.63h2.98v-2.63zm4.48 0h-2.98v2.63h2.98v-2.63zm-9.3 4.45H9.47v2.63h2.98v-2.63zm-4.74-4.45H4.73v2.63h2.98v-2.63zm0 4.45H4.73v2.63h2.98v-2.63zm9.56 0h-2.98v2.63h2.98v-2.63zm4.48 0h-2.98v2.63h2.98v-2.63z"/></symbol><symbol viewBox="0 0 32 32" id="delete" xmlns="http://www.w3.org/2000/svg"><path d="M16 2.909C8.77 2.909 2.909 8.77 2.909 16S8.77 29.091 16 29.091c7.23 0 13.091-5.861 13.091-13.091S23.23 2.909 16 2.909zM0 16C0 7.163 7.163 0 16 0s16 7.163 16 16-7.163 16-16 16S0 24.837 0 16z"/><path d="M21.392 10.608a1.455 1.455 0 010 2.057l-8.727 8.727a1.455 1.455 0 01-2.057-2.057l8.727-8.727a1.455 1.455 0 012.057 0z"/><path d="M10.608 10.608a1.455 1.455 0 012.057 0l8.727 8.727a1.455 1.455 0 01-2.057 2.057l-8.727-8.727a1.455 1.455 0 010-2.057z"/></symbol><symbol viewBox="0 0 20 21" id="discount" xmlns="http://www.w3.org/2000/svg"><g clip-path="url(#azclip0)" stroke="#FA0" stroke-width=".2"><path d="M18.267 10.26a.586.586 0 010-.518l.746-1.526a1.736 1.736 0 00-.749-2.306l-1.5-.796a.586.586 0 01-.305-.42l-.293-1.672a1.737 1.737 0 00-1.962-1.425l-1.682.237a.586.586 0 01-.492-.16L10.809.494a1.736 1.736 0 00-2.425 0l-1.22 1.18a.586.586 0 01-.494.16l-1.68-.236a1.736 1.736 0 00-1.962 1.425l-.293 1.673a.586.586 0 01-.305.419l-1.5.796a1.736 1.736 0 00-.75 2.306l.746 1.526c.08.165.08.354 0 .518L.18 11.786a1.736 1.736 0 00.75 2.306l1.5.796a.586.586 0 01.305.42l.293 1.673a1.735 1.735 0 001.962 1.425l1.682-.238a.586.586 0 01.492.16l1.221 1.18a1.738 1.738 0 002.425 0l1.22-1.18a.587.587 0 01.493-.16l1.682.238a1.736 1.736 0 001.962-1.425l.293-1.674a.586.586 0 01.305-.419l1.5-.796a1.736 1.736 0 00.75-2.306l-.747-1.526zm-.544 2.813l-1.5.796a1.733 1.733 0 00-.9 1.24l-.294 1.672a.587.587 0 01-.663.482l-1.682-.238a1.732 1.732 0 00-1.457.474l-1.22 1.18a.588.588 0 01-.82 0L7.964 17.5a1.731 1.731 0 00-1.456-.474l-1.682.238a.588.588 0 01-.664-.482l-.293-1.673a1.733 1.733 0 00-.9-1.239l-1.5-.796a.587.587 0 01-.254-.78l.746-1.526a1.732 1.732 0 000-1.532L1.216 7.71a.587.587 0 01.253-.78l1.5-.796c.48-.254.807-.705.9-1.239l.294-1.673a.587.587 0 01.664-.482l1.682.238a1.732 1.732 0 001.456-.473l1.221-1.182a.587.587 0 01.82 0l1.221 1.182c.39.376.92.549 1.457.473l1.682-.238a.588.588 0 01.663.482l.294 1.673c.093.534.421.985.9 1.239l1.5.796c.283.15.394.493.254.78l-.746 1.526a1.732 1.732 0 000 1.532l.746 1.526c.14.287.03.63-.254.78z"/><path d="M13.811 5.786a.577.577 0 00-.816 0L5.382 13.4a.577.577 0 10.816.816l7.613-7.614a.577.577 0 000-.816zM7.289 4.81a2.117 2.117 0 00-2.115 2.115c0 1.166.949 2.115 2.115 2.115a2.117 2.117 0 002.115-2.115A2.117 2.117 0 007.289 4.81zm0 3.076a.962.962 0 010-1.923.962.962 0 010 1.923zm4.615 3.076a2.117 2.117 0 00-2.115 2.115c0 1.167.949 2.115 2.115 2.115a2.117 2.117 0 002.115-2.115 2.117 2.117 0 00-2.115-2.115zm0 3.077a.963.963 0 010-1.923.962.962 0 010 1.923z"/></g><defs><clipPath id="azclip0"><path d="M0 0h19.19v20H0z"/></clipPath></defs></symbol><symbol viewBox="0 0 18 18" id="dong-ho" xmlns="http://www.w3.org/2000/svg"><path opacity=".2" d="M6.63 2.26h5.6v1.4h-5.6zm0 12.02h5.6v1.4h-5.6z"/><path fill-rule="evenodd" clip-rule="evenodd" d="M7.11 1.275l-.082.517h4.72l-.088-.517H7.11zm-.34 2.156l.148-.938h4.949l.158.93a26.14 26.14 0 00-1.141-.257 5.998 5.998 0 00-2.926-.01 25.97 25.97 0 00-1.188.275zM6.323.891l-.517 3.29A5.98 5.98 0 003.414 8.97c0 1.951.934 3.685 2.38 4.778v.002l.573 3.372a.535.535 0 00.527.445h5.062a.535.535 0 00.53-.452l.529-3.37a5.979 5.979 0 002.376-4.775 5.979 5.979 0 00-2.389-4.786l-.56-3.3a.535.535 0 00-.528-.445H6.852a.535.535 0 00-.529.452zM4.25 8.97a5.154 5.154 0 013.894-4.997c.408-.081.8-.14 1.11-.153a5.25 5.25 0 01.148-.002h.017c.35.006.806.072 1.278.164A5.152 5.152 0 114.25 8.97zm7.54 7.182l-.091.58h-4.55l-.099-.58h4.74zm.11-.7l.14-.891c-.205.05-.423.103-.646.152-.619.137-1.333.268-1.875.278-.56.01-1.327-.12-1.985-.256a24.99 24.99 0 01-.753-.168l.15.885h4.97z"/><rect x="8.87" y="3.28" width="1.07" height="1.61" rx=".54"/><rect x="8.87" y="13.02" width="1.07" height="1.61" rx=".54"/><path fill-rule="evenodd" clip-rule="evenodd" d="M9.404 6.528a.535.535 0 00-.535.535V9.27c0 .142.055.27.145.366.02.024.043.046.068.066l.966.785a.535.535 0 10.675-.83L9.94 9.02V7.063a.535.535 0 00-.536-.535z"/><rect x="15.05" y="8.43" width="1.07" height="1.61" rx=".54" transform="rotate(90 15.055 8.434)"/><rect x="5.32" y="8.43" width="1.07" height="1.61" rx=".54" transform="rotate(90 5.322 8.434)"/></symbol><symbol viewBox="0 0 32 32" id="down" xmlns="http://www.w3.org/2000/svg"><path d="M.911 9.502L2.733 7.68l13.266 13.263L29.265 7.68l1.822 1.822-15.089 15.086L.909 9.502z"/><path d="M32 9.502L16 25.5 0 9.502l2.734-2.733L16 20.032 29.266 6.768 32 9.501zM16 23.677L30.178 9.501l-.911-.911-13.266 13.264L2.735 8.591l-.911.911 14.178 14.175z"/></symbol><symbol viewBox="0 0 32 32" id="edit" xmlns="http://www.w3.org/2000/svg"><path d="M4.364 5.818a1.455 1.455 0 00-1.455 1.455v20.364a1.455 1.455 0 001.455 1.455h20.364a1.455 1.455 0 001.455-1.455V19.87a1.455 1.455 0 012.91 0v7.767a4.36 4.36 0 01-4.363 4.364H4.366a4.36 4.36 0 01-4.364-4.364V7.273a4.36 4.36 0 014.364-4.364h7.767a1.455 1.455 0 010 2.91H4.366z"/><path d="M23.699.426a1.455 1.455 0 012.057 0l5.818 5.818a1.455 1.455 0 010 2.057L17.028 22.846a1.455 1.455 0 01-1.029.426h-5.818a1.455 1.455 0 01-1.455-1.454V16c0-.386.153-.756.426-1.029L23.698.426zM11.637 16.602v3.761h3.761L28.489 7.272l-3.761-3.761-13.091 13.091z"/></symbol><symbol viewBox="0 0 32 32" id="exclamation-mark" xmlns="http://www.w3.org/2000/svg"><path d="M16 0C7.164 0 0 7.164 0 16s7.164 16 16 16c8.837 0 16-7.162 16-16 0-8.836-7.163-16-16-16zm0 29C8.82 29 3 23.18 3 16S8.82 3 16 3s13 5.82 13 13-5.82 13-13 13zm.001-21.983c-1.146 0-2.013.598-2.013 1.564v8.86c0 .967.867 1.563 2.013 1.563 1.118 0 2.013-.621 2.013-1.563v-8.86c0-.943-.895-1.564-2.013-1.564zm0 13.983a2 2 0 00-1.997 1.998c0 1.1.896 1.996 1.997 1.996s1.996-.896 1.996-1.996A1.999 1.999 0 0016.001 21z"/></symbol><symbol viewBox="0 0 18 18" id="fashion-men" xmlns="http://www.w3.org/2000/svg"><path opacity=".2" d="M11.265 1.046H6.762c-.037.106-.09.366 0 .56.112.243 1.402.841 2.111.935.71.093 1.532-.355 1.943-.56.33-.165.436-.692.449-.935z"/><path d="M17.928 6.466c-.196-.393-1.938-3.861-2.85-4.482C14.2 1.388 12.05.467 11.957.428l-.104-.044-.113.021C11.723.409 9.915.753 9 .753 8.086.753 6.277.41 6.259.405L6.146.384l-.104.044c-.092.04-2.242.96-3.12 1.556-.912.62-2.654 4.089-2.85 4.482L0 6.611l.056.151c.024.064.605 1.558 3.166 1.9l.222.03.786-1.095c0 .866-.143 2.231-.25 3.705-.144 1.962-.412 3.513-.615 5.702l.32.119c.054.02 1.375.493 5.315.493 3.94 0 5.26-.473 5.315-.493l.32-.119-.09-.33c-.23-1.411-.357-3.5-.496-5.465a251.586 251.586 0 00-.28-3.612l.787 1.094.222-.03c2.561-.34 3.142-1.835 3.166-1.899L18 6.611l-.072-.145zm-6.872-5.183c-.367.429-1.013.913-2.056.913-1.043 0-1.689-.484-2.056-.913.63.1 1.484.217 2.056.217.572 0 1.426-.116 2.056-.217zM16.8 7.065c-.321.287-.907.653-1.901.823l-1.32-1.838s-.203.152-.278.246c-.074.093-.168.334-.168.334-.168.6-.064 1.68.166 4.728.138 1.817.28 3.643.433 5.15-.576.13-1.984.361-4.732.361-2.5 0-4.074-.201-4.77-.358.155-1.566.355-3.258.492-5.075.23-3.049.233-4.37.117-4.97l-.113-.301c-.058-.153-.273-.153-.368-.02L3.1 7.887C1.586 7.63 1.006 6.928.825 6.63c.723-1.43 1.974-3.658 2.518-4.028.627-.426 2.037-1.066 2.671-1.347.111.19.279.434.514.676.45.462 1.243 1.013 2.472 1.013 1.23 0 2.023-.55 2.472-1.013a3.55 3.55 0 00.514-.676c.634.28 2.044.921 2.671 1.347.544.37 1.794 2.597 2.517 4.028a2.032 2.032 0 01-.374.435z"/></symbol><symbol viewBox="0 0 16 18" id="fashion-woment" xmlns="http://www.w3.org/2000/svg"><path d="M12.229 8.175V6.96a7.387 7.387 0 00.515-3.067c-.041-.967.534-2.918.54-2.937l.113-.381L10.893 0l-.086.36a3.081 3.081 0 01-.54 1.036c-.545.69-1.307 1.04-2.265 1.04-2.264 0-2.785-1.993-2.805-2.077L5.11 0 2.606.576l.114.38c.005.02.58 1.97.54 2.938a7.38 7.38 0 00.515 3.067v1.207l-3.636 8.2.212.18C.42 16.608 2.119 18 8 18c5.882 0 7.58-1.392 7.65-1.452l.212-.18-3.633-8.193zm-7.707-.301v-.53h6.96v.53h-6.96zM4.588.886c.102.255.278.614.562.974.477.603 1.36 1.322 2.852 1.322 1.492 0 2.374-.719 2.851-1.322.285-.36.46-.72.562-.974l1.046.24c-.175.653-.498 1.983-.463 2.8a6.756 6.756 0 01-.428 2.67H4.433a6.712 6.712 0 01-.427-2.67c.034-.817-.288-2.147-.463-2.8l1.045-.24zm9.1 15.728c-1.807.528-4.09.639-5.688.639-1.597 0-3.88-.11-5.687-.639-.628-.184-1.025-.368-1.249-.491L4.391 8.62h1.386l-.734 3.255.73.164.77-3.42h2.883l.77 3.42.73-.164-.734-3.255h1.417l3.327 7.502c-.223.123-.62.307-1.249.491z"/></symbol><symbol viewBox="0 0 26 32" id="file" xmlns="http://www.w3.org/2000/svg"><path d="M1.278 1.278A4.364 4.364 0 014.364 0h10.182c.386 0 .756.153 1.028.426l10.182 10.182c.273.273.426.643.426 1.029v16a4.36 4.36 0 01-4.364 4.364H4.363a4.36 4.36 0 01-4.364-4.364V4.364c0-1.157.46-2.267 1.278-3.086zm3.086 1.631a1.455 1.455 0 00-1.455 1.455v23.273a1.455 1.455 0 001.455 1.455h17.455a1.455 1.455 0 001.455-1.455V12.239l-9.33-9.33H4.365z"/><path d="M14.545 0C15.348 0 16 .651 16 1.455v8.727h8.727a1.455 1.455 0 010 2.91H14.545a1.455 1.455 0 01-1.455-1.455V1.455C13.09.652 13.741 0 14.545 0z"/></symbol><symbol viewBox="0 0 18 18" id="football" xmlns="http://www.w3.org/2000/svg"><path opacity=".2" d="M5.994 7.9l2.892-2.152 3.244 2.363-1.199 3.49H7.087L5.994 7.9z"/><path d="M9 1C4.589 1 1 4.589 1 9s3.589 8 8 8 8-3.589 8-8-3.589-8-8-8zm6.537 5.02c.228.497.4 1.026.51 1.577l-.83-.61.32-.968zm-.538-.97l-.583 1.762-2.435.79-2.574-1.87v-2.6l1.469-1.067a7.21 7.21 0 014.123 2.986zm-4.523 5.937H7.524L6.61 8.18 9 6.445l2.388 1.735-.913 2.808zm-.702-9.13L9 2.419l-.774-.562a7.235 7.235 0 011.548 0zm-2.65.207L8.592 3.13v2.603L6.02 7.603l-2.45-.796-.577-1.744a7.212 7.212 0 014.13-2.999zM2.76 6.954l-.797.586a7.12 7.12 0 01.492-1.506l.305.92zm-.938 1.701l1.47-1.08 2.532.822.96 2.957-1.529 2.105-1.87.02a7.15 7.15 0 01-1.563-4.824zm3.36 5.62l.34 1.011a7.222 7.222 0 01-1.384-1l1.044-.011zM6.54 15.75l-.615-1.826 1.542-2.123h3.066l1.53 2.107-.6 1.841A7.152 7.152 0 019 16.185a7.154 7.154 0 01-2.46-.434zm7.349-1.491a7.226 7.226 0 01-1.419 1.03l.337-1.031 1.082.001zm.752-.814l-1.908-.002-1.519-2.09.96-2.957 2.487-.808 1.518 1.116a7.15 7.15 0 01-1.538 4.741z"/></symbol><symbol viewBox="0 0 18 18" id="game" xmlns="http://www.w3.org/2000/svg"><g clip-path="url(#biclip0)"><path d="M17.99 11.265a16.802 16.802 0 00-.493-3.251c-.269-1.031-.605-1.995-1.009-2.735-1.57-2.758-3.273-2.332-5.313-1.794-.65.157-1.345.337-2.063.404h-.224c-.718-.067-1.413-.247-2.063-.404-2.04-.515-3.744-.964-5.313 1.816-.404.74-.762 1.704-1.01 2.735a16.802 16.802 0 00-.492 3.251c-.045 1.144.067 1.973.314 2.556.246.538.605.874 1.076 1.009.426.112.919.067 1.435-.157.874-.359 1.883-1.12 2.87-2.04.694-.673 1.995-1.009 3.295-1.009 1.3 0 2.6.336 3.296 1.009.986.92 1.995 1.681 2.87 2.04.515.202 1.008.27 1.434.157.449-.135.83-.448 1.076-1.031.247-.56.36-1.39.314-2.556zm-1.076 2.242c-.134.314-.314.493-.538.56-.247.068-.56.023-.92-.112-.784-.314-1.703-1.009-2.6-1.86-.852-.853-2.354-1.279-3.856-1.279-1.502 0-3.004.426-3.879 1.234-.919.851-1.838 1.569-2.6 1.86-.359.135-.673.202-.92.113-.224-.068-.403-.247-.538-.561-.179-.426-.269-1.121-.224-2.152.045-.964.202-2.063.471-3.094.247-.964.56-1.861.942-2.534 1.233-2.22 2.668-1.86 4.372-1.412.695.18 1.412.359 2.197.426h.336c.807-.067 1.524-.247 2.22-.426 1.703-.426 3.138-.807 4.371 1.412.382.673.695 1.547.942 2.534.247 1.031.426 2.107.47 3.094.046 1.031-.044 1.726-.246 2.197z"/><path opacity=".2" d="M6.463 7.097c-.175-.159-.386-.282-.631-.3a1.004 1.004 0 00-.28-.616l-.018-.017a.99.99 0 00-.719-.3 1.026 1.026 0 00-1.017.933 1.042 1.042 0 00-.63.282l-.018.018a1 1 0 00-.298.722c0 .282.122.546.298.722a.976.976 0 00.648.3.941.941 0 00.298.633.99.99 0 00.72.3c.28 0 .543-.124.718-.3.158-.176.28-.387.298-.634a.934.934 0 00.631-.299 1 1 0 00.298-.722c0-.282-.123-.546-.298-.722z"/><path d="M6.939 6.893c-.224-.202-.493-.359-.807-.381a1.276 1.276 0 00-.359-.785l-.022-.022a1.27 1.27 0 00-.92-.382c-.358 0-.695.157-.919.382a1.303 1.303 0 00-.381.807 1.336 1.336 0 00-.807.358l-.023.023a1.27 1.27 0 00-.38.92c0 .358.156.694.38.918.225.224.494.359.83.381.022.314.157.606.381.808.247.246.56.38.92.38.358 0 .694-.156.919-.38.201-.225.358-.494.38-.808.315-.022.606-.157.808-.38a1.27 1.27 0 00.38-.92c0-.359-.156-.695-.38-.92zm-.56 1.255a.456.456 0 01-.337.135h-.314a.426.426 0 00-.426.426V9a.456.456 0 01-.47.471.456.456 0 01-.471-.47v-.315a.426.426 0 00-.426-.426H3.62a.456.456 0 01-.337-.134.456.456 0 010-.65l.023-.023a.536.536 0 01.314-.112h.314c.224 0 .426-.18.426-.426v-.314a.456.456 0 01.47-.47c.135 0 .247.044.337.134l.022.023c.067.09.112.201.112.313v.314c0 .224.18.426.426.426h.314a.456.456 0 01.47.471.456.456 0 01-.134.336zm6.523-1.143a.785.785 0 100-1.57.785.785 0 000 1.57zm0 3.184a.785.785 0 100-1.57.785.785 0 000 1.57zm-1.594-1.592a.785.785 0 100-1.57.785.785 0 000 1.57zm3.184 0a.785.785 0 100-1.57.785.785 0 000 1.57z"/></g><defs><clipPath id="biclip0"><path d="M0 0h18v18H0z"/></clipPath></defs></symbol><symbol viewBox="0 0 32 32" id="giasoc" xmlns="http://www.w3.org/2000/svg"><path d="M30.4 8h-8.533V6.933h5.867a2.67 2.67 0 002.667-2.667V3.199h-1.067v1.067a1.602 1.602 0 01-1.6 1.6h-1.08a2.639 2.639 0 00.547-1.6V2.133a2.133 2.133 0 00-4.266 0v2.133a1.597 1.597 0 01-1.067 1.502v-.435a1.602 1.602 0 00-1.6-1.6h-1.067a1.602 1.602 0 00-1.6 1.6v.435a1.596 1.596 0 01-1.067-1.502V2.133a2.133 2.133 0 00-4.266 0v2.133c.002.579.194 1.141.547 1.6h-1.08a1.602 1.602 0 01-1.6-1.6V3.199H9.068v1.067a2.67 2.67 0 002.667 2.667h5.867V8H9.069a1.602 1.602 0 00-1.6 1.6v1.067a1.602 1.602 0 001.6 1.6v5.867h1.067v-5.867h6.933v5.867h1.067v-5.867h3.2v5.867h1.067v-5.867h6.933V25.6a.533.533 0 01-.533.533H23.47V27.2h5.333a1.602 1.602 0 001.6-1.6V12.267a1.602 1.602 0 001.6-1.6V9.6a1.602 1.602 0 00-1.6-1.6zM24 4.267V2.134a1.067 1.067 0 012.134 0v2.133a1.602 1.602 0 01-1.6 1.6h-1.068a2.655 2.655 0 00.535-1.6zm-9.066 1.6a1.602 1.602 0 01-1.6-1.6V2.134a1.067 1.067 0 012.134 0v2.133a2.649 2.649 0 00.535 1.6h-1.068zm3.733-.534c0-.295.239-.533.533-.533h1.067c.295 0 .533.239.533.533V8h-2.133V5.333zm-9.6 5.867a.533.533 0 01-.533-.533V9.6c0-.295.239-.533.533-.533H16V11.2H9.067zm8 0V9.067H22.4V11.2h-5.333zm13.867-.533a.533.533 0 01-.533.533h-6.933V9.067h6.933c.295 0 .533.239.533.533v1.067z"/><path d="M14.4 21.867h1.067v1.067H14.4v-1.067zm0 2.133h1.067v1.067H14.4V24zm0 2.133h1.067V27.2H14.4v-1.067zm0 2.134h1.067v1.067H14.4v-1.067z"/><path d="M20.8 19.2H1.6A1.602 1.602 0 000 20.8v1.647c.003.522.382.966.897 1.05a2.134 2.134 0 010 4.205A1.07 1.07 0 000 28.752v1.647a1.602 1.602 0 001.6 1.6h19.2a1.602 1.602 0 001.6-1.6v-9.6a1.602 1.602 0 00-1.6-1.6zm.533 11.2a.533.533 0 01-.533.533h-5.333V30.4H14.4v.533H1.6a.533.533 0 01-.533-.533l.011-1.646a3.198 3.198 0 00-.011-6.307V20.8c0-.295.239-.533.533-.533h12.8v.533h1.067v-.533H20.8c.295 0 .533.239.533.533v9.6z"/></symbol><symbol viewBox="0 0 30 32" id="gioihan" xmlns="http://www.w3.org/2000/svg"><path d="M14.284 32a14.215 14.215 0 009.826-3.895c2.581-2.446 4.099-5.706 4.294-9.205a2.718 2.718 0 001.152-2.221V2.703a2.712 2.712 0 00-1.682-2.5 2.72 2.72 0 00-1.039-.202h-6.67a2.678 2.678 0 00-2.491 1.668c-.134.328-.202.68-.199 1.034v1.905a14.854 14.854 0 00-3.18-.351C6.495 4.257.142 10.48.142 18.129s6.342 13.872 14.142 13.872zm9.14-4.617a13.175 13.175 0 01-6.575 3.377 12.946 12.946 0 003.571-4.015c.294-.514.557-1.045.787-1.59a12.898 12.898 0 012.482 1.97c-.087.087-.175.174-.265.259zm.942-.99a13.912 13.912 0 00-2.795-2.178c.538-1.553.86-3.173.956-4.813h4.31c.18-.001.36-.019.536-.055a12.636 12.636 0 01-3.007 7.045zm4.196-9.715a1.73 1.73 0 01-1.726 1.729h-6.67a1.695 1.695 0 01-1.208-.511 1.708 1.708 0 01-.488-1.218v-1.753h10.092v1.753zm0-2.749H18.47V3.553h10.092v10.376zM20.166.995h6.67c.915 0 1.666.711 1.722 1.563H18.444c.056-.853.807-1.563 1.722-1.563zm-2.691 4.632v.329c-.213-.158-.387-.311-.588-.457.197.038.374.081.588.128zm-2.7-.244c.995.502 1.848 1.141 2.701 1.905v5.374a14.21 14.21 0 01-2.701.365V5.383zm0 8.64a15.165 15.165 0 002.701-.34v2.994c-.011.322.037.643.142.948h-2.843v-3.602zm0 4.597h3.494a2.648 2.648 0 001.897.782h1.364a17.318 17.318 0 01-.845 4.33 14.395 14.395 0 00-5.91-1.499V18.62zm0 4.609a13.21 13.21 0 015.558 1.437 13.797 13.797 0 01-.777 1.582c-1.18 2.05-2.79 3.604-4.78 4.625v-7.644zm-9.934 3.855a12.81 12.81 0 012.493-1.954c.976 2.309 2.461 4.235 4.367 5.626a13.224 13.224 0 01-6.86-3.671zm8.939 3.788c-2.487-1.291-4.424-3.465-5.57-6.227a13.41 13.41 0 015.57-1.417v7.644zm0-8.639a14.59 14.59 0 00-5.919 1.474c-.523-1.551-.819-3.239-.865-5.087h6.784v3.613zm0-4.608H6.996c.046-1.848.342-3.531.865-5.081a14.612 14.612 0 005.919 1.479v3.602zm0-4.598a13.4 13.4 0 01-5.57-1.417c1.145-2.762 3.082-4.936 5.57-6.227v7.643zM11.702 5.5c-1.907 1.391-3.391 3.317-4.368 5.626a12.88 12.88 0 01-2.493-1.954 13.224 13.224 0 016.86-3.671zM4.168 9.902c.838.837 1.78 1.564 2.803 2.161-.59 1.693-.924 3.572-.971 5.562H1.14a12.693 12.693 0 013.028-7.723zM1.14 18.62H6c.047 1.99.381 3.873.971 5.566a13.836 13.836 0 00-2.803 2.161A12.704 12.704 0 011.14 18.62z"/><path d="M22.473 17.199h2.057a.496.496 0 00.352-.85.5.5 0 00-.352-.146h-2.057a.496.496 0 00-.352.85c.093.093.22.146.352.146zm-2.766-6.185l3.55 2.052a.487.487 0 00.494 0l3.561-2.052a.51.51 0 00.256-.43V6.481a.496.496 0 00-.256-.43l-3.558-2.052a.498.498 0 00-.5 0l-3.547 2.052a.484.484 0 00-.242.431v4.103a.49.49 0 00.242.431zm6.865-.718l-2.558 1.477V8.818l2.558-1.477v2.955zm-.513-3.816l-2.558 1.477-.816-.471 2.558-1.477.816.472zm-2.558-1.477l.747.431-2.558 1.477-.747-.431 2.558-1.477zM20.46 7.342l2.558 1.477v2.955l-2.558-1.477V7.342z"/></symbol><symbol viewBox="0 0 32 32" id="heart" xmlns="http://www.w3.org/2000/svg"><path d="M23.6 2c-3.363 0-6.258 2.736-7.599 5.594C14.659 4.736 11.764 2 8.4 2 3.763 2 0 5.764 0 10.401c0 9.433 9.516 11.906 16.001 21.232C22.131 22.365 32 19.533 32 10.401 32 5.764 28.237 2 23.6 2z"/></symbol><symbol viewBox="0 0 19 18" id="heart2" xmlns="http://www.w3.org/2000/svg"><path d="M14.052 0C11.945 0 10.204 1.958 9.5 2.881 8.796 1.958 7.055 0 4.948 0 2.22 0 0 2.508 0 5.591c0 1.682.668 3.25 1.836 4.322.017.03.038.057.062.081l7.323 7.307a.395.395 0 00.559 0l7.566-7.563.078-.076c.061-.058.123-.118.191-.193a.386.386 0 00.07-.095C18.534 8.335 19 6.995 19 5.591 19 2.508 16.78 0 14.052 0zm2.975 8.93a.365.365 0 00-.03.04c-.037.042-.078.08-.118.118l-7.38 7.374-6.95-6.938a.397.397 0 00-.093-.118C1.398 8.482.792 7.092.792 5.591c0-2.646 1.864-4.8 4.156-4.8 2.266 0 4.2 2.956 4.22 2.986.145.226.519.226.665 0 .02-.03 1.953-2.985 4.22-2.985 2.291 0 4.155 2.153 4.155 4.8 0 1.246-.42 2.432-1.181 3.337z"/></symbol><symbol viewBox="0 0 30 32" id="help" xmlns="http://www.w3.org/2000/svg"><path d="M15.158.411C6.787.411 0 7.351 0 15.906c0 8.559 6.787 15.495 15.158 15.495s15.158-6.935 15.158-15.495c0-8.554-6.787-15.495-15.158-15.495zm0 27.991c-6.756 0-12.224-5.588-12.224-12.496 0-6.903 5.469-12.496 12.224-12.496 6.753 0 12.224 5.59 12.224 12.496s-5.466 12.496-12.224 12.496zm6.555-15.945c0 4.189-4.426 4.254-4.426 5.802v.396c0 .414-.328.75-.733.75h-2.79a.742.742 0 01-.733-.75v-.541c0-2.233 1.656-3.126 2.908-3.843 1.073-.615 1.731-1.033 1.731-1.848 0-1.078-1.345-1.793-2.432-1.793-1.417 0-2.072.686-2.991 1.872a.724.724 0 01-1.019.133l-1.701-1.318a.763.763 0 01-.162-1.022c1.444-2.168 3.283-3.385 6.147-3.385 2.999 0 6.201 2.393 6.201 5.548zm-3.988 10.446c0 1.447-1.152 2.624-2.567 2.624s-2.567-1.177-2.567-2.624 1.152-2.624 2.567-2.624 2.567 1.177 2.567 2.624z"/></symbol><symbol viewBox="0 0 32 32" id="home" xmlns="http://www.w3.org/2000/svg"><path d="M32 18.451L16 6.031 0 18.451v-5.064L16 .967l16 12.42zM28 18v12h-8v-8h-8v8H4V18l12-9z"/></symbol><symbol viewBox="0 0 32 32" id="home2" xmlns="http://www.w3.org/2000/svg"><path d="M16 1L0 17l3 3 3-3v13h8v-6h4v6h8V17l3 3 3-3L16 1zm0 13a2 2 0 11-.001-3.999A2 2 0 0116 14z"/></symbol><symbol viewBox="0 0 30 30" id="hotline" xmlns="http://www.w3.org/2000/svg"><path d="M15 0C6.73 0 0 6.73 0 15s6.73 15 15 15c4.006 0 7.823-1.616 10.656-4.45.47-.47.418-1.26-.06-1.729l-2.367-2.333c.51-.699.577-1.55.156-2.357a6.408 6.408 0 00-2.535-2.624c-.428-.246-.831-.367-1.233-.367-.156 0-.314.02-.468.056-.51.124-1.002.364-1.501.731a.93.93 0 01-.572.176c-.271 0-.564-.094-.765-.243a18.284 18.284 0 01-3.782-3.782c-.213-.286-.383-.91-.068-1.338.369-.499.607-.989.731-1.5.134-.553.032-1.109-.31-1.7a6.407 6.407 0 00-2.624-2.536 2.344 2.344 0 00-1.088-.282c-.608 0-1.178.265-1.646.765-.431.459-.812.945-1.252 1.532-.402.539-.369 1.16-.34 1.709v.011c.05.696.31 1.519.795 2.515.82 1.688 1.986 3.29 3.562 4.899.324.33 1.615 1.622 1.947 1.946 1.609 1.577 3.211 2.742 4.898 3.563.997.484 1.82.744 2.515.794h.012c.143.008.296.015.445.015.356 0 .811-.043 1.222-.33l1.558 1.535A12.39 12.39 0 0115 27.49C8.114 27.49 2.51 21.887 2.51 15 2.51 8.113 8.115 2.51 15 2.51c6.887 0 12.49 5.603 12.49 12.49A1.255 1.255 0 1030 15c0-8.27-6.73-15-15-15z"/></symbol><symbol viewBox="0 0 27 32" id="language" xmlns="http://www.w3.org/2000/svg"><path d="M11.122 19.639c-.011.034-.085.034-.221 0-.125-.045-.3-.113-.527-.204l-.34-.153a10.307 10.307 0 01-1.48-.833 42.773 42.773 0 01-.697-.527c-.386-.306-.601-.471-.646-.493a28.905 28.905 0 01-2.279 3.078c-.918 1.077-1.514 1.701-1.786 1.871-.045.023-.159.045-.34.068-.17.023-.272.023-.306 0 .068-.045.533-.567 1.395-1.565.238-.272.72-.924 1.446-1.956.737-1.032 1.185-1.701 1.344-2.007.193-.34.482-.896.867-1.667.385-.782.59-1.224.612-1.326-.091-.011-.714.176-1.871.561-.091.023-.249.068-.476.136l-.578.153c-.17.045-.266.074-.289.085-.023.023-.034.085-.034.187 0 .091-.006.142-.017.153-.057.113-.232.198-.527.255a1.376 1.376 0 01-.799 0 .714.714 0 01-.476-.357c-.045-.068-.074-.198-.085-.391.068-.023.204-.051.408-.085a5.03 5.03 0 00.51-.102 31.835 31.835 0 001.786-.544c1.134-.397 1.712-.595 1.735-.595.113-.023.357-.13.731-.323.374-.204.624-.329.748-.374.102-.034.221-.079.357-.136.147-.057.232-.085.255-.085.023-.011.057-.011.102 0 .023.136.017.323-.017.561 0 .023-.074.176-.221.459l-.442.918a13.93 13.93 0 01-.289.561c-.283.567-.72 1.31-1.31 2.228l1.088.476c.136.068.556.249 1.258.544l1.156.476c.045.011.102.159.17.442.079.272.108.442.085.51zm-3.486-8.265a.691.691 0 01-.068.476c-.136.261-.42.476-.85.646-.34.136-.68.204-1.02.204-.295-.034-.573-.181-.833-.442-.159-.17-.261-.402-.306-.697l.017-.051c.034.034.142.062.323.085.193.023.346.023.459 0s.442-.113.986-.272c.408-.136.72-.215.935-.238.193 0 .312.096.357.289zm11.871 2.194l1.072 3.861-2.364-.714 1.293-3.146zM.663 27.174l11.803-3.946V5.677L.663 9.64v17.534zm21.106-5.392l1.735.527-3.078-11.173-1.701-.527-3.673 9.116 1.735.527.765-1.871 3.588 1.105.629 2.296zm-8.555-16.36l9.745 3.129V2.088l-9.745 3.333zm5.289 22.5l2.687.221-.918 2.721-.68-1.122a12.615 12.615 0 01-4.694 1.837c-.658.136-1.173.204-1.548.204h-1.429c-.896 0-2.029-.221-3.401-.663-1.361-.442-2.398-.924-3.112-1.446a.353.353 0 01-.051-.51.298.298 0 01.221-.085c.045 0 .147.04.306.119l.51.289.357.187c.828.419 1.729.765 2.704 1.037.986.283 1.882.425 2.687.425 1.077 0 2.024-.085 2.84-.255.816-.159 1.706-.442 2.67-.85.17-.079.34-.17.51-.272.181-.091.374-.198.578-.323.215-.113.38-.204.493-.272l-.731-1.241zm7.619-18.351v18.35l-13.163-4.184c-.159.068-2.285.794-6.378 2.177C2.488 27.286.402 27.972.323 27.972c-.147 0-.249-.074-.306-.221A.14.14 0 000 27.7V9.367a.77.77 0 01.068-.17c.057-.068.17-.13.34-.187a192.01 192.01 0 002.534-.85V1.629l9.49 3.367c.023 0 .93-.312 2.721-.935a750.577 750.577 0 015.374-1.837c1.791-.612 2.71-.918 2.755-.918.227 0 .34.119.34.357v7.109l2.5.799z"/></symbol><symbol viewBox="0 0 25 29" id="like" xmlns="http://www.w3.org/2000/svg"><path d="M19.227 6.682h1.652a.826.826 0 100-1.652h-1.652a.826.826 0 100 1.652zM11.07 2.924a.815.815 0 001.164.373.826.826 0 00.373-1.106L11.722.54A.826.826 0 0010.35.374a.849.849 0 00-.105.956l.826 1.594zm5.318.373a.815.815 0 001.163-.373l.768-1.675a.85.85 0 00-.372-1.164.826.826 0 00-1.105.373l-.826 1.652a.825.825 0 00.372 1.187zM7.685 6.682h1.652a.826.826 0 100-1.652H7.685a.826.826 0 000 1.652zM4.38 13.338H1.089a.826.826 0 00-.826.826v13.193a.826.826 0 00.826.826h3.293a.826.826 0 00.826-.826V14.164a.814.814 0 00-.826-.826zm20.606 2.187a2.595 2.595 0 00-2.618-2.188h-6.446c.561-1.563.845-3.213.838-4.875a3.49 3.49 0 00-3.49-3.374h-.687a.826.826 0 00-.78.815c0 1.908-.744 5.352-2.14 6.748a9.305 9.305 0 01-2.804 1.815v12.38a19.095 19.095 0 006.806 1.337h5.387a2.514 2.514 0 002.478-3.385 2.501 2.501 0 001.827-2.397 2.619 2.619 0 00-.174-.908 2.466 2.466 0 001.163-4.037 2.455 2.455 0 00.64-1.931z"/></symbol><symbol viewBox="0 0 32 32" id="link" xmlns="http://www.w3.org/2000/svg"><path d="M17.134 2.465a8.768 8.768 0 0112.298.107 8.782 8.782 0 01.107 12.308l-.018.018-4.386 4.39a8.77 8.77 0 01-6.83 2.55 8.787 8.787 0 01-6.398-3.499 1.463 1.463 0 012.341-1.753 5.855 5.855 0 004.265 2.333 5.851 5.851 0 004.554-1.7l4.377-4.381a5.858 5.858 0 00-.08-8.197 5.846 5.846 0 00-8.191-.078l-2.507 2.495a1.464 1.464 0 01-2.062-2.076l2.53-2.517z"/><path d="M10.004 10.693a8.767 8.767 0 0110.091 2.968 1.462 1.462 0 11-2.342 1.753 5.855 5.855 0 00-4.265-2.333 5.851 5.851 0 00-4.554 1.7l-4.377 4.381a5.858 5.858 0 00.08 8.197 5.846 5.846 0 008.189.079l2.491-2.493a1.462 1.462 0 112.068 2.07l-2.518 2.52a8.768 8.768 0 01-12.297-.107 8.782 8.782 0 01-.107-12.308l.018-.018 4.386-4.39a8.778 8.778 0 013.138-2.019z"/></symbol><symbol viewBox="0 0 17 16" id="link2" xmlns="http://www.w3.org/2000/svg"><g clip-path="url(#buclip0)"><path d="M8.015 0a8 8 0 100 16 8 8 0 000-16zm4.02 6.576l-1.957 1.957a1.116 1.116 0 01-.795.329c-.3 0-.582-.117-.794-.33l-.077-.076-.208.208.077.077c.438.438.438 1.15 0 1.589l-1.957 1.957a1.116 1.116 0 01-.794.329c-.3 0-.583-.117-.795-.33l-.74-.74a1.125 1.125 0 010-1.588L5.952 8c.212-.212.495-.329.795-.329.3 0 .582.117.794.33l.077.076.208-.209-.076-.076a1.125 1.125 0 010-1.589l1.956-1.956c.212-.213.495-.33.795-.33.3 0 .582.117.794.33l.74.74c.438.437.438 1.15 0 1.588z"/><path d="M7.616 9.25l-.378.38-.587-.587.378-.379-.076-.076a.292.292 0 00-.415 0l-1.957 1.956a.294.294 0 000 .415l.74.74a.3.3 0 00.415 0l1.957-1.956a.294.294 0 000-.416l-.077-.076zm3.091-4.416a.292.292 0 00-.416 0L8.335 6.791a.294.294 0 000 .415l.077.076.58-.58.587.587-.58.58.076.077a.3.3 0 00.415 0l1.957-1.957a.294.294 0 000-.415l-.74-.74z"/></g><defs><clipPath id="buclip0"><path transform="translate(.014)" d="M0 0h16v16H0z"/></clipPath></defs></symbol><symbol viewBox="0 0 18 18" id="lipstick" xmlns="http://www.w3.org/2000/svg"><g clip-path="url(#bvclip0)"><path opacity=".2" d="M10.89 15.16h4.97v2.37h-4.97z"/><path d="M7.825 9.391V7.044a.783.783 0 00-.782-.783V.391a.392.392 0 00-.567-.35l-3.13 1.565a.392.392 0 00-.216.35v4.305a.783.783 0 00-.783.783V9.39a.783.783 0 00-.783.783v5.87a1.96 1.96 0 001.957 1.956h3.13a1.959 1.959 0 001.957-1.956v-5.87a.783.783 0 00-.783-.783zM3.912 2.198L6.26 1.025V6.26H3.912V2.198zM3.13 7.044h3.912V9.39H3.13V7.044zm4.695 9c0 .647-.526 1.173-1.174 1.173h-3.13a1.175 1.175 0 01-1.174-1.173v-5.87h3.131v5.087a.391.391 0 10.782 0v-5.087h1.565v5.87zm6.651-8.218h-2.348a1.959 1.959 0 00-1.956 1.957v7.434c0 .432.35.783.782.783h4.696a.783.783 0 00.783-.783V9.783a1.959 1.959 0 00-1.957-1.957zm1.174 9.391h-4.696v-1.565h4.696v1.565zm-4.696-2.347V9.783c0-.648.527-1.174 1.174-1.174h2.348c.647 0 1.174.526 1.174 1.174v5.087h-4.696z"/></g><defs><clipPath id="bvclip0"><path d="M0 0h18v18H0z"/></clipPath></defs></symbol><symbol viewBox="0 0 32 32" id="mail" xmlns="http://www.w3.org/2000/svg"><path d="M29.188 4.75H2.813A2.817 2.817 0 000 7.563v16.875a2.817 2.817 0 002.813 2.812h26.375A2.815 2.815 0 0032 24.438V7.563a2.816 2.816 0 00-2.812-2.813zm-.394 1.875L17.989 17.373c-.531.531-1.238.824-1.989.824s-1.457-.292-1.99-.825L3.207 6.626h25.587zM1.875 24.056V7.945l8.102 8.06-8.102 8.051zm1.333 1.319l8.099-8.048 1.379 1.371c.885.885 2.063 1.373 3.315 1.373s2.429-.488 3.313-1.371l1.38-1.373 8.099 8.048H3.208zm26.917-1.319l-8.102-8.051 8.102-8.06v16.111z"/></symbol><symbol viewBox="0 0 16 16" id="map" xmlns="http://www.w3.org/2000/svg"><path fill-rule="evenodd" clip-rule="evenodd" d="M5.003.755A.667.667 0 015.63.737l5.015 2.507 4.357-2.49a.667.667 0 01.997.58V12c0 .24-.128.46-.336.58l-4.667 2.666a.667.667 0 01-.629.017l-5.014-2.507-4.357 2.49A.667.667 0 010 14.667V4c0-.239.128-.46.336-.579L5.003.756zm.351 1.335l-4.02 2.297v9.131l3.669-2.097a.667.667 0 01.628-.017l5.015 2.507 4.02-2.298v-9.13l-3.669 2.096a.667.667 0 01-.629.018L5.354 2.089z"/><path fill-rule="evenodd" clip-rule="evenodd" d="M5.333.667c.368 0 .666.298.666.667V12a.667.667 0 11-1.333 0V1.334c0-.369.298-.667.667-.667zm5.334 2.666c.368 0 .666.298.666.667v10.666a.667.667 0 11-1.333 0V4c0-.369.299-.667.667-.667z"/></symbol><symbol viewBox="0 0 12 11" id="next" xmlns="http://www.w3.org/2000/svg"><path fill-rule="evenodd" clip-rule="evenodd" d="M1 1.357l2.96 3.16L1 7.678l1.272 1.358 4.232-4.517L2.272 0 1 1.357zm4.496 0l2.96 3.16-2.96 3.16 1.271 1.358L11 4.518 6.768 0 5.495 1.357z"/></symbol><symbol viewBox="0 0 27 32" id="next1" xmlns="http://www.w3.org/2000/svg"><path d="M.482.48L24.855 16 .482 31.52V.48z"/></symbol><symbol viewBox="0 0 48 32" id="next2" xmlns="http://www.w3.org/2000/svg"><path d="M23.744 16L1.024 0v32l22.72-16zm1.28 16l22.72-16-22.72-16v32z"/></symbol><symbol viewBox="0 0 19 20" id="notifi" xmlns="http://www.w3.org/2000/svg"><path fill-rule="evenodd" clip-rule="evenodd" d="M8.542 2.533V.625a.625.625 0 011.25 0v1.908A5.842 5.842 0 0115 8.333v2.324c0 1.649.722 3.206 1.982 4.27a1.458 1.458 0 01-.94 2.573h-3.813A3.13 3.13 0 019.167 20a3.13 3.13 0 01-3.062-2.5H2.292a1.46 1.46 0 01-.949-2.567 5.585 5.585 0 001.99-4.276V8.333a5.842 5.842 0 015.209-5.8zm9.166 6.425a.625.625 0 01-.625-.625 8.901 8.901 0 00-2.623-6.335.625.625 0 11.884-.884 10.145 10.145 0 012.989 7.22c0 .344-.28.624-.625.624zm-17.083 0A.625.625 0 010 8.333a10.14 10.14 0 012.99-7.218.625.625 0 01.884.884A8.895 8.895 0 001.25 8.333c0 .345-.28.625-.625.625zm8.542 9.792c.815 0 1.51-.522 1.768-1.25H7.399c.258.728.953 1.25 1.768 1.25z"/></symbol><symbol viewBox="0 0 19 20" id="notifi1" xmlns="http://www.w3.org/2000/svg"><path fill-rule="evenodd" clip-rule="evenodd" d="M8.542 2.533V.625a.625.625 0 011.25 0v1.908A5.842 5.842 0 0115 8.333v2.324c0 1.649.722 3.206 1.982 4.27a1.458 1.458 0 01-.94 2.573h-3.813A3.13 3.13 0 019.167 20a3.13 3.13 0 01-3.062-2.5H2.292a1.46 1.46 0 01-.949-2.567 5.585 5.585 0 001.99-4.276V8.333a5.842 5.842 0 015.209-5.8zm9.166 6.425a.625.625 0 01-.625-.625 8.901 8.901 0 00-2.623-6.335.625.625 0 11.884-.884 10.145 10.145 0 012.989 7.22c0 .344-.28.624-.625.624zm-17.083 0A.625.625 0 010 8.333a10.14 10.14 0 012.99-7.218.625.625 0 01.884.884A8.895 8.895 0 001.25 8.333c0 .345-.28.625-.625.625zm8.542 9.792c.815 0 1.51-.522 1.768-1.25H7.399c.258.728.953 1.25 1.768 1.25zm6.875-2.5H2.292a.208.208 0 01-.133-.368 6.83 6.83 0 002.424-5.225V8.333A4.588 4.588 0 019.167 3.75a4.588 4.588 0 014.583 4.583v2.324a6.83 6.83 0 002.427 5.226.205.205 0 01.073.159.21.21 0 01-.208.208z"/></symbol><symbol viewBox="0 0 19 20" id="notifi2" xmlns="http://www.w3.org/2000/svg"><path fill-rule="evenodd" clip-rule="evenodd" d="M8.542 2.533V.625a.625.625 0 011.25 0v1.908A5.842 5.842 0 0115 8.333v2.324c0 1.649.722 3.206 1.982 4.27a1.458 1.458 0 01-.94 2.573h-3.813A3.13 3.13 0 019.167 20a3.13 3.13 0 01-3.062-2.5H2.292a1.46 1.46 0 01-.949-2.567 5.585 5.585 0 001.99-4.276V8.333a5.842 5.842 0 015.209-5.8zm9.166 6.425a.625.625 0 01-.625-.625 8.901 8.901 0 00-2.623-6.335.625.625 0 11.884-.884 10.145 10.145 0 012.989 7.22c0 .344-.28.624-.625.624zm-17.083 0A.625.625 0 010 8.333a10.14 10.14 0 012.99-7.218.625.625 0 01.884.884A8.895 8.895 0 001.25 8.333c0 .345-.28.625-.625.625zm8.542 9.792c.815 0 1.51-.522 1.768-1.25H7.399c.258.728.953 1.25 1.768 1.25zm6.875-2.5H2.292a.208.208 0 01-.133-.368 6.83 6.83 0 002.424-5.225V8.333A4.588 4.588 0 019.167 3.75a4.588 4.588 0 014.583 4.583v2.324a6.83 6.83 0 002.427 5.226.205.205 0 01.073.159.21.21 0 01-.208.208z"/></symbol><symbol viewBox="0 0 12 12" id="notifi3" xmlns="http://www.w3.org/2000/svg"><path d="M6 0a6 6 0 100 12A6 6 0 006 0zm1.249 9.299c-.31.122-.555.214-.74.278a1.95 1.95 0 01-.64.096c-.374 0-.665-.091-.872-.274a.883.883 0 01-.31-.694c0-.11.007-.22.022-.335a4.18 4.18 0 01.075-.385l.386-1.366c.034-.13.064-.255.087-.37.024-.118.035-.225.035-.322 0-.174-.036-.296-.108-.365-.073-.068-.21-.102-.413-.102-.1 0-.202.015-.307.046a4.361 4.361 0 00-.269.09l.102-.421c.253-.103.495-.192.726-.265.232-.074.45-.11.656-.11.371 0 .658.09.86.269.2.179.3.412.3.699 0 .06-.006.164-.02.313a2.17 2.17 0 01-.077.412l-.385 1.361a3.85 3.85 0 00-.084.374c-.025.14-.038.246-.038.318 0 .18.04.304.122.37.08.065.22.098.42.098a1.808 1.808 0 00.575-.136l-.103.42zM7.18 3.773a.918.918 0 01-.648.25.927.927 0 01-.65-.25.798.798 0 01-.27-.606c0-.236.09-.439.27-.607a.92.92 0 01.65-.252.91.91 0 01.648.252.804.804 0 01.269.607c0 .238-.09.44-.27.606z"/></symbol><symbol viewBox="0 0 32 32" id="padlock" xmlns="http://www.w3.org/2000/svg"><path d="M25 11.75h-2.252V6.611C22.748 2.966 19.72 0 15.998 0s-6.75 2.966-6.75 6.611v5.139H7a3.754 3.754 0 00-3.75 3.75v12.75A3.754 3.754 0 007 32h18a3.754 3.754 0 003.75-3.75V15.5A3.754 3.754 0 0025 11.75zM11.748 6.611c0-2.267 1.907-4.111 4.25-4.111s4.25 1.844 4.25 4.111v5.139h-8.5V6.611zM26.25 28.25c0 .689-.561 1.25-1.25 1.25H7c-.689 0-1.25-.561-1.25-1.25V15.5c0-.689.561-1.25 1.25-1.25h18c.689 0 1.25.561 1.25 1.25v12.75z"/><path d="M16 17.875a2.313 2.313 0 00-1.253 4.256v2.744a1.25 1.25 0 002.5 0v-2.741A2.31 2.31 0 0016 17.875z"/></symbol><symbol viewBox="0 0 31 35" id="payment" xmlns="http://www.w3.org/2000/svg"><path d="M29.544 6.028L18.86.242c-1.013-.549-2.407-.127-2.956.887l-6.25 11.614H2.05c-.97 0-1.731.76-1.731 1.732v18.794c0 .97.76 1.731 1.731 1.731h24.284c.972 0 1.732-.76 1.732-1.731v-4.393h.718c.38 0 .676-.295.676-.675v-5.026a.667.667 0 00-.676-.676h-.718v-4.941c0-.803-.591-1.52-1.351-1.69l3.716-6.884a2.214 2.214 0 00-.887-2.956zm-7.602-2.576L15.27 15.826h-1.901l7.137-13.134 1.436.76zm-4.814-1.69c.21-.38.718-.549 1.098-.337l1.056.59-7.433 13.811H9.526l7.602-14.063zm-15.5 12.67c0-.126.17-.337.38-.337h6.884l-.929 1.689H2.008c-.126 0-.253 0-.38.042v-1.394zM26.672 33.27a.38.38 0 01-.38.38H2.008a.379.379 0 01-.38-.38V17.558c0-.211.17-.38.38-.38H26.25c.211 0 .38.169.38.38v4.941h-2.576c-1.14 0-2.027.93-2.027 2.027v2.323c0 1.14.929 2.027 2.027 2.027h2.618v4.393zm1.352-9.418h.042v3.674h-4.012a.667.667 0 01-.676-.676v-2.323c0-.38.296-.675.676-.675h3.97zM29.206 8.31l-4.054 7.517H16.79l6.335-11.698 5.744 3.125c.422.169.549.676.337 1.056z"/></symbol><symbol viewBox="0 0 18 18" id="perfume" xmlns="http://www.w3.org/2000/svg"><path opacity=".2" d="M6.72 5.1h2.76v1.25H6.72z"/><path d="M11.001 3.18c.288.767 1.264 1.317 2.456 1.317 1.425 0 2.542-.787 2.542-1.791S14.882.915 13.457.915c-1.192 0-2.168.55-2.456 1.317H9.656v-.57H6.498v.57h-.75v.948h.75v1.177h-.58V6.43a6.085 6.085 0 00-3.916 5.677c0 .966.232 1.927.672 2.78a6.13 6.13 0 001.791 2.105l.126.093h6.971l.126-.093a6.13 6.13 0 001.792-2.106 6.08 6.08 0 00.671-2.779 6.085 6.085 0 00-3.915-5.677V4.357h-.58V3.18H11zm2.456-1.318c.913 0 1.595.446 1.595.844 0 .398-.682.844-1.595.844-.913 0-1.595-.446-1.595-.844 0-.398.682-.844 1.595-.844zm-6.012.747h1.263v1.748H7.445V2.61zm-.58 2.696h2.424v.85a6.077 6.077 0 00-2.424 0v-.85zm6.339 6.803c0 1.566-.73 3.061-1.958 4.03H4.908a5.153 5.153 0 01-1.959-4.03c0-2.828 2.3-5.128 5.128-5.128 2.827 0 5.127 2.3 5.127 5.127z"/><path fill-rule="evenodd" clip-rule="evenodd" d="M5.276 13.013a.391.391 0 010-.553l2.184-2.184a.391.391 0 01.553.553l-2.184 2.184a.39.39 0 01-.553 0zm3.194-.456a.39.39 0 010-.553l1.271-1.271a.391.391 0 01.553.553l-1.271 1.27a.39.39 0 01-.553 0z"/></symbol><symbol viewBox="0 0 32 32" id="phone" xmlns="http://www.w3.org/2000/svg"><path d="M25.397 21.639c0 .516-.238 1.528-.436 2.004-.595 1.309-3.095 2.262-4.464 2.262-1.329 0-2.54-.536-3.77-.992-4.345-1.587-9.067-6.309-10.655-10.655-.456-1.23-.992-2.44-.992-3.77 0-1.369.952-3.869 2.262-4.464.476-.198 1.488-.436 2.004-.436.099 0 .218 0 .317.04.357.119 1.825 3.016 2.143 3.571.218.377.655.833.655 1.29 0 .873-2.599 2.163-2.599 2.937 0 .397.357.893.556 1.25 1.468 2.619 3.274 4.425 5.893 5.893.357.198.853.556 1.25.556.774 0 2.063-2.599 2.936-2.599.456 0 .913.437 1.29.655.556.317 3.452 1.786 3.571 2.143.04.099.04.218.04.317zm5.079-15.417A5.716 5.716 0 0024.762.508H5.714A5.716 5.716 0 000 6.222V25.27a5.716 5.716 0 005.714 5.714h19.048a5.716 5.716 0 005.714-5.714V6.222z"/></symbol><symbol viewBox="0 0 42 18" id="plane" xmlns="http://www.w3.org/2000/svg"><g clip-path="url(#cjclip0)"><path d="M40.027 7.125l-3.83-2.127a4.997 4.997 0 00-2.42-.628H9.636L7.002.416a.712.712 0 00-.595-.317H3.56a.712.712 0 00-.711.712v6.407c0 .189.075.37.208.503L4.48 9.145a.71.71 0 00.503.209h3.909l2.584 3.56h-.38a.72.72 0 00-.24.041l-1.446.517-.807-2.225a.71.71 0 00-.925-.421l-2.657 1.026a.712.712 0 00-.405.927l.836 2.106-.57.203-.854-2.143a.712.712 0 00-.918-.4L.456 13.57a.712.712 0 00-.41.915L.83 16.55a.704.704 0 00-.37.872c.133.37.54.563.91.431l.553-.197a.584.584 0 00.08-.015c.021-.007.034-.024.053-.032l2.634-.942c.017-.006.035 0 .052-.01.016-.009.019-.014.03-.02l4.371-1.56a.566.566 0 00.087-.014.552.552 0 00.071-.044l1.92-.682h5.866a.7.7 0 00.294-.067h.009l-2.89 2.364a.713.713 0 00.451 1.263h5.696a.712.712 0 00.405-.127l5.018-3.474 10.24.027v.926a1.424 1.424 0 101.423 0v-.921h.427a3.845 3.845 0 001.867-7.204zM6.204 12.92l1.309-.505.557 1.535-1.276.455-.59-1.485zm-3.237 1.203l.574 1.441-1.377.492-.536-1.413 1.34-.52zm3.061-12.6L7.927 4.37H4.271V1.522h1.757zm14.395 14.95h-3.48l6.092-4.983h4.588l-7.2 4.983zm19.445-4.275a2.403 2.403 0 01-1.709.706h-.007l-10.031-.026 2.188-1.515a.712.712 0 00-.408-1.297h-7.12a.713.713 0 00-.45.16l-3.208 2.625-5.945-.017-3.346-4.61a.713.713 0 00-.577-.294H5.278L4.271 6.924v-1.13h29.506c.605 0 1.2.155 1.729.448l1.757.976h-5.226v1.424h7.684a2.413 2.413 0 01.147 3.556z"/><path d="M12.102 7.218h1.424v1.424h-1.424V7.218zm2.848 0h1.424v1.424H14.95V7.218zm2.849 0h1.423v1.424h-1.424V7.218zm2.847 0h1.424v1.424h-1.424V7.218zm2.847 0h1.424v1.424h-1.424V7.218zm2.847 0h1.425v1.424H26.34V7.218zm2.848 0h1.424v1.424h-1.424V7.218z"/></g><defs><clipPath id="cjclip0"><path transform="translate(0 .099)" d="M0 0h42v17.81H0z"/></clipPath></defs></symbol><symbol viewBox="0 0 27 32" id="prev1" xmlns="http://www.w3.org/2000/svg"><path d="M26.185.48L1.812 16l24.373 15.52V.48z"/></symbol><symbol viewBox="0 0 48 32" id="prev2" xmlns="http://www.w3.org/2000/svg"><path d="M24.256 16l22.72-16v32l-22.72-16zm-1.28 16L.256 16l22.72-16v32z"/></symbol><symbol viewBox="0 0 496 496" id="refresh" xmlns="http://www.w3.org/2000/svg"><path d="M248 92c-13.6 0-24-10.4-24-24V24c0-13.6 10.4-24 24-24s24 10.4 24 24v44c0 12.8-10.4 24-24 24zM248 496c-13.6 0-24-10.4-24-24v-44c0-13.6 10.4-24 24-24s24 10.4 24 24v44c0 13.6-10.4 24-24 24zM157.6 116c-8 0-16-4-20.8-12l-21.6-37.6c-6.4-11.2-2.4-26.4 8.8-32.8s26.4-2.4 32.8 8.8L178.4 80c6.4 11.2 2.4 26.4-8.8 32.8-3.2 1.6-8 3.2-12 3.2zM360 465.6c-8 0-16-4-20.8-12L317.6 416c-6.4-11.2-2.4-26.4 8.8-32.8 11.2-6.4 26.4-2.4 32.8 8.8l21.6 37.6c6.4 11.2 2.4 26.4-8.8 32.8-4 2.4-8 3.2-12 3.2zM92 181.6c-4 0-8-.8-12-3.2l-37.6-21.6c-11.2-6.4-15.2-21.6-8.8-32.8s21.6-15.2 32.8-8.8l37.6 21.6c11.2 6.4 15.2 21.6 8.8 32.8-4.8 8-12.8 12-20.8 12zM442.4 384c-4 0-8-.8-12-3.2L392 359.2c-11.2-6.4-15.2-21.6-8.8-32.8 6.4-11.2 21.6-15.2 32.8-8.8l37.6 21.6c11.2 6.4 15.2 21.6 8.8 32.8-4 8-12 12-20 12zM68 272H24c-13.6 0-24-10.4-24-24s10.4-24 24-24h44c13.6 0 24 10.4 24 24s-11.2 24-24 24zM472 272h-44c-13.6 0-24-10.4-24-24s10.4-24 24-24h44c13.6 0 24 10.4 24 24s-10.4 24-24 24zM53.6 384c-8 0-16-4-20.8-12-6.4-11.2-2.4-26.4 8.8-32.8l37.6-21.6c11.2-6.4 26.4-2.4 32.8 8.8 6.4 11.2 2.4 26.4-8.8 32.8l-37.6 21.6c-3.2 2.4-7.2 3.2-12 3.2zM404 181.6c-8 0-16-4-20.8-12-6.4-11.2-2.4-26.4 8.8-32.8l37.6-21.6c11.2-6.4 26.4-2.4 32.8 8.8s2.4 26.4-8.8 32.8L416 178.4c-4 2.4-8 3.2-12 3.2zM136 465.6c-4 0-8-.8-12-3.2-11.2-6.4-15.2-21.6-8.8-32.8l21.6-37.6c6.4-11.2 21.6-15.2 32.8-8.8 11.2 6.4 15.2 21.6 8.8 32.8l-21.6 37.6c-4.8 8-12.8 12-20.8 12zM338.4 116c-4 0-8-.8-12-3.2-11.2-6.4-15.2-21.6-8.8-32.8l21.6-37.6c6.4-11.2 21.6-15.2 32.8-8.8 11.2 6.4 15.2 21.6 8.8 32.8L359.2 104c-4.8 7.2-12.8 12-20.8 12z"/></symbol><symbol viewBox="0 0 48 32" id="review" xmlns="http://www.w3.org/2000/svg"><path d="M44.571 16.571c-4.58 7.071-11.973 12-20.571 12s-15.991-4.929-20.571-12c2.545-3.938 6.027-7.313 10.205-9.455A11.91 11.91 0 0012 13.143c0 6.616 5.384 12 12 12s12-5.384 12-12c0-2.116-.562-4.205-1.634-6.027 4.178 2.143 7.661 5.518 10.205 9.455zM25.286 6.286c0 .696-.589 1.286-1.286 1.286-3.054 0-5.571 2.518-5.571 5.571 0 .696-.589 1.286-1.286 1.286s-1.286-.589-1.286-1.286C15.857 8.67 19.527 5 24 5c.696 0 1.286.589 1.286 1.286zM48 16.571c0-.67-.214-1.286-.536-1.848C42.535 6.634 33.509 1.143 24 1.143S5.464 6.634.536 14.723C.215 15.285 0 15.902 0 16.571s.214 1.286.536 1.848C5.465 26.508 14.491 31.999 24 31.999s18.536-5.464 23.464-13.58c.321-.563.536-1.179.536-1.848z"/></symbol><symbol viewBox="0 0 32 32" id="rss" xmlns="http://www.w3.org/2000/svg"><path d="M8.229 27.886c0-2.271-1.843-4.114-4.114-4.114S.001 25.615.001 27.886a4.115 4.115 0 008.228 0zM19.2 30.521a19.246 19.246 0 00-5.614-12.107A19.246 19.246 0 001.479 12.8h-.107c-.343 0-.686.129-.921.364-.3.257-.45.621-.45 1.007v2.893c0 .707.536 1.286 1.243 1.35a13.711 13.711 0 0112.343 12.343A1.354 1.354 0 0014.937 32h2.893c.386 0 .75-.15 1.007-.45.257-.279.386-.643.364-1.029zm10.972.043A30.173 30.173 0 0021.301 10.7 30.164 30.164 0 001.437 1.829h-.064a1.33 1.33 0 00-.943.386c-.279.257-.429.6-.429.986v3.064a1.36 1.36 0 001.286 1.35c12.45.729 22.371 10.65 23.079 23.1a1.365 1.365 0 001.371 1.286h3.064c.386 0 .729-.15.986-.429a1.31 1.31 0 00.386-1.007z"/></symbol><symbol viewBox="0 0 32 32" id="search" xmlns="http://www.w3.org/2000/svg"><path d="M19.006 19.224c1.64-1.64 2.46-3.609 2.46-5.907s-.82-4.261-2.46-5.888c-1.627-1.64-3.59-2.46-5.888-2.46s-4.267.82-5.907 2.46c-1.627 1.627-2.441 3.59-2.441 5.888s.814 4.267 2.441 5.907c1.64 1.627 3.609 2.441 5.907 2.441s4.261-.814 5.888-2.441zm12 9.596c0 .646-.236 1.205-.708 1.677s-1.031.708-1.677.708c-.671 0-1.23-.236-1.677-.708l-6.391-6.373c-2.224 1.54-4.702 2.311-7.435 2.311-1.776 0-3.478-.342-5.106-1.025-1.615-.696-3.012-1.627-4.193-2.795-1.168-1.18-2.099-2.578-2.795-4.193-.683-1.627-1.025-3.329-1.025-5.106s.342-3.472 1.025-5.087c.696-1.627 1.627-3.025 2.795-4.193 1.18-1.18 2.578-2.112 4.193-2.795C9.639.545 11.341.198 13.118.198s3.472.348 5.087 1.043c1.627.683 3.025 1.615 4.193 2.795 1.18 1.168 2.112 2.565 2.795 4.193a12.72 12.72 0 011.043 5.087c0 2.733-.77 5.211-2.311 7.435l6.391 6.391c.46.46.689 1.019.689 1.677z"/></symbol><symbol viewBox="0 0 34 28" id="send_bank" xmlns="http://www.w3.org/2000/svg"><path d="M9.633 24.367h-3.4V25.5h3.4v-1.133z"/><path d="M1.133 22.667V3.422c1.927-.01 8.664 0 13.6.007V5.1h1.134V1.7a1.7 1.7 0 00-1.7-1.7H1.7A1.7 1.7 0 000 1.7v23.8a1.7 1.7 0 001.7 1.7h12.467a1.7 1.7 0 001.7-1.7v-2.833H1.133zM1.7 1.133h12.467a.567.567 0 01.567.567v.596c-8.84-.018-12.249-.024-13.6.02V1.7a.567.567 0 01.566-.567zm12.467 24.934H1.7a.567.567 0 01-.567-.567v-1.7h13.6v1.7a.566.566 0 01-.566.567zM32.3 0H19.833a1.7 1.7 0 00-1.7 1.7v2.267h1.133v-.545c1.927-.01 8.664 0 13.6.007v19.238h-13.6V22.1h-1.133v3.4a1.7 1.7 0 001.7 1.7H32.3a1.7 1.7 0 001.7-1.7V1.7A1.7 1.7 0 0032.3 0zM19.266 2.315V1.7a.567.567 0 01.567-.567H32.3a.567.567 0 01.566.567v.596c-8.84-.018-12.248-.024-13.6.02zM32.3 26.067H19.833a.567.567 0 01-.567-.567v-1.7h13.6v1.7a.566.566 0 01-.566.567z"/><path d="M27.768 24.367h-3.4V25.5h3.4v-1.133zM18.7 14.733a1.7 1.7 0 00-1.7-1.7.566.566 0 11.567-.566H18.7a1.7 1.7 0 00-1.133-1.596v-.67h-1.133v.67A1.696 1.696 0 0017 14.167a.566.566 0 11-.566.566H15.3a1.7 1.7 0 001.134 1.596V17h1.133v-.67a1.7 1.7 0 001.133-1.596z"/><path d="M17.836 8.982l.928-.652-.596-.85a6.233 6.233 0 01.391 12.157l.283 1.098a7.367 7.367 0 00-.283-14.333l.623-.438-.652-.928-1.856 1.3a.567.567 0 00-.14.789l1.302 1.857zm-1.672 9.237l-.928.651.596.85a6.233 6.233 0 01-.39-12.157l-.284-1.098a7.367 7.367 0 00.283 14.333l-.623.438.652.928 1.857-1.3a.567.567 0 00.139-.788l-1.302-1.857zm-7.663-5.185H7.368v1.133H8.5v-1.133zm-2.267 0H5.1v1.133h1.133v-1.133zm20.4 0H25.5v1.133h1.134v-1.133zm2.266 0h-1.132v1.133H28.9v-1.133z"/></symbol><symbol viewBox="0 0 38 26" id="shipped" xmlns="http://www.w3.org/2000/svg"><g clip-path="url(#crclip0)"><path d="M35.34 11.171l-.984-3.936a.595.595 0 00.47-.582V6.02a2.502 2.502 0 00-2.498-2.5h-4.483V2.212c0-.678-.551-1.23-1.23-1.23H3.769c-.678 0-1.23.552-1.23 1.23V13a.595.595 0 101.19 0V2.21a.04.04 0 01.04-.039h22.848a.04.04 0 01.04.04V13a.595.595 0 001.19 0v-.675h7.02a1.947 1.947 0 011.848 1.35h-1.85a.595.595 0 00-.595.594v1.27c0 1.027.837 1.864 1.865 1.864h.674v2.618h-1.556a3.774 3.774 0 00-3.561-2.539 3.774 3.774 0 00-3.561 2.539h-.287v-4.483a.595.595 0 00-1.19 0v4.482H14.311a3.774 3.774 0 00-3.562-2.538 3.774 3.774 0 00-3.56 2.538h-3.42a.04.04 0 01-.04-.04v-1.308h2.578a.595.595 0 000-1.19H.595a.595.595 0 100 1.19h1.944v1.309c0 .678.551 1.23 1.23 1.23h3.213v.04a3.773 3.773 0 003.767 3.767 3.773 3.773 0 003.769-3.768l-.001-.04h13.409l-.001.04a3.773 3.773 0 003.768 3.768 3.773 3.773 0 003.768-3.768v-.04h1.944a.595.595 0 00.595-.595V14.27a3.138 3.138 0 00-2.66-3.098zM27.845 4.71h4.483a1.31 1.31 0 011.309 1.309v.04h-5.791v-1.35zm0 6.426V7.248h5.288l.971 3.888h-6.258zM10.75 23.828a2.581 2.581 0 01-2.578-2.579 2.581 2.581 0 012.579-2.578 2.581 2.581 0 012.578 2.578 2.581 2.581 0 01-2.579 2.579zm20.944 0a2.581 2.581 0 01-2.578-2.579 2.581 2.581 0 012.578-2.578 2.581 2.581 0 012.578 2.578 2.581 2.581 0 01-2.578 2.579zm5.117-7.616h-.674a.675.675 0 01-.675-.675v-.674h1.349v1.349z"/><path d="M10.75 20.02a1.231 1.231 0 000 2.46 1.231 1.231 0 000-2.46zm20.942 0a1.231 1.231 0 000 2.46 1.231 1.231 0 000-2.46zm-6.979-2.538h-8.886a.595.595 0 000 1.19h8.886a.595.595 0 000-1.19zM9.48 14.943H1.866a.595.595 0 100 1.19h7.616a.595.595 0 000-1.19zm11.21-8.076a.595.595 0 00-.842 0l-5.291 5.291-2.753-2.752a.595.595 0 10-.841.841l3.173 3.174a.593.593 0 00.842 0l5.711-5.712a.595.595 0 000-.842z"/></g><defs><clipPath id="crclip0"><path transform="translate(0 .981)" d="M0 0h38v24.04H0z"/></clipPath></defs></symbol><symbol viewBox="0 0 32 32" id="smartphone" xmlns="http://www.w3.org/2000/svg"><path d="M6.364 29.509V2.484A2.487 2.487 0 018.848 0h14.304a2.487 2.487 0 012.484 2.484v27.032A2.487 2.487 0 0123.152 32H8.848a2.498 2.498 0 01-2.484-2.491zm17.67-23.75H7.972v18.187h16.062V5.759zm-.882-4.157H8.848a.883.883 0 00-.883.883v1.674h16.069V2.485a.884.884 0 00-.882-.883zm.882 27.907v-3.968H7.972v3.968c0 .484.392.883.883.883h14.297a.882.882 0 00.882-.883z"/><path d="M14.379 27.234h3.249a.803.803 0 110 1.608h-3.249a.803.803 0 110-1.608z"/></symbol><symbol viewBox="0 0 53 32" id="sosanh" xmlns="http://www.w3.org/2000/svg"><path d="M34.286 31.143c0-.187-.08-.402-.187-.563l-4.286-5.143a.913.913 0 00-.67-.295H13.714V14.856h5.143c.938 0 1.714-.777 1.714-1.714 0-.402-.134-.804-.402-1.098L11.598 1.758c-.321-.375-.804-.589-1.313-.589s-.991.214-1.312.589L.402 12.044A1.634 1.634 0 000 13.142c0 .938.777 1.714 1.714 1.714h5.143v15.428c0 .67-.134 1.714.857 1.714h25.714a.882.882 0 00.857-.857zM51.429 20c0-.938-.777-1.714-1.714-1.714h-5.143V2.857c0-.67.134-1.714-.857-1.714H18.001a.882.882 0 00-.857.857c0 .188.08.402.188.536l4.286 5.143a.85.85 0 00.67.321h15.429v10.286h-5.143c-.938 0-1.714.777-1.714 1.714 0 .402.134.804.402 1.098l8.571 10.286c.321.375.803.616 1.313.616s.991-.241 1.313-.616l8.571-10.286c.268-.295.402-.696.402-1.098z"/></symbol><symbol viewBox="0 0 32 32" id="star-full" xmlns="http://www.w3.org/2000/svg"><path d="M32 12.408l-11.056-1.607L16 .783l-4.944 10.018L0 12.408l8 7.798-1.889 11.011L16 26.018l9.889 5.199L24 20.206l8-7.798z"/></symbol><symbol viewBox="0 0 32 32" id="star-half" xmlns="http://www.w3.org/2000/svg"><path d="M32 12.408l-11.056-1.607L16 .783l-4.944 10.018L0 12.408l8 7.798-1.889 11.011L16 26.018l9.889 5.199L24 20.206l8-7.798zM16 23.547l-.029.015L16 5.725l3.492 7.075 7.807 1.134-5.65 5.507 1.334 7.776L16 23.546z"/></symbol><symbol viewBox="0 -10 511.99 511" id="star-none" xmlns="http://www.w3.org/2000/svg"><path d="M114.594 491.14c-5.61 0-11.18-1.75-15.934-5.187a27.223 27.223 0 01-10.582-28.094l32.938-145.09L9.312 214.81a27.188 27.188 0 01-7.976-28.907 27.208 27.208 0 0123.402-18.71l147.797-13.419L230.97 17.027C235.277 6.98 245.089.492 255.992.492s20.715 6.488 25.024 16.512l58.433 136.77 147.774 13.417c10.882.98 20.054 8.344 23.425 18.711 3.372 10.368.254 21.739-7.957 28.907L390.988 312.75l32.938 145.086c2.414 10.668-1.727 21.7-10.578 28.098-8.832 6.398-20.61 6.89-29.91 1.3l-127.446-76.16-127.445 76.203c-4.309 2.559-9.11 3.864-13.953 3.864zm141.398-112.874c4.844 0 9.64 1.3 13.953 3.859l120.278 71.938-31.086-136.942a27.21 27.21 0 018.62-26.516l105.473-92.5-139.543-12.671a27.18 27.18 0 01-22.613-16.493L255.992 39.895 200.844 168.96c-3.883 9.195-12.524 15.512-22.547 16.43L38.734 198.062l105.47 92.5c7.554 6.614 10.858 16.77 8.62 26.54l-31.062 136.937 120.277-71.914c4.309-2.559 9.11-3.86 13.953-3.86zm-84.586-221.848s0 .023-.023.043zm169.13-.063l.023.043c0-.023 0-.023-.024-.043zm0 0"/></symbol><symbol viewBox="0 0 32 32" id="superscript2" xmlns="http://www.w3.org/2000/svg"><path d="M6.063 26l1.8-6h8.274l1.8 6h3.551l-6-20H8.512l-6 20h3.551zm4.8-16h2.274l1.8 6H9.063l1.8-6zM22 26l5-8 5 8H22zm5-22h-2c-.551 0-1-.449-1-1s.449-1 1-1h4a1 1 0 000-2h-4c-1.654 0-3 1.346-3 3 0 .768.29 1.469.766 2 .55.613 1.347 1 2.234 1h2c.551 0 1 .449 1 1s-.449 1-1 1h-4a1 1 0 000 2h4c1.654 0 3-1.346 3-3 0-.768-.29-1.469-.766-2-.55-.613-1.347-1-2.234-1z"/></symbol><symbol viewBox="0 0 25 32" id="thutuc" xmlns="http://www.w3.org/2000/svg"><path d="M22.592 2.212h-4.28c-.233-.642-.885-1.106-1.651-1.106h-1.81C14.302.417 13.431 0 12.509 0s-1.792.417-2.342 1.106h-1.81c-.766 0-1.418.464-1.651 1.106h-4.28c-1.288 0-2.335.977-2.335 2.177v25.434c0 1.2 1.048 2.177 2.335 2.177h20.166c1.288 0 2.335-.977 2.335-2.177V4.389c0-1.2-1.048-2.177-2.335-2.177zM6.706 5.46c.233.642.885 1.106 1.651 1.106h8.304c.766 0 1.418-.464 1.651-1.106h3.131v23.292H3.575V5.46h3.131zm1.651-3.317h2.108a.565.565 0 00.481-.258c.332-.531.916-.848 1.563-.848s1.231.317 1.563.848c.1.16.283.258.481.258h2.108c.348 0 .63.264.63.587v2.212c0 .324-.283.587-.63.587H8.357c-.347 0-.629-.263-.63-.586V2.73c0-.324.283-.587.63-.587zm15.458 27.68c0 .629-.549 1.14-1.223 1.14H2.426c-.675 0-1.223-.512-1.223-1.14V4.389c0-.629.549-1.14 1.223-1.14h4.189v1.175H3.019c-.307 0-.556.232-.556.518V29.27c0 .286.249.518.556.518h18.98c.307 0 .556-.232.556-.518V4.942c0-.286-.249-.518-.556-.518h-3.596V3.249h4.189c.675 0 1.223.512 1.223 1.14v25.434z"/><path d="M12.509 4.354c.307 0 .556-.232.556-.518V2.73c0-.286-.249-.518-.556-.518s-.556.232-.556.518v1.106c0 .286.249.518.556.518zm.593 7.188h3.559c.307 0 .556-.232.556-.518s-.249-.518-.556-.518h-3.559c-.307 0-.556.232-.556.518s.249.518.556.518zm0 2.212h5.931c.307 0 .556-.232.556-.518s-.249-.518-.556-.518h-5.931c-.307 0-.556.232-.556.518s.249.518.556.518zm-5.731-.152c.109.101.251.152.393.152s.285-.051.393-.152l2.966-2.765c.217-.202.217-.531 0-.733s-.569-.202-.786 0l-2.572 2.398-1.386-1.292c-.217-.202-.569-.202-.786 0s-.217.531 0 .733l1.779 1.659zm5.731 3.469h3.559c.307 0 .556-.232.556-.518s-.249-.518-.556-.518h-3.559c-.307 0-.556.232-.556.518s.249.518.556.518zm0 2.212h5.931c.307 0 .556-.232.556-.518s-.249-.518-.556-.518h-5.931c-.307 0-.556.232-.556.518s.249.518.556.518zm-5.731-.152c.109.101.251.152.393.152s.285-.051.393-.152l2.966-2.765c.217-.203.217-.531 0-.733s-.569-.202-.786 0l-2.572 2.398-1.386-1.292c-.217-.202-.569-.202-.786 0s-.217.531 0 .733l1.779 1.659zm5.731 3.469h3.559c.307 0 .556-.232.556-.518s-.249-.518-.556-.518h-3.559c-.307 0-.556.232-.556.518s.249.518.556.518zm0 2.212h5.931c.307 0 .556-.232.556-.518s-.249-.518-.556-.518h-5.931c-.307 0-.556.232-.556.518s.249.518.556.518zm-5.731-.152c.109.101.251.152.393.152s.285-.051.393-.152l2.966-2.765c.217-.203.217-.531 0-.733s-.569-.202-.786 0L7.765 23.56l-1.386-1.292c-.217-.202-.569-.202-.786 0s-.217.531 0 .733l1.779 1.659z"/></symbol><symbol viewBox="0 0 33 31" id="tietkiem" xmlns="http://www.w3.org/2000/svg"><path d="M.549 12.675a1.495 1.495 0 00.188 1.55.259.259 0 00.366.034.26.26 0 00.033-.366.964.964 0 01-.11-1.008 1.174 1.174 0 01.996-.72c.262-.012.523.034.765.133a2.348 2.348 0 00-.477 1.994.83.83 0 00.82.62c.134-.012.265-.045.388-.1 1.107-.343 1.107-1.107 1.019-1.406a2.215 2.215 0 00-.875-1.252c.121-.074.252-.134.387-.177a2.358 2.358 0 012.138.62 8.662 8.662 0 00-1.484 4.797 9.25 9.25 0 003.135 6.723v6.447c2.824 0 5.117.078 5.117-2.149v-1.418c2.73.85 5.638.95 8.419.288v1.108c0 2.215 2.293 2.138 5.128 2.138v-5.538a10.368 10.368 0 003.645-4.72h.83a1.318 1.318 0 001.241-1.03l.753-3.721a.687.687 0 00-.82-.864l-1.827.255a9.824 9.824 0 00-2.77-4.32c-.066-1.928 1.507-2.725 1.507-6.303-1.728.365-5.062 1.86-6.325 3.5a15.574 15.574 0 00-4.231-.731 3.633 3.633 0 01-.831 1.584 4.84 4.84 0 013.235 1.174.521.521 0 11-.776.687 4.043 4.043 0 00-2.946-.886 3.987 3.987 0 00-2.947.886.576.576 0 01-.399.177.532.532 0 01-.343-.133.52.52 0 010-.73c.073-.08.15-.154.233-.222a3.534 3.534 0 01-1.84-1.43 12.307 12.307 0 00-5.394 4.021 3.035 3.035 0 00-2.614-.697 2.315 2.315 0 00-.709.387A2.393 2.393 0 002 11.623a1.705 1.705 0 00-1.451 1.03v.022zm25.1 2.481a.998.998 0 11.986-.986.986.986 0 01-.986.986zm-22.851-1.03a1.872 1.872 0 01.465-1.529c.368.228.64.583.764.997.067.377-.155.643-.664.809-.51.166-.51-.067-.565-.222v-.055z"/><path d="M12.38 6.217a2.592 2.592 0 112.591 2.592 2.581 2.581 0 01-2.592-2.592zm4.286-3.866a1.938 1.938 0 111.927 1.928 1.927 1.927 0 01-1.927-1.928zM9.91 3.448a1.351 1.351 0 111.362 1.395 1.362 1.362 0 01-1.363-1.395z"/></symbol><symbol viewBox="0 0 18 18" id="tivi" xmlns="http://www.w3.org/2000/svg"><path opacity=".2" d="M1 12h16v1.368c0 .35-.58.632-1.297.632H2.297C1.581 14 1 13.717 1 13.368V12z"/><path fill-rule="evenodd" clip-rule="evenodd" d="M15.855 2.521H2.145a.442.442 0 00-.442.442v10.393c0 .245.198.443.442.443h13.71a.442.442 0 00.442-.443V2.963a.442.442 0 00-.442-.442zm-13.71-.885c-.733 0-1.327.595-1.327 1.327v10.393c0 .733.594 1.327 1.327 1.327h13.71c.733 0 1.327-.594 1.327-1.327V2.963c0-.733-.594-1.327-1.327-1.327H2.145z"/><path fill-rule="evenodd" clip-rule="evenodd" d="M16.74 12.884H1.04V12h15.7v.884zm-3.539 3.568H5.02v-.884h8.18v.884z"/></symbol><symbol viewBox="0 0 15 11" id="twiter" xmlns="http://www.w3.org/2000/svg"><path d="M14.695 2.012a6.182 6.182 0 01-1.623.397c.59-.314 1.032-.81 1.242-1.394-.555.294-1.162.5-1.795.612a2.945 2.945 0 00-1.603-.765 3.128 3.128 0 00-1.795.264A2.666 2.666 0 007.879 2.31a2.269 2.269 0 00-.175 1.614 8.8 8.8 0 01-3.227-.764A7.923 7.923 0 011.88 1.292a2.307 2.307 0 00-.382 1.267c0 .415.114.823.333 1.189.22.365.537.677.924.907a3.087 3.087 0 01-1.28-.315v.032c0 .582.225 1.145.638 1.596.414.45.989.759 1.629.874a3.162 3.162 0 01-1.277.043c.18.501.532.939 1.006 1.252a3.06 3.06 0 001.634.498c-1 .7-2.237 1.08-3.51 1.079-.227 0-.453-.012-.674-.036a8.726 8.726 0 004.332 1.132c5.198 0 8.04-3.839 8.04-7.168a5.91 5.91 0 00-.008-.326 5.449 5.449 0 001.411-1.304z"/></symbol><symbol viewBox="0 0 32 32" id="upfile" xmlns="http://www.w3.org/2000/svg"><path d="M1.6 19.2a1.6 1.6 0 011.6 1.6v6.4a1.6 1.6 0 001.6 1.6h22.4a1.6 1.6 0 001.6-1.6v-6.4a1.6 1.6 0 113.2 0v6.4a4.8 4.8 0 01-4.8 4.8H4.8A4.8 4.8 0 010 27.2v-6.4a1.6 1.6 0 011.6-1.6zm5.269-8.469a1.6 1.6 0 002.263 0l6.869-6.869 6.869 6.869a1.6 1.6 0 102.263-2.263l-8-8a1.6 1.6 0 00-2.263 0l-8 8a1.6 1.6 0 000 2.263z"/><path d="M16 22.4a1.6 1.6 0 001.6-1.6V1.6a1.6 1.6 0 10-3.2 0v19.2a1.6 1.6 0 001.6 1.6z"/></symbol><symbol viewBox="0 0 27 32" id="user" xmlns="http://www.w3.org/2000/svg"><path d="M18.69 18.857c2.183 0 4.048.794 5.595 2.381 1.587 1.548 2.381 3.413 2.381 5.595v1.548c0 .794-.278 1.468-.833 2.024s-1.23.833-2.024.833H2.857c-.794 0-1.468-.278-2.024-.833S0 29.175 0 28.381v-1.548c0-2.183.774-4.048 2.321-5.595 1.587-1.587 3.472-2.381 5.655-2.381.516 0 1.27.159 2.262.476 1.032.317 2.063.476 3.095.476s2.064-.159 3.095-.476c1.032-.317 1.786-.476 2.262-.476zm5.12 9.524v-1.548c0-1.389-.516-2.579-1.548-3.572-.992-1.032-2.183-1.548-3.572-1.548-.119 0-.754.159-1.905.476-1.111.317-2.262.476-3.452.476s-2.361-.159-3.512-.476c-1.111-.317-1.726-.476-1.845-.476-1.389 0-2.599.516-3.631 1.548-.992.992-1.488 2.183-1.488 3.572v1.548h20.952zm-4.405-12.976c-1.667 1.667-3.691 2.5-6.071 2.5s-4.405-.833-6.071-2.5c-1.667-1.667-2.5-3.691-2.5-6.071s.833-4.405 2.5-6.071c1.667-1.667 3.69-2.5 6.071-2.5s4.405.833 6.071 2.5c1.667 1.667 2.5 3.69 2.5 6.071s-.833 4.405-2.5 6.071zM17.381 5.286c-1.111-1.111-2.46-1.667-4.048-1.667s-2.937.556-4.048 1.667c-1.111 1.111-1.667 2.46-1.667 4.048s.556 2.937 1.667 4.048c1.111 1.111 2.46 1.667 4.048 1.667s2.937-.556 4.048-1.667c1.111-1.111 1.667-2.46 1.667-4.048s-.556-2.937-1.667-4.048z"/></symbol><symbol viewBox="0 0 15 15" id="vector" xmlns="http://www.w3.org/2000/svg"><path fill-rule="evenodd" clip-rule="evenodd" d="M14.79.21c.214.213.27.537.141.81L8.503 14.592a.714.714 0 01-1.339-.133L5.84 9.16.54 7.836a.714.714 0 01-.13-1.339L13.979.07a.714.714 0 01.812.14zM2.825 6.933l3.778.944a.714.714 0 01.52.52l.944 3.778 4.718-9.96-9.96 4.718z"/></symbol><symbol viewBox="0 0 34 32" id="visa" xmlns="http://www.w3.org/2000/svg"><path d="M32.495 9.617A.505.505 0 0033 9.112V7.146a2.34 2.34 0 00-2.337-2.337H3.337A2.34 2.34 0 001 7.146v17.708a2.34 2.34 0 002.337 2.337h27.326A2.34 2.34 0 0033 24.854V10.75a.505.505 0 10-1.01 0v11.611H2.01V9.617h30.485zM2.01 7.146c0-.732.595-1.327 1.326-1.327h27.326c.731 0 1.326.595 1.326 1.327v1.46H2.01v-1.46zm29.98 16.227v1.48c0 .732-.596 1.327-1.327 1.327H3.337a1.328 1.328 0 01-1.327-1.326v-1.481h29.98z" stroke="#236852" stroke-width=".4"/><path d="M9.606 17.598l2.355-4.996h1.23L9.959 19h-1.05L7.68 12.602h1.152l.773 4.996zM14.009 19h-1.08l1.111-6.398h1.081L14.01 19zm4.909-1.679c.064-.422-.166-.735-.69-.94l-.356-.132c-.662-.231-1.132-.505-1.41-.822a1.47 1.47 0 01-.378-1.103c.023-.363.146-.682.369-.958.225-.278.521-.492.887-.641.366-.15.756-.22 1.17-.211.398.009.752.097 1.063.264.31.163.548.393.712.69a1.9 1.9 0 01.228 1.006l-1.08-.005c.02-.334-.055-.593-.225-.777-.167-.185-.42-.282-.76-.29-.343-.006-.633.074-.87.241a.97.97 0 00-.413.677c-.059.372.19.665.747.879l.33.119c.67.24 1.139.523 1.405.848.267.322.384.704.352 1.147-.03.36-.148.675-.356.944-.208.267-.497.474-.866.62a3.11 3.11 0 01-1.213.211 2.54 2.54 0 01-1.142-.264c-.34-.173-.6-.411-.782-.716a1.874 1.874 0 01-.25-1.046l1.085.005c-.024.363.066.643.268.839.202.196.492.297.87.303.351.006.644-.069.879-.224a.94.94 0 00.426-.664zm5.533.19h-2.395L21.29 19h-1.169l3.454-6.4h.976L25.79 19H24.7l-.25-1.49zm-1.938-.897h1.793l-.435-2.646-1.358 2.646z"/></symbol></svg>