<svg width="33" height="30" viewBox="0 0 33 30" fill="none" xmlns="http://www.w3.org/2000/svg">
<path d="M31.3064 5.61134L26.8168 3.61506L12.6434 10.2783V14.5571L10.1709 13.4577V9.1789L24.3443 2.51571L19.5838 0.39896C18.9463 0.115548 17.9033 0.115548 17.2658 0.39896L5.54325 5.61134C4.60938 6.02659 3.84725 7.20257 3.84962 8.2246L3.8679 15.9482C4.60275 15.7118 5.38461 15.5812 6.19704 15.5812C10.4002 15.5812 13.8201 19.0011 13.8201 23.2048C13.8201 24.3026 13.5821 25.3445 13.1625 26.2884L17.3017 28.0579C17.9184 28.3214 18.9272 28.3215 19.5439 28.058L31.2398 23.0598C32.1896 22.6539 32.9686 21.4768 32.971 20.4439L33 8.22454C33.0024 7.20251 32.2403 6.02654 31.3064 5.61134ZM26.7804 14.4791L28.3688 11.1279C28.5292 10.7897 28.9312 10.5946 29.0921 10.778L30.7221 12.6362C30.8849 12.8217 30.6783 13.2443 30.3517 13.3958L29.6656 13.7141L29.6517 18.5416C29.6511 18.7525 29.4648 19.0036 29.2361 19.1023L28.209 19.5457C27.9838 19.6429 27.8016 19.5528 27.8015 19.3446L27.7981 14.5804L27.1335 14.8888C26.821 15.0338 26.6253 14.8064 26.7804 14.4791ZM20.9237 17.2174L22.3673 14.0318C22.5129 13.7105 22.8852 13.5297 23.0371 13.7077L24.5756 15.5099C24.7293 15.6898 24.5418 16.0911 24.2393 16.2314L23.604 16.5261L23.645 21.1487C23.6468 21.3508 23.4759 21.5888 23.264 21.6803L22.3115 22.0915C22.1027 22.1817 21.9318 22.0928 21.9294 21.8933L21.8736 17.329L21.2573 17.6149C20.9675 17.7494 20.7826 17.5288 20.9237 17.2174ZM31.4854 19.8233C31.4846 19.9294 31.3894 20.0551 31.2726 20.1042L20.3939 24.6744C20.2924 24.717 20.2088 24.6724 20.2074 24.5746L20.199 24.0429C20.1975 23.9449 20.2786 23.8303 20.3803 23.787L31.2784 19.1445C31.3954 19.0947 31.4898 19.1405 31.4891 19.2468L31.4854 19.8233ZM6.19694 17.0077C2.77448 17.0077 0 19.7822 0 23.2047C0 26.6272 2.77448 29.4016 6.19694 29.4016C9.61939 29.4016 12.3939 26.6272 12.3939 23.2047C12.3939 19.7822 9.61939 17.0077 6.19694 17.0077ZM10.2462 21.9315L6.43268 26.2216C6.24482 26.4329 5.98324 26.5415 5.71978 26.5415C5.51051 26.5415 5.30011 26.473 5.1246 26.3324L2.74116 24.4257C2.33006 24.0971 2.2633 23.497 2.59239 23.086C2.92104 22.6744 3.52135 22.6079 3.93239 22.937L5.60898 24.2781L8.8213 20.6643C9.17066 20.2709 9.7735 20.2351 10.1671 20.5851C10.5607 20.9353 10.5961 21.5376 10.2462 21.9315Z" fill="white"/>
</svg>
