<svg width="27" height="28" viewBox="0 0 27 28" fill="none" xmlns="http://www.w3.org/2000/svg">
<path d="M19.84 6.07166C20.0851 6.07298 20.328 6.02584 20.5548 5.93296C20.7817 5.84008 20.9879 5.70328 21.1617 5.53043C21.3354 5.35758 21.4733 5.15209 21.5674 4.92577C21.6615 4.69945 21.71 4.45677 21.71 4.21166V2.26166C21.6755 1.79063 21.464 1.3501 21.118 1.02857C20.7721 0.707036 20.3173 0.52832 19.845 0.52832C19.3727 0.52832 18.9179 0.707036 18.5719 1.02857C18.226 1.3501 18.0145 1.79063 17.98 2.26166V4.26166C17.98 4.75497 18.1759 5.22806 18.5248 5.57688C18.8736 5.9257 19.3467 6.12166 19.84 6.12166V6.07166Z" fill="white"/>
<path d="M26.47 3.63166H22.72V4.57167C22.72 5.32488 22.4208 6.04724 21.8882 6.57985C21.3556 7.11245 20.6332 7.41167 19.88 7.41167C19.1268 7.41167 18.4044 7.11245 17.8718 6.57985C17.3392 6.04724 17.04 5.32488 17.04 4.57167V3.63166H9.46V4.57167C9.48296 4.95812 9.42667 5.3452 9.29458 5.70911C9.16249 6.07302 8.95739 6.40608 8.69188 6.68783C8.42637 6.96958 8.10606 7.19408 7.75063 7.34752C7.3952 7.50096 7.01214 7.58011 6.625 7.58011C6.23786 7.58011 5.8548 7.50096 5.49937 7.34752C5.14394 7.19408 4.82363 6.96958 4.55812 6.68783C4.29261 6.40608 4.08751 6.07302 3.95542 5.70911C3.82333 5.3452 3.76704 4.95812 3.79 4.57167V3.63166L0 3.58167V27.2817H26.49L26.47 3.63166ZM24.6 25.4017H1.9V10.2517H24.6V25.4017Z" fill="white"/>
<path d="M6.59998 6.07166C6.84424 6.07166 7.08611 6.02355 7.31177 5.93008C7.53744 5.83661 7.74248 5.6996 7.9152 5.52688C8.08792 5.35417 8.22492 5.14912 8.3184 4.92345C8.41187 4.69779 8.45998 4.45592 8.45998 4.21166V2.26166C8.42547 1.79063 8.21399 1.3501 7.86804 1.02857C7.52208 0.707036 7.06728 0.52832 6.59498 0.52832C6.12268 0.52832 5.66788 0.707036 5.32192 1.02857C4.97597 1.3501 4.7645 1.79063 4.72998 2.26166V4.26166C4.74557 4.74715 4.94944 5.20751 5.29846 5.54533C5.64748 5.88315 6.11425 6.07191 6.59998 6.07166Z" fill="white"/>
<path d="M12.45 12.2816H9.46997V14.9116H12.45V12.2816Z" fill="white"/>
<path d="M17.27 12.2816H14.29V14.9116H17.27V12.2816Z" fill="white"/>
<path d="M21.75 12.2816H18.77V14.9116H21.75V12.2816Z" fill="white"/>
<path d="M12.45 16.6616H9.46997V19.2916H12.45V16.6616Z" fill="white"/>
<path d="M17.27 16.6616H14.29V19.2916H17.27V16.6616Z" fill="white"/>
<path d="M21.75 16.6616H18.77V19.2916H21.75V16.6616Z" fill="white"/>
<path d="M12.45 21.1117H9.46997V23.7417H12.45V21.1117Z" fill="white"/>
<path d="M7.70998 16.6616H4.72998V19.2916H7.70998V16.6616Z" fill="white"/>
<path d="M7.70998 21.1117H4.72998V23.7417H7.70998V21.1117Z" fill="white"/>
<path d="M17.27 21.1117H14.29V23.7417H17.27V21.1117Z" fill="white"/>
<path d="M21.75 21.1117H18.77V23.7417H21.75V21.1117Z" fill="white"/>
</svg>
