<!-- Generated by IcoMoon.io -->
<svg version="1.1" xmlns="http://www.w3.org/2000/svg" width="32" height="32" viewBox="0 0 32 32">
<title>edit</title>
<path d="M4.364 5.818c-0.386 0-0.756 0.153-1.029 0.426s-0.426 0.643-0.426 1.029v20.364c0 0.386 0.153 0.756 0.426 1.029s0.643 0.426 1.029 0.426h20.364c0.386 0 0.756-0.153 1.029-0.426s0.426-0.643 0.426-1.029v-7.767c0-0.803 0.651-1.455 1.455-1.455s1.455 0.651 1.455 1.455v7.767c0 1.157-0.46 2.267-1.278 3.086s-1.928 1.278-3.085 1.278h-20.364c-1.157 0-2.267-0.46-3.086-1.278s-1.278-1.928-1.278-3.086v-20.364c0-1.157 0.46-2.267 1.278-3.086s1.928-1.278 3.086-1.278h7.767c0.803 0 1.455 0.651 1.455 1.455s-0.651 1.455-1.455 1.455h-7.767z"></path>
<path d="M23.699 0.426c0.568-0.568 1.489-0.568 2.057 0l5.818 5.818c0.568 0.568 0.568 1.489 0 2.057l-14.546 14.545c-0.273 0.273-0.643 0.426-1.029 0.426h-5.818c-0.803 0-1.455-0.651-1.455-1.454v-5.818c0-0.386 0.153-0.756 0.426-1.029l14.546-14.545zM11.637 16.602v3.761h3.761l13.091-13.091-3.761-3.761-13.091 13.091z"></path>
</svg>
