<svg width="25" height="29" viewBox="0 0 25 29" fill="none" xmlns="http://www.w3.org/2000/svg">
<path d="M19.2266 6.6824H20.8787C21.0978 6.6824 21.3079 6.59537 21.4628 6.44045C21.6177 6.28554 21.7048 6.07542 21.7048 5.85634C21.7048 5.63725 21.6177 5.42714 21.4628 5.27222C21.3079 5.11731 21.0978 5.03027 20.8787 5.03027H19.2266C19.0075 5.03027 18.7974 5.11731 18.6425 5.27222C18.4875 5.42714 18.4005 5.63725 18.4005 5.85634C18.4005 6.07542 18.4875 6.28554 18.6425 6.44045C18.7974 6.59537 19.0075 6.6824 19.2266 6.6824Z" fill="white"/>
<path d="M11.0708 2.92442C11.1172 3.03024 11.1856 3.12498 11.2714 3.20235C11.3572 3.27972 11.4585 3.33794 11.5685 3.37316C11.6786 3.40837 11.7949 3.41977 11.9096 3.40659C12.0244 3.39341 12.1351 3.35596 12.2343 3.29673C12.43 3.19925 12.5791 3.02819 12.6488 2.82101C12.7186 2.61383 12.7034 2.38743 12.6066 2.19143L11.7224 0.539302C11.6249 0.343617 11.4538 0.194549 11.2467 0.124762C11.0395 0.0549757 10.8131 0.0701613 10.6171 0.166992C10.5149 0.217447 10.4238 0.287962 10.3495 0.374335C10.2751 0.460708 10.2188 0.561172 10.1841 0.66974C10.1493 0.778307 10.1368 0.892758 10.1472 1.00627C10.1577 1.11978 10.1908 1.23004 10.2448 1.33046L11.0708 2.92442Z" fill="white"/>
<path d="M16.3878 3.29663C16.487 3.35586 16.5977 3.39331 16.7125 3.40649C16.8273 3.41967 16.9436 3.40827 17.0536 3.37306C17.1636 3.33784 17.2649 3.27962 17.3507 3.20225C17.4366 3.12488 17.5049 3.03014 17.5513 2.92432L18.3192 1.24892C18.3731 1.1485 18.4063 1.03824 18.4167 0.924729C18.4271 0.811215 18.4146 0.696765 18.3799 0.588197C18.3451 0.479629 18.2889 0.379165 18.2145 0.292792C18.1401 0.206419 18.0491 0.135904 17.9469 0.085449C17.7509 -0.0113816 17.5245 -0.0265673 17.3173 0.0432195C17.1101 0.113006 16.9391 0.262074 16.8416 0.45776L16.0155 2.10989C15.9541 2.21041 15.9149 2.32291 15.9006 2.43982C15.8862 2.55674 15.897 2.67538 15.9323 2.78777C15.9675 2.90017 16.0264 3.00372 16.105 3.09148C16.1836 3.17925 16.28 3.24919 16.3878 3.29663Z" fill="white"/>
<path d="M7.68507 6.6824H9.3372C9.55629 6.6824 9.7664 6.59537 9.92132 6.44045C10.0762 6.28554 10.1633 6.07542 10.1633 5.85634C10.1633 5.63725 10.0762 5.42714 9.92132 5.27222C9.7664 5.11731 9.55629 5.03027 9.3372 5.03027H7.68507C7.46599 5.03027 7.25587 5.11731 7.10096 5.27222C6.94604 5.42714 6.85901 5.63725 6.85901 5.85634C6.85901 6.07542 6.94604 6.28554 7.10096 6.44045C7.25587 6.59537 7.46599 6.6824 7.68507 6.6824Z" fill="white"/>
<path d="M4.38077 13.3375H1.08815C0.869063 13.3375 0.658951 13.4245 0.504033 13.5794C0.349116 13.7344 0.262085 13.9445 0.262085 14.1636L0.262085 27.3573C0.262085 27.5764 0.349116 27.7865 0.504033 27.9414C0.658951 28.0963 0.869063 28.1834 1.08815 28.1834H4.38077C4.59986 28.1834 4.80997 28.0963 4.96488 27.9414C5.1198 27.7865 5.20683 27.5764 5.20683 27.3573V14.1636C5.2084 14.0546 5.1881 13.9465 5.14715 13.8456C5.10619 13.7447 5.0454 13.653 4.96838 13.5759C4.89136 13.4989 4.79967 13.4381 4.69874 13.3972C4.5978 13.3562 4.48968 13.3359 4.38077 13.3375Z" fill="white"/>
<path d="M24.9859 15.5247C24.8876 14.9053 24.5683 14.3425 24.087 13.9403C23.6057 13.5382 22.9951 13.324 22.3681 13.3374H15.9224C16.4834 11.7736 16.7669 10.1238 16.7601 8.46244C16.7299 7.55704 16.3489 6.69885 15.6976 6.06922C15.0462 5.4396 14.1756 5.08788 13.2697 5.08838H12.5833C12.3744 5.10015 12.1777 5.19078 12.033 5.34195C11.8883 5.49312 11.8064 5.69357 11.8038 5.90281C11.8038 7.8109 11.0591 11.2548 9.66297 12.6509C8.84541 13.4201 7.89546 14.035 6.85901 14.4659V26.8453C9.02705 27.7031 11.3339 28.1566 13.6653 28.1833H19.0522C19.4675 28.2035 19.8814 28.1204 20.2567 27.9414C20.632 27.7624 20.957 27.493 21.2026 27.1575C21.4482 26.822 21.6067 26.4307 21.6639 26.0188C21.7211 25.607 21.6752 25.1873 21.5304 24.7976C22.054 24.6509 22.5155 24.3376 22.8451 23.9051C23.1747 23.4727 23.3544 22.9446 23.357 22.4008C23.3531 22.0904 23.294 21.7831 23.1825 21.4933C23.5884 21.3805 23.9587 21.1657 24.258 20.8692C24.5573 20.5728 24.7757 20.2046 24.8923 19.7998C25.009 19.395 25.02 18.9671 24.9244 18.5568C24.8287 18.1465 24.6296 17.7676 24.346 17.4561C24.5845 17.1986 24.765 16.893 24.8754 16.5598C24.9858 16.2266 25.0235 15.8737 24.9859 15.5247Z" fill="white"/>
</svg>
