<!-- Generated by IcoMoon.io -->
<svg version="1.1" xmlns="http://www.w3.org/2000/svg" width="32" height="32" viewBox="0 0 32 32">
<title>link</title>
<path d="M17.134 2.465c1.654-1.599 3.87-2.484 6.171-2.464s4.5 0.943 6.127 2.571c1.627 1.628 2.549 3.83 2.569 6.132s-0.864 4.52-2.462 6.176l-0.018 0.018-4.386 4.39c-0.889 0.89-1.959 1.579-3.138 2.019s-2.438 0.621-3.692 0.531c-1.255-0.090-2.475-0.449-3.579-1.053s-2.065-1.438-2.819-2.446c-0.484-0.647-0.352-1.564 0.295-2.048s1.563-0.352 2.046 0.295c0.502 0.672 1.143 1.228 1.879 1.631s1.55 0.642 2.386 0.702c0.836 0.060 1.676-0.061 2.462-0.354s1.499-0.753 2.092-1.346l4.377-4.381c1.060-1.103 1.646-2.578 1.633-4.109-0.013-1.535-0.628-3.003-1.713-4.088s-2.551-1.701-4.084-1.714c-1.53-0.013-3.004 0.574-4.107 1.636l-2.507 2.495c-0.573 0.57-1.498 0.567-2.068-0.006s-0.567-1.5 0.006-2.070l2.53-2.517z"></path>
<path d="M10.004 10.693c1.179-0.44 2.438-0.621 3.693-0.531s2.475 0.449 3.579 1.053c1.104 0.604 2.065 1.438 2.819 2.446 0.484 0.647 0.351 1.564-0.295 2.048s-1.563 0.352-2.047-0.295c-0.502-0.672-1.143-1.228-1.879-1.631s-1.55-0.642-2.386-0.702c-0.836-0.060-1.676 0.061-2.462 0.354s-1.499 0.752-2.092 1.346l-4.377 4.381c-1.060 1.103-1.646 2.578-1.633 4.109 0.013 1.535 0.628 3.003 1.713 4.088s2.551 1.701 4.084 1.714c1.529 0.013 3.003-0.574 4.105-1.635l2.491-2.493c0.571-0.571 1.497-0.571 2.068 0s0.571 1.498 0 2.070l-2.518 2.52c-1.654 1.599-3.87 2.484-6.17 2.464s-4.5-0.943-6.127-2.571-2.549-3.83-2.569-6.132c-0.020-2.302 0.864-4.52 2.462-6.176l0.018-0.018 4.386-4.39c-0 0 0-0 0 0 0.889-0.89 1.96-1.579 3.138-2.019z"></path>
</svg>
