<!-- Generated by IcoMoon.io -->
<svg version="1.1" xmlns="http://www.w3.org/2000/svg" width="32" height="32" viewBox="0 0 32 32">
<title>phone</title>
<path d="M25.397 21.639c0 0.516-0.238 1.528-0.436 2.004-0.595 1.309-3.095 2.262-4.464 2.262-1.329 0-2.54-0.536-3.77-0.992-4.345-1.587-9.067-6.309-10.655-10.655-0.456-1.23-0.992-2.44-0.992-3.77 0-1.369 0.952-3.869 2.262-4.464 0.476-0.198 1.488-0.436 2.004-0.436 0.099 0 0.218 0 0.317 0.040 0.357 0.119 1.825 3.016 2.143 3.571 0.218 0.377 0.655 0.833 0.655 1.29 0 0.873-2.599 2.163-2.599 2.937 0 0.397 0.357 0.893 0.556 1.25 1.468 2.619 3.274 4.425 5.893 5.893 0.357 0.198 0.853 0.556 1.25 0.556 0.774 0 2.063-2.599 2.936-2.599 0.456 0 0.913 0.437 1.29 0.655 0.556 0.317 3.452 1.786 3.571 2.143 0.040 0.099 0.040 0.218 0.040 0.317zM30.476 6.222c0-3.155-2.56-5.714-5.714-5.714h-19.048c-3.155 0-5.714 2.56-5.714 5.714v19.048c0 3.155 2.56 5.714 5.714 5.714h19.048c3.155 0 5.714-2.56 5.714-5.714v-19.048z"></path>
</svg>
