<svg width="44" height="44" viewBox="0 0 44 44" fill="none" xmlns="http://www.w3.org/2000/svg">
<path d="M44 28.4581C44 37.0452 37.0452 44 28.4581 44H15.5419C6.95484 44 0 37.0452 0 28.4581V15.5419C0 6.95484 6.95484 0 15.5419 0H28.4581C37.0452 0 44 6.95484 44 15.5419V28.4581Z" fill="#56CCF2"/>
<path d="M0 15.5419C0 6.95484 6.95484 0 15.5419 0H28.4581C37.0452 0 44 6.95484 44 15.5419V28.4581C44 37.0452 37.0452 44 28.4581 44" fill="#2D9CDB"/>
<path d="M28.458 0C37.0451 0 43.9999 6.95484 43.9999 15.5419V28.4581C43.9999 37.0452 37.0451 44 28.458 44" fill="#2F80ED"/>
<path fill-rule="evenodd" clip-rule="evenodd" d="M31 16.5517L25.4 11H13V34H31V16.5517ZM27 19.7241H20.6C20.3792 19.7241 20.2 19.5469 20.2 19.3276C20.2 19.1083 20.3792 18.931 20.6 18.931H27C27.2208 18.931 27.4 19.1083 27.4 19.3276C27.4 19.5469 27.2208 19.7241 27 19.7241ZM17.1168 20.0045C17.1944 20.0814 17.2972 20.1207 17.4 20.1207C17.488 20.1207 17.5764 20.0921 17.6492 20.0338L19.6492 18.4476C19.8216 18.3108 19.8496 18.0614 19.7116 17.8901C19.574 17.7192 19.3216 17.6914 19.1496 17.8282L17.4292 19.1928L16.8824 18.6507C16.726 18.4956 16.4732 18.4956 16.3168 18.6507C16.1604 18.8057 16.1604 19.0563 16.3168 19.2114L17.1168 20.0045ZM27 24.0862H20.6C20.3792 24.0862 20.2 23.9089 20.2 23.6897C20.2 23.4704 20.3792 23.2931 20.6 23.2931H27C27.2208 23.2931 27.4 23.4704 27.4 23.6897C27.4 23.9089 27.2208 24.0862 27 24.0862ZM17.1168 24.3666C17.1944 24.4435 17.2972 24.4828 17.4 24.4828C17.488 24.4828 17.5764 24.4542 17.6492 24.3959L19.6492 22.8097C19.8216 22.6729 19.8496 22.4235 19.7116 22.2522C19.574 22.0812 19.3216 22.0535 19.1496 22.1903L17.4292 23.5548L16.8824 23.0127C16.726 22.8577 16.4732 22.8577 16.3168 23.0127C16.1604 23.1678 16.1604 23.4184 16.3168 23.5735L17.1168 24.3666ZM27 28.4483H20.6C20.3792 28.4483 20.2 28.271 20.2 28.0517C20.2 27.8324 20.3792 27.6552 20.6 27.6552H27C27.2208 27.6552 27.4 27.8324 27.4 28.0517C27.4 28.271 27.2208 28.4483 27 28.4483ZM17.1168 28.7286C17.1944 28.8056 17.2972 28.8448 17.4 28.8448C17.488 28.8448 17.5764 28.8163 17.6492 28.758L19.6492 27.1718C19.8216 27.035 19.8496 26.7855 19.7116 26.6142C19.574 26.4433 19.3216 26.4156 19.1496 26.5524L17.4292 27.9169L16.8824 27.3748C16.726 27.2198 16.4732 27.2198 16.3168 27.3748C16.1604 27.5299 16.1604 27.7805 16.3168 27.9355L17.1168 28.7286Z" fill="#2F80ED"/>
<path fill-rule="evenodd" clip-rule="evenodd" d="M31 15.5517L25.4 10H13V33H31V15.5517ZM27 18.7241H20.6C20.3792 18.7241 20.2 18.5469 20.2 18.3276C20.2 18.1083 20.3792 17.931 20.6 17.931H27C27.2208 17.931 27.4 18.1083 27.4 18.3276C27.4 18.5469 27.2208 18.7241 27 18.7241ZM17.1168 19.0045C17.1944 19.0814 17.2972 19.1207 17.4 19.1207C17.488 19.1207 17.5764 19.0921 17.6492 19.0338L19.6492 17.4476C19.8216 17.3108 19.8496 17.0614 19.7116 16.8901C19.574 16.7192 19.3216 16.6914 19.1496 16.8282L17.4292 18.1928L16.8824 17.6507C16.726 17.4956 16.4732 17.4956 16.3168 17.6507C16.1604 17.8057 16.1604 18.0563 16.3168 18.2114L17.1168 19.0045ZM27 23.0862H20.6C20.3792 23.0862 20.2 22.9089 20.2 22.6897C20.2 22.4704 20.3792 22.2931 20.6 22.2931H27C27.2208 22.2931 27.4 22.4704 27.4 22.6897C27.4 22.9089 27.2208 23.0862 27 23.0862ZM17.1168 23.3666C17.1944 23.4435 17.2972 23.4828 17.4 23.4828C17.488 23.4828 17.5764 23.4542 17.6492 23.3959L19.6492 21.8097C19.8216 21.6729 19.8496 21.4235 19.7116 21.2522C19.574 21.0812 19.3216 21.0535 19.1496 21.1903L17.4292 22.5548L16.8824 22.0127C16.726 21.8577 16.4732 21.8577 16.3168 22.0127C16.1604 22.1678 16.1604 22.4184 16.3168 22.5735L17.1168 23.3666ZM27 27.4483H20.6C20.3792 27.4483 20.2 27.271 20.2 27.0517C20.2 26.8324 20.3792 26.6552 20.6 26.6552H27C27.2208 26.6552 27.4 26.8324 27.4 27.0517C27.4 27.271 27.2208 27.4483 27 27.4483ZM17.1168 27.7286C17.1944 27.8056 17.2972 27.8448 17.4 27.8448C17.488 27.8448 17.5764 27.8163 17.6492 27.758L19.6492 26.1718C19.8216 26.035 19.8496 25.7855 19.7116 25.6142C19.574 25.4433 19.3216 25.4156 19.1496 25.5524L17.4292 26.9169L16.8824 26.3748C16.726 26.2198 16.4732 26.2198 16.3168 26.3748C16.1604 26.5299 16.1604 26.7805 16.3168 26.9355L17.1168 27.7286Z" fill="white"/>
<path d="M25 10.1001V16.1001H31V15.6001L25.5 10.1001H25Z" fill="#FFD8EB"/>
<path d="M25.3999 10V15.6H30.9999L25.3999 10Z" fill="white"/>
</svg>
