<svg width="44" height="44" viewBox="0 0 44 44" fill="none" xmlns="http://www.w3.org/2000/svg">
<path d="M44 28.4581C44 37.0452 37.0452 44 28.4581 44H15.5419C6.95484 44 0 37.0452 0 28.4581V15.5419C0 6.95484 6.95484 0 15.5419 0H28.4581C37.0452 0 44 6.95484 44 15.5419V28.4581Z" fill="#4BC999"/>
<path d="M0 15.5419C0 6.95484 6.95484 0 15.5419 0H28.4581C37.0452 0 44 6.95484 44 15.5419V28.4581C44 37.0452 37.0452 44 28.4581 44" fill="#37A07F"/>
<path d="M28.458 0C37.0451 0 43.9999 6.95484 43.9999 15.5419V28.4581C43.9999 37.0452 37.0451 44 28.458 44" fill="#236852"/>
<path d="M14.8321 17.0324H29.1676C29.7353 17.0324 30.2321 16.5356 30.2321 15.9678C30.2321 15.4001 29.7353 14.9033 29.1676 14.9033H14.8321C14.2644 14.9033 13.7676 15.4001 13.7676 15.9678C13.8385 16.5356 14.2644 17.0324 14.8321 17.0324Z" fill="#236852"/>
<path d="M29.1676 22H14.8321C14.2644 22 13.7676 22.4968 13.7676 23.0645C13.7676 23.6323 14.2644 24.129 14.8321 24.129H29.1676C29.7353 24.129 30.2321 23.6323 30.2321 23.0645C30.2321 22.4968 29.7353 22 29.1676 22Z" fill="#236852"/>
<path d="M29.1676 29.8064H14.8321C14.2644 29.8064 13.7676 30.3032 13.7676 30.8709C13.7676 31.4387 14.2644 31.9354 14.8321 31.9354H29.1676C29.7353 31.9354 30.2321 31.4387 30.2321 30.8709C30.1611 30.3032 29.7353 29.8064 29.1676 29.8064Z" fill="#236852"/>
<path d="M14.8321 15.6129H29.1676C29.7353 15.6129 30.2321 15.1161 30.2321 14.5484C30.2321 13.9807 29.7353 13.4839 29.1676 13.4839H14.8321C14.2644 13.4839 13.7676 13.9807 13.7676 14.5484C13.8385 15.1161 14.2644 15.6129 14.8321 15.6129Z" fill="white"/>
<path d="M14.8321 22.7096H29.1676C29.7353 22.7096 30.2321 22.2128 30.2321 21.6451C30.2321 21.0773 29.7353 20.5806 29.1676 20.5806H14.8321C14.2644 20.5806 13.7676 21.0773 13.7676 21.6451C13.8385 22.2128 14.2644 22.7096 14.8321 22.7096Z" fill="white"/>
<path d="M29.1676 28.3872H14.8321C14.2644 28.3872 13.7676 28.884 13.7676 29.4517C13.7676 30.0195 14.2644 30.5162 14.8321 30.5162H29.1676C29.7353 30.5162 30.2321 30.0195 30.2321 29.4517C30.1611 28.884 29.7353 28.3872 29.1676 28.3872Z" fill="white"/>
</svg>
