<svg width="44" height="44" viewBox="0 0 44 44" fill="none" xmlns="http://www.w3.org/2000/svg">
<path d="M44 28.4581C44 37.0452 37.0452 44 28.4581 44H15.5419C6.95484 44 0 37.0452 0 28.4581V15.5419C0 6.95484 6.95484 0 15.5419 0H28.4581C37.0452 0 44 6.95484 44 15.5419V28.4581Z" fill="#999999"/>
<path d="M0 15.5419C0 6.95484 6.95484 0 15.5419 0H28.4581C37.0452 0 44 6.95484 44 15.5419V28.4581C44 37.0452 37.0452 44 28.4581 44" fill="#666666"/>
<path d="M28.458 0C37.0451 0 43.9999 6.95484 43.9999 15.5419V28.4581C43.9999 37.0452 37.0451 44 28.458 44" fill="#242424"/>
<path d="M18.0656 20.6102C16.4647 20.1656 14.8856 19.9495 13.2383 19.9495C12.1056 19.9495 10.9312 20.0568 9.74767 20.2687C9.55984 20.3023 9.41421 20.4517 9.38545 20.6404C9.36368 20.7834 8.87151 24.1637 10.568 26.1383C11.3457 27.0434 12.4449 27.5023 13.8347 27.5023C13.8349 27.5023 13.8411 27.5023 13.8413 27.5023C17.3183 27.5023 18.6024 24.5953 19.0872 23.4928C19.1544 23.3497 19.5969 22.3459 19.2084 21.5045C19.0666 21.1978 18.7527 20.7934 18.0656 20.6102ZM11.1124 21.4842C11.085 21.894 11.0768 22.2797 11.0882 22.6306C11.0962 22.8768 10.9032 23.0828 10.6571 23.0907C10.6522 23.0909 10.6472 23.0909 10.6423 23.0909C10.4028 23.0909 10.2049 22.9008 10.197 22.6596C10.1847 22.2793 10.1933 21.8636 10.2229 21.4244C10.2394 21.1788 10.4517 20.9924 10.6976 21.0095C10.9431 21.0259 11.1289 21.2385 11.1124 21.4842Z" fill="#242424"/>
<path d="M37.9206 18.6905C33.5457 17.6862 29.2962 17.7742 24.1422 18.9756L24.0354 19.0005C23.435 19.1409 22.6455 19.3088 22.1334 19.3088C21.6127 19.3088 20.8318 19.1409 20.2313 19.0005L20.1246 18.9756C14.9705 17.7742 10.7211 17.6863 6.34618 18.6905C6.1186 18.7427 5.96999 18.9615 6.00514 19.1922L6.3178 21.2404C6.33808 21.3733 6.41721 21.4899 6.5332 21.5579C6.64911 21.6258 6.78962 21.6378 6.91533 21.5905C7.09291 21.5238 7.23342 21.5234 7.33306 21.5893C7.45112 21.6677 7.53256 21.8468 7.54043 22.0458C7.64134 24.5786 8.1347 26.2969 9.09297 27.4537C10.0983 28.6672 11.64 29.2585 13.8062 29.2609C13.8093 29.2609 13.8123 29.2609 13.8155 29.2609C18.1236 29.2608 19.8166 26.17 20.937 24.1241C21.0928 23.8399 21.2398 23.5714 21.3818 23.3319C21.3873 23.3226 21.3925 23.3131 21.3973 23.3033C21.6465 22.8034 21.9295 22.6256 22.1134 22.6256C22.115 22.6256 22.1168 22.6257 22.1184 22.6257C22.1211 22.6258 22.1307 22.6258 22.1334 22.6258C22.136 22.6258 22.1456 22.6258 22.1483 22.6257C22.15 22.6257 22.1517 22.6256 22.1534 22.6256C22.3373 22.6256 22.6202 22.8034 22.8694 23.3033C22.8742 23.3131 22.8794 23.3226 22.8849 23.3319C23.0269 23.5714 23.174 23.8399 23.3297 24.1241C24.4503 26.17 26.1425 29.2613 30.4513 29.2609C30.4542 29.2609 30.4578 29.2609 30.4607 29.2609C32.6267 29.2585 34.1684 28.6672 35.1738 27.4537C36.132 26.2969 36.6253 24.5786 36.7263 22.0458C36.7342 21.8468 36.8156 21.6677 36.9337 21.5893C37.0333 21.5233 37.1738 21.5237 37.3514 21.5905C37.4773 21.6378 37.6177 21.6258 37.7335 21.5579C37.8496 21.49 37.9287 21.3733 37.9489 21.2404L38.2616 19.1922C38.2969 18.9615 38.1482 18.7427 37.9206 18.6905ZM37.1372 20.6497C36.8844 20.6442 36.6454 20.7107 36.4408 20.8463C36.0812 21.0848 35.8549 21.5199 35.8354 22.0103C35.7426 24.3375 35.3142 25.8864 34.4872 26.8849C33.65 27.8955 32.3703 28.3671 30.4598 28.3693C30.4569 28.3693 30.4541 28.3693 30.4512 28.3693C28.7802 28.3693 27.4214 27.8586 26.2975 26.8082C25.3118 25.8869 24.6743 24.7229 24.1118 23.6958C23.9553 23.4099 23.8072 23.1396 23.6601 22.8908C23.1274 21.834 22.4163 21.7299 22.1352 21.7342C22.1349 21.7342 22.1348 21.7342 22.1346 21.7342C21.8537 21.7303 21.1406 21.832 20.6068 22.8908C20.4597 23.1396 20.3116 23.4099 20.1551 23.6958C19.5926 24.7228 18.9551 25.8868 17.9694 26.8082C16.8437 27.8604 15.4808 28.3712 13.8071 28.3693C11.8965 28.3671 10.6167 27.8954 9.77967 26.8849C8.95261 25.8864 8.52426 24.3375 8.43139 22.0103C8.41185 21.5199 8.18552 21.0848 7.82598 20.8463C7.62142 20.7106 7.38306 20.644 7.12962 20.6497L6.94951 19.4699C11.0447 18.5939 15.0665 18.7122 19.9222 19.8439L20.0284 19.8687C20.6715 20.019 21.6191 20.1963 22.1332 20.1963C22.6756 20.1963 23.5954 20.019 24.2385 19.8687L24.3447 19.8439C29.2004 18.7122 33.222 18.5939 37.3174 19.4699L37.1372 20.6497Z" fill="#242424"/>
<path d="M26.2054 20.609C25.5139 20.7934 25.2 21.1977 25.0582 21.5045C24.6698 22.3458 25.1123 23.3497 25.1795 23.4928C25.6641 24.5953 26.9484 27.5023 30.4254 27.5023H30.4315C31.8217 27.5023 32.921 27.0433 33.6986 26.1383C35.3951 24.1637 34.903 20.7834 34.8812 20.6404C34.8524 20.4517 34.7068 20.3023 34.519 20.2687C33.3353 20.0568 32.161 19.9495 31.0283 19.9495C29.381 19.9494 27.8019 20.1655 26.2054 20.609ZM30.4254 27.0563V27.0564V27.0563Z" fill="#242424"/>
<path d="M18.0656 19.6102C16.4647 19.1656 14.8856 18.9495 13.2383 18.9495C12.1056 18.9495 10.9312 19.0568 9.74767 19.2687C9.55984 19.3023 9.41421 19.4517 9.38545 19.6404C9.36368 19.7834 8.87151 23.1637 10.568 25.1383C11.3457 26.0434 12.4449 26.5023 13.8347 26.5023C13.8349 26.5023 13.8411 26.5023 13.8413 26.5023C17.3183 26.5023 18.6024 23.5953 19.0872 22.4928C19.1544 22.3497 19.5969 21.3459 19.2084 20.5045C19.0666 20.1978 18.7527 19.7934 18.0656 19.6102ZM11.1124 20.4842C11.085 20.894 11.0768 21.2797 11.0882 21.6306C11.0962 21.8768 10.9032 22.0828 10.6571 22.0907C10.6522 22.0909 10.6472 22.0909 10.6423 22.0909C10.4028 22.0909 10.2049 21.9008 10.197 21.6596C10.1847 21.2793 10.1933 20.8636 10.2229 20.4244C10.2394 20.1788 10.4517 19.9924 10.6976 20.0095C10.9431 20.0259 11.1289 20.2385 11.1124 20.4842Z" fill="white"/>
<path d="M37.9206 17.6905C33.5457 16.6862 29.2962 16.7742 24.1422 17.9756L24.0354 18.0005C23.435 18.1409 22.6455 18.3088 22.1334 18.3088C21.6127 18.3088 20.8318 18.1409 20.2313 18.0005L20.1246 17.9756C14.9705 16.7742 10.7211 16.6863 6.34618 17.6905C6.1186 17.7427 5.96999 17.9615 6.00514 18.1922L6.3178 20.2404C6.33808 20.3733 6.41721 20.4899 6.5332 20.5579C6.64911 20.6258 6.78962 20.6378 6.91533 20.5905C7.09291 20.5238 7.23342 20.5234 7.33306 20.5893C7.45112 20.6677 7.53256 20.8468 7.54043 21.0458C7.64134 23.5786 8.1347 25.2969 9.09297 26.4537C10.0983 27.6672 11.64 28.2585 13.8062 28.2609C13.8093 28.2609 13.8123 28.2609 13.8155 28.2609C18.1236 28.2608 19.8166 25.17 20.937 23.1241C21.0928 22.8399 21.2398 22.5714 21.3818 22.3319C21.3873 22.3226 21.3925 22.3131 21.3973 22.3033C21.6465 21.8034 21.9295 21.6256 22.1134 21.6256C22.115 21.6256 22.1168 21.6257 22.1184 21.6257C22.1211 21.6258 22.1307 21.6258 22.1334 21.6258C22.136 21.6258 22.1456 21.6258 22.1483 21.6257C22.15 21.6257 22.1517 21.6256 22.1534 21.6256C22.3373 21.6256 22.6202 21.8034 22.8694 22.3033C22.8742 22.3131 22.8794 22.3226 22.8849 22.3319C23.0269 22.5714 23.174 22.8399 23.3297 23.1241C24.4503 25.17 26.1425 28.2613 30.4513 28.2609C30.4542 28.2609 30.4578 28.2609 30.4607 28.2609C32.6267 28.2585 34.1684 27.6672 35.1738 26.4537C36.132 25.2969 36.6253 23.5786 36.7263 21.0458C36.7342 20.8468 36.8156 20.6677 36.9337 20.5893C37.0333 20.5233 37.1738 20.5237 37.3514 20.5905C37.4773 20.6378 37.6177 20.6258 37.7335 20.5579C37.8496 20.49 37.9287 20.3733 37.9489 20.2404L38.2616 18.1922C38.2969 17.9615 38.1482 17.7427 37.9206 17.6905ZM37.1372 19.6497C36.8844 19.6442 36.6454 19.7107 36.4408 19.8463C36.0812 20.0848 35.8549 20.5199 35.8354 21.0103C35.7426 23.3375 35.3142 24.8864 34.4872 25.8849C33.65 26.8955 32.3703 27.3671 30.4598 27.3693C30.4569 27.3693 30.4541 27.3693 30.4512 27.3693C28.7802 27.3693 27.4214 26.8586 26.2975 25.8082C25.3118 24.8869 24.6743 23.7229 24.1118 22.6958C23.9553 22.4099 23.8072 22.1396 23.6601 21.8908C23.1274 20.834 22.4163 20.7299 22.1352 20.7342C22.1349 20.7342 22.1348 20.7342 22.1346 20.7342C21.8537 20.7303 21.1406 20.832 20.6068 21.8908C20.4597 22.1396 20.3116 22.4099 20.1551 22.6958C19.5926 23.7228 18.9551 24.8868 17.9694 25.8082C16.8437 26.8604 15.4808 27.3712 13.8071 27.3693C11.8965 27.3671 10.6167 26.8954 9.77967 25.8849C8.95261 24.8864 8.52426 23.3375 8.43139 21.0103C8.41185 20.5199 8.18552 20.0848 7.82598 19.8463C7.62142 19.7106 7.38306 19.644 7.12962 19.6497L6.94951 18.4699C11.0447 17.5939 15.0665 17.7122 19.9222 18.8439L20.0284 18.8687C20.6715 19.019 21.6191 19.1963 22.1332 19.1963C22.6756 19.1963 23.5954 19.019 24.2385 18.8687L24.3447 18.8439C29.2004 17.7122 33.222 17.5939 37.3174 18.4699L37.1372 19.6497Z" fill="white"/>
<path d="M26.2054 19.609C25.5139 19.7934 25.2 20.1977 25.0582 20.5045C24.6698 21.3458 25.1123 22.3497 25.1795 22.4928C25.6641 23.5953 26.9484 26.5023 30.4254 26.5023H30.4315C31.8217 26.5023 32.921 26.0433 33.6986 25.1383C35.3951 23.1637 34.903 19.7834 34.8812 19.6404C34.8524 19.4517 34.7068 19.3023 34.519 19.2687C33.3353 19.0568 32.161 18.9495 31.0283 18.9495C29.381 18.9494 27.8019 19.1655 26.2054 19.609ZM30.4254 26.0563V26.0564V26.0563Z" fill="white"/>
</svg>
