<svg width="44" height="44" viewBox="0 0 44 44" fill="none" xmlns="http://www.w3.org/2000/svg">
<g clip-path="url(#clip0)">
<path d="M44 28.4581C44 37.0452 37.0452 44 28.4581 44H15.5419C6.95484 44 0 37.0452 0 28.4581V15.5419C0 6.95484 6.95484 0 15.5419 0H28.4581C37.0452 0 44 6.95484 44 15.5419V28.4581Z" fill="#FF3F61"/>
<path d="M0 15.5419C0 6.95484 6.95484 0 15.5419 0H28.4581C37.0452 0 44 6.95484 44 15.5419V28.4581C44 37.0452 37.0452 44 28.4581 44" fill="#F12449"/>
<path d="M28.458 0C37.0451 0 43.9999 6.95484 43.9999 15.5419V28.4581C43.9999 37.0452 37.0451 44 28.458 44" fill="#DE0028"/>
<path d="M31.4375 21.4872H25.0041L28.8907 13.8462H19.0202L14.5625 26.9917H20.7111L17.7465 36L31.4375 21.4872Z" fill="#DE0028"/>
<path d="M31.4375 19.641H25.0041L28.8907 12H19.0202L14.5625 25.1455H20.7111L17.7465 34.1538L31.4375 19.641Z" fill="white"/>
</g>
<defs>
<clipPath id="clip0">
<rect width="44" height="44" fill="white"/>
</clipPath>
</defs>
</svg>
