<svg width="44" height="44" viewBox="0 0 44 44" fill="none" xmlns="http://www.w3.org/2000/svg">
<path d="M44 28.4581C44 37.0452 37.0452 44 28.4581 44H15.5419C6.95484 44 0 37.0452 0 28.4581V15.5419C0 6.95484 6.95484 0 15.5419 0H28.4581C37.0452 0 44 6.95484 44 15.5419V28.4581Z" fill="#FF9100"/>
<path d="M0 15.5419C0 6.95484 6.95484 0 15.5419 0H28.4581C37.0452 0 44 6.95484 44 15.5419V28.4581C44 37.0452 37.0452 44 28.4581 44" fill="#FF7900"/>
<path d="M28.458 0C37.0451 0 43.9999 6.95484 43.9999 15.5419V28.4581C43.9999 37.0452 37.0451 44 28.458 44" fill="#FF6700"/>
<path fill-rule="evenodd" clip-rule="evenodd" d="M15.4194 15H33.2258C33.6534 15 34 15.3527 34 15.7879V28.3939C34 28.8291 33.6534 29.1818 33.2258 29.1818H15.4194V28.7879C15.4194 28.5702 15.2463 28.3939 15.0323 28.3939C14.8183 28.3939 14.6452 28.5701 14.6452 28.7879V29.1818H10.7742C10.3466 29.1818 10 28.8291 10 28.3939V24.926C10 24.7275 10.096 24.5387 10.2619 24.4343C11.0334 23.9486 11.5484 23.082 11.5484 22.0909C11.5484 21.0998 11.0334 20.2332 10.2619 19.7476C10.096 19.6431 10 19.4544 10 19.2558V15.7879C10 15.3527 10.3466 15 10.7742 15H14.6452V15.3939C14.6452 15.6117 14.8183 15.7879 15.0323 15.7879C15.2462 15.7879 15.4194 15.6117 15.4194 15.3939V15ZM15.0323 27.6061C15.2462 27.6061 15.4194 27.4299 15.4194 27.2121V26.4243C15.4194 26.2065 15.2463 26.0303 15.0323 26.0303C14.8183 26.0303 14.6452 26.2065 14.6452 26.4243V27.2121C14.6452 27.4299 14.8183 27.6061 15.0323 27.6061ZM15.0323 25.2424C15.2462 25.2424 15.4194 25.0662 15.4194 24.8485V24.0606C15.4194 23.8429 15.2463 23.6667 15.0323 23.6667C14.8183 23.6667 14.6452 23.8428 14.6452 24.0606V24.8485C14.6452 25.0662 14.8183 25.2424 15.0323 25.2424ZM15.0323 22.8788C15.2462 22.8788 15.4194 22.7026 15.4194 22.4848V21.697C15.4194 21.4793 15.2463 21.303 15.0323 21.303C14.8183 21.303 14.6452 21.4792 14.6452 21.697V22.4848C14.6452 22.7026 14.8183 22.8788 15.0323 22.8788ZM15.0323 20.5152C15.2462 20.5152 15.4194 20.339 15.4194 20.1212V19.3334C15.4194 19.1156 15.2463 18.9394 15.0323 18.9394C14.8183 18.9394 14.6452 19.1156 14.6452 19.3334V20.1212C14.6452 20.3389 14.8183 20.5152 15.0323 20.5152ZM15.0323 18.1515C15.2462 18.1515 15.4194 17.9753 15.4194 17.7576V16.9697C15.4194 16.752 15.2463 16.5757 15.0323 16.5757C14.8183 16.5757 14.6452 16.7519 14.6452 16.9697V17.7576C14.6452 17.9753 14.8183 18.1515 15.0323 18.1515ZM22.1574 25.8136L24.1818 24.4865L26.2062 25.8136C26.6524 26.1062 27.2122 25.6814 27.0837 25.1479L26.5006 22.7273L28.3349 21.1269C28.7391 20.7743 28.5253 20.087 27.9997 20.0498L25.6149 19.8809L24.7241 17.5647C24.5278 17.0542 23.8358 17.0542 23.6395 17.5647L22.7487 19.8809L20.3639 20.0498C19.8384 20.0869 19.6245 20.7742 20.0288 21.1269L21.863 22.7273L21.2799 25.1479C21.1514 25.6814 21.7113 26.1061 22.1574 25.8136Z" fill="#FF6700"/>
<path fill-rule="evenodd" clip-rule="evenodd" d="M15.4194 14H33.2258C33.6534 14 34 14.3527 34 14.7879V27.3939C34 27.8291 33.6534 28.1818 33.2258 28.1818H15.4194V27.7879C15.4194 27.5702 15.2463 27.3939 15.0323 27.3939C14.8183 27.3939 14.6452 27.5701 14.6452 27.7879V28.1818H10.7742C10.3466 28.1818 10 27.8291 10 27.3939V23.926C10 23.7275 10.096 23.5387 10.2619 23.4343C11.0334 22.9486 11.5484 22.082 11.5484 21.0909C11.5484 20.0998 11.0334 19.2332 10.2619 18.7476C10.096 18.6431 10 18.4544 10 18.2558V14.7879C10 14.3527 10.3466 14 10.7742 14H14.6452V14.3939C14.6452 14.6117 14.8183 14.7879 15.0323 14.7879C15.2462 14.7879 15.4194 14.6117 15.4194 14.3939V14ZM15.0323 26.6061C15.2462 26.6061 15.4194 26.4299 15.4194 26.2121V25.4243C15.4194 25.2065 15.2463 25.0303 15.0323 25.0303C14.8183 25.0303 14.6452 25.2065 14.6452 25.4243V26.2121C14.6452 26.4299 14.8183 26.6061 15.0323 26.6061ZM15.0323 24.2424C15.2462 24.2424 15.4194 24.0662 15.4194 23.8485V23.0606C15.4194 22.8429 15.2463 22.6667 15.0323 22.6667C14.8183 22.6667 14.6452 22.8428 14.6452 23.0606V23.8485C14.6452 24.0662 14.8183 24.2424 15.0323 24.2424ZM15.0323 21.8788C15.2462 21.8788 15.4194 21.7026 15.4194 21.4848V20.697C15.4194 20.4793 15.2463 20.303 15.0323 20.303C14.8183 20.303 14.6452 20.4792 14.6452 20.697V21.4848C14.6452 21.7026 14.8183 21.8788 15.0323 21.8788ZM15.0323 19.5152C15.2462 19.5152 15.4194 19.339 15.4194 19.1212V18.3334C15.4194 18.1156 15.2463 17.9394 15.0323 17.9394C14.8183 17.9394 14.6452 18.1156 14.6452 18.3334V19.1212C14.6452 19.3389 14.8183 19.5152 15.0323 19.5152ZM15.0323 17.1515C15.2462 17.1515 15.4194 16.9753 15.4194 16.7576V15.9697C15.4194 15.752 15.2463 15.5757 15.0323 15.5757C14.8183 15.5757 14.6452 15.7519 14.6452 15.9697V16.7576C14.6452 16.9753 14.8183 17.1515 15.0323 17.1515ZM22.1574 24.8136L24.1818 23.4865L26.2062 24.8136C26.6524 25.1062 27.2122 24.6814 27.0837 24.1479L26.5006 21.7273L28.3349 20.1269C28.7391 19.7743 28.5253 19.087 27.9997 19.0498L25.6149 18.8809L24.7241 16.5647C24.5278 16.0542 23.8358 16.0542 23.6395 16.5647L22.7487 18.8809L20.3639 19.0498C19.8384 19.0869 19.6245 19.7742 20.0288 20.1269L21.863 21.7273L21.2799 24.1479C21.1514 24.6814 21.7113 25.1061 22.1574 24.8136Z" fill="white"/>
</svg>
