<svg width="42" height="42" viewBox="0 0 42 42" fill="none" xmlns="http://www.w3.org/2000/svg">
<g clip-path="url(#clip0)">
<path d="M37.1364 12.9557L26.1655 11.9382L21.8075 1.81855C21.5023 1.10996 20.4977 1.10996 20.1926 1.81855L15.8346 11.9381L4.86362 12.9557C4.0954 13.0269 3.78499 13.9824 4.36454 14.4916L12.6422 21.7633L10.2197 32.5118C10.0501 33.2645 10.8629 33.8549 11.5262 33.4611L21 27.8357L30.4738 33.4611C31.1372 33.855 31.9499 33.2645 31.7803 32.5118L29.3578 21.7633L37.6355 14.4916C38.2151 13.9824 37.9046 13.0269 37.1364 12.9557Z" fill="#FFBB32"/>
<path d="M9.78449 1.47016C10.3438 2.24699 11.9224 5.58321 12.8249 7.52752C12.9668 7.83317 12.5833 8.10928 12.3385 7.87771C10.7809 6.40508 8.11777 3.84964 7.55848 3.07272C7.11592 2.45806 7.25546 1.601 7.8702 1.15844C8.48486 0.715877 9.34193 0.855494 9.78449 1.47016Z" fill="#FFF082"/>
<path d="M32.2155 1.47016C31.6562 2.24699 30.0776 5.58321 29.175 7.52752C29.0331 7.83317 29.4166 8.10928 29.6615 7.87771C31.219 6.40508 33.8821 3.84956 34.4415 3.07272C34.884 2.45806 34.7445 1.601 34.1297 1.15844C33.5151 0.715877 32.658 0.855494 32.2155 1.47016Z" fill="#FFF082"/>
<path d="M41.0535 24.2508C40.1434 23.9541 36.4852 23.4638 34.3587 23.1947C34.0244 23.1524 33.8779 23.6016 34.1728 23.7646C36.0491 24.801 39.2929 26.5617 40.203 26.8585C40.923 27.0934 41.6972 26.7001 41.932 25.9799C42.1669 25.2597 41.7735 24.4857 41.0535 24.2508Z" fill="#FFF082"/>
<path d="M0.946523 24.2508C1.85658 23.9541 5.51477 23.4638 7.64127 23.1947C7.97555 23.1524 8.12206 23.6016 7.82716 23.7646C5.95085 24.801 2.70708 26.5617 1.79703 26.8585C1.07695 27.0934 0.302823 26.7001 0.0679668 25.9799C-0.166889 25.2597 0.226451 24.4857 0.946523 24.2508Z" fill="#FFF082"/>
<path d="M19.6707 39.7286C19.6707 38.7713 20.3388 35.1414 20.7424 33.0363C20.8058 32.7054 21.2784 32.7054 21.3418 33.0363C21.7454 35.1414 22.4135 38.7713 22.4135 39.7286C22.4135 40.486 21.7995 41.1 21.0421 41.1C20.2847 41.1 19.6707 40.486 19.6707 39.7286Z" fill="#FFF082"/>
<path d="M23.3921 5.49848L21.8074 1.81855C21.5022 1.10996 20.4976 1.10996 20.1925 1.81855L15.8345 11.9381L4.86362 12.9557C4.0954 13.0269 3.78499 13.9824 4.36454 14.4916L12.6422 21.7633L10.2197 32.5118C10.0501 33.2645 10.8629 33.8549 11.5262 33.4611L12.7871 32.7124C14.8542 19.3314 20.6655 9.50883 23.3921 5.49848Z" fill="#FFAA00"/>
</g>
<defs>
<clipPath id="clip0">
<rect width="42" height="42" fill="white"/>
</clipPath>
</defs>
</svg>
