<svg width="34" height="34" viewBox="0 0 34 34" fill="none" xmlns="http://www.w3.org/2000/svg">
<path d="M28.1166 20.0547H5.81704L0 34H34L28.1166 20.0547Z" fill="#4BC999"/>
<path d="M34 34H17V20.0547H28.1166L34 34Z" fill="#37A07F"/>
<path d="M26.8014 22.0469H7.13219L2.98828 32.0078H30.9453L26.8014 22.0469Z" fill="#37A07F"/>
<path d="M30.9453 32.0078H17V22.0469H26.8014L30.9453 32.0078Z" fill="#236852"/>
<path d="M17 0C12.0595 0 8.03516 4.09047 8.03516 9.03125C8.03516 10.7246 8.51323 12.4444 9.40971 13.8789L17 25.9117L24.5903 13.8789C25.4868 12.4444 25.9648 10.7246 25.9648 9.03125C25.9648 4.09047 21.9405 0 17 0V0ZM17 14.0781C14.2509 14.0781 12.0195 11.7804 12.0195 9.03125C12.0195 6.28213 14.2509 3.98437 17 3.98437C19.7491 3.98437 21.9805 6.28213 21.9805 9.03125C21.9805 11.7804 19.7491 14.0781 17 14.0781Z" fill="#FF9F00"/>
<path d="M11.7793 20.9272L13.7559 21.1742L12.262 33.1276L10.2854 32.8806L11.7793 20.9272Z" fill="#4BC999"/>
<path d="M21.7325 33.1304L20.2002 21.1773L22.1771 20.9247L23.7091 32.8778L21.7325 33.1304Z" fill="#37A07F"/>
<path d="M4.48242 26.0312H29.4512V28.0234H4.48242V26.0312Z" fill="#4BC999"/>
<path d="M25.9648 9.03125C25.9648 10.7246 25.4868 12.4444 24.5903 13.8789L17 25.9117V14.0781C19.7491 14.0781 21.9805 11.7804 21.9805 9.03125C21.9805 6.28213 19.7491 3.98437 17 3.98437V0C21.9405 0 25.9648 4.09047 25.9648 9.03125Z" fill="#FF7816"/>
<path d="M17 26.0312H29.4512V28.0234H17V26.0312Z" fill="#37A07F"/>
</svg>
