<svg width="23" height="23" viewBox="0 0 23 23" fill="none" xmlns="http://www.w3.org/2000/svg">
<path d="M21.8515 12.1373V12.6078C21.8515 12.89 21.6633 13.0782 21.3811 13.0782H19.6875V13.7838H21.6163C22.1338 13.7838 22.5572 13.3604 22.5572 12.843V12.1373C22.5572 11.9491 22.416 11.761 22.1808 11.761C21.9926 11.7609 21.8515 11.9021 21.8515 12.1373Z" fill="white"/>
<path d="M9.29102 20.8874C9.19692 21.8283 8.39719 22.581 7.40927 22.581H7.36222C6.32725 22.581 5.48047 21.7342 5.48047 20.6992V19.6172C6.60949 20.2288 7.92676 20.6522 9.29102 20.8874Z" fill="white"/>
<path d="M3.22215 8.98543C4.39823 8.3268 5.66844 7.90341 6.84451 7.76231L4.25713 5.17493C3.4574 5.97466 3.08105 6.96258 3.08105 7.99755C3.12806 8.27975 3.17511 8.65609 3.22215 8.98543Z" fill="#236852"/>
<path d="M0.493973 11.4787C-0.164658 12.1374 -0.164658 14.6777 0.493973 15.3363C0.823266 15.6656 2.37573 15.3363 2.37573 15.3363V11.4787C2.32868 11.4787 0.823266 11.1495 0.493973 11.4787Z" fill="white"/>
<path d="M16.8652 19.6173V20.6993C16.8652 21.7343 16.0185 22.5811 14.9835 22.5811H14.9364C13.9485 22.5811 13.1488 21.8284 13.0547 20.8875C14.466 20.6523 15.7362 20.2289 16.8652 19.6173Z" fill="white"/>
<path d="M11.1731 21.0286C16.6293 21.0286 21.0523 17.6166 21.0523 13.4076C21.0523 9.19856 16.6293 5.7865 11.1731 5.7865C5.71701 5.7865 1.29395 9.19856 1.29395 13.4076C1.29395 17.6166 5.71701 21.0286 11.1731 21.0286Z" fill="white"/>
<path d="M4.30477 11.8551C4.61655 11.8551 4.8693 11.6024 4.8693 11.2906C4.8693 10.9788 4.61655 10.7261 4.30477 10.7261C3.99299 10.7261 3.74023 10.9788 3.74023 11.2906C3.74023 11.6024 3.99299 11.8551 4.30477 11.8551Z" fill="#236852"/>
<path d="M14.2774 7.71509H8.11462C7.92643 7.71509 7.73828 7.85623 7.73828 8.09143C7.73828 8.27962 7.87943 8.46777 8.11462 8.46777H14.2774C14.4656 8.46777 14.6067 8.32663 14.6067 8.09143C14.6067 7.90328 14.4655 7.71509 14.2774 7.71509Z" fill="#236852"/>
<path d="M11.1727 8.0915C13.4071 8.0915 15.2185 6.28015 15.2185 4.04575C15.2185 1.81134 13.4071 0 11.1727 0C8.9383 0 7.12695 1.81134 7.12695 4.04575C7.12695 6.28015 8.9383 8.0915 11.1727 8.0915Z" fill="#FFD15C"/>
<path d="M11.1731 7.10356C12.8618 7.10356 14.2309 5.73453 14.2309 4.04574C14.2309 2.35695 12.8618 0.987915 11.1731 0.987915C9.48427 0.987915 8.11523 2.35695 8.11523 4.04574C8.11523 5.73453 9.48427 7.10356 11.1731 7.10356Z" fill="#F8B64C"/>
<path d="M12.4264 2.49487V4.71017C12.4264 5.07823 12.3129 5.36929 12.0859 5.58335C11.8605 5.79741 11.5518 5.90444 11.16 5.90444C10.7741 5.90444 10.4678 5.80049 10.2408 5.59259C10.0138 5.38469 9.89809 5.09902 9.89355 4.73558V2.49487H10.5744V4.71479C10.5744 4.93501 10.6259 5.09594 10.7287 5.19758C10.8331 5.29768 10.9769 5.34773 11.16 5.34773C11.5428 5.34773 11.7372 5.14291 11.7432 4.73327V2.49487H12.4264Z" fill="#FFD15C"/>
</svg>
