<svg width="34" height="32" viewBox="0 0 34 32" fill="none" xmlns="http://www.w3.org/2000/svg">
<path d="M32.4947 9.61728C32.7739 9.61728 33 9.39109 33 9.11203V7.14584C33 5.85715 31.9516 4.80872 30.6628 4.80872H3.33719C2.04844 4.80872 1 5.85715 1 7.14584V24.8537C1 26.1424 2.04844 27.1908 3.33719 27.1908H30.6628C31.9515 27.1908 32.9999 26.1423 32.9999 24.8537V10.7514C32.9999 10.4723 32.7738 10.2462 32.4947 10.2462C32.2156 10.2462 31.9894 10.4724 31.9894 10.7514V22.3623H2.0105V9.61728H32.4947ZM2.0105 7.14584C2.0105 6.41434 2.60563 5.81922 3.33719 5.81922H30.6628C31.3943 5.81922 31.9894 6.41434 31.9894 7.14584V8.60678H2.0105V7.14584ZM31.9895 23.3728V24.8536C31.9895 25.5852 31.3944 26.1803 30.6628 26.1803H3.33719C2.60563 26.1803 2.0105 25.5852 2.0105 24.8536V23.3728H31.9895Z" fill="#236852" stroke="#236852" stroke-width="0.4"/>
<path d="M9.60596 17.5983L11.9614 12.6017H13.1919L9.95752 19.0001H8.90723L7.68115 12.6017H8.83252L9.60596 17.5983ZM14.0093 19.0001H12.9282L14.04 12.6017H15.1211L14.0093 19.0001ZM18.918 17.3214C18.9824 16.8995 18.7524 16.5861 18.228 16.381L17.8721 16.2491C17.21 16.0177 16.7397 15.7438 16.4614 15.4274C16.1831 15.111 16.0571 14.7433 16.0835 14.3243C16.1069 13.9611 16.23 13.6417 16.4526 13.3663C16.6782 13.088 16.9741 12.8741 17.3403 12.7247C17.7065 12.5753 18.0962 12.505 18.5093 12.5138C18.9077 12.5226 19.2622 12.6105 19.5728 12.7775C19.8833 12.9415 20.1206 13.1715 20.2847 13.4674C20.4487 13.7604 20.5249 14.0958 20.5132 14.4738L19.4321 14.4694C19.4526 14.1354 19.3779 13.8761 19.208 13.6915C19.041 13.507 18.7876 13.4103 18.4478 13.4015C18.105 13.3956 17.8149 13.4762 17.5776 13.6432C17.3433 13.8102 17.2056 14.0358 17.1646 14.3199C17.106 14.692 17.355 14.985 17.9116 15.1989L18.2412 15.3175C18.9121 15.5577 19.3809 15.8405 19.6475 16.1656C19.9141 16.4879 20.0312 16.8702 19.999 17.3126C19.9697 17.673 19.8511 17.9879 19.6431 18.2574C19.4351 18.524 19.1465 18.7306 18.7773 18.8771C18.4111 19.0236 18.0068 19.0939 17.5645 19.088C17.1455 19.0851 16.7646 18.9972 16.4219 18.8243C16.082 18.6515 15.8213 18.4127 15.6396 18.108C15.458 17.8004 15.3745 17.4518 15.3892 17.0621L16.4746 17.0665C16.4512 17.4298 16.5405 17.7096 16.7427 17.9059C16.9448 18.1022 17.2349 18.2032 17.6128 18.2091C17.9644 18.215 18.2573 18.1403 18.4917 17.985C18.729 17.8297 18.8711 17.6085 18.918 17.3214ZM24.4507 17.5104H22.0557L21.291 19.0001H20.1221L23.5762 12.6017H24.5518L25.791 19.0001H24.7012L24.4507 17.5104ZM22.5127 16.6139H24.3057L23.8706 13.9684L22.5127 16.6139Z" fill="#FFAA00"/>
</svg>
