<?xml version="1.0" encoding="utf-8"?><svg xmlns="http://www.w3.org/2000/svg" xmlns:xlink="http://www.w3.org/1999/xlink"><symbol viewBox="0 0 16 16" id="address" xmlns="http://www.w3.org/2000/svg"><path fill-rule="evenodd" clip-rule="evenodd" d="M8 1.333a5.333 5.333 0 00-5.333 5.334c0 2.065 1.344 4.07 2.818 5.624A19.622 19.622 0 008 14.515a19.623 19.623 0 002.516-2.224c1.473-1.555 2.817-3.559 2.817-5.624A5.333 5.333 0 008 1.333zm0 14l-.37.555-.001-.002-.005-.002-.015-.01a7.106 7.106 0 01-.256-.181 20.935 20.935 0 01-2.836-2.484C2.99 11.597 1.334 9.268 1.334 6.667a6.667 6.667 0 1113.333 0c0 2.601-1.656 4.93-3.182 6.542a20.935 20.935 0 01-3.037 2.626l-.056.038-.015.01-.004.004H8.37L8 15.333zm0 0l.37.555a.667.667 0 01-.74 0l.37-.555z"/><path fill-rule="evenodd" clip-rule="evenodd" d="M8 5.333A1.333 1.333 0 108 8a1.333 1.333 0 000-2.667zM5.335 6.667a2.667 2.667 0 115.333 0 2.667 2.667 0 01-5.333 0z"/></symbol><symbol viewBox="0 0 34 34" id="atm-card" xmlns="http://www.w3.org/2000/svg"><path d="M32.895 9.494c0-2.2-1.784-3.985-3.984-3.985H5.004A3.985 3.985 0 001.02 9.494v14.423c0 2.2 1.784 3.985 3.984 3.985h23.907c2.2 0 3.984-1.784 3.984-3.985V9.494zm-27.89-2.39H28.91c1.318 0 2.39 1.108 2.39 2.426v.203H2.614V9.53c0-1.318 1.072-2.427 2.39-2.427zM31.3 11.326v2.789H2.614v-2.79H31.3zm-2.39 15.06H5.004c-1.318 0-2.39-1.108-2.39-2.426v-8.252H31.3v8.252c0 1.318-1.072 2.427-2.39 2.427z"/><path d="M12.232 22.51H9.753L9.235 24H8.079l2.417-6.398h.998L13.915 24h-1.16l-.523-1.49zm-2.167-.896h1.855l-.927-2.655-.928 2.655zm8.675-3.116h-1.995V24h-1.103v-5.502h-1.977v-.896h5.075v.896zm2.285-.896l1.846 4.904 1.841-4.904h1.437V24h-1.107v-2.11l.11-2.82-1.89 4.93h-.795l-1.886-4.926.11 2.817V24h-1.107v-6.398h1.441z"/></symbol><symbol viewBox="0 0 32 32" id="authentication" xmlns="http://www.w3.org/2000/svg"><path d="M24.997 14.95L25 6.5 12.5.25 0 6.5v8.279a15.476 15.476 0 006.903 12.9l5.597 3.73 4.312-2.872a8.493 8.493 0 108.185-13.587zM12.5 30.209l-5.042-3.361A14.48 14.48 0 011 14.779V7.118l11.5-5.75L24 7.118v7.717c-.166-.01-.331-.025-.5-.025s-.334.015-.5.025v-7.1l-10.5-5.25L2 7.735v7.044a13.483 13.483 0 006.012 11.236l4.488 2.99 3.271-2.179c.14.305.298.602.473.888L12.5 30.209zm2.897-4.335l-2.897 1.93-3.932-2.62c-.194-.13-.382-.266-.568-.405V20.31H7v3.63a12.469 12.469 0 01-1.5-1.665V19.37c0-.688.468-1.287 1.135-1.454l3.391-.85a2.498 2.498 0 001.975 2.195v2.05h1v-2.05a2.495 2.495 0 001.974-2.195l2.226.559a8.458 8.458 0 00-1.803 8.25zM10 10.809h1.382a5.264 5.264 0 002.232-.5h.136L15 11.975v2.084l-1.666 1.25h-1.667L10 14.059v-3.25zm-.959-1a1.956 1.956 0 011.071-1.445 5.048 5.048 0 013.511-.221l.115.166h.761a.5.5 0 01.5.5v1.5l-.75-1h-.868l-.105.052a4.269 4.269 0 01-1.895.448H9.04zM14 16.059v.75a1.5 1.5 0 01-3 0v-.75l.334.25h2.333l.334-.25zm1-.019v-.73l1-.75V8.81a1.5 1.5 0 00-1.5-1.5h-.332c-.723-.44-2.524-.529-3.8-.13a3.112 3.112 0 00-2.367 3.13v.5h1v3.75l1 .75v.728l-3.609.907a2.497 2.497 0 00-1.891 2.424v1.35a12.49 12.49 0 01-1.5-5.939V8.354l9.5-4.75 9.5 4.75v6.426c0 .057-.003.114-.004.171a8.468 8.468 0 00-3.956 1.853l-3.04-.764zm8.5 14.769a7.5 7.5 0 117.5-7.5 7.51 7.51 0 01-7.5 7.5z"/><path d="M26 8.809h6v1h-6v-1zm0 2h4v1h-4v-1zm0 2h2v1h-2v-1zm-4.341 10.147l-1.767-1.768-2.829 2.828 4.596 4.596 7.778-7.778-2.829-2.828-4.949 4.95zm0 4.242l-3.182-3.182 1.415-1.414 1.767 1.767 4.95-4.95 1.415 1.414-6.364 6.364z"/></symbol><symbol viewBox="0 0 12 12" id="back" xmlns="http://www.w3.org/2000/svg"><path fill-rule="evenodd" clip-rule="evenodd" d="M4.471.195c.26.26.26.683 0 .943L1.61 4l2.862 2.862a.667.667 0 01-.942.943L.195 4.47a.667.667 0 010-.942L3.53.195c.26-.26.682-.26.942 0z"/><path fill-rule="evenodd" clip-rule="evenodd" d="M0 4c0-.368.298-.667.667-.667h8A3.333 3.333 0 0112 6.667v4.666a.667.667 0 01-1.333 0V6.667a2 2 0 00-2-2h-8A.667.667 0 010 4z"/></symbol><symbol viewBox="0 0 32 32" id="bar" xmlns="http://www.w3.org/2000/svg"><path d="M2.667 16c0-.736.597-1.333 1.333-1.333h24a1.333 1.333 0 010 2.666H4A1.333 1.333 0 012.667 16zm0-8c0-.736.597-1.333 1.333-1.333h24a1.333 1.333 0 010 2.666H4A1.333 1.333 0 012.667 8zm0 16c0-.736.597-1.333 1.333-1.333h24a1.333 1.333 0 010 2.666H4A1.333 1.333 0 012.667 24z"/></symbol><symbol viewBox="0 0 17 20" id="book" xmlns="http://www.w3.org/2000/svg"><g clip-path="url(#afclip0)"><path fill-rule="evenodd" clip-rule="evenodd" d="M15.625 2.5H13.75V.625A.625.625 0 0013.125 0H1.875A1.877 1.877 0 000 1.875V17.5C0 18.879 1.121 20 2.5 20h13.125c.345 0 .625-.28.625-.625V3.125a.625.625 0 00-.625-.625zM1.875 1.25H12.5V2.5H1.875a.627.627 0 01-.625-.625c0-.344.281-.625.625-.625zm.625 17.5c-.69 0-1.25-.56-1.25-1.25V3.635c.196.07.405.115.625.115H15v15H2.5zM8.125 7.5A1.877 1.877 0 006.25 9.375c0 1.034.841 1.875 1.875 1.875A1.877 1.877 0 0010 9.375 1.877 1.877 0 008.125 7.5zm0 2.5a.627.627 0 01-.625-.625c0-.344.281-.625.625-.625s.625.281.625.625a.627.627 0 01-.625.625zM3.75 9.375A4.38 4.38 0 018.125 5 4.38 4.38 0 0112.5 9.375c0 2.246-3.51 6.223-3.91 6.668a.628.628 0 01-.93 0c-.4-.445-3.91-4.422-3.91-6.668zm1.25 0c0 1.194 1.76 3.678 3.125 5.296 1.365-1.618 3.125-4.105 3.125-5.296A3.128 3.128 0 008.125 6.25 3.128 3.128 0 005 9.375z"/></g><defs><clipPath id="afclip0"><path d="M0 0h16.25v20H0z"/></clipPath></defs></symbol><symbol viewBox="0 0 29 32" id="calendar" xmlns="http://www.w3.org/2000/svg"><path d="M22.16 17.701a.555.555 0 000-.765l-.782-.782a.555.555 0 00-.765 0l-7.551 7.551-3.742-3.742a.555.555 0 00-.765 0l-.782.782a.555.555 0 000 .765l4.898 4.898a.576.576 0 00.782 0l8.707-8.707zM2.177 29.605V12.19h23.946v17.415H2.177zm6.53-20.68a.537.537 0 01-.544.544H7.075a.537.537 0 01-.544-.544V4.027c0-.306.238-.544.544-.544h1.088c.306 0 .544.238.544.544v4.898zm13.062 0a.537.537 0 01-.544.544h-1.088a.537.537 0 01-.544-.544V4.027c0-.306.238-.544.544-.544h1.088c.306 0 .544.238.544.544v4.898zm6.53-1.088c0-1.19-.986-2.177-2.177-2.177h-2.177V4.027a2.73 2.73 0 00-2.721-2.721h-1.088a2.728 2.728 0 00-2.721 2.721V5.66h-6.531V4.027a2.728 2.728 0 00-2.721-2.721H7.075a2.728 2.728 0 00-2.721 2.721V5.66H2.177C.987 5.66 0 6.646 0 7.837v21.769c0 1.19.986 2.177 2.177 2.177h23.946c1.19 0 2.177-.986 2.177-2.177V7.837z"/></symbol><symbol viewBox="0 0 31 32" id="cart" xmlns="http://www.w3.org/2000/svg"><path d="M9.041 27.792a2.583 2.583 0 115.166 0 2.583 2.583 0 01-5.166 0zm14.209 0a2.583 2.583 0 115.166 0 2.583 2.583 0 01-5.166 0zM0 1.958C0 1.245.578.666 1.292.666h5.167c.616 0 1.146.434 1.267 1.038l1.085 5.42H29.71a1.292 1.292 0 011.268 1.533l-2.069 10.847a3.88 3.88 0 01-3.862 3.12H12.514a3.874 3.874 0 01-3.861-3.118L6.495 8.725a1.314 1.314 0 01-.022-.109L5.399 3.249H1.291A1.292 1.292 0 01-.001 1.957zm9.327 7.75l1.86 9.294a1.286 1.286 0 001.292 1.04h12.605a1.292 1.292 0 001.291-1.035l1.773-9.298H9.328z"/></symbol><symbol viewBox="0 0 32 32" id="check-box" xmlns="http://www.w3.org/2000/svg"><path d="M28.444 0H3.555A3.566 3.566 0 00-.001 3.556v24.889c0 1.956 1.6 3.556 3.556 3.556h24.889c1.956 0 3.556-1.6 3.556-3.556V3.556C32 1.6 30.4 0 28.444 0zm-16 24.889L3.555 16l2.489-2.489 6.4 6.4L25.955 6.4l2.489 2.489-16 16z"/></symbol><symbol viewBox="0 0 32 32" id="checked" xmlns="http://www.w3.org/2000/svg"><path d="M16 0C7.164 0 0 7.164 0 16s7.164 16 16 16c8.837 0 16-7.163 16-16S24.837 0 16 0zm-2.935 24.219L6.02 17.174l2.348-2.348 4.697 4.697L23.632 8.956l2.348 2.348-12.915 12.915z"/></symbol><symbol viewBox="0 0 13 13" id="close" xmlns="http://www.w3.org/2000/svg"><path fill-rule="evenodd" clip-rule="evenodd" d="M6.5 1.182a5.318 5.318 0 100 10.636 5.318 5.318 0 000-10.636zM0 6.5a6.5 6.5 0 1113 0 6.5 6.5 0 01-13 0z"/><path fill-rule="evenodd" clip-rule="evenodd" d="M8.69 4.31a.59.59 0 010 .835L5.146 8.691a.59.59 0 11-.836-.836l3.546-3.546a.59.59 0 01.836 0z"/><path fill-rule="evenodd" clip-rule="evenodd" d="M4.31 4.31a.59.59 0 01.835 0l3.546 3.545a.59.59 0 11-.836.836L4.309 5.145a.59.59 0 010-.836z"/></symbol><symbol viewBox="0 0 25 26" id="close2" xmlns="http://www.w3.org/2000/svg"><path d="M.413 2.145a1.225 1.225 0 01-.404-.88A1.252 1.252 0 01.36.36 1.198 1.198 0 011.245 0a1.178 1.178 0 01.862.412L12.27 10.82 22.452.412a1.194 1.194 0 01.852-.376 1.17 1.17 0 01.858.361 1.223 1.223 0 01.345.881 1.242 1.242 0 01-.377.867l-10.166 10.39 10.168 10.413a1.234 1.234 0 01-.006 1.71 1.18 1.18 0 01-.832.36 1.178 1.178 0 01-.84-.34L12.27 14.275 2.105 24.685a1.203 1.203 0 01-.863.42 1.177 1.177 0 01-.89-.358 1.228 1.228 0 01-.351-.91 1.25 1.25 0 01.411-.883l10.164-10.419L.413 2.145z"/></symbol><symbol viewBox="0 0 18 18" id="compass" xmlns="http://www.w3.org/2000/svg"><path fill-rule="evenodd" clip-rule="evenodd" d="M9 2.25a6.75 6.75 0 100 13.5 6.75 6.75 0 000-13.5zM.75 9a8.25 8.25 0 1116.5 0A8.25 8.25 0 01.75 9z"/><path fill-rule="evenodd" clip-rule="evenodd" d="M12.71 5.29a.75.75 0 01.182.768l-1.59 4.77a.75.75 0 01-.474.474l-4.77 1.59a.75.75 0 01-.95-.949l1.59-4.77a.75.75 0 01.475-.474l4.77-1.59a.75.75 0 01.768.181zM8.004 8.003l-.997 2.992 2.991-.998.998-2.99-2.992.996z"/></symbol><symbol viewBox="0 0 33 30" id="dam-bao" xmlns="http://www.w3.org/2000/svg"><path d="M31.306 5.611l-4.49-1.996-14.173 6.663v4.28l-2.472-1.1v-4.28l14.173-6.662-4.76-2.117c-.638-.283-1.68-.283-2.318 0L5.543 5.611c-.934.416-1.696 1.592-1.693 2.614l.018 7.723a7.59 7.59 0 012.329-.367c4.203 0 7.623 3.42 7.623 7.624a7.57 7.57 0 01-.658 3.083l4.14 1.77c.616.263 1.625.264 2.242 0L31.24 23.06c.95-.406 1.729-1.583 1.731-2.616L33 8.224c.002-1.021-.76-2.197-1.694-2.613zM26.78 14.48l1.589-3.351c.16-.338.562-.533.723-.35l1.63 1.858c.163.186-.044.608-.37.76l-.686.318-.014 4.828c0 .21-.187.462-.416.56l-1.027.444c-.225.097-.407.007-.407-.201l-.004-4.765-.664.309c-.313.145-.509-.083-.354-.41zm-5.856 2.738l1.443-3.185c.146-.322.518-.502.67-.324l1.539 1.802c.153.18-.034.581-.337.721l-.635.295.041 4.623c.002.202-.17.44-.381.531l-.953.412c-.208.09-.38 0-.382-.199l-.055-4.564-.617.286c-.29.134-.474-.086-.333-.398zm10.561 2.606c0 .106-.096.232-.212.281l-10.88 4.57c-.1.043-.184-.002-.186-.1l-.008-.531c-.002-.098.08-.213.181-.256l10.898-4.642c.117-.05.212-.005.211.102l-.004.576zM6.197 17.008a6.197 6.197 0 100 12.394 6.197 6.197 0 000-12.394zm4.05 4.924l-3.814 4.29a.951.951 0 01-1.308.11L2.74 24.426a.953.953 0 111.191-1.489l1.677 1.341 3.212-3.614a.953.953 0 111.425 1.267z"/></symbol><symbol viewBox="0 0 27 28" id="date" xmlns="http://www.w3.org/2000/svg"><path d="M19.84 6.072a1.86 1.86 0 001.87-1.86v-1.95a1.87 1.87 0 00-3.73 0v2a1.86 1.86 0 001.86 1.86v-.05z"/><path d="M26.47 3.632h-3.75v.94a2.84 2.84 0 11-5.68 0v-.94H9.46v.94a2.84 2.84 0 11-5.67 0v-.94L0 3.582v23.7h26.49l-.02-23.65zm-1.87 21.77H1.9v-15.15h22.7v15.15z"/><path d="M6.6 6.072a1.86 1.86 0 001.86-1.86v-1.95a1.87 1.87 0 00-3.73 0v2a1.87 1.87 0 001.87 1.81zm5.85 6.21H9.47v2.63h2.98v-2.63zm4.82 0h-2.98v2.63h2.98v-2.63zm4.48 0h-2.98v2.63h2.98v-2.63zm-9.3 4.38H9.47v2.63h2.98v-2.63zm4.82 0h-2.98v2.63h2.98v-2.63zm4.48 0h-2.98v2.63h2.98v-2.63zm-9.3 4.45H9.47v2.63h2.98v-2.63zm-4.74-4.45H4.73v2.63h2.98v-2.63zm0 4.45H4.73v2.63h2.98v-2.63zm9.56 0h-2.98v2.63h2.98v-2.63zm4.48 0h-2.98v2.63h2.98v-2.63z"/></symbol><symbol viewBox="0 0 32 32" id="delete" xmlns="http://www.w3.org/2000/svg"><path d="M16 2.909C8.77 2.909 2.909 8.77 2.909 16S8.77 29.091 16 29.091c7.23 0 13.091-5.861 13.091-13.091S23.23 2.909 16 2.909zM0 16C0 7.163 7.163 0 16 0s16 7.163 16 16-7.163 16-16 16S0 24.837 0 16z"/><path d="M21.392 10.608a1.455 1.455 0 010 2.057l-8.727 8.727a1.455 1.455 0 01-2.057-2.057l8.727-8.727a1.455 1.455 0 012.057 0z"/><path d="M10.608 10.608a1.455 1.455 0 012.057 0l8.727 8.727a1.455 1.455 0 01-2.057 2.057l-8.727-8.727a1.455 1.455 0 010-2.057z"/></symbol><symbol viewBox="0 0 32 32" id="edit" xmlns="http://www.w3.org/2000/svg"><path d="M4.364 5.818a1.455 1.455 0 00-1.455 1.455v20.364a1.455 1.455 0 001.455 1.455h20.364a1.455 1.455 0 001.455-1.455V19.87a1.455 1.455 0 012.91 0v7.767a4.36 4.36 0 01-4.363 4.364H4.366a4.36 4.36 0 01-4.364-4.364V7.273a4.36 4.36 0 014.364-4.364h7.767a1.455 1.455 0 010 2.91H4.366z"/><path d="M23.699.426a1.455 1.455 0 012.057 0l5.818 5.818a1.455 1.455 0 010 2.057L17.028 22.846a1.455 1.455 0 01-1.029.426h-5.818a1.455 1.455 0 01-1.455-1.454V16c0-.386.153-.756.426-1.029L23.698.426zM11.637 16.602v3.761h3.761L28.489 7.272l-3.761-3.761-13.091 13.091z"/></symbol><symbol viewBox="0 0 32 32" id="exclamation-mark" xmlns="http://www.w3.org/2000/svg"><path d="M16 0C7.164 0 0 7.164 0 16s7.164 16 16 16c8.837 0 16-7.162 16-16 0-8.836-7.163-16-16-16zm0 29C8.82 29 3 23.18 3 16S8.82 3 16 3s13 5.82 13 13-5.82 13-13 13zm.001-21.983c-1.146 0-2.013.598-2.013 1.564v8.86c0 .967.867 1.563 2.013 1.563 1.118 0 2.013-.621 2.013-1.563v-8.86c0-.943-.895-1.564-2.013-1.564zm0 13.983a2 2 0 00-1.997 1.998c0 1.1.896 1.996 1.997 1.996s1.996-.896 1.996-1.996A1.999 1.999 0 0016.001 21z"/></symbol><symbol viewBox="0 0 26 32" id="file" xmlns="http://www.w3.org/2000/svg"><path d="M1.278 1.278A4.364 4.364 0 014.364 0h10.182c.386 0 .756.153 1.028.426l10.182 10.182c.273.273.426.643.426 1.029v16a4.36 4.36 0 01-4.364 4.364H4.363a4.36 4.36 0 01-4.364-4.364V4.364c0-1.157.46-2.267 1.278-3.086zm3.086 1.631a1.455 1.455 0 00-1.455 1.455v23.273a1.455 1.455 0 001.455 1.455h17.455a1.455 1.455 0 001.455-1.455V12.239l-9.33-9.33H4.365z"/><path d="M14.545 0C15.348 0 16 .651 16 1.455v8.727h8.727a1.455 1.455 0 010 2.91H14.545a1.455 1.455 0 01-1.455-1.455V1.455C13.09.652 13.741 0 14.545 0z"/></symbol><symbol viewBox="0 0 32 32" id="giasoc" xmlns="http://www.w3.org/2000/svg"><path d="M30.4 8h-8.533V6.933h5.867a2.67 2.67 0 002.667-2.667V3.199h-1.067v1.067a1.602 1.602 0 01-1.6 1.6h-1.08a2.639 2.639 0 00.547-1.6V2.133a2.133 2.133 0 00-4.266 0v2.133a1.597 1.597 0 01-1.067 1.502v-.435a1.602 1.602 0 00-1.6-1.6h-1.067a1.602 1.602 0 00-1.6 1.6v.435a1.596 1.596 0 01-1.067-1.502V2.133a2.133 2.133 0 00-4.266 0v2.133c.002.579.194 1.141.547 1.6h-1.08a1.602 1.602 0 01-1.6-1.6V3.199H9.068v1.067a2.67 2.67 0 002.667 2.667h5.867V8H9.069a1.602 1.602 0 00-1.6 1.6v1.067a1.602 1.602 0 001.6 1.6v5.867h1.067v-5.867h6.933v5.867h1.067v-5.867h3.2v5.867h1.067v-5.867h6.933V25.6a.533.533 0 01-.533.533H23.47V27.2h5.333a1.602 1.602 0 001.6-1.6V12.267a1.602 1.602 0 001.6-1.6V9.6a1.602 1.602 0 00-1.6-1.6zM24 4.267V2.134a1.067 1.067 0 012.134 0v2.133a1.602 1.602 0 01-1.6 1.6h-1.068a2.655 2.655 0 00.535-1.6zm-9.066 1.6a1.602 1.602 0 01-1.6-1.6V2.134a1.067 1.067 0 012.134 0v2.133a2.649 2.649 0 00.535 1.6h-1.068zm3.733-.534c0-.295.239-.533.533-.533h1.067c.295 0 .533.239.533.533V8h-2.133V5.333zm-9.6 5.867a.533.533 0 01-.533-.533V9.6c0-.295.239-.533.533-.533H16V11.2H9.067zm8 0V9.067H22.4V11.2h-5.333zm13.867-.533a.533.533 0 01-.533.533h-6.933V9.067h6.933c.295 0 .533.239.533.533v1.067z"/><path d="M14.4 21.867h1.067v1.067H14.4v-1.067zm0 2.133h1.067v1.067H14.4V24zm0 2.133h1.067V27.2H14.4v-1.067zm0 2.134h1.067v1.067H14.4v-1.067z"/><path d="M20.8 19.2H1.6A1.602 1.602 0 000 20.8v1.647c.003.522.382.966.897 1.05a2.134 2.134 0 010 4.205A1.07 1.07 0 000 28.752v1.647a1.602 1.602 0 001.6 1.6h19.2a1.602 1.602 0 001.6-1.6v-9.6a1.602 1.602 0 00-1.6-1.6zm.533 11.2a.533.533 0 01-.533.533h-5.333V30.4H14.4v.533H1.6a.533.533 0 01-.533-.533l.011-1.646a3.198 3.198 0 00-.011-6.307V20.8c0-.295.239-.533.533-.533h12.8v.533h1.067v-.533H20.8c.295 0 .533.239.533.533v9.6z"/></symbol><symbol viewBox="0 0 30 32" id="gioihan" xmlns="http://www.w3.org/2000/svg"><path d="M14.284 32a14.215 14.215 0 009.826-3.895c2.581-2.446 4.099-5.706 4.294-9.205a2.718 2.718 0 001.152-2.221V2.703a2.712 2.712 0 00-1.682-2.5 2.72 2.72 0 00-1.039-.202h-6.67a2.678 2.678 0 00-2.491 1.668c-.134.328-.202.68-.199 1.034v1.905a14.854 14.854 0 00-3.18-.351C6.495 4.257.142 10.48.142 18.129s6.342 13.872 14.142 13.872zm9.14-4.617a13.175 13.175 0 01-6.575 3.377 12.946 12.946 0 003.571-4.015c.294-.514.557-1.045.787-1.59a12.898 12.898 0 012.482 1.97c-.087.087-.175.174-.265.259zm.942-.99a13.912 13.912 0 00-2.795-2.178c.538-1.553.86-3.173.956-4.813h4.31c.18-.001.36-.019.536-.055a12.636 12.636 0 01-3.007 7.045zm4.196-9.715a1.73 1.73 0 01-1.726 1.729h-6.67a1.695 1.695 0 01-1.208-.511 1.708 1.708 0 01-.488-1.218v-1.753h10.092v1.753zm0-2.749H18.47V3.553h10.092v10.376zM20.166.995h6.67c.915 0 1.666.711 1.722 1.563H18.444c.056-.853.807-1.563 1.722-1.563zm-2.691 4.632v.329c-.213-.158-.387-.311-.588-.457.197.038.374.081.588.128zm-2.7-.244c.995.502 1.848 1.141 2.701 1.905v5.374a14.21 14.21 0 01-2.701.365V5.383zm0 8.64a15.165 15.165 0 002.701-.34v2.994c-.011.322.037.643.142.948h-2.843v-3.602zm0 4.597h3.494a2.648 2.648 0 001.897.782h1.364a17.318 17.318 0 01-.845 4.33 14.395 14.395 0 00-5.91-1.499V18.62zm0 4.609a13.21 13.21 0 015.558 1.437 13.797 13.797 0 01-.777 1.582c-1.18 2.05-2.79 3.604-4.78 4.625v-7.644zm-9.934 3.855a12.81 12.81 0 012.493-1.954c.976 2.309 2.461 4.235 4.367 5.626a13.224 13.224 0 01-6.86-3.671zm8.939 3.788c-2.487-1.291-4.424-3.465-5.57-6.227a13.41 13.41 0 015.57-1.417v7.644zm0-8.639a14.59 14.59 0 00-5.919 1.474c-.523-1.551-.819-3.239-.865-5.087h6.784v3.613zm0-4.608H6.996c.046-1.848.342-3.531.865-5.081a14.612 14.612 0 005.919 1.479v3.602zm0-4.598a13.4 13.4 0 01-5.57-1.417c1.145-2.762 3.082-4.936 5.57-6.227v7.643zM11.702 5.5c-1.907 1.391-3.391 3.317-4.368 5.626a12.88 12.88 0 01-2.493-1.954 13.224 13.224 0 016.86-3.671zM4.168 9.902c.838.837 1.78 1.564 2.803 2.161-.59 1.693-.924 3.572-.971 5.562H1.14a12.693 12.693 0 013.028-7.723zM1.14 18.62H6c.047 1.99.381 3.873.971 5.566a13.836 13.836 0 00-2.803 2.161A12.704 12.704 0 011.14 18.62z"/><path d="M22.473 17.199h2.057a.496.496 0 00.352-.85.5.5 0 00-.352-.146h-2.057a.496.496 0 00-.352.85c.093.093.22.146.352.146zm-2.766-6.185l3.55 2.052a.487.487 0 00.494 0l3.561-2.052a.51.51 0 00.256-.43V6.481a.496.496 0 00-.256-.43l-3.558-2.052a.498.498 0 00-.5 0l-3.547 2.052a.484.484 0 00-.242.431v4.103a.49.49 0 00.242.431zm6.865-.718l-2.558 1.477V8.818l2.558-1.477v2.955zm-.513-3.816l-2.558 1.477-.816-.471 2.558-1.477.816.472zm-2.558-1.477l.747.431-2.558 1.477-.747-.431 2.558-1.477zM20.46 7.342l2.558 1.477v2.955l-2.558-1.477V7.342z"/></symbol><symbol viewBox="0 0 32 32" id="heart" xmlns="http://www.w3.org/2000/svg"><path d="M23.6 2c-3.363 0-6.258 2.736-7.599 5.594C14.659 4.736 11.764 2 8.4 2 3.763 2 0 5.764 0 10.401c0 9.433 9.516 11.906 16.001 21.232C22.131 22.365 32 19.533 32 10.401 32 5.764 28.237 2 23.6 2z"/></symbol><symbol viewBox="0 0 19 18" id="heart2" xmlns="http://www.w3.org/2000/svg"><path d="M14.052 0C11.945 0 10.204 1.958 9.5 2.881 8.796 1.958 7.055 0 4.948 0 2.22 0 0 2.508 0 5.591c0 1.682.668 3.25 1.836 4.322.017.03.038.057.062.081l7.323 7.307a.395.395 0 00.559 0l7.566-7.563.078-.076c.061-.058.123-.118.191-.193a.386.386 0 00.07-.095C18.534 8.335 19 6.995 19 5.591 19 2.508 16.78 0 14.052 0zm2.975 8.93a.365.365 0 00-.03.04c-.037.042-.078.08-.118.118l-7.38 7.374-6.95-6.938a.397.397 0 00-.093-.118C1.398 8.482.792 7.092.792 5.591c0-2.646 1.864-4.8 4.156-4.8 2.266 0 4.2 2.956 4.22 2.986.145.226.519.226.665 0 .02-.03 1.953-2.985 4.22-2.985 2.291 0 4.155 2.153 4.155 4.8 0 1.246-.42 2.432-1.181 3.337z"/></symbol><symbol viewBox="0 0 30 32" id="help" xmlns="http://www.w3.org/2000/svg"><path d="M15.158.411C6.787.411 0 7.351 0 15.906c0 8.559 6.787 15.495 15.158 15.495s15.158-6.935 15.158-15.495c0-8.554-6.787-15.495-15.158-15.495zm0 27.991c-6.756 0-12.224-5.588-12.224-12.496 0-6.903 5.469-12.496 12.224-12.496 6.753 0 12.224 5.59 12.224 12.496s-5.466 12.496-12.224 12.496zm6.555-15.945c0 4.189-4.426 4.254-4.426 5.802v.396c0 .414-.328.75-.733.75h-2.79a.742.742 0 01-.733-.75v-.541c0-2.233 1.656-3.126 2.908-3.843 1.073-.615 1.731-1.033 1.731-1.848 0-1.078-1.345-1.793-2.432-1.793-1.417 0-2.072.686-2.991 1.872a.724.724 0 01-1.019.133l-1.701-1.318a.763.763 0 01-.162-1.022c1.444-2.168 3.283-3.385 6.147-3.385 2.999 0 6.201 2.393 6.201 5.548zm-3.988 10.446c0 1.447-1.152 2.624-2.567 2.624s-2.567-1.177-2.567-2.624 1.152-2.624 2.567-2.624 2.567 1.177 2.567 2.624z"/></symbol><symbol viewBox="0 0 32 32" id="home" xmlns="http://www.w3.org/2000/svg"><path d="M32 18.451L16 6.031 0 18.451v-5.064L16 .967l16 12.42zM28 18v12h-8v-8h-8v8H4V18l12-9z"/></symbol><symbol viewBox="0 0 32 32" id="home2" xmlns="http://www.w3.org/2000/svg"><path d="M16 1L0 17l3 3 3-3v13h8v-6h4v6h8V17l3 3 3-3L16 1zm0 13a2 2 0 11-.001-3.999A2 2 0 0116 14z"/></symbol><symbol viewBox="0 0 30 30" id="hotline" xmlns="http://www.w3.org/2000/svg"><path d="M15 0C6.73 0 0 6.73 0 15s6.73 15 15 15c4.006 0 7.823-1.616 10.656-4.45.47-.47.418-1.26-.06-1.729l-2.367-2.333c.51-.699.577-1.55.156-2.357a6.408 6.408 0 00-2.535-2.624c-.428-.246-.831-.367-1.233-.367-.156 0-.314.02-.468.056-.51.124-1.002.364-1.501.731a.93.93 0 01-.572.176c-.271 0-.564-.094-.765-.243a18.284 18.284 0 01-3.782-3.782c-.213-.286-.383-.91-.068-1.338.369-.499.607-.989.731-1.5.134-.553.032-1.109-.31-1.7a6.407 6.407 0 00-2.624-2.536 2.344 2.344 0 00-1.088-.282c-.608 0-1.178.265-1.646.765-.431.459-.812.945-1.252 1.532-.402.539-.369 1.16-.34 1.709v.011c.05.696.31 1.519.795 2.515.82 1.688 1.986 3.29 3.562 4.899.324.33 1.615 1.622 1.947 1.946 1.609 1.577 3.211 2.742 4.898 3.563.997.484 1.82.744 2.515.794h.012c.143.008.296.015.445.015.356 0 .811-.043 1.222-.33l1.558 1.535A12.39 12.39 0 0115 27.49C8.114 27.49 2.51 21.887 2.51 15 2.51 8.113 8.115 2.51 15 2.51c6.887 0 12.49 5.603 12.49 12.49A1.255 1.255 0 1030 15c0-8.27-6.73-15-15-15z"/></symbol><symbol viewBox="0 0 27 32" id="language" xmlns="http://www.w3.org/2000/svg"><path d="M11.122 19.639c-.011.034-.085.034-.221 0-.125-.045-.3-.113-.527-.204l-.34-.153a10.307 10.307 0 01-1.48-.833 42.773 42.773 0 01-.697-.527c-.386-.306-.601-.471-.646-.493a28.905 28.905 0 01-2.279 3.078c-.918 1.077-1.514 1.701-1.786 1.871-.045.023-.159.045-.34.068-.17.023-.272.023-.306 0 .068-.045.533-.567 1.395-1.565.238-.272.72-.924 1.446-1.956.737-1.032 1.185-1.701 1.344-2.007.193-.34.482-.896.867-1.667.385-.782.59-1.224.612-1.326-.091-.011-.714.176-1.871.561-.091.023-.249.068-.476.136l-.578.153c-.17.045-.266.074-.289.085-.023.023-.034.085-.034.187 0 .091-.006.142-.017.153-.057.113-.232.198-.527.255a1.376 1.376 0 01-.799 0 .714.714 0 01-.476-.357c-.045-.068-.074-.198-.085-.391.068-.023.204-.051.408-.085a5.03 5.03 0 00.51-.102 31.835 31.835 0 001.786-.544c1.134-.397 1.712-.595 1.735-.595.113-.023.357-.13.731-.323.374-.204.624-.329.748-.374.102-.034.221-.079.357-.136.147-.057.232-.085.255-.085.023-.011.057-.011.102 0 .023.136.017.323-.017.561 0 .023-.074.176-.221.459l-.442.918a13.93 13.93 0 01-.289.561c-.283.567-.72 1.31-1.31 2.228l1.088.476c.136.068.556.249 1.258.544l1.156.476c.045.011.102.159.17.442.079.272.108.442.085.51zm-3.486-8.265a.691.691 0 01-.068.476c-.136.261-.42.476-.85.646-.34.136-.68.204-1.02.204-.295-.034-.573-.181-.833-.442-.159-.17-.261-.402-.306-.697l.017-.051c.034.034.142.062.323.085.193.023.346.023.459 0s.442-.113.986-.272c.408-.136.72-.215.935-.238.193 0 .312.096.357.289zm11.871 2.194l1.072 3.861-2.364-.714 1.293-3.146zM.663 27.174l11.803-3.946V5.677L.663 9.64v17.534zm21.106-5.392l1.735.527-3.078-11.173-1.701-.527-3.673 9.116 1.735.527.765-1.871 3.588 1.105.629 2.296zm-8.555-16.36l9.745 3.129V2.088l-9.745 3.333zm5.289 22.5l2.687.221-.918 2.721-.68-1.122a12.615 12.615 0 01-4.694 1.837c-.658.136-1.173.204-1.548.204h-1.429c-.896 0-2.029-.221-3.401-.663-1.361-.442-2.398-.924-3.112-1.446a.353.353 0 01-.051-.51.298.298 0 01.221-.085c.045 0 .147.04.306.119l.51.289.357.187c.828.419 1.729.765 2.704 1.037.986.283 1.882.425 2.687.425 1.077 0 2.024-.085 2.84-.255.816-.159 1.706-.442 2.67-.85.17-.079.34-.17.51-.272.181-.091.374-.198.578-.323.215-.113.38-.204.493-.272l-.731-1.241zm7.619-18.351v18.35l-13.163-4.184c-.159.068-2.285.794-6.378 2.177C2.488 27.286.402 27.972.323 27.972c-.147 0-.249-.074-.306-.221A.14.14 0 000 27.7V9.367a.77.77 0 01.068-.17c.057-.068.17-.13.34-.187a192.01 192.01 0 002.534-.85V1.629l9.49 3.367c.023 0 .93-.312 2.721-.935a750.577 750.577 0 015.374-1.837c1.791-.612 2.71-.918 2.755-.918.227 0 .34.119.34.357v7.109l2.5.799z"/></symbol><symbol viewBox="0 0 25 29" id="like" xmlns="http://www.w3.org/2000/svg"><path d="M19.227 6.682h1.652a.826.826 0 100-1.652h-1.652a.826.826 0 100 1.652zM11.07 2.924a.815.815 0 001.164.373.826.826 0 00.373-1.106L11.722.54A.826.826 0 0010.35.374a.849.849 0 00-.105.956l.826 1.594zm5.318.373a.815.815 0 001.163-.373l.768-1.675a.85.85 0 00-.372-1.164.826.826 0 00-1.105.373l-.826 1.652a.825.825 0 00.372 1.187zM7.685 6.682h1.652a.826.826 0 100-1.652H7.685a.826.826 0 000 1.652zM4.38 13.338H1.089a.826.826 0 00-.826.826v13.193a.826.826 0 00.826.826h3.293a.826.826 0 00.826-.826V14.164a.814.814 0 00-.826-.826zm20.606 2.187a2.595 2.595 0 00-2.618-2.188h-6.446c.561-1.563.845-3.213.838-4.875a3.49 3.49 0 00-3.49-3.374h-.687a.826.826 0 00-.78.815c0 1.908-.744 5.352-2.14 6.748a9.305 9.305 0 01-2.804 1.815v12.38a19.095 19.095 0 006.806 1.337h5.387a2.514 2.514 0 002.478-3.385 2.501 2.501 0 001.827-2.397 2.619 2.619 0 00-.174-.908 2.466 2.466 0 001.163-4.037 2.455 2.455 0 00.64-1.931z"/></symbol><symbol viewBox="0 0 32 32" id="link" xmlns="http://www.w3.org/2000/svg"><path d="M17.134 2.465a8.768 8.768 0 0112.298.107 8.782 8.782 0 01.107 12.308l-.018.018-4.386 4.39a8.77 8.77 0 01-6.83 2.55 8.787 8.787 0 01-6.398-3.499 1.463 1.463 0 012.341-1.753 5.855 5.855 0 004.265 2.333 5.851 5.851 0 004.554-1.7l4.377-4.381a5.858 5.858 0 00-.08-8.197 5.846 5.846 0 00-8.191-.078l-2.507 2.495a1.464 1.464 0 01-2.062-2.076l2.53-2.517z"/><path d="M10.004 10.693a8.767 8.767 0 0110.091 2.968 1.462 1.462 0 11-2.342 1.753 5.855 5.855 0 00-4.265-2.333 5.851 5.851 0 00-4.554 1.7l-4.377 4.381a5.858 5.858 0 00.08 8.197 5.846 5.846 0 008.189.079l2.491-2.493a1.462 1.462 0 112.068 2.07l-2.518 2.52a8.768 8.768 0 01-12.297-.107 8.782 8.782 0 01-.107-12.308l.018-.018 4.386-4.39a8.778 8.778 0 013.138-2.019z"/></symbol><symbol viewBox="0 0 32 32" id="mail" xmlns="http://www.w3.org/2000/svg"><path d="M29.188 4.75H2.813A2.817 2.817 0 000 7.563v16.875a2.817 2.817 0 002.813 2.812h26.375A2.815 2.815 0 0032 24.438V7.563a2.816 2.816 0 00-2.812-2.813zm-.394 1.875L17.989 17.373c-.531.531-1.238.824-1.989.824s-1.457-.292-1.99-.825L3.207 6.626h25.587zM1.875 24.056V7.945l8.102 8.06-8.102 8.051zm1.333 1.319l8.099-8.048 1.379 1.371c.885.885 2.063 1.373 3.315 1.373s2.429-.488 3.313-1.371l1.38-1.373 8.099 8.048H3.208zm26.917-1.319l-8.102-8.051 8.102-8.06v16.111z"/></symbol><symbol viewBox="0 0 16 16" id="map" xmlns="http://www.w3.org/2000/svg"><path fill-rule="evenodd" clip-rule="evenodd" d="M5.003.755A.667.667 0 015.63.737l5.015 2.507 4.357-2.49a.667.667 0 01.997.58V12c0 .24-.128.46-.336.58l-4.667 2.666a.667.667 0 01-.629.017l-5.014-2.507-4.357 2.49A.667.667 0 010 14.667V4c0-.239.128-.46.336-.579L5.003.756zm.351 1.335l-4.02 2.297v9.131l3.669-2.097a.667.667 0 01.628-.017l5.015 2.507 4.02-2.298v-9.13l-3.669 2.096a.667.667 0 01-.629.018L5.354 2.089z"/><path fill-rule="evenodd" clip-rule="evenodd" d="M5.333.667c.368 0 .666.298.666.667V12a.667.667 0 11-1.333 0V1.334c0-.369.298-.667.667-.667zm5.334 2.666c.368 0 .666.298.666.667v10.666a.667.667 0 11-1.333 0V4c0-.369.299-.667.667-.667z"/></symbol><symbol viewBox="0 0 12 11" id="next" xmlns="http://www.w3.org/2000/svg"><path fill-rule="evenodd" clip-rule="evenodd" d="M1 1.357l2.96 3.16L1 7.678l1.272 1.358 4.232-4.517L2.272 0 1 1.357zm4.496 0l2.96 3.16-2.96 3.16 1.271 1.358L11 4.518 6.768 0 5.495 1.357z"/></symbol><symbol viewBox="0 0 27 32" id="next1" xmlns="http://www.w3.org/2000/svg"><path d="M.482.48L24.855 16 .482 31.52V.48z"/></symbol><symbol viewBox="0 0 48 32" id="next2" xmlns="http://www.w3.org/2000/svg"><path d="M23.744 16L1.024 0v32l22.72-16zm1.28 16l22.72-16-22.72-16v32z"/></symbol><symbol viewBox="0 0 19 20" id="notifi" xmlns="http://www.w3.org/2000/svg"><path fill-rule="evenodd" clip-rule="evenodd" d="M8.542 2.533V.625a.625.625 0 011.25 0v1.908A5.842 5.842 0 0115 8.333v2.324c0 1.649.722 3.206 1.982 4.27a1.458 1.458 0 01-.94 2.573h-3.813A3.13 3.13 0 019.167 20a3.13 3.13 0 01-3.062-2.5H2.292a1.46 1.46 0 01-.949-2.567 5.585 5.585 0 001.99-4.276V8.333a5.842 5.842 0 015.209-5.8zm9.166 6.425a.625.625 0 01-.625-.625 8.901 8.901 0 00-2.623-6.335.625.625 0 11.884-.884 10.145 10.145 0 012.989 7.22c0 .344-.28.624-.625.624zm-17.083 0A.625.625 0 010 8.333a10.14 10.14 0 012.99-7.218.625.625 0 01.884.884A8.895 8.895 0 001.25 8.333c0 .345-.28.625-.625.625zm8.542 9.792c.815 0 1.51-.522 1.768-1.25H7.399c.258.728.953 1.25 1.768 1.25z"/></symbol><symbol viewBox="0 0 19 20" id="notifi2" xmlns="http://www.w3.org/2000/svg"><path fill-rule="evenodd" clip-rule="evenodd" d="M8.542 2.533V.625a.625.625 0 011.25 0v1.908A5.842 5.842 0 0115 8.333v2.324c0 1.649.722 3.206 1.982 4.27a1.458 1.458 0 01-.94 2.573h-3.813A3.13 3.13 0 019.167 20a3.13 3.13 0 01-3.062-2.5H2.292a1.46 1.46 0 01-.949-2.567 5.585 5.585 0 001.99-4.276V8.333a5.842 5.842 0 015.209-5.8zm9.166 6.425a.625.625 0 01-.625-.625 8.901 8.901 0 00-2.623-6.335.625.625 0 11.884-.884 10.145 10.145 0 012.989 7.22c0 .344-.28.624-.625.624zm-17.083 0A.625.625 0 010 8.333a10.14 10.14 0 012.99-7.218.625.625 0 01.884.884A8.895 8.895 0 001.25 8.333c0 .345-.28.625-.625.625zm8.542 9.792c.815 0 1.51-.522 1.768-1.25H7.399c.258.728.953 1.25 1.768 1.25zm6.875-2.5H2.292a.208.208 0 01-.133-.368 6.83 6.83 0 002.424-5.225V8.333A4.588 4.588 0 019.167 3.75a4.588 4.588 0 014.583 4.583v2.324a6.83 6.83 0 002.427 5.226.205.205 0 01.073.159.21.21 0 01-.208.208z"/></symbol><symbol viewBox="0 0 12 12" id="notifi3" xmlns="http://www.w3.org/2000/svg"><path d="M6 0a6 6 0 100 12A6 6 0 006 0zm1.249 9.299c-.31.122-.555.214-.74.278a1.95 1.95 0 01-.64.096c-.374 0-.665-.091-.872-.274a.883.883 0 01-.31-.694c0-.11.007-.22.022-.335a4.18 4.18 0 01.075-.385l.386-1.366c.034-.13.064-.255.087-.37.024-.118.035-.225.035-.322 0-.174-.036-.296-.108-.365-.073-.068-.21-.102-.413-.102-.1 0-.202.015-.307.046a4.361 4.361 0 00-.269.09l.102-.421c.253-.103.495-.192.726-.265.232-.074.45-.11.656-.11.371 0 .658.09.86.269.2.179.3.412.3.699 0 .06-.006.164-.02.313a2.17 2.17 0 01-.077.412l-.385 1.361a3.85 3.85 0 00-.084.374c-.025.14-.038.246-.038.318 0 .18.04.304.122.37.08.065.22.098.42.098a1.808 1.808 0 00.575-.136l-.103.42zM7.18 3.773a.918.918 0 01-.648.25.927.927 0 01-.65-.25.798.798 0 01-.27-.606c0-.236.09-.439.27-.607a.92.92 0 01.65-.252.91.91 0 01.648.252.804.804 0 01.269.607c0 .238-.09.44-.27.606z"/></symbol><symbol viewBox="0 0 32 32" id="padlock" xmlns="http://www.w3.org/2000/svg"><path d="M25 11.75h-2.252V6.611C22.748 2.966 19.72 0 15.998 0s-6.75 2.966-6.75 6.611v5.139H7a3.754 3.754 0 00-3.75 3.75v12.75A3.754 3.754 0 007 32h18a3.754 3.754 0 003.75-3.75V15.5A3.754 3.754 0 0025 11.75zM11.748 6.611c0-2.267 1.907-4.111 4.25-4.111s4.25 1.844 4.25 4.111v5.139h-8.5V6.611zM26.25 28.25c0 .689-.561 1.25-1.25 1.25H7c-.689 0-1.25-.561-1.25-1.25V15.5c0-.689.561-1.25 1.25-1.25h18c.689 0 1.25.561 1.25 1.25v12.75z"/><path d="M16 17.875a2.313 2.313 0 00-1.253 4.256v2.744a1.25 1.25 0 002.5 0v-2.741A2.31 2.31 0 0016 17.875z"/></symbol><symbol viewBox="0 0 32 32" id="phone" xmlns="http://www.w3.org/2000/svg"><path d="M25.397 21.639c0 .516-.238 1.528-.436 2.004-.595 1.309-3.095 2.262-4.464 2.262-1.329 0-2.54-.536-3.77-.992-4.345-1.587-9.067-6.309-10.655-10.655-.456-1.23-.992-2.44-.992-3.77 0-1.369.952-3.869 2.262-4.464.476-.198 1.488-.436 2.004-.436.099 0 .218 0 .317.04.357.119 1.825 3.016 2.143 3.571.218.377.655.833.655 1.29 0 .873-2.599 2.163-2.599 2.937 0 .397.357.893.556 1.25 1.468 2.619 3.274 4.425 5.893 5.893.357.198.853.556 1.25.556.774 0 2.063-2.599 2.936-2.599.456 0 .913.437 1.29.655.556.317 3.452 1.786 3.571 2.143.04.099.04.218.04.317zm5.079-15.417A5.716 5.716 0 0024.762.508H5.714A5.716 5.716 0 000 6.222V25.27a5.716 5.716 0 005.714 5.714h19.048a5.716 5.716 0 005.714-5.714V6.222z"/></symbol><symbol viewBox="0 0 27 32" id="prev1" xmlns="http://www.w3.org/2000/svg"><path d="M26.185.48L1.812 16l24.373 15.52V.48z"/></symbol><symbol viewBox="0 0 48 32" id="prev2" xmlns="http://www.w3.org/2000/svg"><path d="M24.256 16l22.72-16v32l-22.72-16zm-1.28 16L.256 16l22.72-16v32z"/></symbol><symbol viewBox="0 0 48 32" id="review" xmlns="http://www.w3.org/2000/svg"><path d="M44.571 16.571c-4.58 7.071-11.973 12-20.571 12s-15.991-4.929-20.571-12c2.545-3.938 6.027-7.313 10.205-9.455A11.91 11.91 0 0012 13.143c0 6.616 5.384 12 12 12s12-5.384 12-12c0-2.116-.562-4.205-1.634-6.027 4.178 2.143 7.661 5.518 10.205 9.455zM25.286 6.286c0 .696-.589 1.286-1.286 1.286-3.054 0-5.571 2.518-5.571 5.571 0 .696-.589 1.286-1.286 1.286s-1.286-.589-1.286-1.286C15.857 8.67 19.527 5 24 5c.696 0 1.286.589 1.286 1.286zM48 16.571c0-.67-.214-1.286-.536-1.848C42.535 6.634 33.509 1.143 24 1.143S5.464 6.634.536 14.723C.215 15.285 0 15.902 0 16.571s.214 1.286.536 1.848C5.465 26.508 14.491 31.999 24 31.999s18.536-5.464 23.464-13.58c.321-.563.536-1.179.536-1.848z"/></symbol><symbol viewBox="0 0 32 32" id="rss" xmlns="http://www.w3.org/2000/svg"><path d="M8.229 27.886c0-2.271-1.843-4.114-4.114-4.114S.001 25.615.001 27.886a4.115 4.115 0 008.228 0zM19.2 30.521a19.246 19.246 0 00-5.614-12.107A19.246 19.246 0 001.479 12.8h-.107c-.343 0-.686.129-.921.364-.3.257-.45.621-.45 1.007v2.893c0 .707.536 1.286 1.243 1.35a13.711 13.711 0 0112.343 12.343A1.354 1.354 0 0014.937 32h2.893c.386 0 .75-.15 1.007-.45.257-.279.386-.643.364-1.029zm10.972.043A30.173 30.173 0 0021.301 10.7 30.164 30.164 0 001.437 1.829h-.064a1.33 1.33 0 00-.943.386c-.279.257-.429.6-.429.986v3.064a1.36 1.36 0 001.286 1.35c12.45.729 22.371 10.65 23.079 23.1a1.365 1.365 0 001.371 1.286h3.064c.386 0 .729-.15.986-.429a1.31 1.31 0 00.386-1.007z"/></symbol><symbol viewBox="0 0 32 32" id="search" xmlns="http://www.w3.org/2000/svg"><path d="M19.006 19.224c1.64-1.64 2.46-3.609 2.46-5.907s-.82-4.261-2.46-5.888c-1.627-1.64-3.59-2.46-5.888-2.46s-4.267.82-5.907 2.46c-1.627 1.627-2.441 3.59-2.441 5.888s.814 4.267 2.441 5.907c1.64 1.627 3.609 2.441 5.907 2.441s4.261-.814 5.888-2.441zm12 9.596c0 .646-.236 1.205-.708 1.677s-1.031.708-1.677.708c-.671 0-1.23-.236-1.677-.708l-6.391-6.373c-2.224 1.54-4.702 2.311-7.435 2.311-1.776 0-3.478-.342-5.106-1.025-1.615-.696-3.012-1.627-4.193-2.795-1.168-1.18-2.099-2.578-2.795-4.193-.683-1.627-1.025-3.329-1.025-5.106s.342-3.472 1.025-5.087c.696-1.627 1.627-3.025 2.795-4.193 1.18-1.18 2.578-2.112 4.193-2.795C9.639.545 11.341.198 13.118.198s3.472.348 5.087 1.043c1.627.683 3.025 1.615 4.193 2.795 1.18 1.168 2.112 2.565 2.795 4.193a12.72 12.72 0 011.043 5.087c0 2.733-.77 5.211-2.311 7.435l6.391 6.391c.46.46.689 1.019.689 1.677z"/></symbol><symbol viewBox="0 0 34 28" id="send_bank" xmlns="http://www.w3.org/2000/svg"><path d="M9.633 24.367h-3.4V25.5h3.4v-1.133z"/><path d="M1.133 22.667V3.422c1.927-.01 8.664 0 13.6.007V5.1h1.134V1.7a1.7 1.7 0 00-1.7-1.7H1.7A1.7 1.7 0 000 1.7v23.8a1.7 1.7 0 001.7 1.7h12.467a1.7 1.7 0 001.7-1.7v-2.833H1.133zM1.7 1.133h12.467a.567.567 0 01.567.567v.596c-8.84-.018-12.249-.024-13.6.02V1.7a.567.567 0 01.566-.567zm12.467 24.934H1.7a.567.567 0 01-.567-.567v-1.7h13.6v1.7a.566.566 0 01-.566.567zM32.3 0H19.833a1.7 1.7 0 00-1.7 1.7v2.267h1.133v-.545c1.927-.01 8.664 0 13.6.007v19.238h-13.6V22.1h-1.133v3.4a1.7 1.7 0 001.7 1.7H32.3a1.7 1.7 0 001.7-1.7V1.7A1.7 1.7 0 0032.3 0zM19.266 2.315V1.7a.567.567 0 01.567-.567H32.3a.567.567 0 01.566.567v.596c-8.84-.018-12.248-.024-13.6.02zM32.3 26.067H19.833a.567.567 0 01-.567-.567v-1.7h13.6v1.7a.566.566 0 01-.566.567z"/><path d="M27.768 24.367h-3.4V25.5h3.4v-1.133zM18.7 14.733a1.7 1.7 0 00-1.7-1.7.566.566 0 11.567-.566H18.7a1.7 1.7 0 00-1.133-1.596v-.67h-1.133v.67A1.696 1.696 0 0017 14.167a.566.566 0 11-.566.566H15.3a1.7 1.7 0 001.134 1.596V17h1.133v-.67a1.7 1.7 0 001.133-1.596z"/><path d="M17.836 8.982l.928-.652-.596-.85a6.233 6.233 0 01.391 12.157l.283 1.098a7.367 7.367 0 00-.283-14.333l.623-.438-.652-.928-1.856 1.3a.567.567 0 00-.14.789l1.302 1.857zm-1.672 9.237l-.928.651.596.85a6.233 6.233 0 01-.39-12.157l-.284-1.098a7.367 7.367 0 00.283 14.333l-.623.438.652.928 1.857-1.3a.567.567 0 00.139-.788l-1.302-1.857zm-7.663-5.185H7.368v1.133H8.5v-1.133zm-2.267 0H5.1v1.133h1.133v-1.133zm20.4 0H25.5v1.133h1.134v-1.133zm2.266 0h-1.132v1.133H28.9v-1.133z"/></symbol><symbol viewBox="0 0 32 32" id="smartphone" xmlns="http://www.w3.org/2000/svg"><path d="M6.364 29.509V2.484A2.487 2.487 0 018.848 0h14.304a2.487 2.487 0 012.484 2.484v27.032A2.487 2.487 0 0123.152 32H8.848a2.498 2.498 0 01-2.484-2.491zm17.67-23.75H7.972v18.187h16.062V5.759zm-.882-4.157H8.848a.883.883 0 00-.883.883v1.674h16.069V2.485a.884.884 0 00-.882-.883zm.882 27.907v-3.968H7.972v3.968c0 .484.392.883.883.883h14.297a.882.882 0 00.882-.883z"/><path d="M14.379 27.234h3.249a.803.803 0 110 1.608h-3.249a.803.803 0 110-1.608z"/></symbol><symbol viewBox="0 0 53 32" id="sosanh" xmlns="http://www.w3.org/2000/svg"><path d="M34.286 31.143c0-.187-.08-.402-.187-.563l-4.286-5.143a.913.913 0 00-.67-.295H13.714V14.856h5.143c.938 0 1.714-.777 1.714-1.714 0-.402-.134-.804-.402-1.098L11.598 1.758c-.321-.375-.804-.589-1.313-.589s-.991.214-1.312.589L.402 12.044A1.634 1.634 0 000 13.142c0 .938.777 1.714 1.714 1.714h5.143v15.428c0 .67-.134 1.714.857 1.714h25.714a.882.882 0 00.857-.857zM51.429 20c0-.938-.777-1.714-1.714-1.714h-5.143V2.857c0-.67.134-1.714-.857-1.714H18.001a.882.882 0 00-.857.857c0 .188.08.402.188.536l4.286 5.143a.85.85 0 00.67.321h15.429v10.286h-5.143c-.938 0-1.714.777-1.714 1.714 0 .402.134.804.402 1.098l8.571 10.286c.321.375.803.616 1.313.616s.991-.241 1.313-.616l8.571-10.286c.268-.295.402-.696.402-1.098z"/></symbol><symbol viewBox="0 0 32 32" id="star-full" xmlns="http://www.w3.org/2000/svg"><path d="M32 12.408l-11.056-1.607L16 .783l-4.944 10.018L0 12.408l8 7.798-1.889 11.011L16 26.018l9.889 5.199L24 20.206l8-7.798z"/></symbol><symbol viewBox="0 0 32 32" id="star-half" xmlns="http://www.w3.org/2000/svg"><path d="M32 12.408l-11.056-1.607L16 .783l-4.944 10.018L0 12.408l8 7.798-1.889 11.011L16 26.018l9.889 5.199L24 20.206l8-7.798zM16 23.547l-.029.015L16 5.725l3.492 7.075 7.807 1.134-5.65 5.507 1.334 7.776L16 23.546z"/></symbol><symbol viewBox="0 0 32 32" id="superscript2" xmlns="http://www.w3.org/2000/svg"><path d="M6.063 26l1.8-6h8.274l1.8 6h3.551l-6-20H8.512l-6 20h3.551zm4.8-16h2.274l1.8 6H9.063l1.8-6zM22 26l5-8 5 8H22zm5-22h-2c-.551 0-1-.449-1-1s.449-1 1-1h4a1 1 0 000-2h-4c-1.654 0-3 1.346-3 3 0 .768.29 1.469.766 2 .55.613 1.347 1 2.234 1h2c.551 0 1 .449 1 1s-.449 1-1 1h-4a1 1 0 000 2h4c1.654 0 3-1.346 3-3 0-.768-.29-1.469-.766-2-.55-.613-1.347-1-2.234-1z"/></symbol><symbol viewBox="0 0 25 32" id="thutuc" xmlns="http://www.w3.org/2000/svg"><path d="M22.592 2.212h-4.28c-.233-.642-.885-1.106-1.651-1.106h-1.81C14.302.417 13.431 0 12.509 0s-1.792.417-2.342 1.106h-1.81c-.766 0-1.418.464-1.651 1.106h-4.28c-1.288 0-2.335.977-2.335 2.177v25.434c0 1.2 1.048 2.177 2.335 2.177h20.166c1.288 0 2.335-.977 2.335-2.177V4.389c0-1.2-1.048-2.177-2.335-2.177zM6.706 5.46c.233.642.885 1.106 1.651 1.106h8.304c.766 0 1.418-.464 1.651-1.106h3.131v23.292H3.575V5.46h3.131zm1.651-3.317h2.108a.565.565 0 00.481-.258c.332-.531.916-.848 1.563-.848s1.231.317 1.563.848c.1.16.283.258.481.258h2.108c.348 0 .63.264.63.587v2.212c0 .324-.283.587-.63.587H8.357c-.347 0-.629-.263-.63-.586V2.73c0-.324.283-.587.63-.587zm15.458 27.68c0 .629-.549 1.14-1.223 1.14H2.426c-.675 0-1.223-.512-1.223-1.14V4.389c0-.629.549-1.14 1.223-1.14h4.189v1.175H3.019c-.307 0-.556.232-.556.518V29.27c0 .286.249.518.556.518h18.98c.307 0 .556-.232.556-.518V4.942c0-.286-.249-.518-.556-.518h-3.596V3.249h4.189c.675 0 1.223.512 1.223 1.14v25.434z"/><path d="M12.509 4.354c.307 0 .556-.232.556-.518V2.73c0-.286-.249-.518-.556-.518s-.556.232-.556.518v1.106c0 .286.249.518.556.518zm.593 7.188h3.559c.307 0 .556-.232.556-.518s-.249-.518-.556-.518h-3.559c-.307 0-.556.232-.556.518s.249.518.556.518zm0 2.212h5.931c.307 0 .556-.232.556-.518s-.249-.518-.556-.518h-5.931c-.307 0-.556.232-.556.518s.249.518.556.518zm-5.731-.152c.109.101.251.152.393.152s.285-.051.393-.152l2.966-2.765c.217-.202.217-.531 0-.733s-.569-.202-.786 0l-2.572 2.398-1.386-1.292c-.217-.202-.569-.202-.786 0s-.217.531 0 .733l1.779 1.659zm5.731 3.469h3.559c.307 0 .556-.232.556-.518s-.249-.518-.556-.518h-3.559c-.307 0-.556.232-.556.518s.249.518.556.518zm0 2.212h5.931c.307 0 .556-.232.556-.518s-.249-.518-.556-.518h-5.931c-.307 0-.556.232-.556.518s.249.518.556.518zm-5.731-.152c.109.101.251.152.393.152s.285-.051.393-.152l2.966-2.765c.217-.203.217-.531 0-.733s-.569-.202-.786 0l-2.572 2.398-1.386-1.292c-.217-.202-.569-.202-.786 0s-.217.531 0 .733l1.779 1.659zm5.731 3.469h3.559c.307 0 .556-.232.556-.518s-.249-.518-.556-.518h-3.559c-.307 0-.556.232-.556.518s.249.518.556.518zm0 2.212h5.931c.307 0 .556-.232.556-.518s-.249-.518-.556-.518h-5.931c-.307 0-.556.232-.556.518s.249.518.556.518zm-5.731-.152c.109.101.251.152.393.152s.285-.051.393-.152l2.966-2.765c.217-.203.217-.531 0-.733s-.569-.202-.786 0L7.765 23.56l-1.386-1.292c-.217-.202-.569-.202-.786 0s-.217.531 0 .733l1.779 1.659z"/></symbol><symbol viewBox="0 0 33 31" id="tietkiem" xmlns="http://www.w3.org/2000/svg"><path d="M.549 12.675a1.495 1.495 0 00.188 1.55.259.259 0 00.366.034.26.26 0 00.033-.366.964.964 0 01-.11-1.008 1.174 1.174 0 01.996-.72c.262-.012.523.034.765.133a2.348 2.348 0 00-.477 1.994.83.83 0 00.82.62c.134-.012.265-.045.388-.1 1.107-.343 1.107-1.107 1.019-1.406a2.215 2.215 0 00-.875-1.252c.121-.074.252-.134.387-.177a2.358 2.358 0 012.138.62 8.662 8.662 0 00-1.484 4.797 9.25 9.25 0 003.135 6.723v6.447c2.824 0 5.117.078 5.117-2.149v-1.418c2.73.85 5.638.95 8.419.288v1.108c0 2.215 2.293 2.138 5.128 2.138v-5.538a10.368 10.368 0 003.645-4.72h.83a1.318 1.318 0 001.241-1.03l.753-3.721a.687.687 0 00-.82-.864l-1.827.255a9.824 9.824 0 00-2.77-4.32c-.066-1.928 1.507-2.725 1.507-6.303-1.728.365-5.062 1.86-6.325 3.5a15.574 15.574 0 00-4.231-.731 3.633 3.633 0 01-.831 1.584 4.84 4.84 0 013.235 1.174.521.521 0 11-.776.687 4.043 4.043 0 00-2.946-.886 3.987 3.987 0 00-2.947.886.576.576 0 01-.399.177.532.532 0 01-.343-.133.52.52 0 010-.73c.073-.08.15-.154.233-.222a3.534 3.534 0 01-1.84-1.43 12.307 12.307 0 00-5.394 4.021 3.035 3.035 0 00-2.614-.697 2.315 2.315 0 00-.709.387A2.393 2.393 0 002 11.623a1.705 1.705 0 00-1.451 1.03v.022zm25.1 2.481a.998.998 0 11.986-.986.986.986 0 01-.986.986zm-22.851-1.03a1.872 1.872 0 01.465-1.529c.368.228.64.583.764.997.067.377-.155.643-.664.809-.51.166-.51-.067-.565-.222v-.055z"/><path d="M12.38 6.217a2.592 2.592 0 112.591 2.592 2.581 2.581 0 01-2.592-2.592zm4.286-3.866a1.938 1.938 0 111.927 1.928 1.927 1.927 0 01-1.927-1.928zM9.91 3.448a1.351 1.351 0 111.362 1.395 1.362 1.362 0 01-1.363-1.395z"/></symbol><symbol viewBox="0 0 32 32" id="upfile" xmlns="http://www.w3.org/2000/svg"><path d="M1.6 19.2a1.6 1.6 0 011.6 1.6v6.4a1.6 1.6 0 001.6 1.6h22.4a1.6 1.6 0 001.6-1.6v-6.4a1.6 1.6 0 113.2 0v6.4a4.8 4.8 0 01-4.8 4.8H4.8A4.8 4.8 0 010 27.2v-6.4a1.6 1.6 0 011.6-1.6zm5.269-8.469a1.6 1.6 0 002.263 0l6.869-6.869 6.869 6.869a1.6 1.6 0 102.263-2.263l-8-8a1.6 1.6 0 00-2.263 0l-8 8a1.6 1.6 0 000 2.263z"/><path d="M16 22.4a1.6 1.6 0 001.6-1.6V1.6a1.6 1.6 0 10-3.2 0v19.2a1.6 1.6 0 001.6 1.6z"/></symbol><symbol viewBox="0 0 27 32" id="user" xmlns="http://www.w3.org/2000/svg"><path d="M18.69 18.857c2.183 0 4.048.794 5.595 2.381 1.587 1.548 2.381 3.413 2.381 5.595v1.548c0 .794-.278 1.468-.833 2.024s-1.23.833-2.024.833H2.857c-.794 0-1.468-.278-2.024-.833S0 29.175 0 28.381v-1.548c0-2.183.774-4.048 2.321-5.595 1.587-1.587 3.472-2.381 5.655-2.381.516 0 1.27.159 2.262.476 1.032.317 2.063.476 3.095.476s2.064-.159 3.095-.476c1.032-.317 1.786-.476 2.262-.476zm5.12 9.524v-1.548c0-1.389-.516-2.579-1.548-3.572-.992-1.032-2.183-1.548-3.572-1.548-.119 0-.754.159-1.905.476-1.111.317-2.262.476-3.452.476s-2.361-.159-3.512-.476c-1.111-.317-1.726-.476-1.845-.476-1.389 0-2.599.516-3.631 1.548-.992.992-1.488 2.183-1.488 3.572v1.548h20.952zm-4.405-12.976c-1.667 1.667-3.691 2.5-6.071 2.5s-4.405-.833-6.071-2.5c-1.667-1.667-2.5-3.691-2.5-6.071s.833-4.405 2.5-6.071c1.667-1.667 3.69-2.5 6.071-2.5s4.405.833 6.071 2.5c1.667 1.667 2.5 3.69 2.5 6.071s-.833 4.405-2.5 6.071zM17.381 5.286c-1.111-1.111-2.46-1.667-4.048-1.667s-2.937.556-4.048 1.667c-1.111 1.111-1.667 2.46-1.667 4.048s.556 2.937 1.667 4.048c1.111 1.111 2.46 1.667 4.048 1.667s2.937-.556 4.048-1.667c1.111-1.111 1.667-2.46 1.667-4.048s-.556-2.937-1.667-4.048z"/></symbol><symbol viewBox="0 0 15 15" id="vector" xmlns="http://www.w3.org/2000/svg"><path fill-rule="evenodd" clip-rule="evenodd" d="M14.79.21c.214.213.27.537.141.81L8.503 14.592a.714.714 0 01-1.339-.133L5.84 9.16.54 7.836a.714.714 0 01-.13-1.339L13.979.07a.714.714 0 01.812.14zM2.825 6.933l3.778.944a.714.714 0 01.52.52l.944 3.778 4.718-9.96-9.96 4.718z"/></symbol><symbol viewBox="0 0 34 32" id="visa" xmlns="http://www.w3.org/2000/svg"><path d="M32.495 9.617A.505.505 0 0033 9.112V7.146a2.34 2.34 0 00-2.337-2.337H3.337A2.34 2.34 0 001 7.146v17.708a2.34 2.34 0 002.337 2.337h27.326A2.34 2.34 0 0033 24.854V10.75a.505.505 0 10-1.01 0v11.611H2.01V9.617h30.485zM2.01 7.146c0-.732.595-1.327 1.326-1.327h27.326c.731 0 1.326.595 1.326 1.327v1.46H2.01v-1.46zm29.98 16.227v1.48c0 .732-.596 1.327-1.327 1.327H3.337a1.328 1.328 0 01-1.327-1.326v-1.481h29.98z" stroke="#236852" stroke-width=".4"/><path d="M9.606 17.598l2.355-4.996h1.23L9.959 19h-1.05L7.68 12.602h1.152l.773 4.996zM14.009 19h-1.08l1.111-6.398h1.081L14.01 19zm4.909-1.679c.064-.422-.166-.735-.69-.94l-.356-.132c-.662-.231-1.132-.505-1.41-.822a1.47 1.47 0 01-.378-1.103c.023-.363.146-.682.369-.958.225-.278.521-.492.887-.641.366-.15.756-.22 1.17-.211.398.009.752.097 1.063.264.31.163.548.393.712.69a1.9 1.9 0 01.228 1.006l-1.08-.005c.02-.334-.055-.593-.225-.777-.167-.185-.42-.282-.76-.29-.343-.006-.633.074-.87.241a.97.97 0 00-.413.677c-.059.372.19.665.747.879l.33.119c.67.24 1.139.523 1.405.848.267.322.384.704.352 1.147-.03.36-.148.675-.356.944-.208.267-.497.474-.866.62a3.11 3.11 0 01-1.213.211 2.54 2.54 0 01-1.142-.264c-.34-.173-.6-.411-.782-.716a1.874 1.874 0 01-.25-1.046l1.085.005c-.024.363.066.643.268.839.202.196.492.297.87.303.351.006.644-.069.879-.224a.94.94 0 00.426-.664zm5.533.19h-2.395L21.29 19h-1.169l3.454-6.4h.976L25.79 19H24.7l-.25-1.49zm-1.938-.897h1.793l-.435-2.646-1.358 2.646z"/></symbol></svg>