<svg width="26" height="34" viewBox="0 0 26 34" fill="none" xmlns="http://www.w3.org/2000/svg">
<g opacity="0.5">
<path d="M24.9023 4.05078H22.5716C19.2046 4.05078 16.0371 2.66948 13.6465 0.298828C13.4672 0.0996094 13.2081 0 12.9492 0C12.6903 0 12.4312 0.0996094 12.252 0.298828C9.86133 2.66948 6.6938 4.05078 3.3268 4.05078H0.996094C0.438126 4.05078 0 4.48891 0 5.04687V17C0 25.9449 6.51456 30.1152 10.8175 32.8247C11.3754 33.1831 11.9132 33.5019 12.3913 33.8405C12.5708 33.9401 12.75 34 12.9492 34C13.1484 34 13.3277 33.9401 13.5072 33.8405C13.9653 33.5219 14.4833 33.2031 15.041 32.8444C19.3639 30.1352 25.8984 25.9648 25.8984 17V5.04687C25.8984 4.48891 25.4603 4.05078 24.9023 4.05078Z" fill="#4BC999"/>
<path d="M25.8984 5.04687V17C25.8984 25.9648 19.3639 30.1352 15.041 32.8444C14.4833 33.2031 13.9653 33.5219 13.5072 33.8405C13.3277 33.9401 13.1484 34 12.9492 34V0C13.2081 0 13.4672 0.0996094 13.6465 0.298828C16.0371 2.66948 19.2046 4.05078 22.5716 4.05078H24.9023C25.4603 4.05078 25.8984 4.48891 25.8984 5.04687Z" fill="#37A07F"/>
<path d="M12.9492 8.03516C8.0087 8.03516 3.98438 12.0592 3.98438 17C3.98438 21.9405 8.0087 25.9649 12.9492 25.9649C17.8897 25.9649 21.9141 21.9405 21.9141 17C21.9141 12.0592 17.8897 8.03516 12.9492 8.03516Z" fill="#DEECF1"/>
<path d="M21.9141 17C21.9141 21.9405 17.8897 25.9649 12.9492 25.9649V8.03516C17.8897 8.03516 21.9141 12.0592 21.9141 17Z" fill="#C6E2E7"/>
<path d="M17.6309 15.7051L12.6504 20.6856C12.4711 20.8848 12.212 20.9844 11.9531 20.9844C11.6942 20.9844 11.4351 20.8848 11.2559 20.6856L8.26758 17.6973C7.86914 17.3188 7.86914 16.6812 8.26758 16.3027C8.64604 15.9043 9.28365 15.9043 9.66211 16.3027L11.9531 18.5738L12.9492 17.5777L16.2366 14.3105C16.6151 13.9121 17.2524 13.9121 17.6309 14.3105C18.0293 14.689 18.0293 15.3266 17.6309 15.7051Z" fill="#4BC999"/>
<path d="M17.6308 15.7051L12.9492 20.3867V17.5777L16.2363 14.3105C16.6147 13.9121 17.2523 13.9121 17.6308 14.3105C18.0292 14.689 18.0292 15.3266 17.6308 15.7051Z" fill="#37A07F"/>
</g>
</svg>
