<svg width="34" height="34" viewBox="0 0 34 34" fill="none" xmlns="http://www.w3.org/2000/svg">
<path d="M32.895 9.49377C32.895 7.2934 31.111 5.5094 28.9106 5.5094H5.00439C2.80402 5.5094 1.02002 7.2934 1.02002 9.49377V23.9172C1.02002 26.1176 2.80402 27.9016 5.00439 27.9016H28.9106C31.111 27.9016 32.895 26.1176 32.895 23.9172V9.49377ZM5.00439 7.10315H28.9106C30.2289 7.10315 31.3012 8.21155 31.3012 9.52988V9.73284H2.61377V9.52988C2.61377 8.21155 3.68606 7.10315 5.00439 7.10315ZM31.3012 11.3266V14.1156H2.61377V11.3266H31.3012ZM28.9106 26.3875H5.00439C3.68606 26.3875 2.61377 25.2791 2.61377 23.9608V15.7094H31.3012V23.9608C31.3012 25.2791 30.2289 26.3875 28.9106 26.3875Z" fill="#236852"/>
<path d="M12.2319 22.5103H9.75342L9.23486 24H8.0791L10.4961 17.6016H11.4937L13.915 24H12.7549L12.2319 22.5103ZM10.0654 21.6138H11.9199L10.9927 18.9595L10.0654 21.6138ZM18.7402 18.498H16.7451V24H15.6421V18.498H13.6646V17.6016H18.7402V18.498ZM21.0254 17.6016L22.8711 22.5059L24.7124 17.6016H26.1494V24H25.042V21.8906L25.1519 19.0693L23.2622 24H22.4668L20.5815 19.0737L20.6914 21.8906V24H19.584V17.6016H21.0254Z" fill="#FFAA00"/>
</svg>
