<svg width="34" height="34" viewBox="0 0 34 34" fill="none" xmlns="http://www.w3.org/2000/svg">
<path d="M30.3225 9.49103L21.3557 0.530011C20.6808 -0.144118 19.5873 -0.144118 18.9124 0.530011L4.45947 14.9829C21.0837 16.3659 16.2903 16.1354 26.11 16.1354C26.5019 15.9395 26.9283 15.0809 27.372 14.9829V14.2165C27.3862 13.9317 27.5187 13.6657 27.7376 13.483C27.9565 13.3002 28.2418 13.2172 28.5246 13.2541C28.8242 13.2541 29.0951 12.7873 29.2968 12.9659L30.3225 11.9402C30.9967 11.263 30.9967 10.1682 30.3225 9.49103Z" fill="#F3D55B"/>
<path d="M30.3223 11.9401L29.2965 12.9658C28.9638 12.6699 28.4908 12.5911 28.0801 12.7633C27.6695 12.9354 27.394 13.3279 27.3718 13.7726V14.539C26.9345 14.6347 26.5106 14.7837 26.1097 14.9828H23.2053L29.5097 8.67838L30.3223 9.49092C30.9964 10.1681 30.9964 11.2629 30.3223 11.9401Z" fill="#F0C419"/>
<path d="M29.5097 8.67871L23.2053 14.9831H18.3127L27.0605 6.23532L29.5097 8.67871Z" fill="#464F5D"/>
<path d="M17.6917 9.18419C18.6465 9.18419 19.4205 8.41017 19.4205 7.45538C19.4205 6.50058 18.6465 5.72656 17.6917 5.72656C16.7369 5.72656 15.9629 6.50058 15.9629 7.45538C15.9629 8.41017 16.7369 9.18419 17.6917 9.18419Z" fill="#3B97D3"/>
<path d="M20.1365 6.73942C21.0913 6.73942 21.8653 5.96541 21.8653 5.01061C21.8653 4.05581 21.0913 3.2818 20.1365 3.2818C19.1817 3.2818 18.4077 4.05581 18.4077 5.01061C18.4077 5.96541 19.1817 6.73942 20.1365 6.73942Z" fill="#E64C3C"/>
<path d="M24.4847 19.3108C24.5103 17.4568 25.5875 15.7785 27.2624 14.983H2.01592C1.06113 14.983 0.287109 15.757 0.287109 16.7118V29.3898C0.287109 30.3446 1.06113 31.1186 2.01592 31.1186H26.7956C25.5988 30.5362 24.6855 29.4984 24.26 28.2373H28.5244V24.0824C26.2223 23.6415 24.5398 21.6541 24.4847 19.3108Z" fill="#FAC176"/>
<path d="M0.287109 28.2374V24.7798H28.5244V28.2374H0.287109Z" fill="#56595E"/>
<path d="M26.7956 31.1182H2.01592C1.06113 31.1182 0.287109 30.3442 0.287109 29.3894V28.2368H24.26C24.6855 29.4979 25.5988 30.5358 26.7956 31.1182Z" fill="#F18D46"/>
<path d="M29.6773 22.025V16.9366C30.6866 17.2976 31.3723 18.2394 31.4061 19.3108C31.4061 19.9473 31.9221 20.4634 32.5586 20.4634C33.1952 20.4634 33.7112 19.9473 33.7112 19.3108C33.6584 16.9686 31.978 14.981 29.6773 14.5393V13.7728C29.6554 13.1549 29.143 12.6681 28.5247 12.6779C28.2266 12.6699 27.9375 12.7808 27.7213 12.9862C27.505 13.1917 27.3794 13.4747 27.3722 13.7728V14.5393C25.07 14.98 23.3873 16.9674 23.3325 19.3108C23.3876 21.6541 25.0701 23.6414 27.3722 24.0823V29.1708C26.3601 28.8123 25.6714 27.8698 25.6376 26.7966C25.6376 26.16 25.1216 25.644 24.4851 25.644C23.8485 25.644 23.3325 26.16 23.3325 26.7966C23.3869 29.1401 25.0697 31.1278 27.3722 31.5681V32.3288C27.3722 32.9653 27.8882 33.4813 28.5247 33.4813C29.1613 33.4813 29.6773 32.9653 29.6773 32.3288V31.5681C32.0024 31.1708 33.7026 29.1554 33.7026 26.7966C33.7026 24.4377 32.0024 22.4223 29.6773 22.025ZM27.3722 21.685C26.3405 21.3539 25.6407 20.3944 25.6407 19.3108C25.6407 18.2272 26.3405 17.2677 27.3722 16.9366V21.685ZM29.6773 29.1708V24.4281C30.7057 24.7608 31.4024 25.7185 31.4024 26.7995C31.4024 27.8804 30.7057 28.8381 29.6773 29.1708Z" fill="#4FBA6F"/>
<path d="M15.846 20.7459C16.8008 20.7459 17.5748 19.9718 17.5748 19.017C17.5748 18.0623 16.8008 17.2882 15.846 17.2882C14.8912 17.2882 14.1172 18.0623 14.1172 19.017C14.1172 19.9718 14.8912 20.7459 15.846 20.7459Z" fill="#E64C3C"/>
<path d="M19.3033 20.7459C20.2581 20.7459 21.0321 19.9718 21.0321 19.017C21.0321 18.0623 20.2581 17.2882 19.3033 17.2882C18.3485 17.2882 17.5745 18.0623 17.5745 19.017C17.5745 19.9718 18.3485 20.7459 19.3033 20.7459Z" fill="#E57E25"/>
<path d="M3.74517 17.8641H2.59263C2.27436 17.8641 2.01636 17.6061 2.01636 17.2879C2.01636 16.9696 2.27436 16.7116 2.59263 16.7116H3.74517C4.06343 16.7116 4.32144 16.9696 4.32144 17.2879C4.32144 17.6061 4.06343 17.8641 3.74517 17.8641Z" fill="#FDD7AD"/>
<path d="M11.8124 17.8641H6.04966C5.73139 17.8641 5.47339 17.6061 5.47339 17.2879C5.47339 16.9696 5.73139 16.7116 6.04966 16.7116H11.8124C12.1306 16.7116 12.3886 16.9696 12.3886 17.2879C12.3886 17.6061 12.1306 17.8641 11.8124 17.8641Z" fill="#FDD7AD"/>
</svg>
