<svg width="34" height="34" viewBox="0 0 34 34" fill="none" xmlns="http://www.w3.org/2000/svg">
<g opacity="0.5">
<path d="M14.1311 11.4475L20.1346 5.44397L24.8968 10.2031C24.372 10.6545 23.9451 11.1983 23.6328 11.8009C23.1979 11.8025 22.8056 11.8042 22.4479 11.8058C20.3299 11.8152 19.4253 11.8192 18.0734 11.7453C17.1103 11.6926 15.9683 11.6026 14.1311 11.4475Z" fill="#0E494D" stroke="#236852" stroke-width="8.67797"/>
<path d="M30.322 11.9402L29.2963 12.9659C28.9635 12.67 28.4906 12.5912 28.0799 12.7634C27.6692 12.9355 27.3938 13.328 27.3715 13.7727V14.5391C26.9342 14.6348 26.5104 14.7838 26.1095 14.9829H23.2051L29.5095 8.67847L30.322 9.49101C30.9962 10.1682 30.9962 11.263 30.322 11.9402Z" fill="#37A07F"/>
<path d="M29.5096 8.67874L23.2053 14.9831H18.3127L27.0605 6.23535L29.5096 8.67874Z" fill="#37A07F"/>
<path d="M17.6917 9.18419C18.6464 9.18419 19.4204 8.41017 19.4204 7.45538C19.4204 6.50058 18.6464 5.72656 17.6917 5.72656C16.7369 5.72656 15.9629 6.50058 15.9629 7.45538C15.9629 8.41017 16.7369 9.18419 17.6917 9.18419Z" stroke="#236852" stroke-width="8.67797"/>
<path d="M20.1365 6.73936C21.0913 6.73936 21.8653 5.96535 21.8653 5.01055C21.8653 4.05575 21.0913 3.28174 20.1365 3.28174C19.1817 3.28174 18.4077 4.05575 18.4077 5.01055C18.4077 5.96535 19.1817 6.73936 20.1365 6.73936Z" stroke="#236852" stroke-width="8.67797"/>
<path d="M4.62609 19.3221H20.1451L20.145 19.332L20.1469 19.4128C20.185 21.0371 20.6409 22.57 21.4188 23.8984H18.2164L19.1887 26.7798H4.62609V19.3221Z" fill="#236852" stroke="#37A07F" stroke-width="8.67797"/>
<path d="M0.287109 28.2374V24.7798H28.5243V28.2374H0.287109Z" fill="#236852"/>
<path d="M26.7955 31.1182H2.01592C1.06112 31.1182 0.287109 30.3442 0.287109 29.3894V28.2368H24.2599C24.6855 29.4979 25.5988 30.5358 26.7955 31.1182Z" fill="#236852"/>
<path d="M29.6773 22.025V16.9365C30.6866 17.2976 31.3723 18.2393 31.4061 19.3108C31.4061 19.9473 31.9221 20.4633 32.5586 20.4633C33.1952 20.4633 33.7112 19.9473 33.7112 19.3108C33.6584 16.9686 31.978 14.9809 29.6773 14.5393V13.7728C29.6554 13.1549 29.143 12.6681 28.5247 12.6779C28.2266 12.6699 27.9375 12.7808 27.7213 12.9862C27.505 13.1916 27.3794 13.4746 27.3722 13.7728V14.5393C25.07 14.98 23.3873 16.9674 23.3325 19.3108C23.3876 21.6541 25.0701 23.6414 27.3722 24.0823V29.1708C26.3601 28.8123 25.6715 27.8697 25.6376 26.7965C25.6376 26.16 25.1216 25.644 24.4851 25.644C23.8485 25.644 23.3325 26.16 23.3325 26.7965C23.3869 29.1401 25.0697 31.1278 27.3722 31.5681V32.3288C27.3722 32.9653 27.8882 33.4813 28.5247 33.4813C29.1613 33.4813 29.6773 32.9653 29.6773 32.3288V31.5681C32.0024 31.1708 33.7027 29.1554 33.7027 26.7965C33.7027 24.4377 32.0024 22.4223 29.6773 22.025ZM27.3722 21.685C26.3405 21.3539 25.6407 20.3943 25.6407 19.3108C25.6407 18.2272 26.3405 17.2677 27.3722 16.9365V21.685ZM29.6773 29.1708V24.4281C30.7057 24.7608 31.4025 25.7185 31.4025 26.7994C31.4025 27.8804 30.7057 28.8381 29.6773 29.1708Z" fill="#236852"/>
<path d="M15.8459 20.7459C16.8007 20.7459 17.5747 19.9719 17.5747 19.0171C17.5747 18.0623 16.8007 17.2883 15.8459 17.2883C14.8912 17.2883 14.1172 18.0623 14.1172 19.0171C14.1172 19.9719 14.8912 20.7459 15.8459 20.7459Z" fill="#236852"/>
<path d="M19.303 20.7459C20.2578 20.7459 21.0319 19.9719 21.0319 19.0171C21.0319 18.0623 20.2578 17.2883 19.303 17.2883C18.3482 17.2883 17.5742 18.0623 17.5742 19.0171C17.5742 19.9719 18.3482 20.7459 19.303 20.7459Z" fill="#236852"/>
<path d="M3.74519 17.8642H2.59264C2.27437 17.8642 2.01636 17.6062 2.01636 17.2879C2.01636 16.9697 2.27437 16.7117 2.59264 16.7117H3.74519C4.06346 16.7117 4.32147 16.9697 4.32147 17.2879C4.32147 17.6062 4.06346 17.8642 3.74519 17.8642Z" fill="#236852"/>
<path d="M11.8123 17.8642H6.04966C5.73139 17.8642 5.47339 17.6062 5.47339 17.2879C5.47339 16.9697 5.73139 16.7117 6.04966 16.7117H11.8123C12.1306 16.7117 12.3886 16.9697 12.3886 17.2879C12.3886 17.6062 12.1306 17.8642 11.8123 17.8642Z" fill="#236852"/>
<g style="mix-blend-mode:luminosity">
<path d="M30.3225 9.49102L21.3557 0.530011C20.6808 -0.144118 19.5873 -0.144118 18.9123 0.530011L4.45947 14.9829C21.0837 16.3659 16.2903 16.1354 26.11 16.1354C26.5018 15.9395 26.9283 15.0809 27.372 14.9829V14.2164C27.3862 13.9316 27.5187 13.6657 27.7376 13.483C27.9565 13.3002 28.2418 13.2172 28.5245 13.2541C28.8242 13.2541 29.095 12.7873 29.2967 12.9659L30.3225 11.9402C30.9967 11.263 30.9967 10.1682 30.3225 9.49102Z" fill="#F3D55B"/>
<path d="M30.322 11.9402L29.2963 12.9659C28.9635 12.67 28.4906 12.5912 28.0799 12.7634C27.6692 12.9355 27.3938 13.328 27.3715 13.7727V14.5391C26.9342 14.6348 26.5104 14.7838 26.1095 14.9829H23.2051L29.5095 8.67847L30.322 9.49101C30.9962 10.1682 30.9962 11.263 30.322 11.9402Z" fill="#F0C419"/>
<path d="M29.5096 8.67874L23.2053 14.9831H18.3127L27.0605 6.23535L29.5096 8.67874Z" fill="#464F5D"/>
<path d="M17.6917 9.18419C18.6464 9.18419 19.4204 8.41017 19.4204 7.45538C19.4204 6.50058 18.6464 5.72656 17.6917 5.72656C16.7369 5.72656 15.9629 6.50058 15.9629 7.45538C15.9629 8.41017 16.7369 9.18419 17.6917 9.18419Z" fill="#37A07F" stroke="#4BC999" stroke-width="8.67797"/>
<path d="M20.1365 6.73936C21.0913 6.73936 21.8653 5.96535 21.8653 5.01055C21.8653 4.05575 21.0913 3.28174 20.1365 3.28174C19.1817 3.28174 18.4077 4.05575 18.4077 5.01055C18.4077 5.96535 19.1817 6.73936 20.1365 6.73936Z" fill="#37A07F" stroke="#4BC999" stroke-width="8.67797"/>
<path d="M24.4846 19.311C24.5102 17.4569 25.5874 15.7786 27.2623 14.9832H2.01592C1.06112 14.9832 0.287109 15.7572 0.287109 16.712V29.3899C0.287109 30.3447 1.06112 31.1188 2.01592 31.1188H26.7955C25.5987 30.5363 24.6854 29.4985 24.2599 28.2374H28.5243V24.0825C26.2222 23.6416 24.5397 21.6543 24.4846 19.311Z" fill="#FAC176"/>
<path d="M0.287109 28.2374V24.7798H28.5243V28.2374H0.287109Z" fill="#56595E"/>
<path d="M26.7955 31.1182H2.01592C1.06112 31.1182 0.287109 30.3442 0.287109 29.3894V28.2368H24.2599C24.6855 29.4979 25.5988 30.5358 26.7955 31.1182Z" fill="#F18D46"/>
<path d="M29.6773 22.025V16.9365C30.6866 17.2976 31.3723 18.2393 31.4061 19.3108C31.4061 19.9473 31.9221 20.4633 32.5586 20.4633C33.1952 20.4633 33.7112 19.9473 33.7112 19.3108C33.6584 16.9686 31.978 14.9809 29.6773 14.5393V13.7728C29.6554 13.1549 29.143 12.6681 28.5247 12.6779C28.2266 12.6699 27.9375 12.7808 27.7213 12.9862C27.505 13.1916 27.3794 13.4746 27.3722 13.7728V14.5393C25.07 14.98 23.3873 16.9674 23.3325 19.3108C23.3876 21.6541 25.0701 23.6414 27.3722 24.0823V29.1708C26.3601 28.8123 25.6715 27.8697 25.6376 26.7965C25.6376 26.16 25.1216 25.644 24.4851 25.644C23.8485 25.644 23.3325 26.16 23.3325 26.7965C23.3869 29.1401 25.0697 31.1278 27.3722 31.5681V32.3288C27.3722 32.9653 27.8882 33.4813 28.5247 33.4813C29.1613 33.4813 29.6773 32.9653 29.6773 32.3288V31.5681C32.0024 31.1708 33.7027 29.1554 33.7027 26.7965C33.7027 24.4377 32.0024 22.4223 29.6773 22.025ZM27.3722 21.685C26.3405 21.3539 25.6407 20.3943 25.6407 19.3108C25.6407 18.2272 26.3405 17.2677 27.3722 16.9365V21.685ZM29.6773 29.1708V24.4281C30.7057 24.7608 31.4025 25.7185 31.4025 26.7994C31.4025 27.8804 30.7057 28.8381 29.6773 29.1708Z" fill="#4BC999"/>
<path d="M15.8459 20.7459C16.8007 20.7459 17.5747 19.9719 17.5747 19.0171C17.5747 18.0623 16.8007 17.2883 15.8459 17.2883C14.8912 17.2883 14.1172 18.0623 14.1172 19.0171C14.1172 19.9719 14.8912 20.7459 15.8459 20.7459Z" fill="#E64C3C"/>
<path d="M19.303 20.7459C20.2578 20.7459 21.0319 19.9719 21.0319 19.0171C21.0319 18.0623 20.2578 17.2883 19.303 17.2883C18.3482 17.2883 17.5742 18.0623 17.5742 19.0171C17.5742 19.9719 18.3482 20.7459 19.303 20.7459Z" fill="#E57E25"/>
<path d="M3.74519 17.8642H2.59264C2.27437 17.8642 2.01636 17.6062 2.01636 17.2879C2.01636 16.9697 2.27437 16.7117 2.59264 16.7117H3.74519C4.06346 16.7117 4.32147 16.9697 4.32147 17.2879C4.32147 17.6062 4.06346 17.8642 3.74519 17.8642Z" fill="#FDD7AD"/>
<path d="M11.8123 17.8642H6.04966C5.73139 17.8642 5.47339 17.6062 5.47339 17.2879C5.47339 16.9697 5.73139 16.7117 6.04966 16.7117H11.8123C12.1306 16.7117 12.3886 16.9697 12.3886 17.2879C12.3886 17.6062 12.1306 17.8642 11.8123 17.8642Z" fill="#FDD7AD"/>
</g>
</g>
</svg>
