<svg width="23" height="23" viewBox="0 0 23 23" fill="none" xmlns="http://www.w3.org/2000/svg">
<path d="M21.8515 12.1373V12.6078C21.8515 12.89 21.6633 13.0782 21.3811 13.0782H19.6875V13.7838H21.6163C22.1338 13.7838 22.5572 13.3604 22.5572 12.843V12.1373C22.5572 11.9491 22.416 11.761 22.1808 11.761C21.9926 11.7609 21.8515 11.9021 21.8515 12.1373Z" fill="#37A07F"/>
<path d="M9.29102 20.8873C9.19692 21.8282 8.39719 22.5809 7.40927 22.5809H7.36222C6.32725 22.5809 5.48047 21.7341 5.48047 20.6991V19.6171C6.60949 20.2287 7.92676 20.6521 9.29102 20.8873Z" fill="#37A07F"/>
<path d="M3.22264 8.98543C4.39872 8.3268 5.66893 7.90341 6.845 7.76231L4.25762 5.17493C3.45788 5.97466 3.08154 6.96258 3.08154 7.99755C3.12855 8.27975 3.17559 8.65609 3.22264 8.98543Z" fill="#236852"/>
<path d="M0.493973 11.4787C-0.164658 12.1374 -0.164658 14.6777 0.493973 15.3363C0.823266 15.6656 2.37573 15.3363 2.37573 15.3363V11.4787C2.32868 11.4787 0.823266 11.1495 0.493973 11.4787Z" fill="#37A07F"/>
<path d="M16.8652 19.6173V20.6993C16.8652 21.7343 16.0185 22.5811 14.9835 22.5811H14.9364C13.9485 22.5811 13.1488 21.8284 13.0547 20.8875C14.466 20.6523 15.7362 20.2289 16.8652 19.6173Z" fill="#37A07F"/>
<path d="M11.1727 21.0286C16.6288 21.0286 21.0519 17.6165 21.0519 13.4075C21.0519 9.1985 16.6288 5.78644 11.1727 5.78644C5.71652 5.78644 1.29346 9.1985 1.29346 13.4075C1.29346 17.6165 5.71652 21.0286 11.1727 21.0286Z" fill="#37A07F"/>
<path d="M4.30477 11.8551C4.61655 11.8551 4.8693 11.6023 4.8693 11.2905C4.8693 10.9788 4.61655 10.726 4.30477 10.726C3.99299 10.726 3.74023 10.9788 3.74023 11.2905C3.74023 11.6023 3.99299 11.8551 4.30477 11.8551Z" fill="#236852"/>
<path d="M14.2779 7.71503H8.11511C7.92692 7.71503 7.73877 7.85617 7.73877 8.09137C7.73877 8.27956 7.87991 8.46771 8.11511 8.46771H14.2779C14.466 8.46771 14.6071 8.32656 14.6071 8.09137C14.6071 7.90322 14.466 7.71503 14.2779 7.71503Z" fill="#236852"/>
<path d="M11.1727 8.0915C13.4071 8.0915 15.2185 6.28015 15.2185 4.04575C15.2185 1.81134 13.4071 0 11.1727 0C8.9383 0 7.12695 1.81134 7.12695 4.04575C7.12695 6.28015 8.9383 8.0915 11.1727 8.0915Z" fill="#FFD15C"/>
<path d="M11.1731 7.10356C12.8618 7.10356 14.2309 5.73453 14.2309 4.04574C14.2309 2.35695 12.8618 0.987915 11.1731 0.987915C9.48427 0.987915 8.11523 2.35695 8.11523 4.04574C8.11523 5.73453 9.48427 7.10356 11.1731 7.10356Z" fill="#F8B64C"/>
<path d="M12.4264 2.49487V4.71017C12.4264 5.07823 12.3129 5.36929 12.0859 5.58335C11.8605 5.79741 11.5518 5.90444 11.16 5.90444C10.7741 5.90444 10.4678 5.80049 10.2408 5.59259C10.0138 5.38469 9.89809 5.09902 9.89355 4.73558V2.49487H10.5744V4.71479C10.5744 4.93501 10.6259 5.09594 10.7287 5.19758C10.8331 5.29768 10.9769 5.34773 11.16 5.34773C11.5428 5.34773 11.7372 5.14291 11.7432 4.73327V2.49487H12.4264Z" fill="#FFD15C"/>
</svg>
