<svg width="17" height="20" viewBox="0 0 17 20" fill="none" xmlns="http://www.w3.org/2000/svg">
<path fill-rule="evenodd" clip-rule="evenodd" d="M15.625 2.5H13.75V0.625C13.75 0.28 13.47 0 13.125 0H1.875C0.84125 0 0 0.84125 0 1.875V17.5C0 18.8787 1.12125 20 2.5 20H15.625C15.97 20 16.25 19.72 16.25 19.375V3.125C16.25 2.78 15.97 2.5 15.625 2.5ZM1.875 1.25H12.5V2.5H1.875C1.53125 2.5 1.25 2.21875 1.25 1.875C1.25 1.53125 1.53125 1.25 1.875 1.25ZM2.5 18.75C1.81 18.75 1.25 18.19 1.25 17.5V3.635C1.44625 3.705 1.655 3.75 1.875 3.75H15V18.75H2.5ZM8.125 7.5C7.09125 7.5 6.25 8.34125 6.25 9.375C6.25 10.4087 7.09125 11.25 8.125 11.25C9.15875 11.25 10 10.4087 10 9.375C10 8.34125 9.15875 7.5 8.125 7.5ZM8.125 10C7.78125 10 7.5 9.71875 7.5 9.375C7.5 9.03125 7.78125 8.75 8.125 8.75C8.46875 8.75 8.75 9.03125 8.75 9.375C8.75 9.71875 8.46875 10 8.125 10ZM3.75 9.375C3.75 6.9625 5.7125 5 8.125 5C10.5375 5 12.5 6.9625 12.5 9.375C12.5 11.6213 8.99 15.5975 8.59 16.0425C8.47125 16.1737 8.3025 16.25 8.125 16.25C7.9475 16.25 7.77875 16.1737 7.66 16.0425C7.26 15.5975 3.75 11.6213 3.75 9.375ZM5 9.375C5 10.5688 6.76 13.0525 8.125 14.6713C9.49 13.0525 11.25 10.5662 11.25 9.375C11.25 7.65125 9.84875 6.25 8.125 6.25C6.40125 6.25 5 7.65125 5 9.375Z" fill="#666666"/>
</svg>
