<svg id="File_management" height="512" viewBox="0 0 64 64" width="512" xmlns="http://www.w3.org/2000/svg" data-name="File management"><path d="m61 6h-11.87l-3.4-3.678a1 1 0 0 0 -.73-.322h-30a1 1 0 0 0 -1 1v17.753a17 17 0 0 0 0 32.494v3.753a1 1 0 0 0 1 1h9v3a1 1 0 0 0 1 1h36a1 1 0 0 0 1-1v-54a1 1 0 0 0 -1-1zm-15-.442 8.716 9.442h-8.716zm-42 31.442a15 15 0 1 1 15 15 15.017 15.017 0 0 1 -15-15zm12 16.719a17 17 0 1 0 0-33.438v-16.281h28v12a1 1 0 0 0 1 1h11v39h-40zm44 6.281h-34v-2h31a1 1 0 0 0 1-1v-41a1 1 0 0 0 -.265-.678l-6.759-7.322h9.024z"/><path d="m20 7h6v2h-6z"/><path d="m29 7h12v2h-12z"/><path d="m20 12h21v2h-21z"/><path d="m23.95 47.606a1 1 0 0 0 1.414 0l4.242-4.242a1 1 0 0 0 0-1.414l-4.949-4.95 4.949-4.95a1 1 0 0 0 0-1.414l-4.242-4.242a1 1 0 0 0 -1.414 0l-4.95 4.949-4.95-4.949a1 1 0 0 0 -1.414 0l-4.242 4.242a1 1 0 0 0 0 1.414l4.949 4.95-4.949 4.95a1 1 0 0 0 0 1.414l4.242 4.242a1 1 0 0 0 1.414 0l4.95-4.949zm-10.607-2.121-2.828-2.828 4.949-4.95a1 1 0 0 0 0-1.414l-4.949-4.95 2.828-2.828 4.95 4.949a1 1 0 0 0 1.414 0l4.95-4.949 2.828 2.828-4.949 4.95a1 1 0 0 0 0 1.414l4.949 4.95-2.828 2.828-4.95-4.949a1 1 0 0 0 -1.414 0z"/></svg>