<svg width="18" height="18" viewBox="0 0 18 18" fill="none" xmlns="http://www.w3.org/2000/svg">
<path opacity="0.2" d="M6.08218 10.796C6.08218 11.5516 5.4696 12.1642 4.71394 12.1642C3.95828 12.1642 3.3457 11.5516 3.3457 10.796C3.3457 10.0403 3.95828 9.42773 4.71394 9.42773C5.4696 9.42773 6.08218 10.0403 6.08218 10.796Z" fill="#236852"/>
<path opacity="0.2" d="M14.6818 10.796C14.6818 11.5516 14.0692 12.1642 13.3136 12.1642C12.5579 12.1642 11.9453 11.5516 11.9453 10.796C11.9453 10.0403 12.5579 9.42773 13.3136 9.42773C14.0692 9.42773 14.6818 10.0403 14.6818 10.796Z" fill="#236852"/>
<path d="M5.08218 10.796C5.08218 10.9993 4.91732 11.1642 4.71394 11.1642C4.51057 11.1642 4.3457 10.9993 4.3457 10.796C4.3457 10.5926 4.51057 10.4277 4.71394 10.4277C4.91732 10.4277 5.08218 10.5926 5.08218 10.796Z" stroke="#666666" stroke-width="2"/>
<path d="M13.6818 10.796C13.6818 10.9993 13.5169 11.1642 13.3136 11.1642C13.1102 11.1642 12.9453 10.9993 12.9453 10.796C12.9453 10.5926 13.1102 10.4277 13.3136 10.4277C13.5169 10.4277 13.6818 10.5926 13.6818 10.796Z" stroke="#666666" stroke-width="2"/>
<path fill-rule="evenodd" clip-rule="evenodd" d="M4.146 2.78185H13.8801C14.0599 2.78185 14.2166 2.90455 14.2597 3.07915L15.247 7.08203H2.77908L3.76645 3.07915C3.80952 2.90455 3.96616 2.78185 4.146 2.78185ZM3.00735 2.89191C3.13656 2.36809 3.60648 2 4.146 2H13.8801C14.4196 2 14.8895 2.36809 15.0188 2.89191L16.1251 7.37714C16.6286 7.50895 17 7.96698 17 8.51176V12.7545C17 13.3325 16.5819 13.8128 16.0316 13.9095C16.05 13.9761 16.0599 14.0462 16.0599 14.1187V15.3785C16.0599 15.8103 15.7098 16.1604 15.278 16.1604H13.077C12.6452 16.1604 12.2952 15.8103 12.2952 15.3785V14.1187C12.2952 14.0526 12.3033 13.9885 12.3188 13.9272H5.68208C5.69749 13.9885 5.70568 14.0526 5.70568 14.1187V15.3785C5.70568 15.8103 5.35564 16.1604 4.92383 16.1604H2.72282C2.29102 16.1604 1.94097 15.8103 1.94097 15.3785V14.1187C1.94097 14.0463 1.95081 13.9762 1.96923 13.9096C1.41855 13.8133 1 13.3327 1 12.7545V8.51176C1 7.957 1.38519 7.49221 1.9027 7.37023L3.00735 2.89191ZM2.17278 8.12083H15.8272C16.0431 8.12083 16.2182 8.29586 16.2182 8.51176V12.7545C16.2182 12.9704 16.0431 13.1454 15.8272 13.1454H2.17278C1.95687 13.1454 1.78185 12.9704 1.78185 12.7545V8.51176C1.78185 8.29586 1.95687 8.12083 2.17278 8.12083ZM4.92383 14.1187H2.72282V15.3785H4.92383V14.1187ZM13.077 14.1187H15.278V15.3785H13.077V14.1187Z" fill="#666666"/>
<path fill-rule="evenodd" clip-rule="evenodd" d="M6.9776 6.41485C6.82493 6.26219 6.82493 6.01467 6.9776 5.862L9.16122 3.67838C9.31389 3.52571 9.56141 3.52571 9.71408 3.67838C9.86674 3.83104 9.86674 4.07856 9.71408 4.23123L7.53045 6.41485C7.37778 6.56752 7.13026 6.56752 6.9776 6.41485Z" fill="#666666"/>
<path fill-rule="evenodd" clip-rule="evenodd" d="M10.171 5.9588C10.0183 5.80613 10.0183 5.55861 10.171 5.40595L11.4424 4.13448C11.5951 3.98181 11.8426 3.98181 11.9953 4.13448C12.1479 4.28715 12.1479 4.53467 11.9953 4.68733L10.7238 5.9588C10.5711 6.11146 10.3236 6.11147 10.171 5.9588Z" fill="#666666"/>
</svg>
