<svg width="20" height="20" viewBox="0 0 20 20" fill="none" xmlns="http://www.w3.org/2000/svg">
<path fill-rule="evenodd" clip-rule="evenodd" d="M18.9227 2.74408C19.2481 3.06951 19.2481 3.59715 18.9227 3.92259L10.5893 12.2559C10.2639 12.5814 9.73626 12.5814 9.41083 12.2559L6.91083 9.75592C6.58539 9.43049 6.58539 8.90285 6.91083 8.57741C7.23626 8.25197 7.7639 8.25197 8.08934 8.57741L10.0001 10.4882L17.7442 2.74408C18.0696 2.41864 18.5972 2.41864 18.9227 2.74408Z" fill="#236852"/>
<path fill-rule="evenodd" clip-rule="evenodd" d="M4.16675 3.33333C3.94573 3.33333 3.73377 3.42113 3.57749 3.57741C3.42121 3.73369 3.33341 3.94565 3.33341 4.16666V15.8333C3.33341 16.0543 3.42121 16.2663 3.57749 16.4226C3.73377 16.5789 3.94573 16.6667 4.16675 16.6667H15.8334C16.0544 16.6667 16.2664 16.5789 16.4227 16.4226C16.579 16.2663 16.6667 16.0543 16.6667 15.8333V10C16.6667 9.53976 17.0398 9.16666 17.5001 9.16666C17.9603 9.16666 18.3334 9.53976 18.3334 10V15.8333C18.3334 16.4964 18.07 17.1323 17.6012 17.6011C17.1323 18.0699 16.4965 18.3333 15.8334 18.3333H4.16675C3.50371 18.3333 2.86782 18.0699 2.39898 17.6011C1.93014 17.1323 1.66675 16.4964 1.66675 15.8333V4.16666C1.66675 3.50362 1.93014 2.86774 2.39898 2.3989C2.86782 1.93006 3.50371 1.66666 4.16675 1.66666H13.3334C13.7937 1.66666 14.1667 2.03976 14.1667 2.5C14.1667 2.96023 13.7937 3.33333 13.3334 3.33333H4.16675Z" fill="#236852"/>
</svg>
