<svg width="13" height="13" viewBox="0 0 13 13" fill="none" xmlns="http://www.w3.org/2000/svg">
<path fill-rule="evenodd" clip-rule="evenodd" d="M6.5 1.18182C3.56285 1.18182 1.18182 3.56285 1.18182 6.5C1.18182 9.43715 3.56285 11.8182 6.5 11.8182C9.43715 11.8182 11.8182 9.43715 11.8182 6.5C11.8182 3.56285 9.43715 1.18182 6.5 1.18182ZM0 6.5C0 2.91015 2.91015 0 6.5 0C10.0899 0 13 2.91015 13 6.5C13 10.0899 10.0899 13 6.5 13C2.91015 13 0 10.0899 0 6.5Z" fill="#236852"/>
<path fill-rule="evenodd" clip-rule="evenodd" d="M8.69056 4.30944C8.92133 4.5402 8.92133 4.91434 8.69056 5.14511L5.14511 8.69056C4.91434 8.92133 4.5402 8.92133 4.30944 8.69056C4.07867 8.4598 4.07867 8.08566 4.30944 7.85489L7.85489 4.30944C8.08566 4.07867 8.4598 4.07867 8.69056 4.30944Z" fill="#236852"/>
<path fill-rule="evenodd" clip-rule="evenodd" d="M4.30944 4.30944C4.5402 4.07867 4.91434 4.07867 5.14511 4.30944L8.69056 7.85489C8.92133 8.08566 8.92133 8.4598 8.69056 8.69056C8.4598 8.92133 8.08566 8.92133 7.85489 8.69056L4.30944 5.14511C4.07867 4.91434 4.07867 4.5402 4.30944 4.30944Z" fill="#236852"/>
</svg>
