<svg width="18" height="13" viewBox="0 0 18 13" fill="none" xmlns="http://www.w3.org/2000/svg">
<path d="M17.1 1.84435H5.4C4.86 1.84435 4.5 1.47623 4.5 0.92404C4.5 0.371853 4.86 0.00372881 5.4 0.00372881H17.1C17.64 0.00372881 18 0.371853 18 0.92404C18 1.47623 17.64 1.84435 17.1 1.84435Z" fill="#236852"/>
<path d="M17.1 7.36622H5.4C4.86 7.36622 4.5 6.9981 4.5 6.44591C4.5 5.89372 4.86 5.5256 5.4 5.5256H17.1C17.64 5.5256 18 5.89372 18 6.44591C18 6.9981 17.64 7.36622 17.1 7.36622Z" fill="#236852"/>
<path d="M17.1 12.8881H5.4C4.86 12.8881 4.5 12.52 4.5 11.9678C4.5 11.4156 4.86 11.0475 5.4 11.0475H17.1C17.64 11.0475 18 11.4156 18 11.9678C18 12.52 17.64 12.8881 17.1 12.8881Z" fill="#236852"/>
<path d="M0.9 1.84435C0.81 1.84435 0.81 1.84435 0.72 1.84435C0.63 1.84435 0.63 1.84435 0.54 1.75232C0.45 1.75232 0.45 1.66029 0.36 1.66029C0.27 1.66029 0.27 1.56826 0.27 1.56826C0.18 1.47623 0.0899999 1.3842 0.0899999 1.29217C-8.19564e-08 1.20013 0 1.01607 0 0.924041C0 0.832009 -8.19564e-08 0.647947 0.0899999 0.555916C0.18 0.463885 0.18 0.371854 0.27 0.279823C0.54 0.00372913 0.9 -0.0883023 1.26 0.09576C1.35 0.187791 1.44 0.187791 1.53 0.279823C1.71 0.463885 1.8 0.647947 1.8 0.924041C1.8 1.20013 1.71 1.3842 1.53 1.56826C1.35 1.75232 1.17 1.84435 0.9 1.84435Z" fill="#236852"/>
<path d="M0.9 7.36622C0.63 7.36622 0.45 7.27419 0.27 7.09013C0.09 6.90607 0 6.722 0 6.44591C0 6.35388 0 6.35388 0 6.26185C0 6.16982 -8.19564e-08 6.16982 0.0899999 6.07779C0.0899999 5.98576 0.18 5.98575 0.18 5.89372C0.18 5.80169 0.27 5.80169 0.27 5.80169C0.36 5.70966 0.45 5.61763 0.54 5.61763C0.9 5.43357 1.26 5.5256 1.53 5.80169L1.62 5.89372C1.62 5.98575 1.71 5.98576 1.71 6.07779C1.71 6.16982 1.71 6.16982 1.8 6.26185C1.8 6.35388 1.8 6.35388 1.8 6.44591C1.8 6.722 1.71 6.90607 1.53 7.09013C1.35 7.27419 1.17 7.36622 0.9 7.36622Z" fill="#236852"/>
<path d="M0.9 12.8881C0.63 12.8881 0.45 12.7961 0.27 12.612C0.09 12.4279 0 12.2439 0 11.9678C0 11.8757 -8.19564e-08 11.6917 0.0899999 11.5997C0.18 11.5076 0.18 11.4156 0.27 11.3236C0.63 10.9554 1.17 10.9554 1.53 11.3236C1.71 11.5076 1.8 11.6917 1.8 11.9678C1.8 12.2439 1.71 12.4279 1.53 12.612C1.35 12.7961 1.17 12.8881 0.9 12.8881Z" fill="#236852"/>
</svg>
