<svg width="12" height="20" viewBox="0 0 12 20" fill="none" xmlns="http://www.w3.org/2000/svg">
<path fill-rule="evenodd" clip-rule="evenodd" d="M6.00008 0C6.46032 0 6.83342 0.373096 6.83342 0.833333V19.1667C6.83342 19.6269 6.46032 20 6.00008 20C5.53984 20 5.16675 19.6269 5.16675 19.1667V0.833333C5.16675 0.373096 5.53984 0 6.00008 0Z" fill="#236852"/>
<path fill-rule="evenodd" clip-rule="evenodd" d="M1.2651 4.43168C1.96836 3.72842 2.92219 3.33333 3.91675 3.33333H10.1667C10.627 3.33333 11.0001 3.70643 11.0001 4.16667C11.0001 4.6269 10.627 5 10.1667 5H3.91675C3.36421 5 2.83431 5.21949 2.44361 5.61019C2.05291 6.0009 1.83341 6.5308 1.83341 7.08333C1.83341 7.63587 2.05291 8.16577 2.44361 8.55647C2.83431 8.94717 3.36421 9.16667 3.91675 9.16667H8.08342C9.07798 9.16667 10.0318 9.56175 10.7351 10.265C11.4383 10.9683 11.8334 11.9221 11.8334 12.9167C11.8334 13.9112 11.4383 14.8651 10.7351 15.5683C10.0318 16.2716 9.07798 16.6667 8.08342 16.6667H1.00008C0.539844 16.6667 0.166748 16.2936 0.166748 15.8333C0.166748 15.3731 0.539844 15 1.00008 15H8.08342C8.63595 15 9.16586 14.7805 9.55656 14.3898C9.94726 13.9991 10.1667 13.4692 10.1667 12.9167C10.1667 12.3641 9.94726 11.8342 9.55656 11.4435C9.16586 11.0528 8.63595 10.8333 8.08342 10.8333H3.91675C2.92219 10.8333 1.96836 10.4382 1.2651 9.73498C0.561836 9.03172 0.166748 8.0779 0.166748 7.08333C0.166748 6.08877 0.561836 5.13494 1.2651 4.43168Z" fill="#236852"/>
</svg>
