<svg width="6" height="14" viewBox="0 0 6 14" fill="none" xmlns="http://www.w3.org/2000/svg">
<path d="M1.29685 2.71156C1.29685 3.06417 1.29685 4.63909 1.29685 4.63909H0V6.99619H1.29685V14H3.96085V6.99619H5.74851C5.74851 6.99619 5.91599 5.86575 5.99702 4.63021C5.76433 4.63021 3.971 4.63021 3.971 4.63021C3.971 4.63021 3.971 3.25876 3.971 3.01843C3.971 2.77777 4.26133 2.45382 4.5485 2.45382C4.83517 2.45382 5.44001 2.45382 6 2.45382C6 2.13259 6 1.02393 6 0C5.25231 0 4.40168 0 4.0265 0C1.23089 -0.000145506 1.29685 2.35914 1.29685 2.71156Z" fill="#1C2F6E"/>
</svg>
