<svg width="18" height="18" viewBox="0 0 18 18" fill="none" xmlns="http://www.w3.org/2000/svg">
<path opacity="0.2" d="M11.2647 1.04614H6.7624C6.72504 1.152 6.67273 1.4123 6.7624 1.60659C6.87449 1.84945 8.16352 2.44726 8.87342 2.54067C9.58332 2.63408 10.4053 2.18572 10.8163 1.98022C11.1451 1.81582 11.2522 1.289 11.2647 1.04614Z" fill="#236852"/>
<path d="M17.928 6.46627C17.7323 6.07287 15.9896 2.60478 15.0773 1.98444C14.1996 1.38757 12.0495 0.467238 11.9584 0.428343L11.8535 0.383545L11.7414 0.405029C11.7232 0.408504 9.91458 0.753216 8.99996 0.753216C8.08606 0.753216 6.27671 0.408504 6.25855 0.405029L6.14646 0.383545L6.04151 0.428343C5.95038 0.467238 3.80036 1.38757 2.92266 1.98441C2.0104 2.60482 0.26767 6.07287 0.0719614 6.46627L0 6.6109L0.0560447 6.76237C0.0795088 6.82581 0.660618 8.32041 3.2216 8.66169L3.44358 8.69128L4.23003 7.59736C4.23003 8.46281 4.08686 9.82815 3.97918 11.3024C3.8359 13.264 3.56818 14.8145 3.36452 17.0041L3.68483 17.123C3.73912 17.1432 5.05979 17.6165 8.99996 17.6165C12.9402 17.6165 14.2608 17.1432 14.3151 17.123L14.6354 17.0041L14.5456 16.6745C14.3151 15.2629 14.1875 13.1738 14.0485 11.209C13.9464 9.76501 13.8431 8.44412 13.7699 7.59736L14.5563 8.69124L14.7783 8.66165C17.3393 8.32038 17.9204 6.82581 17.9439 6.76233L18 6.61086L17.928 6.46627ZM11.056 1.28258C10.6887 1.71177 10.0432 2.19641 9 2.19641C7.95656 2.19641 7.31096 1.71151 6.94387 1.28254C7.5743 1.38353 8.42793 1.50048 9 1.50048C9.57203 1.50048 10.4256 1.38353 11.056 1.28258ZM16.8002 7.06501C16.4788 7.35196 15.8934 7.71786 14.899 7.88771L13.5781 6.0503C13.5781 6.0503 13.376 6.20233 13.3013 6.29574C13.2266 6.38915 13.1331 6.6304 13.1331 6.6304C12.965 7.22982 13.0691 8.30943 13.2994 11.3584C13.4365 13.175 13.5781 15.0014 13.7317 16.5089C13.1562 16.6388 11.7478 16.8693 9 16.8693C6.49988 16.8693 4.92633 16.6676 4.23044 16.5109C4.38464 14.9453 4.58509 13.2534 4.72233 11.436C4.95256 8.38703 4.95473 7.06651 4.83853 6.46627C4.83853 6.46627 4.75446 6.2385 4.72644 6.16497C4.66816 6.01205 4.4533 6.01173 4.3576 6.14448L3.10092 7.88779C1.58551 7.63035 1.00623 6.92748 0.825016 6.63141C1.54769 5.19977 2.79865 2.97244 3.34288 2.60236C3.9695 2.17623 5.37958 1.53579 6.01446 1.25541C6.12528 1.44481 6.29263 1.68886 6.52846 1.93146C6.97742 2.3932 7.7706 2.94367 8.99996 2.94367C10.2293 2.94367 11.0225 2.39323 11.4715 1.93146C11.7073 1.6889 11.8746 1.44485 11.9855 1.25541C12.6203 1.53579 14.0304 2.17627 14.657 2.60239C15.2009 2.97218 16.4515 5.19861 17.1744 6.6304C17.1093 6.73498 16.9924 6.8934 16.8002 7.06501Z" fill="#666666"/>
</svg>
