<svg width="18" height="18" viewBox="0 0 18 18" fill="none" xmlns="http://www.w3.org/2000/svg">
<g clip-path="url(#clip0)">
<path d="M17.9903 11.2649C17.9455 10.2336 17.7661 9.09017 17.4971 8.01402C17.2281 6.98271 16.8918 6.01866 16.4882 5.2788C14.9188 2.52117 13.2149 2.94715 11.1747 3.48522C10.5245 3.64216 9.82953 3.82152 9.1121 3.88878H8.8879C8.17047 3.82152 7.47545 3.64216 6.82528 3.48522C4.78508 2.96957 3.08118 2.52117 1.5118 5.30122C1.10824 6.04108 0.749527 7.00513 0.50291 8.03644C0.233872 9.11259 0.0545144 10.256 0.00967486 11.2873C-0.0351647 12.4307 0.0769341 13.2602 0.323551 13.8432C0.570169 14.3812 0.928885 14.7175 1.3997 14.852C1.82568 14.9641 2.31891 14.9193 2.83456 14.6951C3.70894 14.3364 4.71782 13.5741 5.70429 12.6549C6.39931 11.9823 7.69965 11.646 9 11.646C10.3003 11.646 11.6007 11.9823 12.2957 12.6549C13.2822 13.5741 14.2911 14.3364 15.1654 14.6951C15.6811 14.8969 16.1743 14.9641 16.6003 14.852C17.0487 14.7175 17.4298 14.4037 17.6764 13.8207C17.9231 13.2602 18.0352 12.4307 17.9903 11.2649ZM16.9142 13.5069C16.7797 13.8207 16.6003 14.0001 16.3761 14.0674C16.1295 14.1346 15.8156 14.0898 15.4569 13.9553C14.6722 13.6414 13.753 12.9464 12.8562 12.0944C12.0042 11.2425 10.5021 10.8165 9 10.8165C7.49787 10.8165 5.99575 11.2425 5.12138 12.0496C4.20217 12.9015 3.28296 13.619 2.52069 13.9104C2.16197 14.0449 1.8481 14.1122 1.60148 14.0225C1.37728 13.9553 1.19792 13.7759 1.0634 13.462C0.884045 13.036 0.794366 12.341 0.839206 11.3097C0.884045 10.3457 1.04098 9.24711 1.31002 8.2158C1.55664 7.25174 1.87051 6.35495 2.25165 5.68236C3.48474 3.4628 4.9196 3.82152 6.6235 4.26991C7.31852 4.44927 8.03595 4.62863 8.82064 4.69589C8.84306 4.69589 8.84306 4.69589 8.86548 4.69589H9.1121C9.13452 4.69589 9.13452 4.69589 9.15694 4.69589C9.96405 4.62863 10.6815 4.44927 11.3765 4.26991C13.0804 3.84394 14.5153 3.4628 15.7483 5.68236C16.1295 6.35495 16.4434 7.22932 16.69 8.2158C16.9366 9.24711 17.116 10.3233 17.1608 11.3097C17.2056 12.341 17.116 13.036 16.9142 13.5069Z" fill="white"/>
<path opacity="0.2" d="M6.46303 7.09698C6.28772 6.93849 6.07734 6.81522 5.8319 6.79761C5.81437 6.56867 5.70918 6.33974 5.5514 6.18124L5.53387 6.16363C5.34102 5.96992 5.09558 5.86426 4.81508 5.86426C4.53458 5.86426 4.27161 5.98753 4.09629 6.16363C3.93851 6.32213 3.81579 6.55106 3.79826 6.79761C3.55282 6.81522 3.34244 6.92088 3.16713 7.07937L3.1496 7.09698C2.95675 7.2907 2.85156 7.53724 2.85156 7.819C2.85156 8.10077 2.97428 8.36493 3.1496 8.54103C3.32491 8.71713 3.53529 8.82279 3.79826 8.8404C3.81579 9.08695 3.92098 9.31588 4.09629 9.47438C4.28914 9.66809 4.53458 9.77375 4.81508 9.77375C5.09558 9.77375 5.35855 9.65048 5.53387 9.47438C5.69165 9.29827 5.81437 9.08695 5.8319 8.8404C6.07734 8.82279 6.30525 8.71713 6.46303 8.54103C6.65588 8.34732 6.76106 8.10077 6.76106 7.819C6.76106 7.53724 6.63835 7.27308 6.46303 7.09698Z" fill="#EBEBEB"/>
<path d="M6.93879 6.89287C6.71459 6.69109 6.44555 6.53415 6.13168 6.51173C6.10926 6.22028 5.97474 5.92882 5.77296 5.72704L5.75054 5.70462C5.50392 5.458 5.19004 5.32349 4.83133 5.32349C4.47261 5.32349 4.13631 5.48042 3.91212 5.70462C3.71034 5.9064 3.5534 6.19786 3.53098 6.51173C3.2171 6.53415 2.94807 6.66867 2.72387 6.87045L2.70145 6.89287C2.45483 7.13949 2.32031 7.45337 2.32031 7.81208C2.32031 8.1708 2.47725 8.5071 2.70145 8.73129C2.92565 8.95549 3.19468 9.09001 3.53098 9.11243C3.5534 9.42631 3.68792 9.71776 3.91212 9.91954C4.15873 10.1662 4.47261 10.3007 4.83133 10.3007C5.19004 10.3007 5.52634 10.1437 5.75054 9.91954C5.95232 9.69534 6.10926 9.42631 6.13168 9.11243C6.44555 9.09001 6.73701 8.95549 6.93879 8.73129C7.1854 8.48468 7.31992 8.1708 7.31992 7.81208C7.31992 7.45337 7.16299 7.11707 6.93879 6.89287ZM6.37829 8.14838C6.28861 8.23806 6.17651 8.2829 6.042 8.2829H5.72812C5.50392 8.2829 5.30214 8.46226 5.30214 8.70887V9.00033C5.30214 9.13485 5.2573 9.24695 5.16762 9.33663C5.07795 9.42631 4.96585 9.47115 4.83133 9.47115C4.69681 9.47115 4.58471 9.42631 4.49503 9.33663C4.40535 9.24695 4.36051 9.13485 4.36051 9.00033V8.68645C4.36051 8.46226 4.18115 8.26048 3.93454 8.26048H3.62066C3.48614 8.26048 3.37404 8.21564 3.28436 8.12596C3.2171 8.0587 3.14984 7.9466 3.14984 7.81208C3.14984 7.67756 3.19468 7.56546 3.28436 7.47579C3.28436 7.47579 3.28436 7.47579 3.30678 7.45337C3.39646 7.38611 3.50856 7.34127 3.62066 7.34127H3.93454C4.15873 7.34127 4.36051 7.16191 4.36051 6.91529V6.60141C4.36051 6.4669 4.40535 6.3548 4.49503 6.26512C4.58471 6.17544 4.69681 6.1306 4.83133 6.1306C4.96585 6.1306 5.07795 6.17544 5.16762 6.26512C5.16762 6.26512 5.16762 6.26512 5.19004 6.28754C5.2573 6.37722 5.30214 6.48931 5.30214 6.60141V6.91529C5.30214 7.13949 5.4815 7.34127 5.72812 7.34127H6.042C6.17651 7.34127 6.28861 7.38611 6.37829 7.47579C6.46797 7.56546 6.51281 7.67756 6.51281 7.81208C6.51281 7.9466 6.46797 8.0587 6.37829 8.14838Z" fill="white"/>
<path d="M12.9019 7.00518C13.3353 7.00518 13.6866 6.65386 13.6866 6.22048C13.6866 5.78711 13.3353 5.43579 12.9019 5.43579C12.4685 5.43579 12.1172 5.78711 12.1172 6.22048C12.1172 6.65386 12.4685 7.00518 12.9019 7.00518Z" fill="white"/>
<path d="M12.9019 10.1888C13.3353 10.1888 13.6866 9.83744 13.6866 9.40407C13.6866 8.9707 13.3353 8.61938 12.9019 8.61938C12.4685 8.61938 12.1172 8.9707 12.1172 9.40407C12.1172 9.83744 12.4685 10.1888 12.9019 10.1888Z" fill="white"/>
<path d="M11.3081 8.59697C11.7415 8.59697 12.0928 8.24565 12.0928 7.81228C12.0928 7.37891 11.7415 7.02759 11.3081 7.02759C10.8748 7.02759 10.5234 7.37891 10.5234 7.81228C10.5234 8.24565 10.8748 8.59697 11.3081 8.59697Z" fill="white"/>
<path d="M14.4917 8.59697C14.9251 8.59697 15.2764 8.24565 15.2764 7.81228C15.2764 7.37891 14.9251 7.02759 14.4917 7.02759C14.0584 7.02759 13.707 7.37891 13.707 7.81228C13.707 8.24565 14.0584 8.59697 14.4917 8.59697Z" fill="white"/>
</g>
<defs>
<clipPath id="clip0">
<rect width="18" height="18" fill="white"/>
</clipPath>
</defs>
</svg>
