<svg width="30" height="30" viewBox="0 0 30 30" fill="none" xmlns="http://www.w3.org/2000/svg">
<path d="M15 0C6.72921 0 0 6.72927 0 15C0 23.2708 6.72921 30 15 30C19.0065 30 22.8227 28.3844 25.6558 25.5508C26.1266 25.0799 26.0735 24.2897 25.596 23.821L23.2286 21.4885C23.7391 20.7893 23.8062 19.9387 23.3851 19.1306C22.8104 18.0273 21.9568 17.1443 20.8496 16.5073C20.4225 16.2607 20.019 16.1401 19.617 16.1405C19.4606 16.1405 19.3027 16.1597 19.1491 16.196C18.6382 16.3205 18.147 16.5598 17.6477 16.927C17.4914 17.0443 17.2982 17.1027 17.076 17.1027C16.805 17.1027 16.5117 17.0095 16.3107 16.8603C14.8524 15.7733 13.6159 14.5357 12.5288 13.0784C12.3159 12.7917 12.1459 12.1679 12.4612 11.7399C12.8299 11.2412 13.0683 10.751 13.1922 10.2391C13.3256 9.68749 13.2236 9.1314 12.8818 8.54062C12.2444 7.43144 11.3613 6.57884 10.2581 6.00361C9.90068 5.81737 9.53486 5.72209 9.17008 5.72209C8.56209 5.72209 7.99234 5.98744 7.52355 6.48661C7.09265 6.94551 6.71158 7.43151 6.27231 8.01937C5.86977 8.55776 5.90314 9.17953 5.93156 9.72762L5.93254 9.73897C5.98213 10.4353 6.242 11.258 6.72732 12.2543C7.54765 13.942 8.7127 15.5444 10.2891 17.1527C10.6132 17.4837 11.9042 18.7752 12.2357 19.0992C13.8449 20.6761 15.4473 21.8412 17.1341 22.6615C18.1309 23.1464 18.9536 23.4063 19.6495 23.4563L19.6612 23.4568C19.8044 23.4636 19.9573 23.4714 20.1064 23.4714C20.4619 23.4714 20.9174 23.4283 21.3283 23.141L22.886 24.6758C20.6634 26.4938 17.9098 27.4897 15.0002 27.4897C8.11355 27.4897 2.51066 21.8867 2.51066 15.0001C2.51066 8.11349 8.11361 2.51054 15.0002 2.51054C21.8868 2.51054 27.4898 8.11349 27.4898 15.0001C27.4898 15.6934 28.0517 16.2553 28.745 16.2553C29.4383 16.2553 30.0003 15.6934 30.0003 15.0001C30 6.72927 23.2708 0 15 0Z" fill="#236852"/>
</svg>
