<!-- Generated by IcoMoon.io -->
<svg version="1.1" xmlns="http://www.w3.org/2000/svg" width="27" height="32" viewBox="0 0 27 32">
<title>language</title>
<path d="M11.122 19.639c-0.011 0.034-0.085 0.034-0.221 0-0.125-0.045-0.3-0.113-0.527-0.204l-0.34-0.153c-0.499-0.227-0.992-0.505-1.48-0.833-0.079-0.057-0.312-0.232-0.697-0.527-0.386-0.306-0.601-0.471-0.646-0.493-0.76 1.168-1.519 2.194-2.279 3.078-0.918 1.077-1.514 1.701-1.786 1.871-0.045 0.023-0.159 0.045-0.34 0.068-0.17 0.023-0.272 0.023-0.306 0 0.068-0.045 0.533-0.567 1.395-1.565 0.238-0.272 0.72-0.924 1.446-1.956 0.737-1.032 1.185-1.701 1.344-2.007 0.193-0.34 0.482-0.896 0.867-1.667 0.385-0.782 0.59-1.224 0.612-1.326-0.091-0.011-0.714 0.176-1.871 0.561-0.091 0.023-0.249 0.068-0.476 0.136-0.215 0.057-0.408 0.108-0.578 0.153s-0.266 0.074-0.289 0.085c-0.023 0.023-0.034 0.085-0.034 0.187 0 0.091-0.006 0.142-0.017 0.153-0.057 0.113-0.232 0.198-0.527 0.255-0.261 0.079-0.527 0.079-0.799 0-0.204-0.045-0.363-0.164-0.476-0.357-0.045-0.068-0.074-0.198-0.085-0.391 0.068-0.023 0.204-0.051 0.408-0.085 0.215-0.034 0.385-0.068 0.51-0.102 0.658-0.181 1.253-0.363 1.786-0.544 1.134-0.397 1.712-0.595 1.735-0.595 0.113-0.023 0.357-0.13 0.731-0.323 0.374-0.204 0.624-0.329 0.748-0.374 0.102-0.034 0.221-0.079 0.357-0.136 0.147-0.057 0.232-0.085 0.255-0.085 0.023-0.011 0.057-0.011 0.102 0 0.023 0.136 0.017 0.323-0.017 0.561 0 0.023-0.074 0.176-0.221 0.459-0.136 0.283-0.283 0.59-0.442 0.918-0.159 0.317-0.255 0.505-0.289 0.561-0.283 0.567-0.72 1.31-1.31 2.228l1.088 0.476c0.136 0.068 0.556 0.249 1.258 0.544 0.714 0.295 1.1 0.454 1.156 0.476 0.045 0.011 0.102 0.159 0.17 0.442 0.079 0.272 0.108 0.442 0.085 0.51zM7.636 11.374c0.034 0.17 0.011 0.329-0.068 0.476-0.136 0.261-0.42 0.476-0.85 0.646-0.34 0.136-0.68 0.204-1.020 0.204-0.295-0.034-0.573-0.181-0.833-0.442-0.159-0.17-0.261-0.402-0.306-0.697l0.017-0.051c0.034 0.034 0.142 0.062 0.323 0.085 0.193 0.023 0.346 0.023 0.459 0s0.442-0.113 0.986-0.272c0.408-0.136 0.72-0.215 0.935-0.238 0.193 0 0.312 0.096 0.357 0.289zM19.507 13.568l1.072 3.861-2.364-0.714 1.293-3.146zM0.663 27.174l11.803-3.946v-17.551l-11.803 3.963v17.534zM21.769 21.782l1.735 0.527-3.078-11.173-1.701-0.527-3.673 9.116 1.735 0.527 0.765-1.871 3.588 1.105 0.629 2.296zM13.214 5.422l9.745 3.129v-6.463l-9.745 3.333zM18.503 27.922l2.687 0.221-0.918 2.721-0.68-1.122c-1.474 0.941-3.038 1.553-4.694 1.837-0.658 0.136-1.173 0.204-1.548 0.204h-1.429c-0.896 0-2.029-0.221-3.401-0.663-1.361-0.442-2.398-0.924-3.112-1.446-0.091-0.079-0.136-0.17-0.136-0.272 0-0.091 0.028-0.17 0.085-0.238 0.057-0.057 0.13-0.085 0.221-0.085 0.045 0 0.147 0.040 0.306 0.119 0.159 0.091 0.329 0.187 0.51 0.289 0.193 0.102 0.312 0.164 0.357 0.187 0.828 0.419 1.729 0.765 2.704 1.037 0.986 0.283 1.882 0.425 2.687 0.425 1.077 0 2.024-0.085 2.84-0.255 0.816-0.159 1.706-0.442 2.67-0.85 0.17-0.079 0.34-0.17 0.51-0.272 0.181-0.091 0.374-0.198 0.578-0.323 0.215-0.113 0.38-0.204 0.493-0.272l-0.731-1.241zM26.122 9.571v18.35l-13.163-4.184c-0.159 0.068-2.285 0.794-6.378 2.177-4.093 1.372-6.179 2.058-6.258 2.058-0.147 0-0.249-0.074-0.306-0.221 0-0.011-0.006-0.028-0.017-0.051v-18.333c0.034-0.102 0.057-0.159 0.068-0.17 0.057-0.068 0.17-0.13 0.34-0.187 1.202-0.397 2.046-0.68 2.534-0.85v-6.531l9.49 3.367c0.023 0 0.93-0.312 2.721-0.935 1.803-0.624 3.594-1.236 5.374-1.837 1.791-0.612 2.71-0.918 2.755-0.918 0.227 0 0.34 0.119 0.34 0.357v7.109l2.5 0.799z"></path>
</svg>
