<svg width="9" height="13" viewBox="0 0 9 13" fill="none" xmlns="http://www.w3.org/2000/svg">
<path fill-rule="evenodd" clip-rule="evenodd" d="M7.59363 7.59878L2.44294 12.2921C1.99451 12.7007 1.27638 12.6997 0.83278 12.2955C0.386083 11.8885 0.390843 11.2344 0.836503 10.8283L5.42193 6.65007L0.836503 2.47182C0.388073 2.06321 0.389176 1.40886 0.83278 1.00465C1.27948 0.597615 1.99728 0.601952 2.44294 1.00804L7.59401 5.70171C7.69227 5.74899 7.78452 5.81034 7.86722 5.8857C8.09953 6.09738 8.20973 6.37587 8.19933 6.65154C8.20868 6.927 8.09765 7.20446 7.86722 7.41443C7.78422 7.49006 7.69186 7.55149 7.59363 7.59878Z" fill="#236852"/>
</svg>
