<svg width="19" height="20" viewBox="0 0 19 20" fill="none" xmlns="http://www.w3.org/2000/svg">
<path fill-rule="evenodd" clip-rule="evenodd" d="M8.54187 2.53321V0.625C8.54187 0.279999 8.82187 0 9.16687 0C9.51187 0 9.79187 0.279999 9.79187 0.625V2.53328C12.7155 2.84624 14.9998 5.32794 14.9998 8.33328V10.6567C14.9998 12.3059 15.7224 13.8625 16.9815 14.9275C17.314 15.2109 17.4998 15.6149 17.4998 16.0417C17.4998 16.8459 16.8457 17.5 16.0416 17.5H12.2291C11.9388 18.9248 10.6762 20 9.16687 20C7.65752 20 6.39491 18.9248 6.10463 17.5H2.29156C1.48727 17.5 0.83313 16.8459 0.83313 16.0417C0.83313 15.6149 1.01898 15.2109 1.34323 14.9333C2.61063 13.8625 3.33313 12.3059 3.33313 10.6567V8.33328C3.33313 5.32772 5.61783 2.84588 8.54187 2.53321ZM17.708 8.95834C17.363 8.95834 17.083 8.67834 17.083 8.33334C17.083 5.94 16.1515 3.69086 14.4597 1.99835C14.2156 1.75421 14.2156 1.3584 14.4597 1.11426C14.7039 0.870117 15.0997 0.870117 15.344 1.11426C17.2715 3.04251 18.333 5.60675 18.333 8.33334C18.333 8.67834 18.053 8.95834 17.708 8.95834ZM0.625 8.95831C0.279999 8.95831 0 8.67831 0 8.33331C0 5.60672 1.06171 3.04248 2.98996 1.11499C3.2341 0.87085 3.63007 0.87085 3.87421 1.11499C4.11835 1.35913 4.11835 1.7551 3.87421 1.99924C2.1817 3.69083 1.25 5.93997 1.25 8.33331C1.25 8.67831 0.970001 8.95831 0.625 8.95831ZM9.16687 18.75C9.98193 18.75 10.677 18.2277 10.9348 17.5H7.39888C7.65672 18.2277 8.35169 18.75 9.16687 18.75Z" fill="white"/>
</svg>
