<svg width="9" height="13" viewBox="0 0 9 13" fill="none" xmlns="http://www.w3.org/2000/svg">
<path fill-rule="evenodd" clip-rule="evenodd" d="M1.40617 5.70124L6.55687 1.00792C7.0053 0.599312 7.72342 0.600316 8.16702 1.00453C8.61372 1.41156 8.60896 2.06562 8.1633 2.4717L3.57788 6.64995L8.1633 10.8282C8.61173 11.2368 8.61063 11.8912 8.16702 12.2954C7.72033 12.7024 7.00253 12.6981 6.55687 12.292L1.40579 7.59831C1.30753 7.55102 1.21529 7.48968 1.13258 7.41432C0.900277 7.20264 0.79007 6.92415 0.800478 6.64847C0.791122 6.37302 0.902153 6.09555 1.13258 5.88558C1.21558 5.80995 1.30794 5.74853 1.40617 5.70124Z" fill="#666666"/>
</svg>
