<!-- Generated by IcoMoon.io -->
<svg version="1.1" xmlns="http://www.w3.org/2000/svg" width="32" height="32" viewBox="0 0 32 32">
<title>search</title>
<path d="M19.006 19.224c1.64-1.64 2.46-3.609 2.46-5.907s-0.82-4.261-2.46-5.888c-1.627-1.64-3.59-2.46-5.888-2.46s-4.267 0.82-5.907 2.46c-1.627 1.627-2.441 3.59-2.441 5.888s0.814 4.267 2.441 5.907c1.64 1.627 3.609 2.441 5.907 2.441s4.261-0.814 5.888-2.441zM31.006 28.82c0 0.646-0.236 1.205-0.708 1.677s-1.031 0.708-1.677 0.708c-0.671 0-1.23-0.236-1.677-0.708l-6.391-6.373c-2.224 1.54-4.702 2.311-7.435 2.311-1.776 0-3.478-0.342-5.106-1.025-1.615-0.696-3.012-1.627-4.193-2.795-1.168-1.18-2.099-2.578-2.795-4.193-0.683-1.627-1.025-3.329-1.025-5.106s0.342-3.472 1.025-5.087c0.696-1.627 1.627-3.025 2.795-4.193 1.18-1.18 2.578-2.112 4.193-2.795 1.627-0.696 3.329-1.043 5.106-1.043s3.472 0.348 5.087 1.043c1.627 0.683 3.025 1.615 4.193 2.795 1.18 1.168 2.112 2.565 2.795 4.193 0.696 1.615 1.043 3.311 1.043 5.087 0 2.733-0.77 5.211-2.311 7.435l6.391 6.391c0.46 0.46 0.689 1.019 0.689 1.677z"></path>
</svg>
