<svg width="34" height="28" viewBox="0 0 34 28" fill="none" xmlns="http://www.w3.org/2000/svg">
<path d="M9.63297 24.3671H6.23291V25.5004H9.63297V24.3671Z" fill="#236852"/>
<path d="M1.13335 22.667V3.42216C3.06005 3.41196 9.79726 3.42216 14.7336 3.42896V5.10009H15.8669V1.70003C15.8669 1.24915 15.6878 0.816744 15.369 0.497927C15.0502 0.179109 14.6178 0 14.1669 0H1.70003C1.24915 0 0.816744 0.179109 0.497927 0.497927C0.17911 0.816744 0 1.24915 0 1.70003V25.5004C0 25.9513 0.17911 26.3837 0.497927 26.7025C0.816744 27.0213 1.24915 27.2005 1.70003 27.2005H14.1669C14.6178 27.2005 15.0502 27.0213 15.369 26.7025C15.6878 26.3837 15.8669 25.9513 15.8669 25.5004V22.667H1.13335ZM1.70003 1.13335H14.1669C14.3172 1.13335 14.4613 1.19306 14.5676 1.29933C14.6739 1.4056 14.7336 1.54974 14.7336 1.70003V2.29561C5.89343 2.27804 2.48544 2.27237 1.13335 2.31544V1.70003C1.13335 1.54974 1.19306 1.4056 1.29933 1.29933C1.4056 1.19306 1.54974 1.13335 1.70003 1.13335ZM14.1669 26.0671H1.70003C1.54974 26.0671 1.4056 26.0074 1.29933 25.9011C1.19306 25.7949 1.13335 25.6507 1.13335 25.5004V23.8004H14.7336V25.5004C14.7336 25.6507 14.6739 25.7949 14.5676 25.9011C14.4613 26.0074 14.3172 26.0671 14.1669 26.0671Z" fill="#236852"/>
<path d="M32.2997 0H19.8328C19.382 0 18.9496 0.179109 18.6307 0.497927C18.3119 0.816744 18.1328 1.24915 18.1328 1.70003V3.96673H19.2662V3.42216C21.1929 3.41196 27.9301 3.42216 32.8664 3.42896V22.667H19.2662V22.1004H18.1328V25.5004C18.1328 25.9513 18.3119 26.3837 18.6307 26.7025C18.9496 27.0213 19.382 27.2005 19.8328 27.2005H32.2997C32.7506 27.2005 33.183 27.0213 33.5018 26.7025C33.8206 26.3837 33.9997 25.9513 33.9997 25.5004V1.70003C33.9997 1.24915 33.8206 0.816744 33.5018 0.497927C33.183 0.179109 32.7506 0 32.2997 0ZM19.2662 2.31544V1.70003C19.2662 1.54974 19.3259 1.4056 19.4321 1.29933C19.5384 1.19306 19.6825 1.13335 19.8328 1.13335H32.2997C32.45 1.13335 32.5941 1.19306 32.7004 1.29933C32.8067 1.4056 32.8664 1.54974 32.8664 1.70003V2.29561C24.0262 2.27804 20.6183 2.27237 19.2662 2.31544ZM32.2997 26.0671H19.8328C19.6825 26.0671 19.5384 26.0074 19.4321 25.9011C19.3259 25.7949 19.2662 25.6507 19.2662 25.5004V23.8004H32.8664V25.5004C32.8664 25.6507 32.8067 25.7949 32.7004 25.9011C32.5941 26.0074 32.45 26.0671 32.2997 26.0671Z" fill="#236852"/>
<path d="M27.7677 24.3671H24.3677V25.5004H27.7677V24.3671Z" fill="#236852"/>
<path d="M18.7004 14.7335C18.7004 14.2827 18.5212 13.8503 18.2024 13.5314C17.8836 13.2126 17.4512 13.0335 17.0003 13.0335C16.8882 13.0335 16.7787 13.0003 16.6855 12.938C16.5923 12.8757 16.5197 12.7872 16.4768 12.6837C16.4339 12.5801 16.4227 12.4662 16.4445 12.3563C16.4664 12.2464 16.5204 12.1454 16.5996 12.0661C16.6789 11.9869 16.7798 11.9329 16.8898 11.9111C16.9997 11.8892 17.1136 11.9004 17.2172 11.9433C17.3207 11.9862 17.4092 12.0588 17.4715 12.152C17.5338 12.2452 17.567 12.3548 17.567 12.4668H18.7004C18.6989 12.1165 18.5892 11.7751 18.3864 11.4895C18.1835 11.2038 17.8973 10.9879 17.567 10.8711V10.2001H16.4336V10.8711C16.0559 11.0041 15.7373 11.2666 15.5345 11.612C15.3317 11.9574 15.2577 12.3635 15.3256 12.7582C15.3934 13.153 15.5988 13.511 15.9054 13.7688C16.2119 14.0266 16.5998 14.1676 17.0003 14.1669C17.1124 14.1669 17.222 14.2001 17.3151 14.2624C17.4083 14.3246 17.481 14.4131 17.5239 14.5167C17.5668 14.6202 17.578 14.7342 17.5561 14.8441C17.5342 14.954 17.4803 15.055 17.401 15.1342C17.3218 15.2135 17.2208 15.2675 17.1109 15.2893C17.001 15.3112 16.887 15.3 16.7835 15.2571C16.6799 15.2142 16.5914 15.1416 16.5291 15.0484C16.4669 14.9552 16.4336 14.8456 16.4336 14.7335H15.3003C15.3017 15.0839 15.4114 15.4252 15.6143 15.7109C15.8172 15.9965 16.1033 16.2125 16.4336 16.3293V17.0002H17.567V16.3293C17.8973 16.2125 18.1835 15.9965 18.3864 15.7109C18.5892 15.4252 18.6989 15.0839 18.7004 14.7335Z" fill="#FFAA00"/>
<path d="M17.836 8.98178L18.7642 8.3301L18.1681 7.48009C19.5584 7.74607 20.8169 8.47738 21.7363 9.5537C22.6558 10.63 23.1815 11.9873 23.227 13.4021C23.2725 14.817 22.8351 16.2052 21.9867 17.3384C21.1383 18.4715 19.9295 19.2822 18.5591 19.637L18.8424 20.7352C20.4479 20.3207 21.8666 19.3766 22.869 18.0558C23.8714 16.7349 24.3988 15.1146 24.3661 13.4567C24.3333 11.7989 23.7422 10.2007 22.6884 8.92046C21.6346 7.64027 20.1797 6.75303 18.5591 6.40227L19.1824 5.96423L18.5302 5.03601L16.6737 6.33597C16.5507 6.42213 16.4669 6.55361 16.4408 6.70152C16.4146 6.84943 16.4483 7.00167 16.5343 7.12478L17.836 8.98178Z" fill="#236852"/>
<path d="M16.1643 18.2186L15.2361 18.8703L15.8322 19.7203C14.4419 19.4543 13.1834 18.723 12.264 17.6467C11.3445 16.5704 10.8188 15.2132 10.7733 13.7983C10.7278 12.3835 11.1652 10.9952 12.0136 9.86206C12.862 8.72888 14.0708 7.91821 15.4412 7.56343L15.1579 6.46521C13.5524 6.87974 12.1337 7.82379 11.1313 9.14463C10.129 10.4655 9.60148 12.0859 9.63425 13.7437C9.66702 15.4015 10.2581 16.9998 11.3119 18.28C12.3657 19.5602 13.8206 20.4474 15.4412 20.7982L14.8179 21.2362L15.4701 22.1644L17.3266 20.8645C17.4496 20.7783 17.5334 20.6468 17.5595 20.4989C17.5857 20.351 17.552 20.1987 17.466 20.0756L16.1643 18.2186Z" fill="#236852"/>
<path d="M8.50103 13.0336H7.36768V14.1669H8.50103V13.0336Z" fill="#236852"/>
<path d="M6.23394 13.0336H5.10059V14.1669H6.23394V13.0336Z" fill="#236852"/>
<path d="M26.6338 13.0336H25.5005V14.1669H26.6338V13.0336Z" fill="#236852"/>
<path d="M28.9009 13.0336H27.7676V14.1669H28.9009V13.0336Z" fill="#236852"/>
</svg>
