<!-- Generated by IcoMoon.io -->
<svg version="1.1" xmlns="http://www.w3.org/2000/svg" width="53" height="32" viewBox="0 0 53 32">
<title>sosanh</title>
<path d="M34.286 31.143c0-0.187-0.080-0.402-0.187-0.563l-4.286-5.143c-0.161-0.188-0.429-0.295-0.67-0.295h-15.429v-10.286h5.143c0.938 0 1.714-0.777 1.714-1.714 0-0.402-0.134-0.804-0.402-1.098l-8.571-10.286c-0.321-0.375-0.804-0.589-1.313-0.589s-0.991 0.214-1.312 0.589l-8.571 10.286c-0.268 0.295-0.402 0.696-0.402 1.098 0 0.938 0.777 1.714 1.714 1.714h5.143v15.428c0 0.67-0.134 1.714 0.857 1.714h25.714c0.455 0 0.857-0.402 0.857-0.857zM51.429 20c0-0.938-0.777-1.714-1.714-1.714h-5.143v-15.429c0-0.67 0.134-1.714-0.857-1.714h-25.714c-0.455 0-0.857 0.402-0.857 0.857 0 0.188 0.080 0.402 0.188 0.536l4.286 5.143c0.161 0.214 0.429 0.321 0.67 0.321h15.429v10.286h-5.143c-0.938 0-1.714 0.777-1.714 1.714 0 0.402 0.134 0.804 0.402 1.098l8.571 10.286c0.321 0.375 0.803 0.616 1.313 0.616s0.991-0.241 1.313-0.616l8.571-10.286c0.268-0.295 0.402-0.696 0.402-1.098z"></path>
</svg>
