<svg width="33" height="31" viewBox="0 0 33 31" fill="none" xmlns="http://www.w3.org/2000/svg">
<path d="M0.549045 12.6749C0.434437 12.9256 0.39137 13.2032 0.424601 13.4768C0.457833 13.7505 0.566069 14.0097 0.737353 14.2257C0.759172 14.2519 0.785936 14.2735 0.816114 14.2893C0.846293 14.3052 0.879297 14.3149 0.91324 14.318C0.947183 14.3211 0.981402 14.3175 1.01394 14.3073C1.04648 14.2972 1.07671 14.2807 1.10289 14.2589C1.12908 14.2371 1.1507 14.2103 1.16655 14.1802C1.18239 14.15 1.19213 14.117 1.19521 14.083C1.1983 14.0491 1.19467 14.0149 1.18453 13.9823C1.17439 13.9498 1.15794 13.9196 1.13612 13.8934C1.0258 13.7523 0.956998 13.5832 0.937432 13.4051C0.917866 13.2271 0.948312 13.0471 1.02535 12.8854C1.10872 12.6849 1.24603 12.5115 1.42202 12.3844C1.59801 12.2573 1.80579 12.1815 2.02228 12.1654C2.28369 12.1534 2.54456 12.1988 2.78659 12.2983C2.56162 12.573 2.40188 12.8952 2.31938 13.2405C2.23688 13.5859 2.23377 13.9454 2.31028 14.2922C2.35748 14.4725 2.46399 14.6318 2.61267 14.7443C2.76135 14.8568 2.94355 14.916 3.12997 14.9125C3.26375 14.9004 3.39468 14.8668 3.51767 14.8128C4.62536 14.4694 4.62536 13.7051 4.53674 13.406C4.40263 12.8982 4.0925 12.4546 3.66167 12.1543C3.78335 12.0799 3.91351 12.0204 4.04936 11.9771C4.42923 11.8966 4.82311 11.911 5.19604 12.0193C5.56897 12.1275 5.90943 12.326 6.18721 12.5974C5.22979 14.0146 4.71332 15.6834 4.7029 17.3937C4.73305 18.6701 5.02714 19.9264 5.56664 21.0836C6.10615 22.2408 6.87939 23.2737 7.83767 24.1174V30.5642C10.6623 30.5642 12.9552 30.6417 12.9552 28.4153V26.9974C15.6847 27.8471 18.5925 27.9466 21.3737 27.2854V28.3931C21.3737 30.6085 23.6666 30.531 26.5023 30.531V24.9925C28.1529 23.8103 29.4201 22.1695 30.1466 20.2737H30.9774C31.2691 20.2635 31.5491 20.1569 31.7736 19.9705C31.9981 19.784 32.1544 19.5284 32.218 19.2435L32.9713 15.5217C33.0058 15.4059 33.0093 15.2831 32.9812 15.1656C32.9531 15.0481 32.8946 14.9401 32.8114 14.8525C32.7283 14.7649 32.6235 14.7007 32.5077 14.6665C32.3918 14.6323 32.269 14.6293 32.1516 14.6577L30.3239 14.9125C29.7998 13.2526 28.8441 11.7617 27.5546 10.5925C27.4882 8.66506 29.0611 7.86753 29.0611 4.28967C27.3331 4.65521 23.9989 6.1506 22.7362 7.78999C21.3662 7.35208 19.9422 7.10605 18.5048 7.05891C18.3642 7.64789 18.0786 8.19239 17.674 8.64291C18.8596 8.62495 20.0105 9.04275 20.9085 9.81707C20.9621 9.86639 21.0047 9.92641 21.0337 9.99326C21.0627 10.0601 21.0773 10.1323 21.0766 10.2051C21.0759 10.278 21.0599 10.3499 21.0297 10.4161C20.9995 10.4824 20.9557 10.5416 20.9012 10.5899C20.8467 10.6382 20.7826 10.6746 20.7131 10.6966C20.6437 10.7185 20.5704 10.7257 20.498 10.7176C20.4256 10.7095 20.3557 10.6863 20.2929 10.6494C20.23 10.6126 20.1756 10.563 20.1331 10.5038C19.3061 9.83167 18.2472 9.5132 17.1866 9.61768C16.6613 9.56289 16.1303 9.61301 15.6245 9.76514C15.1187 9.91726 14.6481 10.1684 14.2401 10.5038C14.1356 10.6129 13.9924 10.6766 13.8414 10.6811C13.7147 10.6791 13.593 10.6319 13.498 10.5481C13.4019 10.4507 13.3481 10.3194 13.3481 10.1826C13.3481 10.0458 13.4019 9.91448 13.498 9.81707C13.5707 9.73834 13.6484 9.66434 13.7306 9.59553C12.9738 9.34067 12.3257 8.837 11.8918 8.1666C9.75509 8.97981 7.88711 10.3722 6.49736 12.1875C6.14529 11.8769 5.72596 11.6523 5.27235 11.5312C4.81874 11.4101 4.34323 11.3959 3.8832 11.4897C3.626 11.5764 3.38603 11.7076 3.17428 11.8774C2.81094 11.694 2.40681 11.6063 2.00012 11.6226C1.68687 11.6441 1.38564 11.7517 1.12961 11.9335C0.873576 12.1152 0.672679 12.3641 0.549045 12.6528V12.6749ZM25.6494 15.1562C25.4513 15.1583 25.257 15.1015 25.0914 14.9928C24.9258 14.8841 24.7963 14.7285 24.7195 14.5459C24.6426 14.3633 24.622 14.1619 24.6601 13.9675C24.6982 13.7731 24.7934 13.5944 24.9335 13.4544C25.0735 13.3143 25.2522 13.2191 25.4466 13.181C25.641 13.1429 25.8424 13.1635 26.025 13.2404C26.2076 13.3172 26.3632 13.4467 26.4719 13.6123C26.5806 13.7779 26.6374 13.9722 26.6352 14.1703C26.6352 14.4318 26.5314 14.6825 26.3465 14.8674C26.1616 15.0523 25.9109 15.1562 25.6494 15.1562ZM2.79766 14.126C2.75762 13.8527 2.77856 13.5738 2.85899 13.3096C2.93943 13.0453 3.07736 12.8021 3.2629 12.5974C3.63084 12.8252 3.9027 13.1798 4.0272 13.5943C4.09367 13.9709 3.87213 14.2368 3.36259 14.4029C2.85305 14.5691 2.85305 14.3365 2.79766 14.1814V14.126Z" fill="white"/>
<path d="M12.3792 6.21701C12.3792 5.70436 12.5312 5.20322 12.816 4.77697C13.1008 4.35071 13.5056 4.01849 13.9793 3.82231C14.4529 3.62612 14.9741 3.57479 15.4769 3.67481C15.9797 3.77482 16.4415 4.02168 16.804 4.38418C17.1665 4.74668 17.4134 5.20853 17.5134 5.71133C17.6134 6.21413 17.5621 6.7353 17.3659 7.20892C17.1697 7.68255 16.8375 8.08737 16.4112 8.37218C15.985 8.65699 15.4838 8.80901 14.9712 8.80901C14.6304 8.81048 14.2927 8.74443 13.9775 8.61469C13.6624 8.48495 13.3761 8.29408 13.1351 8.0531C12.8941 7.81212 12.7032 7.52579 12.5735 7.21065C12.4438 6.89552 12.3777 6.5578 12.3792 6.21701Z" fill="white"/>
<path d="M16.6659 2.35112C16.6637 1.9668 16.7758 1.59049 16.988 1.27002C17.2002 0.949551 17.5028 0.699379 17.8574 0.55129C18.2121 0.403201 18.6028 0.36388 18.9798 0.438323C19.3569 0.512765 19.7033 0.697611 19.9751 0.969375C20.2468 1.24114 20.4317 1.58756 20.5061 1.96461C20.5806 2.34166 20.5412 2.73234 20.3931 3.087C20.2451 3.44165 19.9949 3.74428 19.6744 3.95644C19.3539 4.1686 18.9776 4.2807 18.5933 4.27851C18.0821 4.27851 17.5919 4.07545 17.2304 3.71399C16.869 3.35254 16.6659 2.8623 16.6659 2.35112Z" fill="white"/>
<path d="M9.9091 3.44778C9.91779 3.18303 10.0041 2.92668 10.1573 2.71058C10.3105 2.49449 10.5238 2.32818 10.7707 2.23233C11.0177 2.13647 11.2873 2.11531 11.5462 2.17146C11.8051 2.22761 12.0417 2.35859 12.2268 2.54814C12.4118 2.73769 12.5371 2.97743 12.587 3.23758C12.6368 3.49773 12.6092 3.7668 12.5074 4.01135C12.4056 4.25591 12.2342 4.46516 12.0145 4.61311C11.7948 4.76105 11.5364 4.84116 11.2716 4.84347C11.0898 4.84352 10.9099 4.80721 10.7424 4.73667C10.5749 4.66614 10.4232 4.56279 10.2962 4.43274C10.1693 4.30268 10.0696 4.14854 10.0031 3.97938C9.93663 3.81022 9.90466 3.62947 9.9091 3.44778Z" fill="white"/>
</svg>
