<svg width="15" height="11" viewBox="0 0 15 11" fill="none" xmlns="http://www.w3.org/2000/svg">
<path d="M14.6952 2.01243C14.1882 2.21315 13.6435 2.34822 13.0719 2.40914C13.6622 2.09455 14.1038 1.59913 14.3143 1.01546C13.7594 1.30893 13.1523 1.51577 12.5193 1.62706C12.094 1.22146 11.5303 0.95246 10.9158 0.861881C10.3014 0.771301 9.67055 0.864213 9.12142 1.12617C8.57229 1.38814 8.13562 1.80447 7.87929 2.31046C7.62296 2.81646 7.56133 3.38376 7.70398 3.9242C6.58023 3.87407 5.48088 3.61379 4.47732 3.16027C3.47376 2.70674 2.58844 2.07012 1.87886 1.29174C1.6279 1.67651 1.49608 2.11378 1.49687 2.55885C1.49642 2.97353 1.6109 3.38188 1.83014 3.74762C2.04938 4.11336 2.36658 4.42515 2.75355 4.65528C2.30484 4.64259 1.86601 4.5346 1.47356 4.34027V4.37191C1.47349 4.95362 1.69922 5.51743 2.11244 5.96765C2.52566 6.41787 3.10091 6.72677 3.74056 6.84191C3.32442 6.94299 2.88786 6.95785 2.46428 6.88536C2.64478 7.38595 2.99629 7.82373 3.46964 8.13747C3.94299 8.4512 4.51451 8.6252 5.10426 8.63513C4.10331 9.33574 2.86699 9.71568 1.59435 9.71381C1.36654 9.71381 1.14138 9.702 0.919922 9.67839C2.21219 10.4184 3.71611 10.8113 5.25207 10.81C10.4504 10.81 13.2923 6.97131 13.2923 3.64225C13.2923 3.53316 13.2896 3.42453 13.2843 3.31638C13.8377 2.95984 14.3155 2.5183 14.6952 2.01243Z" fill="#757575"/>
</svg>
