<svg width="20" height="19" viewBox="0 0 20 19" fill="none" xmlns="http://www.w3.org/2000/svg">
<path fill-rule="evenodd" clip-rule="evenodd" d="M13.9173 3.81446C13.4381 4.77277 13.1177 6.15496 13.1177 7.7272C13.1177 9.29944 13.4381 10.6816 13.9173 11.6399C14.4213 12.6481 14.9635 12.9544 15.3146 12.9544C15.6657 12.9544 16.2079 12.6481 16.712 11.6399C17.1911 10.6816 17.5115 9.29944 17.5115 7.7272C17.5115 6.15496 17.1911 4.77277 16.712 3.81446C16.2079 2.80632 15.6657 2.50004 15.3146 2.50004C14.9635 2.50004 14.4213 2.80632 13.9173 3.81446ZM3.44674 6.24847L12.254 3.44042C11.7428 4.6256 11.451 6.12471 11.451 7.7272C11.451 9.3297 11.7428 10.8288 12.254 12.014L3.44674 9.20593L3.43128 9.20117C3.13963 9.11438 2.88755 8.92825 2.71876 8.67507C2.54997 8.42188 2.47512 8.1176 2.50718 7.81501C2.51336 7.75663 2.51336 7.69777 2.50718 7.6394C2.47512 7.3368 2.54997 7.03252 2.71876 6.77934C2.88755 6.52615 3.13963 6.34002 3.43128 6.25324L3.44674 6.24847ZM2.94754 4.65831L14.4676 0.985338C14.7317 0.887609 15.0141 0.833374 15.3146 0.833374C16.6371 0.833374 17.61 1.88379 18.2027 3.06911C18.8203 4.30427 19.1782 5.95232 19.1782 7.7272C19.1782 9.50208 18.8203 11.1501 18.2027 12.3853C17.61 13.5706 16.6371 14.621 15.3146 14.621C15.0141 14.621 14.7316 14.5668 14.4675 14.469L9.95321 13.0297L10.6888 15.2526C10.9098 15.8232 10.8995 16.458 10.6593 17.0216C10.4154 17.5941 9.95422 18.0463 9.37712 18.279L9.37593 18.2795C8.79847 18.5114 8.15261 18.5046 7.58016 18.2606C7.00772 18.0167 6.55548 17.5555 6.32275 16.9784C6.31857 16.968 6.31459 16.9576 6.31082 16.947L4.26397 11.2158L2.94754 10.7961C2.28639 10.5972 1.71508 10.1742 1.33201 9.59957C0.963642 9.04701 0.791579 8.38769 0.841799 7.7272C0.791579 7.06671 0.963642 6.40739 1.33201 5.85484C1.71508 5.28023 2.28639 4.85717 2.94754 4.65831ZM7.99059 12.404L6.26116 11.8526L7.87363 16.3675C7.9426 16.5293 8.07149 16.6583 8.23356 16.7274C8.39961 16.7981 8.58692 16.8002 8.75446 16.7331C8.92171 16.6654 9.05534 16.5342 9.12608 16.3682C9.19691 16.202 9.19888 16.0145 9.13157 15.8468C9.12513 15.8308 9.11919 15.8146 9.11376 15.7981L7.99059 12.404ZM15.7779 6.21956C16.1493 6.63401 16.3552 7.17069 16.3562 7.72721C16.3552 8.28374 16.1493 8.82042 15.7779 9.23487C15.4065 9.64933 14.8955 9.91255 14.3424 9.97435C14.167 9.23828 14.08 8.4839 14.0833 7.72721C14.08 6.97053 14.167 6.21615 14.3424 5.48008C14.8955 5.54188 15.4065 5.80511 15.7779 6.21956Z" fill="#DE0028"/>
</svg>
