<!-- Generated by IcoMoon.io -->
<svg version="1.1" xmlns="http://www.w3.org/2000/svg" width="32" height="32" viewBox="0 0 32 32">
<title>upfile</title>
<path d="M1.6 19.2c0.884 0 1.6 0.716 1.6 1.6v6.4c0 0.424 0.169 0.831 0.469 1.131s0.707 0.469 1.131 0.469h22.4c0.424 0 0.831-0.169 1.131-0.469s0.469-0.707 0.469-1.131v-6.4c0-0.884 0.716-1.6 1.6-1.6s1.6 0.716 1.6 1.6v6.4c0 1.273-0.506 2.494-1.406 3.394s-2.121 1.406-3.394 1.406h-22.4c-1.273 0-2.494-0.506-3.394-1.406s-1.406-2.121-1.406-3.394v-6.4c0-0.884 0.716-1.6 1.6-1.6z"></path>
<path d="M6.869 10.731c0.625 0.625 1.638 0.625 2.263 0l6.869-6.869 6.869 6.869c0.625 0.625 1.638 0.625 2.263 0s0.625-1.638 0-2.263l-8-8c-0.625-0.625-1.638-0.625-2.263 0l-8 8c-0.625 0.625-0.625 1.638 0 2.263z"></path>
<path d="M16 22.4c0.884 0 1.6-0.716 1.6-1.6v-19.2c0-0.884-0.716-1.6-1.6-1.6s-1.6 0.716-1.6 1.6v19.2c0 0.884 0.716 1.6 1.6 1.6z"></path>
</svg>
