<svg width="199" height="31" viewBox="0 0 199 31" fill="none" xmlns="http://www.w3.org/2000/svg">
<path d="M79.1078 22.5851H77.7378C77.1498 22.5522 76.5939 22.3058 76.1738 21.8919L65.9898 11.9205L75.6889 11.4098L79.7867 21.6244C79.8837 21.7947 80.2474 22.5608 79.2169 22.6216" fill="white"/>
<path d="M82.1266 2.2409V2.31387L75.5797 11.3733L65.8807 11.884L78.8046 1.19512C79.1851 0.885767 79.65 0.69923 80.1383 0.660065H81.2294C82.8297 0.733027 82.3084 1.87609 82.1023 2.22874" fill="white"/>
<path d="M19.1071 20.7975C19.3617 21.2231 19.3011 21.4785 18.9373 21.5636L14.403 22.5121C14.2336 22.526 14.0633 22.526 13.8938 22.5121C13.7265 22.5028 13.565 22.4465 13.4279 22.3498C13.2907 22.2531 13.1834 22.1197 13.1179 21.9649C12.8728 21.4696 12.674 20.9526 12.5239 20.4206C11.7884 21.1659 10.9155 21.7606 9.95362 22.1716C8.98452 22.5324 7.95607 22.7057 6.92266 22.6824C5.87589 22.6997 4.83401 22.5352 3.84322 22.196C2.99725 21.9264 2.23369 21.4451 1.62457 20.7975C1.30792 20.459 1.02754 20.0881 0.788023 19.6909C0.57452 19.3084 0.411503 18.8996 0.303071 18.4749C0.173754 17.9155 0.0926299 17.3459 0.0605952 16.7725C0.0605952 16.1158 0.0605952 15.3011 0.0605952 14.3404V1.79098C0.019244 1.59343 0.0275771 1.38865 0.0848428 1.19513C0.227745 1.07082 0.405742 0.994305 0.594042 0.976243L5.7709 0.210144C6.13462 0.210144 6.36497 0.210144 6.44984 0.210144C6.5347 0.210144 6.5832 0.489831 6.5832 0.830319V14.8268C6.52321 15.6602 6.66895 16.4955 7.00753 17.2589C7.195 17.5204 7.44943 17.7263 7.74394 17.8547C8.03844 17.9831 8.36207 18.0294 8.68062 17.9885C9.85602 17.9462 10.9708 17.4546 11.7964 16.6144V1.7545C11.7745 1.55189 11.8037 1.34699 11.8813 1.15865C12.0242 1.03434 12.2022 0.957824 12.3905 0.939762L17.4825 0.210144C17.8826 0.210144 18.1129 0.210144 18.1857 0.210144C18.2584 0.210144 18.2948 0.477671 18.2948 0.85464V16.4198C18.2755 17.2875 18.3405 18.1549 18.4888 19.01C18.6067 19.6446 18.8149 20.2589 19.1071 20.834" fill="#4BC999"/>
<path d="M38.5052 15.8605C38.5298 16.8751 38.3354 17.8831 37.9353 18.8154C37.5806 19.6444 37.0463 20.3837 36.3714 20.9799C35.6397 21.5841 34.7945 22.0349 33.886 22.3054C32.8688 22.6172 31.8095 22.769 30.7459 22.7553C29.1957 22.7716 27.6503 22.5794 26.151 22.1838C24.8845 21.8572 23.6629 21.3752 22.5139 20.7489C22.1986 20.5786 22.0532 20.4206 22.0532 20.2746C22.0649 20.0434 22.1057 19.8147 22.1744 19.5937L23.2413 16.0672C23.3019 15.8483 23.411 15.7145 23.5686 15.6902C23.7553 15.6644 23.9449 15.7077 24.1021 15.8118C24.5738 16.0627 25.0595 16.286 25.5569 16.4806C26.0904 16.6995 26.6481 16.9062 27.1937 17.1008C27.7246 17.2932 28.2673 17.4516 28.8182 17.5751C29.2762 17.6779 29.7433 17.7349 30.2125 17.7453C30.7568 17.7781 31.297 17.633 31.7522 17.3318C31.9344 17.1878 32.0799 17.0025 32.1769 16.7911C32.2738 16.5797 32.3194 16.3483 32.3099 16.1158C32.3094 15.8631 32.2388 15.6156 32.1061 15.4008C31.9733 15.1861 31.7836 15.0126 31.5582 14.8998C30.732 14.488 29.8818 14.1266 29.0122 13.8175C27.7998 13.3311 26.8542 12.8933 26.1268 12.5285C25.4301 12.1708 24.7955 11.7027 24.2476 11.1423C23.7764 10.654 23.402 10.0804 23.1443 9.45197C22.8373 8.67896 22.6889 7.85179 22.7078 7.01992C22.6956 6.06184 22.8997 5.11342 23.305 4.24575C23.7102 3.37808 24.306 2.61369 25.0477 2.00987C25.8149 1.3712 26.7009 0.891729 27.6544 0.599278C28.7066 0.274172 29.8026 0.114198 30.9035 0.125026C32.2084 0.103146 33.5099 0.262748 34.771 0.599278C35.7621 0.888438 36.7147 1.29674 37.608 1.81531C37.8384 1.96123 37.9596 2.08283 37.9596 2.20444C37.9413 2.3805 37.8963 2.55273 37.8262 2.71517L36.5047 5.94981C36.4199 6.18085 36.3229 6.31462 36.2259 6.33894C36.0504 6.34703 35.8767 6.30029 35.7288 6.20518C34.9893 5.88901 34.2255 5.59716 33.4253 5.32963C32.7204 5.10115 31.9838 4.98623 31.243 4.98915C30.6569 4.96794 30.0756 5.10216 29.5578 5.37828C29.3445 5.49829 29.169 5.67581 29.0512 5.89073C28.9333 6.10565 28.8778 6.34938 28.891 6.59431C28.8734 6.83991 28.927 7.08537 29.0453 7.30112C29.1636 7.51687 29.3416 7.69371 29.5578 7.81033C30.2593 8.16938 30.9797 8.49007 31.7158 8.771C33.1343 9.34253 34.2497 9.8411 35.0499 10.2546C35.8132 10.6472 36.5057 11.1651 37.0988 11.7868C38.0753 12.9111 38.5794 14.3712 38.5052 15.8605Z" fill="#4BC999"/>
<path d="M59.7581 12.1394C59.7581 12.5407 59.6854 12.7839 59.552 12.869C59.3243 12.9732 59.0744 13.0191 58.8246 13.0028H47.1979C47.1543 14.3113 47.5515 15.5965 48.3254 16.6509C48.7086 17.0448 49.173 17.3501 49.686 17.5454C50.199 17.7408 50.7484 17.8214 51.2957 17.7818C52.2389 17.798 53.179 17.6709 54.0842 17.4048C54.9251 17.1276 55.7371 16.7693 56.509 16.3347C56.588 16.2675 56.6819 16.2201 56.7827 16.1963C56.8836 16.1726 56.9887 16.1732 57.0893 16.1981C57.1899 16.223 57.2832 16.2716 57.3615 16.3397C57.4397 16.4079 57.5007 16.4937 57.5395 16.5901L58.9822 19.4964C59.0814 19.6278 59.1255 19.7928 59.1051 19.9564C59.0847 20.1199 59.0015 20.269 58.8731 20.3719C58.515 20.6344 58.1381 20.8701 57.7456 21.0772C56.6393 21.6654 55.4615 22.1068 54.2418 22.3905C53.1569 22.6462 52.0465 22.7768 50.932 22.7797C47.5858 22.7797 45.0762 21.819 43.4031 19.8977C41.7301 17.9763 40.8976 15.22 40.9056 11.6287C40.8916 10.0584 41.1206 8.49541 41.5846 6.99558C41.9872 5.66161 42.6508 4.42145 43.5365 3.34749C44.3842 2.35472 45.4398 1.56168 46.6281 1.02488C47.9206 0.447872 49.3234 0.16149 50.738 0.185817C53.8256 0.185817 56.1008 1.19512 57.5637 3.21373C59.0307 5.2445 59.7581 8.21161 59.7581 12.1394ZM52.593 5.39042C52.3413 5.07977 52.0171 4.83621 51.6491 4.68136C51.2812 4.52651 50.8807 4.46515 50.4834 4.50272C50.0718 4.46951 49.6582 4.53488 49.2766 4.69345C48.8951 4.85202 48.5566 5.09924 48.289 5.41475C47.7107 6.39684 47.3663 7.49967 47.2828 8.63722H53.3447C53.3976 7.49207 53.1421 6.35374 52.6051 5.34178" fill="white"/>
<path d="M103.816 11.2395C103.816 15.0579 103.137 17.9277 101.779 19.849C101.034 20.8304 100.056 21.6085 98.9329 22.1121C97.8103 22.6156 96.5796 22.8284 95.3536 22.731C94.6796 22.7426 94.007 22.6649 93.3532 22.5C92.7284 22.328 92.123 22.0917 91.5468 21.7947V29.4313C91.5696 29.6141 91.5401 29.7997 91.4619 29.9664C91.341 30.0692 91.1942 30.1365 91.0376 30.1609L85.6304 30.9757C85.3758 30.9757 85.206 30.9757 85.1212 30.9027C85.0123 30.7198 84.9655 30.5065 84.9878 30.2947V6.97125C85.0037 6.15312 84.9182 5.33617 84.7332 4.53919C84.5635 3.85822 84.3695 3.1894 84.1391 2.53275C84.0786 2.3721 84.0786 2.19482 84.1391 2.03417C84.1391 1.93689 84.2967 1.86393 84.5028 1.80313L88.831 0.319572C89.0217 0.246891 89.2218 0.20185 89.4251 0.185808C89.6555 0.185808 89.8737 0.380373 90.0677 0.769503C90.297 1.22544 90.4837 1.70173 90.6254 2.19226C91.3306 1.52738 92.1528 0.999597 93.0501 0.635739C93.9257 0.325216 94.8493 0.172881 95.778 0.185808C96.9563 0.105097 98.1352 0.334096 99.1983 0.850187C100.261 1.36628 101.172 2.1516 101.84 3.1286C103.284 5.57655 103.972 8.39931 103.816 11.2395ZM97.4389 11.4219C97.5449 9.76171 97.2755 8.09893 96.6509 6.5578C96.4641 6.12843 96.1576 5.7623 95.7683 5.50343C95.3791 5.24456 94.9235 5.10398 94.4565 5.09857C93.9818 5.09856 93.5119 5.19365 93.0744 5.37826C92.5204 5.63432 92.0092 5.97478 91.5589 6.38756V17.7453C92.3529 18.1474 93.2276 18.3636 94.117 18.3776C94.6364 18.3977 95.1527 18.2891 95.6204 18.0614C96.0675 17.8056 96.4268 17.4197 96.6509 16.9549C96.9676 16.2459 97.1682 15.4904 97.2449 14.7174C97.3833 13.6082 97.4481 12.4911 97.4389 11.3733" fill="white"/>
<path d="M120.026 1.34103C120.092 1.39795 120.139 1.47404 120.161 1.55892C120.183 1.6438 120.178 1.73333 120.147 1.81529C120.102 1.97326 120.045 2.12771 119.977 2.27738L118.534 6.08355C118.389 6.44836 118.158 6.5578 117.843 6.42404C117.569 6.26945 117.285 6.13139 116.995 6.01059C116.606 5.8717 116.194 5.80976 115.782 5.82819C115.356 5.83651 114.939 5.95369 114.57 6.16867C114.008 6.5316 113.505 6.9786 113.079 7.49415V21.3204C113.079 21.6609 113.079 21.8676 112.969 21.9163C112.791 21.9978 112.594 22.0273 112.4 22.0014H107.126C106.811 22.0014 106.629 22.0014 106.568 21.9163C106.508 21.8311 106.483 21.6609 106.483 21.3204V8.2116C106.494 7.09707 106.363 5.9857 106.095 4.904C105.841 3.91902 105.598 3.1286 105.38 2.53274C105.297 2.32818 105.232 2.11656 105.186 1.90041C105.138 1.69774 105.271 1.55181 105.586 1.46264L109.72 0.356049C109.915 0.283673 110.119 0.24263 110.327 0.234446C110.642 0.234446 110.933 0.489812 111.224 1.02487C111.565 1.71218 111.833 2.43361 112.024 3.17724L112.242 2.92187C112.301 2.84063 112.371 2.7671 112.448 2.70299C113.098 1.97654 113.84 1.33875 114.655 0.80598C115.39 0.378238 116.23 0.163551 117.079 0.185805C117.647 0.17867 118.212 0.281905 118.74 0.489812C119.234 0.658337 119.677 0.951465 120.026 1.34103Z" fill="white"/>
<path d="M139.06 12.1272C139.06 12.5285 138.987 12.7717 138.854 12.8569C138.626 12.961 138.376 13.007 138.126 12.9906H126.451C126.411 14.3006 126.813 15.5859 127.591 16.6387C127.974 17.0327 128.438 17.338 128.951 17.5333C129.464 17.7286 130.014 17.8093 130.561 17.7696C131.509 17.7829 132.453 17.6517 133.362 17.3805C134.204 17.1079 135.017 16.7493 135.787 16.3104C135.866 16.2432 135.959 16.1957 136.06 16.172C136.161 16.1483 136.266 16.1489 136.367 16.1738C136.467 16.1987 136.561 16.2473 136.639 16.3154C136.717 16.3835 136.778 16.4693 136.817 16.5657L138.272 19.4842C138.466 19.8652 138.429 20.1571 138.163 20.3598C137.809 20.628 137.431 20.8641 137.035 21.0651C135.924 21.6661 134.737 22.1159 133.507 22.4027C132.417 22.6481 131.303 22.7744 130.185 22.7797C126.823 22.7797 124.301 21.8149 122.62 19.8855C120.947 17.9642 120.098 15.216 120.098 11.6408C120.082 10.0615 120.315 8.48961 120.789 6.98343C121.197 5.64925 121.865 4.40936 122.753 3.33534C123.606 2.31969 124.675 1.50928 125.881 0.964081C127.178 0.385333 128.585 0.0989117 130.003 0.12502C133.107 0.12502 135.394 1.13838 136.866 3.1651C138.337 5.19181 139.068 8.17919 139.06 12.1272ZM131.858 5.35395C131.606 5.03743 131.278 4.78931 130.905 4.63215C130.533 4.47499 130.127 4.41378 129.725 4.45409C129.31 4.41831 128.892 4.48366 128.508 4.64458C128.124 4.8055 127.784 5.05722 127.518 5.37827C126.916 6.37448 126.559 7.49977 126.475 8.66155H132.537C132.597 7.51049 132.337 6.36544 131.786 5.35395" fill="white"/>
<path d="M157.828 15.8604C157.848 16.876 157.65 17.884 157.246 18.8154C156.883 19.6561 156.326 20.3981 155.621 20.9799C154.91 21.5806 154.085 22.0314 153.196 22.3054C152.179 22.6164 151.12 22.7682 150.056 22.7553C148.506 22.7731 146.96 22.5808 145.461 22.1838C144.204 21.8751 142.99 21.4094 141.848 20.7975C141.533 20.6273 141.376 20.4692 141.376 20.3233C141.393 20.0918 141.438 19.8632 141.509 19.6423L142.576 16.1158C142.576 15.8969 142.733 15.7632 142.891 15.7388C143.078 15.7119 143.268 15.7552 143.425 15.8604C143.897 16.109 144.383 16.3323 144.879 16.5293C145.425 16.7481 145.971 16.9549 146.528 17.1494C147.059 17.3433 147.601 17.5018 148.153 17.6237C148.607 17.727 149.07 17.7841 149.535 17.7939C150.079 17.8285 150.62 17.6833 151.075 17.3805C151.258 17.2378 151.405 17.0527 151.502 16.841C151.599 16.6293 151.644 16.3972 151.632 16.1644C151.635 15.9112 151.565 15.6624 151.432 15.4472C151.299 15.2319 151.108 15.0589 150.881 14.9484C150.058 14.5384 149.212 14.177 148.347 13.8661C147.134 13.3797 146.189 12.942 145.461 12.5772C144.793 12.2437 144.179 11.8089 143.643 11.2882C143.168 10.8006 142.789 10.227 142.527 9.59788C142.23 8.82236 142.086 7.99641 142.103 7.16582C142.085 6.20804 142.285 5.25875 142.689 4.39045C143.092 3.52215 143.688 2.7578 144.431 2.15578C145.164 1.47326 146.025 0.944119 146.965 0.599261C148.017 0.275854 149.113 0.115919 150.214 0.125009C151.519 0.102342 152.82 0.261958 154.081 0.599261C155.077 0.886358 156.034 1.29474 156.93 1.81529C157.161 1.96121 157.27 2.08282 157.27 2.20442C157.252 2.38048 157.207 2.55271 157.137 2.71515L155.815 6.01059C155.73 6.24164 155.633 6.3754 155.536 6.39972C155.37 6.42235 155.2 6.39261 155.051 6.3146C154.312 5.99843 153.536 5.70659 152.736 5.43906C152.041 5.17338 151.308 5.02146 150.565 4.98913C149.976 4.96806 149.39 5.10222 148.868 5.37826C148.658 5.50094 148.486 5.67938 148.37 5.89392C148.255 6.10846 148.2 6.35081 148.213 6.59429C148.196 6.83841 148.249 7.0824 148.365 7.29774C148.48 7.51308 148.655 7.69087 148.868 7.81032C149.571 8.16691 150.291 8.48754 151.026 8.77098C152.457 9.34252 153.56 9.84109 154.36 10.2545C155.117 10.6523 155.804 11.1696 156.397 11.7867C157.368 12.9143 157.871 14.3721 157.803 15.8604" fill="white"/>
<path d="M176.074 15.8605C176.091 16.8745 175.897 17.8808 175.504 18.8154C175.132 19.6503 174.576 20.3902 173.879 20.9799C173.166 21.5771 172.342 22.0275 171.455 22.3054C170.437 22.6165 169.378 22.7682 168.315 22.7553C166.764 22.7723 165.219 22.5801 163.72 22.1838C162.438 21.8787 161.2 21.413 160.034 20.7975C159.719 20.6273 159.561 20.4692 159.561 20.3233C159.579 20.0918 159.623 19.8632 159.695 19.6423L160.762 16.1158C160.762 15.8969 160.931 15.7632 161.089 15.7389C161.275 15.7142 161.465 15.7573 161.622 15.8605C162.094 16.1113 162.58 16.3346 163.077 16.5293C163.611 16.7482 164.156 16.9549 164.714 17.1494C165.245 17.3419 165.787 17.5003 166.338 17.6237C166.796 17.7265 167.264 17.7835 167.733 17.7939C168.277 17.8267 168.817 17.6817 169.272 17.3805C169.452 17.2352 169.596 17.0493 169.69 16.838C169.785 16.6267 169.829 16.3959 169.818 16.1645C169.82 15.9128 169.752 15.6655 169.621 15.4506C169.49 15.2358 169.303 15.0618 169.078 14.9484C168.252 14.5367 167.402 14.1753 166.532 13.8662C165.32 13.3798 164.374 12.942 163.647 12.5772C162.978 12.2437 162.365 11.8089 161.828 11.2882C161.357 10.8 160.983 10.2263 160.725 9.5979C160.418 8.82488 160.27 7.99771 160.289 7.16584C160.27 6.18057 160.487 5.20512 160.919 4.32033C161.319 3.48209 161.898 2.74291 162.616 2.1558C163.37 1.46356 164.257 0.933792 165.223 0.599278C166.291 0.26917 167.404 0.10914 168.521 0.125026C169.826 0.103146 171.127 0.262748 172.388 0.599278C173.379 0.888438 174.332 1.29674 175.225 1.81531C175.456 1.96123 175.565 2.08283 175.565 2.20444C175.552 2.38014 175.511 2.55262 175.443 2.71517L174.122 6.01061C174.025 6.24166 173.94 6.37542 173.843 6.39974C173.673 6.42332 173.499 6.3936 173.346 6.31462C172.606 5.99845 171.843 5.7066 171.043 5.43908C170.342 5.18578 169.605 5.04622 168.86 5.02563C168.274 5.00267 167.692 5.137 167.175 5.41476C166.962 5.53477 166.786 5.71229 166.668 5.92721C166.551 6.14213 166.495 6.38586 166.508 6.63079C166.491 6.87639 166.544 7.12185 166.663 7.3376C166.781 7.55336 166.959 7.7302 167.175 7.84682C167.875 8.20813 168.596 8.52888 169.333 8.80748C170.752 9.37901 171.867 9.87759 172.667 10.291C173.43 10.68 174.122 11.1937 174.716 11.8111C175.687 12.9386 176.19 14.3964 176.122 15.8848" fill="white"/>
<path d="M65.4685 1.34104C65.0448 0.905613 64.4738 0.645284 63.8681 0.61142H62.486C61.4555 0.61142 61.8192 1.45048 61.9162 1.60856L66.0504 11.3368H75.7495L65.4685 1.34104Z" fill="#72E8B2"/>
<path d="M62.7528 22.0865L75.7373 11.3611H66.0383L59.5278 20.9313V21.0043C59.3217 21.3569 58.8004 22.5 60.4008 22.5729H61.4798C61.9722 22.5362 62.4417 22.3495 62.8255 22.0379" fill="#4BC999"/>
<path d="M178.22 21.4055C178.22 21.2228 178.253 21.0417 178.317 20.8705C178.379 20.7078 178.479 20.562 178.608 20.4449C178.737 20.3283 178.884 20.2338 179.044 20.1652C179.23 20.0936 179.428 20.0605 179.626 20.0679C179.825 20.0614 180.022 20.0945 180.208 20.1652C180.373 20.2309 180.525 20.3256 180.657 20.4449C180.778 20.5684 180.876 20.7125 180.948 20.8705C181.011 21.0417 181.044 21.2228 181.045 21.4055C181.045 21.5844 181.012 21.7617 180.948 21.9284C180.879 22.088 180.78 22.2326 180.657 22.354C180.528 22.4774 180.375 22.5726 180.208 22.6337C180.021 22.6986 179.824 22.7315 179.626 22.731C179.428 22.7324 179.231 22.6995 179.044 22.6337C178.882 22.5697 178.734 22.4747 178.608 22.354C178.476 22.2391 178.376 22.0927 178.317 21.9284C178.252 21.7617 178.219 21.5844 178.22 21.4055Z" fill="#4BC999"/>
<path d="M185.543 19.6788L187.276 13.3676H189.895L186.743 22.7432H184.354L181.202 13.3676H183.809L185.543 19.6788Z" fill="#4BC999"/>
<path d="M193.29 13.3676L193.362 14.4499C193.691 14.0505 194.106 13.7305 194.575 13.5135C195.054 13.2947 195.576 13.1867 196.102 13.1973C196.514 13.1905 196.924 13.2521 197.315 13.3797C197.673 13.4986 197.994 13.708 198.248 13.9878C198.53 14.3064 198.738 14.6846 198.855 15.0944C199.008 15.6442 199.077 16.214 199.061 16.7846V22.7432H196.563V16.7603C196.574 16.5093 196.541 16.2582 196.466 16.0185C196.414 15.837 196.313 15.6731 196.175 15.5443C196.043 15.4279 195.885 15.3446 195.714 15.3011C195.504 15.2493 195.288 15.2248 195.072 15.2281C194.752 15.2161 194.435 15.294 194.156 15.453C193.878 15.612 193.649 15.8457 193.496 16.128V22.7432H190.998V13.3676H193.29Z" fill="#4BC999"/>
</svg>
