<?xml version="1.0" encoding="utf-8"?><svg xmlns="http://www.w3.org/2000/svg" xmlns:xlink="http://www.w3.org/1999/xlink"><symbol viewBox="0 0 16 16" id="address" xmlns="http://www.w3.org/2000/svg"><path fill-rule="evenodd" clip-rule="evenodd" d="M8 1.333a5.333 5.333 0 00-5.333 5.334c0 2.065 1.344 4.07 2.818 5.624A19.622 19.622 0 008 14.515a19.623 19.623 0 002.516-2.224c1.473-1.555 2.817-3.559 2.817-5.624A5.333 5.333 0 008 1.333zm0 14l-.37.555-.001-.002-.005-.002-.015-.01a7.106 7.106 0 01-.256-.181 20.935 20.935 0 01-2.836-2.484C2.99 11.597 1.334 9.268 1.334 6.667a6.667 6.667 0 1113.333 0c0 2.601-1.656 4.93-3.182 6.542a20.935 20.935 0 01-3.037 2.626l-.056.038-.015.01-.004.004H8.37L8 15.333zm0 0l.37.555a.667.667 0 01-.74 0l.37-.555z"/><path fill-rule="evenodd" clip-rule="evenodd" d="M8 5.333A1.333 1.333 0 108 8a1.333 1.333 0 000-2.667zM5.335 6.667a2.667 2.667 0 115.333 0 2.667 2.667 0 01-5.333 0z"/></symbol><symbol viewBox="0 0 32 32" id="authentication" xmlns="http://www.w3.org/2000/svg"><path d="M24.997 14.95L25 6.5 12.5.25 0 6.5v8.279a15.476 15.476 0 006.903 12.9l5.597 3.73 4.312-2.872a8.493 8.493 0 108.185-13.587zM12.5 30.209l-5.042-3.361A14.48 14.48 0 011 14.779V7.118l11.5-5.75L24 7.118v7.717c-.166-.01-.331-.025-.5-.025s-.334.015-.5.025v-7.1l-10.5-5.25L2 7.735v7.044a13.483 13.483 0 006.012 11.236l4.488 2.99 3.271-2.179c.14.305.298.602.473.888L12.5 30.209zm2.897-4.335l-2.897 1.93-3.932-2.62c-.194-.13-.382-.266-.568-.405V20.31H7v3.63a12.469 12.469 0 01-1.5-1.665V19.37c0-.688.468-1.287 1.135-1.454l3.391-.85a2.498 2.498 0 001.975 2.195v2.05h1v-2.05a2.495 2.495 0 001.974-2.195l2.226.559a8.458 8.458 0 00-1.803 8.25zM10 10.809h1.382a5.264 5.264 0 002.232-.5h.136L15 11.975v2.084l-1.666 1.25h-1.667L10 14.059v-3.25zm-.959-1a1.956 1.956 0 011.071-1.445 5.048 5.048 0 013.511-.221l.115.166h.761a.5.5 0 01.5.5v1.5l-.75-1h-.868l-.105.052a4.269 4.269 0 01-1.895.448H9.04zM14 16.059v.75a1.5 1.5 0 01-3 0v-.75l.334.25h2.333l.334-.25zm1-.019v-.73l1-.75V8.81a1.5 1.5 0 00-1.5-1.5h-.332c-.723-.44-2.524-.529-3.8-.13a3.112 3.112 0 00-2.367 3.13v.5h1v3.75l1 .75v.728l-3.609.907a2.497 2.497 0 00-1.891 2.424v1.35a12.49 12.49 0 01-1.5-5.939V8.354l9.5-4.75 9.5 4.75v6.426c0 .057-.003.114-.004.171a8.468 8.468 0 00-3.956 1.853l-3.04-.764zm8.5 14.769a7.5 7.5 0 117.5-7.5 7.51 7.51 0 01-7.5 7.5z"/><path d="M26 8.809h6v1h-6v-1zm0 2h4v1h-4v-1zm0 2h2v1h-2v-1zm-4.341 10.147l-1.767-1.768-2.829 2.828 4.596 4.596 7.778-7.778-2.829-2.828-4.949 4.95zm0 4.242l-3.182-3.182 1.415-1.414 1.767 1.767 4.95-4.95 1.415 1.414-6.364 6.364z"/></symbol><symbol viewBox="0 0 32 32" id="bar" xmlns="http://www.w3.org/2000/svg"><path d="M2.667 16c0-.736.597-1.333 1.333-1.333h24a1.333 1.333 0 010 2.666H4A1.333 1.333 0 012.667 16zm0-8c0-.736.597-1.333 1.333-1.333h24a1.333 1.333 0 010 2.666H4A1.333 1.333 0 012.667 8zm0 16c0-.736.597-1.333 1.333-1.333h24a1.333 1.333 0 010 2.666H4A1.333 1.333 0 012.667 24z"/></symbol><symbol viewBox="0 0 29 32" id="calendar" xmlns="http://www.w3.org/2000/svg"><path d="M22.16 17.701a.555.555 0 000-.765l-.782-.782a.555.555 0 00-.765 0l-7.551 7.551-3.742-3.742a.555.555 0 00-.765 0l-.782.782a.555.555 0 000 .765l4.898 4.898a.576.576 0 00.782 0l8.707-8.707zM2.177 29.605V12.19h23.946v17.415H2.177zm6.53-20.68a.537.537 0 01-.544.544H7.075a.537.537 0 01-.544-.544V4.027c0-.306.238-.544.544-.544h1.088c.306 0 .544.238.544.544v4.898zm13.062 0a.537.537 0 01-.544.544h-1.088a.537.537 0 01-.544-.544V4.027c0-.306.238-.544.544-.544h1.088c.306 0 .544.238.544.544v4.898zm6.53-1.088c0-1.19-.986-2.177-2.177-2.177h-2.177V4.027a2.73 2.73 0 00-2.721-2.721h-1.088a2.728 2.728 0 00-2.721 2.721V5.66h-6.531V4.027a2.728 2.728 0 00-2.721-2.721H7.075a2.728 2.728 0 00-2.721 2.721V5.66H2.177C.987 5.66 0 6.646 0 7.837v21.769c0 1.19.986 2.177 2.177 2.177h23.946c1.19 0 2.177-.986 2.177-2.177V7.837z"/></symbol><symbol viewBox="0 0 31 32" id="cart" xmlns="http://www.w3.org/2000/svg"><path d="M9.041 27.792a2.583 2.583 0 115.166 0 2.583 2.583 0 01-5.166 0zm14.209 0a2.583 2.583 0 115.166 0 2.583 2.583 0 01-5.166 0zM0 1.958C0 1.245.578.666 1.292.666h5.167c.616 0 1.146.434 1.267 1.038l1.085 5.42H29.71a1.292 1.292 0 011.268 1.533l-2.069 10.847a3.88 3.88 0 01-3.862 3.12H12.514a3.874 3.874 0 01-3.861-3.118L6.495 8.725a1.314 1.314 0 01-.022-.109L5.399 3.249H1.291A1.292 1.292 0 01-.001 1.957zm9.327 7.75l1.86 9.294a1.286 1.286 0 001.292 1.04h12.605a1.292 1.292 0 001.291-1.035l1.773-9.298H9.328z"/></symbol><symbol viewBox="0 0 32 32" id="check-box" xmlns="http://www.w3.org/2000/svg"><path d="M28.444 0H3.555A3.566 3.566 0 00-.001 3.556v24.889c0 1.956 1.6 3.556 3.556 3.556h24.889c1.956 0 3.556-1.6 3.556-3.556V3.556C32 1.6 30.4 0 28.444 0zm-16 24.889L3.555 16l2.489-2.489 6.4 6.4L25.955 6.4l2.489 2.489-16 16z"/></symbol><symbol viewBox="0 0 32 32" id="checked" xmlns="http://www.w3.org/2000/svg"><path d="M16 0C7.164 0 0 7.164 0 16s7.164 16 16 16c8.837 0 16-7.163 16-16S24.837 0 16 0zm-2.935 24.219L6.02 17.174l2.348-2.348 4.697 4.697L23.632 8.956l2.348 2.348-12.915 12.915z"/></symbol><symbol viewBox="0 0 18 18" id="compass" xmlns="http://www.w3.org/2000/svg"><path fill-rule="evenodd" clip-rule="evenodd" d="M9 2.25a6.75 6.75 0 100 13.5 6.75 6.75 0 000-13.5zM.75 9a8.25 8.25 0 1116.5 0A8.25 8.25 0 01.75 9z"/><path fill-rule="evenodd" clip-rule="evenodd" d="M12.71 5.29a.75.75 0 01.182.768l-1.59 4.77a.75.75 0 01-.474.474l-4.77 1.59a.75.75 0 01-.95-.949l1.59-4.77a.75.75 0 01.475-.474l4.77-1.59a.75.75 0 01.768.181zM8.004 8.003l-.997 2.992 2.991-.998.998-2.99-2.992.996z"/></symbol><symbol viewBox="0 0 32 32" id="delete" xmlns="http://www.w3.org/2000/svg"><path d="M16 2.909C8.77 2.909 2.909 8.77 2.909 16S8.77 29.091 16 29.091c7.23 0 13.091-5.861 13.091-13.091S23.23 2.909 16 2.909zM0 16C0 7.163 7.163 0 16 0s16 7.163 16 16-7.163 16-16 16S0 24.837 0 16z"/><path d="M21.392 10.608a1.455 1.455 0 010 2.057l-8.727 8.727a1.455 1.455 0 01-2.057-2.057l8.727-8.727a1.455 1.455 0 012.057 0z"/><path d="M10.608 10.608a1.455 1.455 0 012.057 0l8.727 8.727a1.455 1.455 0 01-2.057 2.057l-8.727-8.727a1.455 1.455 0 010-2.057z"/></symbol><symbol viewBox="0 0 32 32" id="edit" xmlns="http://www.w3.org/2000/svg"><path d="M4.364 5.818a1.455 1.455 0 00-1.455 1.455v20.364a1.455 1.455 0 001.455 1.455h20.364a1.455 1.455 0 001.455-1.455V19.87a1.455 1.455 0 012.91 0v7.767a4.36 4.36 0 01-4.363 4.364H4.366a4.36 4.36 0 01-4.364-4.364V7.273a4.36 4.36 0 014.364-4.364h7.767a1.455 1.455 0 010 2.91H4.366z"/><path d="M23.699.426a1.455 1.455 0 012.057 0l5.818 5.818a1.455 1.455 0 010 2.057L17.028 22.846a1.455 1.455 0 01-1.029.426h-5.818a1.455 1.455 0 01-1.455-1.454V16c0-.386.153-.756.426-1.029L23.698.426zM11.637 16.602v3.761h3.761L28.489 7.272l-3.761-3.761-13.091 13.091z"/></symbol><symbol viewBox="0 0 32 32" id="exclamation-mark" xmlns="http://www.w3.org/2000/svg"><path d="M16 0C7.164 0 0 7.164 0 16s7.164 16 16 16c8.837 0 16-7.162 16-16 0-8.836-7.163-16-16-16zm0 29C8.82 29 3 23.18 3 16S8.82 3 16 3s13 5.82 13 13-5.82 13-13 13zm.001-21.983c-1.146 0-2.013.598-2.013 1.564v8.86c0 .967.867 1.563 2.013 1.563 1.118 0 2.013-.621 2.013-1.563v-8.86c0-.943-.895-1.564-2.013-1.564zm0 13.983a2 2 0 00-1.997 1.998c0 1.1.896 1.996 1.997 1.996s1.996-.896 1.996-1.996A1.999 1.999 0 0016.001 21z"/></symbol><symbol viewBox="0 0 26 32" id="file" xmlns="http://www.w3.org/2000/svg"><path d="M1.278 1.278A4.364 4.364 0 014.364 0h10.182c.386 0 .756.153 1.028.426l10.182 10.182c.273.273.426.643.426 1.029v16a4.36 4.36 0 01-4.364 4.364H4.363a4.36 4.36 0 01-4.364-4.364V4.364c0-1.157.46-2.267 1.278-3.086zm3.086 1.631a1.455 1.455 0 00-1.455 1.455v23.273a1.455 1.455 0 001.455 1.455h17.455a1.455 1.455 0 001.455-1.455V12.239l-9.33-9.33H4.365z"/><path d="M14.545 0C15.348 0 16 .651 16 1.455v8.727h8.727a1.455 1.455 0 010 2.91H14.545a1.455 1.455 0 01-1.455-1.455V1.455C13.09.652 13.741 0 14.545 0z"/></symbol><symbol viewBox="0 0 32 32" id="giasoc" xmlns="http://www.w3.org/2000/svg"><path d="M30.4 8h-8.533V6.933h5.867a2.67 2.67 0 002.667-2.667V3.199h-1.067v1.067a1.602 1.602 0 01-1.6 1.6h-1.08a2.639 2.639 0 00.547-1.6V2.133a2.133 2.133 0 00-4.266 0v2.133a1.597 1.597 0 01-1.067 1.502v-.435a1.602 1.602 0 00-1.6-1.6h-1.067a1.602 1.602 0 00-1.6 1.6v.435a1.596 1.596 0 01-1.067-1.502V2.133a2.133 2.133 0 00-4.266 0v2.133c.002.579.194 1.141.547 1.6h-1.08a1.602 1.602 0 01-1.6-1.6V3.199H9.068v1.067a2.67 2.67 0 002.667 2.667h5.867V8H9.069a1.602 1.602 0 00-1.6 1.6v1.067a1.602 1.602 0 001.6 1.6v5.867h1.067v-5.867h6.933v5.867h1.067v-5.867h3.2v5.867h1.067v-5.867h6.933V25.6a.533.533 0 01-.533.533H23.47V27.2h5.333a1.602 1.602 0 001.6-1.6V12.267a1.602 1.602 0 001.6-1.6V9.6a1.602 1.602 0 00-1.6-1.6zM24 4.267V2.134a1.067 1.067 0 012.134 0v2.133a1.602 1.602 0 01-1.6 1.6h-1.068a2.655 2.655 0 00.535-1.6zm-9.066 1.6a1.602 1.602 0 01-1.6-1.6V2.134a1.067 1.067 0 012.134 0v2.133a2.649 2.649 0 00.535 1.6h-1.068zm3.733-.534c0-.295.239-.533.533-.533h1.067c.295 0 .533.239.533.533V8h-2.133V5.333zm-9.6 5.867a.533.533 0 01-.533-.533V9.6c0-.295.239-.533.533-.533H16V11.2H9.067zm8 0V9.067H22.4V11.2h-5.333zm13.867-.533a.533.533 0 01-.533.533h-6.933V9.067h6.933c.295 0 .533.239.533.533v1.067z"/><path d="M14.4 21.867h1.067v1.067H14.4v-1.067zm0 2.133h1.067v1.067H14.4V24zm0 2.133h1.067V27.2H14.4v-1.067zm0 2.134h1.067v1.067H14.4v-1.067z"/><path d="M20.8 19.2H1.6A1.602 1.602 0 000 20.8v1.647c.003.522.382.966.897 1.05a2.134 2.134 0 010 4.205A1.07 1.07 0 000 28.752v1.647a1.602 1.602 0 001.6 1.6h19.2a1.602 1.602 0 001.6-1.6v-9.6a1.602 1.602 0 00-1.6-1.6zm.533 11.2a.533.533 0 01-.533.533h-5.333V30.4H14.4v.533H1.6a.533.533 0 01-.533-.533l.011-1.646a3.198 3.198 0 00-.011-6.307V20.8c0-.295.239-.533.533-.533h12.8v.533h1.067v-.533H20.8c.295 0 .533.239.533.533v9.6z"/></symbol><symbol viewBox="0 0 30 32" id="gioihan" xmlns="http://www.w3.org/2000/svg"><path d="M14.284 32a14.215 14.215 0 009.826-3.895c2.581-2.446 4.099-5.706 4.294-9.205a2.718 2.718 0 001.152-2.221V2.703a2.712 2.712 0 00-1.682-2.5 2.72 2.72 0 00-1.039-.202h-6.67a2.678 2.678 0 00-2.491 1.668c-.134.328-.202.68-.199 1.034v1.905a14.854 14.854 0 00-3.18-.351C6.495 4.257.142 10.48.142 18.129s6.342 13.872 14.142 13.872zm9.14-4.617a13.175 13.175 0 01-6.575 3.377 12.946 12.946 0 003.571-4.015c.294-.514.557-1.045.787-1.59a12.898 12.898 0 012.482 1.97c-.087.087-.175.174-.265.259zm.942-.99a13.912 13.912 0 00-2.795-2.178c.538-1.553.86-3.173.956-4.813h4.31c.18-.001.36-.019.536-.055a12.636 12.636 0 01-3.007 7.045zm4.196-9.715a1.73 1.73 0 01-1.726 1.729h-6.67a1.695 1.695 0 01-1.208-.511 1.708 1.708 0 01-.488-1.218v-1.753h10.092v1.753zm0-2.749H18.47V3.553h10.092v10.376zM20.166.995h6.67c.915 0 1.666.711 1.722 1.563H18.444c.056-.853.807-1.563 1.722-1.563zm-2.691 4.632v.329c-.213-.158-.387-.311-.588-.457.197.038.374.081.588.128zm-2.7-.244c.995.502 1.848 1.141 2.701 1.905v5.374a14.21 14.21 0 01-2.701.365V5.383zm0 8.64a15.165 15.165 0 002.701-.34v2.994c-.011.322.037.643.142.948h-2.843v-3.602zm0 4.597h3.494a2.648 2.648 0 001.897.782h1.364a17.318 17.318 0 01-.845 4.33 14.395 14.395 0 00-5.91-1.499V18.62zm0 4.609a13.21 13.21 0 015.558 1.437 13.797 13.797 0 01-.777 1.582c-1.18 2.05-2.79 3.604-4.78 4.625v-7.644zm-9.934 3.855a12.81 12.81 0 012.493-1.954c.976 2.309 2.461 4.235 4.367 5.626a13.224 13.224 0 01-6.86-3.671zm8.939 3.788c-2.487-1.291-4.424-3.465-5.57-6.227a13.41 13.41 0 015.57-1.417v7.644zm0-8.639a14.59 14.59 0 00-5.919 1.474c-.523-1.551-.819-3.239-.865-5.087h6.784v3.613zm0-4.608H6.996c.046-1.848.342-3.531.865-5.081a14.612 14.612 0 005.919 1.479v3.602zm0-4.598a13.4 13.4 0 01-5.57-1.417c1.145-2.762 3.082-4.936 5.57-6.227v7.643zM11.702 5.5c-1.907 1.391-3.391 3.317-4.368 5.626a12.88 12.88 0 01-2.493-1.954 13.224 13.224 0 016.86-3.671zM4.168 9.902c.838.837 1.78 1.564 2.803 2.161-.59 1.693-.924 3.572-.971 5.562H1.14a12.693 12.693 0 013.028-7.723zM1.14 18.62H6c.047 1.99.381 3.873.971 5.566a13.836 13.836 0 00-2.803 2.161A12.704 12.704 0 011.14 18.62z"/><path d="M22.473 17.199h2.057a.496.496 0 00.352-.85.5.5 0 00-.352-.146h-2.057a.496.496 0 00-.352.85c.093.093.22.146.352.146zm-2.766-6.185l3.55 2.052a.487.487 0 00.494 0l3.561-2.052a.51.51 0 00.256-.43V6.481a.496.496 0 00-.256-.43l-3.558-2.052a.498.498 0 00-.5 0l-3.547 2.052a.484.484 0 00-.242.431v4.103a.49.49 0 00.242.431zm6.865-.718l-2.558 1.477V8.818l2.558-1.477v2.955zm-.513-3.816l-2.558 1.477-.816-.471 2.558-1.477.816.472zm-2.558-1.477l.747.431-2.558 1.477-.747-.431 2.558-1.477zM20.46 7.342l2.558 1.477v2.955l-2.558-1.477V7.342z"/></symbol><symbol viewBox="0 0 32 32" id="heart" xmlns="http://www.w3.org/2000/svg"><path d="M23.6 2c-3.363 0-6.258 2.736-7.599 5.594C14.659 4.736 11.764 2 8.4 2 3.763 2 0 5.764 0 10.401c0 9.433 9.516 11.906 16.001 21.232C22.131 22.365 32 19.533 32 10.401 32 5.764 28.237 2 23.6 2z"/></symbol><symbol viewBox="0 0 30 32" id="help" xmlns="http://www.w3.org/2000/svg"><path d="M15.158.411C6.787.411 0 7.351 0 15.906c0 8.559 6.787 15.495 15.158 15.495s15.158-6.935 15.158-15.495c0-8.554-6.787-15.495-15.158-15.495zm0 27.991c-6.756 0-12.224-5.588-12.224-12.496 0-6.903 5.469-12.496 12.224-12.496 6.753 0 12.224 5.59 12.224 12.496s-5.466 12.496-12.224 12.496zm6.555-15.945c0 4.189-4.426 4.254-4.426 5.802v.396c0 .414-.328.75-.733.75h-2.79a.742.742 0 01-.733-.75v-.541c0-2.233 1.656-3.126 2.908-3.843 1.073-.615 1.731-1.033 1.731-1.848 0-1.078-1.345-1.793-2.432-1.793-1.417 0-2.072.686-2.991 1.872a.724.724 0 01-1.019.133l-1.701-1.318a.763.763 0 01-.162-1.022c1.444-2.168 3.283-3.385 6.147-3.385 2.999 0 6.201 2.393 6.201 5.548zm-3.988 10.446c0 1.447-1.152 2.624-2.567 2.624s-2.567-1.177-2.567-2.624 1.152-2.624 2.567-2.624 2.567 1.177 2.567 2.624z"/></symbol><symbol viewBox="0 0 32 32" id="home" xmlns="http://www.w3.org/2000/svg"><path d="M32 18.451L16 6.031 0 18.451v-5.064L16 .967l16 12.42zM28 18v12h-8v-8h-8v8H4V18l12-9z"/></symbol><symbol viewBox="0 0 32 32" id="home2" xmlns="http://www.w3.org/2000/svg"><path d="M16 1L0 17l3 3 3-3v13h8v-6h4v6h8V17l3 3 3-3L16 1zm0 13a2 2 0 11-.001-3.999A2 2 0 0116 14z"/></symbol><symbol viewBox="0 0 27 32" id="language" xmlns="http://www.w3.org/2000/svg"><path d="M11.122 19.639c-.011.034-.085.034-.221 0-.125-.045-.3-.113-.527-.204l-.34-.153a10.307 10.307 0 01-1.48-.833 42.773 42.773 0 01-.697-.527c-.386-.306-.601-.471-.646-.493a28.905 28.905 0 01-2.279 3.078c-.918 1.077-1.514 1.701-1.786 1.871-.045.023-.159.045-.34.068-.17.023-.272.023-.306 0 .068-.045.533-.567 1.395-1.565.238-.272.72-.924 1.446-1.956.737-1.032 1.185-1.701 1.344-2.007.193-.34.482-.896.867-1.667.385-.782.59-1.224.612-1.326-.091-.011-.714.176-1.871.561-.091.023-.249.068-.476.136l-.578.153c-.17.045-.266.074-.289.085-.023.023-.034.085-.034.187 0 .091-.006.142-.017.153-.057.113-.232.198-.527.255a1.376 1.376 0 01-.799 0 .714.714 0 01-.476-.357c-.045-.068-.074-.198-.085-.391.068-.023.204-.051.408-.085a5.03 5.03 0 00.51-.102 31.835 31.835 0 001.786-.544c1.134-.397 1.712-.595 1.735-.595.113-.023.357-.13.731-.323.374-.204.624-.329.748-.374.102-.034.221-.079.357-.136.147-.057.232-.085.255-.085.023-.011.057-.011.102 0 .023.136.017.323-.017.561 0 .023-.074.176-.221.459l-.442.918a13.93 13.93 0 01-.289.561c-.283.567-.72 1.31-1.31 2.228l1.088.476c.136.068.556.249 1.258.544l1.156.476c.045.011.102.159.17.442.079.272.108.442.085.51zm-3.486-8.265a.691.691 0 01-.068.476c-.136.261-.42.476-.85.646-.34.136-.68.204-1.02.204-.295-.034-.573-.181-.833-.442-.159-.17-.261-.402-.306-.697l.017-.051c.034.034.142.062.323.085.193.023.346.023.459 0s.442-.113.986-.272c.408-.136.72-.215.935-.238.193 0 .312.096.357.289zm11.871 2.194l1.072 3.861-2.364-.714 1.293-3.146zM.663 27.174l11.803-3.946V5.677L.663 9.64v17.534zm21.106-5.392l1.735.527-3.078-11.173-1.701-.527-3.673 9.116 1.735.527.765-1.871 3.588 1.105.629 2.296zm-8.555-16.36l9.745 3.129V2.088l-9.745 3.333zm5.289 22.5l2.687.221-.918 2.721-.68-1.122a12.615 12.615 0 01-4.694 1.837c-.658.136-1.173.204-1.548.204h-1.429c-.896 0-2.029-.221-3.401-.663-1.361-.442-2.398-.924-3.112-1.446a.353.353 0 01-.051-.51.298.298 0 01.221-.085c.045 0 .147.04.306.119l.51.289.357.187c.828.419 1.729.765 2.704 1.037.986.283 1.882.425 2.687.425 1.077 0 2.024-.085 2.84-.255.816-.159 1.706-.442 2.67-.85.17-.079.34-.17.51-.272.181-.091.374-.198.578-.323.215-.113.38-.204.493-.272l-.731-1.241zm7.619-18.351v18.35l-13.163-4.184c-.159.068-2.285.794-6.378 2.177C2.488 27.286.402 27.972.323 27.972c-.147 0-.249-.074-.306-.221A.14.14 0 000 27.7V9.367a.77.77 0 01.068-.17c.057-.068.17-.13.34-.187a192.01 192.01 0 002.534-.85V1.629l9.49 3.367c.023 0 .93-.312 2.721-.935a750.577 750.577 0 015.374-1.837c1.791-.612 2.71-.918 2.755-.918.227 0 .34.119.34.357v7.109l2.5.799z"/></symbol><symbol viewBox="0 0 32 32" id="link" xmlns="http://www.w3.org/2000/svg"><path d="M17.134 2.465a8.768 8.768 0 0112.298.107 8.782 8.782 0 01.107 12.308l-.018.018-4.386 4.39a8.77 8.77 0 01-6.83 2.55 8.787 8.787 0 01-6.398-3.499 1.463 1.463 0 012.341-1.753 5.855 5.855 0 004.265 2.333 5.851 5.851 0 004.554-1.7l4.377-4.381a5.858 5.858 0 00-.08-8.197 5.846 5.846 0 00-8.191-.078l-2.507 2.495a1.464 1.464 0 01-2.062-2.076l2.53-2.517z"/><path d="M10.004 10.693a8.767 8.767 0 0110.091 2.968 1.462 1.462 0 11-2.342 1.753 5.855 5.855 0 00-4.265-2.333 5.851 5.851 0 00-4.554 1.7l-4.377 4.381a5.858 5.858 0 00.08 8.197 5.846 5.846 0 008.189.079l2.491-2.493a1.462 1.462 0 112.068 2.07l-2.518 2.52a8.768 8.768 0 01-12.297-.107 8.782 8.782 0 01-.107-12.308l.018-.018 4.386-4.39a8.778 8.778 0 013.138-2.019z"/></symbol><symbol viewBox="0 0 32 32" id="mail" xmlns="http://www.w3.org/2000/svg"><path d="M29.188 4.75H2.813A2.817 2.817 0 000 7.563v16.875a2.817 2.817 0 002.813 2.812h26.375A2.815 2.815 0 0032 24.438V7.563a2.816 2.816 0 00-2.812-2.813zm-.394 1.875L17.989 17.373c-.531.531-1.238.824-1.989.824s-1.457-.292-1.99-.825L3.207 6.626h25.587zM1.875 24.056V7.945l8.102 8.06-8.102 8.051zm1.333 1.319l8.099-8.048 1.379 1.371c.885.885 2.063 1.373 3.315 1.373s2.429-.488 3.313-1.371l1.38-1.373 8.099 8.048H3.208zm26.917-1.319l-8.102-8.051 8.102-8.06v16.111z"/></symbol><symbol viewBox="0 0 16 16" id="map" xmlns="http://www.w3.org/2000/svg"><path fill-rule="evenodd" clip-rule="evenodd" d="M5.003.755A.667.667 0 015.63.737l5.015 2.507 4.357-2.49a.667.667 0 01.997.58V12c0 .24-.128.46-.336.58l-4.667 2.666a.667.667 0 01-.629.017l-5.014-2.507-4.357 2.49A.667.667 0 010 14.667V4c0-.239.128-.46.336-.579L5.003.756zm.351 1.335l-4.02 2.297v9.131l3.669-2.097a.667.667 0 01.628-.017l5.015 2.507 4.02-2.298v-9.13l-3.669 2.096a.667.667 0 01-.629.018L5.354 2.089z"/><path fill-rule="evenodd" clip-rule="evenodd" d="M5.333.667c.368 0 .666.298.666.667V12a.667.667 0 11-1.333 0V1.334c0-.369.298-.667.667-.667zm5.334 2.666c.368 0 .666.298.666.667v10.666a.667.667 0 11-1.333 0V4c0-.369.299-.667.667-.667z"/></symbol><symbol viewBox="0 0 12 11" id="next" xmlns="http://www.w3.org/2000/svg"><path fill-rule="evenodd" clip-rule="evenodd" d="M1 1.357l2.96 3.16L1 7.678l1.272 1.358 4.232-4.517L2.272 0 1 1.357zm4.496 0l2.96 3.16-2.96 3.16 1.271 1.358L11 4.518 6.768 0 5.495 1.357z"/></symbol><symbol viewBox="0 0 27 32" id="next1" xmlns="http://www.w3.org/2000/svg"><path d="M.482.48L24.855 16 .482 31.52V.48z"/></symbol><symbol viewBox="0 0 48 32" id="next2" xmlns="http://www.w3.org/2000/svg"><path d="M23.744 16L1.024 0v32l22.72-16zm1.28 16l22.72-16-22.72-16v32z"/></symbol><symbol viewBox="0 0 32 32" id="padlock" xmlns="http://www.w3.org/2000/svg"><path d="M25 11.75h-2.252V6.611C22.748 2.966 19.72 0 15.998 0s-6.75 2.966-6.75 6.611v5.139H7a3.754 3.754 0 00-3.75 3.75v12.75A3.754 3.754 0 007 32h18a3.754 3.754 0 003.75-3.75V15.5A3.754 3.754 0 0025 11.75zM11.748 6.611c0-2.267 1.907-4.111 4.25-4.111s4.25 1.844 4.25 4.111v5.139h-8.5V6.611zM26.25 28.25c0 .689-.561 1.25-1.25 1.25H7c-.689 0-1.25-.561-1.25-1.25V15.5c0-.689.561-1.25 1.25-1.25h18c.689 0 1.25.561 1.25 1.25v12.75z"/><path d="M16 17.875a2.313 2.313 0 00-1.253 4.256v2.744a1.25 1.25 0 002.5 0v-2.741A2.31 2.31 0 0016 17.875z"/></symbol><symbol viewBox="0 0 32 32" id="phone" xmlns="http://www.w3.org/2000/svg"><path d="M25.397 21.639c0 .516-.238 1.528-.436 2.004-.595 1.309-3.095 2.262-4.464 2.262-1.329 0-2.54-.536-3.77-.992-4.345-1.587-9.067-6.309-10.655-10.655-.456-1.23-.992-2.44-.992-3.77 0-1.369.952-3.869 2.262-4.464.476-.198 1.488-.436 2.004-.436.099 0 .218 0 .317.04.357.119 1.825 3.016 2.143 3.571.218.377.655.833.655 1.29 0 .873-2.599 2.163-2.599 2.937 0 .397.357.893.556 1.25 1.468 2.619 3.274 4.425 5.893 5.893.357.198.853.556 1.25.556.774 0 2.063-2.599 2.936-2.599.456 0 .913.437 1.29.655.556.317 3.452 1.786 3.571 2.143.04.099.04.218.04.317zm5.079-15.417A5.716 5.716 0 0024.762.508H5.714A5.716 5.716 0 000 6.222V25.27a5.716 5.716 0 005.714 5.714h19.048a5.716 5.716 0 005.714-5.714V6.222z"/></symbol><symbol viewBox="0 0 27 32" id="prev1" xmlns="http://www.w3.org/2000/svg"><path d="M26.185.48L1.812 16l24.373 15.52V.48z"/></symbol><symbol viewBox="0 0 48 32" id="prev2" xmlns="http://www.w3.org/2000/svg"><path d="M24.256 16l22.72-16v32l-22.72-16zm-1.28 16L.256 16l22.72-16v32z"/></symbol><symbol viewBox="0 0 48 32" id="review" xmlns="http://www.w3.org/2000/svg"><path d="M44.571 16.571c-4.58 7.071-11.973 12-20.571 12s-15.991-4.929-20.571-12c2.545-3.938 6.027-7.313 10.205-9.455A11.91 11.91 0 0012 13.143c0 6.616 5.384 12 12 12s12-5.384 12-12c0-2.116-.562-4.205-1.634-6.027 4.178 2.143 7.661 5.518 10.205 9.455zM25.286 6.286c0 .696-.589 1.286-1.286 1.286-3.054 0-5.571 2.518-5.571 5.571 0 .696-.589 1.286-1.286 1.286s-1.286-.589-1.286-1.286C15.857 8.67 19.527 5 24 5c.696 0 1.286.589 1.286 1.286zM48 16.571c0-.67-.214-1.286-.536-1.848C42.535 6.634 33.509 1.143 24 1.143S5.464 6.634.536 14.723C.215 15.285 0 15.902 0 16.571s.214 1.286.536 1.848C5.465 26.508 14.491 31.999 24 31.999s18.536-5.464 23.464-13.58c.321-.563.536-1.179.536-1.848z"/></symbol><symbol viewBox="0 0 32 32" id="rss" xmlns="http://www.w3.org/2000/svg"><path d="M8.229 27.886c0-2.271-1.843-4.114-4.114-4.114S.001 25.615.001 27.886a4.115 4.115 0 008.228 0zM19.2 30.521a19.246 19.246 0 00-5.614-12.107A19.246 19.246 0 001.479 12.8h-.107c-.343 0-.686.129-.921.364-.3.257-.45.621-.45 1.007v2.893c0 .707.536 1.286 1.243 1.35a13.711 13.711 0 0112.343 12.343A1.354 1.354 0 0014.937 32h2.893c.386 0 .75-.15 1.007-.45.257-.279.386-.643.364-1.029zm10.972.043A30.173 30.173 0 0021.301 10.7 30.164 30.164 0 001.437 1.829h-.064a1.33 1.33 0 00-.943.386c-.279.257-.429.6-.429.986v3.064a1.36 1.36 0 001.286 1.35c12.45.729 22.371 10.65 23.079 23.1a1.365 1.365 0 001.371 1.286h3.064c.386 0 .729-.15.986-.429a1.31 1.31 0 00.386-1.007z"/></symbol><symbol viewBox="0 0 32 32" id="search" xmlns="http://www.w3.org/2000/svg"><path d="M19.006 19.224c1.64-1.64 2.46-3.609 2.46-5.907s-.82-4.261-2.46-5.888c-1.627-1.64-3.59-2.46-5.888-2.46s-4.267.82-5.907 2.46c-1.627 1.627-2.441 3.59-2.441 5.888s.814 4.267 2.441 5.907c1.64 1.627 3.609 2.441 5.907 2.441s4.261-.814 5.888-2.441zm12 9.596c0 .646-.236 1.205-.708 1.677s-1.031.708-1.677.708c-.671 0-1.23-.236-1.677-.708l-6.391-6.373c-2.224 1.54-4.702 2.311-7.435 2.311-1.776 0-3.478-.342-5.106-1.025-1.615-.696-3.012-1.627-4.193-2.795-1.168-1.18-2.099-2.578-2.795-4.193-.683-1.627-1.025-3.329-1.025-5.106s.342-3.472 1.025-5.087c.696-1.627 1.627-3.025 2.795-4.193 1.18-1.18 2.578-2.112 4.193-2.795C9.639.545 11.341.198 13.118.198s3.472.348 5.087 1.043c1.627.683 3.025 1.615 4.193 2.795 1.18 1.168 2.112 2.565 2.795 4.193a12.72 12.72 0 011.043 5.087c0 2.733-.77 5.211-2.311 7.435l6.391 6.391c.46.46.689 1.019.689 1.677z"/></symbol><symbol viewBox="0 0 32 32" id="smartphone" xmlns="http://www.w3.org/2000/svg"><path d="M6.364 29.509V2.484A2.487 2.487 0 018.848 0h14.304a2.487 2.487 0 012.484 2.484v27.032A2.487 2.487 0 0123.152 32H8.848a2.498 2.498 0 01-2.484-2.491zm17.67-23.75H7.972v18.187h16.062V5.759zm-.882-4.157H8.848a.883.883 0 00-.883.883v1.674h16.069V2.485a.884.884 0 00-.882-.883zm.882 27.907v-3.968H7.972v3.968c0 .484.392.883.883.883h14.297a.882.882 0 00.882-.883z"/><path d="M14.379 27.234h3.249a.803.803 0 110 1.608h-3.249a.803.803 0 110-1.608z"/></symbol><symbol viewBox="0 0 53 32" id="sosanh" xmlns="http://www.w3.org/2000/svg"><path d="M34.286 31.143c0-.187-.08-.402-.187-.563l-4.286-5.143a.913.913 0 00-.67-.295H13.714V14.856h5.143c.938 0 1.714-.777 1.714-1.714 0-.402-.134-.804-.402-1.098L11.598 1.758c-.321-.375-.804-.589-1.313-.589s-.991.214-1.312.589L.402 12.044A1.634 1.634 0 000 13.142c0 .938.777 1.714 1.714 1.714h5.143v15.428c0 .67-.134 1.714.857 1.714h25.714a.882.882 0 00.857-.857zM51.429 20c0-.938-.777-1.714-1.714-1.714h-5.143V2.857c0-.67.134-1.714-.857-1.714H18.001a.882.882 0 00-.857.857c0 .188.08.402.188.536l4.286 5.143a.85.85 0 00.67.321h15.429v10.286h-5.143c-.938 0-1.714.777-1.714 1.714 0 .402.134.804.402 1.098l8.571 10.286c.321.375.803.616 1.313.616s.991-.241 1.313-.616l8.571-10.286c.268-.295.402-.696.402-1.098z"/></symbol><symbol viewBox="0 0 32 32" id="star-full" xmlns="http://www.w3.org/2000/svg"><path d="M32 12.408l-11.056-1.607L16 .783l-4.944 10.018L0 12.408l8 7.798-1.889 11.011L16 26.018l9.889 5.199L24 20.206l8-7.798z"/></symbol><symbol viewBox="0 0 32 32" id="star-half" xmlns="http://www.w3.org/2000/svg"><path d="M32 12.408l-11.056-1.607L16 .783l-4.944 10.018L0 12.408l8 7.798-1.889 11.011L16 26.018l9.889 5.199L24 20.206l8-7.798zM16 23.547l-.029.015L16 5.725l3.492 7.075 7.807 1.134-5.65 5.507 1.334 7.776L16 23.546z"/></symbol><symbol viewBox="0 0 32 32" id="superscript2" xmlns="http://www.w3.org/2000/svg"><path d="M6.063 26l1.8-6h8.274l1.8 6h3.551l-6-20H8.512l-6 20h3.551zm4.8-16h2.274l1.8 6H9.063l1.8-6zM22 26l5-8 5 8H22zm5-22h-2c-.551 0-1-.449-1-1s.449-1 1-1h4a1 1 0 000-2h-4c-1.654 0-3 1.346-3 3 0 .768.29 1.469.766 2 .55.613 1.347 1 2.234 1h2c.551 0 1 .449 1 1s-.449 1-1 1h-4a1 1 0 000 2h4c1.654 0 3-1.346 3-3 0-.768-.29-1.469-.766-2-.55-.613-1.347-1-2.234-1z"/></symbol><symbol viewBox="0 0 25 32" id="thutuc" xmlns="http://www.w3.org/2000/svg"><path d="M22.592 2.212h-4.28c-.233-.642-.885-1.106-1.651-1.106h-1.81C14.302.417 13.431 0 12.509 0s-1.792.417-2.342 1.106h-1.81c-.766 0-1.418.464-1.651 1.106h-4.28c-1.288 0-2.335.977-2.335 2.177v25.434c0 1.2 1.048 2.177 2.335 2.177h20.166c1.288 0 2.335-.977 2.335-2.177V4.389c0-1.2-1.048-2.177-2.335-2.177zM6.706 5.46c.233.642.885 1.106 1.651 1.106h8.304c.766 0 1.418-.464 1.651-1.106h3.131v23.292H3.575V5.46h3.131zm1.651-3.317h2.108a.565.565 0 00.481-.258c.332-.531.916-.848 1.563-.848s1.231.317 1.563.848c.1.16.283.258.481.258h2.108c.348 0 .63.264.63.587v2.212c0 .324-.283.587-.63.587H8.357c-.347 0-.629-.263-.63-.586V2.73c0-.324.283-.587.63-.587zm15.458 27.68c0 .629-.549 1.14-1.223 1.14H2.426c-.675 0-1.223-.512-1.223-1.14V4.389c0-.629.549-1.14 1.223-1.14h4.189v1.175H3.019c-.307 0-.556.232-.556.518V29.27c0 .286.249.518.556.518h18.98c.307 0 .556-.232.556-.518V4.942c0-.286-.249-.518-.556-.518h-3.596V3.249h4.189c.675 0 1.223.512 1.223 1.14v25.434z"/><path d="M12.509 4.354c.307 0 .556-.232.556-.518V2.73c0-.286-.249-.518-.556-.518s-.556.232-.556.518v1.106c0 .286.249.518.556.518zm.593 7.188h3.559c.307 0 .556-.232.556-.518s-.249-.518-.556-.518h-3.559c-.307 0-.556.232-.556.518s.249.518.556.518zm0 2.212h5.931c.307 0 .556-.232.556-.518s-.249-.518-.556-.518h-5.931c-.307 0-.556.232-.556.518s.249.518.556.518zm-5.731-.152c.109.101.251.152.393.152s.285-.051.393-.152l2.966-2.765c.217-.202.217-.531 0-.733s-.569-.202-.786 0l-2.572 2.398-1.386-1.292c-.217-.202-.569-.202-.786 0s-.217.531 0 .733l1.779 1.659zm5.731 3.469h3.559c.307 0 .556-.232.556-.518s-.249-.518-.556-.518h-3.559c-.307 0-.556.232-.556.518s.249.518.556.518zm0 2.212h5.931c.307 0 .556-.232.556-.518s-.249-.518-.556-.518h-5.931c-.307 0-.556.232-.556.518s.249.518.556.518zm-5.731-.152c.109.101.251.152.393.152s.285-.051.393-.152l2.966-2.765c.217-.203.217-.531 0-.733s-.569-.202-.786 0l-2.572 2.398-1.386-1.292c-.217-.202-.569-.202-.786 0s-.217.531 0 .733l1.779 1.659zm5.731 3.469h3.559c.307 0 .556-.232.556-.518s-.249-.518-.556-.518h-3.559c-.307 0-.556.232-.556.518s.249.518.556.518zm0 2.212h5.931c.307 0 .556-.232.556-.518s-.249-.518-.556-.518h-5.931c-.307 0-.556.232-.556.518s.249.518.556.518zm-5.731-.152c.109.101.251.152.393.152s.285-.051.393-.152l2.966-2.765c.217-.203.217-.531 0-.733s-.569-.202-.786 0L7.765 23.56l-1.386-1.292c-.217-.202-.569-.202-.786 0s-.217.531 0 .733l1.779 1.659z"/></symbol><symbol viewBox="0 0 32 32" id="tietkiem" xmlns="http://www.w3.org/2000/svg"><path d="M7.937 14.179a1.067 1.067 0 01-1.067-1.067H5.803a2.133 2.133 0 004.266 0H9.002c0 .589-.478 1.067-1.067 1.067z"/><path d="M31.404 21.646v-1.6a1.6 1.6 0 00-1.6-1.6c0-3.68-2.492-7.106-6.528-9.045a4.797 4.797 0 10-9.451-1.493c-.393.047-.786.102-1.179.175a4.813 4.813 0 00-4.175-2.437.533.533 0 00-.533.533v3.55a11.716 11.716 0 00-4.712 4.45H1.005c-.589 0-1.067.478-1.067 1.067v6.4c0 .589.478 1.067 1.067 1.067h2.221a11.607 11.607 0 004.179 4.135v3.865c0 .589.478 1.067 1.067 1.067h3.2c.589 0 1.067-.478 1.067-1.067v-1.892c3.222.596 6.546.282 9.6-.907v2.799c0 .589.478 1.067 1.067 1.067h3.2c.589 0 1.067-.478 1.067-1.067v-6.58a9.101 9.101 0 002.056-4.62h.077c.295 0 .533.239.533.533v1.6c0 .589.478 1.067 1.067 1.067h.533v-1.067h-.533zM14.871 8.313a3.733 3.733 0 117.265 1.205 3.728 3.728 0 01-3.905 2.51 3.756 3.756 0 01-3.36-3.649v-.065zm11.861 15.28a.533.533 0 00-.127.346v6.773h-3.2v-3.611a.533.533 0 00-.758-.483 16.476 16.476 0 01-10.327 1.03.533.533 0 00-.648.52v2.544h-3.2v-4.171a.534.534 0 00-.267-.463 10.517 10.517 0 01-4.187-4.146.534.534 0 00-.474-.287H1.005v-6.4h2.539a.531.531 0 00.472-.287 10.657 10.657 0 014.699-4.434.532.532 0 00.29-.474v-3.3a3.749 3.749 0 012.864 2.156.533.533 0 00.593.302c.461-.095.927-.173 1.389-.231.01.073.027.144.041.216.012.061.021.123.035.184.022.097.053.192.079.287.015.049.026.099.042.147.047.141.1.28.16.415.013.03.03.058.044.088.048.107.099.209.155.31.027.048.058.094.087.142.048.078.094.16.146.234.035.051.073.099.107.148.053.069.102.139.157.205.04.049.083.095.125.143.056.063.112.124.171.184.045.046.093.09.14.134.061.056.122.111.184.165l.079.068h-1.797v1.067h9.6v-1.067H21.62c.026-.021.053-.04.077-.061l.007-.006a4.87 4.87 0 00.444-.43l.039-.042c.133-.149.256-.307.368-.472l.053-.073c.108-.165.207-.336.294-.513.008-.014.017-.027.024-.041 3.599 1.766 5.813 4.807 5.813 8.038a7.91 7.91 0 01-2.006 5.147z"/><path d="M18.604 9.913a.533.533 0 01-.533-.533h-1.067a1.6 1.6 0 001.067 1.502v.631h1.067v-.631a1.596 1.596 0 00-.534-3.102.533.533 0 11.533-.533h1.067a1.601 1.601 0 00-1.067-1.502v-.631H18.07v.631a1.596 1.596 0 00.534 3.102.533.533 0 010 1.066zm5.867-8h1.067V2.98h-1.067V1.913zm1.067 1.066h1.067v1.067h-1.067V2.979zm-2.134 0h1.067v1.067h-1.067V2.979zm1.067 1.067h1.067v1.067h-1.067V4.046zm4.8 2.133h1.067v1.067h-1.067V6.179zm1.066 1.067h1.067v1.067h-1.067V7.246zm-2.133 0h1.067v1.067h-1.067V7.246zm1.067 1.067h1.067V9.38h-1.067V8.313zm-17.067-8h1.067V1.38h-1.067V.313zm1.067 1.066h1.067v1.067h-1.067V1.379z"/><path d="M11.138 1.379h1.067v1.067h-1.067V1.379zm1.066 1.067h1.067v1.067h-1.067V2.446z"/></symbol><symbol viewBox="0 0 32 32" id="upfile" xmlns="http://www.w3.org/2000/svg"><path d="M1.6 19.2a1.6 1.6 0 011.6 1.6v6.4a1.6 1.6 0 001.6 1.6h22.4a1.6 1.6 0 001.6-1.6v-6.4a1.6 1.6 0 113.2 0v6.4a4.8 4.8 0 01-4.8 4.8H4.8A4.8 4.8 0 010 27.2v-6.4a1.6 1.6 0 011.6-1.6zm5.269-8.469a1.6 1.6 0 002.263 0l6.869-6.869 6.869 6.869a1.6 1.6 0 102.263-2.263l-8-8a1.6 1.6 0 00-2.263 0l-8 8a1.6 1.6 0 000 2.263z"/><path d="M16 22.4a1.6 1.6 0 001.6-1.6V1.6a1.6 1.6 0 10-3.2 0v19.2a1.6 1.6 0 001.6 1.6z"/></symbol><symbol viewBox="0 0 27 32" id="user" xmlns="http://www.w3.org/2000/svg"><path d="M18.69 18.857c2.183 0 4.048.794 5.595 2.381 1.587 1.548 2.381 3.413 2.381 5.595v1.548c0 .794-.278 1.468-.833 2.024s-1.23.833-2.024.833H2.857c-.794 0-1.468-.278-2.024-.833S0 29.175 0 28.381v-1.548c0-2.183.774-4.048 2.321-5.595 1.587-1.587 3.472-2.381 5.655-2.381.516 0 1.27.159 2.262.476 1.032.317 2.063.476 3.095.476s2.064-.159 3.095-.476c1.032-.317 1.786-.476 2.262-.476zm5.12 9.524v-1.548c0-1.389-.516-2.579-1.548-3.572-.992-1.032-2.183-1.548-3.572-1.548-.119 0-.754.159-1.905.476-1.111.317-2.262.476-3.452.476s-2.361-.159-3.512-.476c-1.111-.317-1.726-.476-1.845-.476-1.389 0-2.599.516-3.631 1.548-.992.992-1.488 2.183-1.488 3.572v1.548h20.952zm-4.405-12.976c-1.667 1.667-3.691 2.5-6.071 2.5s-4.405-.833-6.071-2.5c-1.667-1.667-2.5-3.691-2.5-6.071s.833-4.405 2.5-6.071c1.667-1.667 3.69-2.5 6.071-2.5s4.405.833 6.071 2.5c1.667 1.667 2.5 3.69 2.5 6.071s-.833 4.405-2.5 6.071zM17.381 5.286c-1.111-1.111-2.46-1.667-4.048-1.667s-2.937.556-4.048 1.667c-1.111 1.111-1.667 2.46-1.667 4.048s.556 2.937 1.667 4.048c1.111 1.111 2.46 1.667 4.048 1.667s2.937-.556 4.048-1.667c1.111-1.111 1.667-2.46 1.667-4.048s-.556-2.937-1.667-4.048z"/></symbol><symbol viewBox="0 0 15 15" id="vector" xmlns="http://www.w3.org/2000/svg"><path fill-rule="evenodd" clip-rule="evenodd" d="M14.79.21c.214.213.27.537.141.81L8.503 14.592a.714.714 0 01-1.339-.133L5.84 9.16.54 7.836a.714.714 0 01-.13-1.339L13.979.07a.714.714 0 01.812.14zM2.825 6.933l3.778.944a.714.714 0 01.52.52l.944 3.778 4.718-9.96-9.96 4.718z"/></symbol></svg>