<svg width="132" height="34" viewBox="0 0 132 34" fill="none" xmlns="http://www.w3.org/2000/svg">
<rect width="132" height="34" rx="10" fill="#DF4A32"/>
<path d="M66.5039 20.6943C66.1667 21.1774 65.695 21.5397 65.0889 21.7812C64.4873 22.0182 63.7855 22.1367 62.9834 22.1367C62.1722 22.1367 61.4521 21.9476 60.8232 21.5693C60.1943 21.1865 59.7067 20.6442 59.3604 19.9424C59.0186 19.2406 58.8431 18.4271 58.834 17.502V16.6338C58.834 15.1344 59.1826 13.9723 59.8799 13.1475C60.5817 12.3226 61.5661 11.9102 62.833 11.9102C63.8721 11.9102 64.7083 12.1768 65.3418 12.71C65.9753 13.2386 66.3626 13.9906 66.5039 14.9658H65.1914C64.9453 13.6488 64.1615 12.9902 62.8398 12.9902C61.9603 12.9902 61.2926 13.3001 60.8369 13.9199C60.3857 14.5352 60.1579 15.4284 60.1533 16.5996V17.4131C60.1533 18.5296 60.4085 19.4183 60.9189 20.0791C61.4294 20.7354 62.1198 21.0635 62.9902 21.0635C63.4824 21.0635 63.9131 21.0088 64.2822 20.8994C64.6514 20.79 64.9567 20.6055 65.1982 20.3457V18.1104H62.8945V17.0439H66.5039V20.6943ZM68.165 18.2334C68.165 17.5088 68.3063 16.8571 68.5889 16.2783C68.876 15.6995 69.2725 15.2529 69.7783 14.9385C70.2887 14.624 70.8698 14.4668 71.5215 14.4668C72.5286 14.4668 73.3421 14.8154 73.9619 15.5127C74.5863 16.21 74.8984 17.1374 74.8984 18.2949V18.3838C74.8984 19.1038 74.7594 19.751 74.4814 20.3252C74.208 20.8949 73.8138 21.3392 73.2988 21.6582C72.7884 21.9772 72.2005 22.1367 71.5352 22.1367C70.5326 22.1367 69.7191 21.7881 69.0947 21.0908C68.4749 20.3936 68.165 19.4707 68.165 18.3223V18.2334ZM69.4365 18.3838C69.4365 19.2041 69.6257 19.8626 70.0039 20.3594C70.3867 20.8561 70.8971 21.1045 71.5352 21.1045C72.1777 21.1045 72.6882 20.8538 73.0664 20.3525C73.4447 19.8467 73.6338 19.1403 73.6338 18.2334C73.6338 17.4222 73.4401 16.766 73.0527 16.2646C72.6699 15.7588 72.1595 15.5059 71.5215 15.5059C70.8971 15.5059 70.3936 15.7542 70.0107 16.251C69.6279 16.7477 69.4365 17.4587 69.4365 18.3838ZM76.1494 18.2334C76.1494 17.5088 76.2907 16.8571 76.5732 16.2783C76.8604 15.6995 77.2568 15.2529 77.7627 14.9385C78.2731 14.624 78.8542 14.4668 79.5059 14.4668C80.513 14.4668 81.3265 14.8154 81.9463 15.5127C82.5706 16.21 82.8828 17.1374 82.8828 18.2949V18.3838C82.8828 19.1038 82.7438 19.751 82.4658 20.3252C82.1924 20.8949 81.7982 21.3392 81.2832 21.6582C80.7728 21.9772 80.1849 22.1367 79.5195 22.1367C78.5169 22.1367 77.7035 21.7881 77.0791 21.0908C76.4593 20.3936 76.1494 19.4707 76.1494 18.3223V18.2334ZM77.4209 18.3838C77.4209 19.2041 77.61 19.8626 77.9883 20.3594C78.3711 20.8561 78.8815 21.1045 79.5195 21.1045C80.1621 21.1045 80.6725 20.8538 81.0508 20.3525C81.429 19.8467 81.6182 19.1403 81.6182 18.2334C81.6182 17.4222 81.4245 16.766 81.0371 16.2646C80.6543 15.7588 80.1439 15.5059 79.5059 15.5059C78.8815 15.5059 78.3779 15.7542 77.9951 16.251C77.6123 16.7477 77.4209 17.4587 77.4209 18.3838ZM84.168 18.2402C84.168 17.0872 84.4346 16.1712 84.9678 15.4922C85.501 14.8086 86.2074 14.4668 87.0869 14.4668C87.9893 14.4668 88.6934 14.7858 89.1992 15.4238L89.2607 14.6035H90.416V21.8223C90.416 22.7793 90.1312 23.5335 89.5615 24.085C88.9964 24.6364 88.2354 24.9121 87.2783 24.9121C86.7451 24.9121 86.2233 24.7982 85.7129 24.5703C85.2025 24.3424 84.8128 24.0303 84.5439 23.6338L85.2002 22.875C85.7425 23.5449 86.4056 23.8799 87.1895 23.8799C87.8047 23.8799 88.2832 23.7067 88.625 23.3604C88.9714 23.014 89.1445 22.5264 89.1445 21.8975V21.2617C88.6387 21.8451 87.9482 22.1367 87.0732 22.1367C86.2074 22.1367 85.5055 21.7881 84.9678 21.0908C84.4346 20.3936 84.168 19.4434 84.168 18.2402ZM85.4395 18.3838C85.4395 19.2178 85.6104 19.874 85.9521 20.3525C86.2939 20.8265 86.7725 21.0635 87.3877 21.0635C88.1852 21.0635 88.7708 20.7012 89.1445 19.9766V16.5996C88.7572 15.8932 88.1761 15.54 87.4014 15.54C86.7861 15.54 86.3053 15.7793 85.959 16.2578C85.6126 16.7363 85.4395 17.445 85.4395 18.3838ZM93.7041 22H92.4395V11.5H93.7041V22ZM98.8037 22.1367C97.8011 22.1367 96.9854 21.8086 96.3564 21.1523C95.7275 20.4915 95.4131 19.6097 95.4131 18.5068V18.2744C95.4131 17.5407 95.5521 16.8867 95.8301 16.3125C96.1126 15.7337 96.5046 15.2826 97.0059 14.959C97.5117 14.6309 98.0586 14.4668 98.6465 14.4668C99.6081 14.4668 100.355 14.7835 100.889 15.417C101.422 16.0505 101.688 16.9574 101.688 18.1377V18.6641H96.6777C96.696 19.3932 96.9079 19.9834 97.3135 20.4346C97.7236 20.8812 98.2432 21.1045 98.8721 21.1045C99.3187 21.1045 99.6969 21.0133 100.007 20.8311C100.317 20.6488 100.588 20.4072 100.82 20.1064L101.593 20.708C100.973 21.6605 100.043 22.1367 98.8037 22.1367ZM98.6465 15.5059C98.1361 15.5059 97.7077 15.6927 97.3613 16.0664C97.015 16.4355 96.8008 16.9551 96.7188 17.625H100.424V17.5293C100.387 16.8867 100.214 16.39 99.9043 16.0391C99.5944 15.6836 99.1751 15.5059 98.6465 15.5059Z" fill="white"/>
<line x1="42.5" y1="2.18557e-08" x2="42.5" y2="34" stroke="#B73A26"/>
<line x1="43.5" y1="2.18557e-08" x2="43.5" y2="34" stroke="#FF755E"/>
<path d="M32 18.2339C32 23.9395 28.0287 28 22.1639 28C16.541 28 12 23.5323 12 18C12 12.4677 16.541 8 22.1639 8C24.9016 8 27.2049 8.9879 28.9795 10.6169L26.2131 13.2339C22.5943 9.79839 15.8648 12.379 15.8648 18C15.8648 21.4879 18.6967 24.3145 22.1639 24.3145C26.1885 24.3145 27.6967 21.4758 27.9344 20.004H22.1639V16.5645H31.8402C31.9344 17.0766 32 17.5685 32 18.2339Z" fill="white"/>
</svg>
