<svg width="132" height="34" viewBox="0 0 132 34" fill="none" xmlns="http://www.w3.org/2000/svg">
<rect width="132" height="34" rx="10" fill="#3B5998"/>
<path d="M18.4864 28V18.1602H15V14.25H18.4864V11.1691C18.4864 7.82188 20.65 6 23.8091 6C25.3227 6 26.6227 6.10742 27 6.15469V9.65234H24.8091C23.0909 9.65234 22.7591 10.4258 22.7591 11.5559V14.25H26.6364L26.1045 18.1602H22.7591V28" fill="white"/>
<path d="M59.6445 17.6045H55.4678V22H54.1553V12.0469H60.3213V13.127H55.4678V16.5312H59.6445V17.6045ZM66.0293 22C65.9564 21.8542 65.8971 21.5944 65.8516 21.2207C65.2637 21.8314 64.5618 22.1367 63.7461 22.1367C63.0169 22.1367 62.4176 21.9316 61.9482 21.5215C61.4834 21.1068 61.251 20.5827 61.251 19.9492C61.251 19.179 61.5426 18.582 62.126 18.1582C62.7139 17.7298 63.5387 17.5156 64.6006 17.5156H65.8311V16.9346C65.8311 16.4925 65.6989 16.1416 65.4346 15.8818C65.1702 15.6175 64.7806 15.4854 64.2656 15.4854C63.8145 15.4854 63.4362 15.5993 63.1309 15.8271C62.8255 16.055 62.6729 16.3307 62.6729 16.6543H61.4014C61.4014 16.2852 61.5312 15.9297 61.791 15.5879C62.0553 15.2415 62.4108 14.9681 62.8574 14.7676C63.3086 14.5671 63.8031 14.4668 64.3408 14.4668C65.193 14.4668 65.8607 14.681 66.3438 15.1094C66.8268 15.5332 67.0775 16.1188 67.0957 16.8662V20.2705C67.0957 20.9495 67.1823 21.4896 67.3555 21.8906V22H66.0293ZM63.9307 21.0361C64.3271 21.0361 64.7031 20.9336 65.0586 20.7285C65.4141 20.5234 65.6715 20.2568 65.8311 19.9287V18.4111H64.8398C63.2904 18.4111 62.5156 18.8646 62.5156 19.7715C62.5156 20.168 62.6478 20.4779 62.9121 20.7012C63.1764 20.9245 63.516 21.0361 63.9307 21.0361ZM72.0449 21.1045C72.4961 21.1045 72.8903 20.9678 73.2275 20.6943C73.5648 20.4209 73.7516 20.0791 73.7881 19.6689H74.9844C74.9616 20.0928 74.8158 20.4961 74.5469 20.8789C74.278 21.2617 73.918 21.5671 73.4668 21.7949C73.0202 22.0228 72.5462 22.1367 72.0449 22.1367C71.0378 22.1367 70.2357 21.8018 69.6387 21.1318C69.0462 20.4574 68.75 19.5368 68.75 18.3701V18.1582C68.75 17.4382 68.8822 16.7979 69.1465 16.2373C69.4108 15.6768 69.7891 15.2415 70.2812 14.9316C70.778 14.6217 71.3636 14.4668 72.0381 14.4668C72.8675 14.4668 73.5557 14.7152 74.1025 15.2119C74.654 15.7087 74.9479 16.3535 74.9844 17.1465H73.7881C73.7516 16.668 73.5693 16.276 73.2412 15.9707C72.9176 15.6608 72.5166 15.5059 72.0381 15.5059C71.3955 15.5059 70.8965 15.7383 70.541 16.2031C70.1901 16.6634 70.0146 17.3311 70.0146 18.2061V18.4453C70.0146 19.2975 70.1901 19.9538 70.541 20.4141C70.8919 20.8743 71.3932 21.1045 72.0449 21.1045ZM79.4756 22.1367C78.473 22.1367 77.6572 21.8086 77.0283 21.1523C76.3994 20.4915 76.085 19.6097 76.085 18.5068V18.2744C76.085 17.5407 76.224 16.8867 76.502 16.3125C76.7845 15.7337 77.1764 15.2826 77.6777 14.959C78.1836 14.6309 78.7305 14.4668 79.3184 14.4668C80.2799 14.4668 81.0273 14.7835 81.5605 15.417C82.0938 16.0505 82.3604 16.9574 82.3604 18.1377V18.6641H77.3496C77.3678 19.3932 77.5798 19.9834 77.9854 20.4346C78.3955 20.8812 78.915 21.1045 79.5439 21.1045C79.9906 21.1045 80.3688 21.0133 80.6787 20.8311C80.9886 20.6488 81.2598 20.4072 81.4922 20.1064L82.2646 20.708C81.6449 21.6605 80.7152 22.1367 79.4756 22.1367ZM79.3184 15.5059C78.8079 15.5059 78.3796 15.6927 78.0332 16.0664C77.6868 16.4355 77.4727 16.9551 77.3906 17.625H81.0957V17.5293C81.0592 16.8867 80.8861 16.39 80.5762 16.0391C80.2663 15.6836 79.847 15.5059 79.3184 15.5059ZM90.0918 18.3838C90.0918 19.514 89.832 20.4232 89.3125 21.1113C88.793 21.7949 88.0957 22.1367 87.2207 22.1367C86.2865 22.1367 85.5641 21.8063 85.0537 21.1455L84.9922 22H83.8301V11.5H85.0947V15.417C85.6051 14.7835 86.3092 14.4668 87.207 14.4668C88.1048 14.4668 88.8089 14.8063 89.3193 15.4854C89.8343 16.1644 90.0918 17.0941 90.0918 18.2744V18.3838ZM88.8271 18.2402C88.8271 17.3789 88.6608 16.7135 88.3281 16.2441C87.9954 15.7747 87.5169 15.54 86.8926 15.54C86.0586 15.54 85.4593 15.9274 85.0947 16.7021V19.9014C85.4821 20.6761 86.0859 21.0635 86.9062 21.0635C87.5124 21.0635 87.984 20.8288 88.3213 20.3594C88.6585 19.89 88.8271 19.1836 88.8271 18.2402ZM91.3564 18.2334C91.3564 17.5088 91.4977 16.8571 91.7803 16.2783C92.0674 15.6995 92.4639 15.2529 92.9697 14.9385C93.4801 14.624 94.0612 14.4668 94.7129 14.4668C95.7201 14.4668 96.5335 14.8154 97.1533 15.5127C97.7777 16.21 98.0898 17.1374 98.0898 18.2949V18.3838C98.0898 19.1038 97.9508 19.751 97.6729 20.3252C97.3994 20.8949 97.0052 21.3392 96.4902 21.6582C95.9798 21.9772 95.3919 22.1367 94.7266 22.1367C93.724 22.1367 92.9105 21.7881 92.2861 21.0908C91.6663 20.3936 91.3564 19.4707 91.3564 18.3223V18.2334ZM92.6279 18.3838C92.6279 19.2041 92.8171 19.8626 93.1953 20.3594C93.5781 20.8561 94.0885 21.1045 94.7266 21.1045C95.3691 21.1045 95.8796 20.8538 96.2578 20.3525C96.6361 19.8467 96.8252 19.1403 96.8252 18.2334C96.8252 17.4222 96.6315 16.766 96.2441 16.2646C95.8613 15.7588 95.3509 15.5059 94.7129 15.5059C94.0885 15.5059 93.585 15.7542 93.2021 16.251C92.8193 16.7477 92.6279 17.4587 92.6279 18.3838ZM99.3408 18.2334C99.3408 17.5088 99.4821 16.8571 99.7646 16.2783C100.052 15.6995 100.448 15.2529 100.954 14.9385C101.465 14.624 102.046 14.4668 102.697 14.4668C103.704 14.4668 104.518 14.8154 105.138 15.5127C105.762 16.21 106.074 17.1374 106.074 18.2949V18.3838C106.074 19.1038 105.935 19.751 105.657 20.3252C105.384 20.8949 104.99 21.3392 104.475 21.6582C103.964 21.9772 103.376 22.1367 102.711 22.1367C101.708 22.1367 100.895 21.7881 100.271 21.0908C99.6507 20.3936 99.3408 19.4707 99.3408 18.3223V18.2334ZM100.612 18.3838C100.612 19.2041 100.801 19.8626 101.18 20.3594C101.562 20.8561 102.073 21.1045 102.711 21.1045C103.354 21.1045 103.864 20.8538 104.242 20.3525C104.62 19.8467 104.81 19.1403 104.81 18.2334C104.81 17.4222 104.616 16.766 104.229 16.2646C103.846 15.7588 103.335 15.5059 102.697 15.5059C102.073 15.5059 101.569 15.7542 101.187 16.251C100.804 16.7477 100.612 17.4587 100.612 18.3838ZM109.725 18.5752L108.932 19.4023V22H107.667V11.5H108.932V17.8506L109.608 17.0371L111.912 14.6035H113.45L110.572 17.6934L113.785 22H112.302L109.725 18.5752Z" fill="white"/>
<line x1="40.5" y1="2.18557e-08" x2="40.5" y2="34" stroke="#2D4577"/>
<line x1="41.5" y1="2.18557e-08" x2="41.5" y2="34" stroke="#6D8CCD"/>
</svg>
