<svg width="177" height="135" viewBox="0 0 177 135" fill="none" xmlns="http://www.w3.org/2000/svg">
<path d="M143.68 132.12C161.729 132.12 176.36 129.422 176.36 126.094C176.36 122.766 161.729 120.068 143.68 120.068C125.631 120.068 111 122.766 111 126.094C111 129.422 125.631 132.12 143.68 132.12Z" fill="#DBF6ED"/>
<path d="M148.305 59.9985C147.751 61.3861 149.753 68.4322 151.521 68.7521C151.551 68.7175 144.172 70.2392 141.056 69.7247C137.939 69.2103 136.547 68.0864 136.547 68.0864C138.112 65.3544 138.916 63.1239 138.873 60.1671L148.305 59.9985Z" fill="#E2B9A3"/>
<path d="M160.011 92.5705C160.011 92.5705 152.93 92.5099 145.041 92.5056V92.4581C136.396 92.5705 128.044 92.7563 128.044 92.7563C127.967 93.5128 129.25 99.2405 132.544 101.328L133.699 126.893L138.237 126.988C138.237 126.988 140.04 110.519 142.188 103.719C142.595 102.578 142.776 101.635 143.693 101.557C144.709 101.614 144.709 102.448 145.331 103.719C147.544 110.51 150.147 126.936 150.147 126.936L154.685 126.776L154.949 101.199C158.222 99.0676 160.098 93.3269 160.011 92.5705Z" fill="#1C1714"/>
<path d="M145.042 92.5056V92.4581C136.396 92.5705 128.045 92.7563 128.045 92.7563C128.103 93.6444 128.248 94.5246 128.477 95.3846H159.169C159.738 94.5587 160.028 93.5729 159.999 92.5705C159.999 92.5705 152.931 92.5099 145.042 92.5056Z" fill="black"/>
<path d="M154.309 122.769C151.249 122.769 148.767 124.857 148.767 127.429C148.765 127.47 148.765 127.51 148.767 127.55H159.846V127.429C159.846 124.857 157.365 122.769 154.309 122.769Z" fill="black"/>
<path d="M134.465 122.847C131.405 122.847 128.923 124.935 128.923 127.511C128.921 127.55 128.921 127.589 128.923 127.628H140.003V127.511C140.003 124.918 137.521 122.847 134.465 122.847Z" fill="black"/>
<path d="M158.117 125.173C157.685 124.555 157.037 124.308 155.735 124.088C155.485 124.049 155.377 123.686 155.705 123.712C158.476 123.898 158.256 125.376 158.117 125.173Z" fill="#3C3B3D"/>
<path d="M127.426 87.5994C126.704 86.9208 123.345 85.8185 122.714 85.5677C122.455 85.6196 122.334 85.7709 122.144 86C121.824 86.5101 121.815 86.7954 121.633 87.7291C121.633 87.7724 121.633 87.8026 121.633 87.8415H121.603C121.507 88.1445 121.485 88.4662 121.538 88.7796C121.651 89.0476 123.311 89.817 123.311 89.817L123.133 90.7421C123.067 90.9963 123.018 91.2549 122.986 91.5159C123.038 91.8703 123.073 92.3804 123.103 92.8127C123.133 93.245 123.103 93.5735 123.324 93.7637C123.363 93.816 123.415 93.8571 123.475 93.8829C123.535 93.9087 123.6 93.9183 123.665 93.9107C123.929 93.9107 122.571 95.8213 122.567 95.8473C122.538 95.9372 122.538 96.034 122.567 96.1239C122.581 96.1594 122.601 96.1918 122.628 96.219C122.695 96.2851 122.776 96.3353 122.865 96.3659C122.954 96.3966 123.049 96.407 123.142 96.3963C123.216 96.3939 123.29 96.3837 123.363 96.366C123.26 96.4604 123.173 96.5715 123.107 96.6945C123.009 96.8653 122.958 97.0594 122.961 97.2565C122.954 97.3326 122.971 97.4089 123.008 97.4758C123.045 97.5426 123.1 97.5972 123.168 97.6326C123.305 97.6872 123.457 97.6978 123.6 97.6628L123.579 97.7104C123.526 97.8042 123.498 97.9097 123.497 98.0173V98.0778V98.134C123.511 98.216 123.545 98.2932 123.596 98.3588C123.838 98.683 124.11 98.6571 124.703 98.2377C124.646 98.281 124.569 98.67 125.074 98.8386C125.316 98.9251 125.606 98.7867 125.904 98.5533C126.506 98.0958 127.038 97.5525 127.482 96.9409C128.097 96.1574 128.569 95.2723 128.878 94.3257C129.54 92.8862 129.721 89.7608 127.426 87.5994Z" fill="url(#paint0_linear)"/>
<path d="M126.311 72.6513C122.658 74.1037 120.739 75.2449 119.343 76.5418C119.198 76.6735 119.083 76.8346 119.006 77.0143C118.929 77.194 118.891 77.3881 118.894 77.5837C118.898 77.7793 118.943 77.9719 119.027 78.1485C119.111 78.3252 119.232 78.4818 119.382 78.6081L124.802 84.8544C124.802 84.8544 124.599 88.7449 122.075 88.8443C120.609 88.8962 111.238 81.8328 112.132 76.9957C112.859 73.0058 121.314 65.428 126.372 64.4856C128.291 64.5591 128.658 69.6556 126.311 72.6513Z" fill="#236852"/>
<path d="M124.196 83.7089C124.062 83.938 120.781 89.0043 120.781 89.0043C120.781 89.0043 122.787 90.5778 122.843 90.4697C122.899 90.3616 126.358 86.389 126.358 86.389L124.196 83.7089Z" fill="#37A07F"/>
<path d="M138.623 125.609C138.191 124.991 137.538 124.745 136.241 124.524C135.991 124.485 135.882 124.127 136.211 124.148C138.982 124.334 138.761 125.817 138.623 125.609Z" fill="#3C3B3D"/>
<path d="M162.606 63.7852C162.529 64.6022 163.955 89.5878 161.068 93.0028C159.771 94.827 139.104 94.3255 129.079 94.4033C126.875 94.4033 125.837 90.9451 125.794 88.3515L124.609 64.827C126.338 63.5302 133.06 62.8126 140.422 62.5619C141.343 62.5316 139.065 64.9048 143.193 64.8962C146.681 64.8962 145.354 62.4625 146.418 62.4625C153.861 62.4754 160.739 62.9596 162.606 63.7852Z" fill="#236852"/>
<path d="M142.123 62.5014C142.02 62.6916 138.851 69.7118 138.752 69.474C138.652 69.2363 134.619 63.8242 134.619 63.8242C134.619 63.8242 136.988 61.0749 137.014 61.0792L142.123 62.5014Z" fill="#37A07F"/>
<path d="M144.285 62.5014C144.389 62.6916 147.557 69.7118 147.657 69.474C147.756 69.2363 151.807 63.8242 151.807 63.8242C151.807 63.8242 149.438 61.0749 149.412 61.0792L144.285 62.5014Z" fill="#37A07F"/>
<path d="M123.7 30.1585C123.7 32.3674 121.599 50.2118 127.228 56.1772C131.931 61.8919 147.259 62.9596 157.301 57.0893C162.32 55.0014 163.396 29.3804 163.396 29.3804C163.202 27.1282 162.216 24.7032 156.942 21.5519C147.259 15.1326 137.183 17.9337 128.87 21.8458C128.87 21.8458 123.705 24.4006 123.7 30.1585Z" fill="url(#paint1_linear)"/>
<path d="M146.901 35.7263C150.684 35.2205 154.064 35.294 156.36 36.1585C157.63 36.3963 157.929 34.4597 156.394 33.9972C153.345 33.1659 150.144 33.0549 147.044 33.673C145.354 33.9972 145.107 35.951 146.901 35.7263Z" fill="#4E1E05"/>
<path d="M137.845 35.294C134.866 34.1615 132.121 33.6514 130.129 34.1615C129.065 34.1615 129.121 32.2249 130.431 32.0303C133.035 31.7202 135.673 32.1502 138.043 33.271C139.362 33.8675 139.262 35.8473 137.845 35.294Z" fill="#4E1E05"/>
<path d="M150.769 41.7478C150.245 41.6981 149.748 41.4935 149.34 41.1602C148.933 40.8269 148.635 40.3799 148.482 39.8762C148.33 39.3725 148.331 38.8349 148.486 38.3319C148.64 37.8289 148.941 37.3832 149.35 37.0518C149.758 36.7203 150.257 36.518 150.781 36.4707C151.305 36.4233 151.831 36.5331 152.292 36.7859C152.754 37.0388 153.13 37.4233 153.372 37.8905C153.614 38.3577 153.711 38.8863 153.652 39.4092C153.579 40.1013 153.234 40.7362 152.694 41.1746C152.153 41.613 151.461 41.8192 150.769 41.7478Z" fill="#E8B79D"/>
<path d="M150.77 41.2379C150.311 41.1768 149.881 40.9815 149.533 40.6766C149.185 40.3717 148.935 39.9708 148.814 39.5241C148.693 39.0775 148.707 38.6052 148.854 38.1664C149.001 37.7276 149.274 37.342 149.639 37.0581C150.004 36.7741 150.445 36.6044 150.907 36.5703C151.368 36.5362 151.829 36.6393 152.232 36.8665C152.635 37.0937 152.962 37.435 153.172 37.8474C153.382 38.2599 153.465 38.7251 153.411 39.1846C153.329 39.8053 153.006 40.3687 152.512 40.753C152.017 41.1373 151.392 41.3115 150.77 41.2379Z" fill="black"/>
<path d="M149.088 38.709C149.038 39.0606 149.095 39.4189 149.25 39.7381C149.406 40.0573 149.653 40.3229 149.96 40.5011C150.267 40.6792 150.62 40.7617 150.974 40.7381C151.329 40.7145 151.668 40.5858 151.948 40.3685C152.229 40.1512 152.439 39.8551 152.55 39.5181C152.662 39.1811 152.671 38.8184 152.575 38.4765C152.48 38.1346 152.284 37.8289 152.014 37.5985C151.744 37.3681 151.411 37.2235 151.059 37.1831C150.595 37.1243 150.127 37.252 149.757 37.5381C149.388 37.8242 149.147 38.2454 149.088 38.709Z" fill="#111111"/>
<path d="M150.972 39.8458C150.788 39.8117 150.624 39.7093 150.513 39.5592C150.401 39.4091 150.351 39.2223 150.372 39.0366C150.393 38.8509 150.483 38.6799 150.625 38.5582C150.767 38.4364 150.949 38.3729 151.136 38.3804C151.32 38.4144 151.484 38.5168 151.595 38.6669C151.706 38.8171 151.757 39.0038 151.736 39.1895C151.715 39.3752 151.625 39.5462 151.483 39.6679C151.341 39.7897 151.158 39.8532 150.972 39.8458Z" fill="white"/>
<path d="M132.747 41.3717C132.223 41.3212 131.725 41.1157 131.318 40.7814C130.911 40.4472 130.612 39.9993 130.46 39.4949C130.308 38.9904 130.31 38.4521 130.465 37.9486C130.62 37.4451 130.922 36.9991 131.331 36.6675C131.74 36.3358 132.239 36.1335 132.764 36.0863C133.289 36.0391 133.816 36.1491 134.278 36.4023C134.74 36.6555 135.116 37.0405 135.358 37.5082C135.601 37.976 135.698 38.5053 135.639 39.0288C135.566 39.7229 135.22 40.3596 134.678 40.7989C134.136 41.2383 133.441 41.4443 132.747 41.3717Z" fill="#E8B79D"/>
<path d="M132.756 40.8574C132.3 40.795 131.872 40.5993 131.526 40.2948C131.18 39.9903 130.931 39.5905 130.811 39.1455C130.691 38.7004 130.705 38.2299 130.851 37.7928C130.998 37.3557 131.27 36.9714 131.633 36.6881C131.997 36.4047 132.436 36.2349 132.895 36.1998C133.355 36.1648 133.815 36.2661 134.217 36.491C134.619 36.716 134.946 37.0546 135.157 37.4645C135.368 37.8744 135.453 38.3373 135.402 38.7954C135.324 39.4195 135.002 39.9872 134.506 40.3738C134.01 40.7605 133.381 40.9344 132.756 40.8574Z" fill="black"/>
<path d="M131.079 38.3199C131.028 38.6717 131.083 39.0308 131.237 39.3512C131.392 39.6715 131.638 39.9385 131.945 40.1179C132.252 40.2974 132.605 40.3811 132.96 40.3583C133.315 40.3356 133.655 40.2074 133.936 39.9902C134.218 39.7731 134.428 39.4768 134.54 39.1394C134.652 38.802 134.661 38.4388 134.565 38.0964C134.47 37.754 134.274 37.4479 134.003 37.2174C133.733 36.9869 133.399 36.8425 133.046 36.8026C132.584 36.7438 132.118 36.8704 131.749 37.1549C131.38 37.4393 131.139 37.8582 131.079 38.3199Z" fill="#111111"/>
<path d="M132.812 39.2624C132.664 39.2554 132.521 39.2041 132.403 39.1152C132.284 39.0262 132.195 38.9037 132.147 38.7635C132.099 38.6233 132.095 38.4719 132.134 38.3289C132.173 38.186 132.254 38.0581 132.367 37.9619C132.479 37.8657 132.618 37.8055 132.766 37.7893C132.913 37.773 133.062 37.8014 133.193 37.8708C133.324 37.9402 133.431 38.0473 133.5 38.1783C133.569 38.3093 133.598 38.458 133.581 38.6053C133.565 38.7938 133.475 38.9683 133.331 39.0912C133.187 39.2141 133.001 39.2756 132.812 39.2624Z" fill="white"/>
<path d="M148.73 49.0705C148.008 55.7189 135.39 55.3601 135.667 48.7074C139.557 51.2578 143.033 50.5575 148.73 49.0705Z" fill="#E8B79D"/>
<path d="M135.67 48.6944C135.659 48.8744 135.659 49.0548 135.67 49.2347C136.932 55.1915 147.722 55.2218 148.708 49.0662C143.062 49.412 139.595 50.1166 135.679 48.6944H135.67Z" fill="#320000"/>
<path d="M147.946 49.1267C143.312 49.4639 139.491 49.961 136.076 48.8414C136.193 49.4308 136.496 49.9672 136.941 50.3717C137.645 50.9942 143.3 50.8688 146.982 50.6354C147.488 50.2776 147.834 49.7362 147.946 49.1267Z" fill="#EAEBED"/>
<path d="M141.13 44.9944C142.075 44.9944 142.842 44.5783 142.842 44.065C142.842 43.5517 142.075 43.1356 141.13 43.1356C140.184 43.1356 139.418 43.5517 139.418 44.065C139.418 44.5783 140.184 44.9944 141.13 44.9944Z" fill="#E8B79D"/>
<path d="M124.3 31.6413C124.3 32.5664 124.836 45.0635 125.299 51.526C123.449 51.2969 122.217 49.1398 121.841 48.5217L119.299 30.7206L120.686 25.6327L123.92 23.0909L132.012 21.2407L150.963 19.8618L163.447 24.4871L166.222 27.9453L164.835 42.9756C164.601 44.5145 163.339 49.209 162.522 50.1427C160.905 51.9885 160.287 51.0635 159.747 51.2969C160.054 46.6715 161.044 36.4439 161.044 33.2537C161.044 30.2278 161.735 29.0909 158.575 27.7162C155.415 26.3416 138.155 25.1615 130.525 26.3157C123.911 27.3315 124.3 30.4871 124.3 31.6413Z" fill="#4BC999"/>
<path d="M122.239 30.7292C122.239 31.6543 123.467 44.6787 123.93 51.0721C123.19 50.5188 122.235 49.1485 121.85 48.5303L119.309 30.7292L120.696 25.6413L123.93 23.0995L132.022 21.2494L150.964 19.8618L163.448 24.4871L166.224 27.9453L164.836 42.9756C164.602 44.5145 164.002 47.8733 163.448 48.9842C162.92 49.9063 162.114 50.6373 161.144 51.0721C161.451 46.4511 162.398 36.4439 162.761 33.271C163.457 27.2494 161.762 27.0203 158.369 25.6413C154.721 24.1673 138.969 23.5145 131.317 24.4871C122.239 25.6413 122.239 29.575 122.239 30.7292Z" fill="#37A07F"/>
<path d="M116.287 18.7076C115.729 20.5577 116.053 27.1845 116.287 30.2666C116.378 31.6542 117.207 35.5836 117.67 38.5923C118.133 41.6009 120.908 47.6052 121.604 48.3012C122.3 48.9972 122.066 48.5303 121.833 47.6052C121.599 46.6802 120.679 31.8877 120.445 30.7465C120.212 29.6053 120.908 27.9713 121.604 27.0462C122.3 26.1211 123.376 24.7249 127.383 23.588C130.478 22.7234 138.238 22.2004 141.255 22.2004C144.488 22.2004 150.194 22.6629 156.666 23.588C163.137 24.513 164.602 28.2133 164.602 30.0721C164.602 30.9972 163.215 45.7897 163.215 47.1773C163.215 48.5649 162.986 49.7234 163.677 48.7983C166.915 43.0188 169.457 27.0635 168.765 19.8963C168.073 12.7292 159.748 -0.446568 141.964 0.0116447C121.344 0.517408 116.84 16.8574 116.287 18.7076Z" fill="#236852"/>
<path d="M145.919 19.8012L137.515 19.8833C137.04 19.8742 136.588 19.6771 136.259 19.3351C135.929 18.9931 135.748 18.5342 135.756 18.0591V9.84588C135.748 9.37081 135.929 8.91193 136.259 8.56994C136.588 8.22794 137.04 8.03077 137.515 8.02168L145.919 7.93954C146.154 7.94404 146.386 7.9948 146.601 8.08892C146.817 8.18303 147.011 8.31867 147.174 8.48807C147.337 8.65747 147.465 8.85732 147.551 9.07621C147.637 9.29509 147.679 9.52872 147.674 9.76375V18.0029C147.676 18.4731 147.494 18.9254 147.165 19.2619C146.837 19.5984 146.389 19.7921 145.919 19.8012Z" fill="white"/>
<path d="M144.583 18.6039H144.073C143.852 18.5917 143.645 18.4958 143.493 18.3359L139.711 14.5103L143.312 14.3157L144.833 18.2365C144.868 18.3013 145.006 18.5953 144.622 18.6169" fill="#236852"/>
<path d="M145.703 10.797V10.8229L143.273 14.2811L139.668 14.4756L144.471 10.395C144.609 10.2755 144.781 10.2028 144.963 10.1875H145.37C145.966 10.2177 145.772 10.6543 145.694 10.7927" fill="#236852"/>
<path d="M139.664 10.2997C139.509 10.1331 139.295 10.0326 139.068 10.0187H138.553C138.173 10.0187 138.307 10.3386 138.346 10.3991L139.88 14.134H143.481L139.664 10.2997Z" fill="#72E8B2"/>
<path d="M138.665 18.2623L143.489 14.1427H139.876L137.455 17.817V17.843C137.368 18.0029 137.187 18.4352 137.801 18.4352H138.203C138.372 18.4151 138.532 18.3477 138.665 18.2407" fill="#4BC999"/>
<path d="M169.396 48.2277C172.854 56.5188 169.59 62.7824 154.404 66.8804L161.874 72.4265C168.263 72.3962 184.413 57.9626 172.845 45.0202C171.086 43.7147 170.429 47.6441 169.396 48.2277Z" fill="#236852"/>
<path d="M164.654 34.1094C163.963 34.1094 163.526 34.3385 163.561 34.8573C163.764 35.925 166.617 37.291 167.957 37.8832C167.8 37.8711 167.643 37.8902 167.494 37.9394C167.272 38.0319 167.08 38.1844 166.939 38.3798C166.799 38.5752 166.716 38.8059 166.699 39.046C166.489 38.9986 166.271 39.0106 166.068 39.0806C165.827 39.1786 165.621 39.3469 165.476 39.5635C165.332 39.7801 165.257 40.0351 165.259 40.2953C165.069 40.2567 164.873 40.2686 164.689 40.3299C163.902 40.5979 163.634 41.7088 164.097 42.8111C164.11 42.8483 164.126 42.8844 164.144 42.9192C164.173 43.3635 164.269 43.8008 164.429 44.216C165.091 46.1354 169.478 48.5388 169.478 48.5388C169.742 48.1368 172.703 45.9452 173.135 45.3745C173.568 44.8039 173.65 41.2939 172.703 38.6051C171.756 35.9164 166.738 34.1354 164.658 34.1354L164.654 34.1094Z" fill="url(#paint2_linear)"/>
<path d="M174.082 44.3198C173.953 44.4538 169.051 48.2665 169.051 48.2665L169.742 49.7795L174.839 46.425L174.082 44.3198Z" fill="#37A07F"/>
<path d="M43.7762 134.744C65.9468 134.744 83.9196 132.154 83.9196 128.958C83.9196 125.762 65.9468 123.171 43.7762 123.171C21.6056 123.171 3.63281 125.762 3.63281 128.958C3.63281 132.154 21.6056 134.744 43.7762 134.744Z" fill="#DBF6ED"/>
<path d="M60.2383 100.802C60.3341 100.802 60.4269 100.769 60.5016 100.709C60.5764 100.649 60.6287 100.566 60.65 100.473L69.8956 59.4701C69.9109 59.415 69.9148 59.3574 69.9071 59.3008C69.8994 59.2442 69.8803 59.1897 69.8509 59.1407C69.8215 59.0917 69.7825 59.0491 69.7362 59.0156C69.6898 58.9821 69.6372 58.9583 69.5814 58.9458C69.5256 58.9332 69.4678 58.9321 69.4116 58.9425C69.3553 58.9529 69.3018 58.9745 69.2542 59.0062C69.2066 59.0379 69.1659 59.0789 69.1346 59.1267C69.1034 59.1746 69.0821 59.2283 69.0723 59.2845L59.8267 100.282C59.8022 100.392 59.822 100.506 59.8817 100.6C59.9415 100.695 60.0364 100.762 60.1455 100.786C60.1757 100.795 60.2069 100.801 60.2383 100.802Z" fill="#236852"/>
<path d="M52.4873 100.802C52.5959 100.802 52.7003 100.76 52.7786 100.684C52.857 100.609 52.9034 100.507 52.9082 100.398L54.5193 62.1337C54.524 62.0221 54.4842 61.9133 54.4086 61.8311C54.333 61.7489 54.2278 61.7001 54.1161 61.6954C54.0045 61.6907 53.8956 61.7304 53.8133 61.806C53.731 61.8815 53.6821 61.9866 53.6774 62.0981L52.0648 100.363C52.0606 100.474 52.1006 100.583 52.1763 100.665C52.2519 100.748 52.357 100.797 52.4687 100.802H52.4873Z" fill="#236852"/>
<path d="M42.612 100.802H42.6305C42.6859 100.8 42.7403 100.787 42.7905 100.763C42.8408 100.74 42.8859 100.707 42.9233 100.666C42.9608 100.625 42.9897 100.578 43.0085 100.525C43.0273 100.473 43.0356 100.418 43.0329 100.363L41.445 64.2748C41.4357 64.1663 41.3848 64.0656 41.3029 63.9937C41.2209 63.9219 41.1144 63.8844 41.0055 63.8892C40.8966 63.894 40.7937 63.9406 40.7185 64.0194C40.6432 64.0982 40.6013 64.203 40.6016 64.3119L42.1894 100.398C42.1946 100.507 42.2413 100.609 42.32 100.684C42.3986 100.76 42.5032 100.802 42.612 100.802Z" fill="#236852"/>
<path d="M32.3677 100.802H32.4219C32.4768 100.795 32.5298 100.777 32.5778 100.75C32.6258 100.722 32.6679 100.685 32.7016 100.642C32.7354 100.598 32.7602 100.548 32.7746 100.494C32.789 100.441 32.7928 100.385 32.7856 100.33L28.3779 66.2984C28.3594 66.1912 28.3001 66.0953 28.2124 66.0306C28.1247 65.966 28.0154 65.9378 27.9074 65.9517C27.7993 65.9657 27.7008 66.0208 27.6325 66.1056C27.5642 66.1904 27.5312 66.2982 27.5406 66.4067L31.9499 100.437C31.9634 100.538 32.0132 100.631 32.0901 100.698C32.167 100.765 32.2656 100.802 32.3677 100.802Z" fill="#236852"/>
<path d="M23.1712 100.802C23.2094 100.802 23.2474 100.797 23.2842 100.786C23.3376 100.772 23.3876 100.746 23.4312 100.712C23.4748 100.678 23.5113 100.636 23.5385 100.587C23.5656 100.539 23.583 100.486 23.5896 100.431C23.5961 100.376 23.5918 100.32 23.5767 100.267L14.701 68.3298C14.6861 68.2765 14.6609 68.2266 14.6268 68.1831C14.5927 68.1395 14.5503 68.1031 14.5021 68.0759C14.4539 68.0487 14.4008 68.0312 14.3458 68.0245C14.2908 68.0178 14.2351 68.022 14.1817 68.0368C14.1284 68.0516 14.0785 68.0768 14.0349 68.1109C13.9913 68.145 13.9548 68.1873 13.9276 68.2355C13.9003 68.2836 13.8829 68.3367 13.8762 68.3916C13.8694 68.4465 13.8736 68.5022 13.8885 68.5555L22.7657 100.493C22.7904 100.581 22.8433 100.66 22.9165 100.715C22.9897 100.771 23.0791 100.802 23.1712 100.802Z" fill="#236852"/>
<path d="M4.96735 79.091H5.0339L83.5565 66.7684C83.6669 66.7512 83.766 66.6908 83.8319 66.6007C83.8977 66.5105 83.9251 66.3979 83.9078 66.2876C83.8906 66.1773 83.8302 66.0784 83.7399 66.0126C83.6497 65.9468 83.5369 65.9195 83.4265 65.9367L4.90545 78.2531C4.80173 78.2709 4.70842 78.3268 4.64378 78.4097C4.57914 78.4927 4.54782 78.5968 4.55595 78.7016C4.56408 78.8064 4.61108 78.9044 4.68774 78.9764C4.76441 79.0484 4.86522 79.0893 4.97045 79.091H4.96735Z" fill="#236852"/>
<path d="M6.84764 87.5842H6.90645L78.0608 77.8666C78.1182 77.8621 78.1741 77.846 78.225 77.8192C78.276 77.7924 78.3209 77.7555 78.3571 77.7107C78.3932 77.666 78.4198 77.6143 78.4353 77.5589C78.4507 77.5035 78.4546 77.4455 78.4468 77.3885C78.439 77.3315 78.4196 77.2767 78.3898 77.2275C78.36 77.1782 78.3205 77.1356 78.2736 77.1022C78.2267 77.0688 78.1735 77.0453 78.1172 77.0332C78.0609 77.0211 78.0027 77.0206 77.9462 77.0318L6.79037 86.7464C6.6833 86.7593 6.58528 86.8128 6.51654 86.8958C6.44779 86.9788 6.41355 87.085 6.4209 87.1925C6.42825 87.2999 6.47661 87.4005 6.55601 87.4734C6.63541 87.5463 6.7398 87.586 6.84764 87.5842Z" fill="#236852"/>
<path d="M10.8931 94.847H10.9256L71.5359 89.8212C71.6448 89.809 71.7447 89.7549 71.8145 89.6704C71.8842 89.586 71.9184 89.4777 71.9098 89.3686C71.9011 89.2594 71.8504 89.1579 71.7682 89.0854C71.686 89.013 71.5788 88.9752 71.4693 88.9802L10.8591 94.0045C10.7507 94.0138 10.6501 94.0644 10.5782 94.1459C10.5063 94.2274 10.4686 94.3335 10.473 94.442C10.4774 94.5506 10.5235 94.6532 10.6018 94.7287C10.68 94.8041 10.7844 94.8465 10.8931 94.847Z" fill="#236852"/>
<path d="M2.01065 74.9633C3.74865 83.2959 5.91225 88.5675 9.54611 95.9477C10.761 98.4212 14.8282 102.065 19.6986 102.065H64.0881C65.1497 104.954 68.0082 112.74 69.1225 115.94C69.5172 117.073 69.4831 118.045 69.025 118.75C68.6737 119.291 68.1986 119.489 68.0639 119.501H16.4919C16.0532 119.515 15.6368 119.698 15.3312 120.013C15.0255 120.328 14.8546 120.749 14.8546 121.187C14.8546 121.626 15.0255 122.047 15.3312 122.362C15.6368 122.676 16.0532 122.86 16.4919 122.873H68.0686C69.381 122.873 70.8141 122.051 71.7195 120.78C72.3849 119.843 73.346 117.827 72.3045 114.834C71.1252 111.449 68.0252 103.013 67.1044 100.51L90.6456 56.5745L90.6548 56.5575L94.0596 50.2007L106.048 45.4748C106.464 45.3108 106.798 44.9884 106.976 44.5784C107.154 44.1685 107.162 43.7046 106.998 43.2889C106.834 42.8731 106.511 42.5396 106.101 42.3615C105.69 42.1835 105.226 42.1757 104.81 42.3397L91.6701 47.5201L88.0579 54.2587C81.2111 55.5048 28.9984 64.3475 9.21027 67.1719C5.91689 67.6356 3.86317 68.6034 2.74268 70.1988C1.85898 71.4556 1.6129 73.0587 2.01065 74.9633ZM5.50522 72.1343C6.03761 71.3752 10.8848 70.8295 13.1273 70.5095C31.2765 67.9201 73.6571 60.2956 86.0212 58.054L64.2428 98.6948H19.6986C16.1097 98.6948 13.1877 95.7065 12.5795 94.4605C8.99205 87.1792 6.98786 82.3018 5.31486 74.2769C5.01307 72.833 5.38295 72.3012 5.50522 72.1343Z" fill="#236852"/>
<path d="M31.8386 122.105C31.8386 123.46 31.4362 124.785 30.6823 125.912C29.9285 127.039 28.857 127.917 27.6034 128.436C26.3497 128.955 24.9703 129.091 23.6394 128.826C22.3086 128.562 21.0861 127.909 20.1266 126.951C19.1672 125.992 18.5137 124.771 18.249 123.442C17.9843 122.112 18.1202 120.734 18.6394 119.482C19.1587 118.23 20.0381 117.16 21.1663 116.407C22.2945 115.654 23.621 115.252 24.9779 115.252C26.7974 115.252 28.5425 115.974 29.8291 117.259C31.1157 118.544 31.8386 120.287 31.8386 122.105Z" fill="#FFAA00"/>
<path d="M29.2764 122.105C29.2767 122.954 29.0248 123.785 28.5526 124.491C28.0804 125.198 27.409 125.748 26.6234 126.074C25.8379 126.399 24.9734 126.484 24.1393 126.319C23.3052 126.153 22.539 125.744 21.9375 125.144C21.3361 124.543 20.9265 123.778 20.7605 122.945C20.5944 122.112 20.6795 121.248 21.0049 120.463C21.3302 119.678 21.8813 119.008 22.5883 118.536C23.2954 118.064 24.1267 117.812 24.9771 117.812C25.5416 117.812 26.1006 117.922 26.6223 118.138C27.1439 118.354 27.6178 118.67 28.0171 119.069C28.4163 119.467 28.733 119.941 28.9491 120.462C29.1652 120.982 29.2764 121.541 29.2764 122.105Z" fill="white"/>
<path d="M25.8132 122.105C25.8135 122.27 25.7647 122.432 25.6729 122.57C25.5811 122.708 25.4504 122.815 25.2974 122.879C25.1445 122.942 24.9761 122.959 24.8136 122.927C24.651 122.895 24.5017 122.815 24.3845 122.698C24.2672 122.581 24.1873 122.432 24.1549 122.27C24.1224 122.108 24.1389 121.94 24.2023 121.787C24.2656 121.634 24.3729 121.503 24.5106 121.411C24.6483 121.319 24.8103 121.27 24.9759 121.27C25.1977 121.27 25.4105 121.358 25.5674 121.514C25.7244 121.671 25.8128 121.883 25.8132 122.105Z" fill="#236852"/>
<path d="M23.0744 123.141C23.0738 122.63 23.2064 122.128 23.4591 121.685C23.7118 121.241 24.0759 120.871 24.5155 120.61C24.9551 120.35 25.4551 120.209 25.9661 120.2C26.477 120.192 26.9814 120.316 27.4294 120.562C27.2089 120.164 26.8988 119.822 26.5235 119.564C26.1483 119.306 25.7182 119.139 25.2671 119.076C24.8161 119.012 24.3564 119.054 23.9244 119.198C23.4924 119.342 23.0998 119.585 22.7777 119.907C22.4555 120.228 22.2126 120.62 22.068 121.052C21.9235 121.483 21.8812 121.942 21.9447 122.393C22.0081 122.844 22.1755 123.273 22.4336 123.648C22.6916 124.023 23.0334 124.333 23.4319 124.554C23.1958 124.12 23.0728 123.634 23.0744 123.141Z" fill="#BCBEC0"/>
<path d="M67.7429 122.105C67.7429 123.46 67.3405 124.785 66.5866 125.912C65.8328 127.039 64.7613 127.917 63.5076 128.436C62.254 128.955 60.8746 129.091 59.5437 128.826C58.2129 128.562 56.9904 127.909 56.0309 126.951C55.0715 125.992 54.418 124.771 54.1533 123.442C53.8886 122.112 54.0245 120.734 54.5437 119.482C55.063 118.23 55.9423 117.16 57.0706 116.407C58.1988 115.654 59.5253 115.252 60.8822 115.252C62.7017 115.252 64.4468 115.974 65.7334 117.259C67.02 118.544 67.7429 120.287 67.7429 122.105Z" fill="#FFAA00"/>
<path d="M65.1796 122.105C65.1796 122.954 64.9275 123.784 64.4553 124.49C63.983 125.196 63.3118 125.746 62.5265 126.071C61.7412 126.396 60.877 126.481 60.0433 126.315C59.2096 126.15 58.4438 125.741 57.8428 125.14C57.2417 124.54 56.8324 123.775 56.6666 122.942C56.5007 122.109 56.5858 121.246 56.9111 120.462C57.2364 119.677 57.7873 119.007 58.4941 118.535C59.2008 118.063 60.0318 117.812 60.8818 117.812C62.0216 117.812 63.1148 118.264 63.9208 119.069C64.7268 119.874 65.1796 120.966 65.1796 122.105Z" fill="white"/>
<path d="M61.7175 122.105C61.7178 122.27 61.669 122.432 61.5772 122.57C61.4853 122.708 61.3547 122.815 61.2017 122.879C61.0488 122.942 60.8804 122.959 60.7178 122.927C60.5553 122.895 60.406 122.815 60.2887 122.698C60.1715 122.581 60.0916 122.432 60.0592 122.27C60.0267 122.108 60.0432 121.94 60.1066 121.787C60.1699 121.634 60.2772 121.503 60.4149 121.411C60.5526 121.319 60.7146 121.27 60.8802 121.27C61.102 121.27 61.3148 121.358 61.4717 121.514C61.6287 121.671 61.7171 121.883 61.7175 122.105Z" fill="#236852"/>
<path d="M58.9799 123.141C58.9793 122.63 59.1119 122.128 59.3646 121.685C59.6173 121.241 59.9815 120.871 60.4211 120.61C60.8607 120.35 61.3606 120.209 61.8716 120.2C62.3826 120.192 62.887 120.316 63.335 120.562C63.1144 120.164 62.8042 119.823 62.429 119.565C62.0539 119.307 61.6239 119.14 61.173 119.077C60.7221 119.013 60.2626 119.055 59.8307 119.199C59.3989 119.344 59.0064 119.586 58.6843 119.907C58.3622 120.229 58.1193 120.621 57.9746 121.052C57.8299 121.483 57.7875 121.942 57.8507 122.393C57.9139 122.843 58.0809 123.273 58.3386 123.648C58.5964 124.023 58.9378 124.333 59.3359 124.553C59.0996 124.12 58.9771 123.634 58.9799 123.141Z" fill="#BCBEC0"/>
<path d="M95.0566 44.8008L106.933 40.163C107.523 39.9334 108.181 39.9468 108.761 40.2004C109.341 40.4539 109.797 40.9269 110.029 41.5157L110.514 42.7524C110.745 43.342 110.731 43.9988 110.477 44.5785C110.223 45.1583 109.749 45.6135 109.159 45.8443L97.3085 50.4821L95.0566 44.8008Z" fill="#FFAA00"/>
<path d="M8.35726 71.0645C8.35725 71.8907 8.11179 72.6983 7.65195 73.385C7.1921 74.0718 6.53858 74.6067 5.77413 74.9222C5.00968 75.2377 4.16871 75.3194 3.35771 75.1571C2.54672 74.9948 1.80219 74.5957 1.21842 74.0104C0.634646 73.4251 0.237896 72.6799 0.078415 71.8693C-0.0810663 71.0586 0.00389572 70.2188 0.322541 69.4564C0.641186 68.694 1.17918 68.0432 1.86838 67.5864C2.55759 67.1296 3.367 66.8874 4.19411 66.8905C5.29966 66.8946 6.35854 67.3361 7.13884 68.1185C7.91915 68.9008 8.35727 69.9601 8.35726 71.0645Z" fill="#FFAA00"/>
<g clip-path="url(#clip0)">
<path d="M54 39C54 42.4724 52.6477 45.737 50.1924 48.1924C47.737 50.6477 44.4724 52 41 52C38.5692 52 36.2406 51.3365 34.2198 50.0966L35.7102 48.6062C37.2799 49.4739 39.0831 49.9688 41 49.9688C47.0482 49.9688 51.9688 45.0482 51.9688 39C51.9688 37.0831 51.4739 35.2799 50.6061 33.7103L52.0966 32.2198C53.3365 34.2406 54 36.5692 54 39ZM29.4799 51.9564L28.0436 50.5201L31.1173 47.4464C29.1003 45.094 28 42.1316 28 39C28 35.5276 29.3523 32.263 31.8076 29.8076C34.263 27.3523 37.5276 26 41 26C44.1316 26 47.094 27.1003 49.4464 29.1173L52.5201 26.0436L53.9564 27.4799L29.4799 51.9564ZM32.5628 46.0008L48.0008 30.5628C46.1 28.9828 43.6592 28.0312 41 28.0312C34.9518 28.0312 30.0312 32.9518 30.0312 39C30.0312 41.6592 30.9828 44.1 32.5628 46.0008Z" fill="#FFAA00"/>
</g>
<defs>
<linearGradient id="paint0_linear" x1="121.499" y1="92.2507" x2="129.319" y2="92.2507" gradientUnits="userSpaceOnUse">
<stop stop-color="#FFDABC"/>
<stop offset="0.27" stop-color="#FED7B8"/>
<stop offset="0.52" stop-color="#FACFAD"/>
<stop offset="0.75" stop-color="#F3C19B"/>
<stop offset="0.98" stop-color="#EAAE81"/>
<stop offset="1" stop-color="#E9AC7F"/>
</linearGradient>
<linearGradient id="paint1_linear" x1="1457.26" y1="11897.9" x2="5691.18" y2="13800.2" gradientUnits="userSpaceOnUse">
<stop stop-color="#FFDABC"/>
<stop offset="0.27" stop-color="#FED7B8"/>
<stop offset="0.52" stop-color="#FACFAD"/>
<stop offset="0.75" stop-color="#F3C19B"/>
<stop offset="0.98" stop-color="#EAAE81"/>
<stop offset="1" stop-color="#E9AC7F"/>
</linearGradient>
<linearGradient id="paint2_linear" x1="1437.11" y1="-3269.6" x2="1729.84" y2="-2940.31" gradientUnits="userSpaceOnUse">
<stop offset="0.0520833" stop-color="#FFDABC"/>
<stop offset="0.27" stop-color="#FED7B8"/>
<stop offset="0.52" stop-color="#FACFAD"/>
</linearGradient>
<clipPath id="clip0">
<rect x="28" y="26" width="26" height="26" fill="white"/>
</clipPath>
</defs>
</svg>
