<svg width="195" height="150" viewBox="0 0 195 150" fill="none" xmlns="http://www.w3.org/2000/svg">
<path d="M125.38 129.464C125.38 129.464 105.766 141.624 97.1371 128.29C88.5084 114.955 95.5713 111.032 86.9256 107.501C78.2799 103.97 61.8224 99.6552 62.6095 92.6093C63.3967 85.5634 72.821 78.8834 72.821 68.6847C72.821 58.486 61.8862 36.0888 70.4256 28.46C78.9649 20.8312 84.9812 29.0684 94.7842 20.8312C104.587 12.5939 109.676 0.833705 121.066 0.0465707C132.456 -0.740563 132.83 8.6625 141.48 12.2067C150.13 15.751 165.801 5.14805 175.995 12.9939C186.19 20.8397 183.449 41.6243 183.058 64.3746C182.667 87.1249 200.179 102.999 191.193 109.901C182.207 116.802 130.086 113.777 125.38 129.464Z" fill="#DBF7ED"/>
<path d="M41.3187 148.9C59.0836 148.9 73.4848 146.244 73.4848 142.969C73.4848 139.693 59.0836 137.038 41.3187 137.038C23.5539 137.038 9.15259 139.693 9.15259 142.969C9.15259 146.244 23.5539 148.9 41.3187 148.9Z" fill="#DBF7ED"/>
<path d="M137.813 149.76C168.862 149.76 194.031 146.874 194.031 143.314C194.031 139.754 168.862 136.868 137.813 136.868C106.764 136.868 81.5946 139.754 81.5946 143.314C81.5946 146.874 106.764 149.76 137.813 149.76Z" fill="#DBF7ED"/>
<path d="M175.578 23.1288V137.11C175.574 139.08 174.788 140.967 173.394 142.358C172 143.749 170.11 144.53 168.141 144.53H110.531C108.559 144.529 106.669 143.745 105.275 142.351C103.881 140.956 103.098 139.065 103.098 137.093V23.1288C103.098 21.157 103.881 19.2659 105.275 17.8713C106.669 16.4766 108.559 15.6925 110.531 15.6914H168.141C170.113 15.6925 172.004 16.4765 173.399 17.871C174.793 19.2655 175.577 21.1566 175.578 23.1288Z" fill="#236852"/>
<path d="M145.28 139.85H133.396C132.659 139.85 131.953 139.557 131.432 139.036C130.911 138.515 130.618 137.808 130.618 137.071C130.618 136.707 130.69 136.346 130.829 136.009C130.969 135.672 131.174 135.366 131.432 135.108C131.69 134.851 131.996 134.646 132.333 134.507C132.67 134.368 133.032 134.297 133.396 134.297H145.28C145.645 134.297 146.006 134.368 146.343 134.507C146.68 134.646 146.986 134.851 147.244 135.108C147.502 135.366 147.707 135.672 147.847 136.009C147.986 136.346 148.058 136.707 148.058 137.071C148.058 137.808 147.766 138.515 147.244 139.036C146.723 139.557 146.017 139.85 145.28 139.85Z" fill="#4BC999"/>
<path d="M171.098 25.9455V126.886C171.098 127.843 170.718 128.76 170.041 129.437C169.365 130.114 168.447 130.494 167.49 130.494H111.182C110.708 130.494 110.239 130.401 109.802 130.219C109.364 130.038 108.966 129.772 108.631 129.437C108.296 129.102 108.03 128.704 107.849 128.267C107.668 127.829 107.574 127.36 107.574 126.886V25.9455C107.574 25.4716 107.668 25.0025 107.849 24.5647C108.03 24.127 108.296 23.7292 108.631 23.3942C108.966 23.0591 109.364 22.7934 109.802 22.6121C110.239 22.4307 110.708 22.3374 111.182 22.3374H167.49C168.447 22.3374 169.365 22.7175 170.041 23.3942C170.718 24.0708 171.098 24.9885 171.098 25.9455Z" fill="#37A07F"/>
<path d="M164.329 22.5118L107.574 116.5V25.9455C107.574 25.4716 107.668 25.0025 107.849 24.5647C108.03 24.127 108.296 23.7292 108.631 23.3942C108.966 23.0591 109.364 22.7934 109.802 22.6121C110.239 22.4307 110.708 22.3374 111.182 22.3374H163.516L164.329 22.5118Z" fill="#4BC999"/>
<path d="M152.033 79.4066C159.043 72.3963 159.043 61.0304 152.033 54.0202C145.023 47.0099 133.657 47.0099 126.647 54.0202C119.636 61.0304 119.636 72.3963 126.647 79.4066C133.657 86.4169 145.023 86.4169 152.033 79.4066Z" fill="#236852"/>
<path d="M146.038 69.3657L147.935 62.9027C147.982 62.7438 147.99 62.5763 147.96 62.4135C147.931 62.2507 147.863 62.0971 147.764 61.9649C147.664 61.8327 147.535 61.7256 147.387 61.652C147.239 61.5785 147.075 61.5405 146.91 61.5412L132.069 61.5667L131.712 59.1074H128.521C128.408 59.1074 128.3 59.1522 128.22 59.232C128.14 59.3118 128.095 59.4201 128.095 59.5329C128.095 59.6457 128.14 59.754 128.22 59.8338C128.3 59.9136 128.408 59.9584 128.521 59.9584H130.959L132.746 72.3313H147.412C147.525 72.3313 147.633 72.2864 147.713 72.2067C147.793 72.1269 147.837 72.0186 147.837 71.9058C147.837 71.793 147.793 71.6847 147.713 71.6049C147.633 71.5251 147.525 71.4803 147.412 71.4803H133.503L133.307 70.1358H145.016C145.247 70.1349 145.471 70.0593 145.655 69.9205C145.839 69.7817 145.973 69.5871 146.038 69.3657Z" fill="#E9E5FD"/>
<path d="M134.498 73.2715C134.215 73.2715 133.938 73.3556 133.702 73.5131C133.466 73.6707 133.282 73.8946 133.174 74.1566C133.065 74.4186 133.037 74.7069 133.092 74.9851C133.147 75.2632 133.284 75.5187 133.485 75.7192C133.685 75.9198 133.941 76.0563 134.219 76.1117C134.497 76.167 134.785 76.1386 135.047 76.0301C135.309 75.9215 135.533 75.7377 135.691 75.502C135.848 75.2662 135.932 74.9889 135.932 74.7053C135.932 74.3251 135.781 73.9604 135.512 73.6915C135.243 73.4225 134.879 73.2715 134.498 73.2715Z" fill="#E9E5FD"/>
<path d="M145.735 73.2715C145.451 73.2715 145.174 73.3556 144.938 73.5131C144.703 73.6707 144.519 73.8946 144.41 74.1566C144.302 74.4186 144.273 74.7069 144.329 74.9851C144.384 75.2632 144.521 75.5187 144.721 75.7192C144.922 75.9198 145.177 76.0563 145.455 76.1117C145.733 76.167 146.022 76.1386 146.284 76.0301C146.546 75.9215 146.77 75.7377 146.927 75.502C147.085 75.2662 147.169 74.9889 147.169 74.7053C147.169 74.3251 147.018 73.9604 146.749 73.6915C146.48 73.4225 146.115 73.2715 145.735 73.2715Z" fill="#E9E5FD"/>
<path d="M140.273 84.8526C140.216 84.8539 140.161 84.8334 140.119 84.7954C140.077 84.7574 140.051 84.7048 140.047 84.6484C140.045 84.6196 140.049 84.5907 140.059 84.5634C140.069 84.5361 140.084 84.5111 140.103 84.4897C140.122 84.4683 140.146 84.451 140.172 84.4388C140.198 84.4266 140.227 84.4197 140.256 84.4186C140.821 84.3889 141.396 84.3335 141.957 84.2485C141.987 84.2399 142.018 84.2378 142.049 84.2423C142.079 84.2467 142.109 84.2577 142.135 84.2744C142.161 84.2911 142.183 84.3131 142.2 84.3391C142.216 84.365 142.228 84.3942 142.232 84.4248C142.237 84.4553 142.235 84.4865 142.226 84.5162C142.218 84.546 142.203 84.5736 142.183 84.5971C142.163 84.6207 142.138 84.6398 142.11 84.653C142.083 84.6663 142.052 84.6734 142.021 84.6739C141.443 84.7615 140.861 84.8198 140.277 84.8484L140.273 84.8526ZM137.673 84.8016H137.652C137.069 84.7463 136.486 84.6654 135.916 84.5548C135.887 84.5497 135.86 84.539 135.836 84.5234C135.812 84.5077 135.791 84.4874 135.775 84.4637C135.759 84.4399 135.747 84.4132 135.742 84.385C135.736 84.3568 135.736 84.3277 135.741 84.2995C135.746 84.2713 135.757 84.2444 135.773 84.2204C135.788 84.1965 135.809 84.1759 135.833 84.16C135.856 84.1441 135.883 84.1332 135.911 84.128C135.94 84.1227 135.969 84.1231 135.996 84.1293C136.554 84.2357 137.124 84.3123 137.698 84.3676C137.727 84.3697 137.754 84.3775 137.78 84.3905C137.805 84.4035 137.827 84.4214 137.846 84.4432C137.864 84.4651 137.878 84.4903 137.886 84.5175C137.894 84.5447 137.897 84.5733 137.894 84.6016C137.89 84.6569 137.864 84.7084 137.823 84.7456C137.782 84.7828 137.728 84.8028 137.673 84.8016ZM144.532 84.1123C144.484 84.1125 144.437 84.0973 144.399 84.0689C144.361 84.0405 144.333 84.0005 144.319 83.9549C144.31 83.9281 144.307 83.8998 144.31 83.8718C144.312 83.8437 144.32 83.8165 144.333 83.7915C144.346 83.7666 144.364 83.7445 144.386 83.7265C144.407 83.7086 144.432 83.6951 144.459 83.6868C145.004 83.5209 145.548 83.3294 146.072 83.1124C146.125 83.0912 146.185 83.0917 146.239 83.114C146.292 83.1362 146.334 83.1784 146.357 83.2316C146.378 83.2852 146.378 83.3451 146.355 83.3983C146.333 83.4516 146.291 83.494 146.238 83.5166C145.702 83.7379 145.144 83.9421 144.587 84.1038L144.532 84.1123ZM133.444 83.8783C133.418 83.8846 133.392 83.8846 133.367 83.8783C132.813 83.6868 132.269 83.4667 131.737 83.2188C131.686 83.1939 131.645 83.1497 131.626 83.0957C131.606 83.0417 131.608 82.9821 131.631 82.9295C131.657 82.8783 131.701 82.8389 131.755 82.8191C131.808 82.7994 131.868 82.8008 131.92 82.8231C132.435 83.0614 132.971 83.2784 133.507 83.4656C133.535 83.4747 133.56 83.4891 133.581 83.5079C133.603 83.5268 133.621 83.5498 133.633 83.5755C133.646 83.6012 133.653 83.6292 133.655 83.6578C133.657 83.6864 133.653 83.715 133.644 83.7421C133.629 83.7836 133.602 83.8195 133.566 83.8447C133.53 83.8699 133.487 83.8831 133.444 83.8825V83.8783ZM148.489 82.3721C148.45 82.3721 148.413 82.3623 148.379 82.3437C148.346 82.3251 148.317 82.2983 148.297 82.2657C148.269 82.2158 148.261 82.1569 148.275 82.1013C148.289 82.0458 148.325 81.9979 148.374 81.9679C148.863 81.6743 149.344 81.3595 149.803 81.0233C149.85 80.9897 149.907 80.9757 149.964 80.9845C150.021 80.9933 150.071 81.0241 150.105 81.0701C150.123 81.0929 150.135 81.1188 150.142 81.1465C150.149 81.1741 150.15 81.2029 150.146 81.2311C150.142 81.2593 150.132 81.2863 150.117 81.3105C150.102 81.3348 150.082 81.3558 150.059 81.3722C149.591 81.7169 149.097 82.0445 148.595 82.3423C148.563 82.3621 148.526 82.3738 148.489 82.3764V82.3721ZM129.568 81.9849C129.524 81.9884 129.48 81.9764 129.444 81.9509C128.955 81.636 128.478 81.2871 128.023 80.9255C128.001 80.9077 127.982 80.8856 127.968 80.8605C127.954 80.8354 127.945 80.8079 127.942 80.7794C127.939 80.7509 127.942 80.7221 127.95 80.6946C127.958 80.6671 127.971 80.6414 127.989 80.6191C128.006 80.5968 128.028 80.5782 128.053 80.5644C128.078 80.5505 128.105 80.5418 128.133 80.5386C128.161 80.5354 128.19 80.5379 128.217 80.5459C128.244 80.5539 128.269 80.5672 128.291 80.5851C128.717 80.9382 129.206 81.2786 129.682 81.585C129.729 81.6177 129.762 81.6672 129.774 81.7234C129.786 81.7795 129.776 81.838 129.746 81.887C129.727 81.9167 129.7 81.9412 129.669 81.9582C129.638 81.9753 129.603 81.9845 129.568 81.9849ZM151.926 79.7469C151.866 79.7476 151.808 79.7247 151.765 79.6831C151.744 79.6629 151.728 79.6387 151.716 79.612C151.705 79.5854 151.699 79.5567 151.699 79.5278C151.699 79.4988 151.705 79.4702 151.716 79.4435C151.728 79.4168 151.744 79.3927 151.765 79.3725C152.169 78.9768 152.56 78.5513 152.926 78.096C152.944 78.0737 152.967 78.0553 152.992 78.0418C153.018 78.0284 153.045 78.0202 153.074 78.0178C153.103 78.0155 153.131 78.0189 153.159 78.0279C153.186 78.037 153.211 78.0515 153.233 78.0705C153.254 78.0889 153.272 78.1115 153.286 78.1368C153.299 78.1622 153.307 78.1899 153.309 78.2184C153.311 78.2468 153.308 78.2755 153.299 78.3027C153.291 78.3299 153.277 78.3551 153.258 78.3769C152.883 78.8224 152.485 79.2485 152.067 79.6533C152.05 79.6778 152.028 79.6983 152.002 79.713C151.976 79.7278 151.948 79.7364 151.918 79.7384L151.926 79.7469ZM126.253 79.2065C126.222 79.2077 126.191 79.2022 126.163 79.1904C126.134 79.1787 126.108 79.161 126.087 79.1385C125.686 78.713 125.306 78.2671 124.951 77.8025C124.916 77.7565 124.901 77.6987 124.908 77.6415C124.915 77.5843 124.944 77.5321 124.989 77.4961C125.012 77.4786 125.038 77.4657 125.066 77.4584C125.094 77.451 125.123 77.4493 125.151 77.4532C125.18 77.4572 125.207 77.4668 125.232 77.4815C125.257 77.4961 125.279 77.5156 125.296 77.5387C125.644 77.9911 126.014 78.4256 126.406 78.8406C126.447 78.882 126.47 78.9378 126.47 78.9959C126.47 79.054 126.447 79.1098 126.406 79.1512C126.384 79.1694 126.358 79.1829 126.33 79.1909C126.302 79.199 126.273 79.2014 126.245 79.198L126.253 79.2065ZM154.628 76.3686C154.586 76.3705 154.544 76.3585 154.509 76.3346C154.46 76.3046 154.425 76.2564 154.411 76.2006C154.398 76.1448 154.407 76.0858 154.437 76.0367C154.735 75.5517 155.015 75.0454 155.266 74.539C155.291 74.4871 155.336 74.4472 155.39 74.4281C155.444 74.4089 155.504 74.4121 155.556 74.4369C155.608 74.4626 155.648 74.5078 155.667 74.5628C155.686 74.6177 155.683 74.678 155.658 74.7305C155.398 75.2496 155.113 75.7687 154.807 76.2665C154.786 76.2961 154.757 76.32 154.725 76.3363C154.692 76.3526 154.656 76.3608 154.62 76.3601L154.628 76.3686ZM123.696 75.7219C123.656 75.7226 123.617 75.7127 123.583 75.6933C123.549 75.6738 123.52 75.6455 123.5 75.6112C123.215 75.1007 122.951 74.5731 122.713 74.0412C122.702 74.015 122.696 73.9868 122.696 73.9582C122.695 73.9297 122.701 73.9013 122.711 73.8749C122.722 73.8484 122.738 73.8243 122.758 73.8039C122.778 73.7835 122.802 73.7673 122.828 73.7562C122.854 73.7442 122.882 73.7376 122.91 73.7367C122.939 73.7359 122.967 73.7407 122.994 73.7511C123.021 73.7614 123.045 73.7769 123.065 73.7968C123.086 73.8167 123.102 73.8405 123.113 73.8668C123.343 74.3859 123.602 74.9007 123.879 75.3985C123.907 75.4483 123.914 75.5069 123.899 75.5619C123.883 75.6168 123.847 75.6636 123.798 75.6921C123.764 75.7104 123.726 75.7178 123.687 75.7134L123.696 75.7219ZM156.458 72.4414H156.381C156.327 72.4229 156.282 72.3843 156.256 72.3335C156.23 72.2828 156.224 72.2239 156.241 72.1691C156.417 71.6253 156.567 71.0729 156.687 70.514C156.7 70.4576 156.734 70.4084 156.783 70.3773C156.832 70.3462 156.891 70.3357 156.947 70.3481C157.003 70.3605 157.053 70.3948 157.084 70.4435C157.115 70.4922 157.125 70.5512 157.113 70.6076C156.99 71.1778 156.836 71.7479 156.658 72.3095C156.638 72.3507 156.607 72.3847 156.567 72.4069C156.527 72.429 156.482 72.4381 156.436 72.4329L156.458 72.4414ZM122.062 71.7224C122.014 71.7242 121.966 71.7097 121.926 71.6812C121.887 71.6526 121.858 71.6117 121.845 71.5649C121.688 71.0047 121.56 70.4366 121.462 69.863C121.457 69.8351 121.457 69.8063 121.463 69.7783C121.469 69.7504 121.48 69.724 121.496 69.7006C121.512 69.6771 121.533 69.6572 121.557 69.642C121.582 69.6268 121.608 69.6166 121.637 69.612C121.665 69.6071 121.694 69.6079 121.722 69.6143C121.75 69.6206 121.776 69.6325 121.799 69.6491C121.823 69.6657 121.843 69.6867 121.858 69.7111C121.873 69.7354 121.883 69.7624 121.888 69.7907C121.986 70.3523 122.113 70.914 122.262 71.4586C122.27 71.486 122.273 71.5147 122.27 71.5432C122.267 71.5717 122.259 71.5993 122.245 71.6243C122.231 71.6493 122.212 71.6713 122.189 71.6889C122.167 71.7065 122.141 71.7193 122.113 71.7266L122.062 71.7224ZM157.275 68.1952H157.224C157.166 68.1908 157.112 68.1638 157.074 68.12C157.035 68.0762 157.016 68.0192 157.019 67.9612C157.058 67.3953 157.07 66.8166 157.058 66.2592V66.1827C157.057 66.1542 157.062 66.1258 157.073 66.0993C157.083 66.0727 157.098 66.0485 157.118 66.028C157.138 66.0074 157.162 65.991 157.188 65.9795C157.214 65.9681 157.242 65.962 157.27 65.9614C157.299 65.9603 157.328 65.9649 157.354 65.9751C157.381 65.9853 157.406 66.0008 157.426 66.0206C157.447 66.0405 157.463 66.0643 157.475 66.0907C157.486 66.1171 157.492 66.1455 157.492 66.1741V66.2422C157.509 66.8282 157.496 67.4147 157.453 67.9994C157.447 68.0489 157.423 68.0945 157.387 68.1286C157.35 68.1627 157.303 68.1832 157.253 68.1867L157.275 68.1952ZM121.42 67.4251C121.392 67.428 121.365 67.4253 121.339 67.4171C121.312 67.4089 121.288 67.3954 121.267 67.3774C121.247 67.3595 121.23 67.3374 121.218 67.3127C121.206 67.2879 121.199 67.261 121.198 67.2336V67.1953C121.198 66.6252 121.198 66.0465 121.232 65.4934C121.238 65.4366 121.264 65.3839 121.307 65.346C121.35 65.3082 121.405 65.2878 121.462 65.2892C121.52 65.2935 121.574 65.3205 121.612 65.3643C121.65 65.4081 121.67 65.4652 121.666 65.5232C121.628 66.0763 121.615 66.6379 121.632 67.1995C121.629 67.259 121.603 67.3148 121.559 67.3553C121.516 67.3958 121.458 67.4177 121.398 67.4165L121.42 67.4251ZM157.041 63.8C156.989 63.8017 156.938 63.7845 156.898 63.7516C156.858 63.7187 156.832 63.6724 156.824 63.6213C156.726 63.0593 156.599 62.5026 156.445 61.9534C156.429 61.897 156.436 61.8366 156.465 61.7855C156.494 61.7345 156.542 61.6969 156.598 61.6811C156.655 61.6653 156.715 61.6726 156.766 61.7013C156.817 61.73 156.855 61.7778 156.87 61.8343C157.029 62.3945 157.158 62.9626 157.258 63.5362C157.263 63.5644 157.263 63.5935 157.257 63.6217C157.251 63.6498 157.24 63.6766 157.224 63.7003C157.208 63.7241 157.187 63.7444 157.163 63.76C157.139 63.7757 157.111 63.7864 157.083 63.7915L157.041 63.8ZM121.815 63.1362C121.799 63.1404 121.781 63.1404 121.764 63.1362C121.736 63.1307 121.71 63.1196 121.687 63.1037C121.663 63.0878 121.643 63.0673 121.628 63.0435C121.612 63.0198 121.601 62.9931 121.596 62.9652C121.591 62.9373 121.592 62.9086 121.598 62.8809C121.72 62.3064 121.87 61.7384 122.049 61.179C122.067 61.1226 122.106 61.0754 122.158 61.0479C122.211 61.0204 122.272 61.0148 122.328 61.0322C122.384 61.0497 122.432 61.0889 122.459 61.1412C122.487 61.1935 122.492 61.2545 122.475 61.3109C122.305 61.8513 122.156 62.4087 122.049 62.966C122.043 62.9935 122.032 63.0195 122.016 63.0425C122 63.0655 121.979 63.0851 121.955 63.1001C121.932 63.1151 121.905 63.1253 121.877 63.13C121.85 63.1348 121.821 63.134 121.794 63.1277L121.815 63.1362ZM155.781 59.6643C155.738 59.6656 155.696 59.6542 155.66 59.6314C155.623 59.6087 155.595 59.5758 155.577 59.5367C155.347 59.0176 155.088 58.5028 154.811 58.005C154.783 57.9548 154.776 57.8954 154.791 57.8399C154.807 57.7845 154.844 57.7375 154.894 57.7093C154.944 57.6811 155.004 57.6739 155.059 57.6895C155.115 57.7051 155.162 57.742 155.19 57.7922C155.475 58.2985 155.739 58.8261 155.977 59.358C156 59.4111 156.001 59.4711 155.981 59.5252C155.96 59.5793 155.919 59.6232 155.866 59.6473C155.832 59.6564 155.796 59.6593 155.76 59.6558L155.781 59.6643ZM123.232 59.0516C123.198 59.0512 123.165 59.044 123.134 59.0304C123.082 59.0047 123.042 58.9595 123.023 58.9045C123.004 58.8496 123.007 58.7893 123.032 58.7368C123.287 58.2177 123.573 57.6986 123.883 57.2008C123.914 57.1526 123.962 57.1182 124.018 57.1047C124.073 57.0912 124.132 57.0998 124.181 57.1285C124.206 57.1433 124.227 57.163 124.245 57.1863C124.262 57.2096 124.274 57.2361 124.281 57.2643C124.288 57.2924 124.289 57.3217 124.284 57.3502C124.279 57.3788 124.269 57.4061 124.253 57.4306C123.955 57.9156 123.675 58.4219 123.428 58.9283C123.407 58.9667 123.375 58.9981 123.337 59.0186C123.298 59.039 123.254 59.0476 123.211 59.0431L123.232 59.0516ZM153.564 55.9499C153.53 55.9511 153.497 55.9444 153.466 55.9304C153.435 55.9164 153.407 55.8954 153.386 55.8691C153.039 55.4158 152.668 54.9812 152.275 54.5671C152.235 54.5252 152.213 54.4696 152.213 54.4118C152.213 54.354 152.235 54.2984 152.275 54.2565C152.316 54.217 152.371 54.1949 152.428 54.1949C152.486 54.1949 152.54 54.217 152.582 54.2565C152.982 54.682 153.369 55.133 153.722 55.5925C153.74 55.6148 153.754 55.6407 153.762 55.6684C153.77 55.6962 153.772 55.7253 153.769 55.7539C153.765 55.7826 153.756 55.8102 153.741 55.8351C153.726 55.86 153.707 55.8817 153.684 55.8989C153.644 55.9303 153.594 55.9455 153.543 55.9414L153.564 55.9499ZM125.589 55.4223C125.536 55.4243 125.485 55.406 125.445 55.3713C125.423 55.3528 125.405 55.3303 125.392 55.3049C125.379 55.2796 125.371 55.2519 125.368 55.2234C125.366 55.1949 125.369 55.1663 125.378 55.1391C125.387 55.1119 125.401 55.0867 125.419 55.0649C125.793 54.6194 126.189 54.1933 126.606 53.7885C126.647 53.7479 126.702 53.7252 126.759 53.7252C126.817 53.7252 126.872 53.7479 126.913 53.7885C126.953 53.8299 126.976 53.8857 126.976 53.9438C126.976 54.0019 126.953 54.0577 126.913 54.0991C126.487 54.499 126.117 54.9245 125.751 55.3755C125.726 55.3957 125.696 55.4097 125.664 55.4163C125.632 55.423 125.599 55.4221 125.568 55.4138L125.589 55.4223ZM150.527 52.8695C150.476 52.8708 150.426 52.8542 150.386 52.8227C149.939 52.4695 149.471 52.1334 148.995 51.8228C148.971 51.8073 148.95 51.7871 148.934 51.7634C148.917 51.7398 148.906 51.7132 148.9 51.6851C148.894 51.657 148.894 51.628 148.899 51.5997C148.904 51.5715 148.915 51.5447 148.931 51.5207C148.963 51.4728 149.013 51.4393 149.069 51.4274C149.126 51.4154 149.184 51.426 149.233 51.4569C149.718 51.776 150.199 52.1206 150.654 52.4823C150.677 52.4998 150.696 52.5216 150.71 52.5465C150.725 52.5714 150.734 52.5989 150.737 52.6274C150.741 52.6559 150.739 52.6849 150.731 52.7125C150.723 52.7402 150.71 52.7661 150.692 52.7886C150.67 52.8153 150.641 52.8362 150.608 52.8495C150.576 52.8629 150.54 52.8682 150.505 52.8652L150.527 52.8695ZM128.742 52.444C128.707 52.4452 128.673 52.4377 128.641 52.4221C128.61 52.4065 128.583 52.3833 128.563 52.3546C128.546 52.3319 128.534 52.3059 128.527 52.2783C128.52 52.2506 128.518 52.2218 128.523 52.1937C128.527 52.1655 128.537 52.1385 128.552 52.1142C128.567 52.09 128.587 52.069 128.61 52.0525C129.078 51.7079 129.568 51.3803 130.07 51.0824C130.094 51.0673 130.121 51.0572 130.15 51.0528C130.178 51.0485 130.207 51.0499 130.235 51.0571C130.263 51.0642 130.289 51.077 130.312 51.0945C130.334 51.112 130.353 51.134 130.367 51.159C130.397 51.2081 130.406 51.2671 130.393 51.3229C130.379 51.3787 130.344 51.4269 130.295 51.4569C129.803 51.7474 129.326 52.0627 128.865 52.4014C128.846 52.4198 128.822 52.4338 128.796 52.4426C128.771 52.4514 128.744 52.4547 128.717 52.4525L128.742 52.444ZM146.842 50.5931C146.808 50.5947 146.774 50.5873 146.744 50.5719C146.225 50.3336 145.689 50.1209 145.153 49.9337C145.125 49.9242 145.099 49.9092 145.077 49.8898C145.055 49.8703 145.037 49.8467 145.024 49.8202C145.01 49.7937 145.003 49.7649 145.001 49.7355C144.999 49.7061 145.003 49.6765 145.012 49.6486C145.022 49.6206 145.037 49.5949 145.056 49.5727C145.076 49.5505 145.099 49.5324 145.126 49.5193C145.152 49.5063 145.181 49.4986 145.211 49.4967C145.24 49.4948 145.27 49.4987 145.297 49.5082C145.846 49.6954 146.395 49.9337 146.927 50.1592C146.978 50.1849 147.018 50.2291 147.037 50.2828C147.057 50.3365 147.056 50.3958 147.033 50.4485C147.017 50.4923 146.988 50.5304 146.95 50.5577C146.913 50.5849 146.867 50.6003 146.821 50.6017L146.842 50.5931ZM132.508 50.3208C132.464 50.3223 132.421 50.3105 132.385 50.2869C132.348 50.2634 132.32 50.2292 132.303 50.1889C132.292 50.1627 132.286 50.1345 132.286 50.1059C132.286 50.0774 132.291 50.049 132.302 50.0226C132.312 49.9961 132.328 49.972 132.348 49.9516C132.368 49.9312 132.392 49.915 132.418 49.9039C132.959 49.6784 133.516 49.4784 134.073 49.3125C134.101 49.3041 134.131 49.3013 134.16 49.3042C134.189 49.3072 134.217 49.3158 134.242 49.3296C134.268 49.3435 134.291 49.3622 134.309 49.3848C134.328 49.4074 134.342 49.4334 134.35 49.4614C134.358 49.4893 134.361 49.5186 134.358 49.5476C134.355 49.5767 134.347 49.6048 134.333 49.6305C134.319 49.6562 134.3 49.6789 134.278 49.6973C134.255 49.7157 134.229 49.7296 134.201 49.7379C133.656 49.9039 133.112 50.0953 132.588 50.3123C132.557 50.3277 132.521 50.3336 132.486 50.3293L132.508 50.3208ZM142.719 49.2784H142.672C142.115 49.172 141.54 49.0955 140.97 49.0444C140.942 49.0417 140.914 49.0334 140.889 49.02C140.863 49.0066 140.841 48.9882 140.823 48.9661C140.805 48.9439 140.791 48.9184 140.783 48.8909C140.774 48.8635 140.772 48.8347 140.775 48.8061C140.777 48.7778 140.785 48.7501 140.798 48.7248C140.811 48.6995 140.828 48.6771 140.85 48.6588C140.872 48.6406 140.897 48.6269 140.925 48.6186C140.952 48.6103 140.98 48.6075 141.009 48.6104C141.592 48.6614 142.173 48.7424 142.749 48.8529C142.805 48.8633 142.855 48.8955 142.888 48.9425C142.92 48.9895 142.933 49.0476 142.923 49.104C142.913 49.1561 142.885 49.2031 142.844 49.2366C142.803 49.27 142.751 49.2879 142.698 49.2869L142.719 49.2784ZM136.677 49.1678C136.627 49.1633 136.579 49.1412 136.543 49.1052C136.507 49.0693 136.485 49.0218 136.48 48.9711C136.476 48.9204 136.489 48.8697 136.518 48.8278C136.547 48.786 136.59 48.7557 136.639 48.7423C137.213 48.6572 137.801 48.5977 138.383 48.5679C138.43 48.5811 138.47 48.609 138.499 48.6474C138.528 48.6858 138.544 48.7325 138.544 48.7806C138.544 48.8287 138.528 48.8755 138.499 48.9138C138.47 48.9522 138.43 48.9801 138.383 48.9933C137.813 49.0231 137.239 49.0784 136.682 49.1635L136.677 49.1678Z" fill="#E9E5FD"/>
<path d="M139.34 91.4392C142.635 91.4392 145.306 88.7685 145.306 85.474C145.306 82.1795 142.635 79.5088 139.34 79.5088C136.046 79.5088 133.375 82.1795 133.375 85.474C133.375 88.7685 136.046 91.4392 139.34 91.4392Z" fill="#FFAA00"/>
<path d="M46.9998 75C46.4424 76.3998 48.1433 84.1678 49.9218 84.4784C49.9559 84.4443 42.5142 85.976 39.3785 85.457C36.2427 84.9379 34.8386 83.8061 34.8386 83.8061C36.4129 81.0575 37.2256 78.8067 37.1788 75.8326L46.9998 75Z" fill="#E2B9A3"/>
<path d="M58.4828 108.48C58.4828 108.48 51.3433 108.416 43.3997 108.412V108.365C34.6774 108.475 26.2699 108.667 26.2699 108.667C26.1763 109.424 27.4868 115.172 30.8055 117.3L31.9671 143.062L36.541 143.16C36.541 143.16 38.3577 126.567 40.5234 119.712C40.9489 118.559 41.1148 117.61 42.0381 117.555C43.0593 117.61 43.0593 118.453 43.689 119.725C45.9185 126.533 48.5437 143.126 48.5437 143.126L53.1133 142.969L53.3814 117.198C56.6788 115.023 58.5679 109.237 58.4828 108.48Z" fill="#1C1714"/>
<path d="M43.399 108.412V108.365C34.6767 108.475 26.2693 108.667 26.2693 108.667C26.3337 109.561 26.4847 110.448 26.7203 111.313H57.661C58.2352 110.482 58.533 109.49 58.512 108.48C58.512 108.48 51.3427 108.416 43.399 108.412Z" fill="black"/>
<path d="M52.734 138.901C49.6493 138.901 47.1517 141.029 47.1517 143.603V143.722H58.312V143.603C58.312 141.007 55.8145 138.901 52.734 138.901Z" fill="black"/>
<path d="M32.7366 138.999C29.6561 138.999 27.1543 141.126 27.1543 143.679C27.1543 143.722 27.1543 143.76 27.1543 143.798H38.3103C38.3125 143.759 38.3125 143.719 38.3103 143.679C38.3103 141.088 35.8128 138.999 32.7281 138.999H32.7366Z" fill="black"/>
<path d="M56.5591 141.326C56.1337 140.705 55.4657 140.437 54.1594 140.233C53.9084 140.195 53.7978 139.829 54.1297 139.854C56.9208 140.042 56.6825 141.535 56.5591 141.326Z" fill="#3C3B3D"/>
<path d="M36.9279 141.769C36.5024 141.143 35.8344 140.88 34.5282 140.675C34.2772 140.633 34.1666 140.271 34.4984 140.292C37.2896 140.484 37.0513 141.973 36.9279 141.769Z" fill="#3C3B3D"/>
<path d="M61.5 82.0002C65.3028 86.0003 62.3966 105.523 59.4821 108.956C58.1759 110.786 37.3573 110.233 27.2649 110.292C25.0439 110.292 24.0058 106.825 23.9675 104.204C23.9675 104.204 19.4997 91.5003 21.4995 85.5003C23.4992 79.5002 28.6623 78.8312 34.1181 78.4759C34.6633 78.4404 35.2184 78.408 35.7812 78.3787C36.7565 78.3279 37.755 78.2863 38.7656 78.2539C39.6931 78.2241 37.3389 81.0002 41.5001 81.0002C45.0145 81.0002 43.7309 78.1646 44.8074 78.1646C52.2915 78.1816 57.6972 78.0002 61.5 82.0002Z" fill="#236852"/>
<path d="M40.582 78.4466C40.4799 78.6381 37.2888 85.7095 37.1782 85.4713C37.0676 85.233 33 79.7656 33 79.7656C33 79.7656 35.3869 76.9958 35.4167 77L40.582 78.4466Z" fill="#37A07F"/>
<path d="M42.6372 78.1815C42.7393 78.373 45.9347 85.4444 46.041 85.2061C46.1474 84.9679 50.2192 79.5005 50.2192 79.5005C50.2192 79.5005 47.828 76.7306 47.8025 76.7349L42.6372 78.1815Z" fill="#37A07F"/>
<path d="M20.0873 47.3344C20.2703 49.5469 22.0445 52.8656 21.1085 56.6268C20.5851 61.9283 19.632 67.6425 25.7887 73.1694C30.9795 78.5219 46.6839 78.2369 55.5254 70.9314C61.7926 66.549 60.746 59.4946 60.746 59.4946C65.473 57.6735 67.3962 50.5595 64.6178 49.9341C64.0262 49.7975 63.4111 49.7998 62.8205 49.9408C62.23 50.0818 61.6801 50.3576 61.214 50.7467C61.214 50.7467 61.3246 39.646 59.227 36.7655C48.973 31.1109 37.8468 33.1702 26.912 34.8381C26.9035 34.8381 19.615 41.5649 20.0873 47.3344Z" fill="url(#paint0_linear)"/>
<path d="M39.5189 49.5681C43.0844 49.6957 46.1734 50.3084 48.0923 51.5806C49.2113 52.006 49.8708 50.1637 48.5561 49.4532C45.9206 48.1286 42.9944 47.4878 40.0465 47.5896C38.4425 47.6109 37.8255 49.5127 39.5189 49.5681Z" fill="#4E1E05"/>
<path d="M30.1845 51.1466C26.9125 51.5721 24.1469 52.4018 22.5471 53.8058C21.577 54.3292 20.7176 52.5549 21.8366 51.755C23.8959 50.2829 26.5679 49.449 29.4271 49.2447C30.9163 49.1384 31.7375 50.9551 30.1845 51.1466Z" fill="#4E1E05"/>
<path d="M32.737 60.8136L36.3366 62.7367C36.3366 62.7367 33.805 62.8091 33.5454 62.6857C32.8789 62.1201 32.2625 61.498 31.7031 60.8263C34.256 59.1755 33.8901 55.9035 32.8434 53.7251C34.7878 56.5077 34.49 58.4139 32.737 60.8136Z" fill="#E8B79D"/>
<path d="M42.812 57.4181C42.2848 57.4799 41.7512 57.3833 41.2791 57.1405C40.807 56.8978 40.418 56.52 40.1615 56.0552C39.9051 55.5905 39.7928 55.0599 39.8392 54.5311C39.8855 54.0023 40.0883 53.4993 40.4216 53.0862C40.755 52.6731 41.2038 52.3687 41.7109 52.2118C42.218 52.0548 42.7603 52.0524 43.2687 52.205C43.7772 52.3575 44.2286 52.658 44.5656 53.0681C44.9026 53.4783 45.1097 53.9795 45.1607 54.5079C45.2334 55.2049 45.0272 55.9024 44.587 56.4478C44.1469 56.9932 43.5087 57.342 42.812 57.4181Z" fill="#E8B79D"/>
<path d="M42.71 56.912C42.2468 56.9441 41.7843 56.839 41.3806 56.6097C40.9768 56.3805 40.6495 56.0373 40.4398 55.623C40.23 55.2088 40.147 54.7419 40.2012 54.2807C40.2554 53.8195 40.4443 53.3846 40.7444 53.0302C41.0444 52.6759 41.4423 52.4178 41.8882 52.2884C42.3342 52.159 42.8083 52.1639 43.2515 52.3025C43.6947 52.4412 44.0871 52.7074 44.3798 53.0679C44.6724 53.4284 44.8523 53.8671 44.8969 54.3293C44.9232 54.6425 44.8874 54.9579 44.7916 55.2572C44.6959 55.5566 44.542 55.8342 44.3389 56.0741C44.1358 56.3139 43.8874 56.5114 43.6079 56.6552C43.3284 56.799 43.0232 56.8862 42.71 56.912Z" fill="black"/>
<path d="M40.5275 54.7545C40.5529 55.1116 40.6841 55.4529 40.9045 55.735C41.1249 56.0171 41.4244 56.227 41.7647 56.338C42.105 56.449 42.4707 56.456 42.815 56.3581C43.1593 56.2602 43.4666 56.0618 43.6976 55.7884C43.9286 55.5149 44.0728 55.1788 44.1118 54.823C44.1508 54.4672 44.0828 54.1078 43.9165 53.7908C43.7502 53.4738 43.4932 53.2136 43.1783 53.0435C42.8633 52.8733 42.5048 52.801 42.1485 52.8356C41.6798 52.8768 41.2463 53.1016 40.9426 53.461C40.639 53.8205 40.4897 54.2855 40.5275 54.7545Z" fill="#111111"/>
<path d="M41.8637 54.7757C41.6722 54.7859 41.4842 54.7218 41.3387 54.5968C41.1933 54.4717 41.1018 54.2954 41.0831 54.1046C41.0645 53.9137 41.1202 53.723 41.2386 53.5722C41.3571 53.4214 41.5292 53.3221 41.719 53.295C41.91 53.2845 42.0974 53.3496 42.2407 53.4762C42.3841 53.6028 42.4718 53.7808 42.4849 53.9716C42.509 54.1605 42.4571 54.3514 42.3407 54.5021C42.2242 54.6529 42.0527 54.7513 41.8637 54.7757Z" fill="white"/>
<path d="M65.0647 53.3335C65.4136 54.1312 65.4736 55.0254 65.2344 55.8625C64.9953 56.6996 64.4719 57.4272 63.7543 57.9202C62.6055 58.7328 61.5801 58.7286 61.6864 57.8904C61.7928 57.0522 63.6223 56.0693 63.0565 55.3375C62.4906 54.6057 61.7502 55.1418 61.4694 54.5504C61.0227 53.6313 63.2267 48.7298 65.0647 53.3335Z" fill="#D29E73"/>
<path d="M26.8483 58.7287C26.3212 58.7896 25.7878 58.6922 25.3163 58.4489C24.8447 58.2055 24.4563 57.8273 24.2005 57.3624C23.9447 56.8975 23.8331 56.3669 23.88 55.8383C23.9268 55.3097 24.13 54.8071 24.4636 54.3944C24.7973 53.9818 25.2462 53.6778 25.7532 53.5213C26.2603 53.3647 26.8024 53.3627 27.3106 53.5154C27.8188 53.6682 28.27 53.9688 28.6067 54.3789C28.9434 54.7891 29.1504 55.2902 29.2012 55.8184C29.2728 56.5159 29.0655 57.2134 28.6247 57.7586C28.1839 58.3038 27.5453 58.6526 26.8483 58.7287Z" fill="#E8B79D"/>
<path d="M26.7463 58.2219C26.2828 58.2557 25.8197 58.1521 25.4149 57.924C25.0101 57.6958 24.6816 57.3533 24.4705 56.9394C24.2595 56.5254 24.1752 56.0583 24.2284 55.5967C24.2815 55.1351 24.4697 54.6994 24.7693 54.3442C25.0689 53.9891 25.4666 53.7302 25.9126 53.6C26.3587 53.4698 26.8333 53.4741 27.2769 53.6123C27.7205 53.7506 28.1135 54.0166 28.4066 54.3772C28.6997 54.7377 28.8799 55.1767 28.9247 55.6393C28.9766 56.2702 28.7766 56.8961 28.3684 57.3801C27.9602 57.864 27.377 58.1667 26.7463 58.2219Z" fill="black"/>
<path d="M24.568 56.0818C24.5926 56.4391 24.7232 56.781 24.9431 57.0636C25.163 57.3463 25.4623 57.5569 25.8026 57.6686C26.1429 57.7802 26.5088 57.7878 26.8534 57.6903C27.198 57.5928 27.5057 57.3948 27.7372 57.1214C27.9686 56.8481 28.1132 56.5119 28.1525 56.1559C28.1918 55.8 28.124 55.4403 27.9578 55.1231C27.7915 54.8059 27.5344 54.5455 27.2194 54.3752C26.9043 54.2049 26.5456 54.1325 26.1891 54.1672C25.9568 54.1859 25.7304 54.2504 25.5231 54.3569C25.3157 54.4634 25.1314 54.6098 24.9808 54.7877C24.8302 54.9656 24.7162 55.1715 24.6453 55.3936C24.5745 55.6157 24.5482 55.8496 24.568 56.0818Z" fill="#111111"/>
<path d="M25.8991 56.0908C25.7518 56.1148 25.6007 56.094 25.4654 56.031C25.33 55.9681 25.2167 55.8659 25.1402 55.7378C25.0636 55.6097 25.0274 55.4615 25.0361 55.3125C25.0448 55.1635 25.098 55.0206 25.189 54.9022C25.2799 54.7839 25.4043 54.6956 25.5461 54.6488C25.6878 54.6021 25.8403 54.599 25.9838 54.6399C26.1273 54.6809 26.2552 54.7641 26.3509 54.8787C26.4466 54.9932 26.5056 55.1339 26.5203 55.2824C26.5329 55.3763 26.5267 55.4718 26.5023 55.5633C26.4778 55.6548 26.4355 55.7406 26.3778 55.8157C26.32 55.8909 26.248 55.9538 26.1659 56.001C26.0838 56.0482 25.9931 56.0787 25.8991 56.0908Z" fill="white"/>
<path d="M9.22899 84.2796L7.30583 80.0248C7.20171 79.7864 7.19165 79.5175 7.27768 79.272C7.36371 79.0266 7.53946 78.8228 7.7696 78.7016L8.14402 78.5101C8.25337 78.4506 8.37386 78.4144 8.49789 78.4037C8.62192 78.393 8.74682 78.4082 8.86472 78.4481C8.98262 78.4881 9.09097 78.552 9.18295 78.6359C9.27493 78.7198 9.34855 78.8218 9.39918 78.9356L11.3223 83.1903C11.4252 83.4282 11.4346 83.6961 11.3486 83.9406C11.2627 84.1851 11.0877 84.3882 10.8586 84.5093L10.4799 84.705C10.3707 84.7638 10.2506 84.7995 10.1271 84.8098C10.0035 84.8201 9.87913 84.8048 9.76175 84.7648C9.64436 84.7249 9.53647 84.6612 9.4448 84.5777C9.35314 84.4942 9.27967 84.3927 9.22899 84.2796Z" fill="url(#paint1_linear)"/>
<path d="M4.28953 81.6036L1.31118 79.7825C1.13041 79.6722 1.00042 79.4951 0.949439 79.2896C0.898457 79.0841 0.930595 78.8667 1.03888 78.6848L1.21758 78.3827C1.27052 78.2937 1.34059 78.2161 1.42374 78.1543C1.50689 78.0926 1.60146 78.048 1.70197 78.023C1.80249 77.9981 1.90695 77.9934 2.00931 78.0091C2.11167 78.0248 2.20989 78.0607 2.29829 78.1146L5.27664 79.9357C5.45655 80.0467 5.58582 80.2238 5.63672 80.429C5.68762 80.6342 5.65611 80.8512 5.54894 81.0334L5.37024 81.3355C5.31771 81.4249 5.24785 81.503 5.16474 81.565C5.08163 81.6271 4.98696 81.6719 4.88628 81.6969C4.78561 81.7219 4.68096 81.7265 4.57849 81.7105C4.47601 81.6944 4.37776 81.6581 4.28953 81.6036Z" fill="url(#paint2_linear)"/>
<path d="M4.98705 82.3263L2.88945 79.5437C2.76162 79.3748 2.70516 79.1626 2.73221 78.9525C2.75926 78.7425 2.86767 78.5514 3.03411 78.4204L3.31067 78.2077C3.39227 78.1432 3.48595 78.0958 3.5862 78.0681C3.68644 78.0404 3.79121 78.0331 3.89432 78.0466C3.99743 78.0601 4.0968 78.0941 4.18655 78.1466C4.27631 78.1991 4.35464 78.2691 4.41691 78.3524L6.51878 81.135C6.64483 81.3041 6.6998 81.5157 6.67198 81.7248C6.64416 81.9339 6.53574 82.1238 6.36986 82.254L6.0933 82.471C6.01147 82.5349 5.91775 82.5819 5.81759 82.6092C5.71744 82.6366 5.61284 82.6437 5.50989 82.6303C5.40694 82.6168 5.3077 82.583 5.21794 82.5308C5.12818 82.4786 5.04969 82.4091 4.98705 82.3263Z" fill="url(#paint3_linear)"/>
<path d="M10.5695 86.9303C8.39528 87.6877 8.57823 85.2539 5.28929 83.6159C4.95316 83.4074 4.26814 83.1521 2.91937 82.5181C2.03012 81.9905 0.791985 81.0545 0.00910577 80.6673C-0.233417 77.9783 4.42131 80.3865 7.66771 81.548C11.8374 82.1309 12.8585 82.399 13.1351 84.9518C13.2372 86.0623 11.4502 86.2411 10.5695 86.9303Z" fill="url(#paint4_linear)"/>
<path d="M22.828 83.2202L15.5396 91.4404C14.5737 87.9685 14.4163 88.2621 12.757 84.1009C12.757 84.1009 10.9444 85.8284 8.70215 85.905C9.02551 88.8238 11.0593 99.4777 15.4077 99.0948C19.9135 98.6948 21.7899 94.4528 23.7513 92.5935L22.828 83.2202Z" fill="#236852"/>
<path d="M13.1732 83.6626L7.74414 86.2155C7.74414 86.2155 8.53978 88.3982 8.63764 88.3429C8.7355 88.2875 13.9944 86.2155 13.9944 86.2155L13.1732 83.6626Z" fill="#37A07F"/>
<path d="M74.7595 83.2577L76.6827 79.0029C76.7856 78.765 76.795 78.4971 76.709 78.2526C76.623 78.0082 76.448 77.8051 76.2189 77.6839L75.8402 77.4882C75.7311 77.4294 75.611 77.3938 75.4874 77.3835C75.3638 77.3732 75.2395 77.3885 75.1221 77.4284C75.0047 77.4683 74.8968 77.532 74.8052 77.6155C74.7135 77.699 74.64 77.8005 74.5893 77.9137L72.6662 82.1685C72.5621 82.4068 72.552 82.6758 72.638 82.9212C72.7241 83.1667 72.8998 83.3705 73.13 83.4917L73.5044 83.6874C73.6141 83.7461 73.7348 83.7816 73.8589 83.7917C73.9829 83.8017 74.1077 83.7861 74.2255 83.7458C74.3432 83.7054 74.4514 83.6413 74.5433 83.5573C74.6352 83.4734 74.7088 83.3714 74.7595 83.2577Z" fill="url(#paint5_linear)"/>
<path d="M79.6994 80.6026L82.6777 78.7858C82.8576 78.6748 82.9869 78.4977 83.0378 78.2925C83.0887 78.0873 83.0572 77.8703 82.95 77.6881L82.7713 77.386C82.7192 77.2961 82.6495 77.2176 82.5665 77.1552C82.4834 77.0928 82.3886 77.0478 82.2878 77.0228C82.187 76.9978 82.0821 76.9933 81.9795 77.0096C81.8769 77.026 81.7787 77.0628 81.6906 77.1179L78.7122 78.939C78.5318 79.0484 78.4019 79.2248 78.3509 79.4296C78.2999 79.6345 78.3319 79.8511 78.4399 80.0325L78.6186 80.3345C78.6707 80.4244 78.7404 80.5029 78.8235 80.5653C78.9065 80.6277 79.0013 80.6728 79.1021 80.6978C79.203 80.7228 79.3078 80.7272 79.4104 80.7109C79.513 80.6945 79.6113 80.6577 79.6994 80.6026Z" fill="url(#paint6_linear)"/>
<path d="M78.9981 81.3257L81.0999 78.5431C81.227 78.3744 81.2827 78.1625 81.2548 77.9531C81.227 77.7437 81.1178 77.5537 80.951 77.4241L80.6787 77.2071C80.5968 77.1429 80.5029 77.0957 80.4025 77.0684C80.3021 77.041 80.1973 77.0341 80.0941 77.048C79.991 77.0619 79.8917 77.0963 79.8021 77.1492C79.7125 77.2021 79.6344 77.2724 79.5725 77.356L77.4621 80.1344C77.3347 80.3038 77.279 80.5164 77.3068 80.7265C77.3347 80.9366 77.4439 81.1273 77.611 81.2577L77.8876 81.4704C77.969 81.5361 78.063 81.5846 78.1637 81.613C78.2645 81.6414 78.37 81.6491 78.4738 81.6355C78.5776 81.622 78.6775 81.5876 78.7676 81.5343C78.8578 81.4811 78.9361 81.4101 78.9981 81.3257Z" fill="url(#paint7_linear)"/>
<path d="M73.4198 85.9341C75.5897 86.6915 75.4068 84.2578 78.6957 82.6197C79.0361 82.4069 79.7169 82.1559 81.0699 81.5219C81.9549 80.9943 83.1973 80.0583 83.9802 79.6711C84.2227 76.9778 79.5637 79.386 76.3215 80.5518C72.1561 81.1347 71.135 81.4241 70.8542 83.9557C70.7478 85.0832 72.5348 85.2449 73.4198 85.9341Z" fill="url(#paint8_linear)"/>
<path d="M60.8978 82.1943L68.2117 90.4146C69.1776 86.9384 69.335 87.2362 70.9943 83.0751C70.9943 83.0751 72.8069 84.8025 75.0491 84.8791C74.7258 87.7979 72.692 98.4518 68.3436 98.0689C63.8378 97.6647 61.9615 93.4269 60 91.5676L60.8978 82.1943Z" fill="#236852"/>
<path d="M70.5555 82.6367C70.7768 82.7346 75.9846 85.1896 75.9846 85.1896C75.9846 85.1896 75.189 87.3723 75.0911 87.317C74.9933 87.2617 69.7344 85.1896 69.7344 85.1896L70.5555 82.6367Z" fill="#37A07F"/>
<path d="M41.2805 70.3782C40.4551 68.6763 32.6433 67.2892 32.3923 69.3315C32.1327 64.8981 40.6423 65.8171 41.2805 70.3782Z" fill="#320000"/>
<path d="M35.1497 68.0082C33.2733 67.9827 32.4777 68.5103 32.3926 69.3144C32.7755 67.3572 40.1533 68.7953 41.2808 70.3781C40.5107 68.7315 37.3536 68.0337 35.1497 68.0082Z" fill="#E8B79D"/>
<path d="M20.1767 46.2448C20.1767 46.5298 20.3597 48.0573 20.6958 50.0145C20.9213 51.342 21.3553 51.6654 21.3979 54.5714C21.4447 58.1199 20.7298 59.4984 20.7298 61.1493L17.9089 44.5556L19.3385 38.7436L20.3554 37.2331L28.5757 35.3015L47.8328 33.8506L60.5163 38.684L63.333 42.3048L61.9161 58.0305C61.6821 59.6431 60.3972 64.5446 59.5675 65.5189C57.9251 67.4506 56.5486 66.7572 55.9998 66.9998C56.3104 62.1706 56.7508 51.3355 56.7508 47.9998C56.7508 44.8597 56.7121 42.9379 53.4998 41.4998C50.2874 40.0616 34.8344 39.4201 27.0695 40.6285C20.3554 41.6794 20.1767 45.0492 20.1767 46.2448Z" fill="#4BC999"/>
<path d="M19.8833 45.3942C19.9272 46.8422 20.0837 48.2847 20.3513 49.7085C20.5768 50.9296 20.9385 52.5805 21.1129 54.3207C21.4576 57.7458 20.6875 58.7244 20.6875 60.9411L18.4452 44.3049L19.1983 40.1948L20.3471 37.259L28.5673 35.3273L47.8244 33.8765L60.5079 38.7099L63.3246 42.3307L61.9163 58.0308C61.6823 59.6434 61.0653 63.1366 60.5079 64.3109C59.9783 65.2686 57.9955 66.546 56.9999 67.0002C57.3147 62.1711 57.7934 52.3147 58.1593 49.0002C58.8656 42.7074 56.4463 40.9341 52.9999 39.5002C49.2982 37.9558 35.6941 37.4207 27.861 38.7099C21.3597 39.7778 19.8833 44.1858 19.8833 45.3942Z" fill="#37A07F"/>
<path d="M16.054 33.6253C15.5179 35.5655 15.4583 40.7223 15.6923 43.9431C15.8672 46.2744 16.2214 48.5888 16.7518 50.8657C17.357 53.4284 18.1389 55.9462 19.0919 58.4009C19.5386 59.4859 20.8661 61.9196 20.6959 60.9538C20.6108 60.4645 20.9555 57.4351 20.6193 53.81C20.3683 51.0699 19.6705 47.1555 19.5046 46.1897C19.194 44.3644 19.8322 42.6241 20.6193 41.2924C21.6272 39.8261 23.1059 38.7482 24.8103 38.2375C29.0948 37.0261 33.5185 36.3768 37.9703 36.3058C42.2038 36.2675 47.0543 36.7908 53.6279 37.7567C60.2016 38.7225 59.9998 45.5684 59.9998 47.5C59.9998 48.4659 58.9998 61.5577 58.9998 63C58.9998 64.4424 58.2977 66.4574 58.9998 65.5C68.9998 58.4009 69.7061 42.4884 68.9998 35C68.2935 27.5116 63.9998 14.5 43.9998 13.5C24.8103 13.5 18.126 26.1369 16.054 33.6253Z" fill="#236852"/>
<path d="M42.4508 32.3404L34.4646 32.5446C33.9868 32.5357 33.5322 32.3376 33.2003 31.9938C32.8685 31.65 32.6866 31.1886 32.6946 30.7108V22.4183C32.6866 21.9405 32.8685 21.4791 33.2003 21.1353C33.5322 20.7915 33.9868 20.5934 34.4646 20.5845L42.4508 20.376C42.6877 20.3804 42.9214 20.4315 43.1386 20.5262C43.3558 20.621 43.5522 20.7577 43.7166 20.9283C43.8809 21.099 44.0101 21.3004 44.0966 21.521C44.1831 21.7416 44.2253 21.9771 44.2208 22.214V30.5024C44.2253 30.7393 44.1831 30.9748 44.0966 31.1954C44.0101 31.416 43.8809 31.6174 43.7166 31.7881C43.5522 31.9587 43.3558 32.0954 43.1386 32.1902C42.9214 32.2849 42.6877 32.336 42.4508 32.3404Z" fill="white"/>
<path d="M41.1056 31.1319H40.5908C40.3698 31.1186 40.1618 31.023 40.0079 30.8639L36.1786 27.0091L39.8079 26.8091L41.3439 30.7618C41.3779 30.8256 41.5141 31.1234 41.1312 31.1447" fill="#236852"/>
<path d="M42.2334 23.2692V23.299L39.7912 26.7964L36.1619 26.9964L40.991 22.8437C41.1337 22.7254 41.3086 22.6528 41.4931 22.6353H41.9186C42.5143 22.665 42.3185 23.1075 42.2419 23.2437" fill="#236852"/>
<path d="M36.1488 22.7627C35.9921 22.5957 35.7774 22.4952 35.5488 22.4819H35.034C34.6468 22.4819 34.783 22.8053 34.8213 22.8691L36.387 26.6303H40.0163L36.1488 22.7627Z" fill="#72E8B2"/>
<path d="M35.132 30.7871L39.991 26.6387H36.3616L33.9236 30.3403V30.3659C33.8471 30.5063 33.6556 30.9445 34.2513 30.9743H34.6767C34.8634 30.9607 35.0409 30.8876 35.1831 30.7658" fill="#4BC999"/>
<path d="M142.757 87.5589C142.865 87.7225 142.912 87.9182 142.893 88.113C142.873 88.3078 142.786 88.4897 142.648 88.6282C142.509 88.7667 142.327 88.8531 142.132 88.873C141.938 88.8929 141.742 88.8451 141.578 88.7374L139.536 86.6654L137.409 88.7289C137.245 88.839 137.048 88.8889 136.852 88.8701C136.656 88.8513 136.472 88.765 136.333 88.6258C136.193 88.4867 136.106 88.3034 136.087 88.1073C136.067 87.9111 136.116 87.7143 136.226 87.5504L138.353 85.491L136.226 83.436C136.114 83.2722 136.062 83.0743 136.081 82.8767C136.099 82.6791 136.186 82.4941 136.326 82.3537C136.467 82.2134 136.652 82.1265 136.849 82.1081C137.047 82.0898 137.245 82.1411 137.409 82.2532L139.536 84.321L141.595 82.2532C141.759 82.1437 141.956 82.0945 142.152 82.114C142.348 82.1335 142.532 82.2205 142.671 82.3601C142.81 82.4998 142.896 82.6834 142.915 82.8796C142.934 83.0758 142.884 83.2725 142.774 83.436L140.71 85.491L142.757 87.5589Z" fill="#DE0028"/>
<defs>
<linearGradient id="paint0_linear" x1="20.6123" y1="48.319" x2="63.5361" y2="61.9613" gradientUnits="userSpaceOnUse">
<stop stop-color="#FFDABC"/>
<stop offset="0.27" stop-color="#FED7B8"/>
<stop offset="0.52" stop-color="#FACFAD"/>
<stop offset="0.75" stop-color="#F3C19B"/>
<stop offset="0.98" stop-color="#EAAE81"/>
<stop offset="1" stop-color="#E9AC7F"/>
</linearGradient>
<linearGradient id="paint1_linear" x1="11.5478" y1="84.6384" x2="9.34332" y2="80.5118" gradientUnits="userSpaceOnUse">
<stop stop-color="#FFDDC0"/>
<stop offset="1" stop-color="#FFD8B6"/>
</linearGradient>
<linearGradient id="paint2_linear" x1="3.8441" y1="81.3541" x2="4.80234" y2="79.7936" gradientUnits="userSpaceOnUse">
<stop stop-color="#FFDDC0"/>
<stop offset="1" stop-color="#FFD3AE"/>
</linearGradient>
<linearGradient id="paint3_linear" x1="-2352.1" y1="594.674" x2="-2360.53" y2="602.108" gradientUnits="userSpaceOnUse">
<stop stop-color="#FFDDC0"/>
<stop offset="1" stop-color="#FFD3AE"/>
</linearGradient>
<linearGradient id="paint4_linear" x1="2.39089" y1="79.2813" x2="13.866" y2="87.029" gradientUnits="userSpaceOnUse">
<stop stop-color="#FFDDC0"/>
<stop offset="1" stop-color="#FFDDC0"/>
</linearGradient>
<linearGradient id="paint5_linear" x1="1678.82" y1="89.6514" x2="1700.41" y2="48.9766" gradientUnits="userSpaceOnUse">
<stop stop-color="#FFDDC0"/>
<stop offset="1" stop-color="#FFD8B6"/>
</linearGradient>
<linearGradient id="paint6_linear" x1="947.548" y1="849.318" x2="939.159" y2="835.679" gradientUnits="userSpaceOnUse">
<stop stop-color="#FFDDC0"/>
<stop offset="1" stop-color="#FFD3AE"/>
</linearGradient>
<linearGradient id="paint7_linear" x1="1058.86" y1="433.753" x2="1067.32" y2="441.209" gradientUnits="userSpaceOnUse">
<stop stop-color="#FFDDC0"/>
<stop offset="1" stop-color="#FFD3AE"/>
</linearGradient>
<linearGradient id="paint8_linear" x1="15.6185" y1="-163.47" x2="-203.791" y2="91.4941" gradientUnits="userSpaceOnUse">
<stop stop-color="#FFDDC0"/>
<stop offset="1" stop-color="#FFDDC0"/>
</linearGradient>
</defs>
</svg>
