<svg width="188" height="153" viewBox="0 0 188 153" fill="none" xmlns="http://www.w3.org/2000/svg">
<path d="M118.081 131.552C118.081 131.552 98.1571 143.902 89.3906 130.354C80.624 116.807 87.7955 112.821 79.0159 109.233C70.2364 105.646 53.5117 101.267 54.3114 94.1038C55.1111 86.941 64.686 80.1586 64.686 69.7969C64.686 59.4352 53.5765 36.6673 62.248 28.9166C70.9194 21.1659 77.0361 29.539 87.0001 21.1831C96.964 12.8273 102.143 0.866178 113.689 0.0491765C125.235 -0.767825 125.654 8.81573 134.438 12.4036C143.222 15.9915 159.143 5.22784 169.504 13.199C179.866 21.1702 177.078 42.2869 176.68 65.4007C176.282 88.5145 194.075 104.643 184.945 111.654C175.815 118.666 122.866 115.61 118.081 131.552Z" fill="#DBF6ED"/>
<path d="M32.6801 151.294C50.7288 151.294 65.3601 148.596 65.3601 145.268C65.3601 141.94 50.7288 139.242 32.6801 139.242C14.6314 139.242 0 141.94 0 145.268C0 148.596 14.6314 151.294 32.6801 151.294Z" fill="#DBF6ED"/>
<path d="M130.712 152.167C162.256 152.167 187.828 149.235 187.828 145.618C187.828 142.001 162.256 139.069 130.712 139.069C99.1672 139.069 73.5952 142.001 73.5952 145.618C73.5952 149.235 99.1672 152.167 130.712 152.167Z" fill="#DBF6ED"/>
<path opacity="0.8" d="M166.033 37.0953L166.819 25.4801L98.8915 20.8677L98.1004 32.4786C96.1379 61.3979 113.191 74.016 122.74 78.7754C122.859 78.8299 122.958 78.9193 123.025 79.0317C123.092 79.1441 123.123 79.2742 123.114 79.4046C123.105 79.535 123.057 79.6596 122.975 79.7619C122.894 79.8641 122.783 79.9392 122.658 79.9771C112.556 83.3964 93.9549 93.5938 91.9664 122.513L91.21 134.128L159.125 138.762L159.916 127.151C161.878 98.2105 144.812 85.5924 135.302 80.8373C135.183 80.7828 135.084 80.6933 135.017 80.5809C134.95 80.4686 134.919 80.3385 134.928 80.2081C134.937 80.0777 134.986 79.9531 135.067 79.8508C135.149 79.7486 135.259 79.6735 135.384 79.6356C145.465 76.212 164.066 66.0146 166.033 37.0953Z" fill="#FFFEFE"/>
<path d="M168.64 18.164L98.0779 13.366C96.0295 13.2267 94.256 14.7734 94.1168 16.8206C93.9776 18.8679 95.5254 20.6404 97.5738 20.7797L168.136 25.5777C170.184 25.717 171.957 24.1703 172.097 22.1231C172.236 20.0758 170.688 18.3033 168.64 18.164Z" fill="#236852"/>
<path d="M160.433 138.838L89.8709 134.04C87.8224 133.901 86.049 135.448 85.9098 137.495C85.7706 139.542 87.3183 141.315 89.3668 141.454L159.928 146.252C161.977 146.391 163.75 144.845 163.89 142.797C164.029 140.75 162.481 138.978 160.433 138.838Z" fill="#37A07F"/>
<path d="M161.598 144.101L88.0199 139.104C87.7304 139.084 87.4475 139.008 87.1876 138.878C86.9277 138.749 86.6957 138.57 86.5051 138.351C86.3144 138.133 86.1687 137.878 86.0763 137.603C85.9839 137.328 85.9466 137.038 85.9666 136.748L85.8153 138.996C85.7953 139.285 85.8326 139.576 85.925 139.851C86.0174 140.126 86.1631 140.381 86.3538 140.599C86.5444 140.818 86.7764 140.997 87.0363 141.126C87.2962 141.255 87.5791 141.332 87.8686 141.352L161.442 146.349C161.732 146.369 162.022 146.332 162.297 146.239C162.572 146.147 162.827 146.001 163.045 145.81C163.264 145.62 163.443 145.388 163.572 145.128C163.701 144.868 163.778 144.585 163.798 144.296L163.949 142.048C163.93 142.337 163.854 142.62 163.725 142.88C163.597 143.14 163.418 143.372 163.199 143.562C162.981 143.753 162.727 143.899 162.452 143.991C162.177 144.084 161.887 144.121 161.598 144.101Z" fill="#236852"/>
<path d="M102.086 38.1498C101.935 38.0893 101.772 38.0674 101.61 38.086C101.449 38.1046 101.295 38.1631 101.162 38.2562C101.029 38.3493 100.921 38.4741 100.848 38.6193C100.776 38.7645 100.74 38.9255 100.746 39.0878C100.884 44.8387 102.078 50.5152 104.269 55.8342C106.524 61.1571 109.917 65.9215 114.211 69.7924C118.53 73.7018 123.598 76.6944 129.107 78.5892C134.73 77.4799 140.071 75.2481 144.812 72.0272C149.632 68.786 153.68 64.522 156.665 59.5388C159.598 54.5281 161.576 49.0172 162.501 43.2852C162.528 43.125 162.515 42.9606 162.462 42.8067C162.41 42.6529 162.32 42.5146 162.201 42.4043C162.081 42.294 161.936 42.2152 161.779 42.175C161.621 42.1348 161.456 42.1346 161.299 42.1743L139.936 47.608C134.147 49.0819 128.038 48.6669 122.502 46.4235L102.086 38.1498Z" fill="#FFAA00"/>
<path d="M93.9509 134.314L127.024 109.056L156.363 138.555L93.9509 134.314Z" fill="#FFAA00"/>
<path d="M128.175 75.9523L125.678 112.676L127.882 112.826L130.379 76.1021L128.175 75.9523Z" fill="#FFAA00"/>
<path d="M37.305 79.1729C36.7517 80.5605 38.7531 87.6066 40.5212 87.9264C40.5514 87.8919 33.1725 89.4135 30.0558 88.8991C26.939 88.3847 25.5471 87.2607 25.5471 87.2607C27.112 84.5288 27.916 82.2982 27.8728 79.3414L37.305 79.1729Z" fill="#E2B9A3"/>
<path d="M49.0116 111.745C49.0116 111.745 41.9309 111.684 34.0419 111.68V111.632C25.3964 111.745 17.0448 111.931 17.0448 111.931C16.967 112.687 18.2509 118.415 21.5448 120.503L22.699 146.067L27.2379 146.163C27.2379 146.163 29.0405 129.693 31.1889 122.893C31.5952 121.752 31.7768 120.81 32.6932 120.732C33.7091 120.788 33.7091 121.622 34.3315 122.893C36.5448 129.684 39.1471 146.111 39.1471 146.111L43.686 145.951L43.9497 120.373C47.222 118.242 49.0981 112.501 49.0116 111.745Z" fill="#1C1714"/>
<path d="M34.0415 111.68V111.632C25.396 111.745 17.0444 111.931 17.0444 111.931C17.103 112.819 17.2477 113.699 17.4767 114.559H48.1683C48.7371 113.733 49.0279 112.747 48.9983 111.745C48.9983 111.745 41.9306 111.684 34.0415 111.68Z" fill="black"/>
<path d="M43.3093 141.944C40.2488 141.944 37.7675 144.032 37.7675 146.604C37.7653 146.644 37.7653 146.685 37.7675 146.725H48.8467V146.604C48.8467 144.032 46.3655 141.944 43.3093 141.944Z" fill="black"/>
<path d="M23.4643 142.021C20.4038 142.021 17.9225 144.109 17.9225 146.686C17.9204 146.725 17.9204 146.764 17.9225 146.802H29.0017V146.686C29.0017 144.092 26.5205 142.021 23.4643 142.021Z" fill="black"/>
<path d="M47.1177 144.347C46.6854 143.729 46.037 143.483 44.7359 143.262C44.4852 143.223 44.3771 142.86 44.7056 142.886C47.4765 143.072 47.256 144.55 47.1177 144.347Z" fill="#3C3B3D"/>
<path d="M16.4262 106.774C15.7043 106.095 12.3455 104.993 11.7144 104.742C11.455 104.794 11.334 104.945 11.1438 105.174C10.8239 105.685 10.8152 105.97 10.6337 106.904C10.6337 106.947 10.6337 106.977 10.6337 107.016H10.6034C10.5071 107.319 10.4849 107.641 10.5386 107.954C10.651 108.222 12.3109 108.991 12.3109 108.991L12.1337 109.917C12.0669 110.171 12.0178 110.429 11.9867 110.69C12.0386 111.045 12.0731 111.555 12.1034 111.987C12.1337 112.419 12.1034 112.748 12.3239 112.938C12.3629 112.99 12.415 113.032 12.4749 113.057C12.5349 113.083 12.6005 113.093 12.6654 113.085C12.9291 113.085 11.5717 114.996 11.5674 115.022C11.5386 115.112 11.5386 115.208 11.5674 115.298C11.5808 115.334 11.6014 115.366 11.6279 115.393C11.695 115.46 11.776 115.51 11.865 115.54C11.954 115.571 12.0488 115.581 12.1423 115.571C12.2167 115.568 12.2905 115.558 12.3628 115.54C12.2599 115.635 12.1737 115.746 12.1077 115.869C12.0094 116.04 11.9586 116.234 11.9608 116.431C11.9546 116.507 11.971 116.583 12.0079 116.65C12.0448 116.717 12.1006 116.772 12.1682 116.807C12.3057 116.862 12.4568 116.872 12.6005 116.837L12.5789 116.885C12.5262 116.979 12.4979 117.084 12.4968 117.192V117.252V117.308C12.5109 117.39 12.5451 117.468 12.5962 117.533C12.8383 117.857 13.1106 117.831 13.7028 117.412C13.6466 117.455 13.5688 117.844 14.0746 118.013C14.3167 118.1 14.6063 117.961 14.9046 117.728C15.5064 117.27 16.038 116.727 16.4824 116.115C17.097 115.332 17.5695 114.447 17.8786 113.5C18.54 112.061 18.7215 108.935 16.4262 106.774Z" fill="url(#paint0_linear)"/>
<path d="M15.3117 91.8258C11.659 93.2783 9.7397 94.4195 8.34345 95.7163C8.19885 95.8481 8.08404 96.0092 8.0067 96.1889C7.92935 96.3686 7.89124 96.5627 7.89492 96.7583C7.8986 96.9539 7.94399 97.1464 8.02805 97.3231C8.11211 97.4997 8.2329 97.6564 8.38236 97.7826L13.8031 104.029C13.8031 104.029 13.5999 107.919 11.0754 108.019C9.61002 108.071 0.238278 101.007 1.13309 96.1702C1.85931 92.1803 10.3146 84.6025 15.3723 83.6602C17.2916 83.7336 17.659 88.8302 15.3117 91.8258Z" fill="#236852"/>
<path d="M13.197 102.883C13.063 103.112 9.78198 108.179 9.78198 108.179C9.78198 108.179 11.7877 109.752 11.8439 109.644C11.9001 109.536 15.3583 105.563 15.3583 105.563L13.197 102.883Z" fill="#37A07F"/>
<path d="M27.6226 144.784C27.1903 144.166 26.5376 143.919 25.2408 143.699C24.99 143.66 24.882 143.301 25.2105 143.323C27.9814 143.509 27.7609 144.991 27.6226 144.784Z" fill="#3C3B3D"/>
<path d="M51.6055 82.9595C51.5276 83.7765 52.9542 108.762 50.0666 112.177C48.7697 114.001 28.1026 113.5 18.0781 113.578C15.8735 113.578 14.8361 110.119 14.7928 107.526L13.6084 84.0013C15.3375 82.7044 22.0594 81.9869 29.4211 81.7361C30.3418 81.7059 28.0637 84.0791 32.1919 84.0704C35.6804 84.0704 34.3533 81.6367 35.4167 81.6367C42.8605 81.6497 49.738 82.1338 51.6055 82.9595Z" fill="#236852"/>
<path d="M31.1237 81.6756C31.0199 81.8658 27.8514 88.886 27.7519 88.6482C27.6525 88.4105 23.6194 82.9984 23.6194 82.9984C23.6194 82.9984 25.9883 80.2491 26.0142 80.2534L31.1237 81.6756Z" fill="#37A07F"/>
<path d="M33.2852 81.6756C33.3889 81.8658 36.5575 88.886 36.6569 88.6482C36.7563 88.4105 40.8068 82.9984 40.8068 82.9984C40.8068 82.9984 38.4379 80.2491 38.4119 80.2534L33.2852 81.6756Z" fill="#37A07F"/>
<path d="M12.6998 49.3327C12.6998 51.5417 10.5989 69.386 16.2271 75.3514C20.9303 81.0661 36.2588 82.1338 46.3006 76.2635C51.3193 74.1756 52.3957 48.5546 52.3957 48.5546C52.2011 46.3025 51.2155 43.8774 45.9418 40.7261C36.2588 34.3068 26.1824 37.108 17.8698 41.0201C17.8698 41.0201 12.7041 43.5748 12.6998 49.3327Z" fill="url(#paint1_linear)"/>
<path d="M35.9009 54.9006C39.6833 54.3948 43.0637 54.4683 45.3591 55.3329C46.63 55.5706 46.9283 53.634 45.3937 53.1715C42.3442 52.3402 39.1433 52.2292 36.0436 52.8473C34.3534 53.1715 34.107 55.1254 35.9009 54.9006Z" fill="#4E1E05"/>
<path d="M26.8439 54.4685C23.8655 53.336 21.1206 52.8259 19.1278 53.336C18.0644 53.336 18.1206 51.3994 19.4304 51.2048C22.034 50.8947 24.6723 51.3247 27.0428 52.4455C28.3612 53.042 28.2618 55.0218 26.8439 54.4685Z" fill="#4E1E05"/>
<path d="M39.7691 60.9221C39.2453 60.8724 38.7481 60.6679 38.3409 60.3345C37.9338 60.0012 37.6351 59.5542 37.4829 59.0505C37.3307 58.5468 37.3319 58.0092 37.4864 57.5062C37.6409 57.0032 37.9416 56.5576 38.3502 56.2261C38.7589 55.8947 39.257 55.6924 39.7811 55.645C40.3051 55.5977 40.8314 55.7074 41.2928 55.9603C41.7543 56.2131 42.13 56.5977 42.3721 57.0648C42.6143 57.532 42.7118 58.0607 42.6524 58.5835C42.5793 59.2756 42.2348 59.9105 41.6943 60.349C41.1537 60.7874 40.4614 60.9935 39.7691 60.9221Z" fill="#E8B79D"/>
<path d="M39.769 60.4123C39.3104 60.3512 38.8801 60.1559 38.5321 59.851C38.1841 59.5461 37.934 59.1451 37.8131 58.6985C37.6923 58.2519 37.7062 57.7795 37.853 57.3407C37.9998 56.902 38.273 56.5164 38.6383 56.2324C39.0036 55.9484 39.4446 55.7787 39.906 55.7447C40.3675 55.7106 40.8287 55.8136 41.2317 56.0408C41.6347 56.2681 41.9616 56.6093 42.1713 57.0218C42.381 57.4342 42.4641 57.8994 42.4102 58.3589C42.3282 58.9796 42.0051 59.5431 41.5108 59.9274C41.0165 60.3116 40.3908 60.4858 39.769 60.4123Z" fill="black"/>
<path d="M38.0876 57.8832C38.0383 58.2348 38.095 58.5931 38.2504 58.9123C38.4057 59.2315 38.6527 59.4971 38.9598 59.6753C39.2669 59.8534 39.6201 59.9359 39.9744 59.9123C40.3286 59.8887 40.6677 59.76 40.9485 59.5427C41.2292 59.3254 41.4388 59.0293 41.5504 58.6923C41.662 58.3553 41.6706 57.9926 41.5751 57.6507C41.4796 57.3088 41.2843 57.0031 41.0142 56.7727C40.7441 56.5423 40.4115 56.3977 40.0588 56.3573C39.5951 56.2985 39.127 56.4262 38.7574 56.7123C38.3878 56.9984 38.1469 57.4196 38.0876 57.8832Z" fill="#111111"/>
<path d="M39.9719 59.0202C39.7882 58.9861 39.6241 58.8838 39.5128 58.7336C39.4015 58.5835 39.3512 58.3968 39.372 58.211C39.3929 58.0253 39.4833 57.8544 39.625 57.7326C39.7668 57.6109 39.9494 57.5473 40.1362 57.5548C40.3199 57.5888 40.484 57.6912 40.5953 57.8414C40.7066 57.9915 40.7569 58.1782 40.7361 58.3639C40.7153 58.5497 40.6249 58.7206 40.4831 58.8424C40.3413 58.9641 40.1587 59.0277 39.9719 59.0202Z" fill="white"/>
<path d="M21.7479 60.5461C21.2235 60.4956 20.726 60.2901 20.3187 59.9559C19.9115 59.6216 19.6129 59.1738 19.4611 58.6693C19.3092 58.1648 19.3109 57.6265 19.4659 57.123C19.621 56.6195 19.9224 56.1735 20.3318 55.8419C20.7411 55.5102 21.2399 55.3079 21.7646 55.2607C22.2894 55.2135 22.8163 55.3235 23.2783 55.5767C23.7403 55.8299 24.1165 56.2149 24.3589 56.6826C24.6014 57.1504 24.6992 57.6797 24.6398 58.2032C24.5668 58.8973 24.2212 59.534 23.6789 59.9733C23.1366 60.4127 22.4421 60.6187 21.7479 60.5461Z" fill="#E8B79D"/>
<path d="M21.7564 60.032C21.2997 59.9696 20.8716 59.774 20.5256 59.4695C20.1796 59.165 19.931 58.7652 19.8111 58.3201C19.6912 57.8751 19.7053 57.4045 19.8515 56.9674C19.9977 56.5303 20.2696 56.146 20.6331 55.8627C20.9966 55.5793 21.4357 55.4095 21.8953 55.3745C22.3548 55.3394 22.8146 55.4407 23.2169 55.6657C23.6192 55.8906 23.9462 56.2292 24.157 56.6391C24.3678 57.049 24.453 57.512 24.4019 57.97C24.3242 58.5941 24.0019 59.1618 23.5058 59.5485C23.0098 59.9351 22.3806 60.109 21.7564 60.032Z" fill="black"/>
<path d="M20.0791 57.4943C20.028 57.8461 20.0831 58.2052 20.2373 58.5255C20.3915 58.8459 20.6379 59.1129 20.9448 59.2923C21.2518 59.4717 21.6053 59.5554 21.9601 59.5327C22.3149 59.5099 22.6548 59.3818 22.9363 59.1646C23.2178 58.9475 23.4281 58.6512 23.5401 58.3138C23.6522 57.9764 23.661 57.6132 23.5653 57.2708C23.4697 56.9283 23.274 56.6223 23.0033 56.3918C22.7326 56.1613 22.3993 56.0169 22.046 55.977C21.5841 55.9182 21.1177 56.0448 20.749 56.3292C20.3803 56.6136 20.1394 57.0326 20.0791 57.4943Z" fill="#111111"/>
<path d="M21.8126 58.4366C21.6646 58.4296 21.5221 58.3783 21.4036 58.2893C21.285 58.2004 21.196 58.0778 21.148 57.9376C21.1 57.7974 21.0953 57.646 21.1344 57.5031C21.1735 57.3602 21.2546 57.2323 21.3673 57.136C21.48 57.0398 21.619 56.9797 21.7663 56.9634C21.9136 56.9472 22.0624 56.9756 22.1934 57.045C22.3243 57.1143 22.4314 57.2215 22.5007 57.3524C22.57 57.4834 22.5984 57.6322 22.5821 57.7795C22.5655 57.968 22.4756 58.1425 22.3317 58.2654C22.1878 58.3883 22.0014 58.4497 21.8126 58.4366Z" fill="white"/>
<path d="M37.729 68.2449C37.0071 74.8934 24.389 74.5346 24.6656 67.8818C28.5561 70.4323 32.0316 69.732 37.729 68.2449Z" fill="#E8B79D"/>
<path d="M24.6702 67.8687C24.6594 68.0486 24.6594 68.229 24.6702 68.409C25.9324 74.3658 36.722 74.396 37.7076 68.2404C32.0621 68.5862 28.5952 69.2908 24.6788 67.8687H24.6702Z" fill="#320000"/>
<path d="M36.9467 68.3009C32.3127 68.6381 28.4914 69.1352 25.0764 68.0156C25.1935 68.605 25.4966 69.1414 25.941 69.5459C26.6456 70.1684 32.2997 70.043 35.9827 69.8096C36.4887 69.4518 36.8347 68.9104 36.9467 68.3009Z" fill="#EAEBED"/>
<path d="M30.1295 64.1688C31.0749 64.1688 31.8414 63.7527 31.8414 63.2394C31.8414 62.7262 31.0749 62.3101 30.1295 62.3101C29.1841 62.3101 28.4177 62.7262 28.4177 63.2394C28.4177 63.7527 29.1841 64.1688 30.1295 64.1688Z" fill="#E8B79D"/>
<path d="M13.301 50.8157C13.301 51.7407 13.837 64.2378 14.2996 70.7003C12.4494 70.4712 11.2174 68.3142 10.8413 67.696L8.29956 49.8949L9.68717 44.807L12.9206 42.2652L21.0128 40.4151L39.9638 39.0361L52.4479 43.6615L55.2231 47.1197L53.8355 62.1499C53.6021 63.6888 52.3398 68.3833 51.5228 69.3171C49.9061 71.1629 49.288 70.2378 48.7476 70.4712C49.0545 65.8459 50.0444 55.6182 50.0444 52.428C50.0444 49.4021 50.7361 48.2652 47.5762 46.8906C44.4162 45.5159 27.1554 44.3358 19.5258 45.49C12.9119 46.5059 13.301 49.6615 13.301 50.8157Z" fill="#4BC999"/>
<path d="M11.2387 49.9036C11.2387 50.8286 12.4664 63.8531 12.9289 70.2465C12.1897 69.6931 11.2344 68.3228 10.8496 67.7047L8.30786 49.9036L9.69547 44.8157L12.9289 42.2739L21.0211 40.4237L39.9634 39.0361L52.4476 43.6615L55.2228 47.1197L53.8352 62.1499C53.6017 63.6888 53.0009 67.0476 52.4476 68.1586C51.9197 69.0807 51.113 69.8117 50.1435 70.2465C50.4504 65.6254 51.3971 55.6182 51.7602 52.4453C52.4562 46.4237 50.7617 46.1946 47.3683 44.8157C43.7199 43.3416 27.9678 42.6889 20.3165 43.6615C11.2387 44.8157 11.2387 48.7494 11.2387 49.9036Z" fill="#37A07F"/>
<path d="M5.28625 37.8819C4.72861 39.732 5.05282 46.3588 5.28625 49.441C5.37702 50.8286 6.20699 54.7579 6.66953 57.7666C7.13207 60.7752 9.90728 66.7795 10.6032 67.4755C11.2992 68.1715 11.0658 67.7046 10.8323 66.7795C10.5989 65.8545 9.67817 51.062 9.44474 49.9208C9.21131 48.7796 9.90728 47.1456 10.6032 46.2205C11.2992 45.2954 12.3756 43.8992 16.3828 42.7623C19.4779 41.8977 27.2372 41.3747 30.2545 41.3747C33.4879 41.3747 39.194 41.8372 45.6651 42.7623C52.1363 43.6874 53.6017 47.3876 53.6017 49.2464C53.6017 50.1715 52.2141 64.964 52.2141 66.3516C52.2141 67.7392 51.985 68.8977 52.6767 67.9726C55.9144 62.1931 58.4562 46.2378 57.7645 39.0707C57.0729 31.9035 48.7473 18.7277 30.9634 19.186C10.3439 19.6917 5.83956 36.0318 5.28625 37.8819Z" fill="#236852"/>
<path d="M34.9189 38.9754L26.5155 39.0576C26.0404 39.0485 25.5884 38.8513 25.2586 38.5093C24.9287 38.1673 24.748 37.7084 24.7561 37.2333V29.0201C24.748 28.545 24.9287 28.0862 25.2586 27.7442C25.5884 27.4022 26.0404 27.205 26.5155 27.1959L34.9189 27.1138C35.154 27.1183 35.3858 27.169 35.6012 27.2631C35.8166 27.3573 36.0114 27.4929 36.1744 27.6623C36.3373 27.8317 36.4653 28.0315 36.5511 28.2504C36.6368 28.4693 36.6786 28.7029 36.674 28.938V37.1772C36.6763 37.6474 36.4935 38.0996 36.1651 38.4361C35.8367 38.7726 35.389 38.9663 34.9189 38.9754Z" fill="white"/>
<path d="M33.5834 37.7784H33.0733C32.8531 37.7662 32.6459 37.6703 32.4941 37.5104L28.7117 33.6848L32.3125 33.4902L33.8341 37.411C33.8687 37.4758 34.0071 37.7698 33.6223 37.7914" fill="#236852"/>
<path d="M34.7028 29.9713V29.9973L32.2734 33.4555L28.6682 33.65L33.4708 29.5693C33.609 29.4498 33.7815 29.3772 33.9636 29.3618H34.3699C34.9665 29.3921 34.772 29.8287 34.6941 29.967" fill="#236852"/>
<path d="M28.664 29.4739C28.5084 29.3073 28.2949 29.2067 28.0674 29.1929H27.553C27.1726 29.1929 27.3066 29.5128 27.3455 29.5733L28.8801 33.3081H32.481L28.664 29.4739Z" fill="#72E8B2"/>
<path d="M27.6652 37.4365L32.4894 33.3169H28.8756L26.4548 36.9912V37.0172C26.3684 37.1771 26.1868 37.6094 26.8007 37.6094H27.2027C27.3721 37.5893 27.5324 37.5219 27.6652 37.4149" fill="#4BC999"/>
<path d="M58.3961 67.4022C61.8543 75.6932 58.5906 81.9569 43.4048 86.0549L50.8745 91.601C57.2636 91.5707 73.4134 77.1371 61.8457 64.1947C60.0863 62.8892 59.4293 66.8186 58.3961 67.4022Z" fill="#236852"/>
<path d="M53.6547 53.2837C52.963 53.2837 52.5264 53.5128 52.561 54.0315C52.7642 55.0992 55.6172 56.4652 56.9572 57.0575C56.8009 57.0454 56.6436 57.0645 56.4947 57.1137C56.2725 57.2061 56.0804 57.3586 55.9399 57.5541C55.7995 57.7495 55.7162 57.9802 55.6993 58.2203C55.4898 58.1729 55.2713 58.1848 55.0682 58.2549C54.8271 58.3529 54.6211 58.5211 54.477 58.7377C54.3328 58.9544 54.2572 59.2094 54.2598 59.4696C54.0699 59.4309 53.8731 59.4428 53.6892 59.5041C52.9025 59.7722 52.6345 60.8831 53.097 61.9854C53.1102 62.0225 53.1261 62.0586 53.1446 62.0935C53.1733 62.5377 53.2695 62.975 53.4299 63.3903C54.0913 65.3096 58.4789 67.7131 58.4789 67.7131C58.7425 67.311 61.7036 65.1194 62.1359 64.5488C62.5682 63.9782 62.6503 60.4681 61.7036 57.7794C60.757 55.0906 55.7382 53.3096 53.659 53.3096L53.6547 53.2837Z" fill="url(#paint2_linear)"/>
<path d="M63.0822 63.4941C62.9525 63.6281 58.0505 67.4408 58.0505 67.4408L58.7422 68.9538L63.8387 65.5993L63.0822 63.4941Z" fill="#37A07F"/>
<defs>
<linearGradient id="paint0_linear" x1="10.4997" y1="111.425" x2="18.3195" y2="111.425" gradientUnits="userSpaceOnUse">
<stop stop-color="#FFDABC"/>
<stop offset="0.27" stop-color="#FED7B8"/>
<stop offset="0.52" stop-color="#FACFAD"/>
<stop offset="0.75" stop-color="#F3C19B"/>
<stop offset="0.98" stop-color="#EAAE81"/>
<stop offset="1" stop-color="#E9AC7F"/>
</linearGradient>
<linearGradient id="paint1_linear" x1="1346.26" y1="11917.1" x2="5580.18" y2="13819.4" gradientUnits="userSpaceOnUse">
<stop stop-color="#FFDABC"/>
<stop offset="0.27" stop-color="#FED7B8"/>
<stop offset="0.52" stop-color="#FACFAD"/>
<stop offset="0.75" stop-color="#F3C19B"/>
<stop offset="0.98" stop-color="#EAAE81"/>
<stop offset="1" stop-color="#E9AC7F"/>
</linearGradient>
<linearGradient id="paint2_linear" x1="1326.11" y1="-3250.42" x2="1618.84" y2="-2921.13" gradientUnits="userSpaceOnUse">
<stop offset="0.0520833" stop-color="#FFDABC"/>
<stop offset="0.27" stop-color="#FED7B8"/>
<stop offset="0.52" stop-color="#FACFAD"/>
</linearGradient>
</defs>
</svg>
