<svg width="18" height="24" viewBox="0 0 18 24" fill="none" xmlns="http://www.w3.org/2000/svg">
<path d="M8.99941 0C4.12783 0 0.164062 3.96377 0.164062 8.83584C0.164062 10.1067 0.424171 11.32 0.936774 12.4425C3.14586 17.2765 7.38128 22.3802 8.62705 23.8291C8.72039 23.9374 8.85646 23.9998 8.99965 23.9998C9.14285 23.9998 9.27892 23.9374 9.37225 23.8291C10.6175 22.3804 14.853 17.277 17.0628 12.4425C17.5756 11.32 17.8355 10.1067 17.8355 8.83584C17.835 3.96377 13.8712 0 8.99941 0ZM8.99941 13.4252C6.46881 13.4252 4.4098 11.3662 4.4098 8.83559C4.4098 6.30475 6.46881 4.24574 8.99941 4.24574C11.53 4.24574 13.589 6.30475 13.589 8.83559C13.5893 11.3662 11.5302 13.4252 8.99941 13.4252Z" fill="#DFC261"/>
</svg>
