<svg width="56" height="56" viewBox="0 0 56 56" fill="none" xmlns="http://www.w3.org/2000/svg">
<g clip-path="url(#clip0)">
<path d="M30.3639 4.75096L5.14095 0.918172C3.97046 0.734565 2.77702 1.05588 1.88194 1.81325C0.986853 2.59358 0.458984 3.71817 0.458984 4.88866V53.246C0.458984 54.5083 1.49177 55.5411 2.75407 55.5411H10.2131V43.4919C10.2131 41.2657 12.0032 39.4755 14.2295 39.4755H19.9672C22.1934 39.4755 23.9836 41.2657 23.9836 43.4919V55.5411H33.7377V8.72145C33.7377 6.74768 32.3147 5.07227 30.3639 4.75096ZM13.0819 34.3116H9.63931C8.68915 34.3116 7.918 33.5405 7.918 32.5903C7.918 31.6401 8.68915 30.869 9.63931 30.869H13.0819C14.0321 30.869 14.8032 31.6401 14.8032 32.5903C14.8032 33.5405 14.0321 34.3116 13.0819 34.3116ZM13.0819 27.4264H9.63931C8.68915 27.4264 7.918 26.6552 7.918 25.7051C7.918 24.7549 8.68915 23.9837 9.63931 23.9837H13.0819C14.0321 23.9837 14.8032 24.7549 14.8032 25.7051C14.8032 26.6552 14.0321 27.4264 13.0819 27.4264ZM13.0819 20.5411H9.63931C8.68915 20.5411 7.918 19.77 7.918 18.8198C7.918 17.8696 8.68915 17.0985 9.63931 17.0985H13.0819C14.0321 17.0985 14.8032 17.8696 14.8032 18.8198C14.8032 19.77 14.0321 20.5411 13.0819 20.5411ZM13.0819 13.6559H9.63931C8.68915 13.6559 7.918 12.8847 7.918 11.9346C7.918 10.9844 8.68915 10.2133 9.63931 10.2133H13.0819C14.0321 10.2133 14.8032 10.9844 14.8032 11.9346C14.8032 12.8847 14.0321 13.6559 13.0819 13.6559ZM24.5573 34.3116H21.1147C20.1646 34.3116 19.3934 33.5405 19.3934 32.5903C19.3934 31.6401 20.1646 30.869 21.1147 30.869H24.5573C25.5075 30.869 26.2787 31.6401 26.2787 32.5903C26.2787 33.5405 25.5075 34.3116 24.5573 34.3116ZM24.5573 27.4264H21.1147C20.1646 27.4264 19.3934 26.6552 19.3934 25.7051C19.3934 24.7549 20.1646 23.9837 21.1147 23.9837H24.5573C25.5075 23.9837 26.2787 24.7549 26.2787 25.7051C26.2787 26.6552 25.5075 27.4264 24.5573 27.4264ZM24.5573 20.5411H21.1147C20.1646 20.5411 19.3934 19.77 19.3934 18.8198C19.3934 17.8696 20.1646 17.0985 21.1147 17.0985H24.5573C25.5075 17.0985 26.2787 17.8696 26.2787 18.8198C26.2787 19.77 25.5075 20.5411 24.5573 20.5411ZM24.5573 13.6559H21.1147C20.1646 13.6559 19.3934 12.8847 19.3934 11.9346C19.3934 10.9844 20.1646 10.2133 21.1147 10.2133H24.5573C25.5075 10.2133 26.2787 10.9844 26.2787 11.9346C26.2787 12.8847 25.5075 13.6559 24.5573 13.6559Z" fill="#58595B"/>
<path d="M52.3742 25.3424L36.0332 21.9204V55.5411H51.525C53.7398 55.5411 55.5414 53.7394 55.5414 51.5247V29.267C55.5414 27.3712 54.2493 25.7578 52.3742 25.3424ZM46.9348 48.6558H43.4922C42.5421 48.6558 41.7709 47.8847 41.7709 46.9345C41.7709 45.9843 42.5421 45.2132 43.4922 45.2132H46.9348C47.885 45.2132 48.6562 45.9843 48.6562 46.9345C48.6562 47.8847 47.885 48.6558 46.9348 48.6558ZM46.9348 41.7706H43.4922C42.5421 41.7706 41.7709 40.9994 41.7709 40.0493C41.7709 39.0991 42.5421 38.3279 43.4922 38.3279H46.9348C47.885 38.3279 48.6562 39.0991 48.6562 40.0493C48.6562 40.9994 47.885 41.7706 46.9348 41.7706ZM46.9348 34.8853H43.4922C42.5421 34.8853 41.7709 34.1142 41.7709 33.164C41.7709 32.2139 42.5421 31.4427 43.4922 31.4427H46.9348C47.885 31.4427 48.6562 32.2139 48.6562 33.164C48.6562 34.1142 47.885 34.8853 46.9348 34.8853Z" fill="#58595B"/>
</g>
<defs>
<clipPath id="clip0">
<rect width="55.082" height="55.082" fill="white" transform="translate(0.458984 0.458984)"/>
</clipPath>
</defs>
</svg>
