<svg width="37" height="36" viewBox="0 0 37 36" fill="none" xmlns="http://www.w3.org/2000/svg">
<path d="M22.7636 6.35281C22.7651 6.35216 22.7661 6.35066 22.7661 6.34901C22.7661 6.34601 22.7692 6.34401 22.7719 6.34524L29.2072 9.22758C29.4475 9.3352 29.7205 9.34372 29.967 9.2513L33.9285 7.76608C34.7937 7.44169 34.7938 6.21784 33.9286 5.89339L18.564 0.131671C18.3376 0.046777 18.0881 0.0467769 17.8617 0.131671L2.49688 5.8935C1.63171 6.21793 1.63171 7.44172 2.49688 7.76615L17.8617 13.528C18.0881 13.6129 18.3376 13.6129 18.564 13.5279L22.6496 11.9955C23.5 11.6765 23.5192 10.4807 22.6795 10.1346L18.216 8.29499C18.2141 8.2942 18.2129 8.29233 18.2129 8.29025C18.2129 8.28819 18.2141 8.28633 18.216 8.28553L22.7636 6.35281Z" fill="#A7A9AC"/>
<path d="M1.35118 9.61323C0.697419 9.36802 0 9.8513 0 10.5495V28.903C0 29.3198 0.258547 29.6929 0.648822 29.8393L15.7234 35.4932C16.3771 35.7384 17.0746 35.2552 17.0746 34.5569V16.2035C17.0746 15.7867 16.816 15.4136 16.4257 15.2672L1.35118 9.61323ZM9.10643 28.228C9.10643 28.9263 8.40906 29.4095 7.75531 29.1644L5.20209 28.2069C4.81179 28.0606 4.55322 27.6874 4.55322 27.2706V26.9775C4.55322 26.2792 5.25059 25.796 5.90434 26.0411L8.45756 26.9986C8.84786 27.1449 9.10643 27.5181 9.10643 27.9349V28.228Z" fill="#A7A9AC"/>
<path d="M30.2432 11.4243C29.8529 11.5707 29.5943 11.9438 29.5943 12.3606V16.6775C29.5943 17.0944 29.3358 17.4675 28.9455 17.6139L26.3923 18.5713C25.7385 18.8165 25.0411 18.3332 25.0411 17.635V14.8184C25.0411 14.1201 24.3436 13.6368 23.6898 13.8821L19.9983 15.2671C19.6081 15.4136 19.3496 15.7866 19.3496 16.2034V34.5569C19.3496 35.2552 20.047 35.7384 20.7008 35.4932L35.7753 29.8393C36.1656 29.6929 36.4242 29.3198 36.4242 28.903V10.5494C36.4242 9.85124 35.7268 9.36796 35.073 9.61312L30.2432 11.4243Z" fill="#A7A9AC"/>
</svg>
