<svg width="44" height="44" viewBox="0 0 44 44" fill="none" xmlns="http://www.w3.org/2000/svg">
<path d="M31.8638 11.8561C28.0997 11.8561 24.5407 11.2006 21.8427 10.0102C21.0353 9.6539 20.3253 9.25695 19.7168 8.82666V11.4904C19.7168 12.5019 20.9006 13.628 22.8834 14.5028C25.2609 15.5518 28.4501 16.1295 31.8639 16.1295C35.2776 16.1295 38.4668 15.5518 40.8443 14.5028C42.8271 13.628 44.0109 12.5019 44.0109 11.4904V8.82666C43.4024 9.25695 42.6924 9.6539 41.885 10.0102C39.1868 11.2006 35.628 11.8561 31.8638 11.8561Z" fill="#58595B"/>
<path d="M31.8641 36.6837C35.2778 36.6837 38.467 36.106 40.8444 35.057C42.8273 34.1822 44.0111 33.0561 44.0111 32.0447V29.3809C43.4025 29.8111 42.6926 30.2081 41.8851 30.5644C39.187 31.7548 35.6282 32.4103 31.8641 32.4103C30.3333 32.4103 28.8463 32.3028 27.4229 32.0927C27.3765 33.5236 27.1286 34.9041 26.707 36.2075C28.3201 36.5202 30.0763 36.6837 31.8641 36.6837Z" fill="#58595B"/>
<path d="M23.6607 21.6672C25.9322 22.5146 28.8296 22.9805 31.8638 22.9805C35.2775 22.9805 38.4667 22.4029 40.8442 21.3539C42.827 20.4791 44.0108 19.3529 44.0108 18.3415V15.6777C43.4023 16.108 42.6924 16.5051 41.8849 16.8613C39.1868 18.0517 35.628 18.7072 31.8638 18.7072C28.0997 18.7072 24.5407 18.0517 21.8427 16.8613C21.0353 16.505 20.3253 16.108 19.7168 15.6777V18.4929C21.2052 19.3235 22.5382 20.3999 23.6607 21.6672Z" fill="#58595B"/>
<path d="M31.8641 29.8321C35.2778 29.8321 38.467 29.2544 40.8444 28.2055C42.8273 27.3306 44.0111 26.2045 44.0111 25.1931V22.5293C43.4025 22.9596 42.6926 23.3565 41.8851 23.7128C39.1871 24.9032 35.6282 25.5588 31.8641 25.5588C29.78 25.5588 27.7428 25.3531 25.8828 24.9673C26.571 26.3571 27.0499 27.868 27.2784 29.4589C28.7321 29.7054 30.2694 29.8321 31.8641 29.8321Z" fill="#58595B"/>
<path d="M22.8834 7.65145C25.2609 8.7004 28.4501 9.27807 31.8639 9.27807C35.2776 9.27807 38.4668 8.7004 40.8443 7.65145C42.8271 6.7766 44.0109 5.65048 44.0109 4.63908C44.0109 3.62768 42.8271 2.50147 40.8443 1.62662C38.4668 0.577672 35.2775 0 31.8639 0C28.4502 0 25.2609 0.577672 22.8834 1.62662C20.9006 2.50147 19.7168 3.62759 19.7168 4.63908C19.7168 5.65056 20.9006 6.7766 22.8834 7.65145Z" fill="#58595B"/>
<path d="M24.8532 31.6004C24.8532 24.7516 19.2812 19.1797 12.4324 19.1797C5.58365 19.1797 0.0117188 24.7516 0.0117188 31.6004C0.0117188 38.4492 5.58365 44.0211 12.4324 44.0211C19.2812 44.0211 24.8532 38.4492 24.8532 31.6004ZM14.3689 38.4398H13.7215V40.5577H11.1434V38.4398H7.66583V35.8617H14.3689C15.2187 35.8617 15.9101 35.1703 15.9101 34.3205C15.9101 33.4707 15.2187 32.7793 14.3689 32.7793H11.2582C9.04753 32.7793 7.24903 30.9808 7.24903 28.7701C7.24903 26.5979 8.98574 24.825 11.1434 24.7638V22.6431H13.7215V24.7609H16.5101V27.339H11.2582C10.4691 27.339 9.82716 27.981 9.82716 28.7701C9.82716 29.5592 10.4691 30.2012 11.2582 30.2012H14.3689C16.6403 30.2012 18.4882 32.0491 18.4882 34.3205C18.4881 36.5919 16.6402 38.4398 14.3689 38.4398Z" fill="#58595B"/>
</svg>
