<svg width="46" height="41" viewBox="0 0 46 41" fill="none" xmlns="http://www.w3.org/2000/svg">
<path d="M28.5716 9.21772C27.5202 9.21772 26.6669 8.32172 26.6669 7.21773V4.21775H19.0478V7.21773C19.0478 8.32172 18.1945 9.21772 17.143 9.21772C16.0916 9.21772 15.2383 8.32172 15.2383 7.21773V4.21775C15.2383 2.01176 16.9469 0.217773 19.0478 0.217773H26.6669C28.7678 0.217773 30.4764 2.01176 30.4764 4.21775V7.21773C30.4764 8.32172 29.623 9.21772 28.5716 9.21772Z" fill="#58595B"/>
<path d="M24.2095 26.978C23.8667 27.118 23.3714 27.218 22.8571 27.218C22.3429 27.218 21.8476 27.118 21.3905 26.938L0 19.458V34.7179C0 37.7579 2.34286 40.2179 5.23809 40.2179H40.4762C43.3714 40.2179 45.7143 37.7579 45.7143 34.7179V19.458L24.2095 26.978Z" fill="#58595B"/>
<path d="M45.7143 11.7173V16.2972L23.3143 24.1372C23.1619 24.1972 23.0095 24.2172 22.8571 24.2172C22.7048 24.2172 22.5524 24.1972 22.4 24.1372L0 16.2972V11.7173C0 8.67727 2.34286 6.21729 5.23809 6.21729H40.4762C43.3714 6.21729 45.7143 8.67727 45.7143 11.7173Z" fill="#58595B"/>
</svg>
