<svg width="43" height="44" viewBox="0 0 43 44" fill="none" xmlns="http://www.w3.org/2000/svg">
<path d="M21.1192 44.0001C22.5291 44.0001 23.672 42.8572 23.672 41.4473C23.672 40.0375 22.5291 38.8945 21.1192 38.8945C19.7093 38.8945 18.5664 40.0375 18.5664 41.4473C18.5664 42.8572 19.7093 44.0001 21.1192 44.0001Z" fill="#58595B"/>
<path d="M37.4322 13.4156L36.86 13.1295L36.9386 12.3447C36.9967 11.8565 37.0297 11.3656 37.0371 10.874C37.0396 4.87106 32.1753 0.00255383 26.1723 1.04756e-06C24.0576 -0.000927237 21.9885 0.615106 20.2187 1.77256C18.4984 2.90553 17.1291 4.49673 16.2651 6.36653L15.9575 7.02955L15.2408 6.88625C14.6785 6.77822 14.1071 6.72496 13.5344 6.72728C11.7182 6.72508 9.95252 7.32498 8.51357 8.433C7.09143 9.52374 6.04236 11.0285 5.5108 12.74L5.38954 13.1345L5.01602 13.3086C4.25982 13.6553 3.57022 14.1319 2.97855 14.7166C0.275852 17.4147 0.272371 21.7931 2.97055 24.4957C4.26887 25.7962 6.03156 26.5263 7.86922 26.525H34.3659C38.1829 26.5298 41.2811 23.4393 41.2858 19.6223C41.2891 16.9881 39.7947 14.581 37.4322 13.4156Z" fill="#58595B"/>
<path d="M39.6836 44.0001C41.0935 44.0001 42.2364 42.8572 42.2364 41.4473C42.2364 40.0375 41.0935 38.8945 39.6836 38.8945C38.2738 38.8945 37.1309 40.0375 37.1309 41.4473C37.1309 42.8572 38.2738 44.0001 39.6836 44.0001Z" fill="#58595B"/>
<path d="M2.55278 44.0001C3.96265 44.0001 5.10557 42.8572 5.10557 41.4473C5.10557 40.0375 3.96265 38.8945 2.55278 38.8945C1.14292 38.8945 0 40.0375 0 41.4473C0 42.8572 1.14292 44.0001 2.55278 44.0001Z" fill="#58595B"/>
<path d="M22.046 27.4531H20.1895V38.0124H22.046V27.4531Z" fill="#58595B"/>
<path d="M33.882 40.5651C32.4744 40.5651 31.3292 39.3731 31.3292 37.966V27.4531H29.4727V37.966C29.4727 40.3972 31.4507 42.4217 33.882 42.4217H36.2027V40.5651H33.882Z" fill="#58595B"/>
<path d="M10.9067 27.4531V37.966C10.9067 39.3736 9.76154 40.5651 8.35391 40.5651H6.0332V42.4217H8.35391C10.7852 42.4217 12.7633 40.3968 12.7633 37.966V27.4531H10.9067Z" fill="#58595B"/>
</svg>
