<svg width="48" height="49" viewBox="0 0 48 49" fill="none" xmlns="http://www.w3.org/2000/svg">
<path d="M44.2031 42.4293C46.3909 41.8141 48 39.8025 48 37.4209C48 36.687 47.7815 35.3572 45.8921 32.2946C44.9221 30.7221 43.9656 29.4328 43.9253 29.3786L42.7969 27.8611L41.6684 29.3787C41.6282 29.4329 40.6717 30.7222 39.7016 32.2947C39.3863 32.8058 39.1184 33.2676 38.8895 33.6876V8.21774H34.5595V45.4053H31.747V0.217773H16.253V45.4053H13.4405V8.21774H9.11053V33.6875C8.88159 33.2676 8.61375 32.8057 8.29838 32.2947C7.32834 30.7222 6.37181 29.4329 6.33159 29.3787L5.20312 27.8611L4.07466 29.3787C4.03444 29.4329 3.07791 30.7222 2.10787 32.2947C0.218531 35.3572 0 36.687 0 37.4209C0 39.8026 1.60912 41.8142 3.79688 42.4293V45.4053H0V48.2178H48V45.4053H44.2031V42.4293ZM9.11053 45.4053H6.60938V42.4293C7.59075 42.1534 8.45512 41.5967 9.11053 40.8511V45.4053ZM22.7483 39.7178H19.9358V35.7178H22.7483V39.7178ZM22.7483 30.7178H19.9358V26.7178H22.7483V30.7178ZM22.7483 21.7177H19.9358V17.7177H22.7483V21.7177ZM22.7483 12.7178H19.9358V8.7178H22.7483V12.7178ZM28.0642 39.7178H25.2517V35.7178H28.0642V39.7178ZM28.0642 30.7178H25.2517V26.7178H28.0642V30.7178ZM28.0642 21.7177H25.2517V17.7177H28.0642V21.7177ZM28.0642 12.7177H25.2517V8.7178H28.0642V12.7177ZM41.3906 45.4053H38.8895V40.8511C39.5448 41.5967 40.4092 42.1534 41.3906 42.4293V45.4053Z" fill="#58595B"/>
</svg>
