<svg width="55" height="45" viewBox="0 0 55 45" fill="none" xmlns="http://www.w3.org/2000/svg">
<path d="M32.1169 32.4915H14.6769C12.708 32.4915 11.1063 30.8898 11.1063 28.9209V15.7679C11.1063 15.3329 10.7538 14.9805 10.3188 14.9805H1.47353C0.661011 14.9805 0 15.6415 0 16.454V37.0277C0 37.8401 0.661011 38.5011 1.47353 38.5011H3.84448C4.09931 38.5011 4.33949 38.6252 4.48691 38.8331L8.48809 44.4807C8.63582 44.6891 8.87538 44.8129 9.13068 44.8129C9.38614 44.8129 9.62569 44.6891 9.77326 44.4807L13.7741 38.8334C13.9217 38.6253 14.1619 38.5011 14.4169 38.5011H31.4305C32.2431 38.5011 32.9042 37.8401 32.9042 37.0277V33.2788C32.9044 32.844 32.5519 32.4915 32.1169 32.4915Z" fill="#58595B"/>
<path d="M52.3405 0.812988H15.4644C14.3641 0.812988 13.4688 1.7082 13.4688 2.80862V28.1337C13.4688 29.2339 14.3641 30.1293 15.4644 30.1293H36.4071C36.6621 30.1293 36.9024 30.2534 37.0497 30.4615L42.2718 37.8324C42.4195 38.0408 42.6591 38.1646 42.9144 38.1646C43.1698 38.1646 43.4094 38.0408 43.557 37.8324L48.7787 30.4616C48.9262 30.2536 49.1667 30.1293 49.4215 30.1293H52.3404C53.4405 30.1293 54.336 29.2339 54.336 28.1337V2.80846C54.3361 1.70804 53.4408 0.812988 52.3405 0.812988ZM35.8425 21.8541V23.6102C35.8425 23.7923 35.6948 23.94 35.5128 23.94H32.9852C32.8033 23.94 32.6557 23.7923 32.6557 23.6102V21.7897C31.3238 21.4699 30.0925 20.787 29.2454 19.8924L28.7544 19.3736C28.6944 19.3101 28.6621 19.2254 28.6643 19.1378C28.667 19.0506 28.7041 18.9677 28.7673 18.9074L30.6032 17.1701C30.7355 17.045 30.9442 17.0508 31.0691 17.183L31.56 17.7018C32.1843 18.3615 33.2931 18.8046 34.3186 18.8046C35.1295 18.8046 36.5018 18.5904 36.5018 17.7874C36.5074 17.0937 36.2071 16.8151 34.0831 16.1717C32.2667 15.6216 29.2269 14.7007 29.2269 11.2783C29.2269 9.36125 30.5336 7.83668 32.6557 7.24922V5.3684C32.6557 5.18634 32.8033 5.03861 32.9852 5.03861H35.5128C35.6948 5.03861 35.8425 5.18634 35.8425 5.3684V7.07472C36.9405 7.23647 38.0058 7.61477 38.8033 8.12978L39.4032 8.51738C39.5564 8.61629 39.6 8.82025 39.501 8.97333L38.1298 11.0962C38.031 11.249 37.8268 11.2929 37.6738 11.1942L37.0736 10.8066C36.5066 10.4401 35.5087 10.1741 34.7016 10.1741C33.8517 10.1741 32.4135 10.4067 32.4135 11.2781C32.4135 12.0977 32.7538 12.4392 35.0067 13.1216C36.8816 13.6894 39.7155 14.5477 39.6889 17.8004C39.6889 19.8658 38.2232 21.4002 35.8425 21.8541Z" fill="#58595B"/>
</svg>
