<svg width="44" height="44" viewBox="0 0 44 44" fill="none" xmlns="http://www.w3.org/2000/svg">
<path d="M28.2135 0H15.7867C13.8082 0 12.1097 1.21885 11.4004 2.94482H32.6C31.8906 1.21885 30.192 0 28.2135 0Z" fill="#58595B"/>
<path d="M33.7348 5.52295H10.2625C7.64827 5.52295 5.52148 7.64973 5.52148 10.2639V42.7109C5.52148 43.4228 6.09873 44 6.81055 44H15.1866V37.8784C15.1866 35.2643 17.3134 33.1375 19.9276 33.1375H24.0697C26.6839 33.1375 28.8105 35.2643 28.8105 37.8784V44H37.1866C37.8986 44 38.4757 43.4228 38.4757 42.7109V10.2639C38.4756 7.64973 36.349 5.52295 33.7348 5.52295ZM14.6258 29.8151C14.3861 30.0549 14.0536 30.1925 13.7141 30.1925C13.3756 30.1925 13.0428 30.0549 12.8031 29.8151C12.5624 29.5754 12.425 29.2428 12.425 28.9034C12.425 28.5648 12.5625 28.2322 12.8031 27.9924C13.0428 27.7526 13.3746 27.6144 13.7141 27.6144C14.0536 27.6144 14.3861 27.7526 14.6258 27.9924C14.8656 28.2322 15.0031 28.5639 15.0031 28.9034C15.0031 29.2427 14.8656 29.5753 14.6258 29.8151ZM14.6258 24.2919C14.3861 24.5326 14.0536 24.67 13.7141 24.67C13.3756 24.67 13.0428 24.5325 12.8031 24.2919C12.5624 24.0522 12.425 23.7196 12.425 23.3809C12.425 23.0416 12.5625 22.709 12.8031 22.4692C13.0428 22.2294 13.3746 22.0919 13.7141 22.0919C14.0536 22.0919 14.3861 22.2294 14.6258 22.4692C14.8656 22.709 15.0031 23.0416 15.0031 23.3809C15.0031 23.7196 14.8656 24.0522 14.6258 24.2919ZM14.6258 18.7695C14.3852 19.0093 14.0536 19.1469 13.7141 19.1469C13.3756 19.1469 13.0428 19.0093 12.8031 18.7695C12.5624 18.5298 12.425 18.1973 12.425 17.8578C12.425 17.5184 12.5625 17.1858 12.8031 16.946C13.0428 16.7062 13.3755 16.5687 13.7141 16.5687C14.0536 16.5687 14.3853 16.7062 14.6258 16.946C14.8656 17.1858 15.0031 17.5184 15.0031 17.8578C15.0031 18.1973 14.8656 18.5298 14.6258 18.7695ZM14.6258 13.2464C14.3861 13.4862 14.0536 13.6237 13.7141 13.6237C13.3756 13.6237 13.0428 13.4862 12.8024 13.2464C12.5625 13.0066 12.425 12.6741 12.425 12.3346C12.425 11.9952 12.5625 11.6634 12.8024 11.4237C13.0429 11.183 13.3747 11.0455 13.7141 11.0455C14.0536 11.0455 14.3861 11.1831 14.6258 11.4237C14.8656 11.6634 15.0031 11.9952 15.0031 12.3346C15.0031 12.6741 14.8656 13.0066 14.6258 13.2464ZM20.1483 29.8151C19.9085 30.0549 19.576 30.1925 19.2372 30.1925C18.8978 30.1925 18.5653 30.0549 18.3255 29.8151C18.0858 29.5754 17.9481 29.2428 17.9481 28.9034C17.9481 28.564 18.0858 28.2322 18.3255 27.9924C18.5653 27.7526 18.8978 27.6144 19.2372 27.6144C19.5767 27.6144 19.9085 27.7526 20.1483 27.9924C20.3888 28.2322 20.5263 28.5639 20.5263 28.9034C20.5263 29.2427 20.3888 29.5753 20.1483 29.8151ZM20.1492 24.2919C19.9085 24.5326 19.5768 24.67 19.2373 24.67C18.8979 24.67 18.5662 24.5325 18.3256 24.2919C18.0859 24.0522 17.9482 23.7196 17.9482 23.3809C17.9482 23.0416 18.0859 22.709 18.3256 22.4692C18.5663 22.2294 18.8979 22.0919 19.2373 22.0919C19.5768 22.0919 19.9085 22.2294 20.1492 22.4692C20.3888 22.709 20.5263 23.0416 20.5263 23.3809C20.5263 23.7205 20.3888 24.0522 20.1492 24.2919ZM20.1492 18.7695C19.9085 19.0093 19.5768 19.1469 19.2373 19.1469C18.8979 19.1469 18.5662 19.0093 18.3256 18.7695C18.0859 18.5298 17.9482 18.1973 17.9482 17.8578C17.9482 17.5184 18.0859 17.1858 18.3256 16.946C18.5663 16.7062 18.8979 16.5687 19.2373 16.5687C19.576 16.5687 19.9085 16.7062 20.1492 16.946C20.3888 17.1858 20.5263 17.5184 20.5263 17.8578C20.5263 18.1973 20.3888 18.5298 20.1492 18.7695ZM20.1492 13.2464C19.9085 13.4862 19.5768 13.6237 19.2373 13.6237C18.8979 13.6237 18.5654 13.4862 18.3256 13.2464C18.0859 13.0066 17.9482 12.6741 17.9482 12.3346C17.9482 11.9952 18.0859 11.6634 18.3256 11.4237C18.5654 11.183 18.8979 11.0455 19.2373 11.0455C19.5768 11.0455 19.9093 11.1831 20.1492 11.4237C20.3888 11.6634 20.5263 11.996 20.5263 12.3346C20.5263 12.6741 20.3888 13.0058 20.1492 13.2464ZM25.6714 29.8151C25.4316 30.0549 25.0991 30.1925 24.7595 30.1925C24.421 30.1925 24.0885 30.0549 23.8486 29.8151C23.6089 29.5754 23.4714 29.2428 23.4714 28.9034C23.4714 28.564 23.6089 28.2322 23.8486 27.9924C24.0885 27.7526 24.4209 27.6144 24.7595 27.6144C25.0991 27.6144 25.4316 27.7526 25.6714 27.9924C25.912 28.2322 26.0495 28.5648 26.0495 28.9034C26.0496 29.2427 25.912 29.5753 25.6714 29.8151ZM25.6714 24.2919C25.4316 24.5326 25.0991 24.67 24.7595 24.67C24.421 24.67 24.0885 24.5325 23.8486 24.2919C23.6089 24.0522 23.4714 23.7196 23.4714 23.3809C23.4714 23.0416 23.6089 22.709 23.8486 22.4692C24.0885 22.2294 24.4209 22.0919 24.7595 22.0919C25.0991 22.0919 25.4316 22.2294 25.6714 22.4692C25.912 22.709 26.0495 23.0416 26.0495 23.3809C26.0496 23.7196 25.912 24.0522 25.6714 24.2919ZM23.4715 17.8578C23.4715 17.5184 23.609 17.1858 23.8487 16.946C24.0885 16.7062 24.421 16.5687 24.7606 16.5687C25.0991 16.5687 25.4317 16.7062 25.6715 16.946C25.9112 17.1858 26.0487 17.5184 26.0487 17.8578C26.0487 18.1973 25.9112 18.5298 25.6715 18.7695C25.4317 19.0093 25.0992 19.1469 24.7606 19.1469C24.421 19.1469 24.0885 19.0093 23.8487 18.7695C23.6089 18.5298 23.4715 18.1973 23.4715 17.8578ZM25.6714 13.2464C25.4316 13.4862 25.0999 13.6237 24.7605 13.6237C24.4209 13.6237 24.0885 13.4862 23.8486 13.2464C23.6089 13.0066 23.4714 12.6741 23.4714 12.3346C23.4714 11.9952 23.6089 11.6634 23.8486 11.4237C24.0885 11.183 24.4209 11.0455 24.7605 11.0455C25.0999 11.0455 25.4316 11.1831 25.6714 11.4237C25.9111 11.6634 26.0495 11.9952 26.0495 12.3346C26.0496 12.6741 25.9111 13.0066 25.6714 13.2464ZM31.1946 29.8151C30.9549 30.0549 30.6223 30.1925 30.2829 30.1925C29.9442 30.1925 29.6117 30.0549 29.372 29.8151C29.1313 29.5754 28.9939 29.2428 28.9939 28.9034C28.9939 28.5648 29.1314 28.2322 29.372 27.9924C29.6117 27.7526 29.9433 27.6144 30.2829 27.6144C30.6223 27.6144 30.9549 27.7526 31.1946 27.9924C31.4345 28.2322 31.572 28.5639 31.572 28.9034C31.5719 29.2427 31.4345 29.5753 31.1946 29.8151ZM31.1946 24.2919C30.9549 24.5326 30.6223 24.67 30.2829 24.67C29.9434 24.67 29.6117 24.5325 29.372 24.2919C29.1313 24.0522 28.9939 23.7196 28.9939 23.3809C28.9939 23.0416 29.1314 22.709 29.372 22.4692C29.6117 22.2294 29.9433 22.0919 30.2829 22.0919C30.6223 22.0919 30.9549 22.2294 31.1946 22.4692C31.4345 22.709 31.572 23.0416 31.572 23.3809C31.5719 23.7196 31.4345 24.0522 31.1946 24.2919ZM31.1946 18.7695C30.9539 19.0093 30.6223 19.1469 30.2829 19.1469C29.9442 19.1469 29.6117 19.0093 29.372 18.7695C29.1313 18.5298 28.9939 18.1973 28.9939 17.8578C28.9939 17.5184 29.1314 17.1858 29.372 16.946C29.6117 16.7062 29.9441 16.5687 30.2829 16.5687C30.6223 16.5687 30.954 16.7062 31.1946 16.946C31.4345 17.1858 31.572 17.5184 31.572 17.8578C31.5719 18.1973 31.4345 18.5298 31.1946 18.7695ZM31.1946 13.2464C30.9539 13.4862 30.6223 13.6237 30.2829 13.6237C29.9434 13.6237 29.6117 13.4862 29.372 13.2464C29.1313 13.0066 28.9939 12.6741 28.9939 12.3346C28.9939 11.9952 29.1314 11.6634 29.372 11.4237C29.6117 11.183 29.9433 11.0455 30.2829 11.0455C30.6223 11.0455 30.9549 11.1831 31.1946 11.4237C31.4345 11.6634 31.572 11.9952 31.572 12.3346C31.5719 12.6741 31.4345 13.0066 31.1946 13.2464Z" fill="#58595B"/>
<path d="M24.0711 35.7153H23.2891V43.9997H26.2338V37.8781C26.2338 36.6856 25.2636 35.7153 24.0711 35.7153Z" fill="#58595B"/>
<path d="M17.7676 37.8781V43.9997H20.7125V35.7153H19.9305C18.7379 35.7153 17.7676 36.6856 17.7676 37.8781Z" fill="#58595B"/>
</svg>
