<svg width="56" height="40" viewBox="0 0 56 40" fill="none" xmlns="http://www.w3.org/2000/svg">
<path d="M55.3291 4.96018V21.7089C55.3291 21.7089 51.7445 22.4151 51.006 22.508C50.2699 22.6006 47.9566 23.3476 46.28 21.7361C43.6945 19.2581 34.5084 10.1227 34.5084 10.1227C34.5084 10.1227 32.9245 8.56847 30.3813 9.91167C28.0468 11.1421 24.5862 12.9454 23.1407 13.6476C20.4082 15.1019 18.1435 12.7944 18.1435 11.0367C18.1435 9.67333 18.9942 8.74798 20.2104 8.06745C23.5063 6.0694 30.4532 2.17007 33.3466 0.63274C35.1053 -0.302655 36.3725 -0.38281 38.787 1.6513C41.7608 4.15228 44.4072 6.43199 44.4072 6.43199C44.4072 6.43199 45.2704 7.15237 46.647 6.86223C50.0273 6.14754 55.3291 4.96018 55.3291 4.96018ZM18.7657 33.3392C19.2106 32.1963 19.0619 30.9179 18.209 30.0409C17.4426 29.2565 16.3237 29.0497 15.2568 29.2942C15.5552 28.236 15.3904 27.1097 14.6199 26.3149C13.8512 25.5324 12.7344 25.3215 11.6676 25.5682C11.9638 24.5116 11.7994 23.3854 11.0285 22.5929C9.82126 21.3547 7.73311 21.4078 6.36133 22.7154C4.99681 24.0248 4.1227 26.397 5.34054 27.7934C6.55636 29.1827 7.95337 28.3374 9.01837 28.0947C8.72209 29.1513 7.83437 30.1341 8.92762 31.5172C10.0199 32.9009 11.5403 32.0614 12.6065 31.821C12.3092 32.8736 11.4602 33.9551 12.5115 35.2374C13.5722 36.5237 15.3096 35.8384 16.4571 35.4819C16.0142 36.6205 15.0663 37.8478 16.2842 39.2232C17.5001 40.6085 20.3101 39.9676 21.6827 38.658C23.0515 37.3486 23.1829 35.2734 21.9789 34.0312C21.1477 33.179 19.9085 32.9807 18.7657 33.3392ZM43.8105 24.6256C33.8883 14.7033 38.5553 19.3722 33.2156 14.0211C33.2156 14.0211 31.6109 12.4235 29.4958 13.3515C28.0111 14.0021 26.0995 14.8888 24.6612 15.5658C23.0807 16.3946 21.9432 16.6511 21.4092 16.6475C18.3537 16.6276 15.8747 14.1717 15.8747 11.1192C15.8747 9.13904 16.926 7.41505 18.4939 6.43645C20.6987 4.91073 25.7737 2.21138 25.7737 2.21138C25.7737 2.21138 24.2276 0.252286 20.8408 0.252286C17.455 0.252286 10.3811 4.88651 10.3811 4.88651C10.3811 4.88651 8.37435 6.17188 5.51368 5.0141L0 3.09408V22.2594C0 22.2594 1.5744 22.7151 2.98904 23.2929C3.30855 22.3817 3.82408 21.5403 4.53922 20.8454C6.88613 18.61 10.7762 18.5868 12.9114 20.7854C13.5547 21.4538 14.0036 22.2511 14.2327 23.1325C15.093 23.398 15.8724 23.8685 16.4986 24.5137C17.1438 25.1776 17.591 25.9794 17.822 26.8563C18.6813 27.1221 19.4595 27.5943 20.0879 28.24C20.7956 28.9698 21.267 29.8512 21.4872 30.8063C22.3855 31.068 23.1973 31.5548 23.8512 32.2233C25.1344 33.5414 25.5899 35.3297 25.3139 37.0547C25.3162 37.0547 25.3204 37.0547 25.3224 37.0586C25.3434 37.086 26.1175 37.949 26.6002 38.4357C27.5462 39.3826 29.0909 39.3826 30.0398 38.4357C30.9825 37.4891 30.9866 35.9474 30.0398 34.9961C30.0059 34.9623 26.6269 31.4279 26.8988 31.1538C27.1688 30.8816 31.4738 35.3611 31.5539 35.4431C32.4987 36.3881 34.0424 36.3881 34.9914 35.4431C35.9382 34.4965 35.9362 32.9548 34.9914 32.0057C34.945 31.9615 34.7512 31.7759 34.6793 31.7019C34.6793 31.7019 30.411 27.8996 30.7359 27.5748C31.0647 27.2479 36.3665 32.1956 36.3751 32.1956C37.3282 33.0539 38.7962 33.0475 39.713 32.1302C40.6051 31.2382 40.6242 29.8272 39.8334 28.8764C39.8166 28.8259 35.7928 24.6208 36.1069 24.3044C36.4255 23.9839 40.407 28.0836 40.4153 28.0921C41.358 29.0369 42.9038 29.0369 43.8528 28.0921C44.7976 27.1472 44.7976 25.6036 43.8528 24.6504C43.84 24.6423 43.8231 24.6338 43.8105 24.6256Z" fill="#58595B"/>
</svg>
