<svg width="44" height="44" viewBox="0 0 44 44" fill="none" xmlns="http://www.w3.org/2000/svg">
<path d="M41.093 13.9038C40.1514 12.9616 38.6547 12.9024 37.6425 13.7271C37.4961 13.8464 37.6095 13.7413 35.3809 15.9699L41.1658 21.755L43.2449 19.7018C44.2501 18.6966 44.2501 17.0611 43.2449 16.0558L41.093 13.9038Z" fill="#58595B"/>
<path d="M23.518 27.9423L20.1151 35.2344C19.8859 35.7257 19.9884 36.3078 20.3717 36.6911C20.755 37.0744 21.3373 37.1769 21.8283 36.9477L29.1205 33.5447C29.409 33.41 28.5356 34.2274 39.3317 23.5661L33.5582 17.7925C22.854 28.4968 23.6554 27.6481 23.518 27.9423Z" fill="#58595B"/>
<path d="M31.2919 35.1288C30.9762 35.4405 30.6123 35.6935 30.2104 35.8811L22.9182 39.2842C21.4843 39.9534 19.7325 39.6986 18.5485 38.5144C17.4029 37.3688 17.0934 35.6127 17.7785 34.1443L21.1815 26.852C21.3727 26.4425 21.6317 26.0728 21.9513 25.7531L32.9141 14.7904V3.86719C32.9141 1.73482 31.1792 0 29.0469 0H3.86719C1.73482 0 0 1.73482 0 3.86719V40.1328C0 42.2652 1.73482 44 3.86719 44H29.0469C31.1792 44 32.9141 42.2652 32.9141 40.1328V33.5267L31.2919 35.1288ZM6.87509 8.33594H26.1251C26.837 8.33594 27.4141 8.91309 27.4141 9.625C27.4141 10.3369 26.837 10.9141 26.1251 10.9141H6.87509C6.16318 10.9141 5.58602 10.3369 5.58602 9.625C5.58602 8.91309 6.16318 8.33594 6.87509 8.33594ZM6.87509 15.2109H22.0001C22.712 15.2109 23.2891 15.7881 23.2891 16.5C23.2891 17.2119 22.712 17.7891 22.0001 17.7891H6.87509C6.16318 17.7891 5.58602 17.2119 5.58602 16.5C5.58602 15.7881 6.16318 15.2109 6.87509 15.2109ZM5.58602 23.375C5.58602 22.6631 6.16318 22.0859 6.87509 22.0859H17.8751C18.587 22.0859 19.1641 22.6631 19.1641 23.375C19.1641 24.0869 18.587 24.6641 17.8751 24.6641H6.87509C6.16318 24.6641 5.58602 24.0869 5.58602 23.375Z" fill="#58595B"/>
</svg>
