<svg width="46" height="46" viewBox="0 0 46 46" fill="none" xmlns="http://www.w3.org/2000/svg">
<g clip-path="url(#clip0)">
<path d="M44.4948 41.8986L39.8312 37.235C40.7933 35.7827 41.3607 34.0476 41.3607 32.1803C41.3607 27.1183 37.2424 23 32.1803 23C27.1183 23 23 27.1183 23 32.1803C23 37.2424 27.1183 41.3607 32.1803 41.3607C34.0476 41.3607 35.7827 40.7933 37.235 39.8312L41.8986 44.4948C42.6165 45.2127 43.7769 45.2127 44.4948 44.4948C45.2127 43.7769 45.2127 42.6165 44.4948 41.8986ZM32.1803 37.6885C29.1435 37.6885 26.6721 35.2172 26.6721 32.1803C26.6721 29.1435 29.1435 26.6721 32.1803 26.6721C35.2172 26.6721 37.6885 29.1435 37.6885 32.1803C37.6885 35.2172 35.2172 37.6885 32.1803 37.6885Z" fill="#A7A9AC"/>
<path d="M35.852 0.967285H6.47499C3.43263 0.967285 0.966797 3.43312 0.966797 6.47548C0.966797 9.51784 3.43263 11.9837 6.47499 11.9837H35.852C38.8944 11.9837 41.3602 9.51784 41.3602 6.47548C41.3602 3.43312 38.8944 0.967285 35.852 0.967285ZM6.47499 8.31155C5.46148 8.31155 4.63893 7.48899 4.63893 6.47548C4.63893 5.46197 5.46148 4.63942 6.47499 4.63942C7.4885 4.63942 8.31106 5.46197 8.31106 6.47548C8.31106 7.48899 7.4885 8.31155 6.47499 8.31155ZM13.8193 8.31155C12.8057 8.31155 11.9832 7.48899 11.9832 6.47548C11.9832 5.46197 12.8057 4.63942 13.8193 4.63942C14.8328 4.63942 15.6553 5.46197 15.6553 6.47548C15.6553 7.48899 14.8328 8.31155 13.8193 8.31155Z" fill="#A7A9AC"/>
<path d="M35.852 15.6558H6.47499C3.42712 15.6558 0.966797 18.1161 0.966797 21.164C0.966797 24.2118 3.42712 26.6722 6.47499 26.6722H20.576C22.6324 22.339 27.0573 19.3279 32.1799 19.3279C35.6317 19.3279 38.753 20.6866 41.0665 22.9082C41.2684 22.3574 41.3602 21.7699 41.3602 21.164C41.3602 18.1161 38.8999 15.6558 35.852 15.6558ZM6.47499 23C5.46516 23 4.63893 22.1738 4.63893 21.164C4.63893 20.1541 5.46516 19.3279 6.47499 19.3279C7.48483 19.3279 8.31106 20.1541 8.31106 21.164C8.31106 22.1738 7.48483 23 6.47499 23ZM13.8193 23C12.8094 23 11.9832 22.1738 11.9832 21.164C11.9832 20.1541 12.8094 19.3279 13.8193 19.3279C14.8291 19.3279 15.6553 20.1541 15.6553 21.164C15.6553 22.1738 14.8291 23 13.8193 23Z" fill="#A7A9AC"/>
<path d="M19.3275 32.1803C19.3275 31.556 19.3642 30.9501 19.4743 30.3442H6.47499C3.42712 30.3442 0.966797 32.8046 0.966797 35.8524C0.966797 38.9003 3.42712 41.3606 6.47499 41.3606H23.2016C20.8147 39.0288 19.3275 35.779 19.3275 32.1803ZM6.47499 37.6885C5.46516 37.6885 4.63893 36.8623 4.63893 35.8524C4.63893 34.8426 5.46516 34.0164 6.47499 34.0164C7.48483 34.0164 8.31106 34.8426 8.31106 35.8524C8.31106 36.8623 7.48483 37.6885 6.47499 37.6885ZM13.8193 37.6885C12.8094 37.6885 11.9832 36.8623 11.9832 35.8524C11.9832 34.8426 12.8094 34.0164 13.8193 34.0164C14.8291 34.0164 15.6553 34.8426 15.6553 35.8524C15.6553 36.8623 14.8291 37.6885 13.8193 37.6885Z" fill="#A7A9AC"/>
</g>
<defs>
<clipPath id="clip0">
<rect width="44.0656" height="44.0656" fill="white" transform="translate(0.966797 0.967285)"/>
</clipPath>
</defs>
</svg>
