<svg width="45" height="45" viewBox="0 0 45 45" fill="none" xmlns="http://www.w3.org/2000/svg">
<g clip-path="url(#clip0)">
<path d="M37.6439 0H7.22243C3.46076 0 0.400391 3.06037 0.400391 6.82204V9.77147H44.466V6.82204C44.466 3.06037 41.4056 0 37.6439 0ZM7.22243 6.17655C6.51239 6.17655 5.93145 5.5983 5.93145 4.88557C5.93145 4.17317 6.51239 3.59458 7.22243 3.59458C7.93247 3.59458 8.51342 4.17317 8.51342 4.88557C8.51342 5.5983 7.93247 6.17655 7.22243 6.17655ZM12.7535 6.17655C12.0434 6.17655 11.4625 5.5983 11.4625 4.88557C11.4625 4.17317 12.0434 3.59458 12.7535 3.59458C13.4635 3.59458 14.0445 4.17317 14.0445 4.88557C14.0445 5.5983 13.4635 6.17655 12.7535 6.17655ZM18.2849 6.17655C17.5748 6.17655 16.9939 5.5983 16.9939 4.88557C16.9939 4.17317 17.5748 3.59458 18.2849 3.59458C18.9949 3.59458 19.5759 4.17317 19.5759 4.88557C19.5759 5.5983 18.9949 6.17655 18.2849 6.17655Z" fill="#A7A9AC"/>
<path d="M0.400391 37.2435C0.400391 41.0051 3.46076 44.0655 7.22243 44.0655H37.6439C41.4056 44.0655 44.466 41.0051 44.466 37.2435V12.353H0.400391V37.2435ZM29.817 20.18C29.3127 19.676 29.3127 18.8584 29.817 18.3544C30.3213 17.8501 31.1386 17.8501 31.6429 18.3544L37.1739 23.8855C37.6782 24.3898 37.6782 25.2071 37.1739 25.7113L31.6429 31.2424C31.3907 31.4946 31.0602 31.6206 30.7298 31.6206C30.3996 31.6206 30.0691 31.4946 29.817 31.2424C29.313 30.7385 29.313 29.9208 29.817 29.4169L34.4353 24.7986L29.817 20.18ZM18.5128 29.7521L24.0442 18.6896C24.3629 18.0522 25.1385 17.7936 25.776 18.1124C26.4137 18.4311 26.6722 19.2067 26.3535 19.8444L20.8221 30.9069C20.5962 31.3591 20.14 31.6206 19.6666 31.6206C19.4727 31.6206 19.2756 31.5769 19.0904 31.4841C18.4526 31.1654 18.1941 30.3898 18.5128 29.7521ZM7.69243 23.8855L13.2235 18.3541C13.7278 17.8501 14.5451 17.8501 15.0494 18.3541C15.5533 18.8584 15.5533 19.6757 15.0494 20.18L10.4311 24.7982L15.049 29.4165C15.5533 29.9205 15.5533 30.7381 15.049 31.2424C14.7972 31.4942 14.4667 31.6203 14.1363 31.6203C13.8061 31.6203 13.4756 31.4942 13.2235 31.2424L7.69243 25.711C7.18814 25.2071 7.18814 24.3898 7.69243 23.8855Z" fill="#A7A9AC"/>
</g>
<defs>
<clipPath id="clip0">
<rect width="44.0656" height="44.0656" fill="white" transform="translate(0.400391)"/>
</clipPath>
</defs>
</svg>
