<svg width="36" height="36" viewBox="0 0 36 36" fill="none" xmlns="http://www.w3.org/2000/svg">
<path d="M34.7143 9.00002H28.2857V1.28574C28.2857 0.575633 27.7101 0 27 0H1.28574C0.575633 0 0 0.575633 0 1.28574V30.8571C0 33.6975 2.30253 36 5.14288 36H30.8571C33.6975 36 36 33.6975 36 30.8571V10.2857C36 9.57565 35.4244 9.00002 34.7143 9.00002ZM10.2857 6.42854H18C18.7101 6.42854 19.2857 7.00417 19.2857 7.71428C19.2857 8.42439 18.7101 9.00002 18 9.00002H10.2857C9.57558 9.00002 8.99994 8.42439 8.99994 7.71428C8.99994 7.00417 9.57565 6.42854 10.2857 6.42854ZM21.8571 30.8571H6.42854C5.71844 30.8571 5.1428 30.2815 5.1428 29.5714C5.1428 28.8613 5.71844 28.2856 6.42854 28.2856H21.8571C22.5672 28.2856 23.1428 28.8613 23.1428 29.5714C23.1428 30.2815 22.5672 30.8571 21.8571 30.8571ZM21.8571 25.7142H6.42854C5.71844 25.7142 5.1428 25.1386 5.1428 24.4285C5.1428 23.7184 5.71844 23.1428 6.42854 23.1428H21.8571C22.5672 23.1428 23.1428 23.7184 23.1428 24.4285C23.1428 25.1386 22.5672 25.7142 21.8571 25.7142ZM21.8571 20.5714H6.42854C5.71844 20.5714 5.1428 19.9958 5.1428 19.2857C5.1428 18.5756 5.71844 18 6.42854 18H21.8571C22.5672 18 23.1428 18.5756 23.1428 19.2857C23.1428 19.9958 22.5672 20.5714 21.8571 20.5714ZM21.8571 15.4286H6.42854C5.71844 15.4286 5.1428 14.8529 5.1428 14.1428C5.1428 13.4327 5.71844 12.8571 6.42854 12.8571H21.8571C22.5672 12.8571 23.1428 13.4327 23.1428 14.1428C23.1428 14.8529 22.5672 15.4286 21.8571 15.4286ZM33.4285 30.8571C33.4285 32.2773 32.2773 33.4285 30.8571 33.4285C29.437 33.4285 28.2857 32.2773 28.2857 30.8571V11.5714H33.4286V30.8571H33.4285Z" fill="#A7A9AC"/>
</svg>
