<svg width="56" height="56" viewBox="0 0 56 56" fill="none" xmlns="http://www.w3.org/2000/svg">
<path d="M9.84375 19.9062C6.22442 19.9062 3.28125 16.9631 3.28125 13.3438C3.28125 9.72442 6.22442 6.78125 9.84375 6.78125C13.4631 6.78125 16.4062 9.72442 16.4062 13.3438C16.4062 16.9631 13.4631 19.9062 9.84375 19.9062Z" fill="#58595B"/>
<path d="M46.1562 19.9062C42.5369 19.9062 39.5938 16.9631 39.5938 13.3438C39.5938 9.72442 42.5369 6.78125 46.1562 6.78125C49.7756 6.78125 52.7188 9.72442 52.7188 13.3438C52.7188 16.9631 49.7756 19.9062 46.1562 19.9062Z" fill="#58595B"/>
<path d="M28 16.4062C23.477 16.4062 19.7969 12.7261 19.7969 8.20312C19.7969 3.68014 23.477 0 28 0C32.523 0 36.2031 3.68014 36.2031 8.20312C36.2031 12.7261 32.523 16.4062 28 16.4062Z" fill="#58595B"/>
<path d="M29.6406 16.5718V27.8903C29.6406 28.7972 28.9068 29.531 28 29.531C27.0932 29.531 26.3594 28.7972 26.3594 27.8903V16.5718C20.8086 17.3764 16.5156 22.1203 16.5156 27.8903V37.7341C16.5156 38.6409 17.2494 39.3747 18.1562 39.3747H21.8317L23.0846 54.4969C23.155 55.346 23.8664 55.9997 24.7188 55.9997H31.2812C32.1336 55.9997 32.845 55.346 32.9154 54.4969L34.1683 39.3747H37.8438C38.7506 39.3747 39.4844 38.6409 39.4844 37.7341V27.8903C39.4844 22.1203 35.1914 17.3764 29.6406 16.5718Z" fill="#58595B"/>
<path d="M13.125 37.9531V28.1094C13.125 25.6502 13.7867 23.3649 14.8543 21.3235C13.3812 20.4442 11.6806 19.9062 9.84375 19.9062C4.41558 19.9062 0 24.3218 0 29.75V37.9531C0 38.86 0.733797 39.5938 1.64062 39.5938H3.43667L4.92986 54.5228C5.0132 55.3607 5.71977 56 6.5625 56H13.125C13.9677 56 14.6743 55.3607 14.7576 54.5228L15.9703 42.3993C14.2952 41.6133 13.125 39.9226 13.125 37.9531Z" fill="#58595B"/>
<path d="M55.9995 29.75C55.9995 24.3218 51.584 19.9062 46.1558 19.9062C44.319 19.9062 42.6184 20.4442 41.1452 21.3235C42.2129 23.3649 42.8746 25.6502 42.8746 28.1094V37.9531C42.8746 39.9226 41.7044 41.6133 40.0293 42.3993L41.2419 54.5228C41.3253 55.3607 42.0318 56 42.8746 56H49.4371C50.2798 56 50.9864 55.3607 51.0697 54.5228L52.5629 39.5938H54.3589C55.2658 39.5938 55.9995 38.86 55.9995 37.9531V29.75Z" fill="#58595B"/>
</svg>
