<svg width="56" height="56" viewBox="0 0 56 56" fill="none" xmlns="http://www.w3.org/2000/svg">
<path d="M51.0781 9.84375C53.7922 9.84375 56 7.63591 56 4.92188C56 2.20784 53.7922 0 51.0781 0C48.3641 0 46.1562 2.20784 46.1562 4.92188C46.1562 5.67952 46.3425 6.38881 46.6495 7.03052L41.9212 11.7588L40.7613 10.5989C40.1205 9.95805 39.0822 9.95805 38.4414 10.5989L36.7863 12.2539C35.5558 11.5602 34.2629 11.0203 32.9219 10.6389V8.3125C32.9219 7.40567 32.1881 6.67188 31.2812 6.67188H24.7188C23.8119 6.67188 23.0781 7.40567 23.0781 8.3125V10.6389C21.7371 11.0202 20.4442 11.5602 19.2137 12.2539L17.5586 10.5989C16.9178 9.95805 15.8795 9.95805 15.2387 10.5989L14.0788 11.7588L9.35047 7.03052C9.65748 6.38881 9.84375 5.67952 9.84375 4.92188C9.84375 2.20784 7.63591 0 4.92188 0C2.20784 0 0 2.20784 0 4.92188C0 7.63591 2.31722 9.84375 5.03125 9.84375C5.78889 9.84375 6.38881 9.65748 7.03052 9.35047L11.7588 14.0788L10.5989 15.2387C9.95805 15.8795 9.95805 16.9178 10.5989 17.5586L12.2539 19.2137C11.5602 20.4442 11.0203 21.7371 10.6389 23.0781H8.3125C7.40567 23.0781 6.67188 23.8119 6.67188 24.7188V31.2812C6.67188 32.1881 7.40567 32.9219 8.3125 32.9219H10.6389C11.0202 34.2629 11.5602 35.5558 12.2539 36.7863L10.5989 38.4414C9.95805 39.0822 9.95805 40.1205 10.5989 40.7613L11.7588 41.9212L7.03052 46.6495C6.38881 46.3425 5.67952 46.1562 4.92188 46.1562C2.20784 46.1562 0 48.3641 0 51.0781C0 53.7922 2.20784 56 4.92188 56C7.63591 56 9.84375 53.7922 9.84375 51.0781C9.84375 50.3205 9.65748 49.6112 9.35047 48.9695L14.0788 44.2412L15.2387 45.4011C15.8795 46.042 16.9178 46.042 17.5586 45.4011L19.2137 43.7461C20.4442 44.4398 21.7371 44.9797 23.0781 45.3611V47.6875C23.0781 48.5943 23.8119 49.3281 24.7188 49.3281H31.2812C32.1881 49.3281 32.9219 48.5943 32.9219 47.6875V45.3611C34.2629 44.9798 35.5558 44.4398 36.7863 43.7461L38.4414 45.4011C39.0822 46.042 40.1205 46.042 40.7613 45.4011L41.9212 44.2412L46.6495 48.9695C46.3425 49.6112 46.1562 50.3205 46.1562 51.0781C46.1562 53.7922 48.3641 56 51.0781 56C53.7922 56 56 53.7922 56 51.0781C56 48.3641 53.7922 46.1562 51.0781 46.1562C50.3205 46.1562 49.6112 46.3425 48.9695 46.6495L44.2412 41.9212L45.4011 40.7613C46.042 40.1205 46.042 39.0822 45.4011 38.4414L43.7461 36.7863C44.4398 35.5558 44.9797 34.2629 45.3611 32.9219H47.6875C48.5943 32.9219 49.3281 32.1881 49.3281 31.2812V24.7188C49.3281 23.8119 48.5943 23.0781 47.6875 23.0781H45.3611C44.9798 21.7371 44.4398 20.4442 43.7461 19.2137L45.4011 17.5586C46.042 16.9178 46.042 15.8795 45.4011 15.2387L44.2412 14.0788L48.9695 9.35047C49.6112 9.65748 50.3205 9.84375 51.0781 9.84375ZM28 39.4844C21.6682 39.4844 16.5156 34.3318 16.5156 28C16.5156 21.6682 21.6682 16.5156 28 16.5156C34.3318 16.5156 39.4844 21.6682 39.4844 28C39.4844 34.3318 34.3318 39.4844 28 39.4844Z" fill="#58595B"/>
</svg>
