<svg width="39" height="44" viewBox="0 0 39 44" fill="none" xmlns="http://www.w3.org/2000/svg">
<path d="M35.3 6.34844C32.0082 2.25462 27.2522 0 21.908 0C18.086 0 14.2499 1.1966 11.1074 3.36926C7.74805 5.69182 5.39619 8.92691 4.30632 12.7252C3.87603 14.226 3.65438 15.4722 3.45848 16.572C3.05325 18.8508 2.75997 20.497 0.957155 23.1564C0.479026 23.8617 0.32602 24.5364 0.502806 25.1615C0.782351 26.1504 1.72969 26.5782 2.49119 26.9217C2.74525 27.0366 3.17087 27.2286 3.26684 27.335C3.72458 27.9085 3.68453 29.4969 3.64914 30.8985C3.59875 32.8984 3.54652 34.9665 4.53944 36.4592C5.92811 38.5462 8.07572 38.5689 9.80126 38.5872C11.8257 38.6085 12.7496 38.6184 12.9603 40.8741C12.9646 40.9297 12.9732 41.1707 12.9809 41.3835C13.0351 42.8702 13.0586 43.0721 13.1347 43.289C13.2849 43.7151 13.6873 44 14.1391 44H33.1254C33.4917 44 33.8322 43.8116 34.0271 43.5012C34.222 43.1908 34.2433 42.802 34.084 42.4721C31.6906 37.5158 33.6501 32.429 35.7248 27.0433C36.9857 23.77 38.2897 20.3854 38.5859 16.9596C38.9286 12.9954 37.8537 9.52436 35.3 6.34844ZM18.204 17.9007C18.6747 18.2908 18.7392 18.9887 18.3484 19.4593C18.1297 19.7227 17.8139 19.8586 17.4963 19.8586C17.2471 19.8586 16.9965 19.7751 16.79 19.6036L12.5252 16.0636C12.272 15.853 12.1257 15.5412 12.1257 15.2118C12.1257 14.8828 12.272 14.5709 12.5252 14.3604L16.79 10.8202C17.2604 10.4298 17.9587 10.4948 18.3484 10.9651C18.7393 11.4355 18.6748 12.1334 18.204 12.5236L14.9651 15.2117L18.204 17.9007ZM25.1311 8.4986L21.0652 22.5414C20.9239 23.0256 20.4827 23.3404 20.002 23.3404C19.8999 23.3404 19.7967 23.3261 19.6936 23.2964C19.1065 23.1267 18.7689 22.5131 18.9386 21.9256L23.0043 7.88289C23.1746 7.29606 23.7883 6.95792 24.3757 7.12763C24.9627 7.29776 25.3004 7.9112 25.1311 8.4986ZM31.5441 16.0636L27.2793 19.6036C27.0725 19.7751 26.8222 19.8586 26.573 19.8586C26.2552 19.8586 25.9396 19.7227 25.7209 19.4593C25.3305 18.9887 25.3945 18.2908 25.8653 17.9007L29.1042 15.2119L25.8653 12.5239C25.3946 12.1337 25.3307 11.4357 25.7209 10.9654C26.1111 10.495 26.8092 10.4301 27.2793 10.8205L31.5441 14.3607C31.7974 14.571 31.9438 14.883 31.9438 15.2121C31.9438 15.5413 31.7974 15.853 31.5441 16.0636Z" fill="#58595B"/>
</svg>
