<svg width="36" height="36" viewBox="0 0 36 36" fill="none" xmlns="http://www.w3.org/2000/svg">
<g clip-path="url(#clip0)">
<path d="M31.2013 15C29.7755 15 28.5464 16.003 28.2613 17.3999H20.9412C20.8057 16.7402 20.4503 16.1458 19.9332 15.7141L21.9612 12.0002H24.0613C24.3692 13.5091 25.7699 14.5396 27.3022 14.3847C28.8346 14.2301 30.0005 12.94 30.0005 11.4C30.0005 9.86002 28.8346 8.56995 27.3022 8.41532C25.7699 8.26041 24.3692 9.2912 24.0613 10.8002H22.2013V8.05194C22.1021 8.0102 21.9978 7.97943 21.8972 7.94016C21.8709 7.92203 21.8429 7.90637 21.814 7.89292C21.6794 7.84183 21.541 7.8042 21.4048 7.75861C21.3012 7.724 21.1988 7.6883 21.0939 7.65671C20.867 7.58859 20.6368 7.53174 20.4058 7.47901C20.299 7.45456 20.1935 7.42682 20.0856 7.40567C19.842 7.35816 19.5956 7.32382 19.3481 7.29306C19.2493 7.2807 19.152 7.26258 19.0521 7.25296C18.7046 7.21973 18.3544 7.19995 18.0012 7.19995C15.5131 7.19831 13.1013 8.05991 11.1776 9.63782C11.1644 9.64853 11.1499 9.6576 11.1367 9.66858C10.9384 9.832 10.7527 10.0094 10.5668 10.1866C10.5022 10.2478 10.4319 10.3033 10.369 10.3662C10.2372 10.4983 10.1174 10.642 9.99218 10.7807C9.88561 10.8988 9.77273 11.0108 9.6711 11.1336C9.60162 11.2177 9.54174 11.3099 9.47472 11.3962C9.32943 11.5835 9.18166 11.7689 9.04873 11.9658C9.03637 11.9837 9.02676 12.0037 9.0144 12.0219C8.63839 12.583 8.31594 13.1784 8.05145 13.8C8.04403 13.8173 8.03936 13.8357 8.03194 13.8527C6.92425 16.5067 6.92425 19.4934 8.03194 22.1471C8.03909 22.1644 8.04403 22.1828 8.05145 22.1999C8.31594 22.8217 8.63839 23.4169 9.01412 23.9783C9.02621 23.9961 9.03609 24.0162 9.04845 24.0343C9.18139 24.231 9.32916 24.4166 9.47445 24.6039C9.54147 24.6902 9.60134 24.7822 9.67083 24.8662C9.77245 24.9893 9.88534 25.1014 9.99191 25.2195C10.1171 25.3582 10.2366 25.5018 10.3687 25.6339C10.4316 25.6968 10.5019 25.752 10.5665 25.8135C10.7524 25.9907 10.9384 26.1678 11.1364 26.3315C11.1496 26.3425 11.1641 26.3516 11.1773 26.3623C13.1013 27.9402 15.5131 28.8018 18.0012 28.8002C18.3544 28.8002 18.7046 28.7804 19.0521 28.7472C19.152 28.7376 19.2493 28.7194 19.3481 28.7071C19.5956 28.6763 19.842 28.642 20.0856 28.5945C20.1935 28.5733 20.299 28.5456 20.4058 28.5211C20.6368 28.4684 20.867 28.4115 21.0939 28.3434C21.1985 28.3118 21.3012 28.2761 21.4048 28.2415C21.5407 28.1959 21.6794 28.1583 21.814 28.1072C21.8429 28.0938 21.8709 28.0778 21.8972 28.06C21.9978 28.0207 22.1021 27.9902 22.2013 27.9479V25.2H24.0613C24.3692 26.7089 25.7699 27.7397 27.3022 27.5848C28.8346 27.4302 30.0005 26.1401 30.0005 24.6001C30.0005 23.0601 28.8346 21.77 27.3022 21.6154C25.7699 21.4605 24.3692 22.491 24.0613 24H21.9612L19.9332 20.286C20.4503 19.8543 20.8057 19.2599 20.9412 18.6002H28.2613C28.5769 20.1468 30.0373 21.1842 31.602 20.9732C33.1665 20.762 34.2994 19.3745 34.194 17.7993C34.0882 16.2241 32.78 15.0005 31.2013 15ZM27.0012 9.60019C27.9952 9.60019 28.8013 10.406 28.8013 11.4C28.8013 12.3943 27.9952 13.2001 27.0012 13.2001C26.0072 13.2001 25.2011 12.3943 25.2011 11.4C25.2041 10.4071 26.0083 9.60294 27.0012 9.60019ZM27.0012 22.8C27.9952 22.8 28.8013 23.6058 28.8013 24.6001C28.8013 25.5941 27.9952 26.3999 27.0012 26.3999C26.0072 26.3999 25.2011 25.5941 25.2011 24.6001C25.2041 23.6072 26.0083 22.803 27.0012 22.8ZM13.5133 12.516C11.8571 13.5954 10.842 15.4238 10.8013 17.3999C10.8013 17.7314 10.5327 18.0001 10.2012 18.0001C9.86996 18.0001 9.60134 17.7314 9.60134 17.3999C9.64666 15.003 10.8815 12.7854 12.8953 11.4841C13.0796 11.3737 13.3087 11.3701 13.4965 11.4745C13.6844 11.5788 13.8022 11.7755 13.8055 11.9905C13.8091 12.2053 13.6976 12.4056 13.5133 12.516ZM18.8653 19.578C18.6013 19.7255 18.3036 19.8021 18.0012 19.8002C17.0072 19.8002 16.2011 18.9941 16.2011 18.0001C16.2011 17.0061 17.0072 16.2 18.0012 16.2C18.3036 16.198 18.6013 16.2747 18.8653 16.4222C19.4423 16.7375 19.8013 17.3425 19.8013 18.0001C19.8013 18.6576 19.4423 19.2627 18.8653 19.578ZM31.2013 19.8002C30.207 19.8002 29.4012 18.9941 29.4012 18.0001C29.4012 17.0061 30.207 16.2 31.2013 16.2C32.1953 16.2 33.0011 17.0061 33.0011 18.0001C32.9984 18.993 32.1942 19.7972 31.2013 19.8002Z" fill="#A7A9AC"/>
<path d="M30.0001 28.8001C28.5743 28.7998 27.3452 29.8032 27.0599 31.2001V31.2003L24.2504 31.2017L23.4761 30.4275C23.4723 30.4233 23.4701 30.4181 23.466 30.414L23.4599 30.408L22.266 29.2201C17.7687 30.9295 12.6854 29.7881 9.35074 26.3202C6.01611 22.8521 5.07458 17.7281 6.95901 13.3011C8.84317 8.87448 13.1888 6.00073 18 5.99991C19.4582 5.99771 20.9045 6.26413 22.266 6.78598L23.466 5.586C23.4701 5.58188 23.4723 5.57666 23.4761 5.57254L24.246 4.79993H27.0599C27.368 6.3089 28.7685 7.33969 30.3008 7.18478C31.8332 7.03015 32.9994 5.74008 32.9994 4.20007C32.9994 2.65979 31.8332 1.37 30.3008 1.21509C28.7685 1.06046 27.368 2.09097 27.0599 3.59995H24.246C23.9293 3.60077 23.6261 3.72656 23.4017 3.94986L22.8925 4.45908L22.89 4.45798C22.467 4.30362 22.0367 4.17151 21.5999 4.06192V1.19998C21.598 0.538055 21.0619 0.00192261 20.4 0H15.6C14.9381 0.00192261 14.402 0.538055 14.4001 1.19998V4.06192C13.0949 4.39316 11.8438 4.91061 10.6861 5.59808L8.6759 3.58209C8.45096 3.35275 8.14362 3.22311 7.82227 3.22202C7.50092 3.22092 7.19275 3.34836 6.96588 3.57605L3.58209 6.96011C3.35275 7.18506 3.22311 7.4924 3.22202 7.81375C3.22092 8.1351 3.34836 8.44327 3.57605 8.67014L5.59808 10.6861C4.91061 11.8438 4.39316 13.0949 4.06192 14.4001H1.19998C0.538055 14.402 0.00192261 14.9381 0 15.6V20.4C0.00192261 21.0619 0.538055 21.598 1.19998 21.5999H4.06192C4.39316 22.9051 4.91061 24.1562 5.59808 25.3139L3.58209 27.3241C3.35275 27.549 3.22311 27.8564 3.22202 28.1777C3.22092 28.4991 3.34836 28.8073 3.57605 29.0341L6.96011 32.4179C7.18506 32.6472 7.4924 32.7769 7.81375 32.778C8.1351 32.7791 8.44327 32.6516 8.67014 32.424L10.6861 30.4019C11.8438 31.0894 13.0949 31.6068 14.4001 31.9381V34.8C14.402 35.4619 14.9381 35.9981 15.6 36H20.4C21.0619 35.9981 21.598 35.4619 21.5999 34.8V31.9381C22.0367 31.8285 22.467 31.6964 22.89 31.542L22.8928 31.5409L23.4012 32.0496C23.6255 32.2732 23.9293 32.3992 24.246 32.4001H27.0599C27.3757 33.9467 28.8361 34.9843 30.4008 34.7731C31.9653 34.5619 33.0982 33.1743 32.9928 31.5992C32.887 30.024 31.5786 28.8004 30.0001 28.8001ZM30.0001 2.39996C30.9941 2.39996 31.7999 3.20581 31.7999 4.20007C31.7999 5.19406 30.9941 5.99991 30.0001 5.99991C29.0058 5.99991 28.2 5.19406 28.2 4.20007C28.203 3.20718 29.0072 2.40298 30.0001 2.39996ZM30.0001 33.6C29.0058 33.6 28.2 32.7942 28.2 31.7999C28.2 30.8059 29.0058 30.0001 30.0001 30.0001C30.9941 30.0001 31.7999 30.8059 31.7999 31.7999C31.7972 32.7928 30.993 33.597 30.0001 33.6Z" fill="#A7A9AC"/>
</g>
<defs>
<clipPath id="clip0">
<rect width="36" height="36" fill="white"/>
</clipPath>
</defs>
</svg>
