<svg width="37" height="36" viewBox="0 0 37 36" fill="none" xmlns="http://www.w3.org/2000/svg">
<path d="M13.5824 13.0354C16.0732 14.4736 20.1061 14.4736 22.5821 13.0354C25.0656 11.5972 25.0434 9.26202 22.5525 7.82383C20.0616 6.38565 16.0288 6.38565 13.5527 7.82383C11.0767 9.26202 11.0915 11.5898 13.5824 13.0354ZM14.724 10.5445C14.9168 10.4852 15.1021 10.4185 15.2874 10.3592C15.4283 10.3147 15.5098 10.3073 15.5691 10.3369C15.6062 10.3592 15.6284 10.3888 15.6581 10.4407C15.7841 10.678 15.9917 10.8855 16.2512 11.0783C16.2956 11.1153 16.3401 11.145 16.392 11.1747C16.5329 11.2562 16.6885 11.3155 16.8813 11.36C17.3632 11.4638 17.7931 11.2784 17.7412 10.9819C17.7264 10.8781 17.6745 10.7892 17.6078 10.6928C17.4447 10.4481 17.2371 10.2183 17.1259 9.96628C16.948 9.55114 17.0296 9.18047 17.6004 8.88394C18.2528 8.55034 18.9719 8.53551 19.7428 8.73567C20.0542 8.82463 20.0542 8.82463 20.2988 8.68378C20.3804 8.6393 20.4619 8.58741 20.5435 8.54293C20.7288 8.43914 20.7955 8.43914 20.9809 8.54293C21.0402 8.57258 21.0921 8.60964 21.1514 8.6393C21.5369 8.8617 21.5369 8.8617 21.1588 9.09151C20.8845 9.24719 20.8845 9.24719 21.1143 9.43252C21.2922 9.57338 21.4257 9.72164 21.5369 9.88474C21.5962 9.97369 21.5591 10.0404 21.4182 10.0849C21.2033 10.1516 20.9883 10.2257 20.7733 10.2925C20.6398 10.3295 20.5583 10.3369 20.499 10.3073C20.4693 10.2851 20.4397 10.2554 20.41 10.2109C20.2692 9.98111 20.0542 9.78836 19.7651 9.61786C19.728 9.59562 19.6835 9.57338 19.639 9.55114C19.5427 9.50666 19.4537 9.46218 19.3351 9.43252C18.92 9.33615 18.5567 9.49183 18.6086 9.7513C18.6308 9.88474 18.705 10.0033 18.7939 10.122C18.9422 10.3295 19.0979 10.5371 19.2091 10.7521C19.5575 11.4489 18.8013 12.131 17.593 12.1977C17.1556 12.2199 16.7404 12.168 16.3624 12.042C16.1993 11.9901 16.0732 11.9975 15.9398 12.0791C15.8138 12.1606 15.6729 12.2348 15.5469 12.3089C15.4283 12.3756 15.3023 12.383 15.1836 12.3163C15.0947 12.2718 15.0131 12.2199 14.9242 12.1755C14.8649 12.1384 14.8056 12.1087 14.7463 12.0717C14.6202 11.9975 14.6351 11.9234 14.7537 11.8493C14.85 11.79 14.9464 11.7381 15.0354 11.6788C15.2504 11.5527 15.2504 11.5453 15.0724 11.4045C14.85 11.2265 14.6499 11.0412 14.5239 10.8336C14.4423 10.6705 14.4646 10.6335 14.724 10.5445ZM23.3902 13.495C24.0796 13.0947 25.1916 13.0947 25.8811 13.495C26.5705 13.8953 26.5779 14.5403 25.8885 14.9406C25.2065 15.3409 24.087 15.3409 23.3976 14.9406C22.7082 14.5403 22.7007 13.8953 23.3902 13.495ZM10.2538 5.9112C10.9432 5.51088 12.0552 5.51088 12.7521 5.9112C13.4415 6.31152 13.4489 6.95648 12.7595 7.35679C12.0775 7.75711 10.9581 7.75711 10.2686 7.35679C9.57176 6.95648 9.56435 6.31152 10.2538 5.9112ZM0.920423 9.00255L20.588 20.3523C21.7222 21.0121 23.5681 21.0121 24.6949 20.3523L35.2293 14.2289C36.3561 13.5692 36.3561 12.5016 35.2218 11.8493L15.5543 0.492063C14.4201 -0.167722 12.5742 -0.160309 11.4399 0.492063L0.905596 6.62288C-0.221228 7.27525 -0.213814 8.34277 0.920423 9.00255ZM5.19049 6.59322C5.06447 6.51909 4.93103 6.45978 4.79017 6.40048L11.0841 2.74571C11.1805 2.82726 11.2917 2.90139 11.4177 2.97552C12.5667 3.64272 14.4349 3.63531 15.5766 2.97552C15.71 2.90139 15.8212 2.81984 15.9176 2.73088L31.2335 11.575C31.0259 11.6491 30.8406 11.7307 30.6627 11.8344C29.5136 12.5016 29.521 13.5766 30.6775 14.2438C30.8554 14.3476 31.0481 14.4291 31.2557 14.5032L24.9025 18.1951C24.7765 18.0765 24.6282 17.9653 24.4503 17.8615C23.2938 17.1943 21.4331 17.1943 20.2914 17.8615C20.2025 17.9134 20.1283 17.9653 20.0542 18.0246L4.78276 9.20271C4.93103 9.1434 5.07188 9.07668 5.19791 9.00255C6.34697 8.34277 6.33956 7.26042 5.19049 6.59322ZM0.408904 11.271C0.905596 11.0116 1.68399 11.0486 2.16586 11.3303L22.7156 23.1916L33.8281 16.7346C34.31 16.4529 35.0958 16.4529 35.5777 16.7346C36.067 17.0163 36.067 17.4686 35.5851 17.7503L23.7757 24.615C23.1974 24.9486 22.2559 24.9486 21.6777 24.615L21.2626 24.3778L20.9734 24.2073L0.364424 12.3163C-0.132268 12.0198 -0.124855 11.5453 0.408904 11.271ZM35.6073 21.4643L23.7979 28.3291C23.2197 28.6627 22.2782 28.6627 21.7 28.3291L21.2848 28.0918L20.9883 27.9213L0.386664 16.023C-0.117441 15.7338 -0.102615 15.2594 0.431144 14.9777C0.927836 14.7182 1.70623 14.7553 2.1881 15.037L22.7378 26.8983L33.843 20.4487C34.3248 20.167 35.1106 20.167 35.5999 20.4487C36.0818 20.7304 36.0892 21.1826 35.6073 21.4643ZM0.408904 18.6918C0.905596 18.4323 1.68399 18.4694 2.16586 18.7511L22.7156 30.6198L33.8281 24.1554C34.31 23.8737 35.0958 23.8737 35.5777 24.1554C36.067 24.4371 36.067 24.8893 35.5851 25.171L23.7757 32.0357C23.1974 32.3693 22.2559 32.3693 21.6777 32.0357L21.2626 31.7985L20.9734 31.628L0.364424 19.737C-0.132268 19.4479 -0.124855 18.9735 0.408904 18.6918ZM35.6073 28.8851L23.7979 35.7498C23.2197 36.0834 22.2782 36.0834 21.7 35.7498L21.2848 35.5126L20.9883 35.3421L0.386664 23.4437C-0.117441 23.1546 -0.102615 22.6801 0.431144 22.3984C0.927836 22.1389 1.70623 22.176 2.1881 22.4577L22.7378 34.319L33.8504 27.862C34.3322 27.5803 35.1181 27.5803 35.6073 27.862C36.0818 28.1511 36.0892 28.6034 35.6073 28.8851Z" fill="#A7A9AC"/>
</svg>
