<svg width="36" height="36" viewBox="0 0 36 36" fill="none" xmlns="http://www.w3.org/2000/svg">
<path d="M17.9961 12.975C16.7748 12.975 15.7812 12.1622 15.7812 11.1632H13.6719C13.6719 12.9955 15.0652 14.5378 16.9414 14.9659V16.5938H19.0508V14.9659C20.927 14.5378 22.3203 12.9955 22.3203 11.1632C22.3203 9.00113 20.3805 7.24219 17.9961 7.24219C16.7748 7.24219 15.7812 6.42945 15.7812 5.43052C15.7812 4.43159 16.7748 3.61877 17.9961 3.61877C19.2174 3.61877 20.2109 4.43152 20.2109 5.43052H22.3203C22.3203 3.59824 20.927 2.05594 19.0508 1.62788V0H16.9414V1.62788C15.0652 2.05594 13.6719 3.59817 13.6719 5.43052C13.6719 7.59263 15.6117 9.35156 17.9961 9.35156C19.2174 9.35156 20.2109 10.1643 20.2109 11.1632C20.2109 12.1622 19.2174 12.975 17.9961 12.975Z" fill="#A7A9AC"/>
<path d="M35.2201 17.9046C34.2259 16.9518 32.653 16.9687 31.6799 17.9425L25.2413 24.4225H22.4668C21.7412 25.0778 20.78 25.4772 19.7281 25.4772H13.4331V23.3678H19.8547C20.9497 23.3678 21.8375 22.4801 21.8375 21.385C21.8375 20.29 20.9498 19.4022 19.8547 19.4022H10.7788C8.95563 19.4022 7.20766 20.1264 5.91884 21.4167L0 27.3398V36.0002H4.06477L9.81633 30.6178H26.5464L35.2588 21.5242C36.2621 20.5202 36.2445 18.8875 35.2201 17.9046Z" fill="#A7A9AC"/>
</svg>
