<svg width="48" height="48" viewBox="0 0 48 48" fill="none" xmlns="http://www.w3.org/2000/svg">
<path d="M40.9938 38.5986C39.6252 38.5986 38.5117 39.712 38.5117 41.0807C38.5117 42.4492 39.6251 43.5626 40.9938 43.5626C42.3623 43.5626 43.4757 42.4492 43.4757 41.0807C43.4757 39.7121 42.3623 38.5986 40.9938 38.5986ZM40.9937 42.0917C40.4362 42.0917 39.9827 41.6381 39.9827 41.0807C39.9827 40.5232 40.4362 40.0697 40.9937 40.0697C41.5511 40.0697 42.0047 40.5232 42.0047 41.0807C42.0047 41.6381 41.5511 42.0917 40.9937 42.0917Z" fill="#58595B"/>
<path d="M47.6841 40.9519C47.6372 39.1347 46.8681 37.4633 45.5182 36.2458L30.7102 22.8897L43.8032 9.79677C43.8892 9.77109 43.9743 9.73912 44.0563 9.6958L46.8916 8.19937C47.2833 7.99255 47.546 7.62262 47.6121 7.18471C47.6782 6.74671 47.5366 6.31583 47.2234 6.00234L44.031 2.81005C43.7177 2.49683 43.2871 2.35518 42.8487 2.42137C42.4108 2.48746 42.041 2.75015 41.8341 3.14193L40.3375 5.97702C40.2938 6.0598 40.2603 6.1454 40.2345 6.2323L34.0545 12.4123C33.7672 12.6996 33.7672 13.1652 34.0545 13.4526C34.3418 13.7396 34.8074 13.7396 35.0947 13.4526L40.7659 7.78133L42.2521 9.26755L27.749 23.7707L26.2627 22.2845L32.5932 15.9541C32.8805 15.6667 32.8805 15.2012 32.5932 14.9138C32.3059 14.6268 31.8403 14.6268 31.553 14.9138L26.9598 19.507L21.9608 14.9982C23.3781 10.9186 22.3518 6.37968 19.2772 3.30524C16.1281 0.156084 11.4038 -0.84751 7.24152 0.748772C7.00893 0.838022 6.83727 1.03883 6.78552 1.28249C6.73377 1.52615 6.80868 1.77946 6.98483 1.95562L12.7591 7.72996C12.9299 7.90077 13.0241 8.12793 13.0241 8.36952C13.0241 8.61112 12.93 8.83827 12.7591 9.00918L9.00918 12.7591C8.83836 12.93 8.61121 13.0241 8.36961 13.0241C8.12802 13.0241 7.90086 12.9301 7.72996 12.7591L1.95561 6.98474C1.77936 6.80858 1.52624 6.73368 1.28249 6.78543C1.03883 6.83727 0.838019 7.00883 0.748769 7.24143C-0.847513 11.4036 0.156081 16.1278 3.30533 19.2771C6.30449 22.2762 10.7555 23.3321 14.7709 22.0347L18.6359 26.2612C18.4502 26.6242 18.2087 26.9626 17.9108 27.2604C16.7967 28.3746 15.1269 28.7256 13.6565 28.1548C13.3847 28.0491 13.0763 28.1141 12.8701 28.3203L3.86455 37.3258C1.42668 39.7638 1.42668 43.7305 3.86455 46.1683C5.04571 47.3497 6.61593 48 8.28608 48C9.95615 48 11.5265 47.3497 12.7074 46.1687L21.713 37.1632C21.919 36.9571 21.984 36.6487 21.8784 36.3769C21.3076 34.9065 21.6586 33.2365 22.7726 32.1224C23.8869 31.0083 25.5568 30.6573 27.0272 31.228C27.2992 31.3338 27.6073 31.2685 27.8136 31.0626L29.5123 29.3638C30.0238 28.8523 30.3054 28.1722 30.3054 27.4489C30.3054 26.7256 30.0238 26.0454 29.5123 25.5339L28.7892 24.8108L29.6689 23.9312L44.5331 37.3381C45.5805 38.2828 46.1774 39.5797 46.2137 40.9897C46.25 42.3997 45.7207 43.7257 44.7232 44.723C43.7306 45.7158 42.4081 46.2442 41.0074 46.2139C39.6038 46.1826 38.3092 45.5947 37.3618 44.5587L26.3097 32.4729C26.0353 32.173 25.5703 32.1524 25.2706 32.4265C24.9709 32.7007 24.9501 33.1659 25.2242 33.4657L36.2762 45.5514C37.4972 46.8865 39.1657 47.644 40.9745 47.6844C41.0251 47.6856 41.0756 47.6861 41.1261 47.6861C42.8782 47.6861 44.5198 47.0065 45.7634 45.7631C47.0487 44.4777 47.7307 42.769 47.6841 40.9519ZM41.6696 6.60468L43.0777 3.93712L46.0963 6.95577L43.4287 8.3638L41.6696 6.60468ZM15.5298 20.6849C15.3273 20.4636 15.011 20.3873 14.7299 20.4921C11.1334 21.8337 7.05693 20.9485 4.34539 18.2373C1.88333 15.7751 0.929331 12.2057 1.76999 8.87962L6.68971 13.7993C7.13849 14.248 7.73502 14.4951 8.36952 14.4951C9.00402 14.4951 9.60055 14.248 10.0492 13.7993L13.7991 10.0494C14.2478 9.60065 14.4949 9.00412 14.4949 8.36962C14.4949 7.73512 14.2478 7.13859 13.7991 6.6899L8.87952 1.76999C12.2053 0.928959 15.7751 1.88324 18.2371 4.3454C21.0176 7.12574 21.8721 11.2832 20.4141 14.9371C20.3001 15.2229 20.376 15.5496 20.6046 15.7558L25.9183 20.5485L25.2225 21.2443L24.4994 20.5212C23.9879 20.0097 23.3077 19.7281 22.5845 19.7281C21.8612 19.7281 21.181 20.0097 20.6695 20.5212L18.9708 22.22C18.7647 22.4261 18.6997 22.7346 18.8053 23.0063C19.001 23.5102 19.0858 24.0373 19.0713 24.5577L15.5298 20.6849ZM28.472 28.3237L27.0955 29.7002C25.2025 29.1545 23.1426 29.6722 21.7326 31.0822H21.7325C20.3225 32.4922 19.8047 34.5518 20.3506 36.4452L11.6673 45.1283C10.7641 46.0315 9.56333 46.529 8.28618 46.529C7.00902 46.529 5.80808 46.0315 4.90508 45.1283C3.04068 43.264 3.04068 40.2305 4.90508 38.3661L13.5883 29.6828C15.4815 30.2288 17.5411 29.7108 18.9513 28.3008C20.3613 26.8907 20.8791 24.8311 20.3332 22.9378L21.7098 21.5614C22.192 21.0789 22.977 21.0789 23.4592 21.5614L24.7025 22.8046L27.2287 25.3309L28.472 26.5741C28.9544 27.0565 28.9544 27.8414 28.472 28.3237Z" fill="#58595B"/>
<path d="M15.0628 32.461C14.7755 32.1738 14.3099 32.1738 14.0226 32.461L7.05528 39.4283C6.76803 39.7156 6.76803 40.1812 7.05528 40.4685C7.19891 40.6121 7.38725 40.6839 7.57541 40.6839C7.76356 40.6839 7.95191 40.6121 8.09553 40.4685L15.0628 33.5012C15.35 33.2139 15.35 32.7482 15.0628 32.461Z" fill="#58595B"/>
<path d="M17.6371 35.0349C17.3498 34.7478 16.8842 34.7478 16.5968 35.0349L9.6295 42.0022C9.34225 42.2895 9.34225 42.7551 9.6295 43.0424C9.77313 43.1859 9.96137 43.2578 10.1496 43.2578C10.3378 43.2578 10.5261 43.1859 10.6698 43.0424L17.6371 36.0752C17.9243 35.7879 17.9243 35.3223 17.6371 35.0349Z" fill="#58595B"/>
</svg>
