<svg width="37" height="36" viewBox="0 0 37 36" fill="none" xmlns="http://www.w3.org/2000/svg">
<path d="M23.7693 24.1241C23.8532 23.243 23.8278 22.3652 23.7005 21.5082L25.6815 20.6252C25.4944 19.6656 25.2001 18.7189 24.792 17.8028C24.384 16.8873 23.8772 16.0355 23.2898 15.2539L21.3075 16.1362C20.7559 15.4689 20.1204 14.8634 19.4096 14.3358L20.1867 12.3112C19.3752 11.7654 18.498 11.3041 17.5618 10.9448C16.6294 10.5868 15.6717 10.3392 14.6977 10.2021L13.92 12.2287C13.0389 12.1449 12.1611 12.1702 11.3041 12.2976L10.4263 10.3262C8.46543 10.7115 6.63317 11.5432 5.06015 12.7316L5.9321 14.6899C5.26352 15.2415 4.65797 15.8776 4.13038 16.5878L2.111 15.8133C1.56002 16.6229 1.09806 17.5006 0.738102 18.4363C0.381396 19.3719 0.137095 20.3322 0 21.2997L2.02458 22.0767C1.94077 22.9578 1.96611 23.8356 2.09345 24.6926L0.112405 25.5749C0.299529 26.5352 0.59386 27.4813 1.0019 28.3974C1.41058 29.3135 1.91673 30.1647 2.50474 30.9463L4.48579 30.064C5.03741 30.7319 5.67286 31.3375 6.38432 31.865L5.60723 33.8909C6.41876 34.4374 7.2959 34.898 8.23217 35.2573C9.16455 35.6153 10.1223 35.8629 11.0962 36L11.874 33.9734C12.755 34.0566 13.6328 34.0313 14.4898 33.9039L15.3676 35.8746C17.3285 35.4893 19.1621 34.6576 20.7344 33.4692L19.8618 31.5109C20.5298 30.9593 21.136 30.3239 21.6635 29.6131L23.6816 30.3875C24.2326 29.578 24.6946 28.7002 25.0545 27.7652C25.4138 26.8296 25.6575 25.8686 25.7946 24.9005L23.7693 24.1241ZM18.3876 25.2072C17.2239 28.2402 13.8225 29.754 10.7889 28.5904C7.75916 27.4273 6.24333 24.0266 7.40636 20.9943C8.57004 17.962 11.9714 16.4481 15.0031 17.6105C18.0354 18.7735 19.5506 22.1755 18.3876 25.2072Z" fill="#A7A9AC"/>
<path d="M34.7382 7.97943C34.7382 7.58698 34.6979 7.20299 34.629 6.83004L36.1474 5.95289C35.7797 4.55466 35.0494 3.30262 34.0507 2.31371L32.5284 3.19281C31.9475 2.69511 31.2744 2.30527 30.5382 2.04537V0.289133C29.8677 0.105257 29.1654 0 28.4383 0C27.7112 0 27.0095 0.106557 26.3383 0.289133V2.04602C25.6022 2.30592 24.9297 2.69641 24.3482 3.19346L22.8252 2.31436C21.8279 3.30327 21.0969 4.55531 20.7285 5.95354L22.2476 6.83069C22.1787 7.20429 22.1378 7.58698 22.1378 7.98007C22.1378 8.37317 22.1787 8.75651 22.2476 9.12946L20.7285 10.0066C21.0969 11.4048 21.8279 12.6575 22.8252 13.6458L24.3476 12.7667C24.9291 13.2644 25.6015 13.6542 26.3377 13.9141V15.671C27.0089 15.8542 27.7106 15.9601 28.4377 15.9601C29.1647 15.9601 29.8677 15.8536 30.5376 15.671V13.9141C31.2738 13.6542 31.9469 13.2637 32.5277 12.7667L34.0501 13.6458C35.0487 12.6569 35.779 11.4048 36.1468 10.0066L34.6283 9.12946C34.6979 8.75521 34.7382 8.37252 34.7382 7.97943ZM28.4389 10.9201C26.8146 10.9201 25.4976 9.60377 25.4976 7.98007C25.4976 6.35638 26.8146 5.03936 28.4389 5.03936C30.0613 5.03936 31.3784 6.35573 31.3784 7.97943C31.3784 9.60312 30.0613 10.9201 28.4389 10.9201Z" fill="#A7A9AC"/>
</svg>
