<svg width="34" height="36" viewBox="0 0 34 36" fill="none" xmlns="http://www.w3.org/2000/svg">
<path d="M24.4121 18.7903L23.7938 8.20703H18.8031V12.9593H16.6938V8.20703H8.56957V12.9593H6.46019V8.20703H1.46941L0.360933 27.1825C0.27466 28.66 0.786394 30.0666 1.80192 31.1431C2.81744 32.2197 4.19177 32.8125 5.67171 32.8125H17.3725C16.6897 31.4832 16.3042 29.9773 16.3042 28.3829C16.3042 23.5707 19.8165 19.564 24.4121 18.7903Z" fill="#A7A9AC"/>
<path d="M8.56836 6.1714C8.56836 3.93159 10.3906 2.10938 12.6304 2.10938C14.8702 2.10938 16.6925 3.93159 16.6925 6.1714V8.20687H18.8019V6.1714C18.8019 2.76848 16.0334 0 12.6304 0C9.2274 0 6.45898 2.76848 6.45898 6.1714V8.20687H8.56836V6.1714Z" fill="#A7A9AC"/>
<path d="M33.6518 28.3828C33.6518 24.1817 30.2339 20.7639 26.0329 20.7639C21.8319 20.7639 18.4141 24.1817 18.4141 28.3828C18.4141 32.5838 21.8319 36.0015 26.0329 36.0015C30.2339 36.0015 33.6518 32.5838 33.6518 28.3828ZM24.8922 32.1142L21.4663 28.2394L23.0465 26.8422L24.9603 29.0067L28.9237 24.9013L30.4412 26.3663L24.8922 32.1142Z" fill="#A7A9AC"/>
</svg>
