<svg width="44" height="44" viewBox="0 0 44 44" fill="none" xmlns="http://www.w3.org/2000/svg">
<path d="M44 25.6356V18.3645L38.0353 17.19C37.7092 16.1061 37.2762 15.0612 36.7373 14.0668L40.0657 9.07414L34.9258 3.93422L29.9331 7.26258C28.9387 6.72375 27.8939 6.29071 26.8099 5.96466L25.6356 0H18.3645L17.19 5.96475C16.1061 6.2908 15.0612 6.72384 14.0668 7.26266L9.07414 3.93422L3.93422 9.07414L7.26258 14.0668C6.72375 15.0612 6.29071 16.1061 5.96466 17.19L0 18.3644V25.6355L5.96475 26.81C6.2908 27.8939 6.72384 28.9388 7.26266 29.9332L3.93422 34.9259L9.07414 40.0658L14.0668 36.7374C15.0612 37.2762 16.1061 37.7093 17.19 38.0353L18.3644 44H25.6355L26.81 38.0353C27.8939 37.7092 28.9388 37.2762 29.9332 36.7373L34.9259 40.0657L40.0658 34.9258L36.7374 29.9331C37.2762 28.9387 37.7093 27.8939 38.0353 26.8099L44 25.6356ZM22 31.0234C17.025 31.0234 12.9766 26.975 12.9766 22C12.9766 17.025 17.025 12.9766 22 12.9766C26.975 12.9766 31.0234 17.025 31.0234 22C31.0234 26.975 26.975 31.0234 22 31.0234Z" fill="#58595B"/>
</svg>
