<svg width="34" height="34" viewBox="0 0 34 34" fill="none" xmlns="http://www.w3.org/2000/svg">
<path d="M22.0104 23.1343V33.7515H17.4401V23.7671C17.4401 23.4565 17.1883 23.2046 16.8776 23.2046C16.567 23.2046 16.3151 23.4565 16.3151 23.7671V33.7515H11.7448V23.1343C11.7448 22.2038 12.5018 21.4468 13.4323 21.4468H20.3229C21.2534 21.4468 22.0104 22.2038 22.0104 23.1343ZM31.2913 17.8278C29.3409 18.6267 27.0639 18.3031 25.4007 16.8995C25.1879 16.72 24.8802 16.7195 24.6675 16.8992C22.5258 18.7078 19.3885 18.7086 17.2459 16.9009C17.0322 16.7205 16.7231 16.7205 16.5094 16.9009C14.3658 18.7094 11.2267 18.7073 9.08657 16.8984C8.87373 16.7185 8.5659 16.7188 8.353 16.8986C6.68919 18.3036 4.41205 18.6271 2.46454 17.8278C2.09505 17.6761 1.69019 17.9489 1.69019 18.3483V30.939C1.69019 32.4923 2.94941 33.7515 4.50269 33.7515H10.6199V23.1343C10.6199 21.5835 11.8816 20.3218 13.4324 20.3218H20.323C21.8738 20.3218 23.1355 21.5835 23.1355 23.1343V33.7515H29.2527C30.806 33.7515 32.0652 32.4923 32.0652 30.939V18.3485C32.0651 17.9494 31.6607 17.6766 31.2913 17.8278ZM4.22137 9.56397C3.89828 9.56397 3.6389 9.29165 3.66006 8.96406C3.6794 8.66509 3.94103 8.43897 4.24063 8.43897H32.7026C33.1074 8.43897 33.3797 8.02426 33.2187 7.6528L30.05 0.340371C29.9607 0.134355 29.7582 0.00146484 29.5339 0.00146484H4.22137C3.99707 0.00146484 3.79457 0.134355 3.70527 0.340371L0.0490223 8.77787C-0.0165793 8.92693 0.00261604 8.70039 0.00261604 12.4911C0.00683479 15.0497 2.08879 17.131 4.64324 17.131C6.23863 17.131 7.64952 16.3195 8.48498 15.0867C8.59846 14.9192 8.84139 14.9192 8.95487 15.0868C10.8021 17.8135 14.7979 17.8075 16.6428 15.0888C16.7563 14.9215 16.999 14.9215 17.1125 15.0888C18.9588 17.8097 22.9518 17.8111 24.7991 15.0887C24.911 14.9238 25.1533 14.9181 25.2648 15.0831C26.1102 16.3328 27.5482 17.1512 29.172 17.1306C31.7232 17.0982 33.7526 14.9706 33.7526 12.4191V10.1264C33.7526 9.81576 33.5008 9.5639 33.1901 9.5639H4.22137V9.56397Z" fill="#A7A9AC"/>
</svg>
