<svg width="44" height="44" viewBox="0 0 44 44" fill="none" xmlns="http://www.w3.org/2000/svg">
<path d="M29.768 14.2267C29.1459 13.6045 28.3168 13.262 27.4336 13.2627C25.6439 13.2637 24.1343 14.6985 24.1348 16.5604C24.135 17.4437 24.4777 18.2729 25.0997 18.8948C26.3869 20.182 28.4792 20.1839 29.7638 18.8992C31.0532 17.6098 31.0551 15.5137 29.768 14.2267Z" fill="#58595B"/>
<path d="M43.9955 0.0078125L42.7062 0.00901562C33.4816 0.0177812 24.4438 3.90035 17.9074 10.6628L5.0957 23.4744L20.5205 38.899L33.3314 26.0881C36.5548 22.9813 39.2262 19.1502 41.0574 15.0087C44.5283 7.15867 43.9199 0.813734 43.9955 0.0078125ZM23.2802 20.7145C20.9869 18.421 20.9875 14.699 23.2759 12.4108C25.57 10.1166 29.2923 10.1108 31.5881 12.4066C33.8786 14.697 33.8768 18.4261 31.584 20.7189C29.296 23.0068 25.571 23.0048 23.2802 20.7145Z" fill="#58595B"/>
<path d="M0.0546875 42.1118L6.7522 35.4143L8.57184 37.2339L1.87432 43.9315L0.0546875 42.1118Z" fill="#58595B"/>
<path d="M8.05664 41.4888L10.4559 39.0895L12.2755 40.9091L9.87622 43.3083L8.05664 41.4888Z" fill="#58595B"/>
<path d="M0.677734 34.1113L3.0626 31.7265L4.88205 33.5459L2.49719 35.9308L0.677734 34.1113Z" fill="#58595B"/>
<path d="M33.484 30.8919L32.8256 30.2334L22.3398 40.7192L25.6085 43.988L31.4182 38.1782L33.484 30.8919Z" fill="#58595B"/>
<path d="M5.81023 12.5687L0 18.379L3.27551 21.6548L13.7615 11.1687L13.1031 10.5103L5.81023 12.5687Z" fill="#58595B"/>
<path d="M2.99609 28.7065L15.2884 40.9989L17.8077 39.8259L4.16905 26.1875L2.99609 28.7065Z" fill="#58595B"/>
</svg>
