<svg width="44" height="38" viewBox="0 0 44 38" fill="none" xmlns="http://www.w3.org/2000/svg">
<path d="M26.5521 7.05899C28.5865 8.33456 30.0131 10.4931 30.2729 12.9987C31.1026 13.3864 32.0234 13.6093 32.9997 13.6093C36.564 13.6093 39.4528 10.7204 39.4528 7.15673C39.4528 3.59247 36.564 0.703613 32.9997 0.703613C29.4695 0.704711 26.6059 3.54195 26.5521 7.05899ZM22.3245 20.2716C25.8888 20.2716 28.7776 17.3822 28.7776 13.8185C28.7776 10.2548 25.8882 7.36594 22.3245 7.36594C18.7608 7.36594 15.8703 10.2553 15.8703 13.8191C15.8703 17.3828 18.7608 20.2716 22.3245 20.2716ZM25.0618 20.7115H19.5861C15.0302 20.7115 11.3237 24.4185 11.3237 28.9744V35.6708L11.3407 35.7757L11.802 35.9201C16.1498 37.2786 19.9271 37.7316 23.0362 37.7316C29.1087 37.7316 32.6285 36.0003 32.8454 35.8899L33.2765 35.6719H33.3226V28.9744C33.3242 24.4185 29.6178 20.7115 25.0618 20.7115ZM35.7381 14.0497H30.3047C30.246 16.2236 29.318 18.1812 27.8502 19.5891C31.8999 20.7933 34.8629 24.5486 34.8629 28.9843V31.0479C40.2276 30.8513 43.3191 29.3308 43.5228 29.2287L43.9539 29.0101H44V22.3116C44 17.7562 40.2935 14.0497 35.7381 14.0497ZM11.0014 13.6104C12.2638 13.6104 13.4383 13.2419 14.4333 12.6143C14.7496 10.5513 15.8555 8.74859 17.4353 7.52079C17.4419 7.39998 17.4534 7.28028 17.4534 7.15838C17.4534 3.59412 14.564 0.70526 11.0014 0.70526C7.43657 0.70526 4.54826 3.59412 4.54826 7.15838C4.54826 10.721 7.43657 13.6104 11.0014 13.6104ZM16.7967 19.5891C15.336 18.1883 14.4113 16.2412 14.3438 14.0804C14.1423 14.0656 13.9429 14.0497 13.7376 14.0497H8.26242C3.70648 14.0497 0 17.7562 0 22.3116V29.009L0.0170223 29.1123L0.478273 29.2578C3.96621 30.3466 7.0791 30.8485 9.7829 31.0067V28.9843C9.784 24.5486 12.7459 20.7944 16.7967 19.5891Z" fill="#58595B"/>
</svg>
