<svg width="28" height="36" viewBox="0 0 28 36" fill="none" xmlns="http://www.w3.org/2000/svg">
<path d="M26.8056 0.924901C26.2583 0.672764 25.6135 0.770878 25.1659 1.17423L22.804 3.26545C22.7398 3.32263 22.6429 3.32229 22.579 3.26477L19.3654 0.390588C18.7842 -0.130196 17.9043 -0.130196 17.3231 0.390588L14.1125 3.26213C14.0479 3.31982 13.9503 3.31982 13.8857 3.26213L10.6747 0.390588C10.0935 -0.130111 9.21363 -0.130111 8.63243 0.390588L5.41846 3.26477C5.35413 3.32229 5.25695 3.32255 5.19228 3.26536L2.82833 1.17423C2.20118 0.616516 1.24062 0.672764 0.682908 1.29992C0.432813 1.58116 0.29598 1.94519 0.298873 2.32149V33.6786C0.293257 34.5192 0.970105 35.2051 1.81068 35.2107C2.18722 35.2133 2.55126 35.0761 2.83259 34.8259L5.19441 32.7346C5.25865 32.6775 5.35558 32.6778 5.41948 32.7353L8.63302 35.6095C9.21422 36.1303 10.0941 36.1303 10.6753 35.6095L13.8863 32.738C13.9509 32.6803 14.0485 32.6803 14.1131 32.738L17.3241 35.6094C17.9053 36.1299 18.7852 36.1299 19.3664 35.6094L22.5805 32.7352C22.6448 32.6777 22.742 32.6775 22.8067 32.7346L25.1706 34.8258C25.798 35.3832 26.7585 35.3266 27.316 34.6991C27.5656 34.4182 27.7023 34.0546 27.6996 33.6786V2.32149C27.7076 1.7191 27.356 1.16981 26.8056 0.924901ZM5.93278 12.2136H14.4071C14.783 12.2136 15.0878 12.5184 15.0878 12.8943C15.0878 13.2703 14.783 13.5751 14.4071 13.5751H5.93278C5.55683 13.5751 5.25202 13.2703 5.25202 12.8943C5.25202 12.5184 5.55683 12.2136 5.93278 12.2136ZM22.0657 23.7865H5.93278C5.55683 23.7865 5.25202 23.4817 5.25202 23.1058C5.25202 22.7298 5.55683 22.425 5.93278 22.425H22.0657C22.4416 22.425 22.7464 22.7298 22.7464 23.1058C22.7464 23.4817 22.4416 23.7865 22.0657 23.7865ZM22.0657 18.6808H5.93278C5.55683 18.6808 5.25202 18.376 5.25202 18C5.25202 17.6241 5.55683 17.3193 5.93278 17.3193H22.0657C22.4416 17.3193 22.7464 17.6241 22.7464 18C22.7464 18.376 22.4416 18.6808 22.0657 18.6808Z" fill="#A7A9AC"/>
</svg>
