<svg width="56" height="56" viewBox="0 0 56 56" fill="none" xmlns="http://www.w3.org/2000/svg">
<path d="M13.6502 28.3039C13.6502 28.3039 23.6637 18.3365 23.6637 10.0153C23.6637 4.48312 19.1806 0 13.6502 0C8.11984 0 3.63672 4.48312 3.63672 10.0153C3.63672 18.8078 13.6502 28.3039 13.6502 28.3039ZM8.43171 10.0153C8.43171 7.13046 10.769 4.79499 13.6502 4.79499C16.5314 4.79499 18.8687 7.13046 18.8687 10.0153C18.8687 12.8965 16.5314 15.232 13.6502 15.232C10.769 15.232 8.43171 12.8965 8.43171 10.0153Z" fill="#58595B"/>
<path d="M50.662 13.5433L49.8487 13.802L45.4985 14.1901L44.2722 16.1499L43.3845 15.8664L39.9238 12.7477L39.4188 11.1263L38.7507 9.39512L36.573 7.44239L34.0107 6.94092L33.9504 8.11574L36.4631 10.5682L37.6929 12.0159L36.3072 12.7388L35.1802 12.4057L33.495 11.704L33.5535 10.3414L31.3385 9.43055L30.6032 12.6272L28.374 13.134L28.5955 14.9184L31.498 15.4783L32.0013 12.6272L34.3988 12.9834L35.5133 13.6355H37.3048L38.5275 16.0879L41.7755 19.382L41.5381 20.6632L38.9191 20.3283L34.3952 22.6123L31.1383 26.5196L30.7148 28.249H29.5435L27.3657 27.2461L25.25 28.249L25.7763 30.4835L26.6977 29.4168L28.3155 29.3689L28.2021 31.3748L29.5435 31.7646L30.8831 33.2708L33.0698 32.6559L35.5683 33.0493L38.4672 33.8308L39.9185 33.9991L42.3709 36.7864L47.111 39.5755L44.0472 45.4337L40.8116 46.9381L39.5836 50.2854L34.9002 53.413L34.4005 55.2186C46.3667 52.3356 55.2727 41.5867 55.2727 28.7275C55.2763 23.1032 53.5752 17.8794 50.662 13.5433Z" fill="#58595B"/>
<path d="M31.1391 42.9758L29.1545 39.2937L30.9761 35.491L29.1545 34.9399L27.1061 32.8862L22.5698 31.8708L21.0636 28.7185V30.5915H20.3991L17.5197 26.6878C16.1145 28.3694 15.0477 29.4432 14.9148 29.5743L13.6798 30.8041L12.4163 29.6045C12.0921 29.2926 6.28882 23.7303 3.41998 16.9702C1.70824 20.5301 0.726562 24.5047 0.726562 28.7185C0.726562 43.7839 12.9373 55.9999 28.0027 55.9999C29.1616 55.9999 30.2992 55.8989 31.4244 55.7607L31.1391 52.4577C31.1391 52.4577 32.3919 47.5493 32.3919 47.3845C32.3919 47.2162 31.1391 42.9758 31.1391 42.9758Z" fill="#58595B"/>
<path d="M25.8456 6.677L27.8532 7.00836L32.7262 6.55119L34.0658 5.07336L35.9583 3.80816L38.6375 4.21217L39.6139 4.0651C36.0858 2.40475 32.1591 1.44434 28.0021 1.44434C26.06 1.44434 24.1746 1.67115 22.3477 2.05567C23.767 3.60616 24.7877 5.52521 25.2218 7.66045L25.8456 6.677ZM29.1538 4.15193L31.9412 2.61916L33.7291 3.65046L31.1385 5.62267L28.6683 5.87252L27.5537 5.15133L29.1538 4.15193Z" fill="#58595B"/>
</svg>
