<svg width="14" height="14" viewBox="0 0 14 14" fill="none" xmlns="http://www.w3.org/2000/svg">
<path d="M3.18871 7.24526C3.31802 7.11629 3.49319 7.04386 3.67582 7.04386C3.85845 7.04386 4.03362 7.11629 4.16293 7.24526C4.22681 7.30905 4.27749 7.38482 4.31207 7.46822C4.34664 7.55162 4.36444 7.64102 4.36444 7.7313C4.36444 7.82158 4.34664 7.91098 4.31207 7.99438C4.27749 8.07778 4.22681 8.15355 4.16293 8.21734L2.7016 9.67654C2.57373 9.80416 2.47229 9.95573 2.40307 10.1226C2.33385 10.2895 2.29823 10.4683 2.29823 10.649C2.29823 10.8296 2.33385 11.0085 2.40307 11.1754C2.47229 11.3422 2.57373 11.4938 2.7016 11.6214C2.96021 11.8794 3.31056 12.0242 3.67582 12.0242C4.04108 12.0242 4.39143 11.8794 4.65004 11.6214L8.05911 8.21734C8.12299 8.15355 8.17367 8.07778 8.20824 7.99438C8.24282 7.91098 8.26062 7.82158 8.26062 7.7313C8.26062 7.64102 8.24282 7.55162 8.20824 7.46822C8.17367 7.38482 8.12299 7.30905 8.05911 7.24526C7.99512 7.18144 7.94435 7.10563 7.90971 7.02217C7.87507 6.9387 7.85724 6.84922 7.85724 6.75886C7.85724 6.66849 7.87507 6.57901 7.90971 6.49554C7.94435 6.41208 7.99512 6.33627 8.05911 6.27246C8.18841 6.14349 8.36359 6.07106 8.54622 6.07106C8.72885 6.07106 8.90402 6.14349 9.03333 6.27246C9.22519 6.46388 9.3774 6.69127 9.48125 6.9416C9.58511 7.19193 9.63857 7.46028 9.63857 7.7313C9.63857 8.00232 9.58511 8.27068 9.48125 8.52101C9.3774 8.77133 9.22519 8.99872 9.03333 9.19014L5.62355 12.5942C5.10642 13.1103 4.40568 13.4001 3.67511 13.4001C2.94453 13.4001 2.2438 13.1103 1.72666 12.5942C1.47093 12.339 1.26804 12.0359 1.12961 11.7021C0.991177 11.3684 0.919922 11.0106 0.919922 10.6493C0.919922 10.288 0.991177 9.93029 1.12961 9.59656C1.26804 9.26283 1.47093 8.95968 1.72666 8.70446L3.18871 7.24454V7.24526ZM11.4518 6.75459C11.3225 6.88356 11.1473 6.95599 10.9647 6.95599C10.7821 6.95599 10.6069 6.88356 10.4776 6.75459C10.4137 6.69079 10.363 6.61502 10.3285 6.53162C10.2939 6.44823 10.2761 6.35883 10.2761 6.26854C10.2761 6.17826 10.2939 6.08886 10.3285 6.00546C10.363 5.92206 10.4137 5.8463 10.4776 5.7825L11.9389 4.3233C12.0668 4.19569 12.1682 4.04411 12.2375 3.87725C12.3067 3.71038 12.3423 3.53151 12.3423 3.35086C12.3423 3.17021 12.3067 2.99133 12.2375 2.82446C12.1682 2.6576 12.0668 2.50602 11.9389 2.37841C11.6803 2.12047 11.33 1.97562 10.9647 1.97562C10.5995 1.97562 10.2491 2.12047 9.99049 2.37841L6.58213 5.7825C6.51825 5.8463 6.46757 5.92206 6.433 6.00546C6.39842 6.08886 6.38062 6.17826 6.38062 6.26854C6.38062 6.35883 6.39842 6.44823 6.433 6.53162C6.46757 6.61502 6.51825 6.69079 6.58213 6.75459C6.64612 6.8184 6.69689 6.89421 6.73152 6.97768C6.76616 7.06114 6.78399 7.15062 6.78399 7.24099C6.78399 7.33136 6.76616 7.42084 6.73152 7.5043C6.69689 7.58777 6.64612 7.66358 6.58213 7.72739C6.45282 7.85636 6.27765 7.92879 6.09502 7.92879C5.91239 7.92879 5.73722 7.85636 5.60791 7.72739C5.41605 7.53597 5.26384 7.30858 5.15999 7.05825C5.05613 6.80792 5.00267 6.53956 5.00267 6.26854C5.00267 5.99753 5.05613 5.72917 5.15999 5.47884C5.26384 5.22851 5.41605 5.00112 5.60791 4.8097L9.01769 1.40561C9.53482 0.889557 10.2356 0.599731 10.9661 0.599731C11.6967 0.599731 12.3974 0.889557 12.9146 1.40561C13.1703 1.66083 13.3732 1.96399 13.5116 2.29771C13.6501 2.63144 13.7213 2.9892 13.7213 3.3505C13.7213 3.7118 13.6501 4.06956 13.5116 4.40329C13.3732 4.73701 13.1703 5.04017 12.9146 5.29539L11.4518 6.7553V6.75459Z" fill="#757575"/>
</svg>
