<svg width="16" height="16" viewBox="0 0 16 16" fill="none" xmlns="http://www.w3.org/2000/svg">
<path fill-rule="evenodd" clip-rule="evenodd" d="M7.33333 2.75C4.80203 2.75 2.75 4.80203 2.75 7.33333C2.75 9.86464 4.80203 11.9167 7.33333 11.9167C9.86464 11.9167 11.9167 9.86464 11.9167 7.33333C11.9167 4.80203 9.86464 2.75 7.33333 2.75ZM1.25 7.33333C1.25 3.9736 3.9736 1.25 7.33333 1.25C10.6931 1.25 13.4167 3.9736 13.4167 7.33333C13.4167 10.6931 10.6931 13.4167 7.33333 13.4167C3.9736 13.4167 1.25 10.6931 1.25 7.33333Z" fill="#4F4F4F"/>
<path fill-rule="evenodd" clip-rule="evenodd" d="M10.5697 10.5693C10.8626 10.2764 11.3375 10.2764 11.6304 10.5693L14.5304 13.4693C14.8233 13.7622 14.8233 14.237 14.5304 14.5299C14.2375 14.8228 13.7626 14.8228 13.4697 14.5299L10.5697 11.6299C10.2768 11.337 10.2768 10.8622 10.5697 10.5693Z" fill="#4F4F4F"/>
</svg>
