<!-- Generated by IcoMoon.io -->
<svg version="1.1" xmlns="http://www.w3.org/2000/svg" width="32" height="32" viewBox="0 0 32 32">
<title>Twitter</title>
<path d="M32 6.001c-1.2 0.6-2.4 0.8-3.8 1 1.4-0.8 2.4-2 2.8-3.6-1.2 0.8-2.6 1.2-4.2 1.6-1.2-1.2-3-2-4.8-2-3.4 0-6.4 3-6.4 6.6 0 0.6 0 1 0.2 1.4-5.4-0.2-10.4-2.8-13.6-6.8-0.6 1-0.8 2-0.8 3.4 0 2.2 1.2 4.2 3 5.4-1 0-2-0.4-3-0.8 0 3.2 2.2 5.8 5.2 6.4-0.6 0.2-1.2 0.2-1.8 0.2-0.4 0-0.8 0-1.2-0.2 0.8 2.6 3.2 4.6 6.2 4.6-2.2 1.8-5 2.8-8.2 2.8h-1.6c3 1.8 6.4 3 10 3 12 0 18.6-10 18.6-18.6v-0.8c1.4-1 2.6-2.2 3.4-3.6z"></path>
</svg>
