<svg width="226" height="147" viewBox="0 0 226 147" fill="none" xmlns="http://www.w3.org/2000/svg">
<path d="M222.085 34.6415L218.576 51.651L216.286 49.4515L212.408 52.2009L209.454 48.535L202.806 53.3373L197.155 43.9161L190.839 47.5819L188.327 44.1727L180.276 48.645L177.875 43.5128L183.489 16.459L213.701 22.6542L222.085 34.6415Z" fill="#EBEBEB"/>
<path d="M213.701 22.6543L222.085 34.6416L211.633 32.5154L213.701 22.6543Z" fill="#DBDBDB"/>
<path d="M217.801 55.0244L212.63 79.952L171.966 71.6306L177.137 46.9229L179.537 52.055L187.589 47.546L190.064 50.9919L196.416 47.3261L202.067 56.7106L208.715 51.945L211.67 55.5742L215.548 52.8248L217.801 55.0244Z" fill="#EBEBEB"/>
<path d="M159.629 52.1282L118.226 54.6576L114.939 1.90623L145.668 0L156.97 9.38454L159.629 52.1282Z" fill="#EBEBEB"/>
<path d="M145.668 0L156.97 9.38454L146.296 10.0444L145.668 0Z" fill="#DBDBDB"/>
<path d="M134.182 35.5218L134.034 34.3488C133.628 31.8927 134.292 29.1066 136.472 26.2473C138.429 23.6812 139.463 21.8483 139.352 19.7587C139.205 17.4126 137.653 15.9463 134.736 16.0562C133.074 16.1662 131.264 16.7894 130.119 17.7425L128.826 14.9198C130.304 13.7468 132.889 12.867 135.364 12.7203C140.682 12.4271 143.267 15.543 143.489 19.0622C143.674 22.1782 142.049 24.5243 139.943 27.2737C138.023 29.7665 137.395 31.856 137.69 34.1655L137.801 35.3752L134.182 35.5218ZM133.554 42.0104C133.443 40.3241 134.551 39.041 136.176 38.9677C137.801 38.8944 138.983 39.9942 139.057 41.7171C139.131 43.3301 138.171 44.6131 136.435 44.7231C134.81 44.7964 133.628 43.6233 133.554 42.0104Z" fill="#DBDBDB"/>
<path d="M30.6183 26.5405L26.4447 24.6709L25.8538 25.9173C25.6691 26.2839 25.2998 26.5405 24.8935 26.5405C24.6719 26.5405 24.4503 26.5771 24.2287 26.6138C23.8224 26.6871 23.4161 26.5038 23.1945 26.1739L22.382 25.0375L18.6516 27.6769L19.4642 28.8133C19.6858 29.1432 19.7227 29.5831 19.538 29.9497C19.4272 30.1697 19.3534 30.3529 19.2426 30.5729C19.0948 30.9395 18.7624 31.2327 18.3561 31.2694L16.9526 31.416L17.3958 35.925L18.7993 35.7784C19.2056 35.7417 19.6119 35.925 19.8335 36.2916C19.9074 36.4016 19.9443 36.4749 20.0182 36.5849C20.092 36.6582 20.1659 36.7682 20.2398 36.8415C20.4983 37.1714 20.5722 37.5746 20.3875 37.9412L19.7966 39.2243L23.9701 41.0938L24.5611 39.8108C24.7457 39.4442 25.1151 39.1876 25.5214 39.1876C25.743 39.1876 25.9646 39.1509 26.1862 39.1143C26.5925 39.041 26.9987 39.2243 27.2203 39.5542L28.0329 40.6906L31.7632 38.0512L30.9507 36.9148C30.7291 36.5849 30.6921 36.145 30.8768 35.7784C30.9876 35.5951 31.0615 35.3751 31.1723 35.1552C31.32 34.7886 31.6524 34.4953 32.0587 34.4587L33.4622 34.312L33.019 29.8031L31.6155 29.9497C31.2092 29.9864 30.8029 29.8031 30.5813 29.4365C30.5075 29.3265 30.4705 29.2532 30.3967 29.1432C30.3228 29.0699 30.2489 28.9599 30.1751 28.8866C29.9165 28.5567 29.8427 28.1534 30.0273 27.7502L30.6183 26.5405ZM28.2545 30.7195C29.4733 32.4058 29.067 34.7153 27.405 35.925C25.706 37.1347 23.3792 36.7315 22.1604 35.0819C20.9415 33.3956 21.3478 31.0861 23.0098 29.8764C24.7088 28.6667 27.0357 29.0332 28.2545 30.7195Z" fill="#EBEBEB"/>
<path d="M218.945 86.5137L216.175 88.09L216.655 88.9331C216.803 89.1897 216.803 89.483 216.618 89.7396C216.544 89.8862 216.433 89.9962 216.396 90.1428C216.249 90.3994 215.99 90.5461 215.732 90.5461H214.734V93.7354H215.732C216.027 93.7354 216.286 93.882 216.396 94.1386C216.47 94.2852 216.544 94.4319 216.618 94.5418C216.766 94.7984 216.803 95.0917 216.655 95.3483L216.175 96.1915L218.945 97.7678L219.425 96.9246C219.573 96.668 219.831 96.5214 220.127 96.558C220.201 96.558 220.274 96.558 220.348 96.558C220.422 96.558 220.496 96.558 220.57 96.558C220.865 96.558 221.124 96.668 221.272 96.9246L221.752 97.7678L224.522 96.1915L224.042 95.3483C223.894 95.0917 223.894 94.7984 224.079 94.5418C224.153 94.3952 224.263 94.2852 224.3 94.1386C224.448 93.882 224.707 93.7354 224.965 93.7354H225.962V90.5461H224.965C224.67 90.5461 224.411 90.3994 224.3 90.1428C224.226 89.9962 224.153 89.8496 224.079 89.7396C223.931 89.483 223.894 89.1897 224.042 88.9331L224.522 88.09L221.752 86.5137L221.272 87.3568C221.124 87.6134 220.865 87.7234 220.57 87.7234C220.496 87.7234 220.422 87.7234 220.348 87.7234C220.274 87.7234 220.201 87.7234 220.127 87.7234C219.831 87.7234 219.573 87.6134 219.425 87.3568L218.945 86.5137ZM220.348 89.5563C221.789 89.5563 222.971 90.7294 222.971 92.159C222.971 93.5887 221.789 94.7618 220.348 94.7618C218.908 94.7618 217.726 93.5887 217.726 92.159C217.726 90.7294 218.908 89.5563 220.348 89.5563Z" fill="#EBEBEB"/>
<path d="M39.0393 12.9769L36.4908 14.9198L37.0818 15.6897C37.2665 15.9096 37.2665 16.2395 37.1557 16.4961C37.0818 16.6428 37.0079 16.7894 36.971 16.936C36.8602 17.1926 36.6386 17.4126 36.3431 17.4493L35.3828 17.5592L35.7891 20.7118L36.7494 20.6019C37.0448 20.5652 37.3034 20.7118 37.4881 20.9318C37.5619 21.0784 37.6727 21.1884 37.7835 21.2984C37.9682 21.5183 38.0421 21.8116 37.9313 22.0682L37.5619 22.9847L40.5167 24.1944L40.886 23.2779C40.9968 23.0213 41.2553 22.838 41.5508 22.838C41.6247 22.838 41.6986 22.838 41.7724 22.8014C41.8463 22.8014 41.9202 22.7647 41.994 22.7647C42.2895 22.7281 42.548 22.8014 42.7327 23.058L43.3237 23.8278L45.8721 21.8849L45.2812 21.1151C45.0965 20.8951 45.0965 20.5652 45.2073 20.3086C45.2812 20.162 45.355 20.0153 45.392 19.8687C45.5028 19.6121 45.7244 19.3921 46.0198 19.3555L46.9801 19.2455L46.5739 16.0929L45.6136 16.2029C45.3181 16.2395 45.0596 16.0929 44.8749 15.8729C44.801 15.7263 44.6902 15.6163 44.5794 15.5064C44.3947 15.2864 44.3209 14.9931 44.4317 14.7365L44.801 13.8201L41.8463 12.6104L41.4769 13.5268C41.3661 13.7834 41.1076 13.9667 40.8121 13.9667C40.7383 13.9667 40.6644 13.9667 40.5905 14.0034C40.5167 14.0034 40.4428 14.04 40.3689 14.04C40.0735 14.0767 39.778 14.0034 39.6302 13.7468L39.0393 12.9769ZM40.8491 15.8363C42.2895 15.653 43.6191 16.6428 43.8038 18.0724C43.9885 19.5021 42.9912 20.8218 41.5508 21.0051C40.1104 21.1884 38.7808 20.1986 38.5961 18.769C38.4114 17.3026 39.4086 16.0196 40.8491 15.8363Z" fill="#EBEBEB"/>
<path d="M20.0181 95.6783C20.1659 92.1224 20.092 88.5665 19.8704 85.0473C19.3902 77.7523 18.1714 70.494 16.5094 63.3456C15.586 59.3498 14.4041 55.3907 13.2222 51.4316C13.1853 51.3217 13.0006 51.3583 13.0376 51.4683C16.7679 65.3618 19.7965 79.6952 19.6118 94.1386C19.538 98.171 19.0948 102.167 18.6885 106.163C18.6885 106.273 18.8732 106.309 18.8732 106.199C19.6118 102.79 19.8704 99.1975 20.0181 95.6783Z" fill="#EBEBEB"/>
<path d="M13.0374 51.5049C13.0374 51.5049 7.42346 65.6917 8.67922 69.0276C9.93498 72.3635 12.5573 73.06 12.5573 73.06C12.5573 73.06 9.12243 77.9356 11.5231 82.5179C13.9239 87.1001 19.2793 86.8802 19.6487 92.0857C19.5748 92.0857 19.8703 70.3839 13.0374 51.5049Z" fill="#EBEBEB"/>
<path d="M18.9839 83.1405C18.9839 83.1039 18.9839 83.1039 18.9839 83.0672C18.2083 73.4261 16.4724 63.8216 13.5177 54.547C13.5177 54.5104 13.4807 54.5104 13.4807 54.547C14.5888 58.6894 15.586 62.8685 16.4355 67.0475C15.6968 66.3144 14.7365 65.8745 13.7393 65.5445C13.7023 65.5445 13.7023 65.5812 13.7393 65.5812C14.7734 66.0211 15.7706 66.5343 16.5093 67.4141C16.6571 68.2206 16.8417 69.0637 16.9895 69.8702C15.7337 68.4772 13.9978 67.7807 12.225 67.1208C12.188 67.1208 12.188 67.1575 12.225 67.1575C14.0347 67.8907 15.8445 68.8438 17.1003 70.3834C17.5435 72.7296 17.9128 75.1124 18.2452 77.4585C17.3219 76.5054 16.1769 75.8455 14.8842 75.5523C14.8473 75.5523 14.8104 75.5889 14.8473 75.6256C16.1769 75.9922 17.3219 76.762 18.2452 77.7884C18.2452 77.7884 18.2452 77.7884 18.2822 77.7884C18.393 78.6316 18.5038 79.4747 18.6146 80.2812C17.9128 79.6947 17.1372 79.2181 16.2508 78.8882C16.2139 78.8882 16.2139 78.9248 16.2508 78.9248C17.1372 79.2914 17.9128 79.8413 18.6146 80.4645H18.6515C18.7623 81.271 18.8362 82.0408 18.9101 82.8473C17.6174 81.3076 16.0292 80.1712 14.1455 79.4747C14.1086 79.4747 14.0717 79.5114 14.1086 79.548C15.9553 80.3545 17.5804 81.6009 18.7992 83.1405C18.8362 83.1772 18.8731 83.1772 18.9101 83.1772C19.0209 84.3869 19.1317 85.6333 19.2425 86.843C19.2425 86.843 19.2794 86.8797 19.2794 86.843C19.1686 85.6333 19.0947 84.3869 18.9839 83.1405Z" fill="white"/>
<path d="M14.4408 64.152C13.4805 63.4921 12.2247 63.1988 11.0428 63.0889C11.0059 63.0889 11.0059 63.1255 11.0428 63.1255C12.2617 63.3088 13.2589 63.7487 14.4038 64.2253C14.4408 64.2253 14.4777 64.1886 14.4408 64.152Z" fill="white"/>
<path d="M15.1426 79.1454C14.3669 78.6689 13.4805 78.4123 12.5941 78.2656C12.5572 78.2656 12.5572 78.3023 12.5941 78.3023C13.4805 78.4489 14.2931 78.7788 15.1056 79.1821C15.1426 79.2554 15.1795 79.1821 15.1426 79.1454Z" fill="white"/>
<path d="M34.8291 69.2473C32.4653 70.8969 30.2123 72.7665 28.3287 74.8927C26.2973 77.1655 24.783 79.7316 23.7488 82.591C21.6067 88.4563 20.4617 94.7615 20.3509 100.993C20.277 104.476 20.6094 107.922 21.3481 111.331C21.385 111.441 21.5697 111.404 21.5328 111.294C20.6094 105.319 20.6464 99.1972 21.6436 93.2219C22.6039 87.3565 24.1182 80.978 27.8855 76.2124C29.9168 73.6097 32.4653 71.5568 35.0137 69.4673C35.1245 69.3573 34.9399 69.174 34.8291 69.2473Z" fill="#EBEBEB"/>
<path d="M21.1636 96.7778C21.1636 96.7778 23.0841 93.5518 25.9281 90.7658C28.7351 87.9798 31.1358 86.0002 31.4682 84.1307C31.8375 82.2977 28.6612 80.9047 28.6612 80.9047C28.6612 80.9047 32.5762 81.6012 33.6104 79.9883C34.6815 78.3753 35.1985 68.9541 35.1985 68.9541C35.1985 68.9541 28.1072 73.9763 24.7831 81.0147C21.496 88.0898 21.1636 96.7778 21.1636 96.7778Z" fill="#EBEBEB"/>
<path d="M32.7238 71.3731C29.7321 74.2691 26.7405 77.3851 24.9676 81.1975C24.3767 82.5172 23.8596 83.8736 23.4164 85.2666C23.3425 85.5599 23.2317 85.8165 23.1578 86.1098V86.1464C22.2714 89.0058 21.6805 91.9384 21.1265 94.8345C21.1265 94.8711 21.1634 94.8711 21.1634 94.8345C21.4589 93.3681 21.7913 91.9018 22.1976 90.3988H22.2345C22.8254 90.1422 23.4533 89.9955 24.0812 89.9222C24.1181 89.9222 24.1181 89.8489 24.0812 89.8489C23.4533 89.8856 22.8254 89.9955 22.2345 90.1788C22.5669 88.8591 22.9362 87.5028 23.3794 86.2197C24.746 85.8898 26.1864 85.7065 27.5899 85.6699V85.6332C26.1864 85.5599 24.8199 85.7065 23.4533 85.9998C23.5272 85.7798 23.6011 85.5599 23.6749 85.3399C24.5983 85.12 25.5216 84.9734 26.4819 84.8634V84.8267C25.5586 84.8634 24.6352 84.9367 23.7488 85.1566C24.1181 84.0202 24.5613 82.9205 25.0045 81.8207C25.3739 80.9043 25.854 80.0611 26.3342 79.2546C27.1098 79.0714 27.8115 78.9247 28.5872 78.8514C28.6241 78.8514 28.6241 78.8148 28.5872 78.8148C27.8854 78.7781 27.1467 78.8148 26.4819 79.0347C26.8513 78.4482 27.2575 77.8616 27.6638 77.2751C29.252 76.9085 30.8771 76.6153 32.5022 76.9085C32.5391 76.9085 32.5391 76.8719 32.5022 76.8719C30.9509 76.4686 29.3997 76.6886 27.8854 77.0185C28.0701 76.7985 28.2178 76.5786 28.4025 76.3586C29.3628 76.0654 30.36 75.9187 31.3572 75.8821C31.3942 75.8821 31.3942 75.8454 31.3572 75.8454C30.4339 75.7721 29.4736 75.8454 28.5872 76.102C29.9168 74.4891 31.3572 72.9494 32.7977 71.4464C32.8715 71.3364 32.7977 71.2998 32.7238 71.3731Z" fill="white"/>
<path d="M32.6503 77.7887C32.1701 77.7521 31.7269 77.6788 31.2467 77.7521C31.1729 77.7521 31.2098 77.8621 31.2467 77.8621C31.7269 77.8621 32.1701 77.8254 32.6503 77.8621C32.6872 77.8254 32.6872 77.7887 32.6503 77.7887Z" fill="white"/>
<path d="M27.5531 86.917C26.8145 86.917 26.0758 87.1003 25.374 87.3569V87.3936C26.1127 87.2103 26.8145 87.1369 27.5531 87.027C27.627 86.9903 27.627 86.917 27.5531 86.917Z" fill="white"/>
<path d="M26.0018 83.7637C25.7064 83.7637 25.374 83.8003 25.0785 83.837C25.0415 83.837 25.0415 83.8737 25.0785 83.8737C25.374 83.8737 25.7064 83.8737 26.0018 83.837C26.0757 83.837 26.0757 83.7637 26.0018 83.7637Z" fill="white"/>
<path d="M0.369241 79.2553C2.65916 80.0251 4.91214 81.0515 6.94352 82.3346C9.12263 83.6909 10.9324 85.4505 12.4467 87.5034C15.5492 91.7558 17.9499 96.5947 19.5011 101.617C20.3506 104.44 20.9046 107.299 21.0893 110.232C21.0893 110.342 20.9416 110.342 20.9416 110.232C20.2767 105.173 18.8363 100.224 16.6572 95.6049C14.515 91.0959 11.7819 86.257 7.64527 83.251C5.39228 81.6014 2.84383 80.5383 0.295373 79.4386C0.147636 79.3652 0.221504 79.182 0.369241 79.2553Z" fill="#EBEBEB"/>
<path d="M17.8392 98.3912C17.8392 98.3912 15.5123 96.2284 12.5945 94.6154C9.67674 93.0025 7.27603 91.9394 6.53734 90.5097C5.79866 89.08 8.08858 87.2471 8.08858 87.2471C8.08858 87.2471 5.09691 88.7134 3.84115 87.6503C2.62232 86.5872 0 79.0723 0 79.0723C0 79.0723 6.90668 81.5284 11.228 86.4406C15.5493 91.3895 17.8392 98.3912 17.8392 98.3912Z" fill="#EBEBEB"/>
<path d="M17.4699 96.8518C13.9981 90.3999 9.41828 84.5713 3.10254 80.7588C4.76458 81.8219 6.31581 83.0316 7.71931 84.3513C6.42661 84.3147 5.13392 84.5346 3.98896 85.1211C3.95202 85.1211 3.98896 85.1578 4.02589 85.1578C5.28165 84.7179 6.50048 84.4613 7.83011 84.5346C7.86704 84.5346 7.86704 84.5346 7.86704 84.5346C8.08865 84.7546 8.31025 84.9745 8.53186 85.1944C7.86704 85.2311 7.20223 85.3044 6.53742 85.4511V85.4877C7.23916 85.3411 7.94091 85.3044 8.64266 85.3044C9.78762 86.4408 10.8956 87.6872 11.8929 88.9703C11.4497 88.8969 10.9326 88.9336 10.4894 89.0802C10.4524 89.0802 10.4524 89.1536 10.4894 89.1169C11.0064 89.0436 11.4866 89.0802 11.9667 89.0802C12.1514 89.3368 12.3361 89.5568 12.5207 89.8134C11.1172 89.7401 9.71375 89.8501 8.31025 90.2167C8.27332 90.2167 8.31025 90.2533 8.31025 90.2533C9.75069 89.96 11.1542 89.8867 12.6315 89.96C12.8162 90.18 12.964 90.4366 13.1486 90.6566C12.2991 90.6199 11.4866 90.7299 10.6371 90.9498C10.6002 90.9498 10.6002 91.0231 10.6371 90.9865C11.4866 90.8032 12.3361 90.7299 13.2225 90.8032C13.9612 91.8296 14.6629 92.8561 15.3647 93.9192C14.9953 93.8458 14.626 93.8825 14.2567 93.9925C14.2197 93.9925 14.2567 94.0291 14.2567 94.0291C14.6629 93.9925 15.0323 94.0291 15.4385 94.1024C16.0664 95.0556 16.6574 96.0087 17.2114 96.9618C17.3961 96.9984 17.5069 96.9251 17.4699 96.8518Z" fill="white"/>
<path d="M12.1146 91.5002C11.4497 91.4268 10.748 91.5368 10.1201 91.7568V91.7934C10.7849 91.6834 11.4497 91.6101 12.1146 91.5735C12.1515 91.5735 12.1515 91.5002 12.1146 91.5002Z" fill="white"/>
<path d="M6.05701 83.6539C5.76154 83.6172 5.42913 83.6539 5.13366 83.6905C5.09672 83.6905 5.09672 83.7638 5.13366 83.7272C5.42913 83.6905 5.7246 83.6905 6.05701 83.6905C6.13088 83.7272 6.13088 83.6539 6.05701 83.6539Z" fill="white"/>
<path d="M26.74 119.652H11.1538L13.3699 103.486L13.9239 99.3438H23.97L24.524 103.486L26.74 119.652Z" fill="#DBDBDB"/>
<path d="M24.5237 103.486H13.3696L13.9236 99.3438H23.9697L24.5237 103.486Z" fill="#C7C7C7"/>
<path d="M25.41 97.9141H12.52V101.433H25.41V97.9141Z" fill="#DBDBDB"/>
<path d="M1.21875 119.653L29.3256 119.58L57.3956 119.543L113.535 119.47L169.675 119.543L197.745 119.58L225.815 119.653L197.745 119.763L169.675 119.8L113.535 119.836L57.3956 119.8L29.3256 119.763L1.21875 119.653Z" fill="#263238"/>
<path d="M114.274 147C172.755 147 220.164 141.846 220.164 135.489C220.164 129.132 172.755 123.979 114.274 123.979C55.7924 123.979 8.38379 129.132 8.38379 135.489C8.38379 141.846 55.7924 147 114.274 147Z" fill="#EBEBEB"/>
<path d="M188.623 137.946H76.0845L92.3724 46.373H204.911L188.623 137.946Z" fill="#236852"/>
<path d="M130.858 36.8789H94.0346L92.3726 46.3734H131.781L130.858 36.8789Z" fill="#236852"/>
<g opacity="0.1">
<path opacity="0.1" d="M188.623 137.946H76.0845L92.3724 46.373H204.911L188.623 137.946Z" fill="black"/>
<path opacity="0.1" d="M130.858 36.8789H94.0346L92.3726 46.3734H131.781L130.858 36.8789Z" fill="black"/>
</g>
<path d="M188.438 137.945H75.678L59.6855 49.6719H172.445L188.438 137.945Z" fill="#37A07F"/>
<path d="M98.7619 103.633C101.353 103.633 103.453 101.549 103.453 98.9779C103.453 96.4067 101.353 94.3223 98.7619 94.3223C96.1714 94.3223 94.0713 96.4067 94.0713 98.9779C94.0713 101.549 96.1714 103.633 98.7619 103.633Z" fill="#263238"/>
<path d="M135.807 103.633C138.397 103.633 140.497 101.549 140.497 98.9779C140.497 96.4067 138.397 94.3223 135.807 94.3223C133.216 94.3223 131.116 96.4067 131.116 98.9779C131.116 101.549 133.216 103.633 135.807 103.633Z" fill="#263238"/>
<path d="M124.025 104.403L123.766 103.927C123.729 103.89 121.328 99.4542 116.453 99.4542C112.021 99.4542 110.913 103.633 110.876 103.817L110.728 104.366L109.657 104.11L109.768 103.56C109.768 103.523 111.098 98.3545 116.416 98.3545C121.956 98.3545 124.616 103.23 124.726 103.413L124.985 103.89L124.025 104.403Z" fill="#263238"/>
<path d="M180.978 98.4645C181.236 98.4279 181.458 98.3546 181.679 98.2812" stroke="#263238" stroke-miterlimit="10"/>
<path d="M183.12 97.8784C188.771 95.9722 193.498 91.5732 193.941 86.4043C194.939 75.0402 180.977 68.7717 182.418 55.648C183.784 43.1108 197.044 42.231 202.325 43.954C208.198 45.8602 206.167 51.4689 200.885 50.7357C191.688 49.4894 185.89 39.5549 190.285 28.3008C193.535 19.8694 201.698 16.7168 204.985 15.7637" stroke="#263238" stroke-miterlimit="10" stroke-dasharray="4 4"/>
<path d="M205.687 15.5436C206.13 15.4337 206.388 15.3604 206.388 15.3604" stroke="#263238" stroke-miterlimit="10"/>
<path d="M212.261 13.3437C211.3 10.4477 205.021 11.4741 206.24 15.2866C207.459 19.0624 213.221 16.2397 212.261 13.3437Z" fill="#263238"/>
<path d="M202.805 12.1707C202.842 10.8876 204.615 9.93453 207.164 10.3744C209.675 10.8143 212.039 12.5006 212.039 12.5006C212.039 12.5006 209.564 14.0036 207.016 14.2969C204.467 14.5535 202.768 13.4537 202.805 12.1707Z" fill="#EBEBEB"/>
<path d="M212.039 12.5364C210.746 12.5364 209.417 12.4998 208.124 12.4631C206.831 12.3898 205.502 12.3531 204.209 12.2432C205.502 12.2432 206.831 12.2798 208.124 12.3165C209.454 12.3531 210.746 12.4265 212.039 12.5364Z" fill="#263238"/>
<path d="M205.354 11.0703C205.724 11.2536 206.093 11.4369 206.426 11.6568C206.758 11.8768 207.127 12.0967 207.423 12.3534C207.053 12.1701 206.684 11.9868 206.352 11.7668C206.019 11.5469 205.65 11.3269 205.354 11.0703Z" fill="#263238"/>
<path d="M208.752 12.3906C208.419 12.6839 208.05 12.9038 207.717 13.1238C207.348 13.3437 206.979 13.5637 206.609 13.747C206.942 13.4537 207.311 13.2338 207.644 13.0138C208.013 12.8305 208.382 12.5739 208.752 12.3906Z" fill="#263238"/>
<path d="M209.158 11.6934C209.343 11.7667 209.528 11.9133 209.675 12.0233C209.823 12.1699 209.971 12.2799 210.119 12.4632C209.934 12.3899 209.749 12.2432 209.601 12.1333C209.417 11.9866 209.269 11.8767 209.158 11.6934Z" fill="#263238"/>
<path d="M205.206 19.7225C205.982 20.7123 208.013 20.4924 209.786 18.6594C211.559 16.8265 212.482 14.0771 212.482 14.0771C212.482 14.0771 209.564 14.2971 207.348 15.5435C205.132 16.8265 204.43 18.7328 205.206 19.7225Z" fill="#EBEBEB"/>
<path d="M212.519 14.0771C211.448 14.847 210.414 15.6168 209.38 16.4233C208.346 17.2298 207.312 18.0363 206.314 18.8794C207.386 18.1462 208.42 17.3397 209.454 16.5333C210.488 15.7268 211.522 14.9203 212.519 14.0771Z" fill="#263238"/>
<path d="M207.939 19.1722C208.161 18.8056 208.309 18.4391 208.457 18.0725C208.604 17.7059 208.752 17.3027 208.863 16.8994C208.641 17.266 208.493 17.6326 208.346 17.9992C208.161 18.4024 208.013 18.769 207.939 19.1722Z" fill="#263238"/>
<path d="M209.897 16.0934C209.454 16.0568 209.047 16.0934 208.604 16.0934C208.161 16.1301 207.755 16.1668 207.312 16.2401C207.755 16.2767 208.161 16.2401 208.604 16.2401C209.047 16.2034 209.491 16.1668 209.897 16.0934Z" fill="#263238"/>
<path d="M210.636 16.4597C210.747 16.2764 210.82 16.0931 210.857 15.8732C210.894 15.6899 210.968 15.47 210.968 15.25C210.857 15.4333 210.783 15.6166 210.747 15.8365C210.673 16.0565 210.636 16.2398 210.636 16.4597Z" fill="#263238"/>
<path d="M212.26 13.3436C211.67 13.5268 211.042 13.1969 210.857 12.647C210.672 12.0605 211.005 11.4373 211.559 11.254C212.15 11.0707 212.778 11.4007 212.962 11.9505C213.147 12.5371 212.851 13.1603 212.26 13.3436Z" fill="#455A64"/>
<path d="M212.926 15.4334C212.335 15.6167 211.707 15.2868 211.522 14.7369C211.337 14.1504 211.67 13.5272 212.224 13.3439C212.815 13.1606 213.443 13.4905 213.627 14.0404C213.849 14.6269 213.516 15.2501 212.926 15.4334Z" fill="#455A64"/>
</svg>
