<svg width="22" height="22" viewBox="0 0 22 22" fill="none" xmlns="http://www.w3.org/2000/svg">
<g clip-path="url(#clip0)">
<path d="M8.24975 10.5423C5.72256 10.5423 3.6665 8.48641 3.6665 5.95922C3.6665 3.43203 5.72256 1.37598 8.24975 1.37598C10.7769 1.37598 12.833 3.43203 12.833 5.95922C12.833 8.48641 10.7769 10.5423 8.24975 10.5423ZM8.24975 2.75093C6.4807 2.75093 5.04146 4.19001 5.04146 5.95922C5.04146 7.72827 6.4807 9.16734 8.24975 9.16734C10.0188 9.16734 11.458 7.72827 11.458 5.95922C11.458 4.19001 10.0188 2.75093 8.24975 2.75093Z" fill="#236852"/>
<path d="M15.812 20.625H0.687479C0.307989 20.625 0 20.317 0 19.9375V16.7292C0 14.3286 1.95334 12.3752 4.35397 12.3752H12.1455C14.5461 12.3752 16.4995 14.3286 16.4995 16.7292V19.9375C16.4995 20.317 16.1915 20.625 15.812 20.625ZM1.37496 19.25H15.1245V16.7292C15.1245 15.0867 13.788 13.7502 12.1455 13.7502H4.35397C2.71148 13.7502 1.37496 15.0867 1.37496 16.7292V19.25Z" fill="#236852"/>
</g>
<defs>
<clipPath id="clip0">
<rect width="22" height="22" fill="white"/>
</clipPath>
</defs>
</svg>
