<svg width="165" height="26" viewBox="0 0 165 26" fill="none" xmlns="http://www.w3.org/2000/svg">
<path d="M65.2214 18.4717H64.0914C63.6064 18.4447 63.1479 18.2421 62.8014 17.9017L54.4014 9.70174L62.4014 9.28174L65.7814 17.6817C65.8614 17.8217 66.1614 18.4517 65.3114 18.5017" fill="white"/>
<path d="M67.7113 1.74174V1.80174L62.3113 9.25174L54.3113 9.67174L64.9713 0.881742C65.2851 0.627348 65.6686 0.47395 66.0713 0.441742H66.9713C68.2913 0.501742 67.8613 1.44174 67.6913 1.73174" fill="white"/>
<path d="M15.7313 17.0017C15.9413 17.3517 15.8913 17.5617 15.5913 17.6317L11.8513 18.4117C11.7116 18.4232 11.5711 18.4232 11.4313 18.4117C11.2933 18.404 11.1601 18.3578 11.047 18.2782C10.9339 18.1987 10.8453 18.0891 10.7913 17.9617C10.5892 17.5544 10.4251 17.1293 10.3013 16.6917C9.69472 17.3047 8.97468 17.7937 8.18134 18.1317C7.38201 18.4284 6.53371 18.5709 5.68133 18.5517C4.81793 18.566 3.95857 18.4307 3.14134 18.1517C2.44356 17.9301 1.81376 17.5343 1.31134 17.0017C1.05016 16.7234 0.818893 16.4184 0.621335 16.0917C0.445232 15.7772 0.310772 15.441 0.221335 15.0917C0.114671 14.6317 0.0477581 14.1633 0.0213351 13.6917C0.0213351 13.1517 0.0213351 12.4817 0.0213351 11.6917V1.37175C-0.0127724 1.20929 -0.00589903 1.04089 0.0413351 0.881747C0.159204 0.779521 0.30602 0.7166 0.461335 0.701747L4.73134 0.0717468C5.03134 0.0717468 5.22133 0.0717468 5.29134 0.0717468C5.36134 0.0717468 5.40133 0.301747 5.40133 0.581747V12.0917C5.35185 12.777 5.47207 13.464 5.75134 14.0917C5.90596 14.3068 6.11583 14.4761 6.35874 14.5817C6.60166 14.6873 6.86859 14.7253 7.13133 14.6917C8.10084 14.6569 9.02032 14.2527 9.70133 13.5617V1.34175C9.68324 1.17513 9.70731 1.00663 9.77134 0.851747C9.8892 0.749521 10.036 0.6866 10.1913 0.671747L14.3913 0.0717468C14.7213 0.0717468 14.9113 0.0717468 14.9713 0.0717468C15.0313 0.0717468 15.0613 0.291747 15.0613 0.601747V13.4017C15.0454 14.1153 15.099 14.8286 15.2213 15.5317C15.3186 16.0536 15.4903 16.5588 15.7313 17.0317" fill="#4BC999"/>
<path d="M31.7314 12.9417C31.7517 13.7762 31.5914 14.6051 31.2614 15.3717C30.9687 16.0534 30.5281 16.6615 29.9714 17.1517C29.3679 17.6486 28.6708 18.0193 27.9214 18.2417C27.0823 18.4982 26.2086 18.623 25.3314 18.6117C24.0527 18.6251 22.778 18.467 21.5414 18.1417C20.4967 17.8731 19.4891 17.4768 18.5414 16.9617C18.2814 16.8217 18.1614 16.6917 18.1614 16.5717C18.1711 16.3816 18.2047 16.1935 18.2614 16.0117L19.1414 13.1117C19.1914 12.9317 19.2814 12.8218 19.4114 12.8018C19.5653 12.7806 19.7217 12.8161 19.8514 12.9017C20.2404 13.108 20.6411 13.2917 21.0514 13.4517C21.4914 13.6318 21.9514 13.8018 22.4014 13.9618C22.8393 14.12 23.2869 14.2502 23.7414 14.3518C24.1191 14.4363 24.5044 14.4832 24.8914 14.4917C25.3403 14.5187 25.7859 14.3994 26.1614 14.1517C26.3117 14.0333 26.4317 13.8809 26.5117 13.7071C26.5916 13.5333 26.6292 13.3429 26.6214 13.1517C26.621 12.944 26.5628 12.7404 26.4533 12.5638C26.3438 12.3872 26.1873 12.2445 26.0014 12.1517C25.3199 11.8131 24.6186 11.5159 23.9014 11.2618C22.9014 10.8618 22.1214 10.5017 21.5214 10.2017C20.9467 9.90761 20.4234 9.52266 19.9714 9.06175C19.5827 8.66026 19.2739 8.18855 19.0614 7.67175C18.8082 7.03606 18.6857 6.35584 18.7014 5.67175C18.6913 4.88388 18.8597 4.10395 19.1939 3.39042C19.5281 2.6769 20.0196 2.04829 20.6314 1.55175C21.2642 1.02654 21.995 0.632246 22.7814 0.39175C23.6493 0.124399 24.5533 -0.00715482 25.4614 0.00174991C26.5376 -0.0162434 27.6112 0.115005 28.6514 0.39175C29.4688 0.62954 30.2545 0.96531 30.9914 1.39175C31.1814 1.51175 31.2814 1.61175 31.2814 1.71175C31.2663 1.85653 31.2292 1.99816 31.1714 2.13175L30.0814 4.79175C30.0114 4.98175 29.9314 5.09175 29.8514 5.11175C29.7066 5.11841 29.5634 5.07997 29.4414 5.00175C28.8314 4.74175 28.2014 4.50175 27.5414 4.28175C26.9599 4.09386 26.3524 3.99935 25.7414 4.00175C25.258 3.98431 24.7785 4.09469 24.3514 4.32175C24.1755 4.42044 24.0307 4.56643 23.9335 4.74317C23.8363 4.91991 23.7905 5.12034 23.8014 5.32175C23.7869 5.52372 23.8311 5.72557 23.9287 5.903C24.0262 6.08042 24.173 6.22585 24.3514 6.32175C24.93 6.61701 25.5242 6.88073 26.1314 7.11175C27.3014 7.58175 28.2214 7.99175 28.8814 8.33175C29.511 8.65466 30.0822 9.08053 30.5714 9.59175C31.3768 10.5163 31.7926 11.7171 31.7314 12.9417Z" fill="#4BC999"/>
<path d="M49.2613 9.88174C49.2613 10.2117 49.2013 10.4117 49.0913 10.4817C48.9035 10.5674 48.6973 10.6052 48.4913 10.5917H38.9013C38.8653 11.6678 39.193 12.7247 39.8313 13.5917C40.1474 13.9157 40.5304 14.1668 40.9536 14.3274C41.3767 14.488 41.8299 14.5544 42.2813 14.5217C43.0592 14.5351 43.8347 14.4305 44.5813 14.2117C45.2749 13.9838 45.9447 13.6891 46.5813 13.3317C46.6465 13.2765 46.7239 13.2375 46.8071 13.2179C46.8904 13.1984 46.977 13.1989 47.06 13.2194C47.143 13.2399 47.2199 13.2798 47.2845 13.3359C47.349 13.3919 47.3994 13.4625 47.4313 13.5417L48.6213 15.9317C48.7031 16.0398 48.7395 16.1756 48.7227 16.31C48.7058 16.4445 48.6372 16.5671 48.5313 16.6517C48.2359 16.8676 47.9251 17.0614 47.6013 17.2317C46.6888 17.7154 45.7174 18.0785 44.7113 18.3117C43.8165 18.522 42.9005 18.6294 41.9813 18.6317C39.2213 18.6317 37.1513 17.8417 35.7713 16.2617C34.3913 14.6817 33.7047 12.4151 33.7113 9.46174C33.6997 8.17042 33.8887 6.88512 34.2713 5.65174C34.6034 4.55475 35.1508 3.53491 35.8813 2.65174C36.5805 1.83533 37.4512 1.18318 38.4313 0.741743C39.4975 0.267244 40.6545 0.0317382 41.8213 0.0517433C44.368 0.0517433 46.2446 0.881743 47.4513 2.54174C48.6613 4.21174 49.2613 6.65174 49.2613 9.88174ZM43.3513 4.33174C43.1438 4.07628 42.8763 3.87599 42.5728 3.74864C42.2693 3.6213 41.939 3.57084 41.6113 3.60174C41.2718 3.57443 40.9306 3.62819 40.6159 3.75859C40.3012 3.88898 40.022 4.09229 39.8013 4.35174C39.3243 5.15937 39.0402 6.06628 38.9713 7.00174H43.9713C44.015 6.06003 43.8043 5.12392 43.3613 4.29174" fill="white"/>
<path d="M85.6013 9.14174C85.6013 12.2817 85.0413 14.6417 83.9213 16.2217C83.3068 17.0288 82.4996 17.6687 81.5736 18.0828C80.6476 18.4968 79.6325 18.6718 78.6213 18.5917C78.0653 18.6013 77.5105 18.5374 76.9713 18.4017C76.4559 18.2604 75.9566 18.066 75.4813 17.8217V24.1017C75.5001 24.2521 75.4758 24.4047 75.4113 24.5417C75.3116 24.6263 75.1905 24.6816 75.0613 24.7017L70.6013 25.3717C70.3913 25.3717 70.2513 25.3717 70.1813 25.3117C70.0915 25.1614 70.0529 24.9859 70.0713 24.8117V5.63174C70.0844 4.95895 70.0139 4.28713 69.8613 3.63174C69.7213 3.07174 69.5613 2.52174 69.3713 1.98174C69.3214 1.84963 69.3214 1.70385 69.3713 1.57174C69.3713 1.49174 69.5013 1.43174 69.6713 1.38174L73.2413 0.161741C73.3986 0.101972 73.5636 0.0649324 73.7313 0.0517409C73.9213 0.0517409 74.1013 0.211741 74.2613 0.531741C74.4505 0.906676 74.6045 1.29835 74.7213 1.70174C75.303 1.15498 75.9812 0.720959 76.7213 0.421741C77.4435 0.166383 78.2053 0.0411102 78.9713 0.0517409C79.9432 -0.0146317 80.9156 0.173685 81.7925 0.598092C82.6694 1.0225 83.4204 1.66831 83.9713 2.47174C85.1627 4.48481 85.7299 6.8061 85.6013 9.14174ZM80.3413 9.29174C80.4287 7.92647 80.2065 6.55908 79.6913 5.29174C79.5372 4.93864 79.2844 4.63756 78.9634 4.42468C78.6423 4.2118 78.2665 4.09619 77.8813 4.09174C77.4898 4.09174 77.1022 4.16993 76.7413 4.32174C76.2843 4.53231 75.8627 4.81229 75.4913 5.15174V14.4917C76.1462 14.8224 76.8677 15.0002 77.6013 15.0117C78.0297 15.0282 78.4556 14.9389 78.8413 14.7517C79.2101 14.5413 79.5065 14.224 79.6913 13.8417C79.9525 13.2587 80.118 12.6374 80.1813 12.0017C80.2954 11.0896 80.3489 10.1709 80.3413 9.25174" fill="white"/>
<path d="M98.9714 1.00174C99.0262 1.04854 99.0652 1.11112 99.0831 1.18092C99.101 1.25072 99.0969 1.32434 99.0714 1.39174C99.0341 1.52165 98.9873 1.64866 98.9314 1.77174L97.7414 4.90174C97.6214 5.20174 97.4314 5.29174 97.1714 5.18174C96.945 5.05461 96.7113 4.94107 96.4714 4.84174C96.1509 4.72752 95.8113 4.67658 95.4714 4.69174C95.1197 4.69858 94.7755 4.79495 94.4714 4.97174C94.0082 5.27018 93.5934 5.63777 93.2414 6.06174V17.4317C93.2414 17.7117 93.2414 17.8817 93.1514 17.9217C93.0044 17.9887 92.8415 18.013 92.6814 17.9917H88.3314C88.0714 17.9917 87.9214 17.9917 87.8714 17.9217C87.8214 17.8517 87.8014 17.7117 87.8014 17.4317V6.65174C87.8099 5.7352 87.7024 4.82127 87.4814 3.93174C87.2714 3.12174 87.0714 2.47174 86.8914 1.98174C86.8227 1.81352 86.7691 1.63949 86.7314 1.46174C86.6914 1.29507 86.8014 1.17507 87.0614 1.10174L90.4714 0.191737C90.6317 0.132218 90.8005 0.098467 90.9714 0.0917366C91.2314 0.0917366 91.4714 0.301737 91.7114 0.741737C91.9929 1.30695 92.2141 1.90022 92.3714 2.51174L92.5514 2.30174C92.6004 2.23493 92.6575 2.17446 92.7214 2.12174C93.2572 1.52434 93.8691 0.999862 94.5414 0.561737C95.148 0.209984 95.8404 0.0334368 96.5414 0.0517366C97.0099 0.0458695 97.4751 0.130765 97.9114 0.301737C98.3189 0.440323 98.6839 0.681376 98.9714 1.00174Z" fill="white"/>
<path d="M114.671 9.87174C114.671 10.2017 114.611 10.4017 114.501 10.4717C114.313 10.5574 114.107 10.5952 113.901 10.5817H104.271C104.238 11.659 104.569 12.716 105.211 13.5817C105.527 13.9057 105.91 14.1568 106.334 14.3174C106.757 14.478 107.21 14.5444 107.661 14.5117C108.443 14.5227 109.222 14.4148 109.971 14.1917C110.666 13.9676 111.336 13.6727 111.971 13.3117C112.036 13.2565 112.114 13.2175 112.197 13.1979C112.28 13.1784 112.367 13.1789 112.45 13.1994C112.533 13.2199 112.61 13.2598 112.674 13.3159C112.739 13.3719 112.789 13.4425 112.821 13.5217L114.021 15.9217C114.181 16.2351 114.151 16.4751 113.931 16.6417C113.639 16.8624 113.328 17.0565 113.001 17.2217C112.084 17.716 111.106 18.0859 110.091 18.3217C109.192 18.5235 108.273 18.6275 107.351 18.6317C104.578 18.6317 102.498 17.8384 101.111 16.2517C99.7313 14.6717 99.0313 12.4117 99.0313 9.47174C99.018 8.173 99.2104 6.88035 99.6013 5.64174C99.9379 4.54458 100.488 3.52496 101.221 2.64174C101.924 1.80653 102.806 1.14009 103.801 0.691743C104.871 0.215811 106.031 -0.0197269 107.201 0.00174312C109.761 0.00174312 111.648 0.835076 112.861 2.50174C114.075 4.16841 114.678 6.62508 114.671 9.87174ZM108.731 4.30174C108.523 4.04146 108.253 3.83741 107.945 3.70817C107.638 3.57893 107.303 3.52859 106.971 3.56174C106.629 3.53232 106.285 3.58606 105.968 3.7184C105.651 3.85073 105.371 4.05773 105.151 4.32174C104.655 5.14097 104.36 6.06635 104.291 7.02174H109.291C109.34 6.07517 109.126 5.13354 108.671 4.30174" fill="white"/>
<path d="M130.151 12.9417C130.168 13.7769 130.005 14.6058 129.671 15.3717C129.372 16.0631 128.913 16.6733 128.331 17.1517C127.745 17.6457 127.064 18.0164 126.331 18.2417C125.492 18.4975 124.619 18.6223 123.741 18.6117C122.463 18.6263 121.188 18.4682 119.951 18.1417C118.914 17.8879 117.913 17.5049 116.971 17.0017C116.711 16.8617 116.581 16.7317 116.581 16.6117C116.596 16.4214 116.633 16.2334 116.691 16.0517L117.571 13.1517C117.571 12.9717 117.701 12.8617 117.831 12.8417C117.985 12.8196 118.142 12.8552 118.271 12.9417C118.661 13.1462 119.062 13.3298 119.471 13.4917C119.921 13.6717 120.371 13.8417 120.831 14.0017C121.269 14.1612 121.717 14.2915 122.171 14.3917C122.546 14.4767 122.928 14.5236 123.311 14.5317C123.76 14.5602 124.206 14.4407 124.581 14.1917C124.733 14.0744 124.854 13.9222 124.934 13.7481C125.014 13.574 125.051 13.3831 125.041 13.1917C125.043 12.9835 124.986 12.7789 124.876 12.6019C124.766 12.4248 124.609 12.2826 124.421 12.1917C123.743 11.8546 123.045 11.5574 122.331 11.3017C121.331 10.9017 120.551 10.5417 119.951 10.2417C119.4 9.96748 118.894 9.60996 118.451 9.18174C118.059 8.7808 117.747 8.30911 117.531 7.79174C117.286 7.15399 117.167 6.47477 117.181 5.79174C117.166 5.00411 117.331 4.22346 117.664 3.50942C117.997 2.79537 118.489 2.16681 119.101 1.67174C119.706 1.11047 120.417 0.675333 121.191 0.391739C122.06 0.125786 122.963 -0.00573623 123.871 0.00173934C124.948 -0.0169008 126.021 0.114359 127.061 0.391739C127.883 0.627833 128.672 0.963669 129.411 1.39174C129.601 1.51174 129.691 1.61174 129.691 1.71174C129.676 1.85652 129.639 1.99815 129.581 2.13174L128.491 4.84174C128.421 5.03174 128.341 5.14174 128.261 5.16174C128.124 5.18035 127.984 5.15589 127.861 5.09174C127.251 4.83174 126.611 4.59174 125.951 4.37174C125.378 4.15325 124.774 4.02833 124.161 4.00174C123.675 3.98442 123.192 4.09474 122.761 4.32174C122.588 4.42263 122.446 4.56936 122.351 4.74579C122.255 4.92222 122.211 5.12151 122.221 5.32174C122.207 5.52249 122.25 5.72314 122.346 5.90023C122.442 6.07731 122.586 6.22351 122.761 6.32174C123.341 6.61498 123.935 6.87865 124.541 7.11174C125.721 7.58174 126.631 7.99174 127.291 8.33174C127.915 8.6588 128.483 9.08425 128.971 9.59174C129.772 10.519 130.187 11.7178 130.131 12.9417" fill="white"/>
<path d="M145.201 12.9417C145.215 13.7756 145.055 14.6032 144.731 15.3717C144.424 16.0583 143.966 16.6668 143.391 17.1517C142.803 17.6428 142.123 18.0132 141.391 18.2417C140.552 18.4975 139.679 18.6223 138.801 18.6117C137.523 18.6257 136.248 18.4676 135.011 18.1417C133.954 17.8909 132.933 17.5079 131.971 17.0017C131.711 16.8617 131.581 16.7318 131.581 16.6117C131.596 16.4214 131.633 16.2334 131.691 16.0517L132.571 13.1517C132.571 12.9717 132.711 12.8618 132.841 12.8418C132.995 12.8215 133.151 12.8569 133.281 12.9417C133.67 13.148 134.071 13.3317 134.481 13.4917C134.921 13.6718 135.371 13.8418 135.831 14.0017C136.269 14.16 136.717 14.2902 137.171 14.3918C137.549 14.4763 137.934 14.5232 138.321 14.5317C138.77 14.5587 139.216 14.4394 139.591 14.1917C139.74 14.0723 139.858 13.9194 139.936 13.7457C140.014 13.5719 140.05 13.3821 140.041 13.1917C140.043 12.9848 139.987 12.7814 139.879 12.6047C139.771 12.428 139.616 12.285 139.431 12.1917C138.75 11.8531 138.049 11.5559 137.331 11.3018C136.331 10.9018 135.551 10.5417 134.951 10.2417C134.4 9.96749 133.894 9.60997 133.451 9.18175C133.063 8.78026 132.754 8.30855 132.541 7.79175C132.288 7.15606 132.166 6.47584 132.181 5.79175C132.166 4.98151 132.345 4.17936 132.701 3.45175C133.031 2.76242 133.509 2.15456 134.101 1.67175C134.723 1.10249 135.455 0.666837 136.251 0.39175C137.132 0.120286 138.05 -0.0113141 138.971 0.00174991C140.048 -0.0162434 141.121 0.115005 142.161 0.39175C142.979 0.62954 143.764 0.96531 144.501 1.39175C144.691 1.51175 144.781 1.61175 144.781 1.71175C144.771 1.85623 144.737 1.99808 144.681 2.13175L143.591 4.84175C143.511 5.03175 143.441 5.14175 143.361 5.16175C143.221 5.18114 143.078 5.1567 142.951 5.09175C142.341 4.83175 141.711 4.59175 141.051 4.37175C140.473 4.16346 139.866 4.04868 139.251 4.03175C138.768 4.01287 138.288 4.12333 137.861 4.35175C137.685 4.45044 137.541 4.59643 137.443 4.77317C137.346 4.94991 137.3 5.15034 137.311 5.35175C137.297 5.55372 137.341 5.75557 137.439 5.933C137.536 6.11042 137.683 6.25585 137.861 6.35175C138.439 6.64888 139.033 6.91265 139.641 7.14175C140.811 7.61175 141.731 8.02175 142.391 8.36175C143.02 8.68163 143.591 9.10409 144.081 9.61175C144.882 10.539 145.297 11.7378 145.241 12.9618" fill="white"/>
<path d="M53.9714 1.00173C53.6219 0.643663 53.1509 0.429582 52.6514 0.401733H51.5114C50.6614 0.401733 50.9614 1.09173 51.0414 1.22173L54.4514 9.22173H62.4514L53.9714 1.00173Z" fill="#72E8B2"/>
<path d="M51.7314 18.0617L62.4414 9.24173H54.4414L49.0714 17.1117V17.1717C48.9014 17.4617 48.4714 18.4017 49.7914 18.4617H50.6814C51.0875 18.4315 51.4748 18.278 51.7914 18.0217" fill="#4BC999"/>
<path d="M146.971 17.5018C146.972 17.3515 146.999 17.2025 147.051 17.0618C147.103 16.928 147.185 16.8081 147.291 16.7118C147.398 16.6159 147.52 16.5382 147.651 16.4818C147.804 16.4229 147.968 16.3956 148.131 16.4018C148.295 16.3965 148.458 16.4236 148.611 16.4818C148.747 16.5358 148.873 16.6137 148.981 16.7118C149.081 16.8134 149.163 16.9319 149.221 17.0618C149.274 17.2025 149.301 17.3515 149.301 17.5018C149.302 17.6488 149.275 17.7947 149.221 17.9318C149.165 18.063 149.083 18.1819 148.981 18.2818C148.875 18.3832 148.749 18.4615 148.611 18.5118C148.457 18.5651 148.295 18.5921 148.131 18.5918C147.968 18.5929 147.806 18.5658 147.651 18.5118C147.518 18.4591 147.395 18.381 147.291 18.2818C147.183 18.1873 147.1 18.0668 147.051 17.9318C146.998 17.7947 146.971 17.6488 146.971 17.5018Z" fill="#4BC999"/>
<path d="M153.011 16.0818L154.441 10.8918H156.601L154.001 18.6018H152.031L149.431 10.8918H151.581L153.011 16.0818Z" fill="#4BC999"/>
<path d="M159.401 10.8918L159.461 11.7818C159.733 11.4533 160.074 11.1902 160.461 11.0118C160.857 10.8318 161.287 10.743 161.721 10.7518C162.061 10.7461 162.399 10.7968 162.721 10.9018C163.017 10.9995 163.282 11.1717 163.491 11.4018C163.724 11.6638 163.895 11.9748 163.991 12.3118C164.118 12.7639 164.175 13.2325 164.161 13.7018V18.6018H162.101V13.6818C162.111 13.4753 162.083 13.2689 162.021 13.0718C161.978 12.9224 161.895 12.7877 161.781 12.6818C161.672 12.586 161.542 12.5175 161.401 12.4818C161.228 12.4392 161.05 12.419 160.871 12.4218C160.607 12.4119 160.346 12.476 160.116 12.6067C159.886 12.7374 159.698 12.9297 159.571 13.1618V18.6018H157.511V10.8918H159.401Z" fill="#4BC999"/>
</svg>
