<svg width="200" height="153" viewBox="0 0 200 153" fill="none" xmlns="http://www.w3.org/2000/svg">
<path d="M129.659 132.11C129.659 132.11 109.648 144.514 100.844 130.908C92.0389 117.301 99.2416 113.298 90.4239 109.695C81.6061 106.091 64.8085 101.693 65.6074 94.4992C66.4062 87.3051 76.0272 80.4932 76.0272 70.0864C76.0272 59.6796 64.8693 36.8255 73.5829 29.0411C82.2964 21.2566 88.4354 29.6532 98.4428 21.2609C108.45 12.8686 113.638 0.855476 125.256 0.0479406C136.875 -0.759595 137.261 8.85268 146.066 12.4562C154.87 16.0597 170.882 5.24916 181.289 13.255C191.696 21.2609 188.891 42.4696 188.492 65.684C188.092 88.8985 205.962 105.097 196.793 112.139C187.623 119.181 134.461 116.099 129.659 132.11Z" fill="#DBF6ED"/>
<path d="M43.8824 151.938C62.0097 151.938 76.7048 149.229 76.7048 145.886C76.7048 142.544 62.0097 139.834 43.8824 139.834C25.7551 139.834 11.06 142.544 11.06 145.886C11.06 149.229 25.7551 151.938 43.8824 151.938Z" fill="#DBF6ED"/>
<path d="M142.345 152.815C174.027 152.815 199.71 149.87 199.71 146.238C199.71 142.605 174.027 139.66 142.345 139.66C110.663 139.66 84.9794 142.605 84.9794 146.238C84.9794 149.87 110.663 152.815 142.345 152.815Z" fill="#DBF6ED"/>
<path d="M180.88 23.6008V139.908C180.88 141.92 180.081 143.851 178.657 145.274C177.234 146.697 175.304 147.497 173.291 147.497H114.506C112.494 147.496 110.565 146.695 109.143 145.272C107.72 143.849 106.921 141.92 106.921 139.908V23.6008C106.921 21.5888 107.72 19.6592 109.143 18.236C110.565 16.8129 112.494 16.0129 114.506 16.0117H173.291C175.304 16.0129 177.233 16.8128 178.656 18.2358C180.079 19.6588 180.879 21.5884 180.88 23.6008Z" fill="#236852"/>
<path d="M149.968 142.704H137.838C137.086 142.703 136.366 142.404 135.835 141.872C135.303 141.341 135.004 140.62 135.003 139.869C135.003 139.117 135.302 138.396 135.833 137.864C136.365 137.332 137.086 137.034 137.838 137.034H149.968C150.341 137.034 150.709 137.107 151.053 137.25C151.396 137.392 151.709 137.601 151.972 137.864C152.234 138.128 152.443 138.44 152.585 138.784C152.727 139.128 152.8 139.497 152.799 139.869C152.799 140.62 152.501 141.34 151.97 141.872C151.44 142.403 150.72 142.703 149.968 142.704Z" fill="#4BC999"/>
<path d="M176.313 26.4707V129.475C176.312 130.452 175.923 131.388 175.232 132.078C174.541 132.769 173.604 133.156 172.627 133.156H115.171C114.195 133.155 113.259 132.767 112.569 132.077C111.879 131.387 111.49 130.451 111.489 129.475V26.4707C111.489 25.4938 111.877 24.5569 112.567 23.8658C113.258 23.1747 114.194 22.7858 115.171 22.7847H172.627C173.605 22.7847 174.543 23.173 175.234 23.8643C175.925 24.5555 176.313 25.4931 176.313 26.4707Z" fill="#37A07F"/>
<path d="M169.406 22.9714L111.489 118.881V26.4707C111.489 25.4938 111.877 24.5569 112.567 23.8658C113.258 23.1747 114.194 22.7858 115.171 22.7847H168.572L169.406 22.9714Z" fill="#4BC999"/>
<path d="M156.854 81.0244C164.007 73.8712 164.007 62.2734 156.854 55.1201C149.701 47.9668 138.103 47.9668 130.95 55.1201C123.796 62.2734 123.796 73.8712 130.95 81.0245C138.103 88.1777 149.701 88.1777 156.854 81.0244Z" fill="#236852"/>
<path d="M150.742 70.781L152.674 64.1905C152.722 64.0287 152.731 63.8579 152.702 63.6917C152.672 63.5256 152.604 63.3687 152.502 63.2336C152.401 63.0986 152.27 62.9891 152.118 62.914C151.967 62.8389 151.801 62.8003 151.632 62.8012L136.484 62.8273L136.119 60.3135H132.85C132.732 60.3135 132.619 60.3604 132.535 60.4438C132.452 60.5273 132.405 60.6405 132.405 60.7585C132.405 60.8765 132.452 60.9897 132.535 61.0732C132.619 61.1566 132.732 61.2035 132.85 61.2035H135.333L137.192 73.8245H152.153C152.268 73.8245 152.378 73.7787 152.46 73.6973C152.541 73.6159 152.587 73.5055 152.587 73.3903C152.587 73.2752 152.541 73.1648 152.46 73.0833C152.378 73.0019 152.268 72.9562 152.153 72.9562H137.947L137.747 71.5842H149.7C149.937 71.5822 150.168 71.5026 150.356 71.3576C150.544 71.2126 150.679 71.0102 150.742 70.781Z" fill="#E9E5FD"/>
<path d="M138.963 74.771C138.674 74.771 138.391 74.8568 138.15 75.0176C137.909 75.1783 137.722 75.4069 137.611 75.6742C137.5 75.9415 137.471 76.2357 137.528 76.5195C137.584 76.8034 137.724 77.0641 137.928 77.2687C138.133 77.4733 138.394 77.6127 138.677 77.6691C138.961 77.7256 139.255 77.6966 139.523 77.5859C139.79 77.4751 140.019 77.2876 140.179 77.047C140.34 76.8064 140.426 76.5235 140.426 76.2341C140.426 75.8461 140.272 75.4739 139.997 75.1995C139.723 74.9251 139.351 74.771 138.963 74.771Z" fill="#E9E5FD"/>
<path d="M150.434 74.771C150.144 74.771 149.861 74.8568 149.621 75.0176C149.38 75.1783 149.193 75.4069 149.082 75.6742C148.971 75.9415 148.942 76.2357 148.999 76.5195C149.055 76.8034 149.194 77.0641 149.399 77.2687C149.604 77.4733 149.864 77.6127 150.148 77.6691C150.432 77.7256 150.726 77.6966 150.993 77.5859C151.261 77.4751 151.489 77.2876 151.65 77.047C151.811 76.8064 151.897 76.5235 151.897 76.2341C151.897 75.8461 151.742 75.4739 151.468 75.1995C151.194 74.9251 150.822 74.771 150.434 74.771Z" fill="#E9E5FD"/>
<path d="M144.854 86.5843C144.796 86.5867 144.74 86.5662 144.697 86.5272C144.654 86.4882 144.628 86.4339 144.624 86.3759C144.623 86.3171 144.644 86.2599 144.684 86.2163C144.724 86.1727 144.778 86.1459 144.837 86.1415C145.414 86.1155 146.001 86.0547 146.574 85.9722C146.627 85.9712 146.68 85.9899 146.721 86.0245C146.762 86.0592 146.789 86.1076 146.796 86.1607C146.804 86.2138 146.793 86.268 146.764 86.3132C146.735 86.3584 146.69 86.3915 146.639 86.4063C146.049 86.4947 145.455 86.5527 144.859 86.58L144.854 86.5843ZM142.202 86.5322H142.176C141.585 86.4758 140.986 86.3933 140.404 86.2804C140.374 86.2767 140.345 86.2669 140.319 86.2515C140.293 86.2361 140.27 86.2156 140.253 86.1911C140.235 86.1666 140.222 86.1388 140.216 86.1092C140.209 86.0797 140.208 86.0491 140.214 86.0194C140.22 85.9896 140.231 85.9613 140.248 85.9363C140.265 85.9113 140.287 85.89 140.313 85.8737C140.338 85.8575 140.367 85.8467 140.397 85.842C140.427 85.8373 140.457 85.8387 140.487 85.8463C141.056 85.9548 141.637 86.0373 142.223 86.0894C142.282 86.096 142.335 86.125 142.373 86.1704C142.41 86.2158 142.428 86.274 142.423 86.3325C142.418 86.3874 142.392 86.4383 142.351 86.4752C142.31 86.5122 142.257 86.5325 142.202 86.5322ZM149.2 85.8332C149.146 85.8354 149.093 85.8176 149.051 85.7833C149.009 85.7489 148.982 85.7004 148.973 85.647C148.964 85.5935 148.976 85.5388 149.005 85.4931C149.034 85.4474 149.079 85.414 149.131 85.3991C149.687 85.2298 150.242 85.0344 150.781 84.813C150.835 84.7915 150.895 84.7922 150.949 84.8149C151.003 84.8377 151.045 84.8806 151.067 84.9345C151.079 84.9616 151.084 84.9906 151.084 85.02C151.084 85.0493 151.079 85.0783 151.067 85.1054C151.056 85.1325 151.039 85.157 151.018 85.1776C150.998 85.1982 150.973 85.2145 150.946 85.2254C150.399 85.4512 149.83 85.6596 149.261 85.8246L149.2 85.8332ZM137.886 85.5988C137.86 85.6029 137.834 85.6029 137.808 85.5988C137.244 85.4034 136.688 85.1646 136.15 84.9302C136.123 84.918 136.099 84.9007 136.079 84.8793C136.059 84.8578 136.044 84.8327 136.034 84.8052C136.024 84.7778 136.019 84.7486 136.02 84.7194C136.022 84.6901 136.029 84.6615 136.041 84.635C136.053 84.608 136.07 84.5836 136.091 84.5634C136.112 84.5432 136.138 84.5275 136.165 84.5174C136.193 84.5072 136.222 84.5028 136.252 84.5044C136.281 84.5059 136.31 84.5134 136.336 84.5264C136.862 84.7696 137.404 84.9866 137.956 85.1777C138.003 85.197 138.042 85.2316 138.067 85.276C138.092 85.3204 138.101 85.372 138.093 85.4223C138.085 85.4726 138.06 85.5187 138.023 85.5531C137.985 85.5875 137.937 85.6082 137.886 85.6118V85.5988ZM153.255 84.0575C153.215 84.0597 153.175 84.0507 153.14 84.0315C153.105 84.0123 153.076 83.9838 153.056 83.949C153.027 83.8981 153.019 83.8379 153.033 83.7812C153.048 83.7245 153.084 83.6757 153.134 83.6451C153.633 83.3499 154.124 83.0242 154.593 82.6813C154.64 82.6467 154.7 82.6326 154.758 82.6419C154.816 82.6513 154.868 82.6834 154.903 82.7312C154.938 82.779 154.952 82.8385 154.942 82.8967C154.933 82.955 154.901 83.0071 154.853 83.0416C154.375 83.3933 153.872 83.7232 153.36 84.0271C153.329 84.0476 153.292 84.0582 153.255 84.0575ZM133.94 83.6538C133.894 83.6536 133.849 83.6417 133.809 83.619C133.314 83.2934 132.824 82.9418 132.359 82.5684C132.337 82.5501 132.318 82.5276 132.303 82.502C132.289 82.4764 132.28 82.4483 132.277 82.4193C132.274 82.3902 132.277 82.3609 132.285 82.3328C132.293 82.3048 132.306 82.2786 132.325 82.2558C132.343 82.233 132.365 82.214 132.391 82.1999C132.417 82.1858 132.445 82.1769 132.474 82.1737C132.503 82.1704 132.532 82.173 132.56 82.1811C132.588 82.1892 132.614 82.2028 132.637 82.221C133.091 82.5863 133.564 82.9283 134.053 83.2457C134.077 83.2615 134.098 83.2821 134.115 83.3062C134.132 83.3303 134.143 83.3575 134.149 83.3862C134.156 83.4149 134.156 83.4445 134.15 83.4732C134.145 83.502 134.134 83.5295 134.118 83.5539C134.096 83.5849 134.068 83.6102 134.035 83.6276C134.001 83.645 133.964 83.654 133.927 83.6538H133.94ZM156.729 81.3658C156.685 81.3665 156.641 81.3541 156.604 81.3301C156.567 81.3061 156.538 81.2716 156.521 81.231C156.504 81.1904 156.499 81.1456 156.507 81.1024C156.516 81.0591 156.537 81.0193 156.568 80.988C157.002 80.5799 157.38 80.1501 157.753 79.6856C157.772 79.663 157.795 79.6444 157.821 79.6308C157.847 79.6172 157.876 79.6089 157.905 79.6063C157.934 79.6036 157.963 79.6068 157.991 79.6156C158.019 79.6243 158.045 79.6385 158.068 79.6573C158.091 79.6762 158.109 79.6992 158.123 79.7252C158.136 79.7512 158.145 79.7796 158.147 79.8089C158.15 79.8381 158.147 79.8676 158.138 79.8956C158.129 79.9236 158.115 79.9496 158.096 79.9721C157.71 80.4063 157.302 80.8708 156.881 81.2746C156.863 81.2992 156.84 81.32 156.814 81.3357C156.788 81.3514 156.759 81.3616 156.729 81.3658ZM130.532 80.8187C130.5 80.8191 130.469 80.8131 130.44 80.8012C130.411 80.7893 130.384 80.7716 130.362 80.7493C129.958 80.3151 129.568 79.8549 129.203 79.386C129.167 79.3394 129.15 79.2802 129.158 79.2216C129.165 79.163 129.195 79.1097 129.242 79.0734C129.289 79.0371 129.348 79.0209 129.406 79.0282C129.465 79.0355 129.518 79.0658 129.555 79.1125C129.911 79.5727 130.293 80.0199 130.688 80.4453C130.729 80.4868 130.752 80.543 130.752 80.6016C130.752 80.6602 130.729 80.7164 130.688 80.7579C130.647 80.7939 130.595 80.8153 130.54 80.8187H130.532ZM159.486 77.9185C159.443 77.9188 159.401 77.9084 159.364 77.8881C159.315 77.856 159.279 77.8061 159.266 77.7487C159.252 77.6914 159.261 77.6309 159.29 77.5799C159.598 77.085 159.881 76.5726 160.137 76.0517C160.164 75.9992 160.21 75.9593 160.266 75.9406C160.322 75.922 160.383 75.926 160.436 75.9518C160.463 75.9643 160.486 75.9819 160.505 76.0036C160.525 76.0254 160.539 76.0507 160.549 76.0783C160.558 76.1058 160.562 76.1349 160.56 76.1639C160.557 76.1929 160.549 76.2212 160.536 76.247C160.274 76.7841 159.984 77.3073 159.668 77.8143C159.65 77.8448 159.625 77.8702 159.594 77.8884C159.564 77.9066 159.53 77.917 159.494 77.9185H159.486ZM127.931 77.2673C127.89 77.2685 127.85 77.2586 127.815 77.2387C127.78 77.2188 127.751 77.1897 127.731 77.1544C127.438 76.6342 127.172 76.0995 126.932 75.5524C126.914 75.4999 126.917 75.4425 126.939 75.3917C126.961 75.3409 127.002 75.3002 127.052 75.2778C127.103 75.2555 127.161 75.253 127.213 75.2708C127.266 75.2887 127.31 75.3257 127.336 75.3744C127.571 75.904 127.835 76.4337 128.118 76.9373C128.146 76.9888 128.153 77.0493 128.138 77.1061C128.123 77.1628 128.086 77.2113 128.035 77.2412C128.003 77.258 127.967 77.267 127.931 77.2673ZM161.361 73.9199C161.337 73.9244 161.312 73.9244 161.287 73.9199C161.231 73.9011 161.185 73.8609 161.158 73.8081C161.131 73.7554 161.126 73.6942 161.144 73.6377C161.322 73.0863 161.474 72.5176 161.578 71.9532C161.584 71.9246 161.596 71.8976 161.613 71.8736C161.629 71.8496 161.651 71.8291 161.675 71.8134C161.7 71.7976 161.727 71.7869 161.756 71.7819C161.785 71.7768 161.815 71.7775 161.843 71.7839C161.871 71.7895 161.898 71.8008 161.922 71.8171C161.946 71.8333 161.967 71.8542 161.983 71.8785C161.998 71.9027 162.009 71.9299 162.014 71.9584C162.019 71.9869 162.019 72.0161 162.012 72.0444C161.886 72.6261 161.73 73.2079 161.548 73.781C161.531 73.8198 161.503 73.8529 161.467 73.876C161.432 73.8991 161.39 73.9114 161.348 73.9113L161.361 73.9199ZM126.264 73.1862C126.214 73.1881 126.165 73.1733 126.125 73.1442C126.085 73.115 126.056 73.0733 126.042 73.0256C125.886 72.4525 125.751 71.8664 125.652 71.2889C125.643 71.2309 125.657 71.1717 125.691 71.1239C125.725 71.0761 125.776 71.0434 125.834 71.0328C125.892 71.0239 125.951 71.038 125.999 71.072C126.047 71.1061 126.079 71.1574 126.09 71.2151C126.19 71.7882 126.316 72.3613 126.472 72.9214C126.487 72.9783 126.479 73.0388 126.45 73.0899C126.42 73.141 126.372 73.1787 126.316 73.1949L126.264 73.1862ZM162.195 69.587H162.173C162.144 69.5848 162.115 69.5769 162.089 69.5637C162.063 69.5505 162.04 69.5323 162.021 69.5101C162.002 69.4879 161.988 69.4622 161.979 69.4344C161.97 69.4066 161.967 69.3773 161.969 69.3482C162.008 68.7708 162.021 68.1847 162.004 67.6116V67.5378C162.003 67.5087 162.007 67.4797 162.017 67.4524C162.027 67.4251 162.043 67.4 162.062 67.3786C162.082 67.3573 162.106 67.34 162.132 67.3278C162.159 67.3157 162.187 67.3088 162.216 67.3077C162.246 67.3065 162.275 67.3113 162.303 67.3216C162.33 67.3319 162.356 67.3477 162.377 67.3679C162.399 67.3881 162.416 67.4124 162.428 67.4393C162.44 67.4663 162.446 67.4953 162.447 67.5248V67.5942C162.447 68.1934 162.447 68.7969 162.412 69.3873C162.403 69.4418 162.375 69.4912 162.333 69.5264C162.291 69.5616 162.237 69.5801 162.182 69.5783L162.195 69.587ZM125.612 68.8055C125.584 68.8085 125.555 68.8057 125.528 68.7971C125.501 68.7885 125.476 68.7744 125.454 68.7557C125.432 68.737 125.415 68.714 125.403 68.6882C125.39 68.6624 125.383 68.6344 125.382 68.6058V68.5841C125.382 67.998 125.382 67.4119 125.417 66.8475C125.419 66.8184 125.427 66.79 125.44 66.764C125.454 66.7379 125.472 66.7148 125.494 66.6958C125.516 66.6768 125.542 66.6624 125.57 66.6535C125.598 66.6445 125.627 66.6411 125.656 66.6434C125.685 66.6451 125.713 66.6525 125.739 66.6652C125.765 66.678 125.788 66.6958 125.807 66.7176C125.826 66.7395 125.841 66.7649 125.85 66.7924C125.859 66.82 125.862 66.849 125.86 66.8779C125.821 67.4423 125.812 68.0197 125.825 68.5885C125.818 68.6442 125.792 68.6957 125.75 68.7338C125.709 68.7719 125.656 68.7942 125.599 68.7969L125.612 68.8055ZM161.939 65.1109C161.885 65.1118 161.834 65.0941 161.792 65.0608C161.751 65.0274 161.723 64.9806 161.713 64.9285C161.613 64.3554 161.483 63.7823 161.326 63.2223C161.318 63.192 161.316 63.1603 161.321 63.1293C161.325 63.0982 161.336 63.0684 161.353 63.0419C161.37 63.0153 161.392 62.9925 161.418 62.975C161.444 62.9575 161.473 62.9456 161.504 62.9401C161.561 62.9253 161.622 62.9334 161.673 62.9626C161.724 62.9918 161.762 63.0398 161.778 63.0964C161.934 63.6651 162.069 64.2556 162.173 64.833C162.178 64.8618 162.177 64.8913 162.171 64.9198C162.164 64.9483 162.152 64.9752 162.135 64.9991C162.118 65.0229 162.097 65.0431 162.072 65.0586C162.047 65.074 162.019 65.0844 161.991 65.0891L161.939 65.1109ZM125.99 64.4336H125.938C125.91 64.4274 125.882 64.4156 125.858 64.399C125.834 64.3823 125.814 64.361 125.798 64.3364C125.783 64.3118 125.772 64.2843 125.767 64.2555C125.762 64.2267 125.762 64.1972 125.769 64.1687C125.895 63.587 126.051 63.0008 126.229 62.4321C126.248 62.376 126.288 62.3295 126.341 62.3027C126.394 62.2759 126.455 62.2709 126.511 62.2888C126.567 62.3077 126.614 62.3478 126.641 62.4006C126.667 62.4534 126.672 62.5146 126.654 62.571C126.481 63.1247 126.336 63.687 126.22 64.2556C126.207 64.3037 126.178 64.346 126.138 64.3758C126.098 64.4057 126.049 64.4214 125.999 64.4205L125.99 64.4336ZM160.653 60.8865C160.61 60.8884 160.566 60.8769 160.529 60.8537C160.492 60.8304 160.463 60.7965 160.445 60.7562C160.211 60.2266 159.946 59.7012 159.659 59.1933C159.63 59.142 159.623 59.0815 159.639 59.0249C159.655 58.9683 159.693 58.9203 159.744 58.8915C159.795 58.8627 159.856 58.8555 159.912 58.8714C159.969 58.8872 160.017 58.925 160.046 58.9762C160.337 59.4972 160.61 60.0355 160.849 60.5739C160.861 60.6007 160.868 60.6296 160.869 60.659C160.87 60.6884 160.865 60.7177 160.854 60.7452C160.844 60.7727 160.828 60.7978 160.808 60.8191C160.787 60.8404 160.763 60.8574 160.736 60.8691C160.712 60.8755 160.687 60.877 160.662 60.8735L160.653 60.8865ZM127.44 60.2613C127.404 60.263 127.368 60.2555 127.336 60.2396C127.283 60.2143 127.242 60.1689 127.223 60.1136C127.203 60.0582 127.207 59.9973 127.232 59.9444C127.492 59.4104 127.783 58.885 128.1 58.3727C128.135 58.3295 128.183 58.3003 128.238 58.2907C128.292 58.2811 128.348 58.2918 128.395 58.3206C128.442 58.3495 128.477 58.3946 128.493 58.4474C128.509 58.5002 128.505 58.557 128.482 58.6072C128.174 59.1021 127.892 59.6187 127.636 60.1397C127.617 60.1725 127.59 60.1998 127.557 60.2189C127.524 60.2379 127.487 60.2481 127.449 60.2483L127.44 60.2613ZM158.391 57.1006C158.356 57.101 158.322 57.0933 158.29 57.0783C158.259 57.0632 158.231 57.0412 158.209 57.0138C157.852 56.5522 157.473 56.1088 157.072 55.6853C157.031 55.6432 157.009 55.5872 157.009 55.529C157.009 55.4707 157.031 55.4147 157.072 55.3727C157.092 55.3515 157.117 55.3347 157.144 55.3233C157.171 55.3118 157.201 55.3059 157.23 55.3059C157.26 55.3059 157.289 55.3118 157.316 55.3233C157.343 55.3347 157.368 55.3515 157.389 55.3727C157.797 55.8068 158.187 56.2627 158.552 56.7316C158.588 56.7785 158.603 56.8374 158.596 56.8958C158.589 56.9542 158.559 57.0075 158.513 57.0442C158.48 57.0691 158.441 57.0841 158.4 57.0876L158.391 57.1006ZM129.846 56.5623C129.79 56.5623 129.737 56.544 129.694 56.5102C129.65 56.4716 129.622 56.4175 129.617 56.3591C129.613 56.3008 129.631 56.2429 129.668 56.1976C130.05 55.7417 130.458 55.2989 130.879 54.8951C130.921 54.8535 130.978 54.8301 131.037 54.8301C131.097 54.8301 131.154 54.8535 131.196 54.8951C131.237 54.9366 131.26 54.9928 131.26 55.0514C131.26 55.11 131.237 55.1662 131.196 55.2077C130.783 55.6158 130.384 56.05 130.011 56.5102C129.965 56.5428 129.909 56.5568 129.854 56.5492L129.846 56.5623ZM155.287 53.9573C155.235 53.9564 155.185 53.9381 155.144 53.9052C154.688 53.5449 154.211 53.2019 153.724 52.8849C153.698 52.8699 153.675 52.8497 153.657 52.8255C153.639 52.8013 153.626 52.7736 153.619 52.7442C153.612 52.7147 153.611 52.6841 153.616 52.6543C153.621 52.6245 153.632 52.5961 153.649 52.5708C153.666 52.5455 153.687 52.5239 153.713 52.5073C153.738 52.4907 153.767 52.4795 153.796 52.4744C153.826 52.4693 153.857 52.4703 153.886 52.4774C153.916 52.4846 153.943 52.4977 153.967 52.5159C154.467 52.8372 154.953 53.1889 155.422 53.5579C155.445 53.5761 155.464 53.5986 155.478 53.6242C155.492 53.6498 155.501 53.6779 155.504 53.707C155.508 53.736 155.505 53.7654 155.497 53.7935C155.489 53.8216 155.475 53.8477 155.457 53.8705C155.437 53.8938 155.412 53.9127 155.384 53.9261C155.357 53.9396 155.327 53.9472 155.296 53.9486L155.287 53.9573ZM133.063 53.5232C133.016 53.5232 132.97 53.5085 132.931 53.4812C132.893 53.4539 132.864 53.4153 132.849 53.3709C132.834 53.3264 132.833 53.2783 132.846 53.2332C132.86 53.1881 132.887 53.1483 132.924 53.1194C133.401 52.7677 133.905 52.4334 134.413 52.1295C134.464 52.1004 134.525 52.0922 134.583 52.1068C134.64 52.1213 134.69 52.1575 134.721 52.2077C134.75 52.2586 134.758 52.3187 134.744 52.3754C134.729 52.4321 134.693 52.4809 134.643 52.5116C134.144 52.8111 133.653 53.1368 133.184 53.4797C133.151 53.505 133.112 53.5215 133.071 53.5275L133.063 53.5232ZM151.519 51.6519C151.486 51.6582 151.452 51.6582 151.419 51.6519C150.89 51.4077 150.35 51.1903 149.799 51.0007C149.771 50.9913 149.745 50.9764 149.722 50.9568C149.699 50.9372 149.68 50.9133 149.667 50.8865C149.64 50.8323 149.635 50.7696 149.654 50.712C149.673 50.6544 149.714 50.6067 149.768 50.5795C149.822 50.5522 149.885 50.5475 149.943 50.5665C150.503 50.7619 151.063 51.0007 151.606 51.2351C151.632 51.2469 151.656 51.2637 151.676 51.2848C151.696 51.3058 151.711 51.3306 151.721 51.3577C151.731 51.3848 151.736 51.4137 151.735 51.4426C151.733 51.4715 151.726 51.4999 151.714 51.526C151.697 51.5637 151.67 51.5957 151.635 51.618C151.6 51.6404 151.56 51.6522 151.519 51.6519ZM136.896 51.3784C136.851 51.3793 136.806 51.3665 136.769 51.3417C136.731 51.3169 136.701 51.2813 136.684 51.2395C136.662 51.1847 136.662 51.1237 136.685 51.0693C136.708 51.015 136.751 50.9716 136.805 50.9486C137.356 50.7228 137.921 50.5144 138.49 50.3451C138.547 50.3278 138.609 50.3342 138.662 50.3627C138.715 50.3911 138.755 50.4395 138.772 50.4971C138.789 50.5546 138.783 50.6167 138.754 50.6696C138.726 50.7226 138.677 50.762 138.62 50.7793C138.064 50.9486 137.513 51.1483 136.974 51.3697L136.896 51.3784ZM147.316 50.3104H147.268C146.7 50.2062 146.118 50.1237 145.532 50.0716C145.473 50.065 145.42 50.036 145.383 49.9906C145.345 49.9452 145.327 49.887 145.332 49.8285C145.339 49.7701 145.368 49.7166 145.413 49.6793C145.458 49.642 145.517 49.6239 145.575 49.6288C146.166 49.6809 146.765 49.7677 147.346 49.8762C147.375 49.8814 147.403 49.8923 147.428 49.9083C147.452 49.9243 147.473 49.945 147.49 49.9692C147.507 49.9935 147.518 50.0207 147.524 50.0495C147.53 50.0783 147.53 50.1079 147.524 50.1367C147.512 50.1798 147.487 50.2179 147.452 50.2459C147.417 50.2738 147.374 50.2903 147.329 50.293L147.316 50.3104ZM141.151 50.1975C141.097 50.1983 141.045 50.18 141.004 50.1458C140.962 50.1115 140.935 50.0637 140.925 50.0108C140.917 49.9522 140.931 49.8924 140.966 49.8445C141.001 49.7965 141.053 49.7643 141.112 49.7547C141.702 49.6678 142.302 49.6071 142.896 49.5767C142.947 49.5867 142.992 49.6139 143.024 49.6534C143.056 49.693 143.074 49.7426 143.074 49.7937C143.074 49.8449 143.056 49.8945 143.024 49.934C142.992 49.9736 142.947 50.0007 142.896 50.0108C142.315 50.0412 141.733 50.102 141.16 50.1888L141.151 50.1975Z" fill="#E9E5FD"/>
<path d="M143.903 93.3052C147.265 93.3052 149.99 90.58 149.99 87.2183C149.99 83.8565 147.265 81.1313 143.903 81.1313C140.542 81.1313 137.816 83.8565 137.816 87.2183C137.816 90.58 140.542 93.3052 143.903 93.3052Z" fill="#FFAA00"/>
<path d="M142.619 90.2573L140.114 87.6871C140.04 87.6131 139.999 87.5133 139.999 87.4092C139.999 87.3052 140.04 87.2053 140.114 87.1314L140.656 86.5757C140.692 86.5386 140.734 86.5091 140.781 86.489C140.828 86.4688 140.879 86.4584 140.93 86.4584C140.981 86.4584 141.032 86.4688 141.079 86.489C141.126 86.5091 141.168 86.5386 141.203 86.5757L142.888 88.3123L146.504 84.6263C146.54 84.5904 146.582 84.562 146.629 84.5426C146.675 84.5232 146.725 84.5132 146.776 84.5132C146.826 84.5132 146.876 84.5232 146.923 84.5426C146.969 84.562 147.012 84.5904 147.047 84.6263L147.594 85.182C147.667 85.256 147.708 85.3558 147.708 85.4599C147.708 85.5639 147.667 85.6638 147.594 85.7377L143.161 90.2617C143.126 90.2972 143.083 90.3253 143.036 90.3444C142.99 90.3634 142.94 90.373 142.889 90.3726C142.839 90.3722 142.789 90.3618 142.742 90.342C142.696 90.3222 142.654 90.2934 142.619 90.2573Z" fill="#FDFDFF"/>
<path d="M47.7553 79.5381C47.1996 80.9404 49.2184 88.0476 50.9985 88.3689C51.0332 88.3341 43.583 89.8667 40.4441 89.3501C37.3051 88.8334 35.8897 87.6872 35.8897 87.6872C37.4657 84.9347 38.2776 82.6857 38.2299 79.7031L47.7553 79.5381Z" fill="#E2B9A3"/>
<path d="M59.5508 112.391C59.5508 112.391 52.4089 112.33 44.4551 112.326V112.278C35.7242 112.386 27.3102 112.577 27.3102 112.577C27.2321 113.337 28.5302 119.09 31.8515 121.221L33.0151 147.002L37.5911 147.102C37.5911 147.102 39.4102 130.491 41.5767 123.631C41.9848 122.481 42.1671 121.53 43.0919 121.46C44.1165 121.517 44.1165 122.359 44.746 123.631C46.9776 130.46 49.6043 147.041 49.6043 147.041L54.1803 146.88L54.4451 121.087C57.7404 118.946 59.6377 113.15 59.5508 112.391Z" fill="#1C1714"/>
<path d="M44.4545 112.326V112.278C35.7236 112.386 27.3096 112.577 27.3096 112.577C27.3695 113.472 27.5149 114.359 27.7437 115.226H58.6993C59.2699 114.393 59.5617 113.4 59.5328 112.391C59.5328 112.391 52.4083 112.33 44.4545 112.326Z" fill="black"/>
<path d="M53.798 142.825C50.7111 142.825 48.2147 144.931 48.2147 147.527V147.644H59.3813C59.3834 147.605 59.3834 147.566 59.3813 147.527C59.3813 144.922 56.8805 142.825 53.7936 142.825H53.798Z" fill="black"/>
<path d="M33.783 142.921C30.7005 142.921 28.1997 145.027 28.1997 147.623V147.744H39.3706V147.623C39.3706 145.018 36.8699 142.921 33.783 142.921Z" fill="black"/>
<path d="M57.6277 145.27C57.1936 144.644 56.538 144.38 55.2268 144.171C54.975 144.132 54.8665 143.772 55.1965 143.793C57.9881 143.98 57.771 145.474 57.6277 145.27Z" fill="#3C3B3D"/>
<path d="M37.9778 145.708C37.5436 145.087 36.888 144.818 35.5769 144.614C35.3251 144.575 35.2165 144.21 35.5465 144.232C38.3381 144.423 38.121 145.916 37.9778 145.708Z" fill="#3C3B3D"/>
<path d="M60.3887 85.3169C61.8952 86.9189 63.5277 109.382 60.6145 112.825C59.312 114.662 38.4724 114.162 28.3739 114.236C26.1466 114.236 25.1003 110.763 25.0569 108.158C25.0569 108.158 21.8354 90.4833 25.2132 85.6034C26.9107 83.1504 30.7096 82.4036 38.1337 82.1301C39.0628 82.0997 38.4377 85.3125 42.6056 85.3038C46.1223 85.3038 46.8647 82.0303 47.9414 82.0303C55.4306 82.0433 57.6969 82.4775 60.3887 85.3169Z" fill="#236852"/>
<path d="M41.582 82.7123C41.4799 82.9037 38.2888 89.9752 38.1782 89.7369C38.0676 89.4986 34 84.0312 34 84.0312C34 84.0312 36.3869 81.2614 36.4167 81.2656L41.582 82.7123Z" fill="#37A07F"/>
<path d="M43.6377 82.4466C43.7398 82.6381 46.9351 89.7095 47.0415 89.4713C47.1479 89.233 51.2197 83.7656 51.2197 83.7656C51.2197 83.7656 48.8285 80.9958 48.803 81L43.6377 82.4466Z" fill="#37A07F"/>
<path d="M22.9295 49.4467C22.9295 51.6739 20.8152 69.6698 26.4896 75.6872C31.2307 81.4529 46.6867 82.5252 56.8156 76.6076C61.8779 74.502 62.9633 48.6608 62.9633 48.6608C62.7679 46.3902 61.7737 43.9459 56.4509 40.7722C46.6824 34.2945 36.5231 37.1209 28.1395 41.0674C28.1438 41.0674 22.9339 43.6376 22.9295 49.4467Z" fill="url(#paint0_linear)"/>
<path d="M46.3307 55.0471C50.1426 54.5348 53.5551 54.6129 55.8822 55.503C57.1847 55.7417 57.4669 53.7663 55.9213 53.3322C52.8444 52.4928 49.6144 52.3813 46.487 53.0065C44.7677 53.3061 44.5203 55.2902 46.3307 55.0471Z" fill="#4E1E05"/>
<path d="M37.1962 54.6432C34.1919 53.5014 31.4219 52.9847 29.4161 53.5014C28.3394 53.5014 28.3958 51.5477 29.7157 51.3306C32.1557 50.9615 34.8344 51.4521 37.396 52.581C38.7288 53.1888 38.6376 55.1816 37.1962 54.6432Z" fill="#4E1E05"/>
<path d="M50.2206 61.1382C49.6916 61.0891 49.1893 60.8836 48.7775 60.5478C48.3658 60.2121 48.0634 59.7613 47.9089 59.253C47.7544 58.7447 47.7548 58.2019 47.91 57.6938C48.0653 57.1857 48.3683 56.7354 48.7805 56.4002C49.1927 56.065 49.6953 55.8602 50.2244 55.8119C50.7534 55.7635 51.2849 55.8739 51.751 56.1288C52.2171 56.3837 52.5968 56.7717 52.8415 57.2432C53.0862 57.7147 53.185 58.2485 53.1252 58.7764C53.0507 59.4736 52.7036 60.1132 52.1595 60.5556C51.6154 60.9981 50.9185 61.2075 50.2206 61.1382Z" fill="#E8B79D"/>
<path d="M50.2248 60.6175C49.7646 60.5539 49.3333 60.356 48.985 60.0486C48.6366 59.7411 48.3867 59.3378 48.2665 58.889C48.1463 58.4402 48.1611 57.9659 48.3091 57.5255C48.4571 57.0851 48.7317 56.6982 49.0985 56.413C49.4653 56.1279 49.9081 55.9573 50.3714 55.9226C50.8347 55.8879 51.298 55.9906 51.7032 56.2179C52.1084 56.4451 52.4376 56.7869 52.6496 57.2003C52.8615 57.6137 52.9469 58.0805 52.8949 58.5422C52.8147 59.1708 52.4887 59.7422 51.9883 60.1311C51.4879 60.52 50.8538 60.6949 50.2248 60.6175Z" fill="black"/>
<path d="M48.5362 58.0689C48.4866 58.4239 48.544 58.7857 48.7011 59.1079C48.8582 59.4301 49.1079 59.6982 49.4182 59.8777C49.7284 60.0573 50.0852 60.1402 50.4429 60.1159C50.8005 60.0916 51.1428 59.9611 51.4259 59.7412C51.709 59.5213 51.9201 59.2219 52.0321 58.8813C52.1442 58.5408 52.1521 58.1746 52.0548 57.8296C51.9576 57.4845 51.7596 57.1763 51.4863 56.9444C51.2129 56.7125 50.8766 56.5674 50.5203 56.5276C50.2888 56.4984 50.0538 56.5152 49.8288 56.5768C49.6038 56.6385 49.3931 56.7439 49.2088 56.8871C49.0246 57.0302 48.8703 57.2083 48.7549 57.411C48.6395 57.6138 48.5652 57.8374 48.5362 58.0689Z" fill="#111111"/>
<path d="M50.4337 59.2192C50.2852 59.2088 50.1431 59.1543 50.0258 59.0625C49.9085 58.9708 49.8213 58.8461 49.7754 58.7044C49.7296 58.5627 49.7271 58.4106 49.7683 58.2675C49.8096 58.1244 49.8926 57.9969 50.0069 57.9014C50.1211 57.8059 50.2613 57.7467 50.4094 57.7315C50.5576 57.7162 50.7069 57.7456 50.8382 57.8159C50.9695 57.8861 51.0768 57.9941 51.1463 58.1257C51.2158 58.2574 51.2443 58.4069 51.2282 58.555C51.2206 58.6511 51.1939 58.7448 51.1497 58.8304C51.1054 58.9161 51.0445 58.9921 50.9705 59.054C50.8965 59.1158 50.8109 59.1623 50.7188 59.1907C50.6266 59.2191 50.5297 59.2288 50.4337 59.2192Z" fill="white"/>
<path d="M32.0559 60.7691C31.5272 60.7192 31.0253 60.513 30.6142 60.1768C30.2031 59.8406 29.9014 59.3896 29.7476 58.8813C29.5937 58.373 29.5947 57.8305 29.7503 57.3227C29.906 56.815 30.2092 56.3651 30.6215 56.0303C31.0338 55.6956 31.5364 55.4912 32.0653 55.4431C32.5942 55.395 33.1254 55.5055 33.5912 55.7605C34.0571 56.0155 34.4365 56.4033 34.6811 56.8747C34.9257 57.3461 35.0245 57.8796 34.9647 58.4073C34.8903 59.1054 34.5425 59.7457 33.9975 60.1882C33.4525 60.6308 32.7544 60.8396 32.0559 60.7691Z" fill="#E8B79D"/>
<path d="M32.0645 60.2357C31.6038 60.1728 31.1719 59.9753 30.823 59.6681C30.474 59.3608 30.2235 58.9573 30.1029 58.5083C29.9823 58.0592 29.9969 57.5845 30.1449 57.1437C30.2929 56.7029 30.5677 56.3156 30.9349 56.0304C31.3021 55.7451 31.7453 55.5746 32.209 55.5402C32.6727 55.5057 33.1362 55.609 33.5415 55.8369C33.9468 56.0648 34.2758 56.4073 34.4873 56.8214C34.6987 57.2355 34.7833 57.7028 34.7303 58.1647C34.6501 58.7922 34.3246 59.3624 33.825 59.7506C33.3254 60.1387 32.6924 60.3131 32.0645 60.2357Z" fill="black"/>
<path d="M30.3882 57.6866C30.3387 58.0415 30.3961 58.403 30.5531 58.7251C30.7101 59.0471 30.9596 59.315 31.2696 59.4946C31.5796 59.6742 31.9362 59.7573 32.2936 59.7332C32.6511 59.7092 32.9933 59.5791 33.2765 59.3596C33.5597 59.1401 33.771 58.8412 33.8834 58.501C33.9959 58.1608 34.0043 57.7948 33.9077 57.4498C33.8111 57.1048 33.6139 56.7964 33.3412 56.564C33.0684 56.3317 32.7326 56.1859 32.3767 56.1454C32.1448 56.1156 31.9094 56.1318 31.6839 56.1932C31.4583 56.2546 31.2471 56.3599 31.0624 56.5031C30.8777 56.6463 30.723 56.8245 30.6073 57.0276C30.4916 57.2307 30.4172 57.4547 30.3882 57.6866Z" fill="#111111"/>
<path d="M32.125 58.6289C31.9755 58.6219 31.8315 58.5702 31.7118 58.4803C31.592 58.3905 31.502 58.2668 31.4535 58.1252C31.405 57.9836 31.4001 57.8306 31.4395 57.6862C31.479 57.5418 31.5609 57.4126 31.6747 57.3153C31.7885 57.2181 31.9289 57.1573 32.0777 57.1408C32.2264 57.1243 32.3768 57.1529 32.5091 57.2229C32.6414 57.2929 32.7496 57.401 32.8197 57.5333C32.8898 57.6656 32.9185 57.8159 32.9022 57.9647C32.8866 58.1556 32.7962 58.3326 32.6506 58.4571C32.505 58.5815 32.316 58.6433 32.125 58.6289Z" fill="white"/>
<path d="M48.1884 68.519C47.4633 75.2267 34.7294 74.8664 35.016 68.1543C38.9234 70.7245 42.4271 70.0168 48.1884 68.519Z" fill="#E8B79D"/>
<path d="M34.9987 68.1499C34.9987 68.3366 34.9987 68.5146 34.9987 68.6926C36.2751 74.7014 47.1552 74.7317 48.1494 68.5276C42.4532 68.8706 38.9626 69.5826 35.0074 68.1499H34.9987Z" fill="#320000"/>
<path d="M8.70643 58.6812C8.70643 58.6812 10.7166 56.9446 11.0118 56.0763C11.307 55.2079 10.9641 53.4366 10.4908 53.1631C10.0176 52.8895 11.0292 52.2947 8.9539 50.7925C8.08558 50.1587 7.16083 49.629 6.24041 50.2325C5.92782 50.4409 5.37209 50.2759 4.72086 50.4365C4.31275 50.5364 4.00015 50.9011 3.58336 51.0617C2.96251 51.3005 2.63255 51.6609 2.28088 51.8041C1.9174 51.9624 1.56365 52.1422 1.22154 52.3425C0.101408 52.9547 -0.280651 53.7535 0.209948 55.3382C1.62965 57.0748 1.66004 57.9431 4.76427 59.8795C6.18018 59.9715 7.58126 59.5456 8.70643 58.6812Z" fill="url(#paint1_linear)"/>
<path d="M5.35024 50.8706L8.48053 52.4206C8.48053 52.4206 8.26345 54.5436 8.8843 54.7477C9.3749 54.9126 10.1347 54.8606 10.1868 54.3439L10.2997 52.6073C10.33 52.0863 10.4473 51.5783 10.0001 51.3048L7.06517 49.5682C6.63101 49.3033 5.7844 48.969 5.42839 49.3467L5.0637 49.7331C4.9879 49.8214 4.93474 49.9268 4.90881 50.0402C4.88289 50.1536 4.88498 50.2717 4.9149 50.3841C4.94483 50.4965 5.00169 50.6 5.08056 50.6855C5.15944 50.771 5.25796 50.8361 5.36761 50.875L5.35024 50.8706Z" fill="url(#paint2_linear)"/>
<path d="M3.90479 51.6908L7.03508 53.2408C7.03508 53.2408 6.818 55.3681 7.43884 55.5722C7.92944 55.7328 8.68922 55.6851 8.74132 55.1641L8.8542 53.4274C8.88459 52.9108 9.00182 52.4028 8.55463 52.125L5.61972 50.3883C5.18556 50.1235 4.33895 49.7849 3.98294 50.1626L3.61825 50.5533C3.54238 50.6412 3.48914 50.7463 3.46317 50.8594C3.4372 50.9725 3.43929 51.0903 3.46925 51.2025C3.49921 51.3146 3.55615 51.4178 3.63509 51.5029C3.71402 51.588 3.81258 51.6525 3.92216 51.6908H3.90479Z" fill="url(#paint3_linear)"/>
<path d="M2.28914 52.5897L5.41942 54.1397C5.41942 54.1397 5.20234 56.2671 5.82319 56.4711C6.31379 56.6318 7.07357 56.584 7.12567 56.063L7.23421 54.3264C7.26894 53.8097 7.38616 53.3018 6.93898 53.0239L4.00407 51.2873C3.56991 51.0224 2.7233 50.6838 2.36729 51.0615L2.00259 51.4522C1.92672 51.5401 1.87348 51.6452 1.84751 51.7583C1.82154 51.8715 1.82363 51.9892 1.8536 52.1014C1.88356 52.2136 1.94049 52.3167 2.01943 52.4018C2.09837 52.4869 2.19692 52.5514 2.30651 52.5897H2.28914Z" fill="url(#paint4_linear)"/>
<path d="M3.67068 55.2556C3.67068 55.2556 3.67068 57.1702 4.28719 57.3743C4.77779 57.5349 5.53757 57.4828 5.58966 56.9662L5.6982 55.2295C5.73294 54.7129 5.85016 54.2006 5.40298 53.9271L2.46806 52.1904C1.48687 51.804 1.12651 51.6521 0.466593 52.3554C0.110583 52.7288 -0.310551 54.1659 0.405811 54.6174C1.12217 55.0689 2.16849 55.2947 3.67068 55.2556Z" fill="url(#paint5_linear)"/>
<path d="M9.65766 52.9545L6.89641 55.6984C6.68055 55.9058 6.54981 56.1862 6.52974 56.4849C6.50967 56.7836 6.60171 57.079 6.78787 57.3134L7.10481 57.6912C7.19753 57.8002 7.31116 57.8896 7.439 57.9541C7.56683 58.0186 7.70628 58.0568 7.84912 58.0665C7.99196 58.0762 8.13529 58.0572 8.27068 58.0107C8.40606 57.9641 8.53075 57.8909 8.63739 57.7953L11.4985 55.5594C11.9804 55.1774 11.8979 53.94 11.4985 53.4624L11.1859 53.0847C11.0965 52.9707 10.9842 52.8768 10.8562 52.809C10.7282 52.7413 10.5873 52.7012 10.4428 52.6913C10.2983 52.6815 10.1533 52.7022 10.0173 52.752C9.88131 52.8018 9.75729 52.8797 9.65332 52.9805L9.65766 52.9545Z" fill="url(#paint6_linear)"/>
<path d="M31.6907 83.1806C31.6907 83.1806 20.281 76.0864 15.7136 70.4207C13.4126 67.5682 9.34886 57.8691 9.34886 57.8691C9.34886 57.8691 5.00727 58.1687 3.38786 58.8373C3.95661 61.1514 4.81625 69.535 10.2302 75.6349C13.1564 78.9302 24.4967 88.486 24.4967 88.4556L31.6907 83.1806Z" fill="#236852"/>
<path d="M10.1692 57.6826C7.47219 57.6861 4.79251 58.1139 2.22846 58.9504L3.82182 62.7058C3.96944 62.6798 10.7423 60.6609 10.7423 60.6609L10.1692 57.6826Z" fill="#37A07F"/>
<path d="M76.6044 59.962C76.6044 59.962 74.5899 58.2254 74.299 57.3571C74.0081 56.4887 74.3424 54.7174 74.82 54.4482C75.2976 54.179 74.2773 53.5799 76.3526 52.0734C77.2209 51.4395 78.1457 50.9098 79.0704 51.5176C79.383 51.7217 79.9387 51.5567 80.59 51.7173C80.9981 51.8215 81.3063 52.1862 81.7231 52.3425C82.344 52.5857 82.6783 52.946 83.0256 53.0849C83.3878 53.2459 83.7414 53.4255 84.0849 53.6233C85.192 54.2268 85.5784 55.0473 85.0835 56.6277C83.6638 58.3643 83.6378 59.2326 80.5292 61.1733C79.1143 61.2618 77.7153 60.8346 76.5914 59.9707L76.6044 59.962Z" fill="url(#paint7_linear)"/>
<path d="M79.9561 52.1515L76.8301 53.7014C76.8301 53.7014 77.0429 55.8244 76.4264 56.0285C75.9314 56.1935 75.1717 56.1414 75.1239 55.6247L75.011 53.8881C74.9763 53.3714 74.8634 52.8591 75.3062 52.5856L78.2412 50.849C78.6753 50.5885 79.5436 50.2498 79.8779 50.6276L80.247 51.014C80.3227 51.1025 80.3757 51.2082 80.4013 51.3219C80.4269 51.4355 80.4245 51.5537 80.3941 51.6662C80.3637 51.7787 80.3064 51.8821 80.227 51.9674C80.1477 52.0527 80.0487 52.1174 79.9387 52.1558L79.9561 52.1515Z" fill="url(#paint8_linear)"/>
<path d="M81.4196 52.9766L78.2937 54.5265C78.2937 54.5265 78.5064 56.6496 77.8899 56.8536C77.395 57.0186 76.6352 56.9665 76.5875 56.4499L76.4746 54.7132C76.4398 54.1922 76.327 53.6843 76.7698 53.4108L79.7047 51.6741C80.1389 51.4093 81.0072 51.075 81.3415 51.4527L81.7105 51.8391C81.7863 51.9277 81.8392 52.0333 81.8649 52.147C81.8905 52.2607 81.888 52.3789 81.8577 52.4913C81.8273 52.6038 81.77 52.7072 81.6906 52.7925C81.6113 52.8778 81.5123 52.9425 81.4023 52.9809L81.4196 52.9766Z" fill="url(#paint9_linear)"/>
<path d="M83.0214 53.875L79.8824 55.425C79.8824 55.425 80.0995 57.548 79.4787 57.7521C78.9881 57.917 78.2239 57.8649 78.1762 57.3483L78.0633 55.6117C78.0329 55.0907 77.9157 54.5827 78.3585 54.3092L81.2978 52.5726C81.7319 52.3077 82.6003 51.9734 82.9346 52.3511L83.2992 52.7375C83.375 52.8258 83.4282 52.9312 83.4541 53.0446C83.4801 53.158 83.478 53.2761 83.448 53.3885C83.4181 53.5009 83.3613 53.6044 83.2824 53.6899C83.2035 53.7754 83.105 53.8405 82.9953 53.8794L83.0214 53.875Z" fill="url(#paint10_linear)"/>
<path d="M81.6401 56.5364C81.6401 56.5364 81.6401 58.4511 81.0236 58.6551C80.5287 58.8157 79.7689 58.768 79.7212 58.2513L79.6083 56.5147C79.5779 55.9981 79.4607 55.4901 79.9035 55.2122L82.8428 53.4756C83.824 53.0892 84.18 52.9372 84.8442 53.6406C85.2002 54.0183 85.6214 55.451 84.9007 55.9025C84.18 56.3541 83.1293 56.5798 81.6401 56.5364Z" fill="url(#paint11_linear)"/>
<path d="M75.6536 54.257L78.4105 57.0052C78.6264 57.2126 78.7571 57.4931 78.7772 57.7918C78.7973 58.0905 78.7052 58.3859 78.5191 58.6203L78.2065 58.998C78.1135 59.1068 77.9996 59.1958 77.8716 59.2599C77.7436 59.324 77.6041 59.3618 77.4613 59.3711C77.3184 59.3804 77.1752 59.361 77.04 59.3141C76.9047 59.2672 76.7803 59.1937 76.6739 59.0979L73.8128 56.8402C73.3265 56.4538 73.409 55.2165 73.8128 54.7389L74.1254 54.3612C74.2156 54.2477 74.3284 54.1542 74.4568 54.0868C74.5852 54.0194 74.7262 53.9795 74.8708 53.9697C75.0155 53.9599 75.1606 53.9804 75.2969 54.0298C75.4332 54.0793 75.5576 54.1567 75.6623 54.257H75.6536Z" fill="url(#paint12_linear)"/>
<path d="M53.6029 84.4136C53.6029 84.4136 64.9865 77.2673 69.5278 71.5799C71.8159 68.7144 75.8362 58.9893 75.8362 58.9893C75.8362 58.9893 80.1778 59.2671 81.8015 59.927C81.2414 62.2454 80.4209 70.6334 75.033 76.755C72.1241 80.0677 60.8273 89.6756 60.8273 89.6409L53.6029 84.4136Z" fill="#236852"/>
<path d="M75.1376 58.9678C77.8358 58.9702 80.5168 59.3965 83.0827 60.2312L81.4893 63.9866C81.3374 63.9866 74.5688 61.9418 74.5688 61.9418L75.1376 58.9678Z" fill="#37A07F"/>
<path d="M47.3853 68.5844C42.7095 68.9274 38.8541 69.4267 35.4156 68.2979C35.5327 68.8925 35.8369 69.4341 36.2839 69.8435C36.9959 70.4686 42.6964 70.3427 46.4085 70.104C46.9205 69.7449 47.2713 69.1993 47.3853 68.5844Z" fill="#EAEBED"/>
<path d="M40.5082 64.4122C41.4625 64.4122 42.2361 63.9923 42.2361 63.4744C42.2361 62.9565 41.4625 62.5366 40.5082 62.5366C39.5538 62.5366 38.7802 62.9565 38.7802 63.4744C38.7802 63.9923 39.5538 64.4122 40.5082 64.4122Z" fill="#E8B79D"/>
<path d="M23.5377 50.9444C23.5377 51.8778 24.0804 64.4771 24.5449 71.0069C22.6824 70.7724 21.4364 68.5973 21.0717 67.9678L18.5058 50.0153L19.9038 44.8835L23.1686 42.322L31.3308 40.4551L50.4338 39.0571L63.0244 43.72L65.8204 47.1933L64.4224 62.3497C64.188 63.904 62.9159 68.6364 62.091 69.5785C60.4585 71.441 59.8377 70.5119 59.295 70.742C59.6032 66.0792 60.6192 55.7636 60.6192 52.5464C60.6192 49.5073 61.3182 48.3481 58.1271 46.9632C54.936 45.5782 37.5263 44.4146 29.833 45.5739C23.1469 46.5941 23.5377 49.7765 23.5377 50.9444Z" fill="#4BC999"/>
<path d="M21.44 50.0241C21.44 50.9575 22.6817 64.0908 23.1463 70.5424C22.3995 69.9823 21.4357 68.5974 21.0493 67.9765L18.4834 50.0241L19.8814 44.8923L23.1463 42.3308L31.3085 40.4639L50.4114 39.0659L63.002 43.7288L65.798 47.202L64.4 62.3585C64.1656 63.9128 63.5621 67.3036 63.002 68.4368C62.465 69.3648 61.6493 70.1001 60.6706 70.5381C60.9832 65.8752 61.934 55.7767 62.3031 52.5856C63.002 46.5074 61.2958 46.2773 57.8746 44.888C54.1973 43.4032 38.3114 42.7432 30.5921 43.7244C21.44 44.8923 21.44 48.8562 21.44 50.0241Z" fill="#37A07F"/>
<path d="M15.4534 37.8978C14.8934 39.7647 15.219 46.4464 15.4534 49.5593C15.5489 50.9573 16.3869 54.9211 16.8514 57.9516C17.316 60.982 20.1163 67.0429 20.8153 67.7418C21.5143 68.4408 21.2798 67.9763 21.0497 67.0429C20.8196 66.1094 19.8818 51.1874 19.6474 50.0238C19.4129 48.8603 20.1163 47.2279 20.8153 46.2944C21.5143 45.361 22.604 43.95 26.6417 42.7951C29.7676 41.9268 37.5912 41.3971 40.6346 41.3971C43.8952 41.3971 49.6521 41.8616 56.1775 42.7951C62.7029 43.7285 64.179 47.458 64.179 49.3075C64.179 50.2409 62.7811 65.1629 62.7811 66.5609C62.7811 67.9589 62.551 69.1268 63.2499 68.1934C66.5105 62.3626 69.0764 46.277 68.3774 39.0483C67.6784 31.8196 59.2861 18.5473 41.3336 19.0119C20.5548 19.5546 16.0135 36.0222 15.4534 37.8978Z" fill="#236852"/>
<path d="M45.3364 39.0006L36.8616 39.0831C36.3833 39.074 35.9282 38.8755 35.5961 38.5312C35.264 38.1869 35.0821 37.7249 35.0902 37.2466V28.9585C35.0821 28.4802 35.264 28.0183 35.5961 27.674C35.9282 27.3297 36.3833 27.1312 36.8616 27.122L45.3364 27.0396C45.5736 27.0441 45.8075 27.0953 46.0249 27.1902C46.2423 27.2852 46.4389 27.4221 46.6034 27.593C46.7679 27.764 46.8971 27.9656 46.9836 28.1865C47.0702 28.4074 47.1123 28.6432 47.1077 28.8804V37.1641C47.1123 37.4011 47.0701 37.6367 46.9836 37.8573C46.897 38.078 46.7677 38.2793 46.6031 38.4499C46.4386 38.6205 46.242 38.757 46.0246 38.8515C45.8072 38.946 45.5734 38.9967 45.3364 39.0006Z" fill="white"/>
<path d="M43.99 37.7935H43.4777C43.255 37.7823 43.0451 37.6859 42.8916 37.5243L39.071 33.6646L42.7049 33.4692L44.2374 37.4244C44.2765 37.4895 44.4111 37.7848 44.0247 37.8108" fill="#236852"/>
<path d="M45.1195 29.9178V29.9439L42.6709 33.4519L39.037 33.6473L43.8778 29.5097C44.0193 29.3919 44.1936 29.3207 44.3771 29.3057H44.7852C45.3844 29.3317 45.189 29.7746 45.1108 29.9091" fill="#236852"/>
<path d="M39.0281 29.4189C38.8735 29.2494 38.6581 29.1479 38.4289 29.1367H37.9123C37.5259 29.1367 37.6605 29.4623 37.6996 29.5231L39.2452 33.2873H42.8791L39.0281 29.4189Z" fill="#72E8B2"/>
<path d="M38.0116 37.4465L42.8742 33.2959H39.2402L36.8046 37.0036V37.0297C36.7265 37.1643 36.5311 37.6071 37.1302 37.6375H37.534C37.7199 37.6239 37.8965 37.5508 38.0376 37.4291" fill="#4BC999"/>
<defs>
<linearGradient id="paint0_linear" x1="20.4428" y1="48.3585" x2="65.1887" y2="70.1049" gradientUnits="userSpaceOnUse">
<stop stop-color="#FFDABC"/>
<stop offset="0.27" stop-color="#FED7B8"/>
<stop offset="0.52" stop-color="#FACFAD"/>
<stop offset="0.75" stop-color="#F3C19B"/>
<stop offset="0.98" stop-color="#EAAE81"/>
<stop offset="1" stop-color="#E9AC7F"/>
</linearGradient>
<linearGradient id="paint1_linear" x1="5.00953" y1="52.6834" x2="5.85265" y2="55.728" gradientUnits="userSpaceOnUse">
<stop stop-color="#FFD4B0"/>
<stop offset="1" stop-color="#FFC69F"/>
</linearGradient>
<linearGradient id="paint2_linear" x1="8.49442" y1="50.5355" x2="7.76389" y2="51.7944" gradientUnits="userSpaceOnUse">
<stop stop-color="#FFD4B0"/>
<stop offset="1" stop-color="#FFC294"/>
</linearGradient>
<linearGradient id="paint3_linear" x1="2052.27" y1="1193.75" x2="2043.95" y2="1209.16" gradientUnits="userSpaceOnUse">
<stop stop-color="#FFD4B0"/>
<stop offset="1" stop-color="#FFC294"/>
</linearGradient>
<linearGradient id="paint4_linear" x1="2048.18" y1="1194.98" x2="2039.87" y2="1209.68" gradientUnits="userSpaceOnUse">
<stop stop-color="#FFD4B0"/>
<stop offset="1" stop-color="#FFC294"/>
</linearGradient>
<linearGradient id="paint5_linear" x1="2137.81" y1="1290.98" x2="2151.72" y2="1255.73" gradientUnits="userSpaceOnUse">
<stop stop-color="#FFD4B0"/>
<stop offset="1" stop-color="#FFC294"/>
</linearGradient>
<linearGradient id="paint6_linear" x1="3790.43" y1="-1394.6" x2="3772.92" y2="-1408.96" gradientUnits="userSpaceOnUse">
<stop stop-color="#FFD4B0"/>
<stop offset="1" stop-color="#FFC294"/>
</linearGradient>
<linearGradient id="paint7_linear" x1="-759.917" y1="-1989.33" x2="-776.961" y2="-1918.16" gradientUnits="userSpaceOnUse">
<stop stop-color="#FFD4B0"/>
<stop offset="1" stop-color="#FFC69F"/>
</linearGradient>
<linearGradient id="paint8_linear" x1="2984.71" y1="1345.62" x2="2994.19" y2="1362.03" gradientUnits="userSpaceOnUse">
<stop stop-color="#FFD4B0"/>
<stop offset="1" stop-color="#FFC294"/>
</linearGradient>
<linearGradient id="paint9_linear" x1="2986.81" y1="1347.12" x2="2995.15" y2="1362.49" gradientUnits="userSpaceOnUse">
<stop stop-color="#FFD4B0"/>
<stop offset="1" stop-color="#FFC294"/>
</linearGradient>
<linearGradient id="paint10_linear" x1="2988.5" y1="1349.87" x2="2996.84" y2="1364.53" gradientUnits="userSpaceOnUse">
<stop stop-color="#FFD4B0"/>
<stop offset="1" stop-color="#FFC294"/>
</linearGradient>
<linearGradient id="paint11_linear" x1="3058.58" y1="1301.96" x2="3044.65" y2="1266.75" gradientUnits="userSpaceOnUse">
<stop stop-color="#FFD4B0"/>
<stop offset="1" stop-color="#FFC294"/>
</linearGradient>
<linearGradient id="paint12_linear" x1="1174.87" y1="-1383.21" x2="1192.48" y2="-1397.63" gradientUnits="userSpaceOnUse">
<stop stop-color="#FFD4B0"/>
<stop offset="1" stop-color="#FFC294"/>
</linearGradient>
</defs>
</svg>
