<!-- Generated by IcoMoon.io -->
<svg version="1.1" xmlns="http://www.w3.org/2000/svg" width="32" height="32" viewBox="0 0 32 32">
<title>authentication</title>
<path d="M24.997 14.95c0-0.057 0.003-8.45 0.003-8.45l-12.5-6.25-12.5 6.25v8.279c-0.005 5.185 2.586 10.027 6.903 12.9l5.597 3.73 4.312-2.872c2.331 2.985 6.356 4.067 9.869 2.651s5.664-4.986 5.273-8.753c-0.391-3.767-3.229-6.82-6.957-7.485v0zM12.5 30.209l-5.042-3.361c-4.038-2.687-6.463-7.218-6.458-12.069v-7.661l11.5-5.75 11.5 5.75v7.717c-0.166-0.010-0.331-0.025-0.5-0.025s-0.334 0.015-0.5 0.025c0-0.019 0-7.1 0-7.1l-10.5-5.25-10.5 5.25v7.044c-0.004 4.516 2.253 8.734 6.012 11.236l4.488 2.99 3.271-2.179c0.14 0.305 0.298 0.602 0.473 0.888l-3.744 2.495zM15.397 25.874l-2.897 1.93-3.932-2.62c-0.194-0.13-0.382-0.266-0.568-0.405v-4.469h-1v3.63c-0.549-0.509-1.051-1.066-1.5-1.665v-2.905c0-0.688 0.468-1.287 1.135-1.454l3.391-0.85c0.109 1.084 0.908 1.972 1.975 2.195v2.050h1v-2.050c1.067-0.222 1.866-1.111 1.974-2.195l2.226 0.559c-2.029 2.232-2.716 5.375-1.803 8.25v0zM10 10.809h1.382c0.772-0.001 1.534-0.172 2.232-0.5h0.136l1.25 1.666v2.084l-1.666 1.25h-1.667l-1.667-1.25v-3.25zM9.041 9.809c0.101-0.627 0.501-1.166 1.071-1.445 1.106-0.492 2.352-0.571 3.511-0.221l0.115 0.166h0.761c0.276 0 0.5 0.224 0.5 0.5v1.5l-0.75-1h-0.868l-0.105 0.052c-0.589 0.293-1.237 0.447-1.895 0.448h-2.341zM14 16.059v0.75c0 0.828-0.672 1.5-1.5 1.5s-1.5-0.672-1.5-1.5v-0.75l0.334 0.25h2.333l0.334-0.25zM15 16.040v-0.73l1-0.75v-5.75c0-0.829-0.672-1.5-1.5-1.5h-0.332c-0.723-0.44-2.524-0.529-3.8-0.13-1.43 0.351-2.418 1.658-2.367 3.13v0.5h1v3.75l1 0.75v0.728l-3.609 0.907c-1.112 0.278-1.892 1.278-1.891 2.424v1.35c-0.985-1.824-1.501-3.866-1.5-5.939v-6.426l9.5-4.75 9.5 4.75v6.426c0 0.057-0.003 0.114-0.004 0.171-1.458 0.261-2.822 0.9-3.956 1.853l-3.040-0.764zM23.5 30.809c-4.142 0-7.5-3.358-7.5-7.5s3.358-7.5 7.5-7.5c4.142 0 7.5 3.358 7.5 7.5-0.005 4.14-3.36 7.495-7.5 7.5z"></path>
<path d="M26 8.809h6v1h-6v-1z"></path>
<path d="M26 10.809h4v1h-4v-1z"></path>
<path d="M26 12.809h2v1h-2v-1z"></path>
<path d="M21.659 22.956l-1.767-1.768-2.829 2.828 4.596 4.596 7.778-7.778-2.829-2.828-4.949 4.95zM21.659 27.198l-3.182-3.182 1.415-1.414 1.767 1.767 4.95-4.95 1.415 1.414-6.364 6.364z"></path>
</svg>
