<svg width="18" height="18" viewBox="0 0 18 18" fill="none" xmlns="http://www.w3.org/2000/svg">
<path opacity="0.2" d="M8.95111 0.205322C8.35679 0.205322 7.875 0.672291 7.875 1.24833V3.08027H10.5446V1.24833C10.5446 0.672291 10.0628 0.205322 9.46848 0.205322H8.95111Z" fill="#236852"/>
<path fill-rule="evenodd" clip-rule="evenodd" d="M9.5414 0.821413H8.94904C8.72221 0.821413 8.53833 1.00529 8.53833 1.23212V2.57481H9.95211V1.23212C9.95211 1.00529 9.76823 0.821413 9.5414 0.821413ZM8.94904 0C8.26856 0 7.71692 0.551639 7.71692 1.23212V2.71697H7.25086C6.57038 2.71697 6.01874 3.26861 6.01874 3.94909V6.13163C5.43996 6.23268 5 6.73763 5 7.34534V16.7679C5 17.4484 5.55164 18 6.23212 18H12.5981C13.2785 18 13.8302 17.4484 13.8302 16.7679V7.34534C13.8302 6.73754 13.3901 6.23253 12.8112 6.13158V3.94909C12.8112 3.26861 12.2596 2.71697 11.5791 2.71697H10.7735V1.23212C10.7735 0.551638 10.2219 0 9.5414 0H8.94904ZM7.25086 3.53838H11.5791C11.8059 3.53838 11.9898 3.72226 11.9898 3.94909V5.97103H6.84016V3.94909C6.84016 3.72226 7.02404 3.53838 7.25086 3.53838ZM6.23212 6.93463H12.5981C12.8249 6.93463 13.0088 7.11851 13.0088 7.34534V8.49057H10.7735C10.5859 8.49057 10.4338 8.64262 10.4338 8.83019C10.4338 9.01776 10.5859 9.16982 10.7735 9.16982H13.0088V10.8679H10.7735C10.5859 10.8679 10.4338 11.02 10.4338 11.2075C10.4338 11.3951 10.5859 11.5472 10.7735 11.5472H13.0088V13.5849H10.7735C10.5859 13.5849 10.4338 13.7369 10.4338 13.9245C10.4338 14.1121 10.5859 14.2641 10.7735 14.2641H13.0088V16.7679C13.0088 16.9947 12.8249 17.1786 12.5981 17.1786H6.23212C6.00529 17.1786 5.82141 16.9947 5.82141 16.7679V7.34534C5.82141 7.11851 6.00529 6.93463 6.23212 6.93463Z" fill="#666666"/>
</svg>
