<svg width="16" height="16" viewBox="0 0 16 16" fill="none" xmlns="http://www.w3.org/2000/svg">
<g clip-path="url(#clip0)">
<path d="M13.8461 11.8464C13.3901 11.8464 12.9635 11.622 12.7052 11.2462L12.0276 10.2606C11.2294 11.6917 9.71216 12.6156 8.00001 12.6156C5.61089 12.6156 3.63989 10.7908 3.40752 8.4618H3.84617C4.01755 8.4618 4.17486 8.36683 4.25464 8.21511C4.33442 8.06342 4.32358 7.87999 4.22648 7.73877L3.55367 6.76015L2.53418 5.27721C2.44811 5.15199 2.30586 5.07715 2.15386 5.07715C2.13486 5.07715 2.11602 5.0783 2.09739 5.08059C2.07877 5.08287 2.06043 5.0863 2.0424 5.09077C1.99733 5.10199 1.95433 5.1199 1.91486 5.1438C1.85961 5.17724 1.81118 5.2224 1.77352 5.27718L0.0812115 7.73874C-0.015882 7.87996 -0.0267257 8.06342 0.0530554 8.21508C0.132836 8.36674 0.290149 8.4618 0.461555 8.4618H0.937804C1.04762 10.1784 1.76865 11.7771 2.99589 13.0044C4.33255 14.3411 6.1097 15.0772 8.00001 15.0772C9.89032 15.0772 11.6675 14.3411 13.0041 13.0044C13.3595 12.6491 13.6741 12.2593 13.9443 11.8426C13.9117 11.8449 13.879 11.8464 13.8461 11.8464Z" fill="#999999"/>
<path d="M8.35171 7.53864H7.64843C7.51511 7.53864 7.40668 7.43021 7.40668 7.29689V6.94524C7.40668 6.81196 7.51511 6.70352 7.64843 6.70352H8.35171C8.48502 6.70352 8.59346 6.81196 8.59346 6.94524C8.59346 7.20014 8.80012 7.40677 9.05499 7.40677C9.30987 7.40677 9.51652 7.20011 9.51652 6.94524C9.51652 6.34005 9.05252 5.84133 8.46155 5.78577V5.53868C8.46155 5.28377 8.2549 5.07715 8.00002 5.07715C7.74511 5.07715 7.53849 5.2838 7.53849 5.53868V5.78577C6.94755 5.84133 6.48352 6.34005 6.48352 6.94524V7.29689C6.48352 7.93921 7.00605 8.46174 7.64836 8.46174H8.35165C8.48496 8.46174 8.5934 8.57017 8.5934 8.70349V9.05514C8.5934 9.18842 8.48493 9.29689 8.35165 9.29689H7.64836C7.51505 9.29689 7.40661 9.18845 7.40661 9.05517C7.40661 8.80027 7.19996 8.59364 6.94508 8.59364C6.69021 8.59364 6.48355 8.8003 6.48355 9.05517C6.48355 9.66036 6.94755 10.1591 7.53852 10.2146V10.4617C7.53852 10.7166 7.74518 10.9232 8.00005 10.9232C8.25496 10.9232 8.46158 10.7166 8.46158 10.4617V10.2146C9.05249 10.159 9.51655 9.66033 9.51655 9.05514V8.70349C9.51652 8.06117 8.99402 7.53864 8.35171 7.53864Z" fill="#999999"/>
<path d="M15.947 7.7849C15.8672 7.63321 15.7099 7.53821 15.5385 7.53821H15.0622C14.9524 5.82162 14.2314 4.22288 13.0041 2.9956C11.6675 1.65898 9.89033 0.922852 8.00006 0.922852C6.10978 0.922852 4.33256 1.65898 2.99594 2.99563C2.6406 3.35097 2.32594 3.74078 2.05579 4.15744C2.08832 4.15513 2.121 4.15363 2.15391 4.15363C2.61 4.15363 3.03653 4.378 3.29488 4.75381L3.97244 5.73937C4.77059 4.30828 6.28787 3.38441 8.00002 3.38441C10.3891 3.38441 12.3601 5.20928 12.5925 7.53825H12.1539C11.9825 7.53825 11.8252 7.63321 11.7454 7.78493C11.6656 7.93662 11.6765 8.12006 11.7735 8.26127L12.4464 9.2399L13.4659 10.7228C13.4874 10.7541 13.5124 10.7823 13.5402 10.8069C13.6237 10.8808 13.7322 10.9229 13.8462 10.9229C13.9982 10.9229 14.1405 10.8481 14.2265 10.7228L14.8376 9.83399L15.9188 8.26131C16.0159 8.11999 16.0268 7.93656 15.947 7.7849Z" fill="#999999"/>
</g>
<defs>
<clipPath id="clip0">
<rect width="16" height="16" fill="white"/>
</clipPath>
</defs>
</svg>
