<svg width="21" height="21" viewBox="0 0 21 21" fill="none" xmlns="http://www.w3.org/2000/svg">
<g clip-path="url(#clip0)">
<path d="M10.1234 20.2469C7.41937 20.2469 4.87716 19.1938 2.96506 17.2818C1.05304 15.3697 0 12.8275 0 10.1234C0 7.41937 1.05304 4.87716 2.96506 2.96506C4.87716 1.05304 7.41937 0 10.1234 0C12.8275 0 15.3697 1.05304 17.2818 2.96506C19.1938 4.87716 20.2469 7.41937 20.2469 10.1234C20.2469 12.8275 19.1938 15.3697 17.2818 17.2818C15.3697 19.1938 12.8275 20.2469 10.1234 20.2469ZM10.1234 1.18634C7.73624 1.18634 5.49196 2.11596 3.80396 3.80396C2.11596 5.49196 1.18634 7.73624 1.18634 10.1234C1.18634 12.5106 2.11596 14.7549 3.80396 16.4429C5.49196 18.1309 7.73624 19.0605 10.1234 19.0605C12.5106 19.0605 14.7549 18.1309 16.4429 16.4429C18.1309 14.7549 19.0605 12.5106 19.0605 10.1234C19.0605 7.73624 18.1309 5.49196 16.4429 3.80396C14.7549 2.11596 12.5106 1.18634 10.1234 1.18634Z" fill="#242424"/>
<path d="M9.53027 2.37415H10.7166V3.9572H9.53027V2.37415Z" fill="#242424"/>
<path d="M14.062 5.34485L15.1812 4.22563L16.02 5.06437L14.9008 6.18359L14.062 5.34485Z" fill="#242424"/>
<path d="M16.2896 9.53027H17.8726V10.7166H16.2896V9.53027Z" fill="#242424"/>
<path d="M14.061 14.9031L14.8998 14.0643L16.019 15.1836L15.1803 16.0223L14.061 14.9031Z" fill="#242424"/>
<path d="M9.53027 16.2897H10.7166V17.8727H9.53027V16.2897Z" fill="#242424"/>
<path d="M4.22217 15.1826L5.34139 14.0634L6.18013 14.9021L5.06091 16.0214L4.22217 15.1826Z" fill="#242424"/>
<path d="M2.37402 9.53027H3.95708V10.7166H2.37402V9.53027Z" fill="#242424"/>
<path d="M4.22363 5.06323L5.06238 4.22449L6.1816 5.34371L5.34285 6.18245L4.22363 5.06323Z" fill="#242424"/>
<path d="M14.3109 10.7165H9.53027V5.93591H10.7166V9.53021H14.3109V10.7165Z" fill="#242424"/>
</g>
<defs>
<clipPath id="clip0">
<rect width="20.2469" height="20.2469" fill="white"/>
</clipPath>
</defs>
</svg>
