<svg width="20" height="21" viewBox="0 0 20 21" fill="none" xmlns="http://www.w3.org/2000/svg">
<g clip-path="url(#clip0)">
<path d="M18.2674 10.2602C18.1869 10.0955 18.1869 9.90666 18.2674 9.74203L19.0134 8.21591C19.4287 7.36618 19.0996 6.35338 18.2641 5.9101L16.7636 5.11393C16.6017 5.02806 16.4907 4.87523 16.4591 4.69478L16.1656 3.02162C16.0022 2.09004 15.1404 1.46404 14.2041 1.59652L12.5222 1.83443C12.3407 1.86006 12.1612 1.80169 12.0295 1.6743L10.8086 0.493246C10.1288 -0.164396 9.06388 -0.164435 8.38413 0.493246L7.16323 1.67441C7.0315 1.80185 6.85199 1.8601 6.67049 1.83455L4.98857 1.59663C4.05195 1.46408 3.19054 2.09016 3.02713 3.02173L2.73366 4.69482C2.70198 4.87531 2.59099 5.0281 2.42914 5.11401L0.928606 5.91018C0.0931343 6.35342 -0.23596 7.36629 0.179393 8.21602L0.925363 9.74211C1.00584 9.90677 1.00584 10.0956 0.925363 10.2602L0.179353 11.7863C-0.235999 12.6361 0.0930951 13.6489 0.928567 14.0921L2.4291 14.8883C2.59099 14.9742 2.70198 15.127 2.73366 15.3074L3.02713 16.9806C3.17589 17.8287 3.90307 18.4234 4.73882 18.4233C4.82113 18.4233 4.90465 18.4176 4.98861 18.4057L6.67053 18.1678C6.85191 18.142 7.03154 18.2005 7.16327 18.3279L8.38413 19.5089C8.72409 19.8378 9.16014 20.0022 9.59636 20.0022C10.0325 20.0021 10.4688 19.8377 10.8086 19.5089L12.0295 18.3279C12.1612 18.2005 12.3408 18.1423 12.5222 18.1678L14.2041 18.4057C15.1409 18.5382 16.0022 17.9122 16.1656 16.9806L16.4591 15.3075C16.4908 15.127 16.6018 14.9742 16.7636 14.8883L18.2641 14.0921C19.0996 13.6489 19.4287 12.636 19.0134 11.7863L18.2674 10.2602ZM17.7234 13.073L16.2229 13.8692C15.7445 14.1231 15.4164 14.5746 15.3228 15.1081L15.0293 16.7812C14.9741 17.0964 14.6827 17.3081 14.3657 17.2634L12.6838 17.0255C12.1474 16.9495 11.6167 17.1221 11.2274 17.4987L10.0065 18.6797C9.77653 18.9021 9.41622 18.9021 9.1862 18.6797L7.96534 17.4986C7.63632 17.1804 7.2062 17.0079 6.75718 17.0079C6.6749 17.0079 6.59197 17.0137 6.50891 17.0254L4.82699 17.2633C4.51032 17.3081 4.21869 17.0964 4.16337 16.7812L3.86987 15.108C3.77626 14.5745 3.44819 14.123 2.96974 13.8691L1.4692 13.073C1.18652 12.923 1.07518 12.5804 1.2157 12.2929L1.96171 10.7667C2.19955 10.2801 2.19955 9.72203 1.96171 9.23542L1.2157 7.70929C1.07518 7.42181 1.18652 7.07916 1.4692 6.92918L2.96974 6.13301C3.44815 5.87912 3.77626 5.42759 3.86983 4.8941L4.16329 3.22097C4.21861 2.90578 4.50997 2.69404 4.82691 2.73881L6.50883 2.97673C7.04502 3.05263 7.57597 2.88008 7.96526 2.50352L9.18616 1.32247C9.41611 1.10002 9.77641 1.10002 10.0064 1.32247L11.2273 2.50352C11.6166 2.88012 12.1475 3.05263 12.6837 2.97673L14.3656 2.73881C14.6824 2.69401 14.974 2.90578 15.0293 3.22097L15.3227 4.89414C15.4163 5.42763 15.7444 5.8792 16.2229 6.13301L17.7234 6.92918C18.0061 7.07916 18.1174 7.42181 17.9769 7.70929L17.2309 9.23538C16.993 9.72195 16.993 10.2801 17.2309 10.7667L17.9769 12.2928C18.1175 12.5803 18.0061 12.923 17.7234 13.073Z" fill="#FFAA00" stroke="#FFAA00" stroke-width="0.2"/>
<path d="M13.8112 5.78637C13.5859 5.56112 13.2207 5.56112 12.9954 5.78637L5.38183 13.4C5.15658 13.6253 5.15658 13.9905 5.38183 14.2157C5.49446 14.3284 5.64209 14.3847 5.78968 14.3847C5.93728 14.3847 6.08495 14.3284 6.19754 14.2157L13.8111 6.60216C14.0365 6.37686 14.0365 6.01167 13.8112 5.78637Z" fill="#FFAA00" stroke="#FFAA00" stroke-width="0.2"/>
<path d="M7.28884 4.80981C6.12263 4.80981 5.17383 5.75862 5.17383 6.92482C5.17383 8.09103 6.12263 9.03983 7.28884 9.03983C8.45504 9.03983 9.40385 8.09103 9.40385 6.92482C9.40385 5.75862 8.45504 4.80981 7.28884 4.80981ZM7.28884 7.88617C6.75875 7.88617 6.32749 7.45491 6.32749 6.92478C6.32749 6.39469 6.75875 5.96344 7.28884 5.96344C7.81893 5.96344 8.25022 6.39469 8.25022 6.92478C8.25018 7.45491 7.81893 7.88617 7.28884 7.88617Z" fill="#FFAA00" stroke="#FFAA00" stroke-width="0.2"/>
<path d="M11.9041 10.9624C10.7379 10.9624 9.78906 11.9112 9.78906 13.0774C9.78906 14.2436 10.7379 15.1924 11.9041 15.1924C13.0703 15.1924 14.0191 14.2436 14.0191 13.0774C14.0191 11.9112 13.0703 10.9624 11.9041 10.9624ZM11.9041 14.0388C11.374 14.0388 10.9427 13.6075 10.9427 13.0774C10.9427 12.5473 11.3739 12.1161 11.9041 12.1161C12.4342 12.1161 12.8654 12.5473 12.8654 13.0774C12.8654 13.6075 12.4342 14.0388 11.9041 14.0388Z" fill="#FFAA00" stroke="#FFAA00" stroke-width="0.2"/>
</g>
<defs>
<clipPath id="clip0">
<rect width="19.1927" height="20.0022" fill="white"/>
</clipPath>
</defs>
</svg>
