<svg width="18" height="18" viewBox="0 0 18 18" fill="none" xmlns="http://www.w3.org/2000/svg">
<rect opacity="0.2" x="6.63281" y="2.25928" width="5.60383" height="1.40096" fill="#236852"/>
<rect opacity="0.2" x="6.63281" y="14.2842" width="5.60383" height="1.40096" fill="#236852"/>
<path fill-rule="evenodd" clip-rule="evenodd" d="M7.10929 1.27532L7.02799 1.79229H11.7475L11.6596 1.27532H7.10929ZM6.77023 3.43139L6.91783 2.49277H11.8666L12.0246 3.42214C11.7921 3.36437 11.5423 3.30525 11.2885 3.24998C11.1572 3.22138 11.0214 3.19302 10.8837 3.16605C10.4162 3.04708 9.92674 2.98311 9.42259 2.98144C9.38275 2.98086 9.34373 2.9809 9.30563 2.98162C9.28001 2.98211 9.254 2.98287 9.22764 2.9839C8.79129 2.99641 8.36662 3.05559 7.95847 3.15663C7.77483 3.19323 7.59292 3.23292 7.41875 3.27297C7.19559 3.32429 6.97625 3.37837 6.77023 3.43139ZM6.32308 0.891077L5.80565 4.18142C4.35328 5.2741 3.41406 7.01221 3.41406 8.96968C3.41406 10.9215 4.34786 12.6552 5.79306 13.7484L5.79324 13.7495L6.36668 17.1219C6.41043 17.3792 6.63338 17.5674 6.89437 17.5674H11.9563C12.2198 17.5674 12.4442 17.3756 12.4851 17.1153L13.015 13.7459C14.4583 12.6525 15.3906 10.92 15.3906 8.96968C15.3906 7.01379 14.4529 5.27691 13.0025 4.18407L12.4415 0.884501C12.3977 0.6272 12.1748 0.438965 11.9138 0.438965H6.85185C6.58833 0.438965 6.36402 0.63076 6.32308 0.891077ZM4.25041 8.96968C4.25041 6.55844 5.9069 4.53409 8.14398 3.97254C8.55176 3.89192 8.94319 3.8325 9.25415 3.81985C9.30337 3.81846 9.35277 3.81776 9.40234 3.81776L9.41861 3.81778C9.76826 3.82357 10.2254 3.89031 10.6973 3.98188C12.9158 4.55624 14.5543 6.57162 14.5543 8.96968C14.5543 11.815 12.2477 14.1216 9.40234 14.1216C6.55701 14.1216 4.25041 11.815 4.25041 8.96968ZM11.7899 16.1521L11.6989 16.7311H7.14858L7.05014 16.1521H11.7899ZM11.9001 15.4516L12.0401 14.561C11.835 14.6118 11.6166 14.6636 11.3942 14.7127C10.7754 14.8495 10.0612 14.9811 9.51926 14.9913C8.95901 15.0019 8.1923 14.8718 7.53364 14.7351C7.27377 14.6812 7.01805 14.6235 6.78065 14.5673L6.93103 15.4516H11.9001Z" fill="#666666"/>
<rect x="8.86914" y="3.28247" width="1.07053" height="1.6058" rx="0.535265" fill="#666666"/>
<rect x="8.86914" y="13.0176" width="1.07053" height="1.60579" rx="0.535265" fill="#666666"/>
<path fill-rule="evenodd" clip-rule="evenodd" d="M9.40441 6.52759C9.10879 6.52759 8.86914 6.76723 8.86914 7.06285V9.27082C8.86914 9.41262 8.92428 9.54155 9.0143 9.63732C9.03459 9.6608 9.05721 9.68284 9.08213 9.7031L10.0479 10.4881C10.2772 10.6746 10.6144 10.6398 10.8008 10.4104C10.9873 10.181 10.9525 9.84389 10.7231 9.65742L9.93967 9.02057V7.06285C9.93967 6.76723 9.70002 6.52759 9.40441 6.52759Z" fill="#666666"/>
<rect x="15.0547" y="8.43433" width="1.07053" height="1.60579" rx="0.535264" transform="rotate(90 15.0547 8.43433)" fill="#666666"/>
<rect x="5.32227" y="8.43433" width="1.07053" height="1.60579" rx="0.535264" transform="rotate(90 5.32227 8.43433)" fill="#666666"/>
</svg>
