<svg width="16" height="18" viewBox="0 0 16 18" fill="none" xmlns="http://www.w3.org/2000/svg">
<path d="M12.2287 8.1748V6.96113C12.4046 6.53892 12.8075 5.39453 12.744 3.89441C12.703 2.92745 13.278 0.976366 13.2838 0.956759L13.3968 0.575594L10.8934 0L10.8068 0.359391C10.8056 0.364508 10.6726 0.88438 10.2677 1.39615C9.72226 2.08576 8.95982 2.43541 8.00168 2.43541C5.73836 2.43541 5.21726 0.4429 5.19653 0.359391L5.10999 0L2.6065 0.575669L2.71962 0.956833C2.72545 0.976403 3.30048 2.9263 3.2594 3.89448C3.19588 5.39468 3.59881 6.53915 3.77465 6.96124V8.168L0.138672 16.3675L0.350505 16.5483C0.419934 16.6076 2.11867 18 7.99999 18C13.8817 18 15.5807 16.6076 15.6501 16.5484L15.862 16.3675L12.2287 8.1748ZM4.52159 7.8736V7.34357H11.4818V7.8736H4.52159ZM4.58833 0.886397C4.68984 1.14051 4.86578 1.50046 5.14981 1.85955C5.62714 2.46301 6.50943 3.18235 8.00168 3.18235C9.49392 3.18235 10.3762 2.46301 10.8535 1.85955C11.1376 1.50046 11.3135 1.14051 11.415 0.886397L12.4606 1.12684C12.2857 1.77896 11.963 3.10877 11.9977 3.92608C12.0512 5.18979 11.7305 6.18401 11.5695 6.59662H4.43308C4.27196 6.18629 3.95182 5.19753 4.00571 3.92608C4.04037 3.10877 3.71762 1.77892 3.54272 1.1268L4.58833 0.886397ZM13.6873 16.614C11.8806 17.1421 9.59737 17.253 8.00018 17.253C6.40299 17.253 4.11988 17.1421 2.31332 16.614C1.68541 16.4304 1.28766 16.2457 1.06428 16.1229L4.3911 8.62054H5.77672L5.04348 11.8762L5.7722 12.0404L6.54237 8.62058H9.42621L10.1964 12.0404L10.9251 11.8762L10.1919 8.62054H11.6094L14.9364 16.1229C14.713 16.2457 14.3152 16.4305 13.6873 16.614Z" fill="#666666"/>
</svg>
