<svg width="18" height="18" viewBox="0 0 18 18" fill="none" xmlns="http://www.w3.org/2000/svg">
<path opacity="0.2" d="M5.99414 7.89912L8.88574 5.74805L12.13 8.1107L10.931 11.6018H7.08731L5.99414 7.89912Z" fill="#236852"/>
<path d="M9 1C4.58878 1 1 4.58878 1 9C1 13.4112 4.58878 17 9 17C13.4112 17 17 13.4112 17 9C17 4.58878 13.4112 1 9 1ZM15.5369 6.01907C15.7649 6.51714 15.9375 7.04562 16.047 7.59655L15.2169 6.98625L15.5369 6.01907ZM14.9989 5.05037L14.4162 6.81172L11.9812 7.60275L9.40736 5.7327V3.13073L10.8758 2.06392C12.5865 2.52702 14.0457 3.60736 14.9989 5.05037ZM10.4762 10.9873H7.52383L6.61149 8.17938L9.00006 6.44404L11.3886 8.17938L10.4762 10.9873ZM9.77435 1.85679L9.00006 2.41931L8.22558 1.85685C8.48011 1.82946 8.73839 1.81498 9.00006 1.81498C9.26161 1.81498 9.51989 1.8294 9.77435 1.85679ZM7.12392 2.06398L8.59245 3.13047V5.73282L6.01875 7.60275L3.57037 6.8074L2.99299 5.0626C3.94602 3.61357 5.40859 2.52846 7.12392 2.06398ZM2.76066 6.95478L1.96412 7.54044C2.07289 7.01528 2.2392 6.51094 2.45605 6.0343L2.76066 6.95478ZM1.82338 8.65539L3.29366 7.57442L5.82516 8.39679L6.78583 11.3535L5.25606 13.4591L3.38569 13.4783C2.40333 12.2492 1.81498 10.6921 1.81498 9C1.81498 8.88446 1.81799 8.76961 1.82338 8.65539ZM5.18296 14.2748L5.52331 15.286C5.02204 15.0076 4.55737 14.6712 4.13854 14.2856L5.18296 14.2748ZM6.53971 15.751L5.92503 13.9248L7.46722 11.8023H10.5328L12.0634 13.9094L11.4629 15.7501C10.6943 16.0314 9.86475 16.1851 9 16.1851C8.13619 16.185 7.30754 16.0317 6.53971 15.751ZM13.889 14.26C13.4612 14.6579 12.9851 15.0043 12.4704 15.2895L12.8067 14.2589L13.889 14.26ZM14.6406 13.4458L12.7327 13.4439L11.2142 11.3535L12.1749 8.39673L14.661 7.58909L16.1786 8.70473C16.1826 8.80271 16.1851 8.90107 16.1851 9C16.185 10.6772 15.6073 12.2219 14.6406 13.4458Z" fill="#666666"/>
</svg>
