<!-- Generated by IcoMoon.io -->
<svg version="1.1" xmlns="http://www.w3.org/2000/svg" width="30" height="32" viewBox="0 0 30 32">
<title>help</title>
<path d="M15.158 0.411c-8.371 0-15.158 6.94-15.158 15.495 0 8.559 6.787 15.495 15.158 15.495s15.158-6.935 15.158-15.495c0-8.554-6.787-15.495-15.158-15.495zM15.158 28.402c-6.756 0-12.224-5.588-12.224-12.496 0-6.903 5.469-12.496 12.224-12.496 6.753 0 12.224 5.59 12.224 12.496s-5.466 12.496-12.224 12.496zM21.713 12.457c0 4.189-4.426 4.254-4.426 5.802v0.396c0 0.414-0.328 0.75-0.733 0.75h-2.79c-0.405 0-0.733-0.336-0.733-0.75v-0.541c0-2.233 1.656-3.126 2.908-3.843 1.073-0.615 1.731-1.033 1.731-1.848 0-1.078-1.345-1.793-2.432-1.793-1.417 0-2.072 0.686-2.991 1.872-0.248 0.32-0.7 0.379-1.019 0.133l-1.701-1.318c-0.312-0.242-0.382-0.691-0.162-1.022 1.444-2.168 3.283-3.385 6.147-3.385 2.999 0 6.201 2.393 6.201 5.548zM17.725 22.903c0 1.447-1.152 2.624-2.567 2.624s-2.567-1.177-2.567-2.624c0-1.447 1.152-2.624 2.567-2.624s2.567 1.177 2.567 2.624z"></path>
</svg>
