<svg width="17" height="16" viewBox="0 0 17 16" fill="none" xmlns="http://www.w3.org/2000/svg">
<g clip-path="url(#clip0)">
<path d="M8.01487 0C3.59679 0 0.0151367 3.58192 0.0151367 7.99984C0.0151367 12.4178 3.59679 16 8.01487 16C12.4329 16 16.015 12.418 16.015 7.99984C16.015 3.58171 12.4329 0 8.01487 0ZM12.0344 6.57611L10.0779 8.53269C9.86564 8.74491 9.58351 8.86176 9.28345 8.86176C8.98346 8.86176 8.70127 8.74485 8.48905 8.5328L8.41242 8.45616L8.2041 8.66448L8.28057 8.74096C8.71866 9.17904 8.71866 9.89184 8.28057 10.3299L6.32426 12.2865C6.11204 12.4987 5.82991 12.6156 5.5297 12.6156C5.22954 12.6156 4.94735 12.4987 4.73503 12.2863L3.99556 11.5467C3.55748 11.1089 3.55748 10.3961 3.9954 9.95787L5.95215 8.00139C6.16436 7.78917 6.4465 7.67232 6.74671 7.67232C7.04692 7.67232 7.3289 7.78923 7.54127 8.00139L7.61764 8.07776L7.82596 7.86944L7.74959 7.79307C7.31151 7.35515 7.31151 6.64235 7.74932 6.20427L9.70607 4.24768C9.91839 4.03536 10.2006 3.91845 10.5006 3.91845C10.8007 3.91845 11.0828 4.03536 11.2952 4.24752L12.0348 4.98741C12.4725 5.42523 12.4725 6.13813 12.0344 6.57611Z" fill="white"/>
<path d="M7.61624 9.25086L7.23794 9.62915L6.65117 9.04254L7.02946 8.66425L6.95309 8.58787C6.89762 8.53257 6.82391 8.50195 6.74562 8.50195C6.66717 8.50195 6.59346 8.53251 6.53799 8.58787L4.58141 10.5442C4.46701 10.6587 4.46701 10.8449 4.58141 10.9593L5.32114 11.6992C5.43223 11.8103 5.62557 11.8101 5.73639 11.6993L7.69272 9.74275C7.80728 9.62825 7.80728 9.4419 7.69272 9.32734L7.61624 9.25086Z" fill="white"/>
<path d="M10.7071 4.83407C10.6516 4.77861 10.5778 4.74805 10.4993 4.74805C10.4209 4.74805 10.347 4.77861 10.2915 4.83423L8.33493 6.79071C8.22069 6.90522 8.22069 7.0914 8.33509 7.20596L8.41157 7.28234L8.99184 6.70191L9.57861 7.28868L8.99834 7.86911L9.07482 7.94559C9.18592 8.05636 9.37898 8.05652 9.49008 7.94543L11.4466 5.98911C11.561 5.87461 11.561 5.68842 11.4466 5.57386L10.7071 4.83407Z" fill="white"/>
</g>
<defs>
<clipPath id="clip0">
<rect width="16" height="16" fill="white" transform="translate(0.0141602)"/>
</clipPath>
</defs>
</svg>
