<svg width="18" height="18" viewBox="0 0 18 18" fill="none" xmlns="http://www.w3.org/2000/svg">
<g clip-path="url(#clip0)">
<rect opacity="0.2" x="10.8945" y="15.158" width="4.97368" height="2.36842" fill="#236852"/>
<path d="M7.82527 9.39136V7.04355C7.82527 6.61195 7.47428 6.26095 7.04267 6.26095V0.391435C7.04267 0.255654 6.97224 0.130046 6.8568 0.0584382C6.74137 -0.0131699 6.59737 -0.0190394 6.47607 0.0412209L3.34566 1.60643C3.2134 1.67295 3.12966 1.80834 3.12966 1.95664V6.26095C2.69805 6.26095 2.34706 6.61195 2.34706 7.04355V9.39136C1.91545 9.39136 1.56445 9.74236 1.56445 10.174V16.0435C1.56445 17.1223 2.44214 18 3.52096 18H6.65137C7.73019 18 8.60787 17.1223 8.60787 16.0435V10.174C8.60787 9.74236 8.25688 9.39136 7.82527 9.39136ZM3.91226 2.19846L6.26007 1.02456V6.26095H3.91226V2.19846ZM3.12966 7.04355H3.52096H6.65059C6.65098 7.04355 6.65098 7.04355 6.65137 7.04355C6.65176 7.04355 6.65176 7.04355 6.65215 7.04355H7.04267V9.39136H3.12966V7.04355ZM7.82527 16.0435C7.82527 16.6907 7.29858 17.2174 6.65137 17.2174H3.52096C2.87375 17.2174 2.34706 16.6907 2.34706 16.0435L2.34666 10.174H2.73836H5.47746V15.2609C5.47746 15.4769 5.65238 15.6522 5.86877 15.6522C6.08516 15.6522 6.26007 15.4769 6.26007 15.2609V10.174H7.43397C7.43436 10.174 7.43436 10.174 7.43475 10.174H7.82527V16.0435Z" fill="#666666"/>
<path d="M14.4762 7.82617H12.1284C11.0496 7.82617 10.1719 8.70386 10.1719 9.78268V17.2174C10.1719 17.649 10.5229 18 10.9545 18H15.6501C16.0817 18 16.4327 17.649 16.4327 17.2174V9.78268C16.4327 8.70386 15.555 7.82617 14.4762 7.82617ZM15.6505 17.2174H10.9545V15.6522H15.6505V17.2174ZM10.9545 14.8696V9.78268C10.9545 9.13547 11.4812 8.60877 12.1284 8.60877H14.4762C15.1234 8.60877 15.6501 9.13547 15.6501 9.78268L15.6505 14.8696H10.9545Z" fill="#666666"/>
</g>
<defs>
<clipPath id="clip0">
<rect width="18" height="18" fill="white"/>
</clipPath>
</defs>
</svg>
