<svg width="24" height="26" viewBox="0 0 24 26" fill="none" xmlns="http://www.w3.org/2000/svg">
<path fill-rule="evenodd" clip-rule="evenodd" d="M11.3601 3.36058V0.897176C11.3601 0.451796 11.7216 0.090332 12.167 0.090332C12.6124 0.090332 12.9738 0.451796 12.9738 0.897176V3.36067C16.7481 3.76468 19.6971 6.96844 19.6971 10.8482V13.8476C19.6971 15.9766 20.6298 17.9861 22.2553 19.361C22.6845 19.7268 22.9244 20.2484 22.9244 20.7994C22.9244 21.8375 22.08 22.682 21.0419 22.682H16.1202C15.7454 24.5213 14.1155 25.9093 12.167 25.9093C10.2185 25.9093 8.58852 24.5213 8.21378 22.682H3.2913C2.253 22.682 1.40854 21.8375 1.40854 20.7994C1.40854 20.2484 1.64846 19.7268 2.06705 19.3685C3.7032 17.9861 4.63591 15.9766 4.63591 13.8476V10.8482C4.63591 6.96815 7.58534 3.76421 11.3601 3.36058ZM23.1932 11.6551C22.7478 11.6551 22.3863 11.2936 22.3863 10.8483C22.3863 7.75858 21.1837 4.85504 18.9998 2.6701C18.6846 2.35493 18.6846 1.84396 18.9998 1.52878C19.3149 1.21361 19.8259 1.21361 20.1413 1.52878C22.6296 4.01806 24 7.32837 24 10.8483C24 11.2936 23.6385 11.6551 23.1932 11.6551ZM1.13985 11.6551C0.694472 11.6551 0.333008 11.2936 0.333008 10.8482C0.333008 7.32833 1.70362 4.01802 4.1929 1.52973C4.50807 1.21456 5.01924 1.21456 5.33441 1.52973C5.64959 1.8449 5.64959 2.35607 5.33441 2.67125C3.14947 4.855 1.94669 7.75854 1.94669 10.8482C1.94669 11.2936 1.58523 11.6551 1.13985 11.6551ZM3.2913 21.0683H8.9396H15.3944H21.0419C21.188 21.0683 21.3107 20.9455 21.3107 20.7994C21.3107 20.6918 21.2516 20.6251 21.216 20.5949C19.2247 18.9113 18.0834 16.452 18.0834 13.8476V10.8482C18.0834 7.58535 15.4294 4.93139 12.1666 4.93139C8.90355 4.93139 6.2496 7.58535 6.2496 10.8482V13.8476C6.2496 16.452 5.10828 18.9113 3.11914 20.5927C3.08152 20.6251 3.02222 20.6918 3.02222 20.7994C3.02222 20.9455 3.14494 21.0683 3.2913 21.0683ZM12.167 24.2956C13.2192 24.2956 14.1164 23.6214 14.4493 22.682H9.88459C10.2174 23.6214 11.1146 24.2956 12.167 24.2956Z" fill="#236852"/>
</svg>
