<svg width="18" height="18" viewBox="0 0 18 18" fill="none" xmlns="http://www.w3.org/2000/svg">
<rect opacity="0.2" x="6.7207" y="5.09692" width="2.76421" height="1.25462" fill="#236852"/>
<path d="M11.0013 3.17976C11.2893 3.94711 12.2648 4.49726 13.4568 4.49726C14.8825 4.49726 15.9993 3.71046 15.9993 2.70601C15.9993 1.7016 14.8824 0.914795 13.4568 0.914795C12.2648 0.914795 11.2893 1.46495 11.0013 2.23226H9.65593V1.66162H6.49756V2.23223H5.74752V3.17973H6.49756V4.35726H5.91734V6.4296C3.63071 7.30218 2.00195 9.51801 2.00195 12.1074C2.00195 13.0728 2.23422 14.0337 2.67364 14.8864C3.09856 15.7108 3.71816 16.4391 4.46549 16.9924L4.59109 17.0854H11.5624L11.688 16.9924C12.4353 16.4391 13.0549 15.7109 13.4799 14.8864C13.9193 14.0337 14.1515 13.0728 14.1515 12.1074C14.1515 9.51801 12.5228 7.30218 10.2361 6.4296V4.35722H9.65593V3.17976H11.0013ZM13.4568 1.8623C14.3696 1.8623 15.0518 2.30775 15.0518 2.70601C15.0518 3.10428 14.3696 3.54976 13.4568 3.54976C12.5439 3.54976 11.8618 3.10431 11.8618 2.70601C11.8618 2.30775 12.5439 1.8623 13.4568 1.8623ZM7.44506 2.60912H8.70843V4.35729H7.44506V2.60912ZM6.86484 5.30482H9.28865V6.15429C8.89692 6.07463 8.49164 6.03269 8.07673 6.03269C7.66185 6.03269 7.25657 6.07463 6.86484 6.15425V5.30482ZM13.204 12.1075C13.204 13.6742 12.4748 15.1694 11.2459 16.138H4.90756C3.67865 15.1694 2.94945 13.6742 2.94945 12.1075C2.94945 9.28028 5.24954 6.98019 8.07673 6.98019C10.9039 6.98019 13.204 9.28028 13.204 12.1075Z" fill="#666666"/>
<path fill-rule="evenodd" clip-rule="evenodd" d="M5.27643 13.013C5.12376 12.8603 5.12376 12.6128 5.27643 12.4601L7.46005 10.2765C7.61272 10.1239 7.86024 10.1239 8.0129 10.2765C8.16557 10.4292 8.16557 10.6767 8.0129 10.8294L5.82928 13.013C5.67661 13.1657 5.42909 13.1657 5.27643 13.013Z" fill="#666666"/>
<path fill-rule="evenodd" clip-rule="evenodd" d="M8.46979 12.5569C8.31712 12.4043 8.31712 12.1568 8.46979 12.0041L9.74125 10.7326C9.89392 10.58 10.1414 10.58 10.2941 10.7326C10.4468 10.8853 10.4468 11.1328 10.2941 11.2855L9.02264 12.5569C8.86997 12.7096 8.62245 12.7096 8.46979 12.5569Z" fill="#666666"/>
</svg>
