<svg width="23" height="18" viewBox="0 0 23 18" fill="none" xmlns="http://www.w3.org/2000/svg">
<path fill-rule="evenodd" clip-rule="evenodd" d="M18.9692 14.6667H3.79671C2.94199 14.6667 2.52643 13.6184 3.14977 13.0328L8.79754 7.7203C9.16116 7.3803 9.72782 7.3803 10.0914 7.7203L14.3745 11.7484C14.7428 12.0978 15.3284 12.0884 15.6873 11.7295L16.3342 11.0825C16.7025 10.7142 17.2975 10.7142 17.6659 11.0825L19.6398 13.0564C20.2348 13.6514 19.8098 14.6667 18.9692 14.6667ZM17.9444 3.3333C18.988 3.3333 19.8333 4.17858 19.8333 5.22219C19.8333 6.2658 18.988 7.11108 17.9444 7.11108C16.9008 7.11108 16.0555 6.2658 16.0555 5.22219C16.0555 4.17858 16.9008 3.3333 17.9444 3.3333ZM20.3056 0.5H2.36111C1.05778 0.5 0 1.55778 0 2.86111V15.1389C0 16.4422 1.05778 17.5 2.36111 17.5H20.3056C21.6089 17.5 22.6667 16.4422 22.6667 15.1389V2.86111C22.6667 1.55778 21.6089 0.5 20.3056 0.5Z" fill="#37A07F"/>
</svg>
