<!-- Generated by IcoMoon.io -->
<svg version="1.1" xmlns="http://www.w3.org/2000/svg" width="48" height="32" viewBox="0 0 48 32">
<title>review</title>
<path d="M44.571 16.571c-4.58 7.071-11.973 12-20.571 12s-15.991-4.929-20.571-12c2.545-3.938 6.027-7.313 10.205-9.455-1.071 1.821-1.634 3.911-1.634 6.027 0 6.616 5.384 12 12 12s12-5.384 12-12c0-2.116-0.562-4.205-1.634-6.027 4.178 2.143 7.661 5.518 10.205 9.455zM25.286 6.286c0 0.696-0.589 1.286-1.286 1.286-3.054 0-5.571 2.518-5.571 5.571 0 0.696-0.589 1.286-1.286 1.286s-1.286-0.589-1.286-1.286c0-4.473 3.67-8.143 8.143-8.143 0.696 0 1.286 0.589 1.286 1.286zM48 16.571c0-0.67-0.214-1.286-0.536-1.848-4.929-8.089-13.955-13.58-23.464-13.58s-18.536 5.491-23.464 13.58c-0.321 0.562-0.536 1.179-0.536 1.848s0.214 1.286 0.536 1.848c4.929 8.089 13.955 13.58 23.464 13.58s18.536-5.464 23.464-13.58c0.321-0.563 0.536-1.179 0.536-1.848z"></path>
</svg>
