<svg width="18" height="18" viewBox="0 0 18 18" fill="none" xmlns="http://www.w3.org/2000/svg">
<path opacity="0.2" d="M1 12H17V13.3684C17 13.7172 16.4192 14 15.7027 14H2.2973C1.58082 14 1 13.7172 1 13.3684V12Z" fill="#236852"/>
<path fill-rule="evenodd" clip-rule="evenodd" d="M15.8552 2.521H2.14514C1.90089 2.521 1.70288 2.719 1.70288 2.96326V13.3564C1.70288 13.6006 1.90089 13.7986 2.14514 13.7986H15.8552C16.0995 13.7986 16.2975 13.6006 16.2975 13.3564V2.96326C16.2975 2.719 16.0995 2.521 15.8552 2.521ZM2.14514 1.63647C1.41238 1.63647 0.818359 2.2305 0.818359 2.96326V13.3564C0.818359 14.0891 1.41238 14.6832 2.14514 14.6832H15.8552C16.588 14.6832 17.182 14.0891 17.182 13.3564V2.96326C17.182 2.23049 16.588 1.63647 15.8552 1.63647H2.14514Z" fill="#666666"/>
<path fill-rule="evenodd" clip-rule="evenodd" d="M16.7393 12.8845H1.03906V12H16.7393V12.8845Z" fill="#666666"/>
<path fill-rule="evenodd" clip-rule="evenodd" d="M13.2013 16.4521L5.01953 16.4521L5.01953 15.5676L13.2013 15.5676L13.2013 16.4521Z" fill="#666666"/>
</svg>
