<!-- Generated by IcoMoon.io -->
<svg version="1.1" xmlns="http://www.w3.org/2000/svg" width="29" height="32" viewBox="0 0 29 32">
<title>calendar</title>
<path d="M22.16 17.701c0.204-0.221 0.204-0.561 0-0.765l-0.782-0.782c-0.204-0.204-0.544-0.204-0.765 0l-7.551 7.551-3.742-3.742c-0.221-0.204-0.561-0.204-0.765 0l-0.782 0.782c-0.204 0.204-0.204 0.544 0 0.765l4.898 4.898c0.221 0.204 0.561 0.204 0.782 0l8.707-8.707zM2.177 29.605v-17.415h23.946v17.415h-23.946zM8.707 8.925c0 0.306-0.238 0.544-0.544 0.544h-1.088c-0.306 0-0.544-0.238-0.544-0.544v-4.898c0-0.306 0.238-0.544 0.544-0.544h1.088c0.306 0 0.544 0.238 0.544 0.544v4.898zM21.769 8.925c0 0.306-0.238 0.544-0.544 0.544h-1.088c-0.306 0-0.544-0.238-0.544-0.544v-4.898c0-0.306 0.238-0.544 0.544-0.544h1.088c0.306 0 0.544 0.238 0.544 0.544v4.898zM28.299 7.837c0-1.19-0.986-2.177-2.177-2.177h-2.177v-1.633c0-1.497-1.225-2.721-2.721-2.721h-1.088c-1.497 0-2.721 1.224-2.721 2.721v1.633h-6.531v-1.633c0-1.497-1.224-2.721-2.721-2.721h-1.088c-1.497 0-2.721 1.224-2.721 2.721v1.633h-2.177c-1.19 0-2.177 0.986-2.177 2.177v21.769c0 1.19 0.986 2.177 2.177 2.177h23.946c1.19 0 2.177-0.986 2.177-2.177v-21.769z"></path>
</svg>
