<!-- Generated by IcoMoon.io -->
<svg version="1.1" xmlns="http://www.w3.org/2000/svg" width="31" height="32" viewBox="0 0 31 32">
<title>cart</title>
<path d="M9.041 27.792c0-1.427 1.157-2.583 2.583-2.583s2.583 1.157 2.583 2.583c0 1.427-1.157 2.583-2.583 2.583s-2.583-1.157-2.583-2.583z"></path>
<path d="M23.25 27.792c0-1.427 1.157-2.583 2.583-2.583s2.583 1.157 2.583 2.583c0 1.427-1.157 2.583-2.583 2.583s-2.583-1.157-2.583-2.583z"></path>
<path d="M0 1.958c0-0.713 0.578-1.292 1.292-1.292h5.167c0.616 0 1.146 0.434 1.267 1.038l1.085 5.42h20.899c0.385 0 0.75 0.172 0.995 0.468s0.346 0.687 0.273 1.065l-2.069 10.847c-0.177 0.892-0.663 1.693-1.371 2.264-0.705 0.567-1.586 0.87-2.491 0.856h-12.533c-0.905 0.014-1.786-0.289-2.49-0.856-0.708-0.57-1.193-1.371-1.371-2.262-0-0 0 0 0 0l-2.158-10.781c-0.009-0.036-0.016-0.072-0.022-0.109l-1.074-5.367h-4.108c-0.713 0-1.292-0.578-1.292-1.292zM9.327 9.708l1.86 9.294c0.059 0.297 0.221 0.564 0.457 0.755s0.532 0.291 0.835 0.285l0.025-0 12.58 0c0.303 0.006 0.599-0.095 0.835-0.285 0.235-0.189 0.396-0.455 0.456-0.75l1.773-9.298h-18.82z"></path>
</svg>
