<!-- Generated by IcoMoon.io -->
<svg version="1.1" xmlns="http://www.w3.org/2000/svg" width="32" height="32" viewBox="0 0 32 32">
<title>delete</title>
<path d="M16 2.909c-7.23 0-13.091 5.861-13.091 13.091s5.861 13.091 13.091 13.091c7.23 0 13.091-5.861 13.091-13.091s-5.861-13.091-13.091-13.091zM0 16c0-8.837 7.163-16 16-16s16 7.163 16 16c0 8.837-7.163 16-16 16s-16-7.163-16-16z"></path>
<path d="M21.392 10.608c0.568 0.568 0.568 1.489 0 2.057l-8.727 8.727c-0.568 0.568-1.489 0.568-2.057 0s-0.568-1.489 0-2.057l8.727-8.727c0.568-0.568 1.489-0.568 2.057 0z"></path>
<path d="M10.608 10.608c0.568-0.568 1.489-0.568 2.057 0l8.727 8.727c0.568 0.568 0.568 1.489 0 2.057s-1.489 0.568-2.057 0l-8.727-8.727c-0.568-0.568-0.568-1.489 0-2.057z"></path>
</svg>
