<!-- Generated by IcoMoon.io -->
<svg version="1.1" xmlns="http://www.w3.org/2000/svg" width="30" height="32" viewBox="0 0 30 32">
<title>gioihan</title>
<path d="M14.284 32c3.654 0.013 7.173-1.382 9.826-3.895 2.581-2.446 4.099-5.706 4.294-9.205 0.356-0.251 0.647-0.584 0.847-0.97s0.305-0.816 0.305-1.251v-13.976c-0.001-0.356-0.072-0.709-0.209-1.037s-0.338-0.627-0.591-0.878c-0.253-0.251-0.553-0.45-0.882-0.585s-0.683-0.203-1.039-0.202h-6.67c-0.355-0.001-0.706 0.068-1.034 0.204s-0.625 0.335-0.875 0.586-0.448 0.55-0.582 0.878c-0.134 0.328-0.202 0.68-0.199 1.034v1.905c-1.044-0.231-2.111-0.349-3.18-0.351-7.8 0-14.153 6.223-14.153 13.872s6.342 13.872 14.142 13.872zM23.424 27.383c-1.825 1.73-4.106 2.902-6.575 3.377 1.458-1.074 2.675-2.442 3.571-4.015 0.294-0.514 0.557-1.045 0.787-1.59 0.905 0.552 1.739 1.214 2.482 1.97-0.087 0.087-0.175 0.174-0.265 0.259zM24.366 26.393c-0.835-0.842-1.774-1.574-2.795-2.178 0.538-1.553 0.86-3.173 0.956-4.813h4.31c0.18-0.001 0.36-0.019 0.536-0.055-0.249 2.603-1.3 5.064-3.007 7.045v0zM28.562 16.678c0 0.458-0.182 0.897-0.506 1.221s-0.762 0.507-1.22 0.508h-6.67c-0.225-0.001-0.448-0.047-0.655-0.135s-0.395-0.216-0.553-0.376c-0.158-0.161-0.282-0.351-0.366-0.56s-0.125-0.433-0.122-0.658v-1.753h10.092v1.753zM28.562 13.929h-10.092v-10.376h10.092v10.376zM20.166 0.995h6.67c0.915 0 1.666 0.711 1.722 1.563h-10.114c0.056-0.853 0.807-1.563 1.722-1.563zM17.475 5.627v0.329c-0.213-0.158-0.387-0.311-0.588-0.457 0.197 0.038 0.374 0.081 0.588 0.128zM14.775 5.383c0.995 0.502 1.848 1.141 2.701 1.905v5.374c-0.886 0.208-1.791 0.33-2.701 0.365v-7.644zM14.775 14.023c0.909-0.032 1.812-0.146 2.701-0.34v2.994c-0.011 0.322 0.037 0.643 0.142 0.948h-2.843v-3.602zM14.775 18.62h3.494c0.248 0.25 0.544 0.449 0.869 0.583s0.675 0.202 1.028 0.199h1.364c-0.096 1.474-0.38 2.929-0.845 4.33-1.84-0.916-3.856-1.427-5.91-1.499v-3.613zM14.775 23.229c1.935 0.066 3.833 0.556 5.558 1.437-0.225 0.544-0.485 1.072-0.777 1.582-1.18 2.050-2.79 3.604-4.78 4.625v-7.644zM4.841 27.084c0.747-0.752 1.584-1.408 2.493-1.954 0.976 2.309 2.461 4.235 4.367 5.626-2.603-0.508-4.993-1.787-6.86-3.671zM13.78 30.872c-2.487-1.291-4.424-3.465-5.57-6.227 1.732-0.869 3.633-1.353 5.57-1.417v7.644zM13.78 22.233c-2.055 0.069-4.072 0.571-5.919 1.474-0.523-1.551-0.819-3.239-0.865-5.087h6.784v3.613zM13.78 17.625h-6.784c0.046-1.848 0.342-3.531 0.865-5.081 1.847 0.904 3.864 1.408 5.919 1.479v3.602zM13.78 13.027c-1.937-0.064-3.837-0.547-5.57-1.417 1.145-2.762 3.082-4.936 5.57-6.227v7.643zM11.702 5.5c-1.907 1.391-3.391 3.317-4.368 5.626-0.908-0.546-1.746-1.203-2.493-1.954 1.867-1.884 4.257-3.163 6.86-3.671zM4.168 9.902c0.838 0.837 1.78 1.564 2.803 2.161-0.59 1.693-0.924 3.572-0.971 5.562h-4.86c0.116-2.841 1.182-5.56 3.028-7.723v0zM1.14 18.62h4.86c0.047 1.99 0.381 3.873 0.971 5.566-1.023 0.597-1.965 1.324-2.803 2.161-1.846-2.164-2.912-4.885-3.028-7.727z"></path>
<path d="M22.473 17.199h2.057c0.132 0 0.258-0.052 0.352-0.146s0.146-0.22 0.146-0.352c0-0.132-0.052-0.259-0.146-0.352s-0.22-0.146-0.352-0.146h-2.057c-0.132 0-0.258 0.052-0.352 0.146s-0.146 0.22-0.146 0.352 0.052 0.258 0.146 0.352c0.093 0.093 0.22 0.146 0.352 0.146z"></path>
<path d="M19.707 11.014l3.55 2.052c0.075 0.044 0.16 0.067 0.247 0.067s0.172-0.023 0.247-0.067l3.561-2.052c0.076-0.043 0.14-0.106 0.185-0.181s0.069-0.162 0.071-0.249v-4.103c-0.001-0.088-0.026-0.174-0.071-0.249s-0.109-0.138-0.185-0.181l-3.558-2.052c-0.076-0.044-0.162-0.067-0.25-0.067s-0.174 0.023-0.25 0.067l-3.547 2.052c-0.075 0.044-0.137 0.107-0.179 0.183s-0.064 0.161-0.063 0.248v4.103c-0.001 0.087 0.020 0.172 0.063 0.248s0.104 0.139 0.179 0.183zM26.572 10.296l-2.558 1.477v-2.955l2.558-1.477v2.955zM26.059 6.48l-2.558 1.477-0.816-0.471 2.558-1.477 0.816 0.472zM23.501 5.003l0.747 0.431-2.558 1.477-0.747-0.431 2.558-1.477zM20.46 7.342l2.558 1.477v2.955l-2.558-1.477v-2.955z"></path>
</svg>
