<!-- Generated by IcoMoon.io -->
<svg version="1.1" xmlns="http://www.w3.org/2000/svg" width="32" height="32" viewBox="0 0 32 32">
<title>padlock</title>
<path d="M25 11.75h-2.252v-5.139c0-3.645-3.028-6.611-6.75-6.611s-6.75 2.966-6.75 6.611v5.139h-2.248c-2.068 0-3.75 1.682-3.75 3.75v12.75c0 2.068 1.682 3.75 3.75 3.75h18c2.068 0 3.75-1.682 3.75-3.75v-12.75c0-2.068-1.682-3.75-3.75-3.75zM11.748 6.611c0-2.267 1.907-4.111 4.25-4.111s4.25 1.844 4.25 4.111v5.139h-8.5v-5.139zM26.25 28.25c0 0.689-0.561 1.25-1.25 1.25h-18c-0.689 0-1.25-0.561-1.25-1.25v-12.75c0-0.689 0.561-1.25 1.25-1.25h18c0.689 0 1.25 0.561 1.25 1.25v12.75z"></path>
<path d="M16 17.875c-1.277 0-2.313 1.035-2.313 2.312 0 0.816 0.422 1.532 1.060 1.944v2.744c0 0.69 0.56 1.25 1.25 1.25s1.25-0.56 1.25-1.25v-2.741c0.64-0.411 1.065-1.129 1.065-1.947 0-1.277-1.035-2.312-2.312-2.312z"></path>
</svg>
