<!-- Generated by IcoMoon.io -->
<svg version="1.1" xmlns="http://www.w3.org/2000/svg" width="32" height="32" viewBox="0 0 32 32">
<title>rss</title>
<path d="M8.229 27.886c0-2.271-1.843-4.114-4.114-4.114s-4.114 1.843-4.114 4.114c0 2.272 1.843 4.114 4.114 4.114s4.114-1.843 4.114-4.114zM19.2 30.521c-0.364-4.564-2.357-8.871-5.614-12.107-3.236-3.257-7.543-5.25-12.107-5.614-0.043 0-0.064 0-0.107 0-0.343 0-0.686 0.129-0.921 0.364-0.3 0.257-0.45 0.621-0.45 1.007v2.893c0 0.707 0.536 1.286 1.243 1.35 6.536 0.621 11.721 5.807 12.343 12.343 0.064 0.707 0.643 1.243 1.35 1.243h2.893c0.386 0 0.75-0.15 1.007-0.45 0.257-0.279 0.386-0.643 0.364-1.029zM30.172 30.564c-0.386-7.5-3.536-14.55-8.871-19.864-5.314-5.336-12.364-8.486-19.864-8.871-0.021 0-0.043 0-0.064 0-0.343 0-0.686 0.129-0.943 0.386-0.279 0.257-0.429 0.6-0.429 0.986v3.064c0 0.707 0.557 1.307 1.286 1.35 12.45 0.729 22.371 10.65 23.079 23.1 0.043 0.729 0.643 1.286 1.371 1.286h3.064c0.386 0 0.729-0.15 0.986-0.429 0.278-0.279 0.407-0.643 0.386-1.007z"></path>
</svg>
