<!-- Generated by IcoMoon.io -->
<svg version="1.1" xmlns="http://www.w3.org/2000/svg" width="25" height="32" viewBox="0 0 25 32">
<title>thutuc</title>
<path d="M22.592 2.212h-4.28c-0.233-0.642-0.885-1.106-1.651-1.106h-1.81c-0.549-0.689-1.42-1.106-2.342-1.106s-1.792 0.417-2.342 1.106h-1.81c-0.766 0-1.418 0.464-1.651 1.106h-4.28c-1.288 0-2.335 0.977-2.335 2.177v25.434c0 1.2 1.048 2.177 2.335 2.177h20.166c1.288 0 2.335-0.977 2.335-2.177v-25.434c0-1.2-1.048-2.177-2.335-2.177zM6.706 5.46c0.233 0.642 0.885 1.106 1.651 1.106h8.304c0.766 0 1.418-0.464 1.651-1.106h3.131v23.292h-17.868v-23.292h3.131zM8.357 2.143h2.108c0.198 0 0.381-0.098 0.481-0.258 0.332-0.531 0.916-0.848 1.563-0.848s1.231 0.317 1.563 0.848c0.1 0.16 0.283 0.258 0.481 0.258h2.108c0.348 0 0.63 0.264 0.63 0.587v2.21c0 0 0 0.001 0 0.001s0 0 0 0.001c0 0.324-0.283 0.587-0.63 0.587h-8.304c-0.347 0-0.629-0.263-0.63-0.586 0 0 0-0.001 0-0.001s0-0.002 0-0.003v-2.209c0-0.324 0.283-0.587 0.63-0.587zM23.815 29.823c0 0.629-0.549 1.14-1.223 1.14h-20.166c-0.675 0-1.223-0.512-1.223-1.14v-25.434c0-0.629 0.549-1.14 1.223-1.14h4.189v1.175h-3.596c-0.307 0-0.556 0.232-0.556 0.518v24.328c0 0.286 0.249 0.518 0.556 0.518h18.98c0.307 0 0.556-0.232 0.556-0.518v-24.328c0-0.286-0.249-0.518-0.556-0.518h-3.596v-1.175h4.189c0.675 0 1.223 0.512 1.223 1.14v25.434z"></path>
<path d="M12.509 4.354c0.307 0 0.556-0.232 0.556-0.518v-1.106c0-0.286-0.249-0.518-0.556-0.518s-0.556 0.232-0.556 0.518v1.106c0 0.286 0.249 0.518 0.556 0.518z"></path>
<path d="M13.102 11.542h3.559c0.307 0 0.556-0.232 0.556-0.518s-0.249-0.518-0.556-0.518h-3.559c-0.307 0-0.556 0.232-0.556 0.518s0.249 0.518 0.556 0.518z"></path>
<path d="M13.102 13.754h5.931c0.307 0 0.556-0.232 0.556-0.518s-0.249-0.518-0.556-0.518h-5.931c-0.307 0-0.556 0.232-0.556 0.518s0.249 0.518 0.556 0.518z"></path>
<path d="M7.371 13.602c0.109 0.101 0.251 0.152 0.393 0.152s0.285-0.051 0.393-0.152l2.966-2.765c0.217-0.202 0.217-0.531 0-0.733s-0.569-0.202-0.786 0l-2.572 2.398-1.386-1.292c-0.217-0.202-0.569-0.202-0.786 0s-0.217 0.531 0 0.733l1.779 1.659z"></path>
<path d="M13.102 17.071h3.559c0.307 0 0.556-0.232 0.556-0.518s-0.249-0.518-0.556-0.518h-3.559c-0.307 0-0.556 0.232-0.556 0.518s0.249 0.518 0.556 0.518z"></path>
<path d="M13.102 19.283h5.931c0.307 0 0.556-0.232 0.556-0.518s-0.249-0.518-0.556-0.518h-5.931c-0.307 0-0.556 0.232-0.556 0.518s0.249 0.518 0.556 0.518z"></path>
<path d="M7.371 19.131c0.109 0.101 0.251 0.152 0.393 0.152s0.285-0.051 0.393-0.152l2.966-2.765c0.217-0.203 0.217-0.531 0-0.733s-0.569-0.202-0.786 0l-2.572 2.398-1.386-1.292c-0.217-0.202-0.569-0.202-0.786 0s-0.217 0.531 0 0.733l1.779 1.659z"></path>
<path d="M13.102 22.6h3.559c0.307 0 0.556-0.232 0.556-0.518s-0.249-0.518-0.556-0.518h-3.559c-0.307 0-0.556 0.232-0.556 0.518s0.249 0.518 0.556 0.518z"></path>
<path d="M13.102 24.812h5.931c0.307 0 0.556-0.232 0.556-0.518s-0.249-0.518-0.556-0.518h-5.931c-0.307 0-0.556 0.232-0.556 0.518s0.249 0.518 0.556 0.518z"></path>
<path d="M7.371 24.66c0.109 0.101 0.251 0.152 0.393 0.152s0.285-0.051 0.393-0.152l2.966-2.765c0.217-0.203 0.217-0.531 0-0.733s-0.569-0.202-0.786 0l-2.572 2.398-1.386-1.292c-0.217-0.202-0.569-0.202-0.786 0s-0.217 0.531 0 0.733l1.779 1.659z"></path>
</svg>
