<!-- Generated by IcoMoon.io -->
<svg version="1.1" xmlns="http://www.w3.org/2000/svg" width="27" height="32" viewBox="0 0 27 32">
<title>user</title>
<path d="M18.69 18.857c2.183 0 4.048 0.794 5.595 2.381 1.587 1.548 2.381 3.413 2.381 5.595v1.548c0 0.794-0.278 1.468-0.833 2.024s-1.23 0.833-2.024 0.833h-20.952c-0.794 0-1.468-0.278-2.024-0.833s-0.833-1.23-0.833-2.024v-1.548c0-2.183 0.774-4.048 2.321-5.595 1.587-1.587 3.472-2.381 5.655-2.381 0.516 0 1.27 0.159 2.262 0.476 1.032 0.317 2.063 0.476 3.095 0.476s2.064-0.159 3.095-0.476c1.032-0.317 1.786-0.476 2.262-0.476zM23.81 28.381v-1.548c0-1.389-0.516-2.579-1.548-3.572-0.992-1.032-2.183-1.548-3.572-1.548-0.119 0-0.754 0.159-1.905 0.476-1.111 0.317-2.262 0.476-3.452 0.476s-2.361-0.159-3.512-0.476c-1.111-0.317-1.726-0.476-1.845-0.476-1.389 0-2.599 0.516-3.631 1.548-0.992 0.992-1.488 2.183-1.488 3.572v1.548h20.952zM19.405 15.405c-1.667 1.667-3.691 2.5-6.071 2.5s-4.405-0.833-6.071-2.5c-1.667-1.667-2.5-3.691-2.5-6.071s0.833-4.405 2.5-6.071c1.667-1.667 3.69-2.5 6.071-2.5s4.405 0.833 6.071 2.5c1.667 1.667 2.5 3.69 2.5 6.071s-0.833 4.405-2.5 6.071zM17.381 5.286c-1.111-1.111-2.46-1.667-4.048-1.667s-2.937 0.556-4.048 1.667c-1.111 1.111-1.667 2.46-1.667 4.048s0.556 2.937 1.667 4.048c1.111 1.111 2.46 1.667 4.048 1.667s2.937-0.556 4.048-1.667c1.111-1.111 1.667-2.46 1.667-4.048s-0.556-2.937-1.667-4.048z"></path>
</svg>
