<svg width="54" height="45" viewBox="0 0 54 45" fill="none" xmlns="http://www.w3.org/2000/svg">
<path d="M46.0898 23.6697H40.804C40.0846 23.6697 39.388 23.768 38.7252 23.9487C37.4176 21.3782 34.7479 19.6121 31.6717 19.6121H22.3283C19.2521 19.6121 16.5824 21.3782 15.2748 23.9487C14.612 23.768 13.9154 23.6697 13.196 23.6697H7.91016C3.5485 23.6697 0 27.2182 0 31.5798V40.0298C0 42.6468 2.1291 44.7758 4.74609 44.7758H49.2539C51.8709 44.7758 54 42.6468 54 40.0298V31.5798C54 27.2182 50.4515 23.6697 46.0898 23.6697ZM14.4181 27.5224V41.6119H4.74609C3.87376 41.6119 3.16406 40.9022 3.16406 40.0299V31.5799C3.16406 28.9629 5.29316 26.8338 7.91016 26.8338H13.196C13.6255 26.8338 14.0414 26.8921 14.4373 26.9996C14.4259 27.1727 14.4181 27.3467 14.4181 27.5224ZM36.4178 41.6119H17.5822V27.5223C17.5822 24.9053 19.7113 22.7762 22.3283 22.7762H31.6717C34.2887 22.7762 36.4178 24.9053 36.4178 27.5223V41.6119ZM50.8359 40.0299C50.8359 40.9022 50.1262 41.6119 49.2539 41.6119H39.5819V27.5223C39.5819 27.3465 39.5741 27.1725 39.5627 26.9995C39.9586 26.8921 40.3745 26.8337 40.804 26.8337H46.0898C48.7068 26.8337 50.8359 28.9628 50.8359 31.5798V40.0299Z" fill="url(#paint0_linear)"/>
<path d="M10.5532 8.73022C6.67734 8.73022 3.52414 11.8834 3.52414 15.7593C3.52403 19.6352 6.67734 22.7884 10.5532 22.7884C14.429 22.7884 17.5823 19.6352 17.5823 15.7593C17.5823 11.8834 14.4291 8.73022 10.5532 8.73022ZM10.5531 19.6243C8.4219 19.6243 6.6881 17.8905 6.6881 15.7593C6.6881 13.6281 8.4219 11.8943 10.5531 11.8943C12.6843 11.8943 14.4181 13.6281 14.4181 15.7593C14.4181 17.8905 12.6843 19.6243 10.5531 19.6243Z" fill="url(#paint1_linear)"/>
<path d="M27 0C21.8219 0 17.6093 4.21263 17.6093 9.39073C17.6093 14.5688 21.8219 18.7815 27 18.7815C32.1781 18.7815 36.3907 14.5688 36.3907 9.39073C36.3907 4.21274 32.1781 0 27 0ZM27 15.6174C23.5665 15.6174 20.7733 12.8242 20.7733 9.39073C20.7733 5.9574 23.5665 3.16406 27 3.16406C30.4334 3.16406 33.2266 5.9573 33.2266 9.39073C33.2266 12.8242 30.4334 15.6174 27 15.6174Z" fill="url(#paint2_linear)"/>
<path d="M43.4468 8.73022C39.5711 8.73022 36.4178 11.8834 36.4178 15.7593C36.4179 19.6352 39.5711 22.7884 43.4468 22.7884C47.3227 22.7884 50.4759 19.6352 50.4759 15.7593C50.4759 11.8834 47.3227 8.73022 43.4468 8.73022ZM43.4468 19.6243C41.3157 19.6243 39.5818 17.8905 39.5818 15.7593C39.5819 13.6281 41.3157 11.8943 43.4468 11.8943C45.578 11.8943 47.3118 13.6281 47.3118 15.7593C47.3118 17.8905 45.578 19.6243 43.4468 19.6243Z" fill="url(#paint3_linear)"/>
<defs>
<linearGradient id="paint0_linear" x1="27" y1="19.6121" x2="27" y2="44.7758" gradientUnits="userSpaceOnUse">
<stop stop-color="#4FCF82"/>
<stop offset="1" stop-color="#4CFB91"/>
<stop offset="1" stop-color="#4CFB91"/>
</linearGradient>
<linearGradient id="paint1_linear" x1="10.5532" y1="8.73022" x2="10.5532" y2="22.7884" gradientUnits="userSpaceOnUse">
<stop stop-color="#4FCF82"/>
<stop offset="1" stop-color="#4CFB91"/>
<stop offset="1" stop-color="#4CFB91"/>
</linearGradient>
<linearGradient id="paint2_linear" x1="27" y1="0" x2="27" y2="18.7815" gradientUnits="userSpaceOnUse">
<stop stop-color="#4FCF82"/>
<stop offset="1" stop-color="#4CFB91"/>
<stop offset="1" stop-color="#4CFB91"/>
</linearGradient>
<linearGradient id="paint3_linear" x1="43.4468" y1="8.73022" x2="43.4468" y2="22.7884" gradientUnits="userSpaceOnUse">
<stop stop-color="#4FCF82"/>
<stop offset="1" stop-color="#4CFB91"/>
<stop offset="1" stop-color="#4CFB91"/>
</linearGradient>
</defs>
</svg>
