<svg width="63" height="59" viewBox="0 0 63 59" fill="none" xmlns="http://www.w3.org/2000/svg">
<path d="M49.4373 17.7883C48.9766 17.2117 48.4826 16.6512 47.9685 16.1219L46.5219 17.5252C46.9907 18.0091 47.4423 18.5212 47.8627 19.0475L49.4373 17.7883Z" fill="url(#paint0_linear)"/>
<path d="M50.0815 22.4387L51.8668 21.5022C51.5221 20.8459 51.143 20.2007 50.7408 19.5868L49.0542 20.6957C49.4212 21.2522 49.767 21.8399 50.0815 22.4387Z" fill="url(#paint1_linear)"/>
<path d="M46.3455 14.6027C45.7829 14.1249 45.1922 13.6682 44.5883 13.2468L43.4341 14.8981C43.9845 15.2842 44.5248 15.7046 45.039 16.1391L46.3455 14.6027Z" fill="url(#paint2_linear)"/>
<path d="M52.3941 30.1678L54.4012 29.9662C54.3286 29.2272 54.2197 28.4873 54.0776 27.7655L52.0997 28.1556C52.2267 28.818 52.3265 29.4934 52.3941 30.1678Z" fill="url(#paint3_linear)"/>
<path d="M51.6108 26.1919L53.5423 25.6133C53.3316 24.9076 53.0826 24.2019 52.8044 23.5184L50.9364 24.2785C51.1914 24.9056 51.4182 25.5467 51.6108 26.1919Z" fill="url(#paint4_linear)"/>
<path d="M52.4062 34.2214L54.4133 34.4059C54.4778 33.7003 54.5141 32.9795 54.5141 32.1881L52.4949 32.2647C52.4949 32.918 52.4646 33.5753 52.4062 34.2214Z" fill="url(#paint5_linear)"/>
<path d="M26.3851 54.9227C27.0313 55.0629 27.6906 55.1768 28.3459 55.2605L28.6009 53.2614C28.0041 53.1838 27.4023 53.0799 26.8135 52.9519L26.3851 54.9227Z" fill="url(#paint6_linear)"/>
<path d="M30.4074 53.4146L30.3197 55.4308C30.6537 55.4442 30.9888 55.4509 31.3248 55.4509C31.6544 55.4509 31.9821 55.4439 32.3097 55.4298L32.224 53.4136C31.6202 53.4418 31.0093 53.4408 30.4074 53.4146Z" fill="url(#paint7_linear)"/>
<path d="M22.5846 53.7473C23.1995 53.9973 23.8296 54.2231 24.4576 54.4167L25.0524 52.4902C24.4808 52.3138 23.9062 52.1081 23.3447 51.8793L22.5846 53.7473Z" fill="url(#paint8_linear)"/>
<path d="M37.575 52.4963L38.1688 54.4227C38.7998 54.2282 39.4299 54.0024 40.0428 53.7534L39.2888 51.8864C38.7293 52.1132 38.1536 52.3188 37.575 52.4963Z" fill="url(#paint9_linear)"/>
<path d="M34.0346 53.2624L34.2896 55.2625C34.9439 55.1788 35.6001 55.0609 36.2504 54.9258L35.8239 52.955C35.2332 53.083 34.6314 53.1868 34.0346 53.2624Z" fill="url(#paint10_linear)"/>
<path d="M10.2424 34.1983C10.1839 33.5602 10.1547 32.9089 10.1547 32.2647V32.1639L8.1385 32.2647C8.1385 32.9704 8.17076 33.6811 8.23931 34.3818L10.2424 34.1983Z" fill="url(#paint11_linear)"/>
<path d="M11.7193 24.2624L9.85227 23.4993C9.57403 24.1807 9.32503 24.8854 9.11232 25.5931L11.0438 26.1727C11.2374 25.5266 11.4652 24.8844 11.7193 24.2624Z" fill="url(#paint12_linear)"/>
<path d="M19.2276 14.8911L18.0743 13.2378C17.4695 13.6612 16.8757 14.1179 16.3152 14.5947L17.6146 16.1351C18.1308 15.6945 18.6701 15.2772 19.2276 14.8911Z" fill="url(#paint13_linear)"/>
<path d="M10.5579 28.1396L8.57803 27.7484C8.43488 28.4722 8.32601 29.2122 8.25242 29.9461L10.2595 30.1477C10.3251 29.4753 10.4259 28.7999 10.5579 28.1396Z" fill="url(#paint14_linear)"/>
<path d="M13.6034 20.6776L11.9179 19.5687C11.5146 20.1867 11.1336 20.8309 10.7908 21.4841L12.5751 22.4227C12.8887 21.8299 13.2344 21.2422 13.6034 20.6776Z" fill="url(#paint15_linear)"/>
<path d="M16.1368 17.5172L14.6911 16.1119C14.178 16.6392 13.683 17.1997 13.2213 17.7753L14.794 19.0374C15.2174 18.5102 15.669 17.9991 16.1368 17.5172Z" fill="url(#paint16_linear)"/>
<path d="M51.4868 36.2971C49.9368 36.2979 48.4044 36.6249 46.9891 37.2567C45.5737 37.8886 44.3072 38.8112 43.2718 39.9646L36.6959 35.0329C37.1342 34.1884 37.3663 33.2521 37.3734 32.3007C37.3806 31.3492 37.1625 30.4096 36.737 29.5586C36.3115 28.7076 35.6906 27.9693 34.9252 27.4042C34.1598 26.839 33.2715 26.463 32.3329 26.3068V22.1323C35.1747 21.8729 37.8072 20.5279 39.6826 18.3771C41.5581 16.2263 42.5322 13.4352 42.4024 10.5845C42.2725 7.73382 41.0487 5.04291 38.9855 3.07151C36.9223 1.10011 34.1784 0 31.3248 0C28.4711 0 25.7273 1.10011 23.6641 3.07151C21.6008 5.04291 20.377 7.73382 20.2472 10.5845C20.1173 13.4352 21.0915 16.2263 22.9669 18.3771C24.8424 20.5279 27.4748 21.8729 30.3167 22.1323V26.3068C29.3781 26.4631 28.4898 26.8393 27.7244 27.4045C26.959 27.9698 26.3381 28.7082 25.9126 29.5592C25.4871 30.4103 25.269 31.35 25.2762 32.3015C25.2833 33.253 25.5154 34.1893 25.9536 35.0339L19.3788 39.9646C17.4608 37.8397 14.7975 36.5361 11.9428 36.3249C9.08809 36.1138 6.26191 37.0114 4.0522 38.831C1.84248 40.6506 0.419386 43.2521 0.078967 46.0943C-0.261452 48.9364 0.50702 51.8004 2.22451 54.0904C3.942 56.3804 6.47625 57.92 9.30005 58.389C12.1238 58.858 15.0198 58.2203 17.3853 56.6085C19.7508 54.9966 21.4039 52.5348 22.0005 49.7352C22.5971 46.9356 22.0914 44.0137 20.5885 41.5775L27.1644 36.6469C28.2844 37.7176 29.7743 38.3152 31.3238 38.3152C32.8733 38.3152 34.3631 37.7176 35.4832 36.6469L42.059 41.5775C40.7758 43.667 40.222 46.1231 40.4845 48.5611C40.747 50.999 41.811 53.281 43.5096 55.0494C45.2083 56.8177 47.4457 57.9726 49.8711 58.3329C52.2965 58.6932 54.773 58.2386 56.9123 57.0403C59.0516 55.8421 60.733 53.9679 61.6928 51.7116C62.6527 49.4552 62.8368 46.9441 62.2163 44.5719C61.5959 42.1996 60.2059 40.1003 58.2642 38.6028C56.3225 37.1053 53.9388 36.2944 51.4868 36.2971ZM7.13039 55.5014V53.4348C7.13039 52.3653 7.55524 51.3397 8.31146 50.5835C9.06768 49.8272 10.0933 49.4024 11.1628 49.4024C12.2323 49.4024 13.2579 49.8272 14.0141 50.5835C14.7704 51.3397 15.1952 52.3653 15.1952 53.4348V55.5014C13.9442 56.1308 12.5632 56.4586 11.1628 56.4586C9.76238 56.4586 8.3814 56.1308 7.13039 55.5014ZM9.14659 45.37V44.3619C9.14659 43.8272 9.35901 43.3143 9.73713 42.9362C10.1152 42.5581 10.6281 42.3457 11.1628 42.3457C11.6975 42.3457 12.2104 42.5581 12.5885 42.9362C12.9666 43.3143 13.179 43.8272 13.179 44.3619V45.37C13.179 45.9047 12.9666 46.4175 12.5885 46.7957C12.2104 47.1738 11.6975 47.3862 11.1628 47.3862C10.6281 47.3862 10.1152 47.1738 9.73713 46.7957C9.35901 46.4175 9.14659 45.9047 9.14659 45.37ZM17.2114 54.1294V53.4348C17.2108 52.3526 16.9198 51.2905 16.3689 50.359C15.818 49.4276 15.0273 48.661 14.0792 48.1392C14.7938 47.3942 15.1935 46.4023 15.1952 45.37V44.3619C15.1952 43.2924 14.7704 42.2668 14.0141 41.5106C13.2579 40.7543 12.2323 40.3295 11.1628 40.3295C10.0933 40.3295 9.06768 40.7543 8.31146 41.5106C7.55524 42.2668 7.13039 43.2924 7.13039 44.3619V45.37C7.13209 46.4023 7.53181 47.3942 8.24636 48.1392C7.2983 48.661 6.50759 49.4276 5.95668 50.359C5.40576 51.2905 5.11482 52.3526 5.1142 53.4348V54.1294C3.74461 52.9044 2.77926 51.2924 2.34587 49.5068C1.91248 47.7211 2.03149 45.8459 2.68714 44.1294C3.3428 42.4129 4.5042 40.9359 6.01766 39.8939C7.53112 38.8519 9.3253 38.2939 11.1628 38.2939C13.0003 38.2939 14.7945 38.8519 16.3079 39.8939C17.8214 40.9359 18.9828 42.4129 19.6384 44.1294C20.2941 45.8459 20.4131 47.7211 19.9797 49.5068C19.5463 51.2924 18.581 52.9044 17.2114 54.1294ZM29.3086 9.07839V8.07029C29.3086 7.53556 29.521 7.02274 29.8991 6.64463C30.2772 6.26651 30.7901 6.05409 31.3248 6.05409C31.8595 6.05409 32.3723 6.26651 32.7505 6.64463C33.1286 7.02274 33.341 7.53556 33.341 8.07029V9.07839C33.341 9.61312 33.1286 10.126 32.7505 10.5041C32.3723 10.8822 31.8595 11.0946 31.3248 11.0946C30.7901 11.0946 30.2772 10.8822 29.8991 10.5041C29.521 10.126 29.3086 9.61312 29.3086 9.07839ZM31.3248 13.1108C32.3942 13.1108 33.4199 13.5356 34.1761 14.2919C34.9323 15.0481 35.3572 16.0737 35.3572 17.1432V19.2098C34.1062 19.8392 32.7252 20.167 31.3248 20.167C29.9244 20.167 28.5434 19.8392 27.2924 19.2098V17.1432C27.2924 16.0737 27.7172 15.0481 28.4735 14.2919C29.2297 13.5356 30.2553 13.1108 31.3248 13.1108ZM22.2519 11.0946C22.2487 9.58036 22.6245 8.0894 23.3451 6.75762C24.0657 5.42584 25.1081 4.29559 26.3774 3.4699C27.6467 2.6442 29.1025 2.14933 30.6121 2.03039C32.1216 1.91144 33.637 2.17221 35.0199 2.78892C36.4029 3.40563 37.6095 4.35866 38.5298 5.56115C39.4501 6.76364 40.0547 8.17734 40.2887 9.67339C40.5227 11.1694 40.3785 12.7003 39.8693 14.1263C39.3601 15.5524 38.502 16.8283 37.3734 17.8378V17.1432C37.3728 16.061 37.0818 14.9989 36.5309 14.0674C35.98 13.136 35.1893 12.3694 34.2412 11.8476C34.9558 11.1026 35.3555 10.1107 35.3572 9.07839V8.07029C35.3572 7.00083 34.9323 5.97518 34.1761 5.21896C33.4199 4.46274 32.3942 4.03789 31.3248 4.03789C30.2553 4.03789 29.2297 4.46274 28.4735 5.21896C27.7172 5.97518 27.2924 7.00083 27.2924 8.07029V9.07839C27.2941 10.1107 27.6938 11.1026 28.4084 11.8476C27.4603 12.3694 26.6696 13.136 26.1187 14.0674C25.5678 14.9989 25.2768 16.061 25.2762 17.1432V17.8378C24.3257 16.9901 23.565 15.9512 23.0438 14.7892C22.5226 13.6272 22.2528 12.3682 22.2519 11.0946ZM31.3248 36.2971C30.5273 36.2971 29.7476 36.0606 29.0845 35.6175C28.4214 35.1744 27.9045 34.5446 27.5993 33.8078C27.2941 33.071 27.2143 32.2602 27.3699 31.478C27.5255 30.6958 27.9095 29.9773 28.4735 29.4134C29.0374 28.8494 29.7559 28.4654 30.5381 28.3098C31.3203 28.1542 32.1311 28.234 32.8679 28.5392C33.6047 28.8444 34.2345 29.3613 34.6776 30.0244C35.1207 30.6875 35.3572 31.4672 35.3572 32.2647C35.3572 33.3341 34.9323 34.3598 34.1761 35.116C33.4199 35.8722 32.3942 36.2971 31.3248 36.2971ZM47.4544 55.5014V53.4348C47.4544 52.3653 47.8792 51.3397 48.6354 50.5835C49.3917 49.8272 50.4173 49.4024 51.4868 49.4024C52.5562 49.4024 53.5819 49.8272 54.3381 50.5835C55.0943 51.3397 55.5192 52.3653 55.5192 53.4348V55.5014C54.2682 56.1308 52.8872 56.4586 51.4868 56.4586C50.0864 56.4586 48.7054 56.1308 47.4544 55.5014ZM49.4706 45.37V44.3619C49.4706 43.8272 49.683 43.3143 50.0611 42.9362C50.4392 42.5581 50.952 42.3457 51.4868 42.3457C52.0215 42.3457 52.5343 42.5581 52.9124 42.9362C53.2906 43.3143 53.503 43.8272 53.503 44.3619V45.37C53.503 45.9047 53.2906 46.4175 52.9124 46.7957C52.5343 47.1738 52.0215 47.3862 51.4868 47.3862C50.952 47.3862 50.4392 47.1738 50.0611 46.7957C49.683 46.4175 49.4706 45.9047 49.4706 45.37ZM57.5354 54.1294V53.4348C57.5348 52.3526 57.2438 51.2905 56.6929 50.359C56.142 49.4276 55.3513 48.661 54.4032 48.1392C55.1178 47.3942 55.5175 46.4023 55.5192 45.37V44.3619C55.5192 43.2924 55.0943 42.2668 54.3381 41.5106C53.5819 40.7543 52.5562 40.3295 51.4868 40.3295C50.4173 40.3295 49.3917 40.7543 48.6354 41.5106C47.8792 42.2668 47.4544 43.2924 47.4544 44.3619V45.37C47.4561 46.4023 47.8558 47.3942 48.5703 48.1392C47.6223 48.661 46.8316 49.4276 46.2807 50.359C45.7297 51.2905 45.4388 52.3526 45.4382 53.4348V54.1294C44.0686 52.9044 43.1032 51.2924 42.6699 49.5068C42.2365 47.7211 42.3555 45.8459 43.0111 44.1294C43.6668 42.4129 44.8282 40.9359 46.3416 39.8939C47.8551 38.8519 49.6493 38.2939 51.4868 38.2939C53.3243 38.2939 55.1185 38.8519 56.6319 39.8939C58.1454 40.9359 59.3068 42.4129 59.9624 44.1294C60.6181 45.8459 60.7371 47.7211 60.3037 49.5068C59.8703 51.2924 58.905 52.9044 57.5354 54.1294Z" fill="url(#paint17_linear)"/>
<defs>
<linearGradient id="paint0_linear" x1="47.9796" y1="16.1219" x2="47.9796" y2="19.0475" gradientUnits="userSpaceOnUse">
<stop stop-color="#CF79FF"/>
<stop offset="1" stop-color="#68D7F7"/>
</linearGradient>
<linearGradient id="paint1_linear" x1="50.4605" y1="19.5868" x2="50.4605" y2="22.4387" gradientUnits="userSpaceOnUse">
<stop stop-color="#CF79FF"/>
<stop offset="1" stop-color="#68D7F7"/>
</linearGradient>
<linearGradient id="paint2_linear" x1="44.8898" y1="13.2468" x2="44.8898" y2="16.1391" gradientUnits="userSpaceOnUse">
<stop stop-color="#CF79FF"/>
<stop offset="1" stop-color="#68D7F7"/>
</linearGradient>
<linearGradient id="paint3_linear" x1="53.2505" y1="27.7655" x2="53.2505" y2="30.1678" gradientUnits="userSpaceOnUse">
<stop stop-color="#CF79FF"/>
<stop offset="1" stop-color="#68D7F7"/>
</linearGradient>
<linearGradient id="paint4_linear" x1="52.2393" y1="23.5184" x2="52.2393" y2="26.1919" gradientUnits="userSpaceOnUse">
<stop stop-color="#CF79FF"/>
<stop offset="1" stop-color="#68D7F7"/>
</linearGradient>
<linearGradient id="paint5_linear" x1="53.4601" y1="32.1881" x2="53.4601" y2="34.4059" gradientUnits="userSpaceOnUse">
<stop stop-color="#CF79FF"/>
<stop offset="1" stop-color="#68D7F7"/>
</linearGradient>
<linearGradient id="paint6_linear" x1="27.493" y1="52.9519" x2="27.493" y2="55.2605" gradientUnits="userSpaceOnUse">
<stop stop-color="#CF79FF"/>
<stop offset="1" stop-color="#68D7F7"/>
</linearGradient>
<linearGradient id="paint7_linear" x1="31.3147" y1="53.4136" x2="31.3147" y2="55.4509" gradientUnits="userSpaceOnUse">
<stop stop-color="#CF79FF"/>
<stop offset="1" stop-color="#68D7F7"/>
</linearGradient>
<linearGradient id="paint8_linear" x1="23.8185" y1="51.8793" x2="23.8185" y2="54.4167" gradientUnits="userSpaceOnUse">
<stop stop-color="#CF79FF"/>
<stop offset="1" stop-color="#68D7F7"/>
</linearGradient>
<linearGradient id="paint9_linear" x1="38.8089" y1="51.8864" x2="38.8089" y2="54.4227" gradientUnits="userSpaceOnUse">
<stop stop-color="#CF79FF"/>
<stop offset="1" stop-color="#68D7F7"/>
</linearGradient>
<linearGradient id="paint10_linear" x1="35.1425" y1="52.955" x2="35.1425" y2="55.2625" gradientUnits="userSpaceOnUse">
<stop stop-color="#CF79FF"/>
<stop offset="1" stop-color="#68D7F7"/>
</linearGradient>
<linearGradient id="paint11_linear" x1="9.19045" y1="32.1639" x2="9.19045" y2="34.3818" gradientUnits="userSpaceOnUse">
<stop stop-color="#CF79FF"/>
<stop offset="1" stop-color="#68D7F7"/>
</linearGradient>
<linearGradient id="paint12_linear" x1="10.4158" y1="23.4993" x2="10.4158" y2="26.1727" gradientUnits="userSpaceOnUse">
<stop stop-color="#CF79FF"/>
<stop offset="1" stop-color="#68D7F7"/>
</linearGradient>
<linearGradient id="paint13_linear" x1="17.7714" y1="13.2378" x2="17.7714" y2="16.1351" gradientUnits="userSpaceOnUse">
<stop stop-color="#CF79FF"/>
<stop offset="1" stop-color="#68D7F7"/>
</linearGradient>
<linearGradient id="paint14_linear" x1="9.40518" y1="27.7484" x2="9.40518" y2="30.1477" gradientUnits="userSpaceOnUse">
<stop stop-color="#CF79FF"/>
<stop offset="1" stop-color="#68D7F7"/>
</linearGradient>
<linearGradient id="paint15_linear" x1="12.1971" y1="19.5687" x2="12.1971" y2="22.4227" gradientUnits="userSpaceOnUse">
<stop stop-color="#CF79FF"/>
<stop offset="1" stop-color="#68D7F7"/>
</linearGradient>
<linearGradient id="paint16_linear" x1="14.679" y1="16.1119" x2="14.679" y2="19.0374" gradientUnits="userSpaceOnUse">
<stop stop-color="#CF79FF"/>
<stop offset="1" stop-color="#68D7F7"/>
</linearGradient>
<linearGradient id="paint17_linear" x1="31.2884" y1="0" x2="31.2884" y2="58.5394" gradientUnits="userSpaceOnUse">
<stop stop-color="#CF79FF"/>
<stop offset="1" stop-color="#68D7F7"/>
</linearGradient>
</defs>
</svg>
