<svg width="61" height="39" viewBox="0 0 61 39" fill="none" xmlns="http://www.w3.org/2000/svg">
<path d="M48.0187 26.061C46.8252 23.5727 42.5554 20.1188 38.4302 16.7816C36.1293 14.9216 33.9552 13.1631 32.5692 11.777C32.222 11.4274 31.7025 11.3158 31.2439 11.4806C30.39 11.7898 29.8629 12.0279 29.4474 12.2128C28.8139 12.4966 28.6011 12.5929 27.7471 12.6791C27.3695 12.7171 27.03 12.9198 26.8196 13.234C25.0281 15.9124 23.1732 15.6843 21.9341 15.2688C21.5388 15.1371 21.4679 14.9672 21.4299 14.8051C21.1638 13.6927 22.4993 11.103 24.2299 9.37223C28.3476 5.252 30.471 4.22063 34.9562 6.22504C40.0443 8.5005 45.1427 10.282 45.1934 10.2997C45.8599 10.5302 46.577 10.1805 46.8075 9.51916C47.0356 8.85779 46.6884 8.13561 46.027 7.90506C45.9763 7.88736 40.9793 6.14142 35.9925 3.90896C30.1822 1.3116 26.9943 3.02203 22.4408 7.57818C20.7076 9.31141 18.3535 12.8184 18.9616 15.3904C19.2226 16.4851 19.993 17.296 21.1383 17.6735C24.0093 18.6212 26.6293 17.714 28.5805 15.1244C29.3863 15.0002 29.8248 14.8178 30.4835 14.5213C30.7217 14.4149 31.0004 14.2908 31.3704 14.1412C32.8199 15.502 34.7761 17.0857 36.8362 18.7505C40.5611 21.7633 44.7853 25.1792 45.7355 27.1557C46.2043 28.1312 45.7 28.7673 45.3579 29.0587C44.8562 29.4895 44.1695 29.6263 43.797 29.3652C43.3865 29.084 42.8519 29.0663 42.4287 29.3196C42.003 29.573 41.7648 30.0519 41.8181 30.5435C41.9042 31.3493 41.1668 31.8105 40.8475 31.9702C40.0366 32.3807 39.1903 32.3098 38.8735 32.0158C38.5187 31.6864 38.0094 31.5901 37.5584 31.7573C37.1074 31.9271 36.7931 32.3427 36.7475 32.8241C36.6714 33.6552 36.0557 34.4534 35.2524 34.7651C34.8647 34.912 34.3021 35.0007 33.7979 34.5395C33.4838 34.2557 33.0478 34.1467 32.6399 34.2455C32.2269 34.3468 31.895 34.6459 31.7505 35.0437C31.7024 35.1705 31.5934 35.4745 30.4075 35.4745C29.5637 35.4745 28.0458 34.9044 27.3034 34.4128C26.414 33.8274 20.8367 29.6667 16.0197 25.6326C15.3431 25.0624 14.1724 23.841 13.1386 22.7615C12.2212 21.8037 11.3825 20.9346 10.9517 20.5697C10.412 20.1136 9.6138 20.182 9.16529 20.7192C8.71428 21.2539 8.78008 22.0547 9.31483 22.5057C9.70763 22.8377 10.4678 23.6409 11.3065 24.5151C12.4367 25.6959 13.6048 26.9173 14.3904 27.5762C19.1087 31.5267 24.7797 35.7913 25.9098 36.5337C26.8423 37.147 28.8517 38.0085 30.4076 38.0085C31.6568 38.0085 32.6173 37.7221 33.2836 37.1622C34.1755 37.5093 35.1892 37.5118 36.1647 37.1318C37.3177 36.6857 38.2654 35.7862 38.8026 34.6966C39.8009 34.9095 40.9438 34.76 41.9827 34.238C42.9988 33.7262 43.7336 32.9432 44.0985 32.0284C45.1071 32.0816 46.1459 31.7243 47.0049 30.9869C48.4596 29.7428 48.8599 27.8069 48.0187 26.061Z" fill="url(#paint0_linear)"/>
<path d="M25.3396 5.06702H13.9368C13.2374 5.06702 12.6697 5.63467 12.6697 6.33404C12.6697 7.03341 13.2374 7.60106 13.9368 7.60106H25.3396C26.039 7.60106 26.6066 7.03341 26.6066 6.33404C26.6066 5.63467 26.039 5.06702 25.3396 5.06702Z" fill="url(#paint1_linear)"/>
<path d="M51.7309 23.3649C51.3381 22.7846 50.5526 22.625 49.9724 23.0203L46.2678 25.5086C45.6875 25.8988 45.5329 26.6869 45.9232 27.2671C46.169 27.6295 46.5694 27.8272 46.9774 27.8272C47.2181 27.8272 47.4639 27.7588 47.6818 27.6118L51.3865 25.1235C51.9666 24.7332 52.1211 23.9452 51.7309 23.3649Z" fill="url(#paint2_linear)"/>
<path d="M43.8655 29.4109C42.9583 28.6964 38.9014 24.5432 36.3928 21.9282C35.9088 21.4214 35.1056 21.4037 34.6012 21.8902C34.0944 22.3742 34.0792 23.1774 34.5632 23.6817C35.2145 24.3608 40.9589 30.3486 42.2944 31.4028C42.5249 31.5852 42.8037 31.6739 43.0773 31.6739C43.4498 31.6739 43.8223 31.5067 44.0757 31.1899C44.5091 30.6425 44.4154 29.8443 43.8655 29.4109Z" fill="url(#paint3_linear)"/>
<path d="M38.8026 31.9525C37.2847 30.7387 33.4712 26.6869 32.6095 25.7494C32.1331 25.2325 31.3349 25.2021 30.818 25.6734C30.3035 26.1472 30.2682 26.9505 30.742 27.4649C30.7876 27.513 35.3386 32.4265 37.2188 33.9317C37.4519 34.1166 37.7332 34.2078 38.0094 34.2078C38.3794 34.2078 38.7493 34.0431 39.0001 33.734C39.4362 33.1865 39.3474 32.3884 38.8026 31.9525Z" fill="url(#paint4_linear)"/>
<path d="M33.76 34.5042C31.9533 32.9814 28.2563 29.0461 27.5341 28.2732C27.0552 27.7613 26.2519 27.7334 25.7425 28.2123C25.2307 28.6913 25.2053 29.492 25.6817 30.0039C26.7207 31.1163 30.2581 34.8666 32.1256 36.4427C32.3638 36.6429 32.6527 36.7417 32.9415 36.7417C33.3013 36.7417 33.6612 36.5871 33.9121 36.2907C34.3631 35.7534 34.2947 34.9552 33.76 34.5042Z" fill="url(#paint5_linear)"/>
<path d="M14.8085 2.88035C12.6368 0.822728 3.95299 0.156255 1.34304 0.00172238C0.983258 -0.0159758 0.651269 0.103042 0.397912 0.343808C0.144436 0.581962 0 0.916445 0 1.26613V24.0718C0 24.7712 0.567648 25.3388 1.26702 25.3388H8.86892C9.41626 25.3388 9.90278 24.9867 10.0725 24.4646C10.2575 23.897 14.6236 10.4974 15.1987 3.9091C15.2317 3.5239 15.0898 3.1438 14.8085 2.88035ZM7.94398 22.8049H2.53393V2.62438C6.60605 2.94615 10.9999 3.64553 12.5963 4.42092C11.9249 9.97031 8.88662 19.83 7.94398 22.8049Z" fill="url(#paint6_linear)"/>
<path d="M59.5482 2.5332C49.5998 2.5332 44.0808 5.07984 43.8503 5.18627C43.5209 5.3408 43.275 5.62717 43.1737 5.97437C43.0724 6.32156 43.123 6.69406 43.313 7.00312C44.879 9.52446 49.7822 23.5272 50.7249 26.9429C50.8769 27.4927 51.3761 27.8728 51.9463 27.8728H59.5482C60.2475 27.8728 60.8152 27.3052 60.8152 26.6058V3.80011C60.8152 3.09824 60.2475 2.5332 59.5482 2.5332ZM58.2813 25.3389H52.894C51.6929 21.4264 48.1453 11.2247 46.1663 7.00823C48.0997 6.35197 52.253 5.22428 58.2813 5.08245V25.3389Z" fill="url(#paint7_linear)"/>
<defs>
<linearGradient id="paint0_linear" x1="28.6599" y1="2.69092" x2="28.6599" y2="38.0085" gradientUnits="userSpaceOnUse">
<stop stop-color="#FF5D81"/>
<stop offset="1" stop-color="#FF9273"/>
</linearGradient>
<linearGradient id="paint1_linear" x1="19.6382" y1="5.06702" x2="19.6382" y2="7.60106" gradientUnits="userSpaceOnUse">
<stop stop-color="#FF5D81"/>
<stop offset="1" stop-color="#FF9273"/>
</linearGradient>
<linearGradient id="paint2_linear" x1="48.827" y1="22.8026" x2="48.827" y2="27.8272" gradientUnits="userSpaceOnUse">
<stop stop-color="#FF5D81"/>
<stop offset="1" stop-color="#FF9273"/>
</linearGradient>
<linearGradient id="paint3_linear" x1="39.2793" y1="21.5364" x2="39.2793" y2="31.6739" gradientUnits="userSpaceOnUse">
<stop stop-color="#FF5D81"/>
<stop offset="1" stop-color="#FF9273"/>
</linearGradient>
<linearGradient id="paint4_linear" x1="34.8426" y1="25.3397" x2="34.8426" y2="34.2078" gradientUnits="userSpaceOnUse">
<stop stop-color="#FF5D81"/>
<stop offset="1" stop-color="#FF9273"/>
</linearGradient>
<linearGradient id="paint5_linear" x1="29.7755" y1="27.8705" x2="29.7755" y2="36.7417" gradientUnits="userSpaceOnUse">
<stop stop-color="#FF5D81"/>
<stop offset="1" stop-color="#FF9273"/>
</linearGradient>
<linearGradient id="paint6_linear" x1="7.6017" y1="0" x2="7.6017" y2="25.3388" gradientUnits="userSpaceOnUse">
<stop stop-color="#FF5D81"/>
<stop offset="1" stop-color="#FF9273"/>
</linearGradient>
<linearGradient id="paint7_linear" x1="51.9689" y1="2.5332" x2="51.9689" y2="27.8728" gradientUnits="userSpaceOnUse">
<stop stop-color="#FF5D81"/>
<stop offset="1" stop-color="#FF9273"/>
</linearGradient>
</defs>
</svg>
