<?xml version="1.0" encoding="utf-8"?><svg xmlns="http://www.w3.org/2000/svg" xmlns:xlink="http://www.w3.org/1999/xlink"><symbol viewBox="0 0 32 32" id="Facebook" xmlns="http://www.w3.org/2000/svg"><path d="M22.912 10.485L22.33 16h-4.409v16h-6.622V16h-3.3v-5.515h3.3v-3.32c0-4.486 1.865-7.164 7.168-7.164h4.407v5.515h-2.758c-2.058 0-2.195.777-2.195 2.214v2.756h4.99z"/></symbol><symbol viewBox="0 0 32 32" id="Twitter" xmlns="http://www.w3.org/2000/svg"><path d="M32 6.001c-1.2.6-2.4.8-3.8 1 1.4-.8 2.4-2 2.8-3.6-1.2.8-2.6 1.2-4.2 1.6-1.2-1.2-3-2-4.8-2-3.4 0-6.4 3-6.4 6.6 0 .6 0 1 .2 1.4-5.4-.2-10.4-2.8-13.6-6.8-.6 1-.8 2-.8 3.4 0 2.2 1.2 4.2 3 5.4-1 0-2-.4-3-.8 0 3.2 2.2 5.8 5.2 6.4-.6.2-1.2.2-1.8.2-.4 0-.8 0-1.2-.2.8 2.6 3.2 4.6 6.2 4.6-2.2 1.8-5 2.8-8.2 2.8H0c3 1.8 6.4 3 10 3 12 0 18.6-10 18.6-18.6v-.8c1.4-1 2.6-2.2 3.4-3.6z"/></symbol><symbol viewBox="0 0 24 24" id="arrow-left" xmlns="http://www.w3.org/2000/svg"><path d="M8.46 12.71l5.66 5.65a1.002 1.002 0 001.71-.705 1 1 0 00-.29-.705l-4.95-5L15.54 7a1 1 0 000-1.41 1 1 0 00-.71-.3 1 1 0 00-.71.3l-5.66 5.65a1 1 0 000 1.47z"/></symbol><symbol viewBox="0 0 24 24" id="arrow-right" xmlns="http://www.w3.org/2000/svg"><path d="M15.54 11.29L9.88 5.64a1 1 0 10-1.42 1.41l4.95 5L8.46 17a1 1 0 000 1.41 1 1 0 00.71.3.999.999 0 00.71-.3l5.66-5.65a1 1 0 000-1.47z"/></symbol><symbol viewBox="0 0 32 32" id="arrow01" xmlns="http://www.w3.org/2000/svg"><path fill-rule="evenodd" clip-rule="evenodd" d="M21.607 10l5.108 5.091-5.108 5.091-.851-.848 3.654-3.643H6v-1.2h18.41l-3.654-3.643.85-.848z"/></symbol><symbol viewBox="0 0 25 26" id="close2" xmlns="http://www.w3.org/2000/svg"><path d="M.413 2.145a1.225 1.225 0 01-.404-.88A1.252 1.252 0 01.36.36 1.198 1.198 0 011.245 0a1.178 1.178 0 01.862.412L12.27 10.82 22.452.412a1.194 1.194 0 01.852-.376 1.17 1.17 0 01.858.361 1.223 1.223 0 01.345.881 1.242 1.242 0 01-.377.867l-10.166 10.39 10.168 10.413a1.234 1.234 0 01-.006 1.71 1.18 1.18 0 01-.832.36 1.178 1.178 0 01-.84-.34L12.27 14.275 2.105 24.685a1.203 1.203 0 01-.863.42 1.177 1.177 0 01-.89-.358 1.228 1.228 0 01-.351-.91 1.25 1.25 0 01.411-.883l10.164-10.419L.413 2.145z"/></symbol><symbol viewBox="0 0 18 24" id="ic-address" xmlns="http://www.w3.org/2000/svg"><path d="M9 0C4.127 0 .163 3.964.163 8.836c0 1.27.26 2.484.773 3.607 2.209 4.833 6.444 9.937 7.69 11.386a.492.492 0 00.745 0c1.245-1.449 5.481-6.552 7.69-11.386a8.616 8.616 0 00.773-3.607C17.835 3.964 13.871 0 9 0zm0 13.425a4.595 4.595 0 01-4.59-4.59c0-2.53 2.059-4.59 4.59-4.59 2.53 0 4.589 2.06 4.589 4.59a4.595 4.595 0 01-4.59 4.59z"/></symbol><symbol viewBox="0 0 37 36" id="ic-box" xmlns="http://www.w3.org/2000/svg"><path d="M22.764 6.353a.004.004 0 00.002-.004c0-.003.003-.005.006-.004l6.435 2.883a1 1 0 00.76.023l3.962-1.485c.865-.324.865-1.548 0-1.873L18.564.132a1 1 0 00-.702 0L2.497 5.894c-.865.324-.865 1.548 0 1.872l15.365 5.762a1 1 0 00.702 0l4.086-1.533c.85-.318.87-1.514.03-1.86l-4.464-1.84a.005.005 0 01-.003-.005c0-.002.001-.004.003-.004l4.548-1.933zM1.351 9.613A1 1 0 000 10.55v18.353a1 1 0 00.649.936l15.074 5.654a1 1 0 001.352-.936V16.203a1 1 0 00-.65-.936L1.352 9.613zm7.755 18.615a1 1 0 01-1.35.936l-2.554-.957a1 1 0 01-.649-.936v-.294a1 1 0 011.351-.936L8.458 27a1 1 0 01.648.936v.293zm21.137-16.804a1 1 0 00-.649.937v4.316a1 1 0 01-.649.937l-2.553.957a1 1 0 01-1.35-.936v-2.817a1 1 0 00-1.352-.936l-3.692 1.385a1 1 0 00-.648.936v18.354a1 1 0 001.35.936l15.075-5.654a1 1 0 00.65-.936V10.549a1 1 0 00-1.352-.936l-4.83 1.811z"/></symbol><symbol viewBox="0 0 56 56" id="ic-business" xmlns="http://www.w3.org/2000/svg"><g clip-path="url(#aiclip0)"><path d="M30.364 4.751L5.14.918a4.068 4.068 0 00-3.26.895A4.104 4.104 0 00.46 4.89v48.357a2.302 2.302 0 002.295 2.295h7.46v-12.05a4.006 4.006 0 014.015-4.016h5.738a4.006 4.006 0 014.017 4.017v12.05h9.754V8.721a4.019 4.019 0 00-3.374-3.971zm-17.282 29.56H9.639a1.722 1.722 0 010-3.442h3.443a1.722 1.722 0 010 3.443zm0-6.885H9.639a1.722 1.722 0 010-3.442h3.443a1.722 1.722 0 010 3.442zm0-6.885H9.639a1.722 1.722 0 010-3.442h3.443a1.722 1.722 0 010 3.442zm0-6.885H9.639a1.722 1.722 0 010-3.443h3.443a1.722 1.722 0 010 3.443zm11.475 20.656h-3.442a1.722 1.722 0 010-3.443h3.442a1.722 1.722 0 010 3.443zm0-6.886h-3.442a1.722 1.722 0 010-3.442h3.442a1.722 1.722 0 010 3.442zm0-6.885h-3.442a1.722 1.722 0 010-3.442h3.442a1.722 1.722 0 010 3.442zm0-6.885h-3.442a1.722 1.722 0 010-3.443h3.442a1.722 1.722 0 010 3.443zm27.817 11.686l-16.34-3.422v33.621h15.491a4.02 4.02 0 004.016-4.016V29.267c0-1.896-1.292-3.51-3.167-3.925zm-5.44 23.314h-3.442a1.722 1.722 0 010-3.443h3.443a1.722 1.722 0 010 3.443zm0-6.885h-3.442a1.722 1.722 0 010-3.443h3.443a1.722 1.722 0 010 3.443zm0-6.886h-3.442a1.722 1.722 0 010-3.442h3.443a1.722 1.722 0 010 3.442z"/></g><defs><clipPath id="aiclip0"><path transform="translate(.459 .459)" d="M0 0h55.08v55.08H0z"/></clipPath></defs></symbol><symbol viewBox="0 0 46 41" id="ic-cap" xmlns="http://www.w3.org/2000/svg"><path d="M28.572 9.218c-1.052 0-1.905-.896-1.905-2v-3h-7.62v3c0 1.104-.852 2-1.904 2-1.051 0-1.905-.896-1.905-2v-3c0-2.206 1.709-4 3.81-4h7.619c2.1 0 3.81 1.794 3.81 4v3c0 1.104-.854 2-1.905 2zm-4.362 17.76c-.343.14-.839.24-1.353.24s-1.01-.1-1.466-.28L0 19.458v15.26c0 3.04 2.343 5.5 5.238 5.5h35.238c2.895 0 5.238-2.46 5.238-5.5v-15.26l-21.505 7.52z"/><path d="M45.714 11.717v4.58l-22.4 7.84c-.152.06-.305.08-.457.08-.152 0-.305-.02-.457-.08L0 16.297v-4.58c0-3.04 2.343-5.5 5.238-5.5h35.238c2.895 0 5.238 2.46 5.238 5.5z"/></symbol><symbol viewBox="0 0 55 45" id="ic-chat" xmlns="http://www.w3.org/2000/svg"><path d="M32.117 32.492h-17.44a3.575 3.575 0 01-3.57-3.571V15.768a.787.787 0 00-.788-.788H1.474C.66 14.98 0 15.643 0 16.454v20.574C0 37.84.661 38.5 1.474 38.5h2.37a.79.79 0 01.643.332l4.001 5.648a.788.788 0 001.285 0l4.001-5.648a.79.79 0 01.643-.332H31.43c.813 0 1.474-.66 1.474-1.473v-3.75a.787.787 0 00-.787-.786z"/><path d="M52.34.813H15.465c-1.1 0-1.995.895-1.995 1.996v25.325c0 1.1.895 1.995 1.995 1.995h20.943a.79.79 0 01.643.332l5.222 7.371a.788.788 0 001.285 0l5.222-7.37a.79.79 0 01.642-.333h2.92c1.1 0 1.995-.895 1.995-1.995V2.808c0-1.1-.895-1.995-1.995-1.995zM35.843 21.854v1.756a.33.33 0 01-.33.33h-2.527a.33.33 0 01-.33-.33v-1.82c-1.331-.32-2.563-1.003-3.41-1.898l-.49-.518a.33.33 0 01.012-.467l1.836-1.737a.33.33 0 01.466.013l.491.519c.624.66 1.733 1.103 2.759 1.103.81 0 2.183-.215 2.183-1.018.005-.693-.295-.972-2.419-1.615-1.816-.55-4.856-1.471-4.856-4.894 0-1.917 1.307-3.441 3.429-4.029V5.37a.33.33 0 01.33-.33h2.527a.33.33 0 01.33.33v1.706c1.097.161 2.163.54 2.96 1.055l.6.387a.33.33 0 01.098.456l-1.371 2.123a.33.33 0 01-.456.098l-.6-.387c-.567-.367-1.565-.633-2.372-.633-.85 0-2.288.233-2.288 1.104 0 .82.34 1.161 2.593 1.844 1.875.567 4.709 1.426 4.682 4.678 0 2.066-1.466 3.6-3.846 4.054z"/></symbol><symbol viewBox="0 0 48 49" id="ic-city" xmlns="http://www.w3.org/2000/svg"><path d="M44.203 42.43A5.211 5.211 0 0048 37.42c0-.733-.218-2.063-2.108-5.125a45.146 45.146 0 00-1.967-2.916l-1.128-1.518-1.129 1.518c-.04.054-.996 1.343-1.966 2.916-.316.51-.584.973-.813 1.393V8.218h-4.33v37.187h-2.812V.218H16.253v45.187H13.44V8.218H9.11v25.47c-.228-.42-.496-.882-.812-1.393a45.205 45.205 0 00-1.966-2.916L5.203 27.86l-1.128 1.52c-.04.054-.997 1.343-1.967 2.916C.218 35.357 0 36.687 0 37.42a5.211 5.211 0 003.797 5.008v2.976H0v2.813h48v-2.813h-3.797V42.43zM9.111 45.404H6.609V42.43a5.211 5.211 0 002.502-1.578v4.554zm13.637-5.687h-2.812v-4h2.812v4zm0-9h-2.812v-4h2.812v4zm0-9h-2.812v-4h2.812v4zm0-9h-2.812v-4h2.812v4zm5.316 27h-2.812v-4h2.812v4zm0-9h-2.812v-4h2.812v4zm0-9h-2.812v-4h2.812v4zm0-9h-2.812v-4h2.812v4zm13.327 32.687h-2.502V40.85a5.21 5.21 0 002.502 1.578v2.976z"/></symbol><symbol viewBox="0 0 43 44" id="ic-cloud" xmlns="http://www.w3.org/2000/svg"><path d="M21.12 44a2.553 2.553 0 100-5.105 2.553 2.553 0 000 5.105zm16.312-30.584l-.572-.287.079-.784c.058-.489.09-.98.098-1.471a10.87 10.87 0 00-16.818-9.101 11.051 11.051 0 00-3.954 4.594l-.308.663-.716-.144a8.854 8.854 0 00-1.707-.159 8.213 8.213 0 00-5.02 1.706A8.668 8.668 0 005.51 12.74l-.121.394-.374.175a7.12 7.12 0 00-2.037 1.408 6.915 6.915 0 004.89 11.808h26.497a6.911 6.911 0 003.066-13.11zM39.684 44a2.553 2.553 0 100-5.105 2.553 2.553 0 000 5.105zM2.553 44a2.553 2.553 0 100-5.105 2.553 2.553 0 000 5.105zm19.493-16.547h-1.857v10.56h1.857v-10.56zm11.836 13.112c-1.408 0-2.553-1.192-2.553-2.599V27.453h-1.856v10.513c0 2.431 1.978 4.456 4.409 4.456h2.32v-1.857h-2.32zM10.907 27.453v10.513c0 1.408-1.145 2.6-2.553 2.6h-2.32v1.856h2.32c2.431 0 4.41-2.025 4.41-4.456V27.453h-1.857z"/></symbol><symbol viewBox="0 0 44 44" id="ic-cpu" xmlns="http://www.w3.org/2000/svg"><path d="M31.864 11.856c-3.764 0-7.323-.655-10.021-1.846a12.235 12.235 0 01-2.126-1.183v2.663c0 1.012 1.184 2.138 3.166 3.013 2.378 1.049 5.567 1.627 8.98 1.627 3.415 0 6.604-.578 8.981-1.627 1.983-.875 3.167-2.001 3.167-3.013V8.827c-.609.43-1.319.827-2.126 1.183-2.698 1.19-6.257 1.846-10.021 1.846zm0 24.828c3.414 0 6.603-.578 8.98-1.627 1.983-.875 3.167-2 3.167-3.012V29.38c-.608.43-1.318.827-2.126 1.183-2.698 1.19-6.257 1.846-10.02 1.846-1.532 0-3.019-.107-4.442-.317a14.924 14.924 0 01-.716 4.114c1.613.313 3.37.477 5.157.477z"/><path d="M23.66 21.667c2.272.848 5.17 1.313 8.204 1.313 3.414 0 6.603-.577 8.98-1.626 1.983-.875 3.167-2.001 3.167-3.012v-2.664c-.609.43-1.319.827-2.126 1.183-2.698 1.19-6.257 1.846-10.021 1.846-3.764 0-7.323-.655-10.021-1.846a12.235 12.235 0 01-2.126-1.183v2.815a15.105 15.105 0 013.944 3.174zm8.204 8.165c3.414 0 6.603-.578 8.98-1.627 1.983-.874 3.167-2 3.167-3.012V22.53c-.608.43-1.318.828-2.126 1.184-2.698 1.19-6.257 1.846-10.02 1.846-2.085 0-4.122-.206-5.982-.592a14.88 14.88 0 011.395 4.492 27.48 27.48 0 004.586.373zM22.883 7.651c2.378 1.05 5.567 1.627 8.98 1.627 3.415 0 6.604-.578 8.981-1.627 1.983-.874 3.167-2 3.167-3.012 0-1.011-1.184-2.138-3.167-3.012C38.467.577 35.278 0 31.864 0c-3.414 0-6.603.578-8.98 1.627-1.983.874-3.167 2-3.167 3.012s1.184 2.138 3.166 3.012zm1.97 23.949c0-6.848-5.572-12.42-12.42-12.42C5.582 19.18.011 24.752.011 31.6c0 6.85 5.572 12.421 12.42 12.421 6.85 0 12.421-5.572 12.421-12.42zM14.37 38.44h-.647v2.118h-2.579V38.44H7.666v-2.578h6.703c.85 0 1.541-.692 1.541-1.541 0-.85-.691-1.542-1.541-1.542h-3.11a4.014 4.014 0 01-4.01-4.009 4.013 4.013 0 013.894-4.006v-2.12h2.579v2.117h2.788v2.578h-5.252a1.432 1.432 0 000 2.862h3.11a4.124 4.124 0 014.12 4.12 4.124 4.124 0 01-4.12 4.119z"/></symbol><symbol viewBox="0 0 44 44" id="ic-daily" xmlns="http://www.w3.org/2000/svg"><path d="M28.213 0H15.787A4.747 4.747 0 0011.4 2.945h21.2A4.748 4.748 0 0028.213 0zm5.522 5.523H10.262a4.746 4.746 0 00-4.74 4.74v32.448c0 .712.577 1.289 1.289 1.289h8.376v-6.122a4.746 4.746 0 014.74-4.74h4.143a4.746 4.746 0 014.74 4.74V44h8.377a1.29 1.29 0 001.289-1.29V10.265a4.746 4.746 0 00-4.741-4.741zm-19.11 24.292a1.293 1.293 0 01-1.822 0 1.295 1.295 0 01-.378-.912 1.293 1.293 0 011.289-1.289c.34 0 .672.139.912.378.24.24.377.572.377.911 0 .34-.137.672-.377.912zm0-5.523c-.239.24-.571.378-.91.378a1.295 1.295 0 01-1.29-1.29 1.291 1.291 0 012.201-.911 1.293 1.293 0 010 1.822zm0-5.523a1.3 1.3 0 01-.91.378c-.34 0-.672-.138-.912-.377a1.295 1.295 0 01-.378-.912c0-.34.137-.672.378-.912.24-.24.572-.377.911-.377.34 0 .671.137.912.377.24.24.377.572.377.912 0 .34-.137.672-.377.912zm0-5.523c-.239.24-.571.378-.91.378-.34 0-.672-.138-.913-.378a1.298 1.298 0 01-.377-.911c0-.34.137-.672.377-.911.24-.241.573-.378.912-.378.34 0 .672.137.912.378.24.24.377.571.377.91 0 .34-.137.673-.377.912zm5.523 16.57a1.3 1.3 0 01-.91.377c-.34 0-.673-.138-.912-.378a1.299 1.299 0 01-.378-.912c0-.339.138-.67.378-.91a1.3 1.3 0 01.911-.379 1.294 1.294 0 011.29 1.289c0 .34-.138.672-.379.912zm.001-5.524c-.24.24-.572.378-.912.378-.34 0-.67-.138-.911-.378a1.298 1.298 0 01-.378-.911c0-.34.138-.672.378-.912a1.3 1.3 0 01.911-.377c.34 0 .672.137.912.377s.377.573.377.912c0 .34-.137.671-.377.91zm0-5.523a1.3 1.3 0 01-.912.378 1.3 1.3 0 01-.911-.377 1.299 1.299 0 01-.378-.912c0-.34.138-.672.378-.912a1.3 1.3 0 01.911-.377c.339 0 .672.137.912.377s.377.572.377.912c0 .34-.137.672-.377.912zm0-5.523a1.3 1.3 0 01-.912.378c-.34 0-.672-.138-.911-.378a1.299 1.299 0 01-.378-.911 1.294 1.294 0 011.289-1.289c.34 0 .672.137.912.378.24.24.377.572.377.91a1.3 1.3 0 01-.377.912zm5.522 16.57c-.24.239-.572.377-.912.377-.338 0-.67-.138-.91-.378a1.299 1.299 0 01-.378-.912 1.295 1.295 0 011.288-1.289c.34 0 .673.139.912.378.241.24.378.573.378.911 0 .34-.137.672-.378.912zm0-5.524c-.24.24-.572.378-.912.378-.338 0-.67-.138-.91-.378a1.298 1.298 0 01-.378-.911c0-.34.138-.672.378-.912s.572-.377.91-.377c.34 0 .673.137.912.377a1.29 1.29 0 010 1.822zm-2.2-6.434c0-.34.138-.672.378-.912s.572-.377.912-.377c.338 0 .67.137.91.377s.378.572.378.912c0 .34-.138.672-.377.912-.24.24-.573.377-.911.377-.34 0-.672-.138-.912-.377a1.298 1.298 0 01-.378-.912zm2.2-4.612c-.24.24-.571.378-.91.378-.34 0-.672-.138-.912-.378a1.299 1.299 0 01-.378-.911 1.294 1.294 0 011.29-1.289 1.294 1.294 0 011.288 1.289 1.3 1.3 0 01-.378.911zm5.524 16.57c-.24.239-.573.377-.912.377-.339 0-.671-.138-.911-.378a1.295 1.295 0 01-.378-.912 1.293 1.293 0 011.288-1.289c.34 0 .673.139.913.378.24.24.377.572.377.911 0 .34-.137.672-.377.912zm0-5.524a1.3 1.3 0 01-.912.378 1.294 1.294 0 01-1.29-1.29 1.292 1.292 0 012.202-.911 1.293 1.293 0 010 1.822zm0-5.523a1.3 1.3 0 01-.912.378c-.339 0-.671-.138-.911-.377a1.295 1.295 0 01-.378-.912c0-.34.137-.672.378-.912.24-.24.572-.377.91-.377.34 0 .672.137.913.377.24.24.377.572.377.912 0 .34-.137.672-.377.912zm0-5.523a1.3 1.3 0 01-.912.378c-.34 0-.671-.138-.911-.378a1.295 1.295 0 01-.378-.911 1.294 1.294 0 011.289-1.29 1.294 1.294 0 011.289 1.289c0 .34-.137.673-.377.912z"/><path d="M24.071 35.715h-.782V44h2.945v-6.122c0-1.192-.97-2.163-2.163-2.163zm-6.303 2.163V44h2.944v-8.285h-.782c-1.192 0-2.162.97-2.162 2.163z"/></symbol><symbol viewBox="0 0 56 40" id="ic-doitac" xmlns="http://www.w3.org/2000/svg"><path d="M55.33 4.96v16.75s-3.585.706-4.324.799c-.736.093-3.05.84-4.726-.772-2.586-2.478-11.772-11.613-11.772-11.613s-1.584-1.555-4.127-.211c-2.334 1.23-5.795 3.033-7.24 3.736-2.733 1.454-4.997-.854-4.997-2.611 0-1.364.85-2.289 2.066-2.97C23.506 6.07 30.453 2.17 33.347.633c1.758-.936 3.026-1.016 5.44 1.018 2.974 2.501 5.62 4.781 5.62 4.781s.863.72 2.24.43c3.38-.714 8.682-1.902 8.682-1.902zM18.765 33.34c.445-1.144.296-2.422-.557-3.3-.766-.784-1.885-.99-2.952-.746.298-1.058.133-2.184-.637-2.98-.769-.782-1.886-.992-2.952-.746.296-1.056.131-2.183-.64-2.975-1.207-1.238-3.295-1.185-4.667.122-1.364 1.31-2.238 3.682-1.02 5.078 1.215 1.39 2.612.544 3.677.302-.296 1.056-1.184 2.04-.09 3.422 1.092 1.384 2.612.544 3.678.304-.297 1.053-1.146 2.134-.095 3.416 1.061 1.287 2.799.601 3.946.245-.443 1.139-1.39 2.366-.173 3.741 1.216 1.386 4.026.745 5.399-.565 1.369-1.31 1.5-3.385.296-4.627-.831-.852-2.07-1.05-3.213-.692zm25.044-8.714c-9.922-9.923-5.255-5.254-10.594-10.605 0 0-1.605-1.598-3.72-.67a220.299 220.299 0 00-4.835 2.215c-1.58.829-2.718 1.085-3.252 1.082-3.055-.02-5.534-2.476-5.534-5.529 0-1.98 1.051-3.704 2.619-4.683 2.205-1.525 7.28-4.225 7.28-4.225S24.228.252 20.84.252c-3.386 0-10.46 4.635-10.46 4.635s-2.007 1.285-4.867.127L0 3.094V22.26s1.574.456 2.989 1.034a6.302 6.302 0 011.55-2.448c2.347-2.235 6.237-2.258 8.372-.06a5.283 5.283 0 011.322 2.348c.86.265 1.64.736 2.266 1.38a5.272 5.272 0 011.323 2.343c.86.266 1.637.738 2.266 1.384a5.415 5.415 0 011.4 2.566c.898.262 1.71.749 2.363 1.417 1.283 1.318 1.739 3.107 1.463 4.832.002 0 .006 0 .008.004.021.027.796.89 1.278 1.377.946.947 2.49.947 3.44 0a2.441 2.441 0 000-3.44c-.034-.034-3.413-3.568-3.141-3.842.27-.272 4.575 4.207 4.655 4.29a2.438 2.438 0 003.437 0 2.437 2.437 0 000-3.438c-.046-.044-.24-.23-.312-.304 0 0-4.268-3.802-3.943-4.127.329-.327 5.63 4.62 5.64 4.62.952.859 2.42.852 3.337-.065.892-.892.911-2.303.12-3.254-.016-.05-4.04-4.255-3.726-4.572.319-.32 4.3 3.78 4.308 3.788a2.439 2.439 0 003.438 0 2.444 2.444 0 000-3.442l-.043-.024z"/></symbol><symbol viewBox="0 0 44 44" id="ic-edit" xmlns="http://www.w3.org/2000/svg"><path d="M41.093 13.904a2.582 2.582 0 00-3.45-.177c-.147.12-.034.014-2.262 2.243l5.785 5.785 2.079-2.053a2.581 2.581 0 000-3.646l-2.152-2.152zM23.518 27.942l-3.403 7.292a1.29 1.29 0 001.713 1.714l7.293-3.403c.288-.135-.585.682 10.21-9.979l-5.773-5.773c-10.704 10.704-9.903 9.855-10.04 10.15z"/><path d="M31.292 35.129c-.316.312-.68.565-1.082.752l-7.292 3.403a3.862 3.862 0 01-4.37-.77 3.88 3.88 0 01-.77-4.37l3.404-7.292c.19-.41.45-.78.77-1.099L32.913 14.79V3.867A3.872 3.872 0 0029.047 0H3.867A3.872 3.872 0 000 3.867v36.266A3.872 3.872 0 003.867 44h25.18a3.872 3.872 0 003.867-3.867v-6.606l-1.622 1.602zM6.875 8.336h19.25a1.289 1.289 0 010 2.578H6.875a1.29 1.29 0 010-2.578zm0 6.875H22a1.29 1.29 0 010 2.578H6.875a1.29 1.29 0 010-2.578zm-1.289 8.164c0-.712.577-1.29 1.29-1.29h11a1.29 1.29 0 010 2.58h-11a1.29 1.29 0 01-1.29-1.29z"/></symbol><symbol viewBox="0 0 46 46" id="ic-enterprise" xmlns="http://www.w3.org/2000/svg"><g clip-path="url(#arclip0)"><path d="M44.495 41.899l-4.664-4.664a9.123 9.123 0 001.53-5.055c0-5.062-4.119-9.18-9.18-9.18C27.117 23 23 27.118 23 32.18c0 5.062 4.118 9.18 9.18 9.18a9.123 9.123 0 005.055-1.529l4.664 4.664a1.834 1.834 0 002.596 0 1.834 1.834 0 000-2.596zm-12.315-4.21a5.515 5.515 0 01-5.508-5.509 5.515 5.515 0 015.508-5.508 5.515 5.515 0 015.508 5.508 5.515 5.515 0 01-5.508 5.508zM35.852.967H6.475a5.508 5.508 0 100 11.017h29.377a5.508 5.508 0 100-11.017zM6.475 8.312a1.837 1.837 0 11.001-3.674 1.837 1.837 0 01-.001 3.674zm7.344 0a1.837 1.837 0 11.002-3.674 1.837 1.837 0 01-.002 3.674z"/><path d="M35.852 15.656H6.475a5.5 5.5 0 00-5.508 5.508 5.5 5.5 0 005.508 5.508h14.101c2.056-4.333 6.481-7.344 11.604-7.344a12.77 12.77 0 018.886 3.58 5.04 5.04 0 00.294-1.744 5.5 5.5 0 00-5.508-5.508zM6.475 23a1.841 1.841 0 01-1.836-1.836c0-1.01.826-1.836 1.836-1.836 1.01 0 1.836.826 1.836 1.836 0 1.01-.826 1.836-1.836 1.836zm7.344 0a1.841 1.841 0 01-1.836-1.836c0-1.01.826-1.836 1.836-1.836 1.01 0 1.836.826 1.836 1.836 0 1.01-.826 1.836-1.836 1.836zm5.509 9.18c0-.624.036-1.23.146-1.836H6.475a5.5 5.5 0 00-5.508 5.508 5.5 5.5 0 005.508 5.509h16.727a12.797 12.797 0 01-3.875-9.18zM6.475 37.688a1.841 1.841 0 01-1.836-1.836c0-1.01.826-1.836 1.836-1.836 1.01 0 1.836.827 1.836 1.836 0 1.01-.826 1.837-1.836 1.837zm7.344 0a1.841 1.841 0 01-1.836-1.836c0-1.01.826-1.836 1.836-1.836 1.01 0 1.836.827 1.836 1.836 0 1.01-.826 1.837-1.836 1.837z"/></g><defs><clipPath id="arclip0"><path transform="translate(.967 .967)" d="M0 0h44.07v44.07H0z"/></clipPath></defs></symbol><symbol viewBox="0 0 36 36" id="ic-financial" xmlns="http://www.w3.org/2000/svg"><path d="M34.714 9h-6.428V1.286C28.286.576 27.71 0 27 0H1.286C.576 0 0 .576 0 1.286v29.571A5.143 5.143 0 005.143 36h25.714A5.143 5.143 0 0036 30.857V10.286C36 9.576 35.424 9 34.714 9zM10.286 6.429H18A1.286 1.286 0 1118 9h-7.714a1.286 1.286 0 110-2.571zm11.571 24.428H6.43a1.286 1.286 0 110-2.571h15.428a1.286 1.286 0 010 2.571zm0-5.143H6.43a1.286 1.286 0 110-2.571h15.428a1.286 1.286 0 110 2.571zm0-5.143H6.43a1.286 1.286 0 110-2.571h15.428a1.286 1.286 0 110 2.571zm0-5.142H6.43a1.286 1.286 0 010-2.572h15.428a1.286 1.286 0 110 2.572zM33.43 30.857a2.571 2.571 0 11-5.143 0V11.571h5.143v19.286z"/></symbol><symbol viewBox="0 0 45 45" id="ic-free" xmlns="http://www.w3.org/2000/svg"><g clip-path="url(#atclip0)"><path d="M37.644 0H7.222A6.83 6.83 0 00.4 6.822v2.95h44.066v-2.95A6.83 6.83 0 0037.644 0zM7.222 6.177a1.292 1.292 0 010-2.582c.71 0 1.291.578 1.291 1.29 0 .713-.58 1.292-1.29 1.292zm5.532 0a1.292 1.292 0 01-.001-2.582c.71 0 1.291.578 1.291 1.29 0 .713-.58 1.292-1.29 1.292zm5.53 0a1.292 1.292 0 111.292-1.292c0 .713-.581 1.292-1.291 1.292zM.4 37.243a6.83 6.83 0 006.822 6.822h30.422a6.83 6.83 0 006.822-6.822v-24.89H.4v24.89zM29.817 20.18a1.29 1.29 0 111.826-1.826l5.53 5.532a1.29 1.29 0 010 1.825l-5.53 5.531a1.287 1.287 0 01-1.826 0 1.291 1.291 0 010-1.825l4.618-4.618-4.618-4.619zm-11.304 9.572l5.531-11.062a1.291 1.291 0 012.31 1.154l-5.532 11.063a1.29 1.29 0 11-2.31-1.155zm-10.82-5.866l5.53-5.532a1.291 1.291 0 011.826 1.826l-4.618 4.618 4.618 4.619a1.29 1.29 0 11-1.825 1.825l-5.532-5.531a1.29 1.29 0 010-1.825z"/></g><defs><clipPath id="atclip0"><path transform="translate(.4)" d="M0 0h44.07v44.07H0z"/></clipPath></defs></symbol><symbol viewBox="0 0 56 56" id="ic-giaiphap" xmlns="http://www.w3.org/2000/svg"><path d="M51.078 9.844A4.927 4.927 0 0056 4.922 4.927 4.927 0 0051.078 0a4.927 4.927 0 00-4.922 4.922c0 .758.187 1.467.494 2.109l-4.729 4.728-1.16-1.16a1.64 1.64 0 00-2.32 0l-1.655 1.655a17.74 17.74 0 00-3.864-1.615V8.313a1.64 1.64 0 00-1.64-1.641h-6.563a1.64 1.64 0 00-1.64 1.64v2.327a17.735 17.735 0 00-3.865 1.615l-1.655-1.655a1.64 1.64 0 00-2.32 0l-1.16 1.16L9.35 7.03a4.865 4.865 0 00.494-2.11A4.927 4.927 0 004.922 0 4.927 4.927 0 000 4.922c0 2.714 2.317 4.922 5.031 4.922.758 0 1.358-.187 2-.494l4.728 4.729-1.16 1.16a1.64 1.64 0 000 2.32l1.655 1.655a17.74 17.74 0 00-1.615 3.864H8.313a1.64 1.64 0 00-1.641 1.64v6.563c0 .907.734 1.64 1.64 1.64h2.327a17.735 17.735 0 001.615 3.865l-1.655 1.655a1.64 1.64 0 000 2.32l1.16 1.16L7.03 46.65a4.865 4.865 0 00-2.11-.494A4.927 4.927 0 000 51.078 4.927 4.927 0 004.922 56a4.927 4.927 0 004.922-4.922c0-.758-.187-1.467-.494-2.109l4.729-4.728 1.16 1.16a1.64 1.64 0 002.32 0l1.655-1.655a17.74 17.74 0 003.864 1.615v2.327c0 .906.734 1.64 1.64 1.64h6.563a1.64 1.64 0 001.64-1.64V45.36a17.735 17.735 0 003.865-1.615l1.655 1.655a1.64 1.64 0 002.32 0l1.16-1.16 4.729 4.728a4.865 4.865 0 00-.494 2.11A4.927 4.927 0 0051.078 56 4.927 4.927 0 0056 51.078a4.927 4.927 0 00-4.922-4.922c-.758 0-1.467.187-2.109.494l-4.728-4.729 1.16-1.16a1.64 1.64 0 000-2.32l-1.655-1.655a17.74 17.74 0 001.615-3.864h2.327a1.64 1.64 0 001.64-1.64v-6.563a1.64 1.64 0 00-1.64-1.64H45.36a17.735 17.735 0 00-1.615-3.865l1.655-1.655a1.64 1.64 0 000-2.32l-1.16-1.16 4.73-4.729a4.865 4.865 0 002.11.494zM28 39.484c-6.332 0-11.484-5.152-11.484-11.484S21.668 16.516 28 16.516 39.484 21.668 39.484 28 34.332 39.484 28 39.484z"/></symbol><symbol viewBox="0 0 56 56" id="ic-group" xmlns="http://www.w3.org/2000/svg"><path d="M9.844 19.906a6.569 6.569 0 01-6.563-6.562A6.569 6.569 0 019.844 6.78a6.569 6.569 0 016.562 6.563 6.569 6.569 0 01-6.562 6.562zm36.312 0a6.569 6.569 0 01-6.562-6.562 6.569 6.569 0 016.562-6.563 6.569 6.569 0 016.563 6.563 6.569 6.569 0 01-6.563 6.562zM28 16.406c-4.523 0-8.203-3.68-8.203-8.203S23.477 0 28 0s8.203 3.68 8.203 8.203-3.68 8.203-8.203 8.203zm1.64.166V27.89a1.64 1.64 0 11-3.28 0V16.572c-5.551.804-9.844 5.548-9.844 11.318v9.844c0 .907.733 1.64 1.64 1.64h3.676l1.253 15.123A1.64 1.64 0 0024.719 56h6.562a1.64 1.64 0 001.634-1.503l1.253-15.122h3.676a1.64 1.64 0 001.64-1.64V27.89c0-5.77-4.293-10.514-9.843-11.318zM13.125 37.953V28.11c0-2.459.662-4.744 1.73-6.786-1.474-.879-3.174-1.417-5.011-1.417C4.416 19.906 0 24.322 0 29.75v8.203c0 .907.734 1.64 1.64 1.64h1.797l1.493 14.93C5.013 55.36 5.72 56 6.563 56h6.562c.843 0 1.55-.64 1.633-1.477l1.212-12.124c-1.675-.786-2.845-2.476-2.845-4.446zM56 29.75c0-5.428-4.416-9.844-9.844-9.844-1.837 0-3.538.538-5.01 1.418 1.067 2.04 1.729 4.326 1.729 6.785v9.844c0 1.97-1.17 3.66-2.846 4.446l1.213 12.124A1.64 1.64 0 0042.875 56h6.562c.843 0 1.55-.64 1.633-1.477l1.493-14.93h1.796a1.64 1.64 0 001.64-1.64V29.75z"/></symbol><symbol viewBox="0 0 39 44" id="ic-kysu" xmlns="http://www.w3.org/2000/svg"><path d="M35.3 6.348C32.008 2.255 27.252 0 21.908 0a19.17 19.17 0 00-10.8 3.37c-3.36 2.322-5.712 5.557-6.802 9.355-.43 1.501-.652 2.747-.848 3.847-.405 2.279-.698 3.925-2.5 6.584-.479.706-.632 1.38-.455 2.006.28.988 1.227 1.416 1.988 1.76.254.115.68.307.776.413.458.573.418 2.162.382 3.563-.05 2-.102 4.069.89 5.561 1.39 2.087 3.537 2.11 5.262 2.128 2.025.021 2.949.031 3.16 2.287.004.056.012.297.02.51.054 1.486.078 1.688.154 1.905.15.426.552.711 1.004.711h18.986a1.065 1.065 0 00.959-1.528c-2.393-4.956-.434-10.043 1.64-15.429 1.262-3.273 2.566-6.658 2.862-10.083.343-3.965-.732-7.436-3.286-10.612zM18.204 17.901a1.106 1.106 0 11-1.414 1.703l-4.265-3.54a1.107 1.107 0 010-1.704l4.265-3.54a1.107 1.107 0 011.414 1.704l-3.239 2.688 3.239 2.689zm6.927-9.402L21.065 22.54a1.108 1.108 0 01-1.371.755 1.106 1.106 0 01-.755-1.37l4.065-14.043a1.108 1.108 0 012.127.616zm6.413 7.565l-4.265 3.54a1.104 1.104 0 01-1.558-.144 1.106 1.106 0 01.144-1.56l3.24-2.688-3.24-2.688a1.107 1.107 0 011.414-1.704l4.265 3.54a1.106 1.106 0 010 1.704z"/></symbol><symbol viewBox="0 0 24 18" id="ic-mail" xmlns="http://www.w3.org/2000/svg"><path d="M.501 1.46c3.294 2.79 9.074 7.698 10.773 9.228.228.207.472.311.726.311s.498-.104.725-.31c1.7-1.53 7.48-6.439 10.774-9.229a.5.5 0 00.07-.69A1.986 1.986 0 0022 0H2C1.387 0 .815.28.43.77a.5.5 0 00.071.69z"/><path d="M23.71 2.972a.498.498 0 00-.533.073c-3.653 3.096-8.315 7.066-9.782 8.387-.823.743-1.966.743-2.791 0-1.563-1.41-6.799-5.86-9.78-8.387A.5.5 0 000 3.426V16c0 1.103.897 2 2 2h20c1.103 0 2-.897 2-2V3.426a.5.5 0 00-.29-.454z"/></symbol><symbol viewBox="0 0 36 36" id="ic-manu" xmlns="http://www.w3.org/2000/svg"><g clip-path="url(#ayclip0)"><path d="M31.201 15a3 3 0 00-2.94 2.4h-7.32a2.976 2.976 0 00-1.008-1.686L21.961 12h2.1a3 3 0 100-1.2h-1.86V8.052c-.099-.042-.203-.073-.304-.112a.571.571 0 00-.083-.047c-.135-.051-.273-.089-.41-.134-.103-.035-.205-.07-.31-.102a10.574 10.574 0 00-.688-.178c-.107-.024-.212-.052-.32-.073-.244-.048-.49-.082-.738-.113-.099-.012-.196-.03-.296-.04a10.749 10.749 0 00-7.874 2.385l-.041.03c-.199.164-.384.341-.57.519-.065.06-.135.116-.198.18-.132.131-.252.275-.377.414-.106.118-.22.23-.32.353-.07.084-.13.176-.197.262-.146.188-.293.373-.426.57-.013.018-.022.038-.035.056a10.767 10.767 0 00-.963 1.778c-.007.017-.012.036-.02.053a10.767 10.767 0 000 8.294c.008.017.013.036.02.053.265.622.587 1.217.963 1.778l.034.056c.133.197.281.383.426.57.067.086.127.178.197.262.101.123.214.235.32.354.126.138.246.282.378.414.063.063.133.118.197.18.186.177.372.354.57.517.014.012.028.02.041.031a10.75 10.75 0 007.875 2.385c.1-.01.197-.028.296-.04.248-.03.494-.065.738-.113.108-.02.213-.048.32-.073.23-.053.461-.11.688-.178.104-.031.207-.067.31-.102.137-.045.275-.083.41-.134a.598.598 0 00.083-.047c.1-.04.205-.07.304-.112V25.2h1.86a3 3 0 100-1.2h-2.1l-2.028-3.714a2.976 2.976 0 001.008-1.686h7.32a3 3 0 102.94-3.6zm-4.2-5.4a1.8 1.8 0 110 3.6 1.8 1.8 0 010-3.6zm0 13.2a1.8 1.8 0 110 3.6 1.8 1.8 0 010-3.6zM13.513 12.516a5.976 5.976 0 00-2.712 4.884.6.6 0 11-1.2 0 7.206 7.206 0 013.294-5.916.601.601 0 01.618 1.032zm5.352 7.062a1.8 1.8 0 11-1.728-3.156 1.8 1.8 0 011.728 3.156zm12.336.222a1.8 1.8 0 110-3.6 1.8 1.8 0 010 3.6z"/><path d="M30 28.8a3 3 0 00-2.94 2.4l-2.81.002-.774-.775-.01-.013-.006-.006-1.194-1.188A12.002 12.002 0 1118 6a11.87 11.87 0 014.266.786l1.2-1.2c.004-.004.006-.01.01-.013l.77-.773h2.814a3 3 0 100-1.2h-2.814c-.317 0-.62.127-.844.35l-.51.51-.002-.002a12.967 12.967 0 00-1.29-.396V1.2A1.203 1.203 0 0020.4 0h-4.8a1.203 1.203 0 00-1.2 1.2v2.862a14.038 14.038 0 00-3.714 1.536l-2.01-2.016a1.201 1.201 0 00-1.71-.006L3.582 6.96a1.201 1.201 0 00-.006 1.71l2.022 2.016A14.038 14.038 0 004.062 14.4H1.2A1.203 1.203 0 000 15.6v4.8a1.203 1.203 0 001.2 1.2h2.862a14.038 14.038 0 001.536 3.714l-2.016 2.01a1.201 1.201 0 00-.006 1.71l3.384 3.384a1.201 1.201 0 001.71.006l2.016-2.022a14.039 14.039 0 003.714 1.536V34.8a1.203 1.203 0 001.2 1.2h4.8a1.203 1.203 0 001.2-1.2v-2.862c.437-.11.867-.242 1.29-.396l.003-.001.508.509a1.2 1.2 0 00.845.35h2.814A3 3 0 1030 28.8zm0-26.4A1.8 1.8 0 1130 6a1.8 1.8 0 010-3.6zm0 31.2a1.8 1.8 0 110-3.6 1.8 1.8 0 010 3.6z"/></g><defs><clipPath id="ayclip0"><path d="M0 0h36v36H0z"/></clipPath></defs></symbol><symbol viewBox="0 0 37 36" id="ic-money" xmlns="http://www.w3.org/2000/svg"><path d="M13.582 13.035c2.491 1.439 6.524 1.439 9 0 2.484-1.438 2.461-3.773-.03-5.211-2.49-1.438-6.523-1.438-9 0-2.475 1.438-2.46 3.766.03 5.211zm1.142-2.49c.193-.06.378-.127.563-.186.141-.044.223-.052.282-.022.037.022.06.052.09.104.125.237.333.444.592.637a.948.948 0 00.141.097c.14.081.297.14.49.185.481.104.911-.082.86-.378a.681.681 0 00-.134-.29c-.163-.244-.37-.474-.482-.726-.178-.415-.096-.786.474-1.082.653-.334 1.372-.348 2.143-.148.311.089.311.089.556-.052.081-.045.163-.097.245-.141.185-.104.252-.104.437 0 .06.03.111.067.17.096.386.223.386.223.008.453-.274.155-.274.155-.045.34.178.141.312.29.423.453.06.089.022.155-.119.2-.215.067-.43.14-.645.207-.133.037-.215.045-.274.015a.379.379 0 01-.089-.096c-.14-.23-.356-.423-.645-.593a2.064 2.064 0 00-.126-.067c-.096-.044-.185-.089-.304-.118-.415-.097-.778.059-.726.318a.876.876 0 00.185.371c.148.207.304.415.415.63.349.697-.408 1.379-1.616 1.446a3.347 3.347 0 01-1.23-.156c-.164-.052-.29-.044-.423.037-.126.082-.267.156-.393.23a.355.355 0 01-.363.007c-.09-.044-.17-.096-.26-.14-.06-.038-.118-.067-.178-.104-.126-.074-.11-.149.008-.223.096-.059.192-.11.281-.17.215-.126.215-.134.037-.274-.222-.178-.422-.364-.548-.571-.082-.163-.06-.2.2-.29zm8.666 2.95c.69-.4 1.802-.4 2.491 0 .69.4.697 1.045.008 1.446-.683.4-1.802.4-2.491 0-.69-.4-.697-1.046-.008-1.446zM10.254 5.911c.69-.4 1.801-.4 2.498 0 .69.4.697 1.045.007 1.446-.681.4-1.8.4-2.49 0-.697-.4-.705-1.045-.015-1.446zM.92 9.003l19.668 11.35c1.134.66 2.98.66 4.107 0l10.534-6.124c1.127-.66 1.127-1.727-.007-2.38L15.554.492c-1.134-.66-2.98-.652-4.114 0L.906 6.622c-1.127.653-1.12 1.72.014 2.38zm4.27-2.41a3.327 3.327 0 00-.4-.193l6.294-3.654c.097.081.208.155.334.23 1.149.667 3.017.66 4.159 0a1.75 1.75 0 00.34-.245l15.316 8.844a3.346 3.346 0 00-.57.26c-1.15.667-1.142 1.742.014 2.409.178.104.371.185.579.26l-6.354 3.691a2.467 2.467 0 00-.452-.334c-1.156-.667-3.017-.667-4.159 0a1.91 1.91 0 00-.237.164L4.783 9.203c.148-.06.289-.126.415-.2 1.149-.66 1.142-1.743-.008-2.41zM.41 11.271c.497-.26 1.275-.222 1.757.06l20.55 11.86 11.112-6.456c.482-.282 1.268-.282 1.75 0 .489.281.489.734.007 1.015l-11.81 6.865c-.578.334-1.52.334-2.097 0l-.415-.237-.29-.17L.364 12.315c-.496-.296-.489-.77.045-1.045zm35.198 10.193l-11.81 6.865c-.577.334-1.519.334-2.097 0l-.415-.237-.297-.17-20.602-11.9c-.504-.29-.49-.764.044-1.045.497-.26 1.275-.223 1.757.059l20.55 11.861 11.105-6.45c.482-.281 1.268-.281 1.757 0 .482.282.49.735.007 1.016zM.41 18.692c.497-.26 1.275-.223 1.757.06l20.55 11.868 11.112-6.465c.482-.281 1.268-.281 1.75 0 .489.282.489.734.007 1.016l-11.81 6.865c-.578.333-1.52.333-2.097 0l-.415-.238-.29-.17L.364 19.737c-.496-.29-.489-.763.045-1.045zm35.198 10.193l-11.81 6.865c-.577.333-1.519.333-2.097 0l-.415-.237-.297-.17-20.601-11.9c-.504-.288-.49-.763.044-1.045.497-.26 1.275-.222 1.757.06l20.55 11.861 11.112-6.457c.482-.282 1.268-.282 1.757 0 .475.29.482.741 0 1.023z"/></symbol><symbol viewBox="0 0 36 36" id="ic-payroll" xmlns="http://www.w3.org/2000/svg"><path d="M17.996 12.975c-1.221 0-2.215-.813-2.215-1.812h-2.11c0 1.832 1.394 3.375 3.27 3.803v1.628h2.11v-1.628c1.876-.428 3.27-1.97 3.27-3.803 0-2.162-1.94-3.92-4.325-3.92-1.221 0-2.215-.814-2.215-1.812 0-1 .994-1.812 2.215-1.812 1.221 0 2.215.813 2.215 1.812h2.11c0-1.833-1.394-3.375-3.27-3.803V0h-2.11v1.628c-1.876.428-3.27 1.97-3.27 3.803 0 2.162 1.94 3.92 4.325 3.92 1.221 0 2.215.813 2.215 1.812 0 1-.994 1.812-2.215 1.812zm17.224 4.93a2.53 2.53 0 00-3.54.037l-6.439 6.48h-2.774a4.075 4.075 0 01-2.739 1.055h-6.295v-2.11h6.422a1.983 1.983 0 000-3.965h-9.076a6.868 6.868 0 00-4.86 2.015L0 27.34V36h4.065l5.751-5.382h16.73l8.713-9.094a2.534 2.534 0 00-.039-3.62z"/></symbol><symbol viewBox="0 0 25 24" id="ic-phone" xmlns="http://www.w3.org/2000/svg"><path d="M23.674 19.328L18.645 14.3c-.628-.629-1.508-.629-2.137 0l-2.137 2.137c-2.765 2.891-9.554-3.897-6.788-6.663L9.72 7.637c.628-.629.628-1.509 0-2.137L4.69.47c-.628-.628-1.508-.628-2.137 0L1.046 1.98c-2.64 2.64-.126 9.428 5.783 15.211 5.782 5.783 12.57 8.423 15.21 5.783l1.635-1.509c.628-.628.628-1.508 0-2.137z"/></symbol><symbol viewBox="0 0 34 36" id="ic-sale" xmlns="http://www.w3.org/2000/svg"><path d="M24.412 18.79l-.618-10.583h-4.99v4.752h-2.11V8.207H8.57v4.752H6.46V8.207H1.47L.36 27.183a5.27 5.27 0 001.442 3.96 5.27 5.27 0 003.87 1.67h11.7a9.668 9.668 0 01-1.068-4.43c0-4.812 3.513-8.819 8.108-9.593z"/><path d="M8.568 6.171A4.067 4.067 0 0112.63 2.11a4.067 4.067 0 014.062 4.062v2.036h2.11V6.17A6.178 6.178 0 0012.63 0a6.178 6.178 0 00-6.17 6.171v2.036h2.11V6.17zm25.084 22.212c0-4.201-3.418-7.62-7.62-7.62-4.2 0-7.618 3.419-7.618 7.62 0 4.2 3.418 7.619 7.619 7.619 4.2 0 7.619-3.418 7.619-7.62zm-8.76 3.731l-3.426-3.875 1.58-1.397 1.914 2.165 3.964-4.106 1.517 1.465-5.549 5.748z"/></symbol><symbol viewBox="0 0 44 44" id="ic-setting" xmlns="http://www.w3.org/2000/svg"><path d="M44 25.636v-7.271l-5.965-1.175a16.56 16.56 0 00-1.298-3.123l3.329-4.993-5.14-5.14-4.993 3.329a16.559 16.559 0 00-3.123-1.298L25.636 0h-7.271L17.19 5.965a16.532 16.532 0 00-3.123 1.298L9.074 3.934l-5.14 5.14 3.329 4.993c-.54.994-.972 2.04-1.298 3.123L0 18.364v7.271l5.965 1.175a16.532 16.532 0 001.298 3.123l-3.329 4.993 5.14 5.14 4.993-3.329c.994.54 2.04.972 3.123 1.298L18.364 44h7.271l1.175-5.965a16.56 16.56 0 003.123-1.298l4.993 3.329 5.14-5.14-3.329-4.993c.54-.994.972-2.04 1.298-3.123L44 25.636zm-22 5.387c-4.975 0-9.023-4.048-9.023-9.023s4.048-9.023 9.023-9.023 9.023 4.048 9.023 9.023-4.048 9.023-9.023 9.023z"/></symbol><symbol viewBox="0 0 37 36" id="ic-setting2" xmlns="http://www.w3.org/2000/svg"><path d="M23.77 24.124a10.83 10.83 0 00-.07-2.616l1.982-.883a13.081 13.081 0 00-2.392-5.371l-1.982.882a10.855 10.855 0 00-1.898-1.8l.777-2.025a13.13 13.13 0 00-5.49-2.109l-.777 2.027a10.818 10.818 0 00-2.616.069l-.878-1.972a13.097 13.097 0 00-5.366 2.406l.872 1.958a10.835 10.835 0 00-1.802 1.898l-2.019-.775A12.872 12.872 0 000 21.3l2.025.777a10.82 10.82 0 00.068 2.616l-1.98.882a13.075 13.075 0 002.392 5.371l1.98-.882a10.814 10.814 0 001.9 1.801l-.778 2.026A13.094 13.094 0 0011.097 36l.777-2.027c.881.084 1.759.058 2.616-.07l.878 1.972a13.096 13.096 0 005.366-2.406l-.872-1.958a10.831 10.831 0 001.802-1.898l2.018.774a12.879 12.879 0 002.113-5.486l-2.026-.777zm-5.382 1.083a5.881 5.881 0 11-10.982-4.214 5.881 5.881 0 0110.982 4.214zM34.738 7.98c0-.393-.04-.777-.109-1.15l1.518-.877a7.969 7.969 0 00-2.096-3.64l-1.523.88a6.256 6.256 0 00-1.99-1.148V.29a7.923 7.923 0 00-2.1-.289 7.98 7.98 0 00-2.1.29v1.756c-.736.26-1.408.65-1.99 1.147l-1.523-.879a7.988 7.988 0 00-2.096 3.64l1.519.877a6.22 6.22 0 00-.11 1.15c0 .392.04.776.11 1.148l-1.52.878a7.985 7.985 0 002.097 3.639l1.523-.88a6.262 6.262 0 001.99 1.148v1.757c.67.183 1.373.29 2.1.29.727 0 1.43-.107 2.1-.29v-1.757a6.273 6.273 0 001.99-1.147l1.522.879a7.971 7.971 0 002.097-3.64l-1.519-.877c.07-.374.11-.756.11-1.15zm-6.3 2.94a2.94 2.94 0 110-5.881 2.94 2.94 0 010 5.881z"/></symbol><symbol viewBox="0 0 48 48" id="ic-setting3" xmlns="http://www.w3.org/2000/svg"><path d="M40.994 38.599a2.485 2.485 0 00-2.482 2.482 2.485 2.485 0 002.482 2.482 2.485 2.485 0 002.482-2.482 2.485 2.485 0 00-2.482-2.482zm0 3.493a1.012 1.012 0 010-2.022 1.012 1.012 0 010 2.022z"/><path d="M47.684 40.952a6.506 6.506 0 00-2.166-4.706L30.71 22.89 43.803 9.797c.086-.026.171-.058.253-.101l2.836-1.497c.391-.206.654-.576.72-1.014a1.368 1.368 0 00-.389-1.183L44.031 2.81a1.367 1.367 0 00-1.182-.389 1.368 1.368 0 00-1.015.72l-1.497 2.836a1.396 1.396 0 00-.103.255l-6.18 6.18a.736.736 0 101.04 1.04l5.672-5.67 1.486 1.486L27.75 23.77l-1.486-1.486 6.33-6.33a.736.736 0 10-1.04-1.041l-4.593 4.593-5-4.509a11.286 11.286 0 00-2.683-11.693A11.31 11.31 0 007.242.75a.735.735 0 00-.257 1.207l5.774 5.774c.17.17.265.398.265.64a.899.899 0 01-.265.64l-3.75 3.75a.898.898 0 01-.64.264.898.898 0 01-.639-.265L1.956 6.985a.736.736 0 00-1.207.256 11.31 11.31 0 002.556 12.036c3 3 7.45 4.055 11.466 2.758l3.865 4.226a3.96 3.96 0 01-.725 1 3.98 3.98 0 01-4.255.894.735.735 0 00-.786.165l-9.005 9.006a6.26 6.26 0 000 8.842A6.211 6.211 0 008.286 48c1.67 0 3.24-.65 4.421-1.831l9.006-9.006a.736.736 0 00.165-.786c-.57-1.47-.22-3.14.895-4.255a3.982 3.982 0 014.254-.894c.272.106.58.04.787-.165l1.698-1.7a2.69 2.69 0 00.793-1.914 2.69 2.69 0 00-.793-1.915l-.723-.723.88-.88 14.864 13.407a5.048 5.048 0 011.68 3.652 5.048 5.048 0 01-1.49 3.733 5.058 5.058 0 01-3.716 1.49 5.05 5.05 0 01-3.645-1.654L26.31 32.473a.735.735 0 10-1.086.993L36.276 45.55a6.508 6.508 0 004.85 2.135c1.752 0 3.394-.68 4.637-1.923a6.507 6.507 0 001.921-4.811zM41.67 6.605l1.408-2.668 3.018 3.019-2.667 1.408-1.76-1.76zm-26.14 14.08a.736.736 0 00-.8-.193 9.852 9.852 0 01-10.385-2.255A9.838 9.838 0 011.77 8.88l4.92 4.92a2.36 2.36 0 001.68.695 2.36 2.36 0 001.68-.696l3.75-3.75a2.36 2.36 0 00.695-1.68 2.36 2.36 0 00-.696-1.68L8.88 1.77a9.837 9.837 0 019.358 2.575 9.817 9.817 0 012.177 10.592.736.736 0 00.19.819l5.314 4.793-.695.695-.724-.723a2.69 2.69 0 00-1.915-.793 2.69 2.69 0 00-1.915.793l-1.698 1.699a.735.735 0 00-.166.786c.196.504.28 1.031.266 1.552l-3.541-3.873zm12.942 7.639L27.095 29.7a5.453 5.453 0 00-5.362 1.382 5.452 5.452 0 00-1.382 5.363l-8.684 8.683a4.75 4.75 0 01-3.38 1.401 4.75 4.75 0 01-3.382-1.4 4.787 4.787 0 010-6.763l8.683-8.683a5.452 5.452 0 005.363-1.382 5.453 5.453 0 001.382-5.363l1.377-1.377a1.238 1.238 0 011.75 0l1.242 1.244 2.527 2.526 1.243 1.243a1.238 1.238 0 010 1.75z"/><path d="M15.063 32.461a.736.736 0 00-1.04 0l-6.968 6.967a.736.736 0 101.04 1.04l6.968-6.967a.736.736 0 000-1.04zm2.574 2.574a.736.736 0 00-1.04 0l-6.968 6.967a.736.736 0 101.04 1.04l6.968-6.967a.736.736 0 000-1.04z"/></symbol><symbol viewBox="0 0 34 34" id="ic-store" xmlns="http://www.w3.org/2000/svg"><path d="M22.01 23.134v10.617h-4.57v-9.984a.563.563 0 00-1.125 0v9.985h-4.57V23.133c0-.93.757-1.687 1.687-1.687h6.89a1.69 1.69 0 011.688 1.687zm9.281-5.306a5.755 5.755 0 01-5.89-.928.566.566 0 00-.733 0 5.755 5.755 0 01-7.422 0 .569.569 0 00-.737 0 5.755 5.755 0 01-7.422-.002.566.566 0 00-.734 0 5.748 5.748 0 01-5.888.93.562.562 0 00-.775.52V30.94a2.813 2.813 0 002.813 2.813h6.117v-10.62a2.816 2.816 0 012.812-2.812h6.891a2.816 2.816 0 012.813 2.812V33.75h6.117a2.813 2.813 0 002.812-2.812v-12.59c0-.4-.404-.672-.774-.521zM4.221 9.564a.563.563 0 01-.56-.6.575.575 0 01.58-.525h28.462a.562.562 0 00.516-.786L30.05.34a.562.562 0 00-.516-.339H4.22a.562.562 0 00-.516.34L.05 8.777c-.067.15-.047-.077-.047 3.713a4.651 4.651 0 004.64 4.64 4.638 4.638 0 003.842-2.044.282.282 0 01.47 0c1.847 2.727 5.843 2.72 7.688.002a.283.283 0 01.47 0c1.846 2.72 5.839 2.722 7.686 0a.281.281 0 01.466-.006 4.641 4.641 0 003.907 2.048c2.551-.033 4.58-2.16 4.58-4.712v-2.293a.562.562 0 00-.562-.562H4.221z"/></symbol><symbol viewBox="0 0 44 44" id="ic-tenlua" xmlns="http://www.w3.org/2000/svg"><path d="M29.768 14.227a3.275 3.275 0 00-2.334-.964 3.293 3.293 0 00-3.3 3.297 3.302 3.302 0 005.629 2.339 3.308 3.308 0 00.005-4.672z"/><path d="M43.995.008l-1.289.001C33.482.018 24.444 3.9 17.907 10.663L5.096 23.474 20.52 38.9l12.811-12.81c3.224-3.108 5.895-6.939 7.726-11.08C44.528 7.159 43.92.814 43.995.008zM23.28 20.715a5.876 5.876 0 018.308-8.308 5.884 5.884 0 01-.004 8.312c-2.288 2.288-6.013 2.286-8.304-.005zM.055 42.112l6.697-6.698 1.82 1.82-6.698 6.697-1.82-1.82zm8.002-.623l2.399-2.4 1.82 1.82-2.4 2.4-1.82-1.82zM.678 34.111l2.385-2.384 1.819 1.819-2.385 2.385-1.82-1.82zm32.806-3.219l-.658-.659L22.34 40.72l3.268 3.269 5.81-5.81 2.066-7.286zM5.81 12.569L0 18.379l3.276 3.276 10.486-10.486-.659-.659-7.293 2.06zM2.996 28.706L15.288 41l2.52-1.173-13.639-13.64-1.173 2.52z"/></symbol><symbol viewBox="0 0 44 38" id="ic-user" xmlns="http://www.w3.org/2000/svg"><path d="M26.552 7.059a7.996 7.996 0 013.72 5.94c.83.387 1.751.61 2.728.61A6.453 6.453 0 1033 .704a6.453 6.453 0 00-6.448 6.355zm-4.227 13.213a6.453 6.453 0 10-6.455-6.453 6.454 6.454 0 006.455 6.453zm2.737.44h-5.476c-4.556 0-8.262 3.707-8.262 8.262v6.697l.017.105.461.144c4.348 1.359 8.125 1.812 11.234 1.812 6.073 0 9.593-1.732 9.81-1.842l.43-.218h.047v-6.698c.001-4.555-3.705-8.262-8.261-8.262zm10.676-6.662h-5.433a7.952 7.952 0 01-2.455 5.54c4.05 1.203 7.013 4.959 7.013 9.394v2.064c5.365-.197 8.456-1.717 8.66-1.82l.43-.218H44v-6.698c0-4.556-3.706-8.262-8.262-8.262zm-24.737-.44a6.41 6.41 0 003.432-.996 7.986 7.986 0 013.002-5.093c.007-.121.018-.24.018-.363a6.453 6.453 0 10-6.452 6.452zm5.796 5.98a7.957 7.957 0 01-2.453-5.51c-.202-.014-.401-.03-.606-.03H8.262C3.706 14.05 0 17.756 0 22.312v6.697l.017.103.461.146c3.488 1.089 6.601 1.59 9.305 1.749v-2.023c.001-4.435 2.963-8.19 7.014-9.395z"/></symbol><symbol viewBox="0 0 28 36" id="ic-vat" xmlns="http://www.w3.org/2000/svg"><path d="M26.806.925a1.507 1.507 0 00-1.64.25l-2.362 2.09a.169.169 0 01-.225 0L19.365.39a1.53 1.53 0 00-2.042 0l-3.21 2.871a.17.17 0 01-.227 0L10.675.391a1.53 1.53 0 00-2.043 0L5.418 3.265a.17.17 0 01-.226 0l-2.364-2.09A1.52 1.52 0 00.298 2.32v31.36a1.522 1.522 0 002.535 1.147l2.361-2.091a.169.169 0 01.225 0l3.214 2.874a1.53 1.53 0 002.042 0l3.211-2.871a.17.17 0 01.227 0l3.211 2.871a1.53 1.53 0 002.042 0l3.215-2.874a.17.17 0 01.226 0l2.364 2.09A1.52 1.52 0 0027.7 33.68V2.32a1.507 1.507 0 00-.894-1.396zM5.933 12.214h8.474a.68.68 0 010 1.361H5.933a.68.68 0 010-1.361zm16.133 11.572H5.933a.68.68 0 010-1.361h16.133a.68.68 0 010 1.361zm0-5.105H5.933a.68.68 0 010-1.362h16.133a.68.68 0 010 1.362z"/></symbol><symbol viewBox="0 0 56 56" id="ic-web" xmlns="http://www.w3.org/2000/svg"><path d="M13.65 28.304s10.014-9.967 10.014-18.289C23.664 4.483 19.18 0 13.65 0 8.12 0 3.637 4.483 3.637 10.015c0 8.793 10.013 18.289 10.013 18.289zM8.432 10.015a5.219 5.219 0 1110.437-.003 5.219 5.219 0 01-10.437.003zm42.23 3.528l-.813.259-4.35.388-1.227 1.96-.887-.284-3.461-3.118-.505-1.622-.668-1.73-2.178-1.954-2.562-.501-.06 1.175 2.512 2.452 1.23 1.448-1.386.723-1.127-.333-1.685-.702.059-1.363-2.216-.91-.735 3.196-2.229.507.222 1.784 2.902.56.503-2.85 2.398.355 1.114.652h1.792l1.223 2.453 3.248 3.294-.238 1.281-2.619-.335-4.524 2.284-3.257 3.908-.423 1.729h-1.171l-2.178-1.003-2.116 1.003.526 2.235.922-1.067 1.617-.048-.113 2.006 1.341.39 1.34 1.506 2.187-.615 2.498.393 2.9.782 1.45.168 2.453 2.787 4.74 2.79-3.064 5.858-3.235 1.504-1.228 3.347-4.684 3.128-.5 1.806c11.967-2.883 20.873-13.632 20.873-26.492a27.104 27.104 0 00-4.611-15.184z"/><path d="M31.14 42.976l-1.986-3.682 1.822-3.803-1.822-.551-2.048-2.054-4.536-1.015-1.506-3.152v1.872h-.665l-2.88-3.903c-1.404 1.681-2.471 2.755-2.604 2.886l-1.235 1.23-1.264-1.2c-.324-.311-6.127-5.874-8.996-12.634A27.02 27.02 0 00.727 28.718C.727 43.785 12.937 56 28.003 56c1.159 0 2.296-.101 3.421-.24l-.285-3.302s1.253-4.909 1.253-5.073c0-.169-1.253-4.41-1.253-4.41zM25.846 6.677l2.007.331 4.873-.457 1.34-1.478 1.892-1.265 2.68.404.976-.147c-3.528-1.66-7.455-2.62-11.612-2.62a27.39 27.39 0 00-5.654.61 11.785 11.785 0 012.874 5.605l.624-.983zm3.308-2.525l2.787-1.533L33.73 3.65l-2.59 1.973-2.47.25-1.115-.722 1.6-1z"/></symbol><symbol viewBox="0 0 14 14" id="link" xmlns="http://www.w3.org/2000/svg"><path d="M3.189 7.245a.69.69 0 011.123.75.687.687 0 01-.15.222l-1.46 1.46a1.374 1.374 0 00.974 2.347c.365 0 .715-.145.974-.403l3.41-3.404a.687.687 0 000-.972.687.687 0 01.486-1.174.69.69 0 01.487.201 2.06 2.06 0 010 2.918l-3.41 3.404a2.758 2.758 0 01-4.493-.892 2.748 2.748 0 01.597-2.998l1.462-1.46v.001zm8.263-.49a.69.69 0 01-1.123-.75.685.685 0 01.149-.223l1.46-1.459a1.375 1.375 0 00-.973-2.347 1.38 1.38 0 00-.975.402L6.582 5.782a.687.687 0 000 .973.687.687 0 01-.487 1.174.69.69 0 01-.487-.202 2.06 2.06 0 010-2.917l3.41-3.404a2.758 2.758 0 014.494.892 2.746 2.746 0 01-.597 2.997l-1.463 1.46z"/></symbol><symbol viewBox="0 0 24 24" id="linkedin" xmlns="http://www.w3.org/2000/svg"><path d="M23.994 24v-.001H24v-8.802c0-4.306-.927-7.623-5.961-7.623-2.42 0-4.044 1.328-4.707 2.587h-.07V7.976H8.489v16.023h4.97v-7.934c0-2.089.396-4.109 2.983-4.109 2.549 0 2.587 2.384 2.587 4.243V24zM.396 7.977h4.976V24H.396zM2.882 0C1.291 0 0 1.291 0 2.882s1.291 2.909 2.882 2.909 2.882-1.318 2.882-2.909A2.884 2.884 0 002.882 0z"/></symbol><symbol viewBox="0 0 57 55" id="next" xmlns="http://www.w3.org/2000/svg"><path d="M1.3 27.585h54.606M43.305 14.984l12.601 12.602-12.601 12.6" stroke="#111" stroke-linecap="round" stroke-linejoin="round"/></symbol><symbol viewBox="0 0 57 55" id="prev" xmlns="http://www.w3.org/2000/svg"><path d="M55.906 27.585H1.301m12.601-12.601l-12.6 12.602 12.6 12.6" stroke="#111" stroke-linecap="round" stroke-linejoin="round"/></symbol><symbol viewBox="0 0 16 16" id="search" xmlns="http://www.w3.org/2000/svg"><path fill-rule="evenodd" clip-rule="evenodd" d="M7.333 2.75a4.583 4.583 0 100 9.167 4.583 4.583 0 000-9.167zM1.25 7.333a6.083 6.083 0 1112.167 0 6.083 6.083 0 01-12.167 0z"/><path fill-rule="evenodd" clip-rule="evenodd" d="M10.57 10.57a.75.75 0 011.06 0l2.9 2.9a.75.75 0 11-1.06 1.06l-2.9-2.9a.75.75 0 010-1.06z"/></symbol><symbol viewBox="0 0 18 16" id="star" xmlns="http://www.w3.org/2000/svg"><path d="M9 13.155L3.858 15.86l.982-5.729L.676 6.074l5.751-.836L9.001.026l2.572 5.212 5.752.836-4.163 4.057.984 5.729L9 13.155z"/></symbol><symbol viewBox="-21 -117 682.67 682" id="youtube" xmlns="http://www.w3.org/2000/svg"><path d="M626.813 64.035c-7.375-27.418-28.993-49.031-56.407-56.414C520.324-6.082 319.992-6.082 319.992-6.082s-200.324 0-250.406 13.184c-26.887 7.375-49.031 29.52-56.406 56.933C0 114.113 0 217.97 0 217.97s0 104.379 13.18 153.933c7.382 27.414 28.992 49.028 56.41 56.41C120.195 442.02 320 442.02 320 442.02s200.324 0 250.406-13.184c27.418-7.379 49.032-28.992 56.414-56.406 13.176-50.082 13.176-153.934 13.176-153.934s.527-104.383-13.183-154.46zM256.21 313.915V122.022l166.586 95.946zm0 0"/></symbol></svg>