<svg width="22" height="23" viewBox="0 0 22 23" fill="none" xmlns="http://www.w3.org/2000/svg">
<path d="M21.0001 16.6259V19.6259C21.0012 19.9044 20.9441 20.1801 20.8326 20.4353C20.721 20.6904 20.5574 20.9195 20.3521 21.1078C20.1469 21.296 19.9046 21.4394 19.6408 21.5286C19.377 21.6178 19.0974 21.651 18.8201 21.6259C15.7429 21.2915 12.7871 20.2401 10.1901 18.5559C7.77388 17.0206 5.72539 14.9721 4.19006 12.5559C2.50003 9.94711 1.4483 6.9769 1.12006 3.88591C1.09507 3.60937 1.12793 3.33067 1.21656 3.06753C1.30518 2.8044 1.44763 2.5626 1.63482 2.35753C1.82202 2.15246 2.04986 1.98862 2.30385 1.87643C2.55783 1.76424 2.8324 1.70617 3.11006 1.70591H6.11006C6.59536 1.70113 7.06585 1.87299 7.43382 2.18944C7.80179 2.50589 8.04213 2.94535 8.11005 3.42591C8.23668 4.38597 8.47151 5.32863 8.81006 6.23591C8.9446 6.59383 8.97372 6.98282 8.89396 7.35679C8.81421 7.73075 8.62892 8.07402 8.36005 8.34591L7.09006 9.61591C8.51361 12.1195 10.5865 14.1924 13.0901 15.6159L14.3601 14.3459C14.6319 14.077 14.9752 13.8918 15.3492 13.812C15.7231 13.7322 16.1121 13.7614 16.4701 13.8959C17.3773 14.2345 18.32 14.4693 19.2801 14.5959C19.7658 14.6644 20.2095 14.9091 20.5266 15.2834C20.8437 15.6577 21.0122 16.1355 21.0001 16.6259Z" stroke="white" stroke-width="2" stroke-linecap="round" stroke-linejoin="round"/>
</svg>
