<svg width="25" height="26" viewBox="0 0 25 26" fill="none" xmlns="http://www.w3.org/2000/svg">
<path d="M0.413132 2.14544C0.290618 2.03451 0.1916 1.89914 0.122147 1.74764C0.0526932 1.59614 0.0142693 1.43171 0.00926222 1.26447C0.00425516 1.09723 0.0327727 0.930691 0.093033 0.775127C0.153293 0.619564 0.244016 0.47824 0.359665 0.359856C0.475314 0.241473 0.613439 0.148539 0.765518 0.0867429C0.917597 0.024947 1.08043 -0.00439094 1.244 0.000531002C1.40758 0.00545294 1.56846 0.0445225 1.71672 0.115355C1.86498 0.186188 1.99749 0.287269 2.10613 0.412401L12.2691 10.8198L22.4521 0.412401C22.5623 0.29459 22.6945 0.200565 22.8408 0.135855C22.9871 0.071145 23.1446 0.03708 23.304 0.0356648C23.4634 0.0342495 23.6215 0.0655151 23.7689 0.127618C23.9163 0.189721 24.0501 0.281399 24.1622 0.397237C24.2744 0.513074 24.3627 0.650732 24.422 0.802055C24.4812 0.953378 24.5102 1.11529 24.5072 1.27826C24.5042 1.44123 24.4693 1.60194 24.4045 1.75088C24.3398 1.89983 24.2465 2.03398 24.1301 2.14544L13.9641 12.5354L24.1321 22.9479C24.3506 23.1767 24.4724 23.4842 24.4713 23.8039C24.4701 24.1237 24.3461 24.4302 24.1259 24.6573C23.9057 24.8844 23.6071 25.014 23.2943 25.018C22.9816 25.022 22.6799 24.9003 22.4541 24.6789L12.2691 14.2736L2.10515 24.685C1.9971 24.812 1.86465 24.9148 1.71608 24.9872C1.5675 25.0595 1.40597 25.0999 1.2415 25.1057C1.07703 25.1115 0.913136 25.0827 0.760025 25.021C0.606915 24.9593 0.467856 24.866 0.351486 24.747C0.235117 24.6281 0.143913 24.4859 0.0835725 24.3293C0.0232315 24.1728 -0.00497197 24.0053 0.000717293 23.8371C0.00640655 23.6689 0.0458771 23.5037 0.116654 23.3518C0.18743 23.1999 0.287992 23.0645 0.412125 22.9541L10.5761 12.5354L0.413132 2.14544Z" fill="#707070"/>
</svg>
