<!-- Generated by IcoMoon.io -->
<svg version="1.1" xmlns="http://www.w3.org/2000/svg" width="26" height="32" viewBox="0 0 26 32">
<title>file</title>
<path d="M1.278 1.278c0.818-0.818 1.928-1.278 3.086-1.278h10.182c0.386 0 0.756 0.153 1.028 0.426l10.182 10.182c0.273 0.273 0.426 0.643 0.426 1.029v16c0 1.157-0.46 2.267-1.278 3.086s-1.928 1.278-3.086 1.278h-17.455c-1.157 0-2.267-0.46-3.086-1.278s-1.278-1.928-1.278-3.086v-23.273c0-1.157 0.46-2.267 1.278-3.086zM4.364 2.909c-0.386 0-0.756 0.153-1.029 0.426s-0.426 0.643-0.426 1.029v23.273c0 0.386 0.153 0.756 0.426 1.029s0.643 0.426 1.029 0.426h17.455c0.386 0 0.756-0.153 1.029-0.426s0.426-0.643 0.426-1.029v-15.398l-9.33-9.33h-9.579z"></path>
<path d="M14.545 0c0.803 0 1.455 0.651 1.455 1.455v8.727h8.727c0.803 0 1.455 0.651 1.455 1.455s-0.651 1.455-1.455 1.455h-10.182c-0.803 0-1.455-0.651-1.455-1.455v-10.182c0-0.803 0.651-1.455 1.455-1.455z"></path>
</svg>
