<svg width="19" height="18" viewBox="0 0 19 18" fill="none" xmlns="http://www.w3.org/2000/svg">
<path d="M14.0521 0C11.9446 0 10.2039 1.95752 9.5 2.88139C8.79607 1.95752 7.05542 0 4.9479 0C2.21962 0 0 2.50837 0 5.59116C0 7.27307 0.667598 8.84053 1.83613 9.91325C1.85313 9.94264 1.87402 9.96969 1.89837 9.99404L9.22053 17.3011C9.29783 17.378 9.39873 17.4167 9.5 17.4167C9.60127 17.4167 9.70254 17.378 9.77988 17.3007L17.3456 9.73776L17.4236 9.66198C17.4855 9.60361 17.5466 9.54446 17.615 9.46872C17.6436 9.44051 17.6671 9.40878 17.6853 9.37438C18.5338 8.33532 19 6.99512 19 5.59116C19 2.50837 16.7804 0 14.0521 0ZM17.0266 8.92907C17.0158 8.94184 17.0057 8.95535 16.9969 8.96926C16.9598 9.01179 16.9192 9.04927 16.879 9.08757L9.49963 16.4615L2.54819 9.52397C2.52578 9.47989 2.49446 9.4397 2.4562 9.40608C1.39817 8.4822 0.791654 7.09175 0.791654 5.59116C0.791654 2.94478 2.65603 0.791691 4.9479 0.791691C7.21391 0.791691 9.14783 3.7473 9.16717 3.77707C9.3133 4.0028 9.6867 4.0028 9.83283 3.77707C9.85217 3.7473 11.7861 0.791691 14.0521 0.791691C16.344 0.791691 18.2083 2.94481 18.2083 5.59116C18.2083 6.83818 17.7885 8.02375 17.0266 8.92907Z" fill="#666666"/>
</svg>
