<svg width="547" height="328" viewBox="0 0 547 328" fill="none" xmlns="http://www.w3.org/2000/svg">
<path d="M303.626 229.806C303.357 254.207 304.604 278.601 307.36 302.848L308.185 304.145H545.703C546.138 303.405 546.414 302.583 546.515 301.73C546.615 300.877 546.537 300.013 546.286 299.192C546.034 298.371 545.615 297.612 545.055 296.962C544.495 296.311 543.805 295.785 543.031 295.416C532.695 290.513 521.143 288.776 509.824 290.422C519.154 285.67 527.601 279.352 534.798 271.743C537.274 269.128 539.789 265.845 537.175 261.913C536.48 260.908 535.561 260.079 534.49 259.492C533.419 258.905 532.226 258.576 531.006 258.531C515.672 257.584 500.28 258.435 485.145 261.067C487.581 250.824 494.34 242.094 497.799 232.126C502.102 219.719 499.076 202.142 482.079 202.339C479.943 202.408 477.824 202.745 475.772 203.341C460.288 207.65 446.973 217.594 438.439 231.221C440.581 208.945 442.486 185.391 432.917 165.159C429.931 158.907 425.608 152.851 419.281 149.981C410.38 145.911 399.632 149.076 391.419 154.326C378.234 162.662 368.665 175.953 362.122 190.031C355.579 204.108 351.845 219.523 348.112 234.682C343.691 224.576 338.857 213.939 328.463 208.945C325.935 207.653 323.133 206.99 320.294 207.01C317.455 207.031 314.664 207.735 312.154 209.063C304.275 213.467 303.725 222.059 303.626 229.806Z" fill="#4BC999"/>
<path d="M242.911 229.924C243.18 254.318 241.933 278.706 239.178 302.946L238.352 304.263H0.853883C0.419027 303.523 0.14269 302.701 0.0424165 301.848C-0.0578572 300.995 0.0201219 300.131 0.271404 299.31C0.522686 298.49 0.941781 297.73 1.50209 297.08C2.06239 296.43 2.75167 295.903 3.52616 295.534C13.8589 290.622 25.4141 288.885 36.7331 290.54C27.4231 285.765 18.9916 279.443 11.7984 271.842C9.34229 269.246 6.80755 265.943 9.44053 262.011C10.1433 261.014 11.0645 260.191 12.1339 259.605C13.2032 259.019 14.3923 258.685 15.6103 258.629C30.9446 257.679 46.3374 258.537 61.4713 261.185C59.0152 250.922 52.2755 242.212 48.8173 232.244C44.5141 219.837 47.5204 202.241 64.5365 202.457C66.6389 202.526 68.7246 202.856 70.7457 203.44C86.235 207.76 99.5509 217.718 108.079 231.359C106.114 209.083 104.149 185.528 113.679 165.297C116.666 159.025 120.988 152.989 127.315 150.099C136.216 146.029 146.866 149.194 155.158 154.444C168.343 162.8 177.931 176.071 184.455 190.169C190.978 204.266 194.751 219.661 198.465 234.8C202.905 224.694 207.719 214.077 218.114 209.083C220.633 207.773 223.43 207.089 226.268 207.089C229.107 207.089 231.904 207.773 234.423 209.083C242.282 213.566 242.813 222.177 242.911 229.924Z" fill="#4BC999"/>
<path d="M194.928 240.227L161.131 254.56C166.122 243.864 171.487 233.378 177.224 223.102C177.853 221.981 176.084 221.135 175.456 222.236C164.387 242.131 154.716 262.773 146.513 284.012L136.688 183.877C136.667 183.616 136.544 183.375 136.345 183.205C136.146 183.035 135.888 182.952 135.627 182.973C135.366 182.994 135.125 183.117 134.955 183.316C134.786 183.515 134.702 183.774 134.723 184.034L146.65 305.679C146.668 305.94 146.789 306.183 146.986 306.354C147.184 306.526 147.441 306.612 147.701 306.594C147.962 306.575 148.205 306.454 148.376 306.257C148.547 306.06 148.633 305.802 148.615 305.542L146.925 288.299C150.973 277.616 155.381 267.13 160.149 256.84C160.27 256.936 160.415 256.996 160.567 257.013C160.72 257.03 160.875 257.005 161.014 256.939L195.576 242.311C196.755 241.583 196.087 239.735 194.928 240.227Z" fill="white"/>
<path d="M106.389 301.747C102.931 295.625 99.4594 289.517 95.975 283.422C95.9803 283.284 95.9484 283.148 95.8827 283.027C95.817 282.906 95.72 282.805 95.6017 282.734L89.8445 272.628C91.1544 260.005 92.4971 247.383 93.8726 234.76C93.9905 233.502 92.0648 233.109 91.9076 234.367C90.5977 246.164 89.3467 257.961 88.1547 269.758L65.7351 230.081C65.1063 228.98 63.4951 230.081 64.1239 231.202C71.9835 245.122 79.889 259.042 87.8403 272.962V273.532C87.8236 273.676 87.8376 273.822 87.8814 273.96C87.9252 274.098 87.9979 274.225 88.0944 274.333C88.191 274.441 88.3094 274.527 88.4418 274.585C88.5741 274.644 88.7173 274.674 88.862 274.673L93.1848 282.262L64.8509 278.743C63.5933 278.585 63.22 280.512 64.4775 280.709L94.3245 284.386L104.778 302.789C105.407 303.89 107.018 302.749 106.389 301.747Z" fill="white"/>
<path d="M226.995 265.983L210.392 281.81L226.799 244.65C227.309 243.49 225.541 242.684 225.03 243.785L215.952 264.39C215.5 260.183 215.068 255.995 214.636 251.787C214.498 250.529 212.533 250.667 212.671 251.925L214.145 266.062C214.156 266.255 214.229 266.439 214.353 266.588C214.476 266.736 214.644 266.841 214.832 266.887L206.678 285.369L206.364 285.664C206.238 285.769 206.151 285.913 206.116 286.073C206.08 286.233 206.098 286.4 206.167 286.549L198.641 303.575C198.131 304.735 199.899 305.542 200.41 304.44L208.27 286.49L228.429 267.281C229.392 266.356 227.938 265.118 226.995 265.983Z" fill="white"/>
<path d="M421.187 197.542C411.048 213.428 400.896 229.315 390.731 245.201L401.872 172.454C402.049 171.196 400.123 170.822 399.907 172.08C395.244 202.608 390.58 233.149 385.917 263.702C378.057 251.774 370.198 239.853 362.338 227.938C361.65 226.896 360.019 227.938 360.727 229.059L385.465 266.416L385.583 266.553L379.924 303.634C379.727 304.893 381.653 305.266 381.889 304.028C384.653 285.861 387.43 267.7 390.22 249.546C390.428 249.463 390.606 249.319 390.731 249.133L423.073 198.505C423.643 197.385 421.875 196.519 421.187 197.542Z" fill="white"/>
<path d="M479.643 217.635L459.149 255.641C457.931 245.155 456.706 234.669 455.475 224.183C455.337 222.924 453.372 223.062 453.51 224.32C454.82 235.501 456.13 246.682 457.44 257.863C457.47 258.071 457.566 258.264 457.715 258.413L440.777 289.871L440.423 290.127C440.247 290.237 440.115 290.405 440.05 290.603C439.985 290.801 439.992 291.015 440.07 291.208L433.134 304.047C432.544 305.168 434.313 306.013 434.902 304.912L442.29 291.149L475.419 267.969C475.635 267.82 475.783 267.591 475.831 267.333C475.879 267.075 475.822 266.809 475.674 266.592C475.525 266.376 475.297 266.227 475.039 266.179C474.781 266.131 474.515 266.188 474.299 266.337L444.373 287.296C456.713 264.37 469.065 241.432 481.431 218.481C482.001 217.38 480.233 216.515 479.643 217.635Z" fill="white"/>
<path d="M512.123 275.754L491.648 285.015L505.599 269.482C506.444 268.539 504.951 267.261 504.106 268.205L494.832 278.546L496.659 265.393C496.836 264.135 494.91 263.761 494.694 265.019C494.026 269.843 493.371 274.66 492.729 279.47C492.698 279.653 492.723 279.841 492.8 280.009C492.877 280.177 493.003 280.318 493.161 280.414C491.157 282.656 489.147 284.89 487.129 287.119C487.053 287.188 486.987 287.267 486.933 287.355L473.178 302.612C472.333 303.556 473.827 304.834 474.672 303.89C479.243 298.817 483.828 293.731 488.426 288.633L512.85 277.603C513.931 277.091 513.282 275.243 512.123 275.754Z" fill="white"/>
<path d="M110.535 184.408L109.769 198.525C109.769 199.803 111.734 199.626 111.734 198.387L112.5 184.251C112.559 182.992 110.614 183.15 110.535 184.408Z" fill="#37A07F"/>
<path d="M112.107 206.527C111.97 205.288 110.005 205.426 110.142 206.684L112.264 224.714C112.421 225.952 114.367 225.815 114.229 224.556L112.107 206.527Z" fill="#37A07F"/>
<path d="M117.432 196.618C117.432 195.359 115.467 195.517 115.467 196.775C115.565 202.437 115.663 208.08 115.781 213.743C115.781 215.001 117.746 214.863 117.746 213.585L117.432 196.618Z" fill="#37A07F"/>
<path d="M54.5548 210.911C52.6063 214.232 51.579 218.012 51.579 221.863C51.579 225.713 52.6063 229.494 54.5548 232.814C55.1639 233.915 56.7948 232.814 56.166 231.694C54.4226 228.653 53.5233 225.201 53.5613 221.696C53.5993 218.19 54.5732 214.759 56.3822 211.757C56.9913 210.676 55.1836 209.81 54.5548 210.911Z" fill="#37A07F"/>
<path d="M61.9821 247.973L58.0523 238.771C57.5611 237.611 55.6944 238.28 56.1857 239.44L60.1155 248.641C60.6264 249.801 62.493 249.133 61.9821 247.973Z" fill="#37A07F"/>
<path d="M62.611 238.103C61.4582 234.918 60.2858 231.733 59.0938 228.547C59 228.309 58.8172 228.117 58.5841 228.012C58.351 227.907 58.0861 227.896 57.8456 227.983C57.6051 228.07 57.408 228.248 57.2961 228.478C57.1843 228.708 57.1666 228.973 57.2468 229.216L60.764 238.83C60.8604 239.075 61.0501 239.272 61.2915 239.377C61.5328 239.482 61.806 239.487 62.051 239.391C62.2959 239.294 62.4925 239.104 62.5975 238.863C62.7025 238.621 62.7074 238.348 62.611 238.103Z" fill="#37A07F"/>
<path d="M93.578 221.292L82.3387 213.428C81.317 212.72 80.0201 214.195 81.0615 214.922L92.3008 222.787C93.3226 223.494 94.6194 222 93.578 221.292Z" fill="#37A07F"/>
<path d="M89.3141 225.559L81.6902 219.66C80.6881 218.894 79.4109 220.368 80.4131 221.135L88.0369 227.033C89.039 227.82 90.3948 226.326 89.3141 225.559Z" fill="#37A07F"/>
<path d="M45.7128 263.564C39.9738 262.677 34.1507 262.465 28.3626 262.935C25.317 263.19 18.9507 263.092 17.2609 266.513C14.0384 273.041 29.3647 279.765 33.4321 281.692C33.6666 281.807 33.937 281.823 34.1839 281.739C34.4308 281.654 34.6339 281.474 34.7486 281.24C34.8632 281.005 34.88 280.734 34.7953 280.487C34.7105 280.24 34.5312 280.037 34.2966 279.922C30.9312 278.36 27.7094 276.505 24.6686 274.378C23.4545 273.567 22.2929 272.681 21.1907 271.724C19.2258 270.799 18.99 269.541 20.4047 267.988C20.6209 265.884 21.8391 265.039 24.0398 265.432C31.0978 264.341 38.2814 264.341 45.3394 265.432C46.5773 265.687 46.9703 263.741 45.7128 263.564Z" fill="#37A07F"/>
<path d="M43.8264 288.417L37.1261 285.585C35.9668 285.094 35.1612 286.863 36.2615 287.355L42.9815 290.186C44.1408 290.678 45.0054 288.908 43.8264 288.417Z" fill="#37A07F"/>
<path d="M44.8481 281.771L35.672 277.17C35.4375 277.055 35.167 277.038 34.9202 277.123C34.6733 277.208 34.4702 277.387 34.3555 277.622C34.2409 277.857 34.2241 278.127 34.3088 278.374C34.3936 278.621 34.5729 278.825 34.8074 278.939L43.9836 283.54C44.0997 283.597 44.2258 283.63 44.3548 283.638C44.4838 283.646 44.6131 283.629 44.7354 283.587C44.8576 283.545 44.9704 283.479 45.0673 283.394C45.1642 283.308 45.2433 283.204 45.3 283.088C45.3568 282.972 45.3901 282.845 45.3982 282.716C45.4062 282.587 45.3887 282.458 45.3467 282.336C45.3048 282.213 45.2391 282.1 45.1536 282.003C45.068 281.907 44.9642 281.827 44.8481 281.771Z" fill="#37A07F"/>
<path d="M63.8096 296.733L19.2847 298.955C19.0242 298.976 18.7826 299.1 18.6131 299.299C18.4436 299.498 18.36 299.756 18.3809 300.017C18.4017 300.278 18.5252 300.519 18.7242 300.689C18.9232 300.859 19.1814 300.942 19.4419 300.921L63.9471 298.7C64.2077 298.681 64.4503 298.56 64.6217 298.363C64.793 298.166 64.879 297.908 64.8608 297.648C64.8426 297.387 64.7215 297.144 64.5244 296.973C64.3273 296.801 64.0701 296.715 63.8096 296.733Z" fill="#37A07F"/>
<path d="M85.0109 296.085L70.1562 297.068C69.8956 297.089 69.654 297.212 69.4845 297.411C69.315 297.61 69.2315 297.869 69.2523 298.129C69.2732 298.39 69.3967 298.632 69.5957 298.801C69.7947 298.971 70.0528 299.055 70.3134 299.034L85.1484 298.051C85.409 298.032 85.6517 297.911 85.823 297.714C85.9944 297.517 86.0804 297.26 86.0621 296.999C86.0439 296.738 85.9229 296.495 85.7257 296.324C85.5286 296.152 85.2715 296.066 85.0109 296.085Z" fill="#37A07F"/>
<path d="M75.4811 292.015L62.4145 292.506C61.1373 292.506 61.2945 294.472 62.552 294.472L75.6187 293.961C76.8959 293.882 76.7387 291.916 75.4811 292.015Z" fill="#37A07F"/>
<path d="M132.129 207.962C131.953 206.703 130.007 206.861 130.165 208.119C130.99 214.47 131.835 220.84 132.66 227.191C132.817 228.449 134.782 228.311 134.625 227.053C133.78 220.683 132.955 214.332 132.129 207.962Z" fill="#37A07F"/>
<path d="M136.334 234.741C136.177 233.483 134.232 233.64 134.369 234.899C136.216 250.352 138.07 265.8 139.93 281.24C140.068 282.499 142.033 282.361 141.895 281.103L136.334 234.741Z" fill="#37A07F"/>
<path d="M129.477 222.728C129.221 221.489 127.276 221.627 127.512 222.865C128.75 229.236 130.007 235.606 131.245 241.976C131.501 243.215 133.466 243.077 133.21 241.839L129.477 222.728Z" fill="#37A07F"/>
<path d="M105.033 284.818L95.7983 269.778C95.1498 268.696 93.519 269.778 94.187 270.898L103.422 285.939C104.149 287.021 105.701 285.9 105.033 284.818Z" fill="#37A07F"/>
<path d="M110.83 296.006C109.671 293.627 108.511 291.268 107.372 288.889C106.821 287.768 104.955 288.417 105.525 289.557L108.963 296.655C109.513 297.815 111.38 297.146 110.83 296.006Z" fill="#37A07F"/>
<path d="M114.465 288.692L108.747 275.637C108.256 274.477 106.389 275.145 106.9 276.305L112.618 289.341C113.129 290.501 114.976 289.95 114.465 288.692Z" fill="#37A07F"/>
<path d="M132.287 151.632C125.082 155.017 119.295 160.828 115.939 168.049C115.882 168.166 115.848 168.292 115.84 168.421C115.832 168.55 115.85 168.679 115.892 168.802C115.934 168.924 115.999 169.037 116.085 169.134C116.171 169.231 116.274 169.31 116.39 169.367C116.507 169.424 116.633 169.457 116.762 169.465C116.891 169.473 117.02 169.455 117.142 169.413C117.265 169.372 117.377 169.306 117.474 169.22C117.571 169.135 117.65 169.031 117.707 168.915C120.821 162.172 126.194 156.733 132.896 153.539C134.075 152.93 133.426 151.082 132.287 151.632Z" fill="#37A07F"/>
<path d="M131.854 158.062L121.794 167.892C120.89 168.757 122.383 170.035 123.287 169.17L133.348 159.34C134.251 158.455 132.758 157.177 131.854 158.062Z" fill="#37A07F"/>
<path d="M456.83 214.529L444.53 227.997C443.666 228.941 445.159 230.219 446.004 229.295L458.324 215.807C459.188 214.883 457.695 213.586 456.83 214.529Z" fill="#37A07F"/>
<path d="M476.342 204.895L465.358 210.499C464.258 211.049 464.906 212.917 466.026 212.347L477.01 206.743C478.13 206.193 477.482 204.325 476.342 204.895Z" fill="#37A07F"/>
<path d="M468.011 213.271L458.088 218.854C456.988 219.464 458.088 221.076 459.208 220.467L469.131 214.883C470.231 214.195 469.111 212.582 468.011 213.271Z" fill="#37A07F"/>
<path d="M492.336 222.964C491.354 229.69 489.136 236.177 485.793 242.094C485.184 243.215 486.952 244.061 487.562 242.96C490.997 236.88 493.269 230.212 494.262 223.298C494.439 222.079 492.513 221.706 492.336 222.964Z" fill="#37A07F"/>
<path d="M480.468 250.411L476.538 257.804C475.949 258.924 477.717 259.77 478.307 258.669L482.237 251.276C482.846 250.155 481.077 249.29 480.468 250.411Z" fill="#37A07F"/>
<path d="M482.944 234.898L477.207 248.661C476.735 249.841 478.484 250.627 478.975 249.526C480.874 244.952 482.787 240.364 484.713 235.763C485.184 234.505 483.376 233.64 482.944 234.898Z" fill="#37A07F"/>
<path d="M516.328 260.655L503.025 262.424C501.768 262.601 501.905 264.567 503.163 264.39L516.583 262.562C517.723 262.424 517.585 260.458 516.328 260.655Z" fill="#37A07F"/>
<path d="M531.438 261.677L523.578 261.067C522.34 260.949 521.947 262.896 523.205 263.034L531.065 263.643C532.303 263.702 532.696 261.775 531.438 261.677Z" fill="#37A07F"/>
<path d="M524.463 265.983L514.933 266.101C513.656 266.101 513.813 268.067 515.07 268.067L524.6 267.969C525.877 267.929 525.72 265.963 524.463 265.983Z" fill="#37A07F"/>
<path d="M506.798 296.93L488.072 297.559C486.815 297.559 486.952 299.525 488.21 299.525L506.936 298.915C508.213 298.837 508.056 296.89 506.798 296.93Z" fill="#37A07F"/>
<path d="M533.639 296.615L514.579 296.714C513.302 296.714 513.459 298.68 514.717 298.68L533.796 298.582C535.053 298.562 534.896 296.596 533.639 296.615Z" fill="#37A07F"/>
<path d="M516.78 293.175L504.067 293.882C503.806 293.903 503.565 294.027 503.395 294.226C503.226 294.425 503.142 294.683 503.163 294.944C503.184 295.205 503.307 295.447 503.506 295.616C503.705 295.786 503.963 295.869 504.224 295.849L516.937 295.141C517.198 295.12 517.439 294.996 517.609 294.797C517.778 294.598 517.862 294.34 517.841 294.079C517.82 293.818 517.697 293.577 517.498 293.407C517.299 293.237 517.04 293.154 516.78 293.175Z" fill="#37A07F"/>
<path d="M456.477 286.411L444.864 292.683C443.764 293.273 444.864 294.905 445.984 294.295L457.597 288.043C458.717 287.433 457.597 285.821 456.477 286.411Z" fill="#37A07F"/>
<path d="M474.613 273.592L460.957 282.734C460.758 282.889 460.626 283.114 460.587 283.362C460.549 283.611 460.608 283.866 460.752 284.072C460.896 284.279 461.113 284.423 461.36 284.474C461.606 284.525 461.863 284.479 462.077 284.347L475.713 275.224C475.82 275.151 475.912 275.059 475.983 274.951C476.055 274.843 476.104 274.722 476.129 274.595C476.153 274.469 476.153 274.338 476.127 274.211C476.101 274.085 476.051 273.964 475.978 273.857C475.906 273.75 475.814 273.658 475.706 273.587C475.598 273.516 475.477 273.466 475.351 273.442C475.224 273.417 475.093 273.417 474.967 273.443C474.84 273.469 474.72 273.52 474.613 273.592Z" fill="#37A07F"/>
<path d="M468.639 285.133L454.708 292.585C453.588 293.194 454.708 294.807 455.828 294.217L469.759 286.765C470.879 286.156 469.759 284.543 468.639 285.133Z" fill="#37A07F"/>
<path d="M181.272 199.508L172.076 181.124C171.506 180.003 169.659 180.652 170.229 181.793L179.425 200.156C179.975 201.218 181.842 200.569 181.272 199.508Z" fill="#37A07F"/>
<path d="M189.033 219.936L184.435 206.507C184.341 206.269 184.159 206.077 183.926 205.972C183.692 205.866 183.427 205.856 183.187 205.943C182.946 206.03 182.749 206.208 182.638 206.438C182.526 206.668 182.508 206.933 182.588 207.176L187.186 220.604C187.28 220.842 187.463 221.035 187.696 221.14C187.929 221.245 188.194 221.255 188.434 221.168C188.675 221.081 188.872 220.904 188.984 220.674C189.096 220.444 189.113 220.179 189.033 219.936Z" fill="#37A07F"/>
<path d="M181.193 210.361L177.263 200.432C176.792 199.272 174.945 199.921 175.416 201.1L179.346 211.029C179.818 212.189 181.665 211.541 181.193 210.361Z" fill="#37A07F"/>
<path d="M222.712 211.304L217.937 214.136C216.856 214.784 217.937 216.397 219.057 215.748L223.832 212.936C224.912 212.307 223.792 210.675 222.712 211.304Z" fill="#37A07F"/>
<path d="M213.693 218.028C209.719 222.301 206.407 227.146 203.868 232.401C203.754 232.636 203.737 232.906 203.822 233.153C203.906 233.4 204.086 233.604 204.32 233.718C204.555 233.833 204.825 233.85 205.072 233.765C205.319 233.68 205.522 233.501 205.637 233.266C208.102 228.16 211.322 223.454 215.186 219.307C216.149 218.382 214.557 217.203 213.693 218.028Z" fill="#37A07F"/>
<path d="M223.301 215.827C219.644 217.447 216.415 219.897 213.869 222.984C213.064 223.947 214.557 225.245 215.363 224.262C217.678 221.423 220.625 219.167 223.969 217.675C225.109 217.203 224.46 215.237 223.301 215.827Z" fill="#37A07F"/>
<path d="M236.27 238.83C236.034 244.021 235.818 249.211 235.582 254.402C235.582 255.66 237.547 255.503 237.547 254.245C237.783 249.054 237.999 243.883 238.235 238.693C238.274 237.493 236.329 237.651 236.27 238.83Z" fill="#37A07F"/>
<path d="M235.346 262.935L235.169 273.002C235.169 274.28 237.134 274.122 237.134 272.864L237.311 262.778C237.331 261.52 235.366 261.677 235.346 262.935Z" fill="#37A07F"/>
<path d="M233.597 255.012C233.597 253.754 231.632 253.891 231.632 255.15V263.82C231.632 265.079 233.597 264.921 233.597 263.663V255.012Z" fill="#37A07F"/>
<path d="M209.881 266.946L201.274 284.052C201.16 284.286 201.143 284.557 201.228 284.804C201.313 285.051 201.492 285.254 201.726 285.369C201.961 285.484 202.231 285.5 202.478 285.416C202.725 285.331 202.928 285.151 203.043 284.917L211.649 267.811C211.764 267.577 211.781 267.306 211.696 267.059C211.611 266.812 211.432 266.609 211.197 266.494C210.963 266.379 210.692 266.362 210.445 266.447C210.199 266.532 209.995 266.711 209.881 266.946Z" fill="#37A07F"/>
<path d="M198.465 289.95L194.103 299.899C193.592 301.059 195.36 301.865 195.871 300.764L200.233 290.815C200.803 289.675 199.034 288.81 198.465 289.95Z" fill="#37A07F"/>
<path d="M199.821 277.543C197.364 282.675 194.928 287.787 192.491 292.919C192.401 293.15 192.401 293.407 192.492 293.638C192.583 293.87 192.758 294.058 192.982 294.165C193.207 294.272 193.463 294.29 193.7 294.216C193.937 294.142 194.137 293.98 194.26 293.764L201.569 278.409C201.649 278.182 201.643 277.934 201.553 277.711C201.463 277.488 201.294 277.307 201.078 277.2C200.863 277.094 200.616 277.07 200.384 277.133C200.153 277.196 199.952 277.342 199.821 277.543Z" fill="#37A07F"/>
<path d="M176.242 252.593L164.708 257.351C163.548 257.843 164.197 259.691 165.376 259.2L176.851 254.559C178.069 254.048 177.401 252.2 176.242 252.593Z" fill="#37A07F"/>
<path d="M192.57 245.692L180.447 250.627C179.268 251.099 179.936 252.967 181.115 252.475L193.16 247.56C194.319 247.049 193.67 245.201 192.57 245.692Z" fill="#37A07F"/>
<path d="M185.477 253.105C181.847 254.11 178.31 255.426 174.905 257.037C173.785 257.568 174.434 259.436 175.573 258.885C178.982 257.283 182.518 255.967 186.145 254.953C187.363 254.56 186.675 252.751 185.477 253.105Z" fill="#37A07F"/>
<path d="M159.009 242.763C157.044 247.186 154.942 251.61 152.918 256.014C152.388 257.174 154.156 257.98 154.687 256.879C156.651 252.456 158.754 248.051 160.778 243.628C160.892 243.393 160.909 243.122 160.824 242.875C160.74 242.628 160.56 242.425 160.326 242.31C160.091 242.196 159.821 242.179 159.574 242.264C159.327 242.348 159.124 242.528 159.009 242.763Z" fill="#37A07F"/>
<path d="M165.867 225.854C164.452 228.764 163.044 231.68 161.642 234.603C161.53 234.835 161.515 235.102 161.6 235.346C161.684 235.589 161.862 235.789 162.094 235.901C162.326 236.013 162.593 236.028 162.836 235.944C163.079 235.859 163.279 235.681 163.391 235.449L167.635 226.699C167.726 226.468 167.726 226.211 167.635 225.98C167.544 225.748 167.368 225.56 167.144 225.453C166.92 225.346 166.664 225.328 166.427 225.402C166.19 225.476 165.99 225.638 165.867 225.854Z" fill="#37A07F"/>
<path d="M158.184 231.418L155.531 237.769C155.06 238.948 156.828 239.735 157.3 238.634L159.952 232.283C160.444 231.104 158.675 230.238 158.184 231.418Z" fill="#37A07F"/>
<path d="M377.448 269.561C376.642 274.162 375.857 278.743 375.051 283.324C375.001 283.585 375.057 283.855 375.207 284.074C375.356 284.293 375.586 284.445 375.847 284.494C376.107 284.544 376.377 284.488 376.596 284.338C376.815 284.189 376.966 283.959 377.016 283.698L379.393 269.935C379.443 269.677 379.388 269.409 379.24 269.192C379.093 268.974 378.865 268.824 378.607 268.775C378.349 268.725 378.082 268.78 377.865 268.928C377.648 269.075 377.498 269.303 377.448 269.561Z" fill="#37A07F"/>
<path d="M372.752 292.899L370.944 300.331C370.65 301.57 372.575 301.944 372.909 300.725C373.518 298.247 374.128 295.77 374.717 293.293C374.992 292.054 373.047 291.68 372.752 292.899Z" fill="#37A07F"/>
<path d="M368.724 281.22L367.663 288.652C367.486 289.891 369.412 290.284 369.628 289.026L370.689 281.614C370.826 280.355 368.901 279.982 368.724 281.22Z" fill="#37A07F"/>
<path d="M379.472 167.794C366.263 184.132 357.425 203.564 353.791 224.262C353.741 224.522 353.797 224.792 353.946 225.011C354.096 225.231 354.326 225.382 354.586 225.431C354.847 225.481 355.117 225.425 355.336 225.276C355.555 225.126 355.706 224.896 355.756 224.635C359.321 204.269 368.01 185.148 381.005 169.072C381.771 168.05 380.278 166.811 379.472 167.794Z" fill="#37A07F"/>
<path d="M395.407 155.801L385.131 163.488C384.109 164.235 385.229 165.867 386.251 165.101L396.567 157.413C397.53 156.666 396.41 155.034 395.407 155.801Z" fill="#37A07F"/>
<path d="M389.886 164.668L382.989 171.294C382.085 172.159 383.579 173.437 384.483 172.572L391.36 165.946C392.283 165.061 390.79 163.783 389.886 164.668Z" fill="#37A07F"/>
<path d="M391.772 189.245L388.354 209.122C388.304 209.383 388.36 209.653 388.509 209.872C388.659 210.091 388.889 210.243 389.149 210.292C389.41 210.342 389.679 210.286 389.899 210.136C390.118 209.987 390.269 209.757 390.318 209.496L393.698 189.677C393.755 189.422 393.709 189.154 393.569 188.933C393.429 188.711 393.207 188.555 392.951 188.497C392.696 188.44 392.428 188.487 392.207 188.627C391.986 188.767 391.83 188.989 391.772 189.245Z" fill="#37A07F"/>
<path d="M385.779 218.147C384.64 224.595 383.52 231.064 382.4 237.513C382.35 237.774 382.406 238.043 382.556 238.263C382.705 238.482 382.935 238.633 383.196 238.683C383.456 238.732 383.726 238.676 383.945 238.527C384.164 238.378 384.315 238.147 384.365 237.887C385.485 231.438 386.624 224.989 387.744 218.52C387.794 218.259 387.738 217.99 387.589 217.77C387.439 217.551 387.209 217.4 386.949 217.35C386.688 217.301 386.418 217.357 386.199 217.506C385.98 217.655 385.829 217.886 385.779 218.147Z" fill="#37A07F"/>
<path d="M384.109 204.619C383.402 210.105 382.714 215.571 382.007 221.056C381.849 222.295 383.775 222.688 383.972 221.43C384.679 215.944 385.386 210.479 386.074 204.993C386.212 203.735 384.266 203.44 384.109 204.619Z" fill="#37A07F"/>
<path d="M408.592 226.129L400.614 238.831C399.946 239.892 401.715 240.797 402.383 239.676L410.36 226.975C411.028 225.933 409.26 225.068 408.592 226.129Z" fill="#37A07F"/>
<path d="M422.837 204.324L412.03 220.053C411.323 221.096 412.797 222.374 413.524 221.331L424.331 205.602C425.058 204.58 423.564 203.282 422.837 204.324Z" fill="#37A07F"/>
<path d="M416.569 221.135L409.948 231.988C409.28 233.07 411.048 233.955 411.716 232.854L418.338 221.981C418.908 220.84 417.139 219.995 416.569 221.135Z" fill="#37A07F"/>
<path d="M432.839 174.262C432.466 173.043 430.619 173.712 430.992 174.931C432.905 181.108 433.891 187.535 433.92 194.002C433.92 195.28 435.885 195.123 435.885 193.865C435.849 187.215 434.823 180.609 432.839 174.262Z" fill="#37A07F"/>
<path d="M433.998 202.772L431.876 219.995C431.719 221.253 433.645 221.627 433.841 220.388L435.963 203.145C436.081 201.907 434.254 201.474 433.998 202.772Z" fill="#37A07F"/>
<path d="M431.562 190.935C431.562 189.677 429.597 189.834 429.597 191.092L429.793 205.681C429.793 206.939 431.758 206.782 431.758 205.524L431.562 190.935Z" fill="#37A07F"/>
<path d="M389.827 287.374C388.674 291.307 387.508 295.278 386.33 299.289C385.976 300.508 387.921 300.882 388.294 299.663L391.772 287.748C392.106 286.529 390.181 286.175 389.827 287.374Z" fill="#37A07F"/>
<path d="M395.231 262.424L391.517 277.013C391.203 278.232 393.128 278.605 393.482 277.386L397.196 262.798C397.471 261.559 395.545 261.185 395.231 262.424Z" fill="#37A07F"/>
<path d="M441.563 269.404L428.182 296.93C428.067 297.165 428.051 297.435 428.135 297.682C428.22 297.929 428.399 298.133 428.634 298.247C428.868 298.362 429.139 298.379 429.386 298.294C429.633 298.209 429.836 298.03 429.95 297.795L443.331 270.269C443.446 270.035 443.463 269.764 443.378 269.517C443.293 269.27 443.114 269.067 442.88 268.952C442.645 268.837 442.375 268.82 442.128 268.905C441.881 268.99 441.678 269.169 441.563 269.404Z" fill="#37A07F"/>
<path d="M450.15 253.95C448.99 255.916 447.851 257.882 446.691 259.848C446.063 260.949 447.831 261.814 448.46 260.713C449.619 258.747 450.759 256.781 451.918 254.815C452.547 253.714 450.778 252.869 450.15 253.95Z" fill="#37A07F"/>
<path d="M441.347 258.963L436.101 269.58C435.986 269.815 435.969 270.086 436.054 270.333C436.139 270.58 436.318 270.783 436.553 270.898C436.787 271.013 437.057 271.029 437.304 270.945C437.551 270.86 437.754 270.68 437.869 270.446L443.115 259.809C443.206 259.577 443.206 259.32 443.115 259.089C443.024 258.858 442.849 258.67 442.624 258.562C442.4 258.455 442.144 258.437 441.907 258.511C441.67 258.586 441.47 258.747 441.347 258.963Z" fill="#37A07F"/>
<path d="M2.1507 304.165L348.193 285.294L547 304.165C547 304.165 509.038 327.307 268.808 327.307C28.5787 327.307 2.1507 304.165 2.1507 304.165Z" fill="#DFEAE9"/>
<path d="M336.85 86.9973C330.542 87.1153 325.748 79.7226 327.143 73.49C328.538 67.2573 334.688 62.6369 341.015 61.1623C347.342 59.6877 354.023 60.5921 360.487 61.5359C356.066 53.2978 351.527 44.6664 351.134 35.3076C350.741 25.9488 355.811 15.6463 364.889 13.2673C372.139 11.3011 379.96 14.9778 385.049 20.5026C390.138 26.0275 393.066 33.1645 395.875 40.164C396.658 33.5344 398.221 27.0206 400.532 20.7582C402.897 14.447 407.423 9.17987 413.304 5.89425C424.858 -0.00415683 439.988 6.73969 446.197 18.0843C452.406 29.4289 451.05 43.644 445.705 55.4408C447.846 50.5402 451.663 46.5641 456.471 44.2272C461.279 41.8902 466.762 41.3456 471.935 42.6912C477.108 44.0368 481.632 47.1844 484.694 51.5683C487.755 55.9523 489.154 61.2851 488.639 66.6085C487.597 77.147 478.146 87.017 467.575 87.6068H336.869L336.85 86.9973Z" fill="#DAF7F3"/>
<path d="M451.561 56.7971C441.245 53.5923 430.674 61.4961 424.052 70.1865C426.06 63.4344 426.988 56.4072 426.803 49.3651C426.685 43.7813 425.997 32.9872 418.138 32.9479C411.084 32.9479 407.311 42.3067 405.503 47.7529C403.981 52.3926 403.192 57.2419 403.165 62.1253C401.597 58.6375 399.547 55.3878 397.074 52.4716C392.81 47.458 385.717 41.8151 378.8 45.0593C373.652 47.4973 371.687 53.8282 372.434 59.1565C372.819 61.6561 373.751 64.0397 375.165 66.1362C370.43 64.3667 365.557 64.7206 361.882 69.9505C357.108 76.7927 365.498 85.1684 372.395 80.9019C373.475 80.2334 372.395 78.6212 371.275 79.2897C370.32 79.8505 369.226 80.1309 368.119 80.0986C367.012 80.0663 365.937 79.7227 365.016 79.1071C364.095 78.4915 363.366 77.6289 362.913 76.618C362.46 75.6071 362.3 74.4888 362.452 73.3913C363.179 69.3214 367.915 67.2962 371.569 67.2962C373.492 67.3183 375.383 67.7896 377.091 68.6725C380.075 71.9154 383.409 74.8168 387.033 77.3235C387.131 77.4074 387.245 77.4712 387.368 77.5112C387.49 77.5512 387.62 77.5666 387.748 77.5565C387.877 77.5465 388.002 77.5112 388.117 77.4527C388.232 77.3941 388.335 77.3135 388.418 77.2154C388.502 77.1173 388.566 77.0036 388.606 76.8808C388.646 76.7581 388.661 76.6287 388.651 76.4999C388.641 76.3712 388.606 76.2457 388.547 76.1307C388.489 76.0156 388.408 75.9132 388.31 75.8293C385.634 72.8593 382.567 70.2665 379.193 68.122C377.42 66.2436 376.026 64.0406 375.087 61.6338C373.122 56.1876 374.635 47.8708 381.138 46.3766C388.35 44.7643 394.637 51.9014 398.253 57.2493C400.65 60.8011 402.455 64.7188 403.597 68.8495C403.909 71.1524 404.375 73.4317 404.992 75.672C405.047 75.9327 405.203 76.161 405.426 76.3066C405.649 76.4523 405.921 76.5034 406.181 76.4486C406.442 76.3939 406.67 76.2378 406.815 76.0147C406.961 75.7916 407.012 75.5198 406.957 75.2591C406.668 72.9864 406.208 70.7387 405.582 68.5349C404.409 60.1562 405.649 51.6166 409.158 43.9189C410.573 40.8714 414.463 33.2035 419.159 34.9927C426.312 37.7256 425.211 50.2302 424.72 56.2662C424.055 63.7855 422.143 71.1413 419.061 78.0313C419.004 78.1475 418.971 78.2738 418.963 78.4028C418.955 78.5319 418.973 78.6613 419.014 78.7836C419.056 78.906 419.122 79.0188 419.208 79.1158C419.293 79.2127 419.397 79.2918 419.513 79.3487C419.629 79.4055 419.755 79.4388 419.884 79.4468C420.013 79.4548 420.143 79.4374 420.265 79.3954C420.387 79.3534 420.5 79.2877 420.597 79.2021C420.694 79.1165 420.773 79.0126 420.83 78.8964C425.133 69.8719 433.287 61.2012 443.288 58.7239C449.321 57.21 457.593 59.2744 456.041 67.3159C454.705 74.2367 447.434 77.1466 441.599 79.3093C441.361 79.4032 441.169 79.5861 441.063 79.8193C440.958 80.0526 440.948 80.3177 441.035 80.5583C441.122 80.799 441.299 80.9962 441.529 81.1081C441.759 81.22 442.024 81.2377 442.267 81.1575C448.397 78.8178 455.491 75.9079 457.632 69.0264C458.067 67.8263 458.254 66.5504 458.182 65.2759C458.109 64.0015 457.78 62.7549 457.212 61.6117C456.644 60.4684 455.851 59.4523 454.88 58.6248C453.908 57.7972 452.779 57.1754 451.561 56.7971Z" fill="#B1DDD5"/>
<path d="M26.7187 78.215C23.686 78.5264 20.6217 78.205 17.7194 77.2712C16.2014 76.7638 14.8744 75.8048 13.9159 74.5223C12.9573 73.2399 12.4128 71.6953 12.3552 70.0948C12.5517 66.5165 15.9117 63.9802 19.1342 62.4269C26.7188 58.8047 35.2541 57.6761 43.5187 59.2024C38.6637 55.5628 34.7716 50.7908 32.1811 45.3019C30.9169 42.5534 30.3404 39.5383 30.5013 36.517C30.6622 33.4957 31.5557 30.559 33.1046 27.9606C34.6355 25.8735 36.5849 24.1292 38.8282 22.8393C41.0714 21.5494 43.5591 20.7423 46.132 20.4696C51.2842 19.9649 56.4851 20.5134 61.419 22.0818C72.0373 25.0709 81.9377 30.1881 90.5192 37.1228C87.8028 32.6761 86.557 27.4854 86.9592 22.2893C87.3614 17.0932 89.391 12.1564 92.7593 8.18125C96.2339 4.26638 100.89 1.59221 106.02 0.56434C111.151 -0.463526 116.477 0.210998 121.19 2.48561C125.903 4.76021 129.746 8.51079 132.136 13.1685C134.527 17.8261 135.334 23.1367 134.435 28.2948C143.788 17.9726 153.573 7.33581 166.483 2.04691C170.648 0.336373 175.384 -0.784325 179.647 0.670615C181.872 1.59963 183.871 2.99451 185.512 4.76143C187.152 6.52834 188.395 8.62631 189.158 10.9142C191.343 16.9389 191.474 23.5182 189.53 29.6252C187.585 35.7322 183.675 41.0233 178.41 44.6727C186.269 41.8218 194.758 40.2293 202.833 42.1167C210.909 44.0042 218.435 49.9813 220.518 58.0031C222.6 66.0249 217.511 75.6983 209.357 77.2909V79.257L26.8955 78.1953L26.7187 78.215Z" fill="#DAF7F3"/>
<path d="M191.182 55.6834C188.981 50.0602 181.809 50.3158 176.916 50.7484C169.376 51.4264 162.003 53.3671 155.106 56.4895C158.289 48.3497 161.924 40.1706 164.419 31.8342C165.932 26.7616 164.262 21.1187 157.916 21.8462C151.569 22.5737 145.104 29.9663 140.958 34.5081C135.959 40.0064 131.759 46.1817 128.481 52.8522C127.234 46.9812 125.136 41.3244 122.253 36.0614C120.288 32.424 116.908 25.9948 111.721 26.8009C107.791 27.43 106.317 32.0701 105.335 35.3339C103.264 42.2947 102.225 49.5218 102.25 56.7844C98.7601 52.7845 94.5721 49.4533 89.8905 46.9538C85.5284 44.6337 77.7277 40.957 72.7369 42.9035C69.0625 44.3191 68.3355 48.5267 69.7502 51.8888C70.2542 53.0192 70.98 54.0368 71.8846 54.8812C72.7892 55.7256 73.8541 56.3795 75.0161 56.8041C70.9494 56.9331 66.921 57.6347 63.0499 58.8882C59.5916 60.1072 55.0723 62.0733 54.8562 66.3398C54.9363 68.1081 55.5554 69.8095 56.6302 71.2154C57.705 72.6213 59.1842 73.6643 60.8688 74.2044C65.8793 75.9542 71.2042 73.0837 75.4877 70.7833C76.5881 70.1738 75.4877 68.5616 74.3677 69.1514C70.4379 71.2748 65.0737 74.2437 60.6134 71.963C59.9987 71.7512 59.4354 71.4125 58.9601 70.9688C58.4847 70.5251 58.1079 69.9864 57.854 69.3875C57.6002 68.7887 57.475 68.1432 57.4866 67.4928C57.4983 66.8424 57.6464 66.2018 57.9215 65.6124C58.9236 62.4272 59.7685 62.152 62.9516 60.933C69.3376 58.5146 76.3326 58.5343 83.0723 58.5146C83.3328 58.5146 83.5827 58.4111 83.767 58.2267C83.9512 58.0423 84.0547 57.7923 84.0547 57.5316C84.0547 57.2708 83.9512 57.0208 83.767 56.8364C83.5827 56.6521 83.3328 56.5485 83.0723 56.5485C78.887 56.0176 72.8548 55.3098 71.2828 50.6501C69.986 46.7178 74.6428 44.5551 77.8063 44.7517C79.9882 45.0317 82.1148 45.6416 84.1137 46.5605C91.3159 49.3319 97.6316 54.007 102.387 60.0875C102.51 60.2649 102.687 60.3969 102.892 60.4635C103.097 60.5301 103.318 60.5274 103.521 60.4559C103.725 60.3843 103.899 60.248 104.017 60.0677C104.135 59.8875 104.191 59.6734 104.175 59.4584C104.013 53.9181 104.481 48.3772 105.57 42.9428C106.317 39.0106 106.946 33.1122 109.834 30.1826C115.415 24.6774 121.624 38.696 122.901 41.5272C124.904 46.1341 126.342 50.9666 127.184 55.9193C127.162 56.169 127.234 56.4181 127.385 56.6175C127.537 56.8169 127.758 56.9522 128.005 56.9966C128.252 57.041 128.506 56.9914 128.718 56.8575C128.93 56.7236 129.084 56.5151 129.149 56.2732C134.059 45.4103 141.392 35.8187 150.587 28.2361C151.608 27.3907 152.669 26.5256 153.77 25.7785L156.324 24.3235C159.311 22.7375 161.033 23.5895 161.492 26.8795C163.457 30.5758 162.848 30.8118 161.492 34.4491C160.942 35.9631 160.352 37.4573 159.782 38.9712C157.372 45.3022 154.962 51.6266 152.551 57.9444C152.276 58.6523 152.905 59.714 153.77 59.3011C158.368 57.0522 163.197 55.3117 168.172 54.1105C172.79 53.0488 184.304 50.1782 187.822 54.5234C189.511 55.3623 189.688 56.673 188.352 58.4556C188.706 60.3038 188.136 61.4638 186.682 61.916C185.638 62.5709 184.488 63.0368 183.283 63.2923C180.768 64.0198 178.174 64.531 175.619 65.1405L158.112 69.3284C156.894 69.6233 157.562 71.4715 158.78 71.1765C167.465 69.1121 176.759 67.7161 185.169 64.7669C188.981 63.4496 192.989 60.3431 191.182 55.6834Z" fill="#B1DDD5"/>
<path d="M182.962 295.612V304.067H106.31V295.612H113.109H176.163H182.962Z" fill="#FFAA00"/>
<path d="M169.934 272.923L176.163 295.612H113.109L118.65 272.982H169.718L169.934 272.923Z" fill="#F79021"/>
<path d="M164.334 252.495L169.934 272.923L169.718 272.982H118.65L123.641 252.495H164.334Z" fill="#F9F9F9"/>
<path d="M154.922 218.147L164.334 252.593H123.641L132.051 218.245C132.051 218.245 136.374 226.758 144.626 226.758C152.879 226.758 154.922 218.147 154.922 218.147Z" fill="#F79021"/>
<path d="M132.051 218.147H154.922C154.922 218.147 152.957 226.66 144.626 226.66C136.295 226.66 132.051 218.147 132.051 218.147Z" fill="#FFAA00"/>
<path d="M325.535 121C323.118 119.427 320.702 117.854 318.344 116.223C316.732 118.582 315.082 120.902 313.412 123.222C312.528 124.421 310.641 123.222 311.447 121.944C313.117 119.624 314.748 117.265 316.379 114.905C314.198 113.431 312.017 111.877 309.875 110.324C308.676 109.479 309.875 107.591 311.152 108.358C313.313 109.911 315.475 111.445 317.656 112.939C319.149 110.737 320.623 108.496 322.077 106.254C322.883 105.016 324.749 106.254 324.042 107.532C322.588 109.793 321.114 112.015 319.601 114.237C321.979 115.849 324.396 117.442 326.812 118.995C328.149 119.88 326.773 121.767 325.535 121Z" fill="#F9F9F9"/>
<path d="M344.654 129.533C344.654 128.274 342.689 128.432 342.689 129.69L343.219 139.934C343.238 140.194 343.359 140.437 343.556 140.609C343.753 140.78 344.01 140.866 344.271 140.848C344.531 140.83 344.774 140.709 344.945 140.511C345.116 140.314 345.202 140.057 345.184 139.796L344.654 129.533Z" fill="#A2BABC"/>
<path d="M240.75 252.888C240.75 251.63 238.785 251.787 238.785 253.046C238.942 263.414 239.106 273.782 239.276 284.15C239.276 285.408 241.241 285.271 241.241 283.993C241.084 273.638 240.92 263.27 240.75 252.888Z" fill="#A2BABC"/>
<path d="M241.162 288.77C241.141 288.509 241.018 288.268 240.819 288.098C240.62 287.928 240.362 287.845 240.101 287.866C239.841 287.887 239.599 288.01 239.429 288.209C239.26 288.408 239.176 288.667 239.197 288.927L239.728 298.758C239.746 299.019 239.867 299.262 240.064 299.433C240.261 299.605 240.518 299.691 240.779 299.672C241.04 299.654 241.282 299.533 241.454 299.336C241.625 299.139 241.711 298.881 241.693 298.621L241.162 288.77Z" fill="#A2BABC"/>
<path d="M245.426 281.712C245.417 281.583 245.383 281.457 245.325 281.341C245.267 281.225 245.187 281.122 245.09 281.037C244.992 280.952 244.879 280.887 244.756 280.846C244.633 280.805 244.504 280.789 244.375 280.798C244.246 280.807 244.12 280.841 244.004 280.899C243.888 280.957 243.785 281.037 243.7 281.134C243.615 281.232 243.551 281.346 243.51 281.468C243.469 281.591 243.452 281.721 243.461 281.85L244.169 291.208C244.187 291.469 244.308 291.712 244.505 291.883C244.702 292.055 244.959 292.141 245.22 292.123C245.48 292.104 245.723 291.983 245.894 291.786C246.066 291.589 246.152 291.332 246.133 291.071L245.426 281.712Z" fill="#A2BABC"/>
<path d="M514.461 295.553V304.027H437.81V295.553H444.628H507.662H514.461Z" fill="#FFAA00"/>
<path d="M501.434 272.864L507.663 295.553H444.628L450.15 272.923H501.237L501.434 272.864Z" fill="#F79021"/>
<path d="M495.834 252.436L501.434 272.865L501.237 272.923H450.15L455.16 252.436H495.834Z" fill="#F9F9F9"/>
<path d="M486.442 218.088L495.834 252.436H455.16L463.55 218.088C463.55 218.088 467.893 226.621 476.146 226.621C484.398 226.621 486.442 218.088 486.442 218.088Z" fill="#F79021"/>
<path d="M463.55 218.088H486.441C486.441 218.088 484.477 226.621 476.145 226.621C467.814 226.621 463.55 218.088 463.55 218.088Z" fill="#FFAA00"/>
<path d="M357.976 43.4356V44.2614L357.033 43.7895L357.976 43.4356Z" fill="#312A5E"/>
<path d="M176.197 106.991L175.313 125.788L169.733 114.227L161.323 117.549L154.19 103.944L166.117 94.3491L167.689 109.134L176.197 106.991Z" fill="#F9A138"/>
<path d="M173.309 135.52L162.64 140.455L157.55 156.302L146.016 151.996V139.099L156.529 142.441L158.356 133.928L173.309 135.52Z" fill="#F9A138"/>
<path d="M182.957 107.227C182.858 112.123 182.76 117.058 182.642 121.934C182.642 123.192 184.607 123.035 184.607 121.777C184.705 116.881 184.823 111.946 184.922 107.07C184.922 105.812 182.957 105.969 182.957 107.227Z" fill="#F9A138"/>
<path d="M170.44 128.186L158.376 121.816C157.256 121.207 156.411 122.976 157.511 123.586L169.576 130.054C170.696 130.546 171.56 128.776 170.44 128.186Z" fill="#F9A138"/>
<path d="M173.132 142.401L165.548 148.89C164.604 149.696 165.705 151.328 166.668 150.502L174.232 144.033C175.195 143.207 174.095 141.595 173.132 142.401Z" fill="#F9A138"/>
<path d="M270.112 113.292C270.367 115.396 270.642 117.48 270.917 119.584L244.293 122.455L243.389 116.281C237.369 116.049 231.543 114.091 226.603 110.64C221.663 107.189 217.819 102.391 215.526 96.8162C213.404 91.1392 212.864 84.9916 213.965 79.0312C215.065 73.0709 217.765 67.5222 221.775 62.979C225.912 58.5517 231.109 55.2518 236.874 53.3908C242.639 51.5298 248.783 51.1689 254.726 52.3422C260.651 53.6252 266.186 56.2977 270.876 60.1398C275.566 63.9819 279.278 68.8836 281.705 74.4416C282.72 76.772 283.484 79.2041 283.984 81.6966C285.073 86.701 284.939 91.8948 283.591 96.8359C283.299 97.8723 282.945 98.89 282.53 99.8834C280.168 105.722 275.75 110.493 270.112 113.292Z" fill="#F9A138"/>
<path d="M278.01 127.743L271.998 128.392L245.53 131.263L238.241 132.049L237.297 123.221L244.312 122.454L270.937 119.584L277.067 118.915L278.01 127.743Z" fill="#0E494D"/>
<path d="M251.248 121.078L234.036 85.5502C233.505 84.4295 231.639 85.0784 232.189 86.2187L249.401 121.747C249.971 122.867 251.818 122.219 251.248 121.078Z" fill="#F9F9F9"/>
<path d="M270.112 84.6259C269.495 86.0335 268.56 87.2787 267.38 88.2633C266.939 88.5894 266.448 88.8417 265.926 89.0104C265.926 86.0612 265.926 83.112 265.926 80.1628C265.926 78.9045 263.961 79.0617 263.961 80.3201V89.4429C262.527 89.6427 261.065 89.4172 259.757 88.7941C259.069 88.2985 258.537 87.6163 258.224 86.828C260.346 84.095 261.623 79.3173 258.519 77.9804C254.942 76.4468 255.001 81.0082 255.866 84.8422L254.51 85.0781C254.775 82.6703 254.549 80.2338 253.847 77.9156C253.144 75.5975 251.98 73.4458 250.423 71.5904C245.668 66.8127 244.293 74.8346 245.118 78.3343C245.845 81.3818 248.164 86.1988 251.504 88.1649C251.141 89.085 250.56 89.9026 249.81 90.5467C249.06 91.1909 248.164 91.6421 247.201 91.8613C247.849 87.7914 246.906 82.6008 242.917 82.0306C237.71 81.3031 238.987 88.8728 240.834 91.3304C241.726 92.5014 242.953 93.3724 244.352 93.8274C242.387 97.4451 238.005 99.5685 234.291 95.1251C233.486 94.1617 231.855 95.2627 232.68 96.2458C233.47 97.279 234.498 98.1065 235.675 98.6584C236.853 99.2102 238.146 99.4702 239.445 99.4162C240.744 99.3621 242.011 98.9958 243.139 98.3481C244.266 97.7005 245.222 96.7905 245.924 95.6952C246.23 95.2074 246.481 94.6863 246.67 94.142C247.977 94.098 249.248 93.7117 250.359 93.0216C251.469 92.3316 252.379 91.362 252.997 90.2097C253.249 89.7548 253.465 89.2816 253.646 88.7941C254.418 88.8958 255.204 88.8218 255.945 88.5778C256.286 88.4547 256.605 88.2752 256.888 88.047C257.04 88.43 257.238 88.7931 257.477 89.1284C258.204 90.1278 259.199 90.9016 260.346 91.3607C261.493 91.8198 262.746 91.9456 263.961 91.7237C263.961 101.069 263.909 110.415 263.804 119.761C263.804 121.019 265.769 120.862 265.769 119.603C265.769 110.127 265.822 100.643 265.926 91.1535C268.508 89.9984 270.597 87.964 271.821 85.4124C271.85 85.2031 271.811 84.9901 271.71 84.8047C271.609 84.6194 271.45 84.4717 271.258 84.3834C271.067 84.2952 270.851 84.2711 270.645 84.3148C270.438 84.3585 270.251 84.4676 270.112 84.6259ZM243.821 90.9372C241.994 89.6789 239.675 87.1426 242.446 85.8253C244.627 84.7832 244.902 86.4544 245.295 88.5778C245.472 89.5906 245.432 90.6293 245.177 91.6253C244.699 91.4515 244.244 91.2204 243.821 90.9372ZM251.465 85.609L249.5 83.4266C248.659 82.1606 247.998 80.7843 247.535 79.337C247.201 78.4326 246.061 74.7559 246.808 73.9301L249.814 73.8318C250.487 74.7634 251.017 75.7906 251.386 76.8793C252.243 79.3198 252.61 81.9055 252.467 84.4883C252.467 84.8029 252.467 85.1371 252.368 85.4517L251.465 85.609Z" fill="#F9F9F9"/>
<path d="M223.288 67.56C220.372 71.3425 218.468 75.8054 217.753 80.5282C217.037 85.2511 217.536 90.0783 219.201 94.5551C219.289 94.8028 219.473 95.0051 219.71 95.1175C219.948 95.23 220.221 95.2434 220.468 95.1547C220.716 95.0661 220.918 94.8827 221.03 94.6449C221.143 94.407 221.156 94.1343 221.067 93.8866C219.505 89.7403 219.025 85.2634 219.675 80.88C220.325 76.4966 222.083 72.3517 224.781 68.838C225.547 67.8353 224.054 66.5573 223.288 67.56Z" fill="#F7BC39"/>
<path d="M267.144 61.878C266.044 61.2488 265.179 63.0183 266.28 63.6475C270.055 65.7565 273.2 68.8334 275.393 72.5618C277.586 76.2903 278.747 80.5359 278.757 84.8621C278.757 86.1401 280.722 85.9828 280.722 84.7245C280.686 80.0539 279.409 75.4768 277.024 71.4623C274.638 67.4477 271.228 64.14 267.144 61.878Z" fill="#F7BC39"/>
<path d="M277.087 93.1787C276.976 98.1486 274.973 102.889 271.487 106.43C270.603 107.335 272.096 108.613 272.98 107.708C276.8 103.767 278.966 98.5113 279.032 93.0214C279.071 91.8614 277.106 91.8614 277.087 93.1787Z" fill="#F7BC39"/>
<path d="M231.599 109.419C228.707 107.97 226.287 105.726 224.624 102.95C223.956 101.869 222.344 102.95 222.993 104.071C224.865 107.115 227.545 109.579 230.735 111.188C230.851 111.245 230.977 111.279 231.106 111.287C231.235 111.295 231.364 111.277 231.486 111.235C231.609 111.193 231.722 111.128 231.818 111.042C231.915 110.956 231.994 110.852 232.051 110.736C232.108 110.62 232.141 110.494 232.149 110.365C232.157 110.236 232.14 110.106 232.098 109.984C232.056 109.862 231.99 109.749 231.905 109.652C231.819 109.555 231.715 109.476 231.599 109.419Z" fill="#F7BC39"/>
<path d="M231.796 58.5942L226.982 62.7821C226.039 63.6078 227.139 65.2201 228.102 64.3943L232.916 60.2064C233.859 59.4003 232.759 57.7684 231.796 58.5942Z" fill="#F7BC39"/>
<path d="M230.774 64.4535L224.761 72.0624C223.975 73.0455 225.469 74.3431 226.255 73.3404L232.248 65.7511C233.034 64.7484 231.599 63.4704 230.774 64.4535Z" fill="#F7BC39"/>
<path d="M275.515 81.7164C275.358 80.4581 273.393 80.5957 273.55 81.8541C274.124 86.0599 273.998 90.3318 273.177 94.4963C273.127 94.757 273.183 95.0268 273.332 95.2462C273.482 95.4656 273.712 95.6166 273.972 95.6662C274.233 95.7157 274.503 95.6596 274.722 95.5103C274.941 95.361 275.092 95.1306 275.142 94.8699C275.982 90.5352 276.109 86.0919 275.515 81.7164Z" fill="#F7BC39"/>
<path d="M159.495 267.482L300.397 279.269L351.082 251.524L199.662 243.182L159.495 267.482Z" fill="#DBFBF1"/>
<path d="M351.082 251.524V293.414L300.397 322.247V279.269L351.082 251.524Z" fill="#0E494D"/>
<path d="M339.839 275.914L348.181 271.018C348.543 270.837 348.906 270.293 348.906 269.93C348.906 269.567 348.634 269.386 348.181 269.658L339.839 274.554C339.476 274.736 339.114 275.28 339.114 275.642C339.204 276.005 339.476 276.186 339.839 275.914Z" fill="#0E494D"/>
<path d="M328.233 282.624L336.575 277.728C336.937 277.546 337.3 277.002 337.3 276.64C337.3 276.277 337.028 276.096 336.575 276.368L328.233 281.264C327.87 281.445 327.508 281.989 327.508 282.352C327.508 282.715 327.87 282.896 328.233 282.624Z" fill="#0E494D"/>
<path d="M316.627 289.424L324.969 284.528C325.332 284.347 325.694 283.803 325.694 283.44C325.694 283.077 325.422 282.896 324.969 283.168L316.627 288.064C316.265 288.246 315.902 288.79 315.902 289.152C315.902 289.515 316.174 289.606 316.627 289.424Z" fill="#0E494D"/>
<path d="M304.931 296.134L313.272 291.238C313.635 291.056 313.998 290.512 313.998 290.15C313.998 289.787 313.726 289.606 313.272 289.878L304.931 294.774C304.568 294.955 304.205 295.499 304.205 295.862C304.296 296.225 304.568 296.406 304.931 296.134Z" fill="#0E494D"/>
<path d="M339.839 278.544L348.181 273.648C348.543 273.466 348.906 272.922 348.906 272.559C348.906 272.197 348.634 272.015 348.181 272.287L339.839 277.184C339.476 277.365 339.114 277.909 339.114 278.272C339.204 278.634 339.476 278.816 339.839 278.544Z" fill="#0E494D"/>
<path d="M328.233 285.344L336.575 280.448C336.937 280.267 337.3 279.722 337.3 279.36C337.3 278.997 337.028 278.816 336.575 279.088L328.233 283.984C327.87 284.165 327.508 284.709 327.508 285.072C327.508 285.435 327.87 285.525 328.233 285.344Z" fill="#0E494D"/>
<path d="M316.627 292.054L324.969 287.157C325.332 286.976 325.694 286.432 325.694 286.069C325.694 285.707 325.422 285.525 324.969 285.797L316.627 290.694C316.265 290.875 315.902 291.419 315.902 291.782C315.902 292.144 316.174 292.326 316.627 292.054Z" fill="#0E494D"/>
<path d="M304.931 298.763L313.272 293.867C313.635 293.686 313.998 293.142 313.998 292.779C313.998 292.416 313.726 292.235 313.272 292.507L304.931 297.403C304.568 297.585 304.205 298.129 304.205 298.491C304.296 298.854 304.568 299.035 304.931 298.763Z" fill="#0E494D"/>
<path d="M339.839 281.264L348.181 276.368C348.543 276.186 348.906 275.642 348.906 275.28C348.906 274.917 348.634 274.736 348.181 275.008L339.839 279.904C339.476 280.085 339.114 280.629 339.114 280.992C339.204 281.355 339.476 281.445 339.839 281.264Z" fill="#0E494D"/>
<path d="M328.233 287.973L336.575 283.077C336.937 282.896 337.3 282.352 337.3 281.989C337.3 281.627 337.028 281.445 336.575 281.717L328.233 286.613C327.87 286.795 327.508 287.339 327.508 287.701C327.508 288.064 327.87 288.245 328.233 287.973Z" fill="#0E494D"/>
<path d="M316.627 294.683L324.969 289.787C325.332 289.606 325.694 289.062 325.694 288.699C325.694 288.336 325.422 288.155 324.969 288.427L316.627 293.323C316.265 293.504 315.902 294.048 315.902 294.411C315.902 294.774 316.174 294.955 316.627 294.683Z" fill="#0E494D"/>
<path d="M304.931 301.483L313.272 296.587C313.635 296.406 313.998 295.862 313.998 295.499C313.998 295.136 313.726 294.955 313.272 295.227L304.931 300.123C304.568 300.305 304.205 300.849 304.205 301.211C304.296 301.574 304.568 301.665 304.931 301.483Z" fill="#0E494D"/>
<path d="M339.839 283.893L348.181 278.997C348.543 278.816 348.906 278.272 348.906 277.909C348.906 277.546 348.634 277.365 348.181 277.637L339.839 282.533C339.476 282.715 339.114 283.259 339.114 283.621C339.204 283.984 339.476 284.165 339.839 283.893Z" fill="#0E494D"/>
<path d="M328.233 290.694L336.575 285.797C336.937 285.616 337.3 285.072 337.3 284.709C337.3 284.347 337.028 284.165 336.575 284.437L328.233 289.333C327.87 289.515 327.508 290.059 327.508 290.422C327.508 290.784 327.87 290.875 328.233 290.694Z" fill="#0E494D"/>
<path d="M316.627 297.403L324.969 292.507C325.332 292.326 325.694 291.782 325.694 291.419C325.694 291.056 325.422 290.875 324.969 291.147L316.627 296.043C316.265 296.224 315.902 296.769 315.902 297.131C315.902 297.494 316.174 297.585 316.627 297.403Z" fill="#0E494D"/>
<path d="M304.931 304.113L313.272 299.217C313.635 299.035 313.998 298.491 313.998 298.129C313.998 297.766 313.726 297.585 313.272 297.857L304.931 302.753C304.568 302.934 304.205 303.478 304.205 303.841C304.296 304.204 304.568 304.385 304.931 304.113Z" fill="#0E494D"/>
<path d="M339.839 286.613L348.181 281.717C348.543 281.536 348.906 280.992 348.906 280.629C348.906 280.266 348.634 280.085 348.181 280.357L339.839 285.253C339.476 285.435 339.114 285.979 339.114 286.341C339.204 286.704 339.476 286.795 339.839 286.613Z" fill="#0E494D"/>
<path d="M328.233 293.323L336.575 288.427C336.937 288.245 337.3 287.701 337.3 287.339C337.3 286.976 337.028 286.795 336.575 287.067L328.233 291.963C327.87 292.144 327.508 292.688 327.508 293.051C327.508 293.414 327.87 293.504 328.233 293.323Z" fill="#0E494D"/>
<path d="M316.627 300.033L324.969 295.136C325.332 294.955 325.694 294.411 325.694 294.048C325.694 293.686 325.422 293.504 324.969 293.776L316.627 298.673C316.265 298.854 315.902 299.398 315.902 299.761C315.902 300.123 316.174 300.305 316.627 300.033Z" fill="#0E494D"/>
<path d="M304.931 306.833L313.272 301.937C313.635 301.755 313.998 301.211 313.998 300.849C313.998 300.486 313.726 300.305 313.272 300.577L304.931 305.473C304.568 305.654 304.205 306.198 304.205 306.561C304.296 306.924 304.568 307.014 304.931 306.833Z" fill="#0E494D"/>
<path d="M300.397 322.247L159.495 309.1V267.482L300.397 279.269V322.247Z" fill="#DCF0D3"/>
<path d="M187.966 282.171L194.585 282.715L206.644 283.712C207.46 283.803 208.094 284.437 208.094 285.253C208.094 286.16 207.369 286.795 206.462 286.795L195.038 285.888C194.766 286.795 194.313 287.611 193.406 288.245C192.046 289.152 190.232 289.062 188.872 288.155C187.875 287.429 187.24 286.341 187.15 285.253L175.634 284.347C174.818 284.256 174.184 283.621 174.184 282.805C174.184 281.899 174.909 281.264 175.816 281.264L187.966 282.171Z" fill="#0E494D"/>
<path d="M200.478 297.947C200.387 299.67 201.747 301.03 203.379 301.121C205.102 301.211 206.462 299.851 206.553 298.219C206.644 296.496 205.284 295.136 203.652 295.046C201.929 294.955 200.569 296.224 200.478 297.947Z" fill="white"/>
<path d="M189.144 296.95C189.053 298.673 190.414 300.033 192.046 300.123C193.768 300.214 195.128 298.854 195.219 297.222C195.31 295.499 193.95 294.139 192.318 294.048C190.595 293.958 189.235 295.227 189.144 296.95Z" fill="white"/>
<path d="M177.81 295.952C177.72 297.675 179.08 299.035 180.712 299.126C182.435 299.217 183.795 297.857 183.885 296.224C183.976 294.502 182.616 293.142 180.984 293.051C179.261 292.96 177.901 294.23 177.81 295.952Z" fill="white"/>
<path d="M196.579 263.492L268.844 269.295L296.408 254.425L218.884 249.982L196.579 263.492Z" fill="#DCF0D3"/>
<path d="M296.408 254.425V257.689L268.844 272.469V269.295L296.408 254.425Z" fill="#A7D9A3"/>
<path d="M268.844 269.295L196.579 263.492V266.666L268.844 272.469V269.295Z" fill="#BDE0BA"/>
<path d="M274.737 255.06V259.866C274.647 262.767 258.235 264.671 242.277 264.036C226.319 263.402 217.162 257.961 216.799 256.239V250.254L274.737 255.06Z" fill="white"/>
<path d="M274.737 255.06V259.866C274.647 261.679 267.937 263.13 258.961 263.764V253.791L274.737 255.06Z" fill="#F0F7ED"/>
<path d="M292.418 250.526V262.042L185.064 252.431V241.731L292.418 250.526Z" fill="#0E494D"/>
<path d="M318.985 235.384V239.102C318.985 244.724 315.811 249.982 310.824 252.521L292.418 262.042V250.526L312.819 239.737C315.086 238.558 317.171 237.017 318.985 235.384Z" fill="#236852"/>
<path d="M175.181 243.726L300.397 252.793V124.676L175.181 131.929V243.726Z" fill="#DBFBF1"/>
<path d="M286.615 134.287L186.787 140.906C184.883 140.996 183.341 142.628 183.341 144.532V231.304C183.341 233.208 184.792 234.84 186.696 234.931L286.525 242.91C288.701 243.091 290.514 241.369 290.514 239.283V137.913C290.605 135.828 288.791 134.105 286.615 134.287Z" fill="#0E494D"/>
<path d="M279.815 140.996H266.758C245.179 140.996 223.69 142.538 202.291 145.439L193.496 146.618C191.411 146.89 189.779 148.613 189.598 150.789L189.326 154.234C187.512 178.534 187.603 200.658 189.598 224.957C189.779 227.043 191.32 228.765 193.406 229.128L202.745 230.579C223.962 233.843 245.451 235.656 266.94 235.928L279.634 236.11C282.082 236.11 284.076 234.296 284.258 231.848L285.074 219.154C286.525 198.3 286.525 179.622 285.074 158.768L284.167 145.167C284.167 142.9 282.172 140.996 279.815 140.996Z" fill="#236852"/>
<path d="M280.903 235.022C282.716 235.022 284.167 233.662 284.348 231.848L285.164 219.154C286.524 198.481 286.615 179.622 285.164 158.949L284.258 145.348C284.167 143.535 282.626 142.175 280.812 142.175H267.756C246.357 142.175 224.687 143.716 203.47 146.618L194.675 147.797C193.134 147.978 191.864 149.338 191.774 150.879L191.502 154.325C189.688 178.443 189.779 200.748 191.774 224.867C191.864 226.408 193.134 227.768 194.675 227.949L204.014 229.4C225.14 232.664 246.72 234.387 268.028 234.75L280.903 235.022Z" fill="#4BC999"/>
<path d="M191.592 155.504C191.592 155.141 191.592 154.778 191.683 154.416L191.955 150.97C192.046 149.338 193.315 148.069 194.857 147.887L203.652 146.709C224.869 143.716 246.539 142.266 267.937 142.266H280.994C282.807 142.266 284.258 143.626 284.439 145.439L285.346 159.04C286.615 178.443 286.706 195.852 285.527 215.256C284.893 215.256 284.258 215.256 283.623 215.256C241.915 215.165 206.281 191.772 191.592 155.504Z" fill="#37A07F"/>
<path d="M321.342 133.108L300.397 124.676V252.793L320.798 243.182L321.342 133.108Z" fill="#D0F0C5"/>
<path d="M328.052 233.662L341.652 226.771C346.639 224.232 349.722 219.245 349.722 213.805V167.744C349.722 162.304 346.639 157.317 341.652 154.778L328.052 147.887V233.662Z" fill="#236852"/>
<path d="M321.342 133.108L325.06 135.919C332.676 141.722 337.209 150.789 337.209 160.49V215.89C337.209 227.405 330.863 237.923 320.798 243.182" fill="#0E494D"/>
<path d="M200.387 174.544C202.382 174.544 203.924 172.912 203.924 171.008V158.314C203.924 156.32 202.292 154.778 200.387 154.778C198.393 154.778 196.851 156.41 196.851 158.314V170.918C196.851 172.912 198.483 174.544 200.387 174.544Z" fill="white"/>
<path d="M223.055 303.025L288.973 309.825V290.422L223.055 283.621V303.025Z" fill="white"/>
<path d="M284.802 294.32L227.226 288.064V295.59L284.802 301.846V294.32Z" fill="#0E494D"/>
<path d="M284.802 301.846L227.226 295.59V291.6L284.802 297.857V301.846Z" fill="#0E494D"/>
<path d="M250.075 255.695C249.984 256.964 250.982 258.052 252.251 258.143C253.52 258.233 254.608 257.236 254.699 255.967C254.79 254.697 253.792 253.609 252.523 253.519C251.254 253.428 250.166 254.425 250.075 255.695Z" fill="#DBFBF1"/>
<path d="M240.373 254.788C240.283 256.057 241.28 257.145 242.549 257.236C243.819 257.327 244.907 256.329 244.997 255.06C245.088 253.791 244.091 252.703 242.821 252.612C241.552 252.612 240.464 253.519 240.373 254.788Z" fill="#DBFBF1"/>
<path d="M230.671 253.972C230.581 255.241 231.578 256.329 232.847 256.42C234.117 256.511 235.205 255.513 235.296 254.244C235.386 252.975 234.389 251.887 233.119 251.796C231.85 251.705 230.762 252.703 230.671 253.972Z" fill="#DBFBF1"/>
<path d="M220.97 253.065C220.879 254.335 221.876 255.423 223.146 255.513C224.415 255.604 225.503 254.607 225.594 253.337C225.684 252.068 224.687 250.98 223.418 250.889C222.148 250.889 220.97 251.887 220.97 253.065Z" fill="#DBFBF1"/>
<path d="M219.796 205.372H271.075C275.625 205.372 279.437 201.649 279.437 196.933V181.171C279.437 176.578 275.748 172.731 271.075 172.731H219.796C215.246 172.731 211.434 176.454 211.434 181.171V196.933C211.434 201.649 215.123 205.372 219.796 205.372Z" fill="#FFAA00"/>
<path d="M234.339 191.846C234.866 191.846 235.261 191.96 235.525 192.188C235.788 192.417 235.92 192.742 235.92 193.164C235.92 194.042 235.393 194.482 234.339 194.482H232.995V196.564C232.995 197.108 232.836 197.53 232.52 197.829C232.221 198.128 231.826 198.277 231.334 198.277C230.842 198.277 230.438 198.128 230.122 197.829C229.823 197.53 229.674 197.108 229.674 196.564V194.482H222.768C222.294 194.482 221.925 194.35 221.661 194.086C221.398 193.805 221.266 193.462 221.266 193.058C221.266 192.637 221.406 192.232 221.687 191.846L229.832 180.143C230.007 179.897 230.227 179.713 230.491 179.59C230.754 179.449 231.027 179.379 231.308 179.379C231.765 179.379 232.16 179.528 232.494 179.827C232.828 180.126 232.995 180.547 232.995 181.092V191.846H234.339ZM224.771 191.846H229.674V184.756L224.771 191.846Z" fill="#EFEFEF"/>
<path d="M244.212 198.356C242.016 198.356 240.338 197.548 239.178 195.931C238.018 194.297 237.439 191.925 237.439 188.815C237.439 185.722 238.018 183.368 239.178 181.751C240.338 180.117 242.016 179.3 244.212 179.3C246.409 179.3 248.087 180.117 249.247 181.751C250.406 183.368 250.986 185.722 250.986 188.815C250.986 191.907 250.406 194.271 249.247 195.905C248.087 197.539 246.409 198.356 244.212 198.356ZM244.212 195.694C245.407 195.694 246.277 195.149 246.822 194.06C247.366 192.953 247.639 191.204 247.639 188.815C247.639 186.408 247.366 184.668 246.822 183.596C246.277 182.507 245.407 181.962 244.212 181.962C243.018 181.962 242.148 182.507 241.603 183.596C241.058 184.686 240.786 186.425 240.786 188.815C240.786 191.204 241.058 192.953 241.603 194.06C242.148 195.149 243.018 195.694 244.212 195.694Z" fill="#EFEFEF"/>
<path d="M265.947 191.846C266.474 191.846 266.869 191.96 267.133 192.188C267.396 192.417 267.528 192.742 267.528 193.164C267.528 194.042 267.001 194.482 265.947 194.482H264.602V196.564C264.602 197.108 264.444 197.53 264.128 197.829C263.829 198.128 263.434 198.277 262.942 198.277C262.45 198.277 262.046 198.128 261.729 197.829C261.431 197.53 261.281 197.108 261.281 196.564V194.482H254.376C253.901 194.482 253.532 194.35 253.269 194.086C253.005 193.805 252.874 193.462 252.874 193.058C252.874 192.637 253.014 192.232 253.295 191.846L261.44 180.143C261.615 179.897 261.835 179.713 262.098 179.59C262.362 179.449 262.634 179.379 262.916 179.379C263.372 179.379 263.768 179.528 264.102 179.827C264.435 180.126 264.602 180.547 264.602 181.092V191.846H265.947ZM256.379 191.846H261.281V184.756L256.379 191.846Z" fill="#EFEFEF"/>
<path d="M364.849 224.685L363.398 230.579C363.126 231.667 362.31 232.574 361.132 232.846L355.238 234.296L361.132 235.747C362.22 236.019 363.126 236.835 363.398 238.014L364.849 243.908L366.3 238.014C366.572 236.926 367.388 236.019 368.567 235.747L374.46 234.296L368.567 232.846C367.479 232.574 366.572 231.758 366.3 230.579L364.849 224.685Z" fill="#DBFBF1"/>
<path d="M162.654 220.696L161.656 224.685C161.475 225.411 160.931 226.045 160.115 226.227L156.125 227.224L160.115 228.221C160.84 228.403 161.475 228.947 161.656 229.763L162.654 233.752L163.651 229.763C163.832 229.038 164.376 228.403 165.192 228.221L169.182 227.224L165.192 226.227C164.467 226.045 163.832 225.501 163.651 224.685L162.654 220.696Z" fill="#DBFBF1"/>
<path d="M367.751 193.495L366.481 198.572C366.209 199.479 365.484 200.295 364.577 200.476L359.5 201.746L364.577 203.015C365.484 203.287 366.3 204.012 366.481 204.919L367.751 209.997L369.02 204.919C369.292 204.012 370.017 203.196 370.924 203.015L376.002 201.746L370.924 200.476C370.017 200.204 369.201 199.479 369.02 198.572L367.751 193.495Z" fill="#DBFBF1"/>
<path d="M171.539 190.684L170.633 194.492C170.451 195.217 169.907 195.761 169.182 195.943L165.374 196.849L169.182 197.756C169.907 197.937 170.451 198.481 170.633 199.207L171.539 203.015L172.446 199.207C172.627 198.481 173.171 197.937 173.897 197.756L177.705 196.849L173.897 195.943C173.171 195.761 172.627 195.217 172.446 194.492L171.539 190.684Z" fill="#DBFBF1"/>
<path d="M384.797 209.453L384.071 212.263C383.981 212.807 383.527 213.17 382.983 213.351L380.173 214.077L382.983 214.802C383.527 214.893 383.89 215.346 384.071 215.89L384.797 218.701L385.522 215.89C385.613 215.346 386.066 214.984 386.61 214.802L389.421 214.077L386.61 213.351C386.066 213.261 385.704 212.807 385.522 212.263L384.797 209.453Z" fill="#DBFBF1"/>
<path d="M174.531 243.726L173.715 246.9C173.534 247.444 173.081 247.988 172.537 248.078L169.363 248.894L172.537 249.71C173.081 249.892 173.625 250.345 173.715 250.889L174.531 254.063L175.347 250.889C175.529 250.345 175.982 249.801 176.526 249.71L179.7 248.894L176.526 248.078C175.982 247.897 175.438 247.444 175.347 246.9L174.531 243.726Z" fill="#DBFBF1"/>
<path d="M429.892 183.807C428.817 186.508 432.098 201.496 435.53 202.096C435.596 202.03 421.237 204.985 415.187 203.984C409.137 202.982 406.428 200.799 406.428 200.799C409.465 195.495 411.033 191.152 410.943 185.414L429.892 183.807Z" fill="#E2B9A3"/>
<path d="M452.047 248.405C452.047 248.405 438.272 248.282 422.945 248.274V248.183C406.116 248.397 389.894 248.766 389.894 248.766C389.713 250.227 392.242 261.318 398.645 265.423L400.886 315.131L409.711 315.32C409.711 315.32 413.217 283.303 417.395 270.078C418.216 267.853 418.537 266.022 420.318 265.916C422.288 266.022 422.288 267.648 423.503 270.103C427.805 283.238 432.87 315.254 432.87 315.254L441.687 314.951L442.204 265.226C448.567 261.031 452.212 249.866 452.047 248.405Z" fill="#1C1714"/>
<path d="M422.944 248.274V248.183C406.115 248.397 389.893 248.766 389.893 248.766C390.018 250.492 390.309 252.203 390.764 253.872H450.462C451.57 252.268 452.145 250.355 452.104 248.405C452.104 248.405 438.271 248.282 422.944 248.274Z" fill="black"/>
<path d="M440.956 307.102C435.004 307.102 430.185 311.207 430.185 316.174V316.404H451.718V316.174C451.718 311.166 446.899 307.102 440.956 307.102Z" fill="black"/>
<path d="M402.371 307.291C396.428 307.291 391.6 311.396 391.6 316.321C391.6 316.403 391.6 316.477 391.6 316.551H413.126C413.13 316.475 413.13 316.398 413.126 316.321C413.126 311.322 408.307 307.291 402.355 307.291H402.371Z" fill="black"/>
<path d="M448.336 311.782C447.515 310.583 446.226 310.066 443.706 309.672C443.221 309.598 443.008 308.892 443.648 308.941C449.034 309.303 448.574 312.184 448.336 311.782Z" fill="#3C3B3D"/>
<path d="M410.458 312.635C409.637 311.429 408.348 310.92 405.828 310.525C405.344 310.443 405.13 309.746 405.771 309.787C411.156 310.156 410.696 313.029 410.458 312.635Z" fill="#3C3B3D"/>
<path d="M457.869 197.314C465.206 205.032 459.599 242.699 453.976 249.324C451.455 252.855 411.287 251.787 391.814 251.902C387.529 251.902 385.525 245.212 385.452 240.155C385.452 240.155 376.831 215.644 380.69 204.067C384.548 192.49 394.51 191.199 405.037 190.514C406.089 190.445 407.16 190.383 408.246 190.326C410.127 190.228 412.054 190.148 414.004 190.085C415.794 190.028 411.251 195.384 419.28 195.384C426.061 195.384 423.584 189.913 425.661 189.913C440.102 189.946 450.532 189.596 457.869 197.314Z" fill="#236852"/>
<path d="M417.509 190.458C417.312 190.827 411.155 204.471 410.941 204.011C410.728 203.552 402.88 193.002 402.88 193.002C402.88 193.002 407.485 187.658 407.542 187.666L417.509 190.458Z" fill="#37A07F"/>
<path d="M421.474 189.945C421.671 190.315 427.836 203.959 428.042 203.499C428.247 203.039 436.103 192.49 436.103 192.49C436.103 192.49 431.49 187.146 431.44 187.154L421.474 189.945Z" fill="#37A07F"/>
<path d="M377.965 130.427C378.318 134.696 381.742 141.1 379.936 148.357C378.926 158.586 377.087 169.611 388.966 180.275C398.981 190.602 429.282 190.052 446.342 175.957C458.434 167.501 456.414 153.89 456.414 153.89C465.535 150.376 469.246 136.65 463.885 135.443C462.744 135.18 461.557 135.184 460.417 135.456C459.278 135.728 458.217 136.261 457.318 137.011C457.318 137.011 457.531 115.593 453.484 110.035C433.699 99.1249 412.231 103.098 391.133 106.316C391.117 106.316 377.054 119.295 377.965 130.427Z" fill="url(#paint0_linear)"/>
<path d="M415.457 134.737C422.337 134.984 428.297 136.166 431.999 138.62C434.158 139.441 435.431 135.887 432.894 134.516C427.809 131.96 422.163 130.724 416.475 130.92C413.38 130.961 412.19 134.631 415.457 134.737Z" fill="#4E1E05"/>
<path d="M397.446 137.783C391.133 138.604 385.797 140.205 382.711 142.914C380.839 143.924 379.181 140.5 381.34 138.957C385.313 136.117 390.468 134.508 395.985 134.114C398.859 133.908 400.443 137.414 397.446 137.783Z" fill="#4E1E05"/>
<path d="M402.372 156.435L409.317 160.146C409.317 160.146 404.433 160.285 403.932 160.047C402.646 158.956 401.457 157.756 400.377 156.46C405.303 153.274 404.597 146.961 402.577 142.758C406.329 148.127 405.754 151.805 402.372 156.435Z" fill="#E8B79D"/>
<path d="M421.811 149.884C420.794 150.003 419.765 149.816 418.854 149.348C417.943 148.88 417.192 148.151 416.697 147.254C416.203 146.357 415.986 145.333 416.075 144.313C416.165 143.293 416.556 142.322 417.199 141.525C417.842 140.728 418.709 140.141 419.687 139.838C420.665 139.535 421.712 139.531 422.693 139.825C423.674 140.119 424.545 140.699 425.195 141.491C425.845 142.282 426.245 143.249 426.343 144.268C426.483 145.613 426.085 146.959 425.236 148.011C424.387 149.064 423.156 149.737 421.811 149.884Z" fill="#E8B79D"/>
<path d="M421.614 148.907C420.721 148.969 419.828 148.766 419.049 148.324C418.27 147.881 417.639 147.219 417.234 146.42C416.829 145.621 416.669 144.72 416.774 143.83C416.878 142.94 417.243 142.101 417.822 141.417C418.401 140.734 419.168 140.236 420.029 139.986C420.889 139.736 421.804 139.746 422.659 140.013C423.514 140.281 424.271 140.794 424.836 141.49C425.401 142.185 425.748 143.032 425.834 143.924C425.885 144.528 425.816 145.137 425.631 145.714C425.446 146.292 425.149 146.827 424.757 147.29C424.365 147.753 423.886 148.134 423.347 148.411C422.808 148.689 422.219 148.857 421.614 148.907Z" fill="black"/>
<path d="M417.403 144.745C417.452 145.434 417.705 146.092 418.13 146.636C418.556 147.181 419.133 147.586 419.79 147.8C420.447 148.014 421.152 148.028 421.817 147.839C422.481 147.65 423.074 147.267 423.519 146.739C423.965 146.212 424.243 145.563 424.319 144.877C424.394 144.19 424.263 143.497 423.942 142.885C423.621 142.274 423.125 141.772 422.517 141.443C421.91 141.115 421.218 140.975 420.531 141.042C419.626 141.122 418.79 141.555 418.204 142.249C417.618 142.942 417.33 143.84 417.403 144.745Z" fill="#111111"/>
<path d="M419.982 144.786C419.612 144.805 419.249 144.682 418.969 144.44C418.688 144.199 418.512 143.859 418.476 143.491C418.44 143.122 418.547 142.754 418.776 142.463C419.004 142.173 419.336 141.981 419.703 141.929C420.071 141.908 420.433 142.034 420.709 142.278C420.986 142.523 421.155 142.866 421.18 143.234C421.227 143.599 421.127 143.967 420.902 144.258C420.677 144.549 420.346 144.739 419.982 144.786Z" fill="white"/>
<path d="M464.747 142.003C465.42 143.542 465.536 145.267 465.075 146.882C464.613 148.497 463.603 149.901 462.219 150.852C460.002 152.42 458.024 152.412 458.229 150.795C458.434 149.178 461.964 147.281 460.872 145.869C459.781 144.457 458.352 145.492 457.81 144.351C456.948 142.577 461.201 133.12 464.747 142.003Z" fill="#D29E73"/>
<path d="M391.01 152.412C389.993 152.53 388.964 152.342 388.054 151.872C387.145 151.403 386.395 150.673 385.901 149.776C385.408 148.879 385.193 147.855 385.283 146.835C385.374 145.816 385.766 144.846 386.409 144.05C387.053 143.253 387.919 142.667 388.898 142.365C389.876 142.063 390.922 142.059 391.902 142.354C392.883 142.648 393.754 143.228 394.403 144.02C395.053 144.811 395.452 145.778 395.55 146.797C395.688 148.143 395.288 149.489 394.438 150.541C393.587 151.593 392.355 152.265 391.01 152.412Z" fill="#E8B79D"/>
<path d="M390.813 151.435C389.919 151.5 389.025 151.3 388.244 150.86C387.463 150.42 386.829 149.759 386.422 148.96C386.015 148.162 385.852 147.261 385.955 146.37C386.057 145.479 386.42 144.639 386.999 143.953C387.577 143.268 388.344 142.768 389.205 142.517C390.065 142.266 390.981 142.274 391.837 142.541C392.693 142.808 393.451 143.321 394.017 144.017C394.582 144.713 394.93 145.56 395.016 146.452C395.116 147.669 394.731 148.877 393.943 149.811C393.155 150.745 392.03 151.329 390.813 151.435Z" fill="black"/>
<path d="M386.61 147.306C386.658 147.995 386.91 148.655 387.334 149.2C387.758 149.746 388.336 150.152 388.992 150.368C389.649 150.583 390.355 150.598 391.02 150.409C391.685 150.221 392.278 149.839 392.725 149.312C393.171 148.784 393.45 148.136 393.526 147.449C393.602 146.762 393.471 146.068 393.151 145.456C392.83 144.844 392.334 144.342 391.726 144.013C391.118 143.684 390.426 143.545 389.738 143.612C389.29 143.648 388.853 143.772 388.453 143.978C388.053 144.183 387.697 144.466 387.407 144.809C387.116 145.152 386.896 145.55 386.759 145.978C386.623 146.407 386.572 146.858 386.61 147.306Z" fill="#111111"/>
<path d="M389.178 147.323C388.894 147.369 388.603 147.329 388.341 147.207C388.08 147.086 387.862 146.889 387.714 146.641C387.566 146.394 387.496 146.108 387.513 145.821C387.53 145.533 387.633 145.258 387.808 145.029C387.984 144.801 388.224 144.631 388.497 144.54C388.771 144.45 389.065 144.444 389.342 144.523C389.619 144.602 389.865 144.763 390.05 144.984C390.235 145.205 390.348 145.476 390.377 145.763C390.401 145.944 390.389 146.128 390.342 146.305C390.295 146.481 390.213 146.647 390.102 146.792C389.99 146.937 389.852 147.058 389.693 147.149C389.535 147.24 389.36 147.299 389.178 147.323Z" fill="white"/>
<path d="M357.014 201.712L353.304 193.502C353.103 193.043 353.083 192.524 353.249 192.05C353.415 191.576 353.754 191.183 354.198 190.949L354.921 190.58C355.132 190.465 355.364 190.395 355.604 190.375C355.843 190.354 356.084 190.383 356.311 190.46C356.539 190.537 356.748 190.661 356.925 190.823C357.103 190.985 357.245 191.181 357.343 191.401L361.053 199.61C361.252 200.069 361.27 200.586 361.104 201.058C360.938 201.53 360.601 201.921 360.158 202.155L359.428 202.533C359.217 202.646 358.985 202.715 358.747 202.735C358.509 202.755 358.269 202.725 358.042 202.648C357.816 202.571 357.608 202.448 357.431 202.287C357.254 202.126 357.112 201.93 357.014 201.712Z" fill="url(#paint1_linear)"/>
<path d="M347.484 196.549L341.737 193.035C341.388 192.822 341.138 192.481 341.039 192.084C340.941 191.687 341.003 191.268 341.212 190.917L341.557 190.334C341.659 190.162 341.794 190.013 341.954 189.894C342.115 189.774 342.297 189.688 342.491 189.64C342.685 189.592 342.887 189.583 343.084 189.613C343.282 189.644 343.471 189.713 343.642 189.817L349.388 193.331C349.736 193.545 349.985 193.887 350.083 194.282C350.181 194.678 350.121 195.097 349.914 195.449L349.569 196.032C349.468 196.204 349.333 196.355 349.173 196.474C349.012 196.594 348.83 196.681 348.635 196.729C348.441 196.777 348.239 196.786 348.041 196.755C347.844 196.724 347.654 196.654 347.484 196.549Z" fill="url(#paint2_linear)"/>
<path d="M348.83 197.944L344.783 192.575C344.536 192.249 344.427 191.839 344.479 191.434C344.531 191.029 344.741 190.66 345.062 190.407L345.595 189.997C345.753 189.873 345.934 189.781 346.127 189.728C346.32 189.674 346.523 189.66 346.721 189.686C346.92 189.712 347.112 189.778 347.285 189.879C347.458 189.98 347.61 190.115 347.73 190.276L351.785 195.645C352.028 195.971 352.135 196.38 352.081 196.783C352.027 197.186 351.818 197.553 351.498 197.804L350.964 198.223C350.806 198.346 350.626 198.437 350.432 198.49C350.239 198.542 350.037 198.556 349.839 198.53C349.64 198.504 349.449 198.439 349.275 198.338C349.102 198.238 348.951 198.103 348.83 197.944Z" fill="url(#paint3_linear)"/>
<path d="M359.601 206.826C355.406 208.288 355.759 203.592 349.413 200.431C348.764 200.029 347.443 199.536 344.84 198.313C343.124 197.295 340.735 195.489 339.225 194.742C338.757 189.554 347.738 194.2 354.002 196.441C362.047 197.566 364.017 198.083 364.551 203.009C364.748 205.152 361.3 205.496 359.601 206.826Z" fill="url(#paint4_linear)"/>
<path d="M383.253 199.668L369.19 215.528C367.327 208.83 367.023 209.396 363.822 201.367C363.822 201.367 360.324 204.7 355.998 204.848C356.622 210.48 360.546 231.036 368.936 230.297C377.63 229.526 381.25 221.341 385.035 217.753L383.253 199.668Z" fill="#236852"/>
<path d="M364.625 200.522L354.149 205.447C354.149 205.447 355.685 209.659 355.873 209.552C356.062 209.445 366.209 205.447 366.209 205.447L364.625 200.522Z" fill="#37A07F"/>
<path d="M483.453 199.74L487.163 191.531C487.362 191.072 487.38 190.555 487.214 190.083C487.048 189.611 486.71 189.22 486.268 188.986L485.538 188.608C485.327 188.495 485.095 188.426 484.857 188.406C484.619 188.386 484.379 188.416 484.152 188.493C483.926 188.57 483.717 188.693 483.541 188.854C483.364 189.015 483.222 189.211 483.124 189.429L479.414 197.639C479.213 198.099 479.193 198.617 479.359 199.091C479.525 199.565 479.864 199.958 480.308 200.192L481.031 200.569C481.243 200.683 481.475 200.751 481.715 200.771C481.954 200.79 482.195 200.76 482.422 200.682C482.649 200.604 482.858 200.48 483.035 200.318C483.213 200.156 483.355 199.96 483.453 199.74Z" fill="url(#paint5_linear)"/>
<path d="M492.984 194.617L498.731 191.112C499.078 190.898 499.327 190.556 499.425 190.16C499.524 189.764 499.463 189.346 499.256 188.994L498.911 188.411C498.811 188.238 498.676 188.086 498.516 187.966C498.356 187.845 498.173 187.758 497.978 187.71C497.784 187.662 497.581 187.653 497.384 187.685C497.186 187.716 496.996 187.788 496.826 187.894L491.079 191.407C490.731 191.619 490.481 191.959 490.382 192.354C490.284 192.749 490.346 193.167 490.554 193.517L490.899 194.1C490.999 194.274 491.134 194.425 491.294 194.545C491.454 194.666 491.637 194.753 491.832 194.801C492.026 194.849 492.229 194.858 492.427 194.826C492.625 194.795 492.814 194.724 492.984 194.617Z" fill="url(#paint6_linear)"/>
<path d="M491.631 196.013L495.686 190.644C495.931 190.319 496.039 189.91 495.985 189.506C495.931 189.102 495.721 188.735 495.399 188.485L494.873 188.066C494.715 187.942 494.534 187.851 494.341 187.799C494.147 187.746 493.945 187.733 493.746 187.759C493.547 187.786 493.355 187.852 493.182 187.955C493.009 188.057 492.859 188.192 492.739 188.354L488.667 193.714C488.421 194.041 488.314 194.451 488.368 194.857C488.421 195.262 488.632 195.63 488.954 195.882L489.488 196.292C489.645 196.419 489.827 196.513 490.021 196.567C490.215 196.622 490.419 196.637 490.619 196.611C490.819 196.585 491.012 196.518 491.186 196.416C491.36 196.313 491.511 196.176 491.631 196.013Z" fill="url(#paint7_linear)"/>
<path d="M480.868 204.904C485.055 206.365 484.702 201.669 491.048 198.509C491.704 198.098 493.018 197.614 495.628 196.391C497.336 195.373 499.733 193.567 501.244 192.82C501.712 187.623 492.722 192.27 486.467 194.519C478.43 195.644 476.459 196.202 475.918 201.086C475.712 203.262 479.16 203.574 480.868 204.904Z" fill="url(#paint8_linear)"/>
<path d="M456.707 197.688L470.819 213.549C472.683 206.842 472.986 207.416 476.188 199.387C476.188 199.387 479.685 202.72 484.012 202.868C483.388 208.5 479.464 229.056 471.074 228.317C462.38 227.538 458.76 219.361 454.975 215.773L456.707 197.688Z" fill="#236852"/>
<path d="M475.341 198.542C475.768 198.73 485.816 203.467 485.816 203.467C485.816 203.467 484.281 207.679 484.092 207.572C483.904 207.465 473.757 203.467 473.757 203.467L475.341 198.542Z" fill="#37A07F"/>
<path d="M418.857 174.89C417.264 171.606 402.192 168.93 401.708 172.87C401.207 164.316 417.626 166.089 418.857 174.89Z" fill="#320000"/>
<path d="M407.027 170.317C403.407 170.268 401.872 171.286 401.707 172.837C402.446 169.061 416.681 171.836 418.857 174.89C417.371 171.713 411.28 170.366 407.027 170.317Z" fill="#E8B79D"/>
<path d="M378.137 128.326C378.137 128.876 378.49 131.823 379.139 135.599C379.574 138.161 380.411 138.785 380.493 144.392C380.583 151.238 379.204 153.898 379.204 157.083L373.761 125.067L376.52 113.853L378.482 110.938L394.342 107.211L431.498 104.412L455.971 113.738L461.405 120.724L458.671 151.066C458.22 154.177 455.741 163.634 454.14 165.514C450.971 169.241 448.315 167.904 447.256 168.372C447.855 159.054 448.705 138.148 448.705 131.712C448.705 125.653 448.631 121.945 442.432 119.17C436.234 116.396 406.419 115.158 391.436 117.489C378.482 119.517 378.137 126.019 378.137 128.326Z" fill="#4BC999"/>
<path d="M377.572 126.684C377.657 129.478 377.958 132.261 378.475 135.008C378.91 137.364 379.608 140.55 379.944 143.907C380.609 150.516 379.123 152.404 379.123 156.681L374.797 124.582L376.25 116.652L378.467 110.987L394.327 107.26L431.483 104.461L455.955 113.787L461.39 120.773L458.673 151.066C458.221 154.177 457.031 160.917 455.955 163.183C454.933 165.031 451.108 167.495 449.187 168.372C449.794 159.054 450.718 140.037 451.424 133.642C452.786 121.5 448.118 118.078 441.469 115.312C434.327 112.332 408.078 111.299 392.964 113.787C380.42 115.847 377.572 124.352 377.572 126.684Z" fill="#37A07F"/>
<path d="M370.183 103.977C369.149 107.72 369.034 117.67 369.486 123.885C369.823 128.383 370.507 132.848 371.53 137.241C372.698 142.186 374.206 147.044 376.045 151.78C376.907 153.874 379.468 158.569 379.14 156.706C378.976 155.762 379.641 149.917 378.992 142.922C378.508 137.635 377.161 130.083 376.841 128.219C376.242 124.697 377.473 121.34 378.992 118.77C380.937 115.941 383.79 113.861 387.078 112.876C395.345 110.538 403.881 109.286 412.47 109.149C420.639 109.075 429.997 110.084 442.681 111.948C455.364 113.812 454.975 127.02 454.975 130.747C454.975 132.611 453.046 157.871 453.046 160.654C453.046 163.437 451.691 167.325 453.046 165.478C472.34 151.78 473.703 121.078 472.34 106.629C470.977 92.1806 462.693 67.0753 424.104 65.1458C387.078 65.1458 374.181 89.5281 370.183 103.977Z" fill="#236852"/>
<path d="M421.114 101.498L405.705 101.892C404.783 101.874 403.906 101.492 403.266 100.829C402.626 100.165 402.275 99.2751 402.29 98.3533V82.3532C402.275 81.4314 402.626 80.5411 403.266 79.8778C403.906 79.2144 404.783 78.8322 405.705 78.8149L421.114 78.4126C421.571 78.4212 422.022 78.5197 422.441 78.7026C422.861 78.8854 423.239 79.1491 423.557 79.4784C423.874 79.8077 424.123 80.1963 424.29 80.622C424.457 81.0476 424.538 81.502 424.529 81.9591V97.9511C424.538 98.4082 424.457 98.8625 424.29 99.2882C424.123 99.7138 423.874 100.102 423.557 100.432C423.239 100.761 422.861 101.025 422.441 101.208C422.022 101.39 421.571 101.489 421.114 101.498Z" fill="white"/>
<path d="M418.519 99.1661H417.526C417.099 99.1404 416.698 98.9559 416.401 98.6489L409.013 91.2111L416.015 90.8253L418.979 98.4518C419.045 98.575 419.307 99.1496 418.568 99.1907" fill="#236852"/>
<path d="M420.695 83.995V84.0525L415.982 90.8006L408.98 91.1864L418.298 83.174C418.573 82.9458 418.91 82.8056 419.266 82.7718H420.087C421.237 82.8293 420.859 83.683 420.711 83.9457" fill="#236852"/>
<path d="M408.955 83.018C408.652 82.6957 408.238 82.5018 407.797 82.4762H406.804C406.057 82.4762 406.319 83.1001 406.393 83.2232L409.414 90.4803H416.417L408.955 83.018Z" fill="#72E8B2"/>
<path d="M406.993 98.5008L416.368 90.4966H409.365L404.661 97.6388V97.688C404.514 97.959 404.144 98.8045 405.294 98.862H406.114C406.475 98.8357 406.817 98.6947 407.091 98.4597" fill="#4BC999"/>
<defs>
<linearGradient id="paint0_linear" x1="378.978" y1="132.327" x2="461.798" y2="158.649" gradientUnits="userSpaceOnUse">
<stop stop-color="#FFDABC"/>
<stop offset="0.27" stop-color="#FED7B8"/>
<stop offset="0.52" stop-color="#FACFAD"/>
<stop offset="0.75" stop-color="#F3C19B"/>
<stop offset="0.98" stop-color="#EAAE81"/>
<stop offset="1" stop-color="#E9AC7F"/>
</linearGradient>
<linearGradient id="paint1_linear" x1="361.488" y1="202.404" x2="357.235" y2="194.442" gradientUnits="userSpaceOnUse">
<stop stop-color="#FFDDC0"/>
<stop offset="1" stop-color="#FFD8B6"/>
</linearGradient>
<linearGradient id="paint2_linear" x1="346.624" y1="196.067" x2="348.473" y2="193.056" gradientUnits="userSpaceOnUse">
<stop stop-color="#FFDDC0"/>
<stop offset="1" stop-color="#FFD3AE"/>
</linearGradient>
<linearGradient id="paint3_linear" x1="-4199.07" y1="1186.5" x2="-4215.34" y2="1200.84" gradientUnits="userSpaceOnUse">
<stop stop-color="#FFDDC0"/>
<stop offset="1" stop-color="#FFD3AE"/>
</linearGradient>
<linearGradient id="paint4_linear" x1="343.821" y1="192.068" x2="365.961" y2="207.017" gradientUnits="userSpaceOnUse">
<stop stop-color="#FFDDC0"/>
<stop offset="1" stop-color="#FFDDC0"/>
</linearGradient>
<linearGradient id="paint5_linear" x1="3578.42" y1="212.077" x2="3620.08" y2="133.596" gradientUnits="userSpaceOnUse">
<stop stop-color="#FFDDC0"/>
<stop offset="1" stop-color="#FFD8B6"/>
</linearGradient>
<linearGradient id="paint6_linear" x1="2167.46" y1="1677.82" x2="2151.27" y2="1651.51" gradientUnits="userSpaceOnUse">
<stop stop-color="#FFDDC0"/>
<stop offset="1" stop-color="#FFD3AE"/>
</linearGradient>
<linearGradient id="paint7_linear" x1="2382.24" y1="876.006" x2="2398.56" y2="890.392" gradientUnits="userSpaceOnUse">
<stop stop-color="#FFDDC0"/>
<stop offset="1" stop-color="#FFD3AE"/>
</linearGradient>
<linearGradient id="paint8_linear" x1="369.343" y1="-276.311" x2="-53.9983" y2="215.632" gradientUnits="userSpaceOnUse">
<stop stop-color="#FFDDC0"/>
<stop offset="1" stop-color="#FFDDC0"/>
</linearGradient>
</defs>
</svg>
