<svg width="230" height="34" viewBox="0 0 230 34" fill="none" xmlns="http://www.w3.org/2000/svg">
<rect width="230" height="34" rx="10" fill="#3B5998"/>
<path d="M18.4864 28V18.1602H15V14.25H18.4864V11.1691C18.4864 7.82188 20.65 6 23.8091 6C25.3227 6 26.6227 6.10742 27 6.15469V9.65234H24.8091C23.0909 9.65234 22.7591 10.4258 22.7591 11.5559V14.25H26.6364L26.1045 18.1602H22.7591V28" fill="white"/>
<path d="M54.3604 22V17.4473H53.0479V16.415H54.3604V12.0469H57.1699C58.0358 12.0469 58.8014 12.2383 59.4668 12.6211C60.1322 13.0039 60.6449 13.5485 61.0049 14.2549C61.3695 14.9613 61.554 15.7725 61.5586 16.6885V17.3242C61.5586 18.263 61.3763 19.0856 61.0117 19.792C60.6517 20.4984 60.1344 21.0407 59.46 21.4189C58.79 21.7972 58.0085 21.9909 57.1152 22H54.3604ZM57.3955 17.4473H55.6729V20.9268H57.0469C58.0586 20.9268 58.8447 20.6146 59.4053 19.9902C59.9704 19.3659 60.2552 18.4863 60.2598 17.3516V16.7158C60.2598 15.5856 59.9932 14.7083 59.46 14.084C58.9313 13.4551 58.1794 13.1361 57.2041 13.127H55.6729V16.415H57.3955V17.4473ZM67.916 22C67.8431 21.8542 67.7839 21.5944 67.7383 21.2207C67.1504 21.8314 66.4486 22.1367 65.6328 22.1367C64.9036 22.1367 64.3044 21.9316 63.835 21.5215C63.3701 21.1068 63.1377 20.5827 63.1377 19.9492C63.1377 19.179 63.4294 18.582 64.0127 18.1582C64.6006 17.7298 65.4255 17.5156 66.4873 17.5156H67.7178V16.9346C67.7178 16.4925 67.5856 16.1416 67.3213 15.8818C67.057 15.6175 66.6673 15.4854 66.1523 15.4854C65.7012 15.4854 65.3229 15.5993 65.0176 15.8271C64.7122 16.055 64.5596 16.3307 64.5596 16.6543H63.2881C63.2881 16.2852 63.418 15.9297 63.6777 15.5879C63.9421 15.2415 64.2975 14.9681 64.7441 14.7676C65.1953 14.5671 65.6898 14.4668 66.2275 14.4668C67.0798 14.4668 67.7474 14.681 68.2305 15.1094C68.7135 15.5332 68.9642 16.1188 68.9824 16.8662V20.2705C68.9824 20.9495 69.069 21.4896 69.2422 21.8906V22H67.916ZM65.8174 21.0361C66.2139 21.0361 66.5898 20.9336 66.9453 20.7285C67.3008 20.5234 67.5583 20.2568 67.7178 19.9287V18.4111H66.7266C65.1771 18.4111 64.4023 18.8646 64.4023 19.7715C64.4023 20.168 64.5345 20.4779 64.7988 20.7012C65.0632 20.9245 65.4027 21.0361 65.8174 21.0361ZM68.415 11.7734C68.415 12.3249 68.2259 12.7692 67.8477 13.1064C67.474 13.4391 66.9818 13.6055 66.3711 13.6055C65.7604 13.6055 65.266 13.4368 64.8877 13.0996C64.5094 12.7624 64.3203 12.3203 64.3203 11.7734H65.3525C65.3525 12.0924 65.4391 12.3431 65.6123 12.5254C65.7855 12.7031 66.0384 12.792 66.3711 12.792C66.6901 12.792 66.9385 12.7031 67.1162 12.5254C67.2985 12.3477 67.3896 12.097 67.3896 11.7734H68.415ZM72.1611 14.6035L72.2021 15.5332C72.7673 14.8223 73.5055 14.4668 74.417 14.4668C75.9801 14.4668 76.7686 15.3486 76.7822 17.1123V22H75.5176V17.1055C75.513 16.5723 75.39 16.1781 75.1484 15.9229C74.9115 15.6676 74.54 15.54 74.0342 15.54C73.624 15.54 73.264 15.6494 72.9541 15.8682C72.6442 16.0869 72.4027 16.374 72.2295 16.7295V22H70.9648V14.6035H72.1611ZM78.3887 18.2402C78.3887 17.0872 78.6553 16.1712 79.1885 15.4922C79.7217 14.8086 80.4281 14.4668 81.3076 14.4668C82.21 14.4668 82.9141 14.7858 83.4199 15.4238L83.4814 14.6035H84.6367V21.8223C84.6367 22.7793 84.3519 23.5335 83.7822 24.085C83.2171 24.6364 82.4561 24.9121 81.499 24.9121C80.9658 24.9121 80.444 24.7982 79.9336 24.5703C79.4232 24.3424 79.0335 24.0303 78.7646 23.6338L79.4209 22.875C79.9632 23.5449 80.6263 23.8799 81.4102 23.8799C82.0254 23.8799 82.5039 23.7067 82.8457 23.3604C83.1921 23.014 83.3652 22.5264 83.3652 21.8975V21.2617C82.8594 21.8451 82.1689 22.1367 81.2939 22.1367C80.4281 22.1367 79.7262 21.7881 79.1885 21.0908C78.6553 20.3936 78.3887 19.4434 78.3887 18.2402ZM79.6602 18.3838C79.6602 19.2178 79.8311 19.874 80.1729 20.3525C80.5146 20.8265 80.9932 21.0635 81.6084 21.0635C82.4059 21.0635 82.9915 20.7012 83.3652 19.9766V16.5996C82.9779 15.8932 82.3968 15.54 81.6221 15.54C81.0068 15.54 80.526 15.7793 80.1797 16.2578C79.8333 16.7363 79.6602 17.445 79.6602 18.3838ZM91.2197 14.6035L91.2607 15.5332C91.8258 14.8223 92.5641 14.4668 93.4756 14.4668C95.0387 14.4668 95.8271 15.3486 95.8408 17.1123V22H94.5762V17.1055C94.5716 16.5723 94.4486 16.1781 94.207 15.9229C93.9701 15.6676 93.5986 15.54 93.0928 15.54C92.6826 15.54 92.3226 15.6494 92.0127 15.8682C91.7028 16.0869 91.4613 16.374 91.2881 16.7295V22H90.0234V14.6035H91.2197ZM99.0127 15.499C99.5732 14.8109 100.302 14.4668 101.2 14.4668C102.763 14.4668 103.552 15.3486 103.565 17.1123V22H102.301V17.1055C102.296 16.5723 102.173 16.1781 101.932 15.9229C101.695 15.6676 101.323 15.54 100.817 15.54C100.407 15.54 100.047 15.6494 99.7373 15.8682C99.4274 16.0869 99.1859 16.374 99.0127 16.7295V22H97.748V11.5H99.0127V15.499ZM110.025 22C109.952 21.8542 109.893 21.5944 109.848 21.2207C109.26 21.8314 108.558 22.1367 107.742 22.1367C107.013 22.1367 106.414 21.9316 105.944 21.5215C105.479 21.1068 105.247 20.5827 105.247 19.9492C105.247 19.179 105.539 18.582 106.122 18.1582C106.71 17.7298 107.535 17.5156 108.597 17.5156H109.827V16.9346C109.827 16.4925 109.695 16.1416 109.431 15.8818C109.166 15.6175 108.777 15.4854 108.262 15.4854C107.811 15.4854 107.432 15.5993 107.127 15.8271C106.822 16.055 106.669 16.3307 106.669 16.6543H105.397C105.397 16.2852 105.527 15.9297 105.787 15.5879C106.051 15.2415 106.407 14.9681 106.854 14.7676C107.305 14.5671 107.799 14.4668 108.337 14.4668C109.189 14.4668 109.857 14.681 110.34 15.1094C110.823 15.5332 111.074 16.1188 111.092 16.8662V20.2705C111.092 20.9495 111.178 21.4896 111.352 21.8906V22H110.025ZM107.927 21.0361C108.323 21.0361 108.699 20.9336 109.055 20.7285C109.41 20.5234 109.668 20.2568 109.827 19.9287V18.4111H108.836C107.286 18.4111 106.512 18.8646 106.512 19.7715C106.512 20.168 106.644 20.4779 106.908 20.7012C107.173 20.9245 107.512 21.0361 107.927 21.0361ZM110.545 13.373V13.4414H109.499L108.474 12.2793L107.455 13.4414H106.409V13.3594L108.091 11.5H108.856L110.545 13.373ZM107.141 23.6748C107.141 23.4697 107.202 23.2965 107.325 23.1553C107.453 23.014 107.64 22.9434 107.886 22.9434C108.132 22.9434 108.319 23.014 108.446 23.1553C108.574 23.2965 108.638 23.4697 108.638 23.6748C108.638 23.8799 108.574 24.0508 108.446 24.1875C108.319 24.3242 108.132 24.3926 107.886 24.3926C107.64 24.3926 107.453 24.3242 107.325 24.1875C107.202 24.0508 107.141 23.8799 107.141 23.6748ZM119.322 18.3838C119.322 19.5094 119.065 20.4163 118.55 21.1045C118.035 21.7926 117.338 22.1367 116.458 22.1367C115.56 22.1367 114.854 21.8519 114.339 21.2822V24.8438H113.074V14.6035H114.229L114.291 15.4238C114.806 14.7858 115.521 14.4668 116.438 14.4668C117.326 14.4668 118.028 14.8018 118.543 15.4717C119.062 16.1416 119.322 17.0736 119.322 18.2676V18.3838ZM118.058 18.2402C118.058 17.4062 117.88 16.7477 117.524 16.2646C117.169 15.7816 116.681 15.54 116.062 15.54C115.296 15.54 114.722 15.8796 114.339 16.5586V20.0928C114.717 20.7673 115.296 21.1045 116.075 21.1045C116.681 21.1045 117.162 20.8652 117.518 20.3867C117.878 19.9036 118.058 19.1882 118.058 18.2402ZM130.67 18.3838C130.67 19.514 130.41 20.4232 129.891 21.1113C129.371 21.7949 128.674 22.1367 127.799 22.1367C126.865 22.1367 126.142 21.8063 125.632 21.1455L125.57 22H124.408V11.5H125.673V15.417C126.183 14.7835 126.887 14.4668 127.785 14.4668C128.683 14.4668 129.387 14.8063 129.897 15.4854C130.412 16.1644 130.67 17.0941 130.67 18.2744V18.3838ZM129.405 18.2402C129.405 17.3789 129.239 16.7135 128.906 16.2441C128.574 15.7747 128.095 15.54 127.471 15.54C126.637 15.54 126.037 15.9274 125.673 16.7021V19.9014C126.06 20.6761 126.664 21.0635 127.484 21.0635C128.09 21.0635 128.562 20.8288 128.899 20.3594C129.237 19.89 129.405 19.1836 129.405 18.2402ZM136.836 22C136.763 21.8542 136.704 21.5944 136.658 21.2207C136.07 21.8314 135.368 22.1367 134.553 22.1367C133.824 22.1367 133.224 21.9316 132.755 21.5215C132.29 21.1068 132.058 20.5827 132.058 19.9492C132.058 19.179 132.349 18.582 132.933 18.1582C133.521 17.7298 134.345 17.5156 135.407 17.5156H136.638V16.9346C136.638 16.4925 136.506 16.1416 136.241 15.8818C135.977 15.6175 135.587 15.4854 135.072 15.4854C134.621 15.4854 134.243 15.5993 133.938 15.8271C133.632 16.055 133.479 16.3307 133.479 16.6543H132.208C132.208 16.2852 132.338 15.9297 132.598 15.5879C132.862 15.2415 133.217 14.9681 133.664 14.7676C134.115 14.5671 134.61 14.4668 135.147 14.4668C136 14.4668 136.667 14.681 137.15 15.1094C137.633 15.5332 137.884 16.1188 137.902 16.8662V20.2705C137.902 20.9495 137.989 21.4896 138.162 21.8906V22H136.836ZM134.737 21.0361C135.134 21.0361 135.51 20.9336 135.865 20.7285C136.221 20.5234 136.478 20.2568 136.638 19.9287V18.4111H135.646C134.097 18.4111 133.322 18.8646 133.322 19.7715C133.322 20.168 133.454 20.4779 133.719 20.7012C133.983 20.9245 134.323 21.0361 134.737 21.0361ZM137.321 12.1016C137.321 12.5345 137.13 12.8809 136.747 13.1406C136.364 13.4004 135.865 13.5303 135.25 13.5303C134.63 13.5303 134.129 13.4004 133.746 13.1406C133.363 12.8809 133.172 12.5345 133.172 12.1016H134.211C134.211 12.3522 134.3 12.5482 134.478 12.6895C134.66 12.8262 134.917 12.8945 135.25 12.8945C135.574 12.8945 135.824 12.8239 136.002 12.6826C136.184 12.5368 136.275 12.3431 136.275 12.1016H137.321ZM133.91 10.6113H134.963L135.729 11.9648H135.038L133.91 10.6113ZM141.081 14.6035L141.122 15.5332C141.687 14.8223 142.425 14.4668 143.337 14.4668C144.9 14.4668 145.688 15.3486 145.702 17.1123V22H144.438V17.1055C144.433 16.5723 144.31 16.1781 144.068 15.9229C143.831 15.6676 143.46 15.54 142.954 15.54C142.544 15.54 142.184 15.6494 141.874 15.8682C141.564 16.0869 141.323 16.374 141.149 16.7295V22H139.885V14.6035H141.081ZM147.309 18.2402C147.309 17.0872 147.575 16.1712 148.108 15.4922C148.642 14.8086 149.348 14.4668 150.228 14.4668C151.13 14.4668 151.834 14.7858 152.34 15.4238L152.401 14.6035H153.557V21.8223C153.557 22.7793 153.272 23.5335 152.702 24.085C152.137 24.6364 151.376 24.9121 150.419 24.9121C149.886 24.9121 149.364 24.7982 148.854 24.5703C148.343 24.3424 147.953 24.0303 147.685 23.6338L148.341 22.875C148.883 23.5449 149.546 23.8799 150.33 23.8799C150.945 23.8799 151.424 23.7067 151.766 23.3604C152.112 23.014 152.285 22.5264 152.285 21.8975V21.2617C151.779 21.8451 151.089 22.1367 150.214 22.1367C149.348 22.1367 148.646 21.7881 148.108 21.0908C147.575 20.3936 147.309 19.4434 147.309 18.2402ZM148.58 18.3838C148.58 19.2178 148.751 19.874 149.093 20.3525C149.435 20.8265 149.913 21.0635 150.528 21.0635C151.326 21.0635 151.911 20.7012 152.285 19.9766V16.5996C151.898 15.8932 151.317 15.54 150.542 15.54C149.927 15.54 149.446 15.7793 149.1 16.2578C148.753 16.7363 148.58 17.445 148.58 18.3838ZM164.631 17.6045H160.454V22H159.142V12.0469H165.308V13.127H160.454V16.5312H164.631V17.6045ZM171.016 22C170.943 21.8542 170.883 21.5944 170.838 21.2207C170.25 21.8314 169.548 22.1367 168.732 22.1367C168.003 22.1367 167.404 21.9316 166.935 21.5215C166.47 21.1068 166.237 20.5827 166.237 19.9492C166.237 19.179 166.529 18.582 167.112 18.1582C167.7 17.7298 168.525 17.5156 169.587 17.5156H170.817V16.9346C170.817 16.4925 170.685 16.1416 170.421 15.8818C170.157 15.6175 169.767 15.4854 169.252 15.4854C168.801 15.4854 168.423 15.5993 168.117 15.8271C167.812 16.055 167.659 16.3307 167.659 16.6543H166.388C166.388 16.2852 166.518 15.9297 166.777 15.5879C167.042 15.2415 167.397 14.9681 167.844 14.7676C168.295 14.5671 168.789 14.4668 169.327 14.4668C170.179 14.4668 170.847 14.681 171.33 15.1094C171.813 15.5332 172.064 16.1188 172.082 16.8662V20.2705C172.082 20.9495 172.169 21.4896 172.342 21.8906V22H171.016ZM168.917 21.0361C169.313 21.0361 169.689 20.9336 170.045 20.7285C170.4 20.5234 170.658 20.2568 170.817 19.9287V18.4111H169.826C168.277 18.4111 167.502 18.8646 167.502 19.7715C167.502 20.168 167.634 20.4779 167.898 20.7012C168.163 20.9245 168.502 21.0361 168.917 21.0361ZM177.031 21.1045C177.482 21.1045 177.877 20.9678 178.214 20.6943C178.551 20.4209 178.738 20.0791 178.774 19.6689H179.971C179.948 20.0928 179.802 20.4961 179.533 20.8789C179.264 21.2617 178.904 21.5671 178.453 21.7949C178.007 22.0228 177.533 22.1367 177.031 22.1367C176.024 22.1367 175.222 21.8018 174.625 21.1318C174.033 20.4574 173.736 19.5368 173.736 18.3701V18.1582C173.736 17.4382 173.868 16.7979 174.133 16.2373C174.397 15.6768 174.775 15.2415 175.268 14.9316C175.764 14.6217 176.35 14.4668 177.024 14.4668C177.854 14.4668 178.542 14.7152 179.089 15.2119C179.64 15.7087 179.934 16.3535 179.971 17.1465H178.774C178.738 16.668 178.556 16.276 178.228 15.9707C177.904 15.6608 177.503 15.5059 177.024 15.5059C176.382 15.5059 175.883 15.7383 175.527 16.2031C175.176 16.6634 175.001 17.3311 175.001 18.2061V18.4453C175.001 19.2975 175.176 19.9538 175.527 20.4141C175.878 20.8743 176.38 21.1045 177.031 21.1045ZM184.462 22.1367C183.459 22.1367 182.644 21.8086 182.015 21.1523C181.386 20.4915 181.071 19.6097 181.071 18.5068V18.2744C181.071 17.5407 181.21 16.8867 181.488 16.3125C181.771 15.7337 182.163 15.2826 182.664 14.959C183.17 14.6309 183.717 14.4668 184.305 14.4668C185.266 14.4668 186.014 14.7835 186.547 15.417C187.08 16.0505 187.347 16.9574 187.347 18.1377V18.6641H182.336C182.354 19.3932 182.566 19.9834 182.972 20.4346C183.382 20.8812 183.901 21.1045 184.53 21.1045C184.977 21.1045 185.355 21.0133 185.665 20.8311C185.975 20.6488 186.246 20.4072 186.479 20.1064L187.251 20.708C186.631 21.6605 185.701 22.1367 184.462 22.1367ZM184.305 15.5059C183.794 15.5059 183.366 15.6927 183.02 16.0664C182.673 16.4355 182.459 16.9551 182.377 17.625H186.082V17.5293C186.046 16.8867 185.872 16.39 185.562 16.0391C185.253 15.6836 184.833 15.5059 184.305 15.5059ZM195.078 18.3838C195.078 19.514 194.818 20.4232 194.299 21.1113C193.779 21.7949 193.082 22.1367 192.207 22.1367C191.273 22.1367 190.55 21.8063 190.04 21.1455L189.979 22H188.816V11.5H190.081V15.417C190.591 14.7835 191.296 14.4668 192.193 14.4668C193.091 14.4668 193.795 14.8063 194.306 15.4854C194.821 16.1644 195.078 17.0941 195.078 18.2744V18.3838ZM193.813 18.2402C193.813 17.3789 193.647 16.7135 193.314 16.2441C192.982 15.7747 192.503 15.54 191.879 15.54C191.045 15.54 190.446 15.9274 190.081 16.7021V19.9014C190.468 20.6761 191.072 21.0635 191.893 21.0635C192.499 21.0635 192.97 20.8288 193.308 20.3594C193.645 19.89 193.813 19.1836 193.813 18.2402ZM196.343 18.2334C196.343 17.5088 196.484 16.8571 196.767 16.2783C197.054 15.6995 197.45 15.2529 197.956 14.9385C198.466 14.624 199.048 14.4668 199.699 14.4668C200.706 14.4668 201.52 14.8154 202.14 15.5127C202.764 16.21 203.076 17.1374 203.076 18.2949V18.3838C203.076 19.1038 202.937 19.751 202.659 20.3252C202.386 20.8949 201.992 21.3392 201.477 21.6582C200.966 21.9772 200.378 22.1367 199.713 22.1367C198.71 22.1367 197.897 21.7881 197.272 21.0908C196.653 20.3936 196.343 19.4707 196.343 18.3223V18.2334ZM197.614 18.3838C197.614 19.2041 197.803 19.8626 198.182 20.3594C198.564 20.8561 199.075 21.1045 199.713 21.1045C200.355 21.1045 200.866 20.8538 201.244 20.3525C201.622 19.8467 201.812 19.1403 201.812 18.2334C201.812 17.4222 201.618 16.766 201.23 16.2646C200.848 15.7588 200.337 15.5059 199.699 15.5059C199.075 15.5059 198.571 15.7542 198.188 16.251C197.806 16.7477 197.614 17.4587 197.614 18.3838ZM204.327 18.2334C204.327 17.5088 204.468 16.8571 204.751 16.2783C205.038 15.6995 205.435 15.2529 205.94 14.9385C206.451 14.624 207.032 14.4668 207.684 14.4668C208.691 14.4668 209.504 14.8154 210.124 15.5127C210.748 16.21 211.061 17.1374 211.061 18.2949V18.3838C211.061 19.1038 210.922 19.751 210.644 20.3252C210.37 20.8949 209.976 21.3392 209.461 21.6582C208.951 21.9772 208.363 22.1367 207.697 22.1367C206.695 22.1367 205.881 21.7881 205.257 21.0908C204.637 20.3936 204.327 19.4707 204.327 18.3223V18.2334ZM205.599 18.3838C205.599 19.2041 205.788 19.8626 206.166 20.3594C206.549 20.8561 207.059 21.1045 207.697 21.1045C208.34 21.1045 208.85 20.8538 209.229 20.3525C209.607 19.8467 209.796 19.1403 209.796 18.2334C209.796 17.4222 209.602 16.766 209.215 16.2646C208.832 15.7588 208.322 15.5059 207.684 15.5059C207.059 15.5059 206.556 15.7542 206.173 16.251C205.79 16.7477 205.599 17.4587 205.599 18.3838ZM214.711 18.5752L213.918 19.4023V22H212.653V11.5H213.918V17.8506L214.595 17.0371L216.898 14.6035H218.437L215.559 17.6934L218.771 22H217.288L214.711 18.5752Z" fill="white"/>
<line x1="40.5" y1="2.18557e-08" x2="40.5" y2="34" stroke="#2D4577"/>
<line x1="41.5" y1="2.18557e-08" x2="41.5" y2="34" stroke="#6D8CCD"/>
</svg>
