<svg width="230" height="34" viewBox="0 0 230 34" fill="none" xmlns="http://www.w3.org/2000/svg">
<rect width="230" height="34" rx="10" fill="#DF4A32"/>
<path d="M59.3604 22V17.4473H58.0479V16.415H59.3604V12.0469H62.1699C63.0358 12.0469 63.8014 12.2383 64.4668 12.6211C65.1322 13.0039 65.6449 13.5485 66.0049 14.2549C66.3695 14.9613 66.554 15.7725 66.5586 16.6885V17.3242C66.5586 18.263 66.3763 19.0856 66.0117 19.792C65.6517 20.4984 65.1344 21.0407 64.46 21.4189C63.79 21.7972 63.0085 21.9909 62.1152 22H59.3604ZM62.3955 17.4473H60.6729V20.9268H62.0469C63.0586 20.9268 63.8447 20.6146 64.4053 19.9902C64.9704 19.3659 65.2552 18.4863 65.2598 17.3516V16.7158C65.2598 15.5856 64.9932 14.7083 64.46 14.084C63.9313 13.4551 63.1794 13.1361 62.2041 13.127H60.6729V16.415H62.3955V17.4473ZM72.916 22C72.8431 21.8542 72.7839 21.5944 72.7383 21.2207C72.1504 21.8314 71.4486 22.1367 70.6328 22.1367C69.9036 22.1367 69.3044 21.9316 68.835 21.5215C68.3701 21.1068 68.1377 20.5827 68.1377 19.9492C68.1377 19.179 68.4294 18.582 69.0127 18.1582C69.6006 17.7298 70.4255 17.5156 71.4873 17.5156H72.7178V16.9346C72.7178 16.4925 72.5856 16.1416 72.3213 15.8818C72.057 15.6175 71.6673 15.4854 71.1523 15.4854C70.7012 15.4854 70.3229 15.5993 70.0176 15.8271C69.7122 16.055 69.5596 16.3307 69.5596 16.6543H68.2881C68.2881 16.2852 68.418 15.9297 68.6777 15.5879C68.9421 15.2415 69.2975 14.9681 69.7441 14.7676C70.1953 14.5671 70.6898 14.4668 71.2275 14.4668C72.0798 14.4668 72.7474 14.681 73.2305 15.1094C73.7135 15.5332 73.9642 16.1188 73.9824 16.8662V20.2705C73.9824 20.9495 74.069 21.4896 74.2422 21.8906V22H72.916ZM70.8174 21.0361C71.2139 21.0361 71.5898 20.9336 71.9453 20.7285C72.3008 20.5234 72.5583 20.2568 72.7178 19.9287V18.4111H71.7266C70.1771 18.4111 69.4023 18.8646 69.4023 19.7715C69.4023 20.168 69.5345 20.4779 69.7988 20.7012C70.0632 20.9245 70.4027 21.0361 70.8174 21.0361ZM73.415 11.7734C73.415 12.3249 73.2259 12.7692 72.8477 13.1064C72.474 13.4391 71.9818 13.6055 71.3711 13.6055C70.7604 13.6055 70.266 13.4368 69.8877 13.0996C69.5094 12.7624 69.3203 12.3203 69.3203 11.7734H70.3525C70.3525 12.0924 70.4391 12.3431 70.6123 12.5254C70.7855 12.7031 71.0384 12.792 71.3711 12.792C71.6901 12.792 71.9385 12.7031 72.1162 12.5254C72.2985 12.3477 72.3896 12.097 72.3896 11.7734H73.415ZM77.1611 14.6035L77.2021 15.5332C77.7673 14.8223 78.5055 14.4668 79.417 14.4668C80.9801 14.4668 81.7686 15.3486 81.7822 17.1123V22H80.5176V17.1055C80.513 16.5723 80.39 16.1781 80.1484 15.9229C79.9115 15.6676 79.54 15.54 79.0342 15.54C78.624 15.54 78.264 15.6494 77.9541 15.8682C77.6442 16.0869 77.4027 16.374 77.2295 16.7295V22H75.9648V14.6035H77.1611ZM83.3887 18.2402C83.3887 17.0872 83.6553 16.1712 84.1885 15.4922C84.7217 14.8086 85.4281 14.4668 86.3076 14.4668C87.21 14.4668 87.9141 14.7858 88.4199 15.4238L88.4814 14.6035H89.6367V21.8223C89.6367 22.7793 89.3519 23.5335 88.7822 24.085C88.2171 24.6364 87.4561 24.9121 86.499 24.9121C85.9658 24.9121 85.444 24.7982 84.9336 24.5703C84.4232 24.3424 84.0335 24.0303 83.7646 23.6338L84.4209 22.875C84.9632 23.5449 85.6263 23.8799 86.4102 23.8799C87.0254 23.8799 87.5039 23.7067 87.8457 23.3604C88.1921 23.014 88.3652 22.5264 88.3652 21.8975V21.2617C87.8594 21.8451 87.1689 22.1367 86.2939 22.1367C85.4281 22.1367 84.7262 21.7881 84.1885 21.0908C83.6553 20.3936 83.3887 19.4434 83.3887 18.2402ZM84.6602 18.3838C84.6602 19.2178 84.8311 19.874 85.1729 20.3525C85.5146 20.8265 85.9932 21.0635 86.6084 21.0635C87.4059 21.0635 87.9915 20.7012 88.3652 19.9766V16.5996C87.9779 15.8932 87.3968 15.54 86.6221 15.54C86.0068 15.54 85.526 15.7793 85.1797 16.2578C84.8333 16.7363 84.6602 17.445 84.6602 18.3838ZM96.2197 14.6035L96.2607 15.5332C96.8258 14.8223 97.5641 14.4668 98.4756 14.4668C100.039 14.4668 100.827 15.3486 100.841 17.1123V22H99.5762V17.1055C99.5716 16.5723 99.4486 16.1781 99.207 15.9229C98.9701 15.6676 98.5986 15.54 98.0928 15.54C97.6826 15.54 97.3226 15.6494 97.0127 15.8682C96.7028 16.0869 96.4613 16.374 96.2881 16.7295V22H95.0234V14.6035H96.2197ZM104.013 15.499C104.573 14.8109 105.302 14.4668 106.2 14.4668C107.763 14.4668 108.552 15.3486 108.565 17.1123V22H107.301V17.1055C107.296 16.5723 107.173 16.1781 106.932 15.9229C106.695 15.6676 106.323 15.54 105.817 15.54C105.407 15.54 105.047 15.6494 104.737 15.8682C104.427 16.0869 104.186 16.374 104.013 16.7295V22H102.748V11.5H104.013V15.499ZM115.025 22C114.952 21.8542 114.893 21.5944 114.848 21.2207C114.26 21.8314 113.558 22.1367 112.742 22.1367C112.013 22.1367 111.414 21.9316 110.944 21.5215C110.479 21.1068 110.247 20.5827 110.247 19.9492C110.247 19.179 110.539 18.582 111.122 18.1582C111.71 17.7298 112.535 17.5156 113.597 17.5156H114.827V16.9346C114.827 16.4925 114.695 16.1416 114.431 15.8818C114.166 15.6175 113.777 15.4854 113.262 15.4854C112.811 15.4854 112.432 15.5993 112.127 15.8271C111.822 16.055 111.669 16.3307 111.669 16.6543H110.397C110.397 16.2852 110.527 15.9297 110.787 15.5879C111.051 15.2415 111.407 14.9681 111.854 14.7676C112.305 14.5671 112.799 14.4668 113.337 14.4668C114.189 14.4668 114.857 14.681 115.34 15.1094C115.823 15.5332 116.074 16.1188 116.092 16.8662V20.2705C116.092 20.9495 116.178 21.4896 116.352 21.8906V22H115.025ZM112.927 21.0361C113.323 21.0361 113.699 20.9336 114.055 20.7285C114.41 20.5234 114.668 20.2568 114.827 19.9287V18.4111H113.836C112.286 18.4111 111.512 18.8646 111.512 19.7715C111.512 20.168 111.644 20.4779 111.908 20.7012C112.173 20.9245 112.512 21.0361 112.927 21.0361ZM115.545 13.373V13.4414H114.499L113.474 12.2793L112.455 13.4414H111.409V13.3594L113.091 11.5H113.856L115.545 13.373ZM112.141 23.6748C112.141 23.4697 112.202 23.2965 112.325 23.1553C112.453 23.014 112.64 22.9434 112.886 22.9434C113.132 22.9434 113.319 23.014 113.446 23.1553C113.574 23.2965 113.638 23.4697 113.638 23.6748C113.638 23.8799 113.574 24.0508 113.446 24.1875C113.319 24.3242 113.132 24.3926 112.886 24.3926C112.64 24.3926 112.453 24.3242 112.325 24.1875C112.202 24.0508 112.141 23.8799 112.141 23.6748ZM124.322 18.3838C124.322 19.5094 124.065 20.4163 123.55 21.1045C123.035 21.7926 122.338 22.1367 121.458 22.1367C120.56 22.1367 119.854 21.8519 119.339 21.2822V24.8438H118.074V14.6035H119.229L119.291 15.4238C119.806 14.7858 120.521 14.4668 121.438 14.4668C122.326 14.4668 123.028 14.8018 123.543 15.4717C124.062 16.1416 124.322 17.0736 124.322 18.2676V18.3838ZM123.058 18.2402C123.058 17.4062 122.88 16.7477 122.524 16.2646C122.169 15.7816 121.681 15.54 121.062 15.54C120.296 15.54 119.722 15.8796 119.339 16.5586V20.0928C119.717 20.7673 120.296 21.1045 121.075 21.1045C121.681 21.1045 122.162 20.8652 122.518 20.3867C122.878 19.9036 123.058 19.1882 123.058 18.2402ZM135.67 18.3838C135.67 19.514 135.41 20.4232 134.891 21.1113C134.371 21.7949 133.674 22.1367 132.799 22.1367C131.865 22.1367 131.142 21.8063 130.632 21.1455L130.57 22H129.408V11.5H130.673V15.417C131.183 14.7835 131.887 14.4668 132.785 14.4668C133.683 14.4668 134.387 14.8063 134.897 15.4854C135.412 16.1644 135.67 17.0941 135.67 18.2744V18.3838ZM134.405 18.2402C134.405 17.3789 134.239 16.7135 133.906 16.2441C133.574 15.7747 133.095 15.54 132.471 15.54C131.637 15.54 131.037 15.9274 130.673 16.7021V19.9014C131.06 20.6761 131.664 21.0635 132.484 21.0635C133.09 21.0635 133.562 20.8288 133.899 20.3594C134.237 19.89 134.405 19.1836 134.405 18.2402ZM141.836 22C141.763 21.8542 141.704 21.5944 141.658 21.2207C141.07 21.8314 140.368 22.1367 139.553 22.1367C138.824 22.1367 138.224 21.9316 137.755 21.5215C137.29 21.1068 137.058 20.5827 137.058 19.9492C137.058 19.179 137.349 18.582 137.933 18.1582C138.521 17.7298 139.345 17.5156 140.407 17.5156H141.638V16.9346C141.638 16.4925 141.506 16.1416 141.241 15.8818C140.977 15.6175 140.587 15.4854 140.072 15.4854C139.621 15.4854 139.243 15.5993 138.938 15.8271C138.632 16.055 138.479 16.3307 138.479 16.6543H137.208C137.208 16.2852 137.338 15.9297 137.598 15.5879C137.862 15.2415 138.217 14.9681 138.664 14.7676C139.115 14.5671 139.61 14.4668 140.147 14.4668C141 14.4668 141.667 14.681 142.15 15.1094C142.633 15.5332 142.884 16.1188 142.902 16.8662V20.2705C142.902 20.9495 142.989 21.4896 143.162 21.8906V22H141.836ZM139.737 21.0361C140.134 21.0361 140.51 20.9336 140.865 20.7285C141.221 20.5234 141.478 20.2568 141.638 19.9287V18.4111H140.646C139.097 18.4111 138.322 18.8646 138.322 19.7715C138.322 20.168 138.454 20.4779 138.719 20.7012C138.983 20.9245 139.323 21.0361 139.737 21.0361ZM142.321 12.1016C142.321 12.5345 142.13 12.8809 141.747 13.1406C141.364 13.4004 140.865 13.5303 140.25 13.5303C139.63 13.5303 139.129 13.4004 138.746 13.1406C138.363 12.8809 138.172 12.5345 138.172 12.1016H139.211C139.211 12.3522 139.3 12.5482 139.478 12.6895C139.66 12.8262 139.917 12.8945 140.25 12.8945C140.574 12.8945 140.824 12.8239 141.002 12.6826C141.184 12.5368 141.275 12.3431 141.275 12.1016H142.321ZM138.91 10.6113H139.963L140.729 11.9648H140.038L138.91 10.6113ZM146.081 14.6035L146.122 15.5332C146.687 14.8223 147.425 14.4668 148.337 14.4668C149.9 14.4668 150.688 15.3486 150.702 17.1123V22H149.438V17.1055C149.433 16.5723 149.31 16.1781 149.068 15.9229C148.831 15.6676 148.46 15.54 147.954 15.54C147.544 15.54 147.184 15.6494 146.874 15.8682C146.564 16.0869 146.323 16.374 146.149 16.7295V22H144.885V14.6035H146.081ZM152.309 18.2402C152.309 17.0872 152.575 16.1712 153.108 15.4922C153.642 14.8086 154.348 14.4668 155.228 14.4668C156.13 14.4668 156.834 14.7858 157.34 15.4238L157.401 14.6035H158.557V21.8223C158.557 22.7793 158.272 23.5335 157.702 24.085C157.137 24.6364 156.376 24.9121 155.419 24.9121C154.886 24.9121 154.364 24.7982 153.854 24.5703C153.343 24.3424 152.953 24.0303 152.685 23.6338L153.341 22.875C153.883 23.5449 154.546 23.8799 155.33 23.8799C155.945 23.8799 156.424 23.7067 156.766 23.3604C157.112 23.014 157.285 22.5264 157.285 21.8975V21.2617C156.779 21.8451 156.089 22.1367 155.214 22.1367C154.348 22.1367 153.646 21.7881 153.108 21.0908C152.575 20.3936 152.309 19.4434 152.309 18.2402ZM153.58 18.3838C153.58 19.2178 153.751 19.874 154.093 20.3525C154.435 20.8265 154.913 21.0635 155.528 21.0635C156.326 21.0635 156.911 20.7012 157.285 19.9766V16.5996C156.898 15.8932 156.317 15.54 155.542 15.54C154.927 15.54 154.446 15.7793 154.1 16.2578C153.753 16.7363 153.58 17.445 153.58 18.3838ZM171.49 20.6943C171.153 21.1774 170.681 21.5397 170.075 21.7812C169.474 22.0182 168.772 22.1367 167.97 22.1367C167.159 22.1367 166.438 21.9476 165.81 21.5693C165.181 21.1865 164.693 20.6442 164.347 19.9424C164.005 19.2406 163.829 18.4271 163.82 17.502V16.6338C163.82 15.1344 164.169 13.9723 164.866 13.1475C165.568 12.3226 166.552 11.9102 167.819 11.9102C168.858 11.9102 169.695 12.1768 170.328 12.71C170.962 13.2386 171.349 13.9906 171.49 14.9658H170.178C169.932 13.6488 169.148 12.9902 167.826 12.9902C166.947 12.9902 166.279 13.3001 165.823 13.9199C165.372 14.5352 165.144 15.4284 165.14 16.5996V17.4131C165.14 18.5296 165.395 19.4183 165.905 20.0791C166.416 20.7354 167.106 21.0635 167.977 21.0635C168.469 21.0635 168.899 21.0088 169.269 20.8994C169.638 20.79 169.943 20.6055 170.185 20.3457V18.1104H167.881V17.0439H171.49V20.6943ZM173.151 18.2334C173.151 17.5088 173.293 16.8571 173.575 16.2783C173.862 15.6995 174.259 15.2529 174.765 14.9385C175.275 14.624 175.856 14.4668 176.508 14.4668C177.515 14.4668 178.328 14.8154 178.948 15.5127C179.573 16.21 179.885 17.1374 179.885 18.2949V18.3838C179.885 19.1038 179.746 19.751 179.468 20.3252C179.194 20.8949 178.8 21.3392 178.285 21.6582C177.775 21.9772 177.187 22.1367 176.521 22.1367C175.519 22.1367 174.705 21.7881 174.081 21.0908C173.461 20.3936 173.151 19.4707 173.151 18.3223V18.2334ZM174.423 18.3838C174.423 19.2041 174.612 19.8626 174.99 20.3594C175.373 20.8561 175.883 21.1045 176.521 21.1045C177.164 21.1045 177.674 20.8538 178.053 20.3525C178.431 19.8467 178.62 19.1403 178.62 18.2334C178.62 17.4222 178.426 16.766 178.039 16.2646C177.656 15.7588 177.146 15.5059 176.508 15.5059C175.883 15.5059 175.38 15.7542 174.997 16.251C174.614 16.7477 174.423 17.4587 174.423 18.3838ZM181.136 18.2334C181.136 17.5088 181.277 16.8571 181.56 16.2783C181.847 15.6995 182.243 15.2529 182.749 14.9385C183.259 14.624 183.84 14.4668 184.492 14.4668C185.499 14.4668 186.313 14.8154 186.933 15.5127C187.557 16.21 187.869 17.1374 187.869 18.2949V18.3838C187.869 19.1038 187.73 19.751 187.452 20.3252C187.179 20.8949 186.785 21.3392 186.27 21.6582C185.759 21.9772 185.171 22.1367 184.506 22.1367C183.503 22.1367 182.69 21.7881 182.065 21.0908C181.446 20.3936 181.136 19.4707 181.136 18.3223V18.2334ZM182.407 18.3838C182.407 19.2041 182.596 19.8626 182.975 20.3594C183.357 20.8561 183.868 21.1045 184.506 21.1045C185.148 21.1045 185.659 20.8538 186.037 20.3525C186.415 19.8467 186.604 19.1403 186.604 18.2334C186.604 17.4222 186.411 16.766 186.023 16.2646C185.641 15.7588 185.13 15.5059 184.492 15.5059C183.868 15.5059 183.364 15.7542 182.981 16.251C182.599 16.7477 182.407 17.4587 182.407 18.3838ZM189.154 18.2402C189.154 17.0872 189.421 16.1712 189.954 15.4922C190.487 14.8086 191.194 14.4668 192.073 14.4668C192.976 14.4668 193.68 14.7858 194.186 15.4238L194.247 14.6035H195.402V21.8223C195.402 22.7793 195.118 23.5335 194.548 24.085C193.983 24.6364 193.222 24.9121 192.265 24.9121C191.731 24.9121 191.21 24.7982 190.699 24.5703C190.189 24.3424 189.799 24.0303 189.53 23.6338L190.187 22.875C190.729 23.5449 191.392 23.8799 192.176 23.8799C192.791 23.8799 193.27 23.7067 193.611 23.3604C193.958 23.014 194.131 22.5264 194.131 21.8975V21.2617C193.625 21.8451 192.935 22.1367 192.06 22.1367C191.194 22.1367 190.492 21.7881 189.954 21.0908C189.421 20.3936 189.154 19.4434 189.154 18.2402ZM190.426 18.3838C190.426 19.2178 190.597 19.874 190.938 20.3525C191.28 20.8265 191.759 21.0635 192.374 21.0635C193.172 21.0635 193.757 20.7012 194.131 19.9766V16.5996C193.743 15.8932 193.162 15.54 192.388 15.54C191.772 15.54 191.292 15.7793 190.945 16.2578C190.599 16.7363 190.426 17.445 190.426 18.3838ZM198.69 22H197.426V11.5H198.69V22ZM203.79 22.1367C202.787 22.1367 201.972 21.8086 201.343 21.1523C200.714 20.4915 200.399 19.6097 200.399 18.5068V18.2744C200.399 17.5407 200.538 16.8867 200.816 16.3125C201.099 15.7337 201.491 15.2826 201.992 14.959C202.498 14.6309 203.045 14.4668 203.633 14.4668C204.594 14.4668 205.342 14.7835 205.875 15.417C206.408 16.0505 206.675 16.9574 206.675 18.1377V18.6641H201.664C201.682 19.3932 201.894 19.9834 202.3 20.4346C202.71 20.8812 203.229 21.1045 203.858 21.1045C204.305 21.1045 204.683 21.0133 204.993 20.8311C205.303 20.6488 205.574 20.4072 205.807 20.1064L206.579 20.708C205.959 21.6605 205.03 22.1367 203.79 22.1367ZM203.633 15.5059C203.122 15.5059 202.694 15.6927 202.348 16.0664C202.001 16.4355 201.787 16.9551 201.705 17.625H205.41V17.5293C205.374 16.8867 205.201 16.39 204.891 16.0391C204.581 15.6836 204.161 15.5059 203.633 15.5059Z" fill="white"/>
<line x1="42.5" y1="2.18557e-08" x2="42.5" y2="34" stroke="#B73A26"/>
<line x1="43.5" y1="2.18557e-08" x2="43.5" y2="34" stroke="#FF755E"/>
<path d="M32 18.2339C32 23.9395 28.0287 28 22.1639 28C16.541 28 12 23.5323 12 18C12 12.4677 16.541 8 22.1639 8C24.9016 8 27.2049 8.9879 28.9795 10.6169L26.2131 13.2339C22.5943 9.79839 15.8648 12.379 15.8648 18C15.8648 21.4879 18.6967 24.3145 22.1639 24.3145C26.1885 24.3145 27.6967 21.4758 27.9344 20.004H22.1639V16.5645H31.8402C31.9344 17.0766 32 17.5685 32 18.2339Z" fill="white"/>
</svg>
