<svg width="487" height="307" viewBox="0 0 487 307" fill="none" xmlns="http://www.w3.org/2000/svg">
<path d="M270.322 219.598C270.082 241.323 271.192 263.042 273.646 284.628L274.381 285.784H485.845C486.233 285.125 486.479 284.393 486.568 283.633C486.657 282.874 486.588 282.105 486.364 281.374C486.14 280.643 485.767 279.967 485.268 279.388C484.769 278.809 484.156 278.341 483.466 278.012C474.264 273.647 463.979 272.1 453.902 273.565C462.209 269.335 469.729 263.71 476.136 256.936C478.341 254.608 480.58 251.685 478.253 248.184C477.634 247.289 476.816 246.552 475.862 246.029C474.909 245.506 473.846 245.213 472.76 245.173C459.108 244.33 445.405 245.087 431.93 247.431C434.099 238.311 440.117 230.539 443.196 221.664C447.027 210.619 444.333 194.969 429.201 195.144C427.299 195.206 425.412 195.506 423.585 196.037C409.8 199.873 397.945 208.726 390.347 220.859C392.254 201.026 393.951 180.055 385.431 162.043C382.772 156.476 378.923 151.085 373.29 148.529C365.366 144.906 355.797 147.724 348.484 152.398C336.746 159.82 328.226 171.653 322.401 184.186C316.576 196.72 313.252 210.443 309.928 223.94C305.992 214.942 301.688 205.472 292.434 201.026C290.183 199.876 287.689 199.285 285.161 199.304C282.634 199.322 280.148 199.949 277.914 201.131C270.899 205.052 270.409 212.702 270.322 219.598Z" fill="#4BC999"/>
<path d="M216.266 219.704C216.506 241.422 215.396 263.135 212.942 284.716L212.208 285.889H0.760222C0.373064 285.23 0.127039 284.498 0.0377639 283.739C-0.0515109 282.979 0.0179147 282.21 0.241634 281.479C0.465353 280.748 0.838478 280.072 1.33732 279.493C1.83617 278.914 2.44984 278.446 3.13938 278.117C12.3387 273.744 22.6265 272.197 32.7039 273.671C24.4151 269.42 16.9084 263.791 10.5043 257.024C8.31754 254.713 6.06084 251.772 8.40501 248.271C9.03065 247.384 9.85086 246.651 10.8029 246.129C11.755 245.607 12.8137 245.31 13.8981 245.26C27.5503 244.414 41.2547 245.178 54.7286 247.536C52.5418 238.399 46.5415 230.644 43.4626 221.769C39.6314 210.724 42.308 195.057 57.4576 195.249C59.3294 195.311 61.1862 195.605 62.9856 196.125C76.776 199.971 88.6313 208.837 96.2238 220.981C94.4744 201.149 92.7251 180.178 101.21 162.166C103.869 156.582 107.717 151.208 113.35 148.634C121.275 145.011 130.757 147.829 138.139 152.503C149.877 159.942 158.414 171.758 164.222 184.309C170.03 196.86 173.389 210.566 176.695 224.045C180.649 215.047 184.935 205.595 194.189 201.149C196.432 199.982 198.922 199.374 201.449 199.374C203.976 199.374 206.466 199.982 208.709 201.149C215.706 205.14 216.179 212.807 216.266 219.704Z" fill="#4BC999"/>
<path d="M173.546 228.876L143.457 241.637C147.901 232.115 152.676 222.779 157.784 213.63C158.344 212.632 156.77 211.879 156.21 212.859C146.355 230.572 137.745 248.95 130.442 267.859L121.695 178.708C121.676 178.476 121.566 178.26 121.389 178.109C121.212 177.958 120.982 177.884 120.75 177.903C120.518 177.921 120.303 178.031 120.152 178.208C120.001 178.386 119.927 178.616 119.945 178.848L130.564 287.149C130.58 287.382 130.688 287.598 130.864 287.75C131.039 287.903 131.268 287.98 131.5 287.963C131.732 287.947 131.948 287.839 132.101 287.664C132.253 287.488 132.33 287.259 132.314 287.027L130.809 271.675C134.413 262.164 138.337 252.829 142.582 243.668C142.69 243.753 142.819 243.806 142.955 243.821C143.091 243.837 143.228 243.814 143.352 243.755L174.124 230.732C175.173 230.084 174.579 228.439 173.546 228.876Z" fill="white"/>
<path d="M94.7193 283.648C91.6404 278.198 88.5498 272.76 85.4476 267.334C85.4523 267.211 85.4239 267.09 85.3655 266.982C85.307 266.874 85.2205 266.784 85.1152 266.721L79.9895 257.724C81.1558 246.486 82.3512 235.248 83.5758 224.01C83.6807 222.889 81.9663 222.539 81.8264 223.66C80.6601 234.162 79.5464 244.665 78.4851 255.168L58.5247 219.844C57.9649 218.863 56.5304 219.844 57.0902 220.841C64.0877 233.235 71.126 245.628 78.2052 258.021V258.529C78.1903 258.657 78.2028 258.787 78.2418 258.91C78.2808 259.033 78.3455 259.146 78.4315 259.242C78.5175 259.338 78.6229 259.414 78.7407 259.466C78.8585 259.519 78.986 259.545 79.1149 259.544L82.9635 266.301L57.7374 263.168C56.6178 263.028 56.2855 264.743 57.4051 264.918L83.9781 268.192L93.2848 284.576C93.8446 285.556 95.2791 284.541 94.7193 283.648Z" fill="white"/>
<path d="M202.096 251.807L187.314 265.899L201.921 232.815C202.376 231.782 200.802 231.064 200.347 232.045L192.265 250.39C191.862 246.644 191.477 242.915 191.093 239.169C190.97 238.049 189.221 238.171 189.343 239.292L190.655 251.877C190.665 252.049 190.73 252.214 190.84 252.346C190.951 252.478 191.1 252.572 191.268 252.613L184.008 269.067L183.728 269.33C183.616 269.424 183.539 269.552 183.507 269.694C183.476 269.836 183.492 269.985 183.553 270.117L176.853 285.276C176.398 286.309 177.972 287.027 178.427 286.047L185.425 270.065L203.373 252.963C204.23 252.14 202.936 251.037 202.096 251.807Z" fill="white"/>
<path d="M374.987 190.874C365.96 205.017 356.922 219.161 347.872 233.305L357.791 168.538C357.948 167.417 356.234 167.085 356.041 168.205C351.89 195.384 347.738 222.575 343.586 249.777C336.588 239.157 329.591 228.544 322.593 217.936C321.981 217.008 320.529 217.936 321.159 218.934L343.184 252.193L343.288 252.315L338.25 285.329C338.075 286.449 339.79 286.782 340 285.679C342.46 269.505 344.933 253.336 347.417 237.174C347.602 237.099 347.76 236.971 347.872 236.806L376.667 191.731C377.174 190.734 375.6 189.963 374.987 190.874Z" fill="white"/>
<path d="M427.031 208.763L408.785 242.6C407.701 233.264 406.61 223.928 405.514 214.592C405.392 213.472 403.642 213.594 403.765 214.715C404.931 224.669 406.097 234.623 407.263 244.578C407.291 244.763 407.376 244.935 407.508 245.068L392.429 273.076L392.114 273.303C391.957 273.401 391.839 273.551 391.781 273.727C391.724 273.903 391.73 274.094 391.799 274.266L385.624 285.696C385.099 286.694 386.673 287.447 387.198 286.467L393.776 274.213L423.27 253.575C423.463 253.443 423.595 253.239 423.638 253.01C423.68 252.78 423.63 252.543 423.498 252.35C423.365 252.157 423.162 252.025 422.932 251.982C422.703 251.94 422.466 251.99 422.273 252.122L395.63 270.782C406.616 250.372 417.614 229.95 428.623 209.516C429.131 208.536 427.556 207.765 427.031 208.763Z" fill="white"/>
<path d="M455.949 260.507L437.72 268.752L450.141 254.923C450.893 254.083 449.563 252.945 448.811 253.785L440.554 262.993L442.181 251.282C442.338 250.162 440.624 249.829 440.432 250.95C439.837 255.244 439.254 259.533 438.682 263.816C438.655 263.978 438.677 264.145 438.746 264.295C438.814 264.445 438.926 264.57 439.067 264.656C437.283 266.651 435.492 268.641 433.696 270.625C433.629 270.687 433.57 270.757 433.522 270.835L421.276 284.419C420.524 285.259 421.853 286.397 422.605 285.556C426.676 281.04 430.758 276.512 434.851 271.973L456.596 262.153C457.558 261.698 456.981 260.052 455.949 260.507Z" fill="white"/>
<path d="M98.4105 179.18L97.7283 191.749C97.7283 192.887 99.4776 192.729 99.4776 191.626L100.16 179.04C100.212 177.92 98.4805 178.06 98.4105 179.18Z" fill="#37A07F"/>
<path d="M99.8101 198.873C99.6876 197.77 97.9382 197.893 98.0607 199.013L99.95 215.065C100.09 216.168 101.822 216.045 101.699 214.925L99.8101 198.873Z" fill="#37A07F"/>
<path d="M104.551 190.051C104.551 188.931 102.802 189.071 102.802 190.191C102.889 195.232 102.976 200.256 103.081 205.297C103.081 206.418 104.831 206.295 104.831 205.157L104.551 190.051Z" fill="#37A07F"/>
<path d="M48.5707 202.777C46.836 205.733 45.9213 209.099 45.9213 212.527C45.9213 215.955 46.836 219.321 48.5707 222.277C49.113 223.257 50.565 222.277 50.0052 221.279C48.453 218.572 47.6523 215.499 47.6862 212.378C47.72 209.257 48.5871 206.202 50.1976 203.529C50.74 202.567 49.1305 201.796 48.5707 202.777Z" fill="#37A07F"/>
<path d="M55.1834 235.773L51.6846 227.581C51.2473 226.548 49.5854 227.143 50.0227 228.176L53.5215 236.368C53.9763 237.401 55.6382 236.806 55.1834 235.773Z" fill="#37A07F"/>
<path d="M55.7432 226.986C54.7169 224.15 53.6731 221.314 52.6118 218.478C52.5284 218.266 52.3656 218.095 52.158 218.001C51.9505 217.908 51.7146 217.899 51.5005 217.976C51.2864 218.054 51.1109 218.211 51.0114 218.416C50.9118 218.621 50.896 218.857 50.9674 219.073L54.0988 227.633C54.1846 227.851 54.3536 228.027 54.5685 228.12C54.7834 228.214 55.0266 228.218 55.2446 228.132C55.4627 228.046 55.6377 227.877 55.7312 227.662C55.8247 227.447 55.8291 227.204 55.7432 226.986Z" fill="#37A07F"/>
<path d="M83.3135 212.019L73.307 205.017C72.3973 204.387 71.2427 205.7 72.1699 206.347L82.1764 213.349C83.086 213.98 84.2406 212.649 83.3135 212.019Z" fill="#37A07F"/>
<path d="M79.5173 215.817L72.7297 210.566C71.8375 209.883 70.7004 211.196 71.5926 211.879L78.3802 217.13C79.2723 217.831 80.4794 216.5 79.5173 215.817Z" fill="#37A07F"/>
<path d="M40.6985 249.654C35.5891 248.864 30.4047 248.676 25.2515 249.094C22.54 249.321 16.872 249.234 15.3675 252.28C12.4985 258.091 26.1437 264.078 29.7649 265.793C29.9737 265.895 30.2145 265.91 30.4343 265.835C30.6541 265.759 30.8349 265.6 30.937 265.391C31.0391 265.182 31.054 264.941 30.9786 264.721C30.9031 264.501 30.7434 264.32 30.5346 264.218C27.5383 262.827 24.67 261.175 21.9627 259.281C20.8817 258.56 19.8475 257.771 18.8663 256.918C17.1169 256.096 16.907 254.975 18.1665 253.592C18.359 251.719 19.4436 250.967 21.4029 251.317C27.6867 250.345 34.0823 250.345 40.3661 251.317C41.4683 251.544 41.8181 249.811 40.6985 249.654Z" fill="#37A07F"/>
<path d="M39.0192 271.78L33.0538 269.26C32.0216 268.822 31.3044 270.397 32.2841 270.835L38.2669 273.356C39.2991 273.793 40.0688 272.218 39.0192 271.78Z" fill="#37A07F"/>
<path d="M39.9288 265.863L31.7592 261.767C31.5504 261.665 31.3096 261.65 31.0898 261.726C30.87 261.801 30.6892 261.961 30.5871 262.17C30.485 262.379 30.4701 262.62 30.5455 262.84C30.621 263.06 30.7807 263.241 30.9894 263.343L39.159 267.439C39.2624 267.489 39.3747 267.519 39.4896 267.526C39.6044 267.533 39.7196 267.518 39.8284 267.48C39.9373 267.443 40.0377 267.385 40.1239 267.308C40.2102 267.232 40.2806 267.14 40.3311 267.036C40.3817 266.933 40.4114 266.82 40.4185 266.705C40.4256 266.591 40.4101 266.475 40.3727 266.366C40.3353 266.258 40.2769 266.157 40.2007 266.071C40.1246 265.984 40.0321 265.914 39.9288 265.863Z" fill="#37A07F"/>
<path d="M56.8103 279.185L17.1694 281.163C16.9374 281.182 16.7223 281.292 16.5714 281.469C16.4205 281.646 16.3461 281.876 16.3647 282.108C16.3832 282.34 16.4932 282.556 16.6703 282.707C16.8475 282.858 17.0774 282.932 17.3093 282.914L56.9328 280.935C57.1648 280.919 57.3808 280.811 57.5333 280.636C57.6859 280.46 57.7625 280.231 57.7462 279.999C57.73 279.767 57.6223 279.551 57.4467 279.398C57.2712 279.245 57.0423 279.169 56.8103 279.185Z" fill="#37A07F"/>
<path d="M75.6861 278.607L62.4608 279.483C62.2288 279.501 62.0137 279.611 61.8628 279.788C61.7119 279.966 61.6376 280.196 61.6561 280.428C61.6747 280.66 61.7846 280.875 61.9618 281.026C62.1389 281.177 62.3688 281.252 62.6008 281.233L75.8086 280.358C76.0406 280.342 76.2566 280.234 76.4092 280.058C76.5617 279.883 76.6383 279.653 76.622 279.421C76.6058 279.189 76.4981 278.973 76.3226 278.82C76.147 278.668 75.9181 278.591 75.6861 278.607Z" fill="#37A07F"/>
<path d="M67.2017 274.984L55.5683 275.421C54.4312 275.421 54.5711 277.172 55.6907 277.172L67.3241 276.717C68.4612 276.647 68.3213 274.896 67.2017 274.984Z" fill="#37A07F"/>
<path d="M117.636 200.151C117.479 199.03 115.747 199.17 115.887 200.291C116.622 205.945 117.374 211.616 118.109 217.27C118.249 218.391 119.998 218.268 119.858 217.148C119.106 211.476 118.371 205.822 117.636 200.151Z" fill="#37A07F"/>
<path d="M121.38 223.993C121.24 222.872 119.508 223.012 119.631 224.133C121.275 237.891 122.925 251.644 124.581 265.391C124.704 266.512 126.453 266.389 126.331 265.269L121.38 223.993Z" fill="#37A07F"/>
<path d="M115.275 213.297C115.047 212.194 113.315 212.317 113.525 213.419C114.627 219.091 115.747 224.763 116.849 230.434C117.076 231.537 118.826 231.414 118.598 230.312L115.275 213.297Z" fill="#37A07F"/>
<path d="M93.5123 268.577L85.2902 255.186C84.7129 254.223 83.2609 255.186 83.8557 256.184L92.0778 269.575C92.7251 270.538 94.1071 269.54 93.5123 268.577Z" fill="#37A07F"/>
<path d="M98.673 278.537C97.6408 276.419 96.6087 274.319 95.5941 272.201C95.1042 271.203 93.4423 271.78 93.9496 272.796L97.0111 279.115C97.5009 280.148 99.1628 279.553 98.673 278.537Z" fill="#37A07F"/>
<path d="M101.909 272.026L96.8186 260.402C96.3813 259.37 94.7194 259.965 95.1742 260.998L100.265 272.603C100.72 273.636 102.364 273.146 101.909 272.026Z" fill="#37A07F"/>
<path d="M117.776 150C111.362 153.013 106.21 158.187 103.221 164.616C103.171 164.72 103.141 164.832 103.134 164.947C103.127 165.062 103.142 165.177 103.18 165.286C103.217 165.395 103.276 165.495 103.352 165.582C103.428 165.668 103.52 165.738 103.624 165.789C103.727 165.84 103.839 165.869 103.954 165.876C104.069 165.884 104.184 165.868 104.293 165.831C104.402 165.793 104.502 165.735 104.589 165.659C104.675 165.582 104.745 165.49 104.796 165.386C107.568 159.384 112.352 154.541 118.318 151.698C119.368 151.155 118.791 149.51 117.776 150Z" fill="#37A07F"/>
<path d="M117.391 155.724L108.434 164.476C107.63 165.246 108.959 166.384 109.764 165.614L118.721 156.862C119.526 156.074 118.196 154.936 117.391 155.724Z" fill="#37A07F"/>
<path d="M406.721 205.998L395.77 217.989C395 218.829 396.33 219.967 397.082 219.144L408.051 207.136C408.82 206.313 407.491 205.158 406.721 205.998Z" fill="#37A07F"/>
<path d="M424.092 197.42L414.313 202.409C413.334 202.899 413.911 204.562 414.908 204.055L424.687 199.066C425.684 198.576 425.107 196.913 424.092 197.42Z" fill="#37A07F"/>
<path d="M416.675 204.877L407.841 209.848C406.861 210.391 407.841 211.827 408.838 211.284L417.672 206.313C418.652 205.7 417.655 204.264 416.675 204.877Z" fill="#37A07F"/>
<path d="M438.332 213.507C437.458 219.496 435.483 225.271 432.507 230.539C431.965 231.537 433.539 232.29 434.081 231.31C437.14 225.896 439.163 219.96 440.047 213.805C440.204 212.719 438.49 212.387 438.332 213.507Z" fill="#37A07F"/>
<path d="M427.766 237.944L424.267 244.525C423.742 245.523 425.317 246.276 425.842 245.296L429.34 238.714C429.883 237.716 428.308 236.946 427.766 237.944Z" fill="#37A07F"/>
<path d="M429.97 224.132L424.862 236.386C424.442 237.436 425.999 238.136 426.437 237.156C428.128 233.083 429.83 228.999 431.545 224.903C431.965 223.782 430.355 223.012 429.97 224.132Z" fill="#37A07F"/>
<path d="M459.692 247.064L447.849 248.639C446.729 248.797 446.852 250.547 447.971 250.39L459.92 248.762C460.934 248.639 460.812 246.889 459.692 247.064Z" fill="#37A07F"/>
<path d="M473.145 247.974L466.147 247.431C465.045 247.326 464.695 249.059 465.815 249.182L472.813 249.724C473.915 249.777 474.265 248.061 473.145 247.974Z" fill="#37A07F"/>
<path d="M466.935 251.807L458.45 251.912C457.313 251.912 457.453 253.663 458.573 253.663L467.057 253.575C468.194 253.54 468.054 251.79 466.935 251.807Z" fill="#37A07F"/>
<path d="M451.208 279.36L434.536 279.92C433.417 279.92 433.539 281.67 434.659 281.67L451.33 281.128C452.467 281.058 452.327 279.325 451.208 279.36Z" fill="#37A07F"/>
<path d="M475.104 279.08L458.135 279.167C456.998 279.167 457.138 280.918 458.258 280.918L475.244 280.83C476.364 280.813 476.224 279.062 475.104 279.08Z" fill="#37A07F"/>
<path d="M460.095 276.016L448.776 276.647C448.544 276.665 448.329 276.775 448.178 276.953C448.027 277.13 447.953 277.36 447.971 277.592C447.99 277.824 448.1 278.039 448.277 278.19C448.454 278.341 448.684 278.416 448.916 278.397L460.235 277.767C460.467 277.748 460.682 277.638 460.833 277.461C460.983 277.284 461.058 277.054 461.039 276.822C461.021 276.59 460.911 276.374 460.734 276.223C460.556 276.072 460.327 275.998 460.095 276.016Z" fill="#37A07F"/>
<path d="M406.406 269.995L396.067 275.579C395.088 276.104 396.067 277.557 397.064 277.014L407.403 271.448C408.4 270.905 407.403 269.47 406.406 269.995Z" fill="#37A07F"/>
<path d="M422.553 258.582L410.395 266.721C410.218 266.859 410.1 267.059 410.066 267.281C410.032 267.502 410.084 267.729 410.212 267.913C410.34 268.097 410.534 268.225 410.753 268.27C410.973 268.316 411.201 268.275 411.392 268.157L423.533 260.035C423.628 259.97 423.71 259.888 423.773 259.792C423.837 259.696 423.88 259.588 423.902 259.475C423.924 259.362 423.924 259.246 423.901 259.133C423.878 259.021 423.833 258.913 423.769 258.818C423.704 258.723 423.622 258.641 423.526 258.577C423.43 258.514 423.323 258.47 423.21 258.448C423.097 258.426 422.981 258.427 422.868 258.449C422.755 258.472 422.648 258.517 422.553 258.582Z" fill="#37A07F"/>
<path d="M417.235 268.857L404.832 275.492C403.835 276.034 404.832 277.47 405.829 276.944L418.232 270.31C419.229 269.768 418.232 268.332 417.235 268.857Z" fill="#37A07F"/>
<path d="M161.388 192.624L153.201 176.257C152.694 175.259 151.049 175.837 151.557 176.852L159.744 193.201C160.234 194.147 161.896 193.569 161.388 192.624Z" fill="#37A07F"/>
<path d="M168.298 210.811L164.205 198.856C164.121 198.644 163.958 198.472 163.751 198.379C163.543 198.285 163.307 198.276 163.093 198.353C162.879 198.431 162.704 198.589 162.604 198.794C162.505 198.999 162.489 199.234 162.56 199.451L166.654 211.406C166.737 211.618 166.9 211.789 167.108 211.883C167.315 211.977 167.551 211.986 167.765 211.909C167.979 211.831 168.155 211.673 168.254 211.468C168.354 211.263 168.37 211.028 168.298 210.811Z" fill="#37A07F"/>
<path d="M161.318 202.286L157.819 193.447C157.4 192.414 155.755 192.991 156.175 194.042L159.674 202.882C160.094 203.914 161.738 203.337 161.318 202.286Z" fill="#37A07F"/>
<path d="M198.283 203.127L194.032 205.647C193.069 206.225 194.032 207.66 195.029 207.083L199.28 204.579C200.242 204.019 199.245 202.566 198.283 203.127Z" fill="#37A07F"/>
<path d="M190.253 209.113C186.715 212.917 183.766 217.23 181.506 221.909C181.404 222.118 181.389 222.359 181.465 222.579C181.54 222.799 181.7 222.98 181.908 223.082C182.117 223.184 182.358 223.199 182.578 223.124C182.798 223.048 182.978 222.888 183.081 222.679C185.276 218.134 188.142 213.944 191.583 210.251C192.44 209.428 191.023 208.378 190.253 209.113Z" fill="#37A07F"/>
<path d="M198.807 207.153C195.552 208.596 192.677 210.777 190.41 213.525C189.693 214.383 191.023 215.538 191.74 214.663C193.801 212.136 196.425 210.127 199.402 208.799C200.417 208.378 199.84 206.628 198.807 207.153Z" fill="#37A07F"/>
<path d="M210.353 227.633C210.143 232.254 209.951 236.876 209.741 241.497C209.741 242.617 211.49 242.477 211.49 241.357C211.7 236.736 211.893 232.132 212.103 227.511C212.138 226.443 210.406 226.583 210.353 227.633Z" fill="#37A07F"/>
<path d="M209.531 249.094L209.374 258.056C209.374 259.194 211.123 259.054 211.123 257.934L211.28 248.954C211.298 247.834 209.549 247.974 209.531 249.094Z" fill="#37A07F"/>
<path d="M207.974 242.04C207.974 240.92 206.225 241.042 206.225 242.162V249.882C206.225 251.002 207.974 250.862 207.974 249.742V242.04Z" fill="#37A07F"/>
<path d="M186.859 252.665L179.197 267.894C179.095 268.103 179.08 268.344 179.155 268.564C179.231 268.784 179.39 268.965 179.599 269.067C179.808 269.169 180.049 269.184 180.269 269.109C180.488 269.033 180.669 268.873 180.771 268.664L188.434 253.435C188.536 253.226 188.551 252.985 188.475 252.765C188.4 252.546 188.24 252.365 188.031 252.262C187.822 252.16 187.582 252.145 187.362 252.221C187.142 252.296 186.961 252.456 186.859 252.665Z" fill="#37A07F"/>
<path d="M176.695 273.146L172.812 282.003C172.357 283.036 173.931 283.753 174.386 282.773L178.27 273.916C178.777 272.901 177.203 272.13 176.695 273.146Z" fill="#37A07F"/>
<path d="M177.902 262.1C175.716 266.669 173.546 271.22 171.377 275.789C171.296 275.995 171.296 276.224 171.378 276.429C171.459 276.635 171.615 276.803 171.814 276.898C172.014 276.994 172.242 277.01 172.453 276.944C172.664 276.877 172.842 276.734 172.952 276.541L179.459 262.87C179.531 262.668 179.525 262.447 179.445 262.249C179.364 262.051 179.214 261.889 179.022 261.794C178.83 261.699 178.611 261.678 178.404 261.734C178.198 261.791 178.019 261.921 177.902 262.1Z" fill="#37A07F"/>
<path d="M156.91 239.887L146.641 244.123C145.609 244.56 146.186 246.206 147.236 245.768L157.452 241.637C158.537 241.182 157.942 239.537 156.91 239.887Z" fill="#37A07F"/>
<path d="M171.447 233.743L160.654 238.136C159.604 238.556 160.199 240.219 161.248 239.782L171.972 235.405C173.004 234.95 172.427 233.305 171.447 233.743Z" fill="#37A07F"/>
<path d="M165.132 240.342C161.9 241.237 158.751 242.409 155.72 243.843C154.723 244.316 155.3 245.978 156.315 245.488C159.349 244.062 162.498 242.891 165.727 241.987C166.811 241.637 166.199 240.027 165.132 240.342Z" fill="#37A07F"/>
<path d="M141.568 231.134C139.818 235.073 137.946 239.011 136.145 242.932C135.672 243.965 137.247 244.683 137.719 243.702C139.468 239.764 141.34 235.843 143.142 231.904C143.244 231.695 143.259 231.454 143.184 231.234C143.108 231.015 142.949 230.834 142.74 230.731C142.531 230.629 142.29 230.614 142.07 230.69C141.851 230.765 141.67 230.925 141.568 231.134Z" fill="#37A07F"/>
<path d="M147.673 216.08C146.413 218.671 145.16 221.268 143.912 223.87C143.812 224.077 143.798 224.314 143.874 224.531C143.949 224.748 144.108 224.925 144.314 225.025C144.521 225.125 144.758 225.139 144.975 225.063C145.191 224.988 145.369 224.829 145.469 224.623L149.247 216.833C149.328 216.627 149.328 216.398 149.247 216.192C149.166 215.986 149.01 215.819 148.81 215.723C148.611 215.628 148.383 215.612 148.172 215.678C147.96 215.744 147.782 215.888 147.673 216.08Z" fill="#37A07F"/>
<path d="M140.833 221.034L138.471 226.688C138.051 227.738 139.626 228.439 140.046 227.458L142.407 221.804C142.845 220.754 141.27 219.984 140.833 221.034Z" fill="#37A07F"/>
<path d="M336.046 254.993C335.329 259.089 334.629 263.168 333.912 267.247C333.868 267.479 333.918 267.719 334.051 267.914C334.183 268.11 334.388 268.244 334.62 268.288C334.852 268.332 335.092 268.282 335.288 268.149C335.483 268.016 335.617 267.811 335.661 267.579L337.778 255.326C337.822 255.096 337.773 254.858 337.642 254.665C337.511 254.471 337.308 254.337 337.078 254.293C336.849 254.249 336.611 254.298 336.417 254.429C336.224 254.561 336.09 254.764 336.046 254.993Z" fill="#37A07F"/>
<path d="M331.865 275.772L330.256 282.388C329.993 283.491 331.708 283.824 332.005 282.738C332.547 280.533 333.09 278.327 333.615 276.122C333.859 275.019 332.128 274.686 331.865 275.772Z" fill="#37A07F"/>
<path d="M328.279 265.374L327.334 271.99C327.177 273.093 328.891 273.443 329.084 272.323L330.028 265.724C330.151 264.603 328.436 264.271 328.279 265.374Z" fill="#37A07F"/>
<path d="M337.848 164.389C326.088 178.935 318.22 196.235 314.984 214.662C314.94 214.895 314.989 215.135 315.122 215.33C315.255 215.525 315.46 215.66 315.692 215.704C315.924 215.748 316.164 215.698 316.359 215.565C316.555 215.432 316.689 215.227 316.733 214.995C319.907 196.863 327.644 179.839 339.213 165.527C339.895 164.616 338.565 163.514 337.848 164.389Z" fill="#37A07F"/>
<path d="M352.036 153.711L342.886 160.555C341.977 161.221 342.974 162.674 343.883 161.991L353.068 155.146C353.925 154.481 352.928 153.028 352.036 153.711Z" fill="#37A07F"/>
<path d="M347.12 161.605L340.979 167.505C340.175 168.275 341.504 169.413 342.309 168.642L348.432 162.743C349.254 161.956 347.924 160.818 347.12 161.605Z" fill="#37A07F"/>
<path d="M348.799 183.487L345.755 201.184C345.711 201.416 345.761 201.656 345.894 201.851C346.027 202.047 346.232 202.181 346.464 202.225C346.696 202.269 346.936 202.22 347.131 202.087C347.326 201.954 347.461 201.749 347.505 201.516L350.514 183.872C350.565 183.644 350.523 183.406 350.399 183.209C350.274 183.012 350.076 182.872 349.849 182.821C349.621 182.77 349.383 182.812 349.186 182.936C348.989 183.061 348.85 183.259 348.799 183.487Z" fill="#37A07F"/>
<path d="M343.464 209.218C342.449 214.96 341.452 220.719 340.455 226.46C340.411 226.693 340.46 226.933 340.593 227.128C340.726 227.323 340.931 227.458 341.163 227.502C341.395 227.546 341.635 227.496 341.83 227.363C342.025 227.23 342.16 227.025 342.204 226.793C343.201 221.051 344.216 215.31 345.213 209.551C345.257 209.319 345.207 209.079 345.074 208.883C344.941 208.688 344.736 208.553 344.504 208.509C344.272 208.465 344.032 208.515 343.837 208.648C343.642 208.781 343.508 208.986 343.464 209.218Z" fill="#37A07F"/>
<path d="M341.977 197.175C341.347 202.059 340.734 206.925 340.105 211.809C339.965 212.912 341.679 213.262 341.854 212.141C342.484 207.258 343.114 202.391 343.726 197.507C343.848 196.387 342.116 196.125 341.977 197.175Z" fill="#37A07F"/>
<path d="M363.774 216.325L356.671 227.633C356.077 228.579 357.651 229.384 358.246 228.386L365.348 217.078C365.943 216.15 364.369 215.38 363.774 216.325Z" fill="#37A07F"/>
<path d="M376.457 196.912L366.835 210.916C366.205 211.844 367.517 212.982 368.165 212.054L377.786 198.05C378.434 197.14 377.104 195.984 376.457 196.912Z" fill="#37A07F"/>
<path d="M370.876 211.879L364.981 221.542C364.386 222.505 365.961 223.292 366.555 222.312L372.451 212.632C372.958 211.617 371.384 210.864 370.876 211.879Z" fill="#37A07F"/>
<path d="M385.361 170.148C385.029 169.062 383.384 169.658 383.717 170.743C385.42 176.243 386.298 181.965 386.323 187.722C386.323 188.86 388.073 188.72 388.073 187.6C388.041 181.68 387.127 175.798 385.361 170.148Z" fill="#37A07F"/>
<path d="M386.393 195.53L384.504 210.864C384.364 211.984 386.078 212.317 386.253 211.214L388.143 195.862C388.248 194.76 386.621 194.375 386.393 195.53Z" fill="#37A07F"/>
<path d="M384.224 184.991C384.224 183.871 382.475 184.011 382.475 185.132L382.65 198.12C382.65 199.24 384.399 199.1 384.399 197.98L384.224 184.991Z" fill="#37A07F"/>
<path d="M347.067 270.852C346.041 274.353 345.003 277.889 343.953 281.46C343.638 282.546 345.37 282.878 345.703 281.793L348.799 271.185C349.097 270.1 347.382 269.785 347.067 270.852Z" fill="#37A07F"/>
<path d="M351.878 248.639L348.572 261.627C348.292 262.713 350.006 263.045 350.321 261.96L353.627 248.972C353.872 247.869 352.158 247.536 351.878 248.639Z" fill="#37A07F"/>
<path d="M393.128 254.853L381.215 279.36C381.113 279.569 381.098 279.81 381.174 280.03C381.249 280.25 381.409 280.431 381.617 280.533C381.826 280.635 382.067 280.65 382.287 280.574C382.507 280.499 382.687 280.339 382.79 280.13L394.703 255.624C394.805 255.415 394.82 255.174 394.744 254.954C394.669 254.734 394.509 254.553 394.3 254.451C394.092 254.349 393.851 254.334 393.631 254.409C393.411 254.485 393.23 254.644 393.128 254.853Z" fill="#37A07F"/>
<path d="M400.773 241.094C399.741 242.845 398.726 244.595 397.694 246.346C397.134 247.326 398.709 248.096 399.269 247.116C400.301 245.366 401.315 243.615 402.348 241.865C402.907 240.884 401.333 240.132 400.773 241.094Z" fill="#37A07F"/>
<path d="M392.936 245.558L388.265 255.01C388.163 255.219 388.148 255.46 388.224 255.68C388.299 255.9 388.459 256.081 388.667 256.183C388.876 256.285 389.117 256.3 389.337 256.225C389.557 256.149 389.737 255.99 389.84 255.781L394.51 246.311C394.591 246.105 394.591 245.876 394.51 245.67C394.429 245.464 394.273 245.296 394.073 245.201C393.874 245.105 393.645 245.089 393.434 245.155C393.223 245.222 393.045 245.365 392.936 245.558Z" fill="#37A07F"/>
<path d="M1.91479 285.802H487C487 285.802 453.202 306.405 239.323 306.405C25.4439 306.405 1.91479 285.802 1.91479 285.802Z" fill="#DFEAE9"/>
<path d="M321.684 129.852C316.068 129.957 311.8 123.376 313.042 117.827C314.284 112.278 319.759 108.164 325.392 106.851C331.025 105.538 336.973 106.343 342.729 107.184C338.793 99.8492 334.752 92.1647 334.402 83.8324C334.052 75.5002 338.565 66.3277 346.647 64.2096C353.103 62.4592 360.065 65.7325 364.596 70.6514C369.127 75.5702 371.733 81.9244 374.235 88.1561C374.932 82.2537 376.324 76.4544 378.381 70.8789C380.486 65.2599 384.516 60.5706 389.752 57.6454C400.038 52.394 413.509 58.3981 419.037 68.4983C424.565 78.5985 423.358 91.2544 418.599 101.757C420.505 97.3941 423.904 93.8542 428.184 91.7736C432.464 89.693 437.346 89.2081 441.952 90.4061C446.557 91.6041 450.585 94.4064 453.311 98.3095C456.037 102.213 457.282 106.96 456.823 111.7C455.896 121.082 447.482 129.87 438.07 130.395H321.701L321.684 129.852Z" fill="#DAF7F3"/>
<path d="M88.9989 69.6356C86.2988 69.9129 83.5707 69.6268 80.9867 68.7954C79.6353 68.3436 78.4538 67.4898 77.6004 66.348C76.747 65.2063 76.2622 63.8311 76.2109 62.4062C76.3859 59.2203 79.3773 56.9622 82.2463 55.5793C88.999 52.3545 96.598 51.3496 103.956 52.7086C99.6337 49.4682 96.1685 45.2196 93.8622 40.3327C92.7366 37.8858 92.2233 35.2014 92.3665 32.5115C92.5098 29.8216 93.3053 27.207 94.6844 24.8936C96.0473 23.0355 97.7829 21.4825 99.7801 20.3341C101.777 19.1856 103.992 18.4671 106.283 18.2243C110.87 17.775 115.5 18.2633 119.893 19.6597C129.347 22.3209 138.161 26.8768 145.801 33.0508C143.383 29.0919 142.274 24.4706 142.632 19.8444C142.99 15.2183 144.797 10.823 147.796 7.28386C150.889 3.79841 155.034 1.41756 159.602 0.502438C164.17 -0.412682 168.912 0.187854 173.108 2.21296C177.304 4.23807 180.725 7.57725 182.853 11.724C184.981 15.8708 185.7 20.5989 184.9 25.1912C193.227 16.0012 201.939 6.53115 213.432 1.82239C217.141 0.299477 221.357 -0.698293 225.153 0.597055C227.133 1.42416 228.913 2.66605 230.374 4.23915C231.834 5.81225 232.941 7.68009 233.62 9.71701C235.566 15.0809 235.682 20.9385 233.951 26.3756C232.22 31.8127 228.739 36.5235 224.051 39.7726C231.048 37.2344 238.606 35.8165 245.796 37.497C252.986 39.1774 259.686 44.4989 261.54 51.6408C263.394 58.7827 258.864 67.395 251.604 68.8129V70.5634L89.1563 69.6181L88.9989 69.6356Z" fill="#DAF7F3"/>
<path d="M423.812 102.965C414.628 100.111 405.217 107.148 399.321 114.885C401.109 108.874 401.935 102.618 401.77 96.3479C401.665 91.3765 401.053 81.7665 394.055 81.7314C387.775 81.7314 384.416 90.0637 382.807 94.9125C381.451 99.0433 380.749 103.361 380.725 107.708C379.329 104.603 377.504 101.71 375.302 99.1136C371.506 94.6499 365.191 89.6261 359.033 92.5143C354.45 94.6849 352.7 100.321 353.365 105.065C353.708 107.291 354.538 109.413 355.797 111.279C351.581 109.704 347.242 110.019 343.971 114.675C339.72 120.767 347.19 128.224 353.33 124.425C354.292 123.83 353.33 122.395 352.333 122.99C351.483 123.489 350.509 123.739 349.523 123.71C348.538 123.681 347.58 123.376 346.761 122.828C345.941 122.279 345.292 121.511 344.888 120.611C344.485 119.711 344.342 118.716 344.478 117.739C345.125 114.115 349.341 112.312 352.595 112.312C354.307 112.332 355.99 112.751 357.511 113.538C360.168 116.425 363.137 119.008 366.363 121.24C366.45 121.314 366.551 121.371 366.661 121.407C366.77 121.442 366.885 121.456 366.999 121.447C367.114 121.438 367.226 121.407 367.328 121.355C367.43 121.302 367.521 121.231 367.596 121.143C367.671 121.056 367.728 120.955 367.763 120.845C367.799 120.736 367.812 120.621 367.803 120.506C367.795 120.392 367.763 120.28 367.711 120.178C367.659 120.075 367.587 119.984 367.5 119.909C365.117 117.265 362.386 114.957 359.383 113.047C357.804 111.375 356.563 109.414 355.727 107.271C353.977 102.422 355.324 95.0175 361.115 93.6872C367.535 92.2518 373.133 98.606 376.352 103.367C378.486 106.53 380.093 110.017 381.11 113.695C381.388 115.745 381.803 117.775 382.352 119.769C382.401 120.001 382.54 120.205 382.738 120.334C382.937 120.464 383.179 120.509 383.411 120.461C383.642 120.412 383.846 120.273 383.975 120.074C384.105 119.876 384.15 119.634 384.102 119.402C383.844 117.378 383.434 115.377 382.877 113.415C381.832 105.955 382.937 98.3524 386.061 91.4991C387.32 88.7858 390.784 81.959 394.965 83.5519C401.333 85.9851 400.353 97.1181 399.916 102.492C399.324 109.187 397.621 115.735 394.878 121.87C394.827 121.973 394.797 122.086 394.79 122.2C394.783 122.315 394.799 122.431 394.836 122.54C394.873 122.648 394.932 122.749 395.008 122.835C395.084 122.922 395.177 122.992 395.28 123.043C395.383 123.093 395.496 123.123 395.611 123.13C395.725 123.137 395.841 123.122 395.949 123.084C396.058 123.047 396.159 122.988 396.245 122.912C396.331 122.836 396.402 122.743 396.452 122.64C400.283 114.605 407.543 106.886 416.448 104.68C421.818 103.332 429.183 105.17 427.801 112.33C426.611 118.491 420.139 121.082 414.943 123.008C414.731 123.091 414.56 123.254 414.467 123.462C414.373 123.669 414.364 123.905 414.441 124.12C414.519 124.334 414.677 124.509 414.881 124.609C415.086 124.709 415.322 124.724 415.538 124.653C420.996 122.57 427.311 119.979 429.218 113.853C429.605 112.784 429.771 111.648 429.707 110.513C429.643 109.379 429.349 108.269 428.844 107.251C428.338 106.233 427.632 105.329 426.767 104.592C425.902 103.855 424.897 103.302 423.812 102.965Z" fill="#B1DDD5"/>
<path d="M235.422 49.5755C233.463 44.5691 227.077 44.7967 222.721 45.1818C216.008 45.7854 209.444 47.5133 203.303 50.2932C206.137 43.0462 209.374 35.7643 211.595 28.3423C212.942 23.826 211.455 18.8022 205.805 19.4499C200.154 20.0975 194.399 26.6793 190.708 30.7229C186.257 35.6181 182.518 41.1161 179.599 47.0548C178.489 41.8279 176.621 36.7915 174.054 32.1058C172.304 28.8674 169.295 23.1434 164.677 23.8611C161.178 24.4212 159.866 28.5523 158.992 31.4581C157.148 37.6554 156.223 44.0897 156.245 50.5557C153.138 46.9946 149.409 44.0288 145.241 41.8034C141.358 39.7378 134.413 36.4644 129.969 38.1974C126.698 39.4578 126.051 43.2038 127.31 46.1971C127.759 47.2035 128.405 48.1095 129.211 48.8613C130.016 49.613 130.964 50.1952 131.999 50.5732C128.378 50.6881 124.791 51.3127 121.345 52.4287C118.266 53.514 114.242 55.2645 114.05 59.063C114.121 60.6374 114.672 62.1521 115.629 63.4038C116.586 64.6555 117.903 65.5841 119.403 66.0649C123.864 67.6228 128.605 65.0671 132.418 63.0191C133.398 62.4764 132.418 61.0411 131.421 61.5662C127.923 63.4567 123.147 66.0999 119.176 64.0694C118.628 63.8808 118.127 63.5793 117.704 63.1842C117.28 62.7892 116.945 62.3096 116.719 61.7764C116.493 61.2433 116.382 60.6685 116.392 60.0895C116.402 59.5105 116.534 58.9401 116.779 58.4154C117.671 55.5796 118.423 55.3345 121.257 54.2492C126.943 52.0962 133.171 52.1137 139.171 52.0962C139.403 52.0962 139.626 52.0039 139.79 51.8398C139.954 51.6757 140.046 51.453 140.046 51.2209C140.046 50.9888 139.954 50.7662 139.79 50.602C139.626 50.4379 139.403 50.3457 139.171 50.3457C135.445 49.8731 130.074 49.2429 128.675 45.0943C127.52 41.5933 131.666 39.6678 134.483 39.8429C136.425 40.0922 138.319 40.6352 140.098 41.4533C146.51 43.9207 152.133 48.083 156.367 53.4965C156.477 53.6544 156.634 53.772 156.817 53.8313C156.999 53.8905 157.196 53.8881 157.377 53.8245C157.558 53.7608 157.713 53.6394 157.818 53.4789C157.923 53.3184 157.973 53.1278 157.959 52.9364C157.814 48.0038 158.231 43.0707 159.201 38.2324C159.866 34.7315 160.426 29.4801 162.998 26.8719C167.966 21.9705 173.494 34.4514 174.631 36.9721C176.414 41.0736 177.695 45.376 178.445 49.7855C178.424 50.0078 178.488 50.2296 178.624 50.4072C178.759 50.5847 178.956 50.7051 179.175 50.7446C179.395 50.7842 179.621 50.74 179.81 50.6208C179.998 50.5016 180.135 50.316 180.194 50.1006C184.565 40.4292 191.094 31.8897 199.28 25.1389C200.189 24.3862 201.134 23.616 202.114 22.9508L204.388 21.6555C207.047 20.2434 208.581 21.002 208.989 23.9311C210.738 27.222 210.196 27.432 208.989 30.6704C208.499 32.0183 207.974 33.3486 207.467 34.6965C205.321 40.333 203.175 45.9637 201.029 51.5885C200.784 52.2187 201.344 53.1639 202.114 52.7963C206.207 50.7941 210.507 49.2446 214.937 48.1751C219.048 47.2298 229.299 44.6742 232.43 48.5427C233.935 49.2896 234.092 50.4565 232.903 52.0436C233.218 53.6891 232.71 54.7219 231.416 55.1245C230.487 55.7075 229.462 56.1223 228.389 56.3498C226.15 56.9975 223.841 57.4526 221.567 57.9952L205.98 61.7237C204.895 61.9863 205.49 63.6318 206.575 63.3692C214.307 61.5312 222.581 60.2884 230.069 57.6627C233.463 56.4898 237.031 53.7241 235.422 49.5755Z" fill="#B1DDD5"/>
<path d="M162.893 278.187V285.714H94.6494V278.187H100.702H156.84H162.893Z" fill="#FFAA00"/>
<path d="M151.294 257.986L156.84 278.187H100.702L105.635 258.039H151.102L151.294 257.986Z" fill="#F79021"/>
<path d="M146.309 239.799L151.294 257.986L151.102 258.039H105.635L110.079 239.799H146.309Z" fill="#F9F9F9"/>
<path d="M137.929 209.218L146.308 239.887H110.079L117.566 209.306C117.566 209.306 121.415 216.885 128.762 216.885C136.11 216.885 137.929 209.218 137.929 209.218Z" fill="#F79021"/>
<path d="M117.566 209.218H137.929C137.929 209.218 136.18 216.798 128.762 216.798C121.345 216.798 117.566 209.218 117.566 209.218Z" fill="#FFAA00"/>
<path d="M297.123 115.708C296.845 113.141 295.813 110.714 294.157 108.733C292.501 106.753 290.295 105.308 287.818 104.582C285.342 103.855 282.706 103.88 280.243 104.653C277.781 105.425 275.603 106.911 273.984 108.922C272.365 110.934 271.379 113.38 271.149 115.952C270.92 118.524 271.458 121.106 272.695 123.373C273.932 125.639 275.812 127.487 278.099 128.684C280.386 129.881 282.976 130.373 285.542 130.097C288.983 129.722 292.135 127.997 294.306 125.299C296.478 122.602 297.49 119.152 297.123 115.708ZM277.477 91.5341L290.37 90.1337C289.479 93.3851 289.589 96.8296 290.684 100.018C291.78 103.206 293.81 105.99 296.51 108.006L297.927 93.7046L306.254 89.9061L308.493 110.527L313.374 155.584L275.868 159.645V159.365H239.131V163.653L218.838 165.859L211.508 98.6935L242.07 95.3676L248.56 94.6674L272.124 92.1117L277.477 91.5341ZM243.294 153.046L285.734 148.442C285.734 148.442 282.235 130.465 261.995 132.688C241.755 134.911 243.294 153.046 243.294 153.046ZM239.358 135.278C241.924 135 244.351 133.966 246.33 132.308C248.309 130.65 249.752 128.442 250.477 125.963C251.202 123.484 251.176 120.846 250.402 118.381C249.628 115.917 248.142 113.738 246.13 112.119C244.119 110.501 241.672 109.515 239.101 109.288C236.53 109.061 233.949 109.601 231.685 110.842C229.42 112.082 227.575 113.967 226.381 116.257C225.187 118.547 224.699 121.14 224.978 123.708C225.357 127.148 227.083 130.298 229.778 132.467C232.474 134.636 235.919 135.647 239.358 135.278Z" fill="#C3D5D8"/>
<path d="M209.828 244.928V265.934C199.927 263.133 189.238 262.135 179.442 265.269C169.348 268.49 160.443 276.822 158.694 287.29H140.378C140.618 276.506 145.004 266.229 152.624 258.599C154.539 258.234 156.343 257.429 157.894 256.247C159.445 255.066 160.701 253.54 161.563 251.79C168.102 246.323 176.035 242.786 184.47 241.577C192.906 240.368 201.511 241.535 209.321 244.946L209.828 244.928Z" fill="#37A07F"/>
<path d="M270.462 78.6683C270.689 80.5413 270.934 82.3968 271.179 84.2698L247.475 86.8255L246.67 81.329C241.311 81.1223 236.123 79.379 231.726 76.3067C227.328 73.2345 223.905 68.9625 221.864 63.9994C219.974 58.9451 219.494 53.4718 220.474 48.1652C221.454 42.8587 223.857 37.9186 227.427 33.8738C231.111 29.932 235.737 26.9942 240.87 25.3373C246.003 23.6804 251.473 23.3591 256.764 24.4037C262.039 25.546 266.967 27.9253 271.143 31.346C275.318 34.7666 278.623 39.1307 280.783 44.079C281.687 46.1538 282.367 48.3191 282.812 50.5383C283.783 54.9937 283.663 59.6178 282.463 64.0169C282.203 64.9396 281.887 65.8457 281.518 66.7301C279.415 71.9284 275.482 76.1755 270.462 78.6683Z" fill="#F9A138"/>
<path d="M161.598 251.772C160.736 253.522 159.48 255.048 157.929 256.23C156.378 257.411 154.574 258.216 152.659 258.582C151.886 258.728 151.098 258.769 150.315 258.704V258.022C149.16 256.279 148.303 254.356 147.778 252.333L147.533 251.842C148.643 251.349 149.684 250.714 150.63 249.952C151.585 249.18 152.211 248.072 152.379 246.854C152.554 244.596 150.63 242.723 148.513 241.777C146.725 240.914 144.713 240.632 142.757 240.972C141.783 241.16 140.867 241.575 140.083 242.183C139.298 242.791 138.669 243.576 138.244 244.473C137.84 245.378 137.735 246.388 137.942 247.357C138.15 248.326 138.66 249.204 139.399 249.864L139.608 250.022C138.104 252 136.6 253.961 135.078 255.921C132.627 254.62 130.682 252.536 129.552 250.002C128.421 247.467 128.169 244.627 128.837 241.933C129.505 239.239 131.053 236.845 133.236 235.133C135.419 233.421 138.112 232.488 140.885 232.482H141.165V232.657C146.166 233.204 151.127 234.069 156.018 235.248L158.117 235.756L158.344 235.528C160.171 237.339 161.505 239.588 162.218 242.061C162.932 244.533 163.001 247.147 162.42 249.654C162.222 250.387 161.946 251.097 161.598 251.772Z" fill="#312A5E"/>
<path d="M277.494 91.5341L272.141 92.1117L248.577 94.6674L242.087 95.3676L241.247 87.508L247.493 86.8253L271.197 84.2696L276.655 83.6744L277.494 91.5341Z" fill="#312A5E"/>
<path d="M275.64 274.669H275.955H296.248H298.277V285.242V285.697H250.169V274.669H275.64Z" fill="#312A5E"/>
<path d="M298.277 203.565V274.669H296.248H275.955H275.64V214.102H289.775V203.565H298.277Z" fill="#37A07F"/>
<path d="M209.828 265.916V244.928V184.677V169.483H239.078H275.868H298.277V203.564H289.775V181.771H224.226V214.102H275.64V274.668H250.169V285.696H209.828V265.916Z" fill="#C3D5D8"/>
<path d="M297.123 115.708C297.402 118.276 296.913 120.869 295.72 123.159C294.526 125.449 292.68 127.334 290.416 128.574C288.152 129.815 285.571 130.355 283 130.128C280.428 129.901 277.982 128.915 275.971 127.297C273.959 125.678 272.472 123.499 271.698 121.035C270.925 118.57 270.899 115.932 271.623 113.453C272.348 110.974 273.792 108.766 275.771 107.108C277.75 105.45 280.176 104.416 282.743 104.138C286.183 103.765 289.63 104.774 292.327 106.944C295.023 109.114 296.748 112.266 297.123 115.708Z" fill="#312A5E"/>
<path d="M289.775 203.565V214.102H275.64V203.565H275.798H289.775Z" fill="#37A07F"/>
<path d="M275.64 203.564V214.067H224.226V181.771H289.775V203.564H275.64ZM267.313 194.812V187.372H229.177V194.917L267.313 194.812ZM261.523 205.315C261.523 204.678 261.334 204.055 260.98 203.525C260.626 202.996 260.124 202.583 259.536 202.339C258.947 202.095 258.3 202.031 257.676 202.156C257.051 202.28 256.478 202.587 256.028 203.037C255.577 203.488 255.271 204.062 255.147 204.686C255.023 205.311 255.086 205.959 255.33 206.547C255.574 207.136 255.986 207.639 256.515 207.993C257.045 208.347 257.667 208.536 258.304 208.536C259.134 208.536 259.932 208.216 260.532 207.642C261.131 207.068 261.487 206.284 261.523 205.455V205.315ZM248.77 205.315C248.773 204.673 248.586 204.044 248.231 203.509C247.877 202.974 247.372 202.556 246.78 202.309C246.188 202.061 245.536 201.996 244.906 202.12C244.277 202.245 243.699 202.553 243.245 203.007C242.791 203.461 242.483 204.04 242.358 204.67C242.234 205.3 242.3 205.952 242.547 206.545C242.794 207.137 243.211 207.643 243.746 207.997C244.281 208.352 244.909 208.539 245.551 208.536C246.379 208.532 247.175 208.211 247.774 207.637C248.373 207.064 248.729 206.283 248.77 205.455V205.315ZM235.299 205.315C235.299 204.678 235.111 204.055 234.757 203.525C234.403 202.996 233.901 202.583 233.312 202.339C232.724 202.095 232.077 202.031 231.453 202.156C230.828 202.28 230.255 202.587 229.804 203.037C229.354 203.488 229.048 204.062 228.924 204.686C228.799 205.311 228.863 205.959 229.107 206.547C229.35 207.136 229.763 207.639 230.292 207.993C230.822 208.347 231.444 208.536 232.081 208.536C232.911 208.536 233.709 208.216 234.309 207.642C234.908 207.068 235.263 206.284 235.299 205.455V205.315Z" fill="#F9F9F9"/>
<path d="M285.734 148.442L243.294 153.045C243.294 153.045 241.702 134.858 261.995 132.652C282.288 130.447 285.734 148.442 285.734 148.442Z" fill="#37A07F"/>
<path d="M275.868 159.645V169.483H239.078V163.636L275.868 159.645Z" fill="#312A5E"/>
<path d="M275.868 159.348V159.645L239.078 163.636V159.348H275.868Z" fill="#C3D5D8"/>
<path d="M267.313 187.355H229.247V194.9H267.313V187.355Z" fill="#312A5E"/>
<path d="M258.304 202.217C258.945 202.213 259.572 202.4 260.106 202.754C260.641 203.108 261.059 203.612 261.306 204.204C261.554 204.795 261.62 205.447 261.498 206.076C261.375 206.705 261.068 207.284 260.616 207.739C260.164 208.193 259.587 208.503 258.959 208.63C258.331 208.756 257.679 208.693 257.087 208.448C256.494 208.204 255.988 207.789 255.632 207.256C255.275 206.723 255.085 206.096 255.085 205.455C255.083 205.031 255.164 204.61 255.325 204.217C255.486 203.824 255.722 203.467 256.021 203.166C256.321 202.865 256.676 202.626 257.068 202.463C257.46 202.3 257.88 202.217 258.304 202.217Z" fill="#FFAA00"/>
<path d="M250.939 120.854C251.214 123.421 250.723 126.012 249.527 128.299C248.331 130.587 246.485 132.468 244.221 133.706C241.957 134.944 239.377 135.483 236.808 135.254C234.238 135.026 231.794 134.04 229.783 132.422C227.773 130.804 226.287 128.626 225.513 126.164C224.74 123.701 224.713 121.064 225.436 118.586C226.159 116.108 227.6 113.901 229.577 112.242C231.553 110.583 233.977 109.547 236.541 109.266C239.986 108.893 243.438 109.904 246.138 112.077C248.838 114.251 250.565 117.408 250.939 120.854Z" fill="#312A5E"/>
<path d="M245.551 202.217C246.191 202.217 246.817 202.406 247.349 202.762C247.881 203.118 248.296 203.624 248.541 204.216C248.786 204.807 248.85 205.459 248.725 206.087C248.6 206.715 248.292 207.292 247.839 207.745C247.387 208.198 246.81 208.506 246.182 208.631C245.554 208.756 244.904 208.692 244.312 208.447C243.721 208.202 243.215 207.787 242.86 207.254C242.504 206.722 242.314 206.095 242.314 205.455C242.314 204.596 242.655 203.772 243.262 203.165C243.869 202.558 244.692 202.217 245.551 202.217Z" fill="#FFAA00"/>
<path d="M232.081 202.217C232.721 202.213 233.349 202.4 233.883 202.754C234.418 203.108 234.835 203.612 235.083 204.204C235.331 204.795 235.397 205.447 235.274 206.076C235.151 206.705 234.845 207.284 234.393 207.739C233.941 208.193 233.364 208.503 232.736 208.63C232.108 208.756 231.456 208.693 230.864 208.448C230.271 208.204 229.765 207.789 229.408 207.256C229.052 206.723 228.862 206.096 228.862 205.455C228.859 205.031 228.941 204.61 229.102 204.217C229.262 203.824 229.499 203.467 229.798 203.166C230.097 202.865 230.453 202.626 230.845 202.463C231.236 202.3 231.656 202.217 232.081 202.217Z" fill="#FFAA00"/>
<path d="M141.183 232.447H140.903V231.992C143.227 215.125 151.408 199.613 164.013 188.175C176.618 176.737 192.843 170.101 209.846 169.43V184.677C196.441 185.599 183.766 191.125 173.964 200.321C164.162 209.516 157.835 221.817 156.053 235.143C151.162 233.964 146.201 233.099 141.2 232.552L141.183 232.447Z" fill="#37A07F"/>
<path d="M207.414 77.8979L206.627 94.6324L201.659 84.3396L194.172 87.2979L187.821 75.1846L198.44 66.6423L199.84 79.8059L207.414 77.8979Z" fill="#F9A138"/>
<path d="M204.843 103.297L195.344 107.691L190.813 121.8L180.544 117.966V106.483L189.903 109.459L191.53 101.88L204.843 103.297Z" fill="#F9A138"/>
<path d="M253.668 85.6002L238.343 53.9692C237.871 52.9714 236.209 53.549 236.699 54.5643L252.024 86.1953C252.531 87.1931 254.175 86.6154 253.668 85.6002Z" fill="#F9F9F9"/>
<path d="M270.462 53.1463C269.913 54.3995 269.08 55.508 268.03 56.3846C267.638 56.675 267.2 56.8996 266.736 57.0498C266.736 54.4241 266.736 51.7984 266.736 49.1727C266.736 48.0524 264.986 48.1924 264.986 49.3127V57.4349C263.709 57.6128 262.407 57.412 261.243 56.8573C260.63 56.416 260.157 55.8086 259.878 55.1068C261.768 52.6736 262.905 48.42 260.141 47.2297C256.957 45.8643 257.009 49.9254 257.779 53.3388L256.572 53.5489C256.807 51.4051 256.606 49.2359 255.981 47.172C255.356 45.1082 254.319 43.1925 252.933 41.5406C248.7 37.287 247.475 44.4289 248.21 47.5447C248.857 50.258 250.921 54.5466 253.895 56.2971C253.573 57.1162 253.055 57.8441 252.387 58.4176C251.72 58.9911 250.922 59.3929 250.064 59.588C250.641 55.9645 249.802 51.3433 246.251 50.8356C241.615 50.188 242.752 56.9273 244.396 59.1154C245.19 60.1578 246.282 60.9334 247.528 61.3385C245.778 64.5593 241.877 66.4498 238.571 62.4938C237.853 61.636 236.402 62.6163 237.136 63.4915C237.84 64.4114 238.754 65.1482 239.803 65.6395C240.851 66.1308 242.002 66.3623 243.159 66.3142C244.316 66.2661 245.444 65.9399 246.448 65.3633C247.452 64.7867 248.302 63.9765 248.927 63.0014C249.2 62.5671 249.423 62.1031 249.592 61.6185C250.755 61.5794 251.887 61.2354 252.876 60.6211C253.864 60.0067 254.674 59.1434 255.225 58.1176C255.449 57.7126 255.642 57.2913 255.802 56.8573C256.49 56.9478 257.19 56.8819 257.849 56.6647C258.153 56.555 258.437 56.3953 258.689 56.1921C258.824 56.5331 259 56.8563 259.213 57.1548C259.861 58.0446 260.746 58.7336 261.767 59.1423C262.788 59.5511 263.904 59.6631 264.986 59.4655C264.986 67.786 264.94 76.1066 264.846 84.4272C264.846 85.5475 266.596 85.4074 266.596 84.2871C266.596 75.8499 266.642 67.4068 266.736 58.9578C269.035 57.9294 270.894 56.1182 271.984 53.8464C272.01 53.6602 271.975 53.4705 271.885 53.3055C271.795 53.1405 271.654 53.0089 271.483 52.9304C271.312 52.8518 271.121 52.8304 270.937 52.8693C270.753 52.9081 270.586 53.0053 270.462 53.1463ZM247.055 58.7653C245.428 57.645 243.364 55.3869 245.831 54.214C247.772 53.2863 248.017 54.7742 248.367 56.6647C248.525 57.5663 248.489 58.4912 248.262 59.3779C247.837 59.2232 247.431 59.0174 247.055 58.7653ZM253.86 54.0215L252.111 52.0785C251.363 50.9513 250.774 49.7261 250.362 48.4375C250.064 47.6323 249.05 44.3589 249.714 43.6237L252.391 43.5362C252.99 44.3655 253.462 45.2801 253.79 46.2494C254.553 48.4222 254.88 50.7243 254.752 53.0237C254.752 53.3038 254.753 53.6014 254.665 53.8815L253.86 54.0215Z" fill="#F9F9F9"/>
<path d="M244.764 128.347C242.612 126.964 240.46 125.564 238.361 124.093C236.926 126.194 235.457 128.259 233.97 130.342C233.2 131.41 231.503 130.342 232.22 129.187C233.713 127.122 235.177 125.038 236.611 122.938C234.67 121.625 232.728 120.242 230.821 118.859C229.754 118.107 230.821 116.426 231.958 117.109C233.882 118.492 235.807 119.857 237.748 121.187C239.078 119.227 240.39 117.231 241.685 115.236C242.402 114.133 244.064 115.236 243.434 116.374C242.139 118.369 240.845 120.365 239.48 122.325C241.597 123.778 243.749 125.196 245.901 126.579C247.003 127.367 245.866 129.047 244.764 128.347Z" fill="#F9F9F9"/>
<path d="M289.828 122.728C287.676 121.328 285.524 119.927 283.425 118.474C281.99 120.575 280.521 122.64 279.034 124.706C278.247 125.774 276.567 124.706 277.284 123.568C278.771 121.503 280.223 119.402 281.675 117.301C279.734 115.989 277.792 114.606 275.885 113.223C274.818 112.47 275.885 110.79 277.022 111.472C278.946 112.855 280.871 114.221 282.813 115.551C284.142 113.59 285.454 111.595 286.749 109.599C287.466 108.497 289.128 109.599 288.498 110.737C287.203 112.75 285.891 114.728 284.544 116.706C286.661 118.142 288.813 119.56 290.965 120.942C292.154 121.73 290.93 123.411 289.828 122.728Z" fill="#F9F9F9"/>
<path d="M253.038 151.278L250.467 139.024C250.239 137.939 248.507 138.044 248.717 139.147L251.289 151.4C251.534 152.503 253.283 152.363 253.038 151.278Z" fill="#236852"/>
<path d="M259.021 133.773C258.881 132.653 257.132 132.793 257.272 133.896L259.441 150.613C259.581 151.715 261.33 151.593 261.19 150.473L259.021 133.773Z" fill="#236852"/>
<path d="M267.366 133.913C267.366 132.775 265.616 132.915 265.616 134.035L265.721 149.965C265.721 151.103 267.47 150.962 267.47 149.842L267.366 133.913Z" fill="#236852"/>
<path d="M274.485 135.453C273.733 139.97 272.998 144.468 272.246 148.985C272.224 149.1 272.225 149.218 272.249 149.332C272.273 149.447 272.319 149.556 272.385 149.652C272.451 149.749 272.535 149.832 272.633 149.896C272.73 149.96 272.84 150.004 272.955 150.026C273.07 150.048 273.188 150.047 273.302 150.023C273.417 149.999 273.525 149.953 273.622 149.887C273.719 149.822 273.801 149.737 273.865 149.639C273.93 149.542 273.974 149.432 273.996 149.317C274.748 144.801 275.5 140.302 276.235 135.786C276.279 135.554 276.229 135.314 276.096 135.118C275.963 134.923 275.758 134.789 275.526 134.745C275.294 134.7 275.054 134.75 274.859 134.883C274.664 135.016 274.53 135.221 274.485 135.453Z" fill="#236852"/>
<path d="M297.717 212.457L276.41 211.879C275.238 211.879 275.378 213.63 276.532 213.63L297.805 214.137C299.029 214.242 298.872 212.492 297.717 212.457Z" fill="#236852"/>
<path d="M297.717 223.187L276.41 222.679C275.238 222.679 275.378 224.43 276.532 224.43L297.805 224.937C299.029 224.955 298.872 223.222 297.717 223.187Z" fill="#236852"/>
<path d="M297.717 233.375L276.41 232.885C275.238 232.885 275.378 234.635 276.532 234.635L297.805 235.143C299.029 235.143 298.872 233.41 297.717 233.375Z" fill="#236852"/>
<path d="M297.717 244.105L276.41 243.598C275.238 243.598 275.378 245.348 276.532 245.348L297.805 245.873C299.029 245.873 298.872 244.14 297.717 244.105Z" fill="#236852"/>
<path d="M297.717 255.378L276.41 254.87C275.238 254.87 275.378 256.621 276.532 256.621L297.805 257.146C299.029 257.146 298.872 255.395 297.717 255.378Z" fill="#236852"/>
<path d="M297.717 266.144L276.41 265.601C275.238 265.601 275.378 267.352 276.532 267.352L297.805 267.859C299.029 267.894 298.872 266.144 297.717 266.144Z" fill="#236852"/>
<path d="M197.793 173.666C197.635 172.563 195.903 172.686 196.043 173.806L197.793 185.709C197.933 186.83 199.682 186.707 199.542 185.587L197.793 173.666Z" fill="#236852"/>
<path d="M187.874 189.438C185.792 185.535 183.693 181.649 181.611 177.763C181.086 176.765 179.652 177.763 180.177 178.76L186.439 190.436C186.964 191.416 188.399 190.418 187.874 189.438Z" fill="#236852"/>
<path d="M178.637 195.39L170.362 183.714C170.225 183.537 170.025 183.419 169.804 183.385C169.582 183.351 169.356 183.404 169.172 183.532C168.988 183.66 168.86 183.853 168.815 184.073C168.769 184.293 168.81 184.521 168.928 184.712L177.203 196.388C177.34 196.565 177.54 196.683 177.761 196.716C177.983 196.75 178.209 196.698 178.393 196.57C178.577 196.442 178.705 196.248 178.75 196.029C178.796 195.809 178.755 195.58 178.637 195.39Z" fill="#236852"/>
<path d="M169.838 202.759L159.586 193.797C159.409 193.678 159.195 193.627 158.983 193.656C158.771 193.684 158.578 193.789 158.438 193.95C158.298 194.111 158.222 194.318 158.224 194.532C158.226 194.745 158.306 194.951 158.449 195.109L168.701 204.089C168.877 204.24 169.106 204.315 169.337 204.297C169.568 204.279 169.783 204.169 169.934 203.993C170.085 203.817 170.159 203.588 170.141 203.356C170.123 203.125 170.014 202.91 169.838 202.759Z" fill="#236852"/>
<path d="M162.7 212.509L150.804 205.717C149.825 205.157 149.055 206.75 150.052 207.293L161.93 214.084C162.91 214.645 163.662 213.052 162.7 212.509Z" fill="#236852"/>
<path d="M157.452 224.798L144.174 220.632C143.09 220.299 142.775 222.014 143.842 222.382L157.032 226.548C158.117 226.863 158.432 225.13 157.452 224.798Z" fill="#236852"/>
<path d="M161.231 278.677L146.501 272.183C145.469 271.728 144.752 273.304 145.731 273.759L160.461 280.253C161.493 280.708 162.263 279.133 161.231 278.677Z" fill="#236852"/>
<path d="M168.788 270.677L157.452 258.336C156.682 257.514 155.545 258.844 156.315 259.667L167.686 271.92C168.403 272.83 169.54 271.5 168.788 270.677Z" fill="#236852"/>
<path d="M177.57 264.568C175.599 258.64 173.616 252.694 171.622 246.731C171.272 245.663 169.61 246.258 169.978 247.326C171.96 253.278 173.943 259.224 175.925 265.163C176.009 265.375 176.172 265.547 176.379 265.64C176.587 265.734 176.823 265.743 177.037 265.666C177.251 265.588 177.426 265.43 177.526 265.225C177.625 265.02 177.641 264.785 177.57 264.568Z" fill="#236852"/>
<path d="M183.798 243.16C183.675 242.04 181.926 242.162 182.048 243.3C182.841 249.94 183.623 256.586 184.392 263.238C184.532 264.358 186.264 264.236 186.142 263.098C185.36 256.458 184.579 249.812 183.798 243.16Z" fill="#236852"/>
<path d="M196.831 243.388C196.446 249.812 196.043 256.219 195.658 262.643C195.658 263.763 197.303 264.113 197.408 262.993C197.793 256.563 198.189 250.144 198.597 243.738C198.615 242.547 196.901 242.197 196.831 243.388Z" fill="#236852"/>
<path d="M207.012 245.663C205.927 251.592 204.849 257.532 203.776 263.483C203.732 263.715 203.781 263.955 203.914 264.151C204.047 264.346 204.252 264.481 204.484 264.525C204.716 264.569 204.956 264.519 205.151 264.386C205.347 264.253 205.481 264.048 205.525 263.816C206.592 257.882 207.677 251.93 208.744 245.996C208.788 245.766 208.739 245.528 208.608 245.335C208.477 245.141 208.274 245.007 208.044 244.963C207.814 244.919 207.577 244.968 207.383 245.099C207.19 245.231 207.056 245.434 207.012 245.663Z" fill="#236852"/>
<path d="M220.675 136.609C220.658 136.377 220.551 136.161 220.375 136.008C220.2 135.855 219.971 135.779 219.739 135.795C219.507 135.811 219.291 135.919 219.138 136.095C218.986 136.27 218.909 136.499 218.925 136.731C219.24 140.302 219.543 143.873 219.835 147.444C219.854 147.677 219.963 147.892 220.141 148.043C220.318 148.194 220.548 148.268 220.78 148.25C221.012 148.231 221.227 148.121 221.378 147.944C221.529 147.766 221.603 147.536 221.584 147.304C221.287 143.751 220.972 140.197 220.675 136.609Z" fill="#A2BABC"/>
<path d="M224.296 145.746C224.277 145.514 224.167 145.299 223.99 145.148C223.813 144.997 223.583 144.922 223.351 144.941C223.119 144.96 222.904 145.07 222.753 145.247C222.602 145.424 222.528 145.654 222.546 145.886L223.019 153.431C223.035 153.663 223.143 153.879 223.318 154.032C223.494 154.184 223.723 154.261 223.955 154.245C224.187 154.229 224.403 154.121 224.555 153.945C224.708 153.769 224.784 153.54 224.768 153.308L224.296 145.746Z" fill="#A2BABC"/>
<path d="M221.462 154.884C221.446 154.652 221.338 154.435 221.162 154.283C220.987 154.13 220.758 154.054 220.526 154.07C220.294 154.086 220.078 154.194 219.925 154.369C219.773 154.545 219.696 154.774 219.712 155.006C219.712 156.949 219.887 158.892 219.992 160.835C220.002 160.95 220.033 161.062 220.086 161.165C220.138 161.268 220.21 161.359 220.298 161.434C220.386 161.508 220.487 161.565 220.597 161.601C220.707 161.636 220.822 161.65 220.937 161.641C221.052 161.631 221.164 161.6 221.266 161.547C221.369 161.495 221.46 161.422 221.535 161.335C221.61 161.247 221.666 161.145 221.702 161.036C221.737 160.926 221.751 160.81 221.742 160.695L221.462 154.884Z" fill="#A2BABC"/>
<path d="M306.849 130.325C306.849 129.204 305.1 129.344 305.1 130.465L305.572 139.584C305.588 139.817 305.696 140.033 305.871 140.185C306.047 140.338 306.276 140.415 306.508 140.398C306.74 140.382 306.956 140.274 307.108 140.099C307.261 139.923 307.338 139.694 307.321 139.462L306.849 130.325Z" fill="#A2BABC"/>
<path d="M305.747 145.099V150.35C305.747 151.488 307.496 151.348 307.496 150.228V144.976C307.496 143.839 305.747 143.979 305.747 145.099Z" fill="#A2BABC"/>
<path d="M303.56 140.11C303.544 139.878 303.436 139.661 303.261 139.509C303.085 139.356 302.856 139.279 302.624 139.296C302.392 139.312 302.176 139.42 302.024 139.595C301.871 139.771 301.795 140 301.811 140.232L302.126 145.484C302.144 145.716 302.254 145.931 302.431 146.082C302.609 146.233 302.838 146.307 303.07 146.289C303.302 146.27 303.517 146.16 303.668 145.983C303.819 145.806 303.894 145.576 303.875 145.344L303.56 140.11Z" fill="#A2BABC"/>
<path d="M239.253 215.975L220.937 215.555L220.727 204.597C220.727 203.477 218.978 203.599 218.978 204.72L219.188 216.01C219.139 216.151 219.123 216.302 219.142 216.45C219.161 216.598 219.214 216.739 219.297 216.863C219.381 216.987 219.491 217.09 219.621 217.164C219.751 217.238 219.896 217.28 220.045 217.288L239.393 217.708C240.513 217.743 240.373 215.993 239.253 215.975Z" fill="#A2BABC"/>
<path d="M265.914 215.38L246.898 216.045C245.761 216.045 245.901 217.796 247.02 217.796L266.054 217.113C267.243 217.025 267.121 215.275 265.914 215.38Z" fill="#A2BABC"/>
<path d="M261.75 218.881L250.729 219.284C249.609 219.284 249.749 221.034 250.869 221.034L261.873 220.632C263.01 220.632 262.87 218.881 261.75 218.881Z" fill="#A2BABC"/>
<path d="M214.342 240.149C214.342 239.029 212.593 239.169 212.593 240.289C212.732 249.52 212.878 258.751 213.03 267.982C213.03 269.102 214.779 268.979 214.779 267.842C214.639 258.623 214.494 249.392 214.342 240.149Z" fill="#A2BABC"/>
<path d="M214.709 272.095C214.691 271.863 214.581 271.648 214.404 271.497C214.226 271.346 213.997 271.271 213.765 271.29C213.533 271.308 213.317 271.418 213.167 271.596C213.016 271.773 212.941 272.003 212.96 272.235L213.432 280.988C213.448 281.22 213.556 281.436 213.732 281.588C213.907 281.741 214.136 281.818 214.368 281.802C214.6 281.785 214.816 281.677 214.969 281.502C215.121 281.326 215.198 281.097 215.182 280.865L214.709 272.095Z" fill="#A2BABC"/>
<path d="M218.505 265.811C218.497 265.696 218.467 265.584 218.415 265.481C218.364 265.378 218.293 265.286 218.206 265.21C218.119 265.135 218.018 265.077 217.909 265.04C217.8 265.004 217.684 264.989 217.569 264.997C217.455 265.005 217.342 265.036 217.239 265.087C217.136 265.139 217.044 265.21 216.969 265.297C216.893 265.384 216.836 265.485 216.799 265.594C216.763 265.703 216.748 265.819 216.756 265.934L217.386 274.266C217.402 274.498 217.51 274.714 217.685 274.867C217.861 275.02 218.09 275.096 218.322 275.08C218.554 275.064 218.77 274.956 218.922 274.78C219.075 274.605 219.151 274.376 219.135 274.143L218.505 265.811Z" fill="#A2BABC"/>
<path d="M213.432 78.108C213.345 82.4667 213.257 86.8603 213.152 91.2015C213.152 92.3218 214.902 92.1818 214.902 91.0615C214.989 86.7028 215.094 82.3091 215.182 77.9679C215.182 76.8476 213.432 76.9877 213.432 78.108Z" fill="#F9A138"/>
<path d="M202.289 96.7681L191.547 91.0966C190.55 90.5539 189.798 92.1293 190.778 92.672L201.519 98.431C202.516 98.8687 203.286 97.2932 202.289 96.7681Z" fill="#F9A138"/>
<path d="M204.685 109.424L197.933 115.2C197.093 115.918 198.073 117.371 198.93 116.636L205.665 110.877C206.522 110.141 205.542 108.706 204.685 109.424Z" fill="#F9A138"/>
<path d="M228.774 37.9523C226.179 41.3198 224.483 45.2932 223.846 49.498C223.21 53.7028 223.653 58.0005 225.136 61.9862C225.214 62.2068 225.378 62.3869 225.589 62.487C225.801 62.5871 226.044 62.5991 226.264 62.5201C226.484 62.4412 226.664 62.2779 226.764 62.0662C226.864 61.8544 226.876 61.6116 226.797 61.3911C225.406 57.6996 224.979 53.7138 225.558 49.8112C226.137 45.9086 227.701 42.2184 230.104 39.0901C230.786 38.1973 229.457 37.0595 228.774 37.9523Z" fill="#F7BC39"/>
<path d="M267.82 32.8935C266.841 32.3333 266.071 33.9088 267.051 34.4689C270.412 36.3466 273.212 39.0859 275.164 42.4055C277.117 45.725 278.15 49.5048 278.159 53.3565C278.159 54.4943 279.909 54.3543 279.909 53.234C279.876 49.0757 278.74 45.0007 276.616 41.4265C274.492 37.8523 271.456 34.9074 267.82 32.8935Z" fill="#F7BC39"/>
<path d="M276.672 60.7609C276.574 65.1857 274.79 69.4058 271.687 72.559C270.899 73.3643 272.229 74.5021 273.016 73.6968C276.417 70.1878 278.345 65.5085 278.404 60.6208C278.439 59.5881 276.69 59.588 276.672 60.7609Z" fill="#F7BC39"/>
<path d="M236.174 75.2197C233.599 73.9297 231.445 71.9319 229.964 69.4607C229.369 68.4979 227.935 69.4607 228.512 70.4584C230.179 73.1683 232.565 75.362 235.404 76.7951C235.508 76.8457 235.62 76.8754 235.735 76.8826C235.85 76.8897 235.965 76.8741 236.074 76.8367C236.183 76.7993 236.283 76.7409 236.369 76.6647C236.456 76.5885 236.526 76.496 236.576 76.3925C236.627 76.2891 236.657 76.1767 236.664 76.0618C236.671 75.9469 236.655 75.8316 236.618 75.7227C236.581 75.6138 236.522 75.5134 236.446 75.427C236.37 75.3407 236.277 75.2703 236.174 75.2197Z" fill="#F7BC39"/>
<path d="M236.349 29.97L232.063 33.6985C231.223 34.4337 232.203 35.8691 233.06 35.1339L237.346 31.4054C238.186 30.6877 237.206 29.2348 236.349 29.97Z" fill="#F7BC39"/>
<path d="M235.439 35.1865L230.086 41.9608C229.387 42.8361 230.716 43.9914 231.416 43.0986L236.751 36.3418C237.451 35.4491 236.174 34.3113 235.439 35.1865Z" fill="#F7BC39"/>
<path d="M275.273 50.5559C275.133 49.4356 273.383 49.5581 273.523 50.6784C274.034 54.4229 273.922 58.2262 273.191 61.9339C273.147 62.1661 273.197 62.4062 273.33 62.6015C273.463 62.7969 273.668 62.9314 273.899 62.9755C274.131 63.0196 274.371 62.9697 274.567 62.8367C274.762 62.7038 274.896 62.4987 274.94 62.2665C275.689 58.4073 275.801 54.4514 275.273 50.5559Z" fill="#F7BC39"/>
<path d="M458.03 278.134V285.679H389.787V278.134H395.857H451.977H458.03Z" fill="#FFAA00"/>
<path d="M446.432 257.934L451.977 278.134H395.857L400.773 257.986H446.257L446.432 257.934Z" fill="#F79021"/>
<path d="M441.446 239.747L446.432 257.934L446.257 257.987H400.773L405.234 239.747H441.446Z" fill="#F9F9F9"/>
<path d="M433.084 209.166L441.446 239.747H405.234L412.704 209.166C412.704 209.166 416.57 216.763 423.918 216.763C431.265 216.763 433.084 209.166 433.084 209.166Z" fill="#F79021"/>
<path d="M412.704 209.166H433.084C433.084 209.166 431.335 216.763 423.917 216.763C416.5 216.763 412.704 209.166 412.704 209.166Z" fill="#FFAA00"/>
<path d="M318.71 53.6711V54.4063L317.87 53.9862L318.71 53.6711Z" fill="#312A5E"/>
<path d="M373.313 159.49C372.265 162.121 375.461 176.717 378.803 177.3C378.867 177.236 364.884 180.114 358.992 179.139C353.1 178.164 350.462 176.037 350.462 176.037C353.42 170.872 354.947 166.643 354.859 161.055L373.313 159.49Z" fill="#E2B9A3"/>
<path d="M394.888 222.398C394.888 222.398 381.473 222.279 366.547 222.271V222.183C350.158 222.39 334.36 222.75 334.36 222.75C334.184 224.173 336.647 234.974 342.883 238.971L345.065 287.379L353.66 287.563C353.66 287.563 357.073 256.384 361.143 243.504C361.942 241.338 362.254 239.555 363.989 239.451C365.907 239.555 365.907 241.138 367.091 243.528C371.28 256.32 376.212 287.499 376.212 287.499L384.799 287.203L385.302 238.78C391.498 234.694 395.048 223.822 394.888 222.398Z" fill="#1C1714"/>
<path d="M366.546 222.271V222.183C350.157 222.39 334.36 222.75 334.36 222.75C334.481 224.431 334.765 226.097 335.207 227.723H393.345C394.423 226.16 394.983 224.297 394.943 222.398C394.943 222.398 381.472 222.279 366.546 222.271Z" fill="black"/>
<path d="M384.087 279.561C378.291 279.561 373.598 283.558 373.598 288.395V288.619H394.568V288.395C394.568 283.518 389.875 279.561 384.087 279.561Z" fill="black"/>
<path d="M346.512 279.744C340.723 279.744 336.023 283.741 336.023 288.538C336.023 288.618 336.023 288.69 336.023 288.762H356.985C356.989 288.688 356.989 288.613 356.985 288.538C356.985 283.67 352.292 279.744 346.496 279.744H346.512Z" fill="black"/>
<path d="M391.274 284.117C390.474 282.95 389.219 282.447 386.765 282.063C386.293 281.991 386.085 281.303 386.709 281.351C391.953 281.703 391.506 284.509 391.274 284.117Z" fill="#3C3B3D"/>
<path d="M354.387 284.948C353.587 283.773 352.332 283.278 349.878 282.894C349.406 282.814 349.198 282.134 349.822 282.174C355.066 282.534 354.619 285.332 354.387 284.948Z" fill="#3C3B3D"/>
<path d="M400.557 172.644C407.703 180.16 402.242 216.842 396.766 223.294C394.312 226.732 355.194 225.692 336.23 225.804C332.057 225.804 330.106 219.289 330.034 214.364C330.034 214.364 321.64 190.494 325.397 179.22C329.155 167.946 338.856 166.689 349.107 166.022C350.132 165.955 351.175 165.894 352.232 165.839C354.065 165.743 355.941 165.665 357.84 165.604C359.583 165.548 355.159 170.765 362.978 170.765C369.581 170.765 367.17 165.437 369.192 165.437C383.255 165.469 393.412 165.128 400.557 172.644Z" fill="#236852"/>
<path d="M361.253 165.967C361.061 166.327 355.065 179.614 354.857 179.166C354.65 178.718 347.007 168.445 347.007 168.445C347.007 168.445 351.492 163.241 351.548 163.249L361.253 165.967Z" fill="#37A07F"/>
<path d="M365.115 165.468C365.307 165.828 371.311 179.115 371.511 178.667C371.711 178.22 379.361 167.947 379.361 167.947C379.361 167.947 374.868 162.742 374.82 162.75L365.115 165.468Z" fill="#37A07F"/>
<path d="M322.744 107.507C323.088 111.664 326.422 117.9 324.663 124.967C323.679 134.929 321.889 145.666 333.457 156.051C343.21 166.108 372.719 165.572 389.332 151.845C401.108 143.611 399.141 130.356 399.141 130.356C408.023 126.934 411.637 113.567 406.416 112.392C405.305 112.135 404.149 112.139 403.039 112.404C401.929 112.669 400.896 113.188 400.02 113.919C400.02 113.919 400.228 93.0607 396.287 87.6483C377.02 77.0233 356.114 80.8928 335.567 84.0267C335.551 84.0267 321.857 96.6662 322.744 107.507Z" fill="url(#paint0_linear)"/>
<path d="M359.256 111.704C365.955 111.944 371.759 113.095 375.365 115.486C377.467 116.285 378.707 112.824 376.236 111.488C371.284 109 365.786 107.795 360.247 107.987C357.233 108.027 356.074 111.6 359.256 111.704Z" fill="#4E1E05"/>
<path d="M341.716 114.671C335.568 115.47 330.371 117.029 327.365 119.667C325.543 120.651 323.928 117.317 326.03 115.814C329.9 113.048 334.92 111.481 340.293 111.097C343.091 110.897 344.634 114.311 341.716 114.671Z" fill="#4E1E05"/>
<path d="M322.23 111.019C343.516 114.376 363.907 111.019 402.918 108.17C402.879 106.071 402.031 101.964 402.031 101.964C402.031 101.964 405.94 73.9993 386.257 67.4003C375.268 55.1065 349.826 60.5363 339.195 66.4752L337.967 68.7752C337.967 68.7752 316.663 77.8019 319.677 96.3113C311.079 98.9219 309.759 107.96 322.23 111.019Z" fill="#37A07F"/>
<path opacity="0.2" d="M337.942 68.7804L339.17 66.4805C350.96 63.6214 363.395 65.3767 373.92 71.3854C364.599 67.9403 349.451 65.6986 337.942 68.7804Z" fill="black"/>
<path d="M352.05 96.2745L339.115 96.0472C338.343 95.9994 337.622 95.6471 337.109 95.0678C336.596 94.4884 336.334 93.7293 336.38 92.957L336.959 79.5415C336.98 78.7681 337.306 78.0343 337.867 77.5013C338.428 76.9683 339.177 76.6796 339.951 76.6984L352.885 76.9188C353.268 76.9426 353.643 77.0415 353.987 77.21C354.332 77.3785 354.64 77.6132 354.894 77.9008C355.148 78.1884 355.343 78.5233 355.468 78.8862C355.592 79.2491 355.644 79.633 355.62 80.016L355.041 93.4246C355.032 93.8081 354.947 94.1862 354.792 94.537C354.637 94.8879 354.414 95.2046 354.136 95.4693C353.858 95.734 353.531 95.9413 353.173 96.0794C352.815 96.2176 352.433 96.2839 352.05 96.2745Z" fill="white"/>
<path d="M349.958 94.2251L349.125 94.1892C348.768 94.1522 348.439 93.983 348.201 93.7148L342.275 87.2112L348.16 87.1411L350.369 93.6429C350.42 93.7485 350.619 94.2399 349.998 94.2475" fill="#236852"/>
<path d="M352.331 81.5837L352.329 81.6319L348.134 87.1194L342.248 87.1895L350.351 80.8087C350.59 80.6272 350.878 80.5219 351.178 80.5064L351.866 80.5361C352.828 80.6259 352.48 81.3281 352.347 81.543" fill="#236852"/>
<path d="M342.523 80.3401C342.281 80.059 341.941 79.8814 341.572 79.8439L340.739 79.808C340.113 79.7809 340.31 80.3136 340.368 80.4195L342.638 86.6136L348.51 86.867L342.523 80.3401Z" fill="#72E8B2"/>
<path d="M340.318 93.2506L348.468 86.8788L342.597 86.6253L338.394 92.4435L338.393 92.4848C338.259 92.7066 337.918 93.4022 338.88 93.492L339.568 93.5217C339.871 93.5127 340.163 93.4069 340.402 93.2198" fill="#4BC999"/>
<path opacity="0.2" d="M319.526 95.7786L320.292 97.4921C332.126 100.102 392.468 104.142 402.48 101.04C393.493 102.596 331.097 98.5107 319.526 95.7786Z" fill="black"/>
<path d="M346.512 132.834L353.276 136.448C353.276 136.448 348.519 136.584 348.031 136.352C346.779 135.289 345.621 134.12 344.57 132.858C349.367 129.756 348.679 123.608 346.712 119.515C350.366 124.744 349.806 128.325 346.512 132.834Z" fill="#E8B79D"/>
<path d="M365.443 126.455C364.453 126.571 363.45 126.389 362.563 125.933C361.676 125.477 360.945 124.767 360.463 123.894C359.981 123.02 359.77 122.023 359.857 121.03C359.945 120.036 360.326 119.091 360.952 118.315C361.578 117.539 362.422 116.967 363.374 116.672C364.327 116.377 365.346 116.373 366.302 116.659C367.257 116.946 368.105 117.51 368.738 118.281C369.371 119.052 369.761 119.993 369.856 120.986C369.993 122.296 369.606 123.607 368.779 124.631C367.952 125.656 366.752 126.312 365.443 126.455Z" fill="#E8B79D"/>
<path d="M365.251 125.503C364.381 125.564 363.512 125.366 362.753 124.935C361.995 124.505 361.38 123.86 360.986 123.081C360.592 122.303 360.436 121.426 360.537 120.559C360.639 119.693 360.994 118.875 361.558 118.209C362.122 117.544 362.869 117.059 363.707 116.816C364.545 116.572 365.436 116.582 366.269 116.842C367.102 117.103 367.839 117.603 368.389 118.28C368.939 118.958 369.277 119.782 369.361 120.65C369.41 121.239 369.343 121.831 369.163 122.394C368.983 122.957 368.694 123.478 368.312 123.929C367.931 124.38 367.464 124.751 366.939 125.021C366.413 125.291 365.84 125.455 365.251 125.503Z" fill="black"/>
<path d="M361.15 121.45C361.198 122.12 361.445 122.762 361.859 123.292C362.273 123.822 362.836 124.216 363.475 124.425C364.114 124.633 364.802 124.647 365.449 124.463C366.095 124.279 366.673 123.906 367.107 123.392C367.541 122.878 367.812 122.247 367.885 121.578C367.958 120.91 367.831 120.234 367.518 119.639C367.206 119.043 366.723 118.554 366.131 118.235C365.539 117.915 364.866 117.779 364.196 117.844C363.315 117.921 362.501 118.344 361.93 119.019C361.36 119.695 361.079 120.568 361.15 121.45Z" fill="#111111"/>
<path d="M363.662 121.49C363.302 121.509 362.949 121.388 362.675 121.154C362.402 120.919 362.23 120.587 362.195 120.229C362.16 119.87 362.265 119.512 362.487 119.228C362.71 118.945 363.033 118.759 363.39 118.708C363.749 118.688 364.101 118.81 364.37 119.048C364.639 119.286 364.804 119.62 364.829 119.979C364.874 120.334 364.777 120.692 364.558 120.976C364.339 121.259 364.017 121.444 363.662 121.49Z" fill="white"/>
<path d="M407.256 118.78C407.911 120.278 408.024 121.959 407.575 123.532C407.125 125.104 406.142 126.472 404.793 127.398C402.635 128.925 400.708 128.917 400.908 127.342C401.108 125.767 404.546 123.92 403.482 122.545C402.419 121.17 401.028 122.177 400.5 121.066C399.661 119.339 403.802 110.129 407.256 118.78Z" fill="#D29E73"/>
<path d="M335.448 128.917C334.458 129.032 333.456 128.849 332.569 128.391C331.683 127.934 330.954 127.223 330.473 126.35C329.992 125.476 329.783 124.479 329.871 123.486C329.959 122.493 330.341 121.548 330.967 120.773C331.594 119.998 332.438 119.427 333.391 119.132C334.343 118.838 335.362 118.834 336.317 119.121C337.272 119.408 338.12 119.973 338.752 120.744C339.385 121.515 339.774 122.456 339.869 123.449C340.004 124.759 339.614 126.07 338.786 127.094C337.958 128.119 336.758 128.774 335.448 128.917Z" fill="#E8B79D"/>
<path d="M335.256 127.965C334.385 128.029 333.515 127.834 332.754 127.406C331.993 126.977 331.376 126.333 330.98 125.556C330.583 124.778 330.425 123.9 330.525 123.033C330.624 122.165 330.978 121.347 331.541 120.679C332.104 120.012 332.851 119.526 333.689 119.281C334.527 119.036 335.419 119.044 336.253 119.304C337.086 119.564 337.825 120.064 338.375 120.741C338.926 121.419 339.265 122.244 339.349 123.113C339.446 124.298 339.071 125.474 338.304 126.384C337.537 127.293 336.441 127.862 335.256 127.965Z" fill="black"/>
<path d="M331.163 123.944C331.209 124.616 331.454 125.258 331.867 125.789C332.281 126.32 332.843 126.716 333.482 126.926C334.122 127.135 334.809 127.15 335.457 126.967C336.104 126.783 336.683 126.411 337.117 125.898C337.552 125.384 337.824 124.752 337.898 124.083C337.972 123.415 337.844 122.739 337.532 122.143C337.22 121.547 336.736 121.057 336.144 120.737C335.552 120.417 334.878 120.281 334.209 120.347C333.772 120.382 333.347 120.503 332.957 120.703C332.567 120.903 332.221 121.178 331.938 121.513C331.655 121.847 331.441 122.234 331.308 122.651C331.175 123.068 331.125 123.508 331.163 123.944Z" fill="#111111"/>
<path d="M333.664 123.96C333.387 124.005 333.103 123.966 332.849 123.848C332.595 123.73 332.382 123.538 332.238 123.297C332.094 123.056 332.026 122.778 332.042 122.498C332.058 122.218 332.159 121.949 332.329 121.727C332.5 121.505 332.734 121.339 333 121.251C333.267 121.163 333.553 121.157 333.823 121.234C334.093 121.311 334.333 121.467 334.513 121.683C334.692 121.898 334.803 122.162 334.831 122.441C334.855 122.618 334.843 122.797 334.797 122.969C334.751 123.141 334.672 123.302 334.563 123.443C334.455 123.585 334.319 123.703 334.165 123.792C334.011 123.88 333.84 123.938 333.664 123.96Z" fill="white"/>
<path d="M302.341 176.927L298.728 168.932C298.532 168.485 298.513 167.979 298.675 167.518C298.837 167.057 299.167 166.674 299.599 166.446L300.303 166.086C300.508 165.975 300.735 165.907 300.968 165.886C301.201 165.866 301.435 165.895 301.657 165.97C301.878 166.045 302.082 166.165 302.255 166.323C302.428 166.48 302.566 166.672 302.661 166.886L306.275 174.881C306.468 175.327 306.486 175.831 306.324 176.29C306.163 176.75 305.834 177.131 305.403 177.359L304.692 177.727C304.487 177.837 304.261 177.904 304.029 177.923C303.797 177.943 303.563 177.914 303.342 177.839C303.122 177.764 302.919 177.644 302.747 177.487C302.575 177.33 302.437 177.14 302.341 176.927Z" fill="url(#paint1_linear)"/>
<path d="M293.06 171.899L287.464 168.477C287.124 168.27 286.88 167.937 286.784 167.551C286.688 167.165 286.749 166.756 286.952 166.414L287.288 165.847C287.387 165.679 287.519 165.534 287.675 165.418C287.832 165.302 288.009 165.218 288.198 165.171C288.387 165.124 288.583 165.115 288.776 165.145C288.968 165.174 289.152 165.242 289.319 165.343L294.915 168.765C295.253 168.973 295.496 169.306 295.591 169.692C295.687 170.077 295.628 170.485 295.426 170.827L295.091 171.395C294.992 171.563 294.861 171.71 294.705 171.826C294.548 171.943 294.371 172.027 294.181 172.074C293.992 172.121 293.796 172.13 293.603 172.1C293.41 172.069 293.226 172.001 293.06 171.899Z" fill="url(#paint2_linear)"/>
<path d="M294.37 173.258L290.429 168.029C290.189 167.712 290.083 167.313 290.134 166.918C290.184 166.524 290.388 166.165 290.701 165.919L291.22 165.519C291.374 165.398 291.55 165.308 291.738 165.256C291.927 165.204 292.123 165.191 292.317 165.216C292.511 165.241 292.698 165.305 292.866 165.404C293.035 165.503 293.182 165.634 293.299 165.791L297.248 171.019C297.485 171.337 297.589 171.735 297.536 172.127C297.484 172.52 297.28 172.877 296.969 173.122L296.449 173.529C296.295 173.65 296.119 173.738 295.931 173.789C295.743 173.841 295.546 173.854 295.353 173.829C295.159 173.803 294.973 173.74 294.804 173.642C294.636 173.544 294.488 173.413 294.37 173.258Z" fill="url(#paint3_linear)"/>
<path d="M304.86 181.908C300.775 183.331 301.118 178.758 294.938 175.68C294.307 175.288 293.02 174.808 290.485 173.617C288.815 172.626 286.488 170.867 285.017 170.139C284.561 165.087 293.308 169.612 299.407 171.794C307.242 172.89 309.161 173.393 309.681 178.19C309.872 180.277 306.515 180.612 304.86 181.908Z" fill="url(#paint4_linear)"/>
<path d="M327.893 174.936L314.198 190.382C312.384 183.858 312.088 184.41 308.97 176.591C308.97 176.591 305.564 179.837 301.351 179.981C301.959 185.465 305.78 205.484 313.951 204.764C322.417 204.013 325.943 196.042 329.628 192.549L327.893 174.936Z" fill="#236852"/>
<path d="M309.752 175.768L299.551 180.565C299.551 180.565 301.046 184.666 301.23 184.562C301.414 184.458 311.295 180.565 311.295 180.565L309.752 175.768Z" fill="#37A07F"/>
<path d="M427.478 172.167L431.061 166.678C431.277 166.344 431.353 165.939 431.273 165.55C431.194 165.161 430.965 164.818 430.636 164.596L430.089 164.228C429.928 164.118 429.746 164.041 429.555 164.002C429.363 163.964 429.166 163.964 428.975 164.003C428.784 164.042 428.602 164.119 428.441 164.23C428.281 164.34 428.144 164.482 428.039 164.647L424.459 170.144C424.242 170.475 424.164 170.879 424.243 171.268C424.322 171.657 424.551 171.998 424.881 172.219L425.429 172.586C425.59 172.697 425.771 172.774 425.963 172.812C426.154 172.851 426.351 172.851 426.542 172.812C426.734 172.773 426.915 172.695 427.076 172.585C427.237 172.474 427.374 172.332 427.478 172.167Z" fill="url(#paint5_linear)"/>
<path d="M431.82 171.377L435.769 166.149C436.008 165.832 436.113 165.434 436.061 165.04C436.008 164.647 435.803 164.29 435.49 164.046L434.978 163.639C434.824 163.518 434.648 163.429 434.459 163.378C434.27 163.326 434.073 163.313 433.88 163.339C433.686 163.366 433.499 163.43 433.331 163.53C433.163 163.629 433.016 163.761 432.899 163.918L428.934 169.139C428.695 169.457 428.59 169.857 428.642 170.251C428.695 170.646 428.9 171.005 429.214 171.249L429.733 171.649C429.887 171.773 430.063 171.864 430.252 171.917C430.442 171.97 430.64 171.985 430.835 171.959C431.03 171.934 431.218 171.869 431.387 171.769C431.556 171.669 431.704 171.536 431.82 171.377Z" fill="url(#paint6_linear)"/>
<path d="M422.955 180.035C427.032 181.458 426.688 176.885 432.868 173.807C433.508 173.407 434.953 172.309 437.495 171.118C439.158 170.127 438.382 167.572 438.382 165.798C435.722 162.252 436.608 169.345 430.402 171.118C422.575 172.213 418.662 171.561 418.134 176.317C417.934 178.436 421.292 178.74 422.955 180.035Z" fill="url(#paint7_linear)"/>
<path d="M399.426 173.008L413.169 188.454C414.984 181.922 415.279 182.482 418.397 174.663C418.397 174.663 421.803 177.909 426.016 178.053C425.409 183.537 421.587 203.556 413.417 202.837C404.95 202.077 401.425 194.114 397.739 190.621L399.426 173.008Z" fill="#236852"/>
<path d="M417.573 173.839C417.988 174.023 427.774 178.636 427.774 178.636C427.774 178.636 426.279 182.738 426.095 182.634C425.911 182.53 416.03 178.636 416.03 178.636L417.573 173.839Z" fill="#37A07F"/>
<path d="M362.566 150.806C361.015 147.608 346.337 145.002 345.865 148.839C345.378 140.509 361.367 142.236 362.566 150.806Z" fill="#320000"/>
<path d="M351.046 146.353C347.52 146.305 346.025 147.296 345.865 148.807C346.585 145.13 360.447 147.832 362.566 150.806C361.119 147.712 355.187 146.401 351.046 146.353Z" fill="#E8B79D"/>
<path d="M436.351 175.881C435.484 175.183 434.392 174.83 433.282 174.89L425.99 159.997L426.095 159.88C426.84 158.947 427.187 157.756 427.059 156.567C426.932 155.379 426.34 154.289 425.413 153.537C425.013 153.212 424.558 152.959 424.071 152.79L424.587 156.081C424.619 156.287 424.609 156.497 424.558 156.699C424.506 156.9 424.414 157.089 424.288 157.254C424.161 157.419 424.003 157.556 423.821 157.658C423.64 157.759 423.44 157.823 423.234 157.845L422.116 157.968C421.911 157.988 421.705 157.967 421.508 157.905C421.312 157.843 421.13 157.742 420.973 157.609C420.817 157.475 420.689 157.311 420.596 157.126C420.504 156.942 420.451 156.741 420.438 156.535L420.251 153.236C419.812 153.508 419.421 153.851 419.095 154.252C418.543 154.93 418.199 155.755 418.107 156.626C418.015 157.496 418.178 158.375 418.575 159.155C418.973 159.934 419.589 160.581 420.347 161.015C421.106 161.45 421.974 161.653 422.846 161.601L430.12 176.445L430.024 176.563C429.576 177.128 429.269 177.791 429.128 178.498C428.987 179.206 429.016 179.937 429.213 180.63C429.41 181.324 429.769 181.961 430.261 182.488C430.752 183.015 431.362 183.417 432.039 183.661L431.531 180.369C431.499 180.164 431.509 179.955 431.56 179.754C431.611 179.553 431.702 179.364 431.828 179.2C431.954 179.035 432.111 178.897 432.292 178.795C432.472 178.693 432.671 178.629 432.877 178.606L434.002 178.491C434.207 178.47 434.415 178.49 434.612 178.552C434.808 178.613 434.991 178.714 435.148 178.848C435.305 178.982 435.433 179.146 435.524 179.331C435.616 179.516 435.669 179.718 435.681 179.924L435.868 183.223C436.482 182.844 436.997 182.323 437.368 181.703C437.74 181.084 437.959 180.384 438.005 179.662C438.051 178.941 437.925 178.219 437.635 177.557C437.346 176.894 436.903 176.311 436.342 175.856L436.351 175.881Z" fill="#0E494D"/>
<path opacity="0.1" d="M431.485 175.235C431.379 175.287 431.263 175.317 431.145 175.324C431.027 175.331 430.908 175.315 430.796 175.276C430.684 175.237 430.581 175.176 430.493 175.097C430.405 175.018 430.333 174.922 430.282 174.815L424.447 162.904C424.393 162.797 424.362 162.681 424.353 162.562C424.345 162.443 424.36 162.323 424.398 162.21C424.437 162.097 424.497 161.993 424.576 161.904C424.654 161.814 424.75 161.741 424.857 161.689C425.072 161.583 425.32 161.567 425.548 161.644C425.775 161.721 425.962 161.885 426.069 162.101L431.904 174.02C432.007 174.237 432.021 174.486 431.942 174.713C431.864 174.94 431.7 175.128 431.485 175.235Z" fill="white"/>
<path d="M425.472 175.007L429.086 167.012C429.279 166.565 429.297 166.062 429.135 165.602C428.974 165.143 428.645 164.761 428.214 164.534L427.503 164.166C427.298 164.055 427.072 163.988 426.84 163.969C426.608 163.95 426.374 163.979 426.153 164.054C425.933 164.129 425.73 164.248 425.558 164.405C425.386 164.562 425.248 164.753 425.152 164.965L421.539 172.96C421.343 173.408 421.324 173.913 421.486 174.374C421.648 174.836 421.978 175.219 422.41 175.446L423.114 175.814C423.32 175.924 423.547 175.991 423.78 176.01C424.013 176.029 424.247 175.999 424.469 175.924C424.69 175.848 424.893 175.727 425.066 175.57C425.239 175.412 425.377 175.22 425.472 175.007Z" fill="url(#paint8_linear)"/>
<defs>
<linearGradient id="paint0_linear" x1="323.73" y1="109.357" x2="404.384" y2="134.991" gradientUnits="userSpaceOnUse">
<stop stop-color="#FFDABC"/>
<stop offset="0.27" stop-color="#FED7B8"/>
<stop offset="0.52" stop-color="#FACFAD"/>
<stop offset="0.75" stop-color="#F3C19B"/>
<stop offset="0.98" stop-color="#EAAE81"/>
<stop offset="1" stop-color="#E9AC7F"/>
</linearGradient>
<linearGradient id="paint1_linear" x1="306.698" y1="177.601" x2="302.556" y2="169.848" gradientUnits="userSpaceOnUse">
<stop stop-color="#FFDDC0"/>
<stop offset="1" stop-color="#FFD8B6"/>
</linearGradient>
<linearGradient id="paint2_linear" x1="292.223" y1="171.43" x2="294.024" y2="168.498" gradientUnits="userSpaceOnUse">
<stop stop-color="#FFDDC0"/>
<stop offset="1" stop-color="#FFD3AE"/>
</linearGradient>
<linearGradient id="paint3_linear" x1="-4134.56" y1="1135.95" x2="-4150.4" y2="1149.92" gradientUnits="userSpaceOnUse">
<stop stop-color="#FFDDC0"/>
<stop offset="1" stop-color="#FFD3AE"/>
</linearGradient>
<linearGradient id="paint4_linear" x1="289.492" y1="167.535" x2="311.054" y2="182.093" gradientUnits="userSpaceOnUse">
<stop stop-color="#FFDDC0"/>
<stop offset="1" stop-color="#FFDDC0"/>
</linearGradient>
<linearGradient id="paint5_linear" x1="2520.96" y1="774.449" x2="2495.7" y2="758.096" gradientUnits="userSpaceOnUse">
<stop stop-color="#FFDDC0"/>
<stop offset="1" stop-color="#FFD3AE"/>
</linearGradient>
<linearGradient id="paint6_linear" x1="2272.97" y1="833.583" x2="2288.87" y2="847.592" gradientUnits="userSpaceOnUse">
<stop stop-color="#FFDDC0"/>
<stop offset="1" stop-color="#FFD3AE"/>
</linearGradient>
<linearGradient id="paint7_linear" x1="314.347" y1="-288.592" x2="-97.9198" y2="190.482" gradientUnits="userSpaceOnUse">
<stop stop-color="#FFDDC0"/>
<stop offset="1" stop-color="#FFDDC0"/>
</linearGradient>
<linearGradient id="paint8_linear" x1="3439.48" y1="187.02" x2="3480.05" y2="110.593" gradientUnits="userSpaceOnUse">
<stop stop-color="#FFDDC0"/>
<stop offset="1" stop-color="#FFD8B6"/>
</linearGradient>
</defs>
</svg>
