<svg width="27" height="21" viewBox="0 0 27 21" fill="none" xmlns="http://www.w3.org/2000/svg">
<path d="M16.1581 6.34564C17.6087 4.89506 17.6087 2.53851 16.1581 1.08793C14.7076 -0.362644 12.351 -0.362644 10.9004 1.08793C9.44986 2.53851 9.44986 4.89506 10.9004 6.34564C12.351 7.8013 14.7025 7.8013 16.1581 6.34564Z" fill="#EFB533"/>
<path d="M16.1583 6.34559C17.6089 4.89502 17.6089 2.53847 16.1583 1.08789L10.8955 6.34559C12.3512 7.80126 14.7026 7.80126 16.1583 6.34559Z" fill="#E5AA17"/>
<path d="M15.807 5.9995C17.0642 4.74233 17.0642 2.70135 15.807 1.43909C14.5498 0.181924 12.5088 0.181924 11.2466 1.43909C9.98942 2.69626 9.98942 4.73724 11.2466 5.9995C12.5038 7.25666 14.5498 7.25666 15.807 5.9995Z" fill="#F4DE7F"/>
<path d="M15.8075 5.99943C17.0646 4.74227 17.0646 2.70128 15.8075 1.43903L11.2471 5.99943C12.5042 7.2566 14.5503 7.2566 15.8075 5.99943Z" fill="#F2D55A"/>
<path d="M14.082 4.43687C14.082 4.14676 13.7563 4.07041 13.3695 3.97879C13.3389 3.9737 13.3135 3.96861 13.2829 3.95844L12.6772 4.56411C12.891 4.7219 13.1862 4.83387 13.4916 4.83387C13.8682 4.83387 14.082 4.67609 14.082 4.43687Z" fill="#F2D55A"/>
<path d="M15.8072 1.43903L14.7485 2.49769C14.7587 2.53332 14.7638 2.56895 14.7638 2.60458C14.7638 2.84379 14.494 3.01176 14.4788 2.9914C14.4431 2.95068 14.4075 2.91505 14.3668 2.87942L13.8069 3.43929C14.2752 3.55127 14.8351 3.75995 14.8351 4.40635C14.8351 4.94077 14.4686 5.30723 13.8476 5.40393V5.60752C13.8476 5.85183 13.7509 5.96381 13.5423 5.96381H13.5168C13.298 5.96381 13.2165 5.85183 13.2165 5.60752V5.41411C12.733 5.36322 12.4072 5.17999 12.2749 4.96622L11.2417 5.99943C12.4989 7.2566 14.5398 7.2566 15.8021 5.99943C17.0644 4.73718 17.0644 2.69619 15.8072 1.43903Z" fill="#F2D55A"/>
<path d="M14.8919 1.99634V4.43553C14.8919 4.84079 14.7696 5.16127 14.5249 5.39696C14.2819 5.63266 13.9492 5.7505 13.5268 5.7505C13.1109 5.7505 12.7806 5.63605 12.5359 5.40714C12.2913 5.17822 12.1665 4.86368 12.1616 4.46351V1.99634H12.8956V4.44062C12.8956 4.68309 12.951 4.86029 13.0619 4.9722C13.1745 5.08242 13.3294 5.13753 13.5268 5.13753C13.9394 5.13753 14.149 4.91201 14.1555 4.46096V1.99634H14.8919Z" fill="#E5AA17"/>
<path fill-rule="evenodd" clip-rule="evenodd" d="M12.2554 4.99068C12.1953 4.83557 12.164 4.65984 12.1616 4.46351V1.99634H12.8956V4.3505L12.2554 4.99068ZM14.1555 3.09055L14.8919 2.35415V1.99634H14.1555V3.09055Z" fill="#F0B72A"/>
<path d="M14.4785 2.98632C14.4937 3.00668 14.7635 2.83872 14.7635 2.5995C14.7635 2.56387 14.7584 2.52824 14.7482 2.49261L14.3716 2.86926C14.4072 2.91506 14.4428 2.95069 14.4785 2.98632Z" fill="#E5AA17"/>
<path d="M16.6111 10.2138L15.0892 9.17039C15.0892 9.17039 14.8958 8.93626 14.1426 8.88027C12.9566 8.79375 10.6001 8.24915 10.6001 8.24915C9.14952 8.68177 9.27676 9.96948 9.27676 9.96948L13.0737 10.6973C13.0737 10.6973 14.8246 10.5599 15.2572 10.8347C16.3159 11.4964 16.8401 10.4072 16.8401 10.4072L16.6111 10.2138Z" fill="#FBBF96"/>
<path d="M15.8225 9.66919L16.8354 10.3207C16.8354 10.3207 16.6064 10.5344 16.4129 10.509C16.1992 10.4785 15.7462 9.97966 15.8225 9.66919Z" fill="#FDD6B2"/>
<path d="M16.4588 10.6463L14.6366 10.1628L12.9214 9.94902L14.1378 9.88286C14.1378 9.88286 14.6366 9.84723 15.0082 10.0457C15.3034 10.2035 16.4588 10.6463 16.4588 10.6463Z" fill="#EDAC80"/>
<path d="M14.759 9.46072C14.7285 9.45563 14.7081 9.42 14.7132 9.38946L14.7793 9.09426C14.7895 9.06372 14.8201 9.04336 14.8506 9.04845C14.8811 9.05354 14.9015 9.08917 14.8964 9.1197L14.8302 9.41491C14.8252 9.45054 14.7895 9.4709 14.759 9.46072Z" fill="#FDD6B2"/>
<path d="M14.5705 9.26714C14.54 9.25696 14.5196 9.22642 14.5247 9.19589L14.5552 9.0381C14.5603 9.00756 14.596 8.98721 14.6265 8.9923C14.657 9.00248 14.6774 9.03301 14.6723 9.06355L14.6418 9.22133C14.6367 9.25187 14.6011 9.27223 14.5705 9.26714Z" fill="#FDD6B2"/>
<path d="M16.8098 17.3496C17.2526 17.0748 18.4436 15.8736 18.1688 15.4308C17.8939 14.988 17.3137 14.8557 16.8709 15.1254L13.4506 17.2122C13.0078 17.4871 12.7889 17.9095 13.0637 18.3523C13.3386 18.7951 13.6898 18.8002 14.2853 18.5406L16.8098 17.3496Z" fill="#FBBF96"/>
<path d="M15.4204 16.2247L12.9417 17.9909C12.9265 17.5532 13.125 17.4208 13.3795 17.263L16.0974 15.4816C16.0363 15.5732 15.5222 16.1586 15.4204 16.2247Z" fill="#EDAC80"/>
<path d="M12.7891 11.4557L13.639 10.738L13.4558 9.30782L17.9755 7.76562L22.2763 12.3515C22.2763 12.3515 21.121 14.1685 19.9605 15.2425C18.8001 16.3164 16.754 17.3801 16.754 17.3801L12.7891 11.4557Z" fill="#F1A977"/>
<path d="M17.7872 14.759C18.23 14.4842 18.3624 13.904 18.0926 13.4611C17.8178 13.0183 17.2375 12.886 16.7947 13.1558L11.9544 16.1587C11.5116 16.4336 11.3741 17.0138 11.649 17.4566C11.9238 17.8994 12.5041 18.0317 12.9469 17.762L17.7872 14.759Z" fill="#F1A977"/>
<path d="M13.6796 15.3238L11.5114 16.978C11.5063 16.6064 11.6539 16.3468 11.9084 16.189L13.8577 14.9319C13.7967 15.0235 13.7763 15.2576 13.6796 15.3238Z" fill="#EDAC80"/>
<path d="M13.5372 12.9369C13.9189 12.6671 15.2067 11.9393 14.9369 11.5626L15.1863 10.3207C14.9165 9.94409 12.2444 11.7917 12.0307 11.9444L7.18522 15.2527C6.64062 15.6395 6.55409 16.1688 6.82385 16.5506C7.0936 16.9272 7.62294 17.0188 7.99958 16.7491L13.5372 12.9369Z" fill="#F1A977"/>
<path d="M16.6827 17.2784C17.095 17.0951 17.2171 16.4946 17.0084 16.1535C16.7947 15.8074 16.3213 15.7158 15.9498 15.9449L10.799 19.0598C10.4274 19.2888 10.3002 19.752 10.5089 20.0981C10.7226 20.4442 11.1807 20.5002 11.481 20.3424L16.7082 17.2682" fill="#F1A977"/>
<path d="M15.5529 16.2043L13.1404 17.8126C12.8554 17.9806 10.8347 19.0851 11.0485 18.9527L16.2757 15.7004C16.2197 15.7767 15.6344 16.1483 15.5529 16.2043Z" fill="#EDAC80"/>
<path d="M14.479 14.6825C14.9778 14.4382 15.105 13.6951 14.8251 13.2777C14.5502 12.8604 13.9598 12.7688 13.5119 13.0691L7.31771 17.1409C6.86981 17.4411 6.73239 18.0163 7.01232 18.4336C7.28717 18.8459 7.85722 18.8968 8.21859 18.6881L14.5095 14.6571" fill="#F1A977"/>
<path d="M13.0434 13.405L10.1473 15.502C9.80628 15.7259 7.36321 17.1714 7.62278 17.0035L13.9086 12.7535C13.8425 12.8502 13.1401 13.3338 13.0434 13.405Z" fill="#EDAC80"/>
<path d="M15.4508 15.9958C15.919 15.7566 16.031 15.044 15.7612 14.6521C15.4915 14.2602 14.9316 14.1787 14.5092 14.4739L8.66613 18.449C8.24368 18.7391 8.12153 19.2939 8.39128 19.6858C8.66104 20.0777 9.20055 20.1185 9.54665 19.9098L15.4762 15.9805" fill="#F1A977"/>
<path d="M14.0611 14.8047L11.333 16.8457C11.0123 17.0595 8.71178 18.4795 8.951 18.3116L14.8755 14.1685C14.8144 14.2601 14.1527 14.7335 14.0611 14.8047Z" fill="#EDAC80"/>
<path d="M10.366 17.3496C9.92316 17.0748 8.73216 15.8736 9.00701 15.4308C9.28186 14.988 9.86209 14.8557 10.3049 15.1254L13.7201 17.2122C14.1629 17.4871 14.3818 17.9095 14.1069 18.3523C13.8321 18.7951 13.4809 18.8002 12.8854 18.5406L10.366 17.3496Z" fill="#FBBF96"/>
<path d="M11.7555 16.2247L14.2342 17.9909C14.2495 17.5532 14.051 17.4208 13.7965 17.263L11.0786 15.4816C11.1397 15.5732 11.6538 16.1586 11.7555 16.2247Z" fill="#EDAC80"/>
<path d="M14.3872 11.4557L13.5372 10.738L13.7204 9.30778L9.20073 7.7605L4.8999 12.3464C4.8999 12.3464 6.05527 14.1634 7.21573 15.2373C8.3762 16.3113 10.4223 17.375 10.4223 17.375L14.3872 11.4557Z" fill="#FBBF96"/>
<path d="M9.38913 14.7589C8.94632 14.4841 8.81398 13.9038 9.08374 13.461C9.35859 13.0182 9.93882 12.8859 10.3816 13.1556L15.222 16.1586C15.6648 16.4334 15.8022 17.0137 15.5274 17.4565C15.2525 17.8993 14.6723 18.0316 14.2295 17.7619L9.38913 14.7589Z" fill="#FBBF96"/>
<path d="M13.4965 15.3238L15.6647 16.978C15.6698 16.6064 15.5222 16.3468 15.2677 16.189L13.3184 14.9319C13.3845 15.0235 13.3998 15.2576 13.4965 15.3238Z" fill="#EDAC80"/>
<path d="M13.6388 12.9369C13.2622 12.6671 11.9694 11.9393 12.2391 11.5626L11.9897 10.3207C12.2595 9.94409 14.9316 11.7917 15.1454 11.9444L19.9908 15.2527C20.5354 15.6395 20.6219 16.1688 20.3522 16.5506C20.0824 16.9272 19.5531 17.0188 19.1765 16.7491L13.6388 12.9369Z" fill="#FBBF96"/>
<path d="M19.1152 16.357L19.4562 16.5962C19.6955 16.7693 20.0416 16.698 20.2248 16.4385C20.408 16.1789 20.3622 15.8328 20.123 15.6648L19.7871 15.4256C19.7871 15.4256 19.6089 15.4969 19.3901 15.8124C19.1203 16.1992 19.1458 16.2349 19.1152 16.357Z" fill="#FDD6B2"/>
<path d="M16.5295 14.6011C16.5041 14.5807 16.4939 14.5451 16.5142 14.5145L17.1301 13.6493C17.1505 13.6238 17.1861 13.6136 17.2166 13.634C17.2421 13.6544 17.2523 13.69 17.2319 13.7205L16.616 14.5858C16.5957 14.6163 16.555 14.6214 16.5295 14.6011Z" fill="#FDD6B2"/>
<path d="M16.4432 14.2041C16.4177 14.1889 16.4126 14.1532 16.433 14.1278L16.7384 13.7002C16.7536 13.6748 16.7893 13.6697 16.8147 13.685C16.8402 13.7053 16.8452 13.7359 16.8249 13.7613L16.5195 14.1889C16.5042 14.2143 16.4686 14.2194 16.4432 14.2041Z" fill="#FDD6B2"/>
<path d="M10.4937 17.2783C10.0814 17.0951 9.95923 16.4945 10.1679 16.1535C10.3817 15.8074 10.855 15.7158 11.2266 15.9448L16.3774 19.0597C16.7489 19.2888 16.8762 19.7519 16.6675 20.098C16.4537 20.4441 15.9957 20.5001 15.6954 20.3423L10.4733 17.2681" fill="#FBBF96"/>
<path d="M11.6236 16.2043L14.0362 17.8126C14.3212 17.9806 16.3418 19.0851 16.128 18.9527L10.9009 15.7004C10.9569 15.7767 11.5422 16.1483 11.6236 16.2043Z" fill="#EDAC80"/>
<path d="M15.5576 20.0167L15.8681 20.205C16.0869 20.3373 16.3822 20.2559 16.5247 20.0218C16.6672 19.7876 16.6112 19.4873 16.3923 19.355L16.0869 19.1667C16.0869 19.1667 15.9393 19.243 15.7663 19.523C15.5474 19.8793 15.5729 19.9047 15.5576 20.0167Z" fill="#FDD6B2"/>
<path d="M13.3232 18.7545C13.2977 18.7392 13.2926 18.7087 13.3079 18.6832L13.8016 17.9045C13.8169 17.879 13.8525 17.8739 13.8729 17.8892C13.8983 17.9045 13.9034 17.9401 13.8881 17.9605L13.3944 18.7392C13.3792 18.7596 13.3486 18.7697 13.3232 18.7545Z" fill="#FDD6B2"/>
<path d="M13.2316 18.4084C13.2112 18.3931 13.2011 18.3677 13.2163 18.3422L13.4606 17.9605C13.4759 17.9401 13.5014 17.9299 13.5268 17.9452C13.5472 17.9605 13.5574 17.9859 13.5421 18.0114L13.2978 18.3982C13.2825 18.4186 13.252 18.4237 13.2316 18.4084Z" fill="#FDD6B2"/>
<path d="M12.6975 14.6825C12.1987 14.4382 12.0715 13.6951 12.3514 13.2777C12.6262 12.8604 13.2166 12.7688 13.6645 13.0691L19.8639 17.1459C20.3117 17.4462 20.4492 18.0214 20.1692 18.4387C19.8944 18.851 19.3243 18.9019 18.963 18.6932L12.672 14.6622" fill="#FBBF96"/>
<path d="M14.1377 13.405L17.0338 15.502C17.3748 15.7259 19.8179 17.1714 19.5583 17.0035L13.2725 12.7535C13.3335 12.8502 14.0359 13.3338 14.1377 13.405Z" fill="#EDAC80"/>
<path d="M18.8052 18.2861L19.1767 18.5304C19.4414 18.7035 19.8079 18.6169 19.9962 18.337C20.1845 18.0571 20.1234 17.6855 19.8638 17.5074L19.4923 17.2631C19.4923 17.2631 19.304 17.3496 19.08 17.6906C18.8001 18.1131 18.8306 18.1487 18.8052 18.2861Z" fill="#FDD6B2"/>
<path d="M16.1129 16.6218C16.0824 16.6014 16.0773 16.5607 16.0977 16.5302L16.7441 15.5936C16.7644 15.5631 16.8051 15.558 16.8357 15.5784C16.8662 15.5987 16.8713 15.6395 16.8509 15.67L16.2045 16.6065C16.1842 16.637 16.1435 16.6472 16.1129 16.6218Z" fill="#FDD6B2"/>
<path d="M16.016 16.1992C15.9906 16.1788 15.9855 16.1432 16.0008 16.1178L16.3214 15.6546C16.3418 15.6291 16.3774 15.6241 16.4029 15.6393C16.4283 15.6597 16.4334 15.6953 16.4181 15.7208L16.0975 16.1839C16.0771 16.2094 16.0415 16.2145 16.016 16.1992Z" fill="#FDD6B2"/>
<path d="M11.7251 15.9958C11.2568 15.7566 11.1449 15.044 11.4146 14.6521C11.6844 14.2602 12.2442 14.1787 12.6667 14.4739L18.5097 18.449C18.9322 18.7391 19.0543 19.2939 18.7846 19.6858C18.5148 20.0777 17.9753 20.1185 17.6292 19.9098L11.6996 15.9805" fill="#FBBF96"/>
<path d="M13.1144 14.8047L15.8374 16.8457C16.1631 17.0595 18.4637 18.4795 18.2194 18.3116L12.2949 14.1685C12.3611 14.2601 13.0228 14.7335 13.1144 14.8047Z" fill="#EDAC80"/>
<path d="M17.4873 19.5227L17.8385 19.762C18.0879 19.935 18.434 19.8536 18.6223 19.5889C18.8056 19.3243 18.7547 18.968 18.5053 18.8L18.1541 18.5608C18.1541 18.5608 17.9759 18.6371 17.7571 18.9578C17.4873 19.3599 17.5128 19.3955 17.4873 19.5227Z" fill="#FDD6B2"/>
<path d="M14.9474 17.8992C14.9169 17.8788 14.9118 17.8381 14.9321 17.8127L15.5633 16.9321C15.5836 16.9016 15.6243 16.8965 15.6498 16.9169C15.6803 16.9372 15.6854 16.978 15.6651 17.0034L15.0339 17.8839C15.0136 17.9145 14.9779 17.9196 14.9474 17.8992Z" fill="#FDD6B2"/>
<path d="M14.8606 17.492C14.8352 17.4768 14.8301 17.4411 14.8505 17.4157L15.1609 16.978C15.1762 16.9525 15.2118 16.9474 15.2373 16.9627C15.2627 16.983 15.2678 17.0136 15.2525 17.039L14.9421 17.4768C14.9217 17.5073 14.8861 17.5124 14.8606 17.492Z" fill="#FDD6B2"/>
<path d="M14.1476 12.779C13.9389 12.7128 13.8117 12.5143 13.8626 12.3006C13.8931 12.1682 13.6895 12.1021 13.659 12.2395C13.5827 12.5703 13.7557 12.8859 14.0815 12.9826C14.2138 13.0233 14.28 12.8197 14.1476 12.779Z" fill="#F5B78C"/>
<path d="M13.1805 14.5552C12.8344 14.4127 12.6766 14.0615 12.7937 13.7052C12.8344 13.578 12.6308 13.5322 12.585 13.6645C12.4374 14.1073 12.6563 14.5705 13.0838 14.7436C13.2111 14.7944 13.3078 14.6061 13.1805 14.5552Z" fill="#F5B78C"/>
<path d="M12.0149 15.7565C11.7655 15.6598 11.6382 15.4053 11.7197 15.1458C11.7604 15.0185 11.5619 14.9371 11.5212 15.0694C11.4041 15.4359 11.5772 15.8125 11.9385 15.955C12.0658 16.0008 12.1421 15.8023 12.0149 15.7565Z" fill="#F5B78C"/>
<path d="M10.7782 17.0953C10.5949 17.0189 10.4932 16.8306 10.5593 16.6372C10.6051 16.5099 10.4168 16.4132 10.371 16.5405C10.2692 16.8357 10.3863 17.1563 10.6815 17.2836C10.8087 17.3345 10.9054 17.1462 10.7782 17.0953Z" fill="#F5B78C"/>
<path d="M6.04008 13.7615L1.88176 10.5244C1.49494 10.2241 1.55602 9.50134 2.0141 8.91093L4.89998 5.20559C5.35806 4.61518 6.04517 4.38105 6.43199 4.68135L10.5903 7.91842C10.972 8.22381 6.4269 14.0617 6.04008 13.7615Z" fill="#E0FFF3"/>
<path d="M10.565 10.2138L12.0868 9.17039C12.0868 9.17039 12.2802 8.93626 13.0335 8.88027C14.2194 8.79375 16.576 8.24915 16.576 8.24915C18.0265 8.68177 17.8993 9.96948 17.8993 9.96948L14.1023 10.6973C14.1023 10.6973 12.3515 10.5599 11.9188 10.8347C10.8602 11.4964 10.3359 10.4072 10.3359 10.4072L10.565 10.2138Z" fill="#F1A977"/>
<path d="M11.3537 9.66919L10.3408 10.3207C10.3408 10.3207 10.5699 10.5344 10.7633 10.509C10.977 10.4785 11.43 9.97966 11.3537 9.66919Z" fill="#FDD6B2"/>
<path d="M10.7227 10.6463L12.5448 10.1628L14.26 9.94902L13.0436 9.88286C13.0436 9.88286 12.5448 9.84723 12.1732 10.0457C11.878 10.2035 10.7227 10.6463 10.7227 10.6463Z" fill="#EDAC80"/>
<path d="M12.4175 9.46072C12.448 9.45563 12.4684 9.42 12.4633 9.38946L12.3971 9.09426C12.387 9.06372 12.3564 9.04336 12.3259 9.04845C12.2953 9.05354 12.275 9.08917 12.2801 9.1197L12.3462 9.41491C12.3513 9.45054 12.387 9.4709 12.4175 9.46072Z" fill="#FDD6B2"/>
<path d="M12.606 9.2672C12.6365 9.25702 12.6569 9.22649 12.6518 9.19595L12.6213 9.03816C12.6162 9.00763 12.5805 8.98727 12.55 8.99236C12.5195 9.00254 12.4991 9.03307 12.5042 9.06361L12.5347 9.2214C12.5398 9.25193 12.5755 9.27229 12.606 9.2672Z" fill="#FDD6B2"/>
<path d="M21.5227 13.7615L25.681 10.5244C26.0678 10.2241 26.0067 9.50134 25.5487 8.91093L22.6628 5.20559C22.2047 4.61518 21.5176 4.38105 21.1308 4.68135L16.9724 7.91842C16.5907 8.22381 21.1359 14.0617 21.5227 13.7615Z" fill="#E0FFF3"/>
<path d="M10.1779 7.28721L4.61992 2.60974C2.64001 4.57947 1.31667 7.20069 0.98584 10.1273L5.20524 13.6748C5.62769 14.0006 10.6004 7.61296 10.1779 7.28721Z" fill="#37A07F"/>
<path d="M22.103 13.5424L26.073 10.1831C25.7574 7.25144 24.4392 4.62005 22.4644 2.64014L17.1303 7.14965C16.713 7.48048 21.6856 13.8681 22.103 13.5424Z" fill="#37A07F"/>
</svg>
